/* XPM */
static const char * bus_xpm[] = {
"36 14 4 1",
" 	c None",
".	c #000000",
"+	c #FFFFFF",
"@	c #939393",
"                                    ",
"           .....   .....   .....    ",
"          ..+.+.. ..+.+.. ..+.+..   ",
"          .+++++. .+++++. .+++++.   ",
"          .@+++@. .@+++@. .@+++@.   ",
"          .+++++. .+++++. .+++++.   ",
"          ..+@+.. ..+@+.. ..+@+..   ",
"           .....   .....   .....    ",
"             .       .       .      ",
"             .       .       .      ",
"             .       .       .      ",
"   . . . .....................      ",
"                                    ",
"                                    "};
