/* XPM */
static char * chord3_inv_xpm[] = {
"17 17 2 1",
" 	c #FFFFFF",
".	c #000000",
"           .     ",
"           ..    ",
"      .... . .   ",
"     .    ..  .  ",
"... .      . ... ",
"     .    ..     ",
"      .... .     ",
"      .... .     ",
"     .    ..     ",
"... .      . ... ",
"     .    ..     ",
"      .... .     ",
"      .... .     ",
"     .    ..     ",
"... .      . ... ",
"     .    .      ",
"      ....       "};
