/* XPM */
static const char * chord3_xpm [] = {
"17 17 3 1 ",
"  c #None",
". c #000000",
"+ c #9E9E9E",
"            +    ",
"            ++   ",
"     ++++++ + +  ",
"    +.    .++  + ",
"...+........+... ",
"    +.    .++    ",
"     ++++++ +    ",
"     ++++++ +    ",
"    +.    .++    ",
"...+........+... ",
"    +.    .++    ",
"     ++++++ +    ",
"     ++++++ +    ",
"    +.    .++    ",
"...+........+... ",
"    +.    .+     ",
"     ++++++      "};

