/* XPM */
static const char * chord3_inv_xpm[] = {
"17 15 3 1",
" 	c None",
".	c #000000",
"+	c #FFFFFF",
"           ..    ",
"           ...   ",
"       ... . ..  ",
"      .+++..     ",
"......+++++......",
"      .+++..     ",
"       ... .     ",
"      .+++..     ",
"......+++++......",
"      .+++..     ",
"       ... .     ",
"      .+++..     ",
"......+++++......",
"      .+++.      ",
"       ...       "};
