/* XPM */
static const char * del_xpm[] = {
"30 10 23 1",
" 	c None",
".	c #75FE00",
"+	c #FFFF00",
"@	c #0AFE00",
"#	c #1FFE00",
"$	c #56FE00",
"%	c #0EFE00",
"&	c #D6FE00",
"*	c #78FE00",
"=	c #12FE00",
"-	c #F7FF00",
";	c #B8FE00",
">	c #4AFE00",
",	c #97FE00",
"'	c #16FE00",
")	c #B6FE00",
"!	c #4CFE00",
"~	c #F5FF00",
"{	c #D4FE00",
"]	c #87FE00",
"^	c #09FE00",
"/	c #22FE00",
"(	c #5DFE00",
".++++@#     .++++++$  .+%     ",
".+%   &+*   .+=       .+%     ",
".+%    -+   .+=       .+%     ",
".+%    ;+>  .+=       .+%     ",
".+%    ,+'  .++++++   .+%     ",
".+%    ,+'  .+=       .+%     ",
".+%    )+!  .+=       .+%     ",
".+%    ~+   .+=       .+%     ",
".+%   {+]   .+=       .+%     ",
".++++^/     .++++++$  .++++++("};
