/* XPM */
static const char * down_xpm[] = {
"7 14 2 1",
" 	c None",
".	c #000000",
"       ",
"       ",
"       ",
"       ",
"  ...  ",
"  ...  ",
"  ...  ",
".......",
" ..... ",
"  ...  ",
"   .   ",
"       ",
"       ",
"       "};
