/* XPM */
static const char * drum_xpm[] = {
"18 18 5 1",
" 	c None",
".	c #000000",
"+	c #333333",
"@	c #FFFFFF",
"#	c #4DE8EA",
"              .   ",
"            ...   ",
"           ...    ",
"    +... ...      ",
"  ...@@.....+   ..",
" .@@@@..@@@@..... ",
"..@@@@@@@@.....   ",
"..@@@@@@....@@.   ",
"#.@@@@@@@@@@@@.   ",
".#..@@@@@@@@..#   ",
"..##........##.   ",
"...##########..   ",
"...#.......#...   ",
"...#.......#...   ",
"+..#.......#...   ",
" +.#.......#..+   ",
"  .#.......#..    ",
"     ++++++       "};
