/* XPM */
static const char * drum_xpm[] = {
"18 18 4 1",
" 	c None",
".	c #000000",
"+	c #333333",
"@	c #FFFFFF",
"              .   ",
"            ..    ",
"           .      ",
"    +... ..       ",
"  ...@@.....+   ..",
" .@@@@. @@@@....  ",
"..@@@@@@@@...@.   ",
"..@@@@@@.. @@@.   ",
" .@@@@@@@@@@@@.   ",
". ..@@@@@@@@..    ",
"..  ........  .   ",
"...          ..   ",
"... ....... ...   ",
"... ....... ...   ",
"+.. ....... ...   ",
" +. ....... ..+   ",
"  . ....... ..    ",
"     ++++++       "};
