/* XPM */
static const char * drum_xpm[] = {
"17 15 26 1",
" 	c None",
".	c #797979",
"+	c #000000",
"@	c #262626",
"#	c #5F5F5F",
"$	c #6C6C6C",
"%	c #424242",
"&	c #222222",
"*	c #1A1A1A",
"=	c #3C3C3C",
"-	c #505050",
";	c #040404",
">	c #828282",
",	c #FFFFFF",
"'	c #EAEAEA",
")	c #0A0A0A",
"!	c #4F4F4F",
"~	c #737373",
"{	c #717171",
"]	c #DADADA",
"^	c #DCDCDC",
"/	c #969696",
"(	c #989898",
"_	c #6D6D6D",
":	c #979797",
"<	c #999999",
"  .+             ",
"   @+      #+    ",
"    $+%&*=%+     ",
"   -;>+,',+)!    ",
"  ~+,,,+,+,,+{   ",
"  +],,,,+,,,^+   ",
"  +/,,,,,,,,(+   ",
"  ++$,,,,,,_++   ",
"  +,++++++++,+   ",
"  +,,,,,,,,,,+   ",
"  +:,,,,,,,,<+   ",
"   ++,,,,,,++    ",
"     ++++++~     ",
"                 ",
"                 "};
