/* XPM */
static const char * thru_xpm[] = {
"62 14 10 1",
" 	c None",
".	c #000000",
"+	c #FFFFFF",
"@	c #BFD8FF",
"#	c #9E9E9E",
"$	c #82B1FF",
"%	c #1E56AA",
"&	c #FFC396",
"*	c #FF9F32",
"=	c #BC681A",
"    ......                ..........                ......    ",
"  ...+..+...              .@@@@@@@@.              ...+..+...  ",
" ..+++##+++..       .     .@$$$$$$%.      .      ..+++##+++.. ",
" .++++++++++.       ..    .@$$$$$$%.      ..     .++++++++++. ",
"..++++++++++..      .&.   .@$$$$$$%.      .&.   ..++++++++++..",
".++++++++++++. ......&*.  .@$$$$$$%. ......&*.  .++++++++++++.",
".+..++++++..+. .&&&&&***. .@$$$$$$%. .&&&&&***. .+..++++++..+.",
".+#.++++++.#+. .*******=. .@$$$$$$%. .*******=. .+#.++++++.#+.",
".++++++++++++. ......*=.  .@$$$$$$%. ......*=.  .++++++++++++.",
"..+..++++..+..      .=.   .@$$$$$$%.      .=.   ..+..++++..+..",
" .+#.+..+.#+.       ..    .@$$$$$$%.      ..     .+#.+..+.#+. ",
" ..+++..+++..       .     .@$$$$$$%.      .      ..+++..+++.. ",
"  ...++++...              .%%%%%%%%.              ...++++...  ",
"    ......                ..........                ......    "};
