/* XPM */
static const char * follow_xpm[] = {
"18 18 5 1",
" 	c None",
".	c #000000",
"+	c #D7E1E7",
"@	c #96B0C0",
"#	c #586870",
"                  ",
"                  ",
"                  ",
"       .     .... ",
"       ..    .... ",
"       .+.    ..  ",
"       .@+.   ..  ",
" .......@@+.  ..  ",
" .+++++@@@@+. ..  ",
" .@@@@@@@@@@+...  ",
" .######@@@#. ..  ",
" .......@@#.  ..  ",
"       .@#.   ..  ",
"       .#.    ..  ",
"       ..     ..  ",
"       .      ..  ",
"              ..  ",
"                  "};
