/* XPM */
static const char * fruity_xpm[] = {
"24 29 421 2",
"  	c None",
". 	c #3B4831",
"+ 	c #4E5A43",
"@ 	c #506145",
"# 	c #5E6552",
"$ 	c #707F61",
"% 	c #4C5448",
"& 	c #16201D",
"* 	c #273122",
"= 	c #2D3924",
"- 	c #2C3421",
"; 	c #1E251F",
"> 	c #8E9D72",
", 	c #3D4237",
"' 	c #49603C",
") 	c #819A5A",
"! 	c #A7BE75",
"~ 	c #BED291",
"{ 	c #C7D8A0",
"] 	c #B9C991",
"^ 	c #768758",
"/ 	c #364637",
"( 	c #A8B782",
"_ 	c #222723",
": 	c #384939",
"< 	c #5E7C4D",
"[ 	c #8DAE64",
"} 	c #A5C27C",
"| 	c #B9D195",
"1 	c #D0DEB1",
"2 	c #E3E7C6",
"3 	c #F3F3DB",
"4 	c #FAFBE2",
"5 	c #D0D6AD",
"6 	c #6B8051",
"7 	c #19281D",
"8 	c #273227",
"9 	c #1A2B24",
"0 	c #677E54",
"a 	c #4C6443",
"b 	c #496244",
"c 	c #5B7A4A",
"d 	c #6F8F4E",
"e 	c #85A359",
"f 	c #95B062",
"g 	c #A8BE71",
"h 	c #B5CA84",
"i 	c #B5CB87",
"j 	c #B9CA87",
"k 	c #D4DFB1",
"l 	c #CFDDAB",
"m 	c #6B7E4F",
"n 	c #354B34",
"o 	c #5F7E4F",
"p 	c #76955B",
"q 	c #58794C",
"r 	c #65834E",
"s 	c #799758",
"t 	c #678552",
"u 	c #4A6745",
"v 	c #719057",
"w 	c #A1BE72",
"x 	c #C0D797",
"y 	c #D2DCA7",
"z 	c #D6D3B3",
"A 	c #E3DCC6",
"B 	c #EBE7D6",
"C 	c #EFF0DA",
"D 	c #DAE4BB",
"E 	c #CEDEA1",
"F 	c #7F9155",
"G 	c #29372F",
"H 	c #3E573E",
"I 	c #65835B",
"J 	c #5B784B",
"K 	c #435A3D",
"L 	c #5B7949",
"M 	c #96B26E",
"N 	c #C3DB9D",
"O 	c #9DBA79",
"P 	c #577447",
"Q 	c #718E58",
"R 	c #A7C278",
"S 	c #BCD28F",
"T 	c #DCDDAF",
"U 	c #C69F76",
"V 	c #B47E54",
"W 	c #A0693F",
"X 	c #85624C",
"Y 	c #817A72",
"Z 	c #868B74",
"` 	c #61724C",
" .	c #24322A",
"..	c #394D3C",
"+.	c #3C543B",
"@.	c #2B422B",
"#.	c #314433",
"$.	c #2B4329",
"%.	c #7C985E",
"&.	c #A0BA6E",
"*.	c #CBE0A9",
"=.	c #C6DFA6",
"-.	c #6A8555",
";.	c #5B784D",
">.	c #809F61",
",.	c #8DAC60",
"'.	c #BBCB8C",
").	c #F9F5E8",
"!.	c #F8F1DC",
"~.	c #EED0A9",
"{.	c #DC965A",
"].	c #A25A3C",
"^.	c #22171B",
"/.	c #3C4D40",
"(.	c #384C3A",
"_.	c #3A4B3B",
":.	c #324537",
"<.	c #465645",
"[.	c #324330",
"}.	c #607D50",
"|.	c #86A261",
"1.	c #A2BC75",
"2.	c #BFD694",
"3.	c #7D9862",
"4.	c #4A6844",
"5.	c #55714B",
"6.	c #557546",
"7.	c #94AC6D",
"8.	c #F8F6EB",
"9.	c #FAF7F2",
"0.	c #FBFCEC",
"a.	c #F7E9CB",
"b.	c #F1B676",
"c.	c #9C6D47",
"d.	c #0D0F14",
"e.	c #1D2B26",
"f.	c #384D3E",
"g.	c #344737",
"h.	c #334535",
"i.	c #344C3C",
"j.	c #3E4435",
"k.	c #6C412C",
"l.	c #4E4E37",
"m.	c #455F42",
"n.	c #5B7B4F",
"o.	c #7D995E",
"p.	c #729058",
"q.	c #425D41",
"r.	c #3E563F",
"s.	c #1F4027",
"t.	c #99AE86",
"u.	c #FEFCF0",
"v.	c #FAF7F0",
"w.	c #FAF7E9",
"x.	c #F8EED4",
"y.	c #F1D0A6",
"z.	c #DBA166",
"A.	c #394E3E",
"B.	c #33493A",
"C.	c #364A3A",
"D.	c #403F2D",
"E.	c #6B3B2B",
"F.	c #C76933",
"G.	c #AF693B",
"H.	c #34392E",
"I.	c #2F4739",
"J.	c #3D5742",
"K.	c #485E42",
"L.	c #3E5340",
"M.	c #2F4638",
"N.	c #3A4D2E",
"O.	c #D1D0B6",
"P.	c #FFFCEB",
"Q.	c #FAF7E7",
"R.	c #FAF7E8",
"S.	c #F9F1D9",
"T.	c #F2DAB5",
"U.	c #EAB27A",
"V.	c #724E33",
"W.	c #314837",
"X.	c #3C4F3E",
"Y.	c #2B3930",
"Z.	c #5E362B",
"`.	c #97512F",
" +	c #C46838",
".+	c #D37137",
"++	c #C36F37",
"@+	c #6C5638",
"#+	c #3C4C33",
"$+	c #394D3D",
"%+	c #39533F",
"&+	c #51603F",
"*+	c #BEB58C",
"=+	c #FFF3D5",
"-+	c #F9F3DC",
";+	c #FAF7E2",
">+	c #FAF5E0",
",+	c #F9F4DC",
"'+	c #F2DBB7",
")+	c #EBB782",
"!+	c #AC774A",
"~+	c #192E22",
"{+	c #38513E",
"]+	c #61392F",
"^+	c #9D5433",
"/+	c #BF6538",
"(+	c #CC6F38",
"_+	c #D37437",
":+	c #D8763B",
"<+	c #CA783F",
"[+	c #BB7D43",
"}+	c #C68E54",
"|+	c #E4B17A",
"1+	c #F2D0A4",
"2+	c #F4DEBD",
"3+	c #F7E8CC",
"4+	c #F8EFD4",
"5+	c #F7ECD0",
"6+	c #F7EBCD",
"7+	c #F2DAB4",
"8+	c #EAB780",
"9+	c #C3814D",
"0+	c #492E28",
"a+	c #995133",
"b+	c #BD6338",
"c+	c #D06D41",
"d+	c #D1713B",
"e+	c #D47638",
"f+	c #DA7C3B",
"g+	c #DF8942",
"h+	c #E39754",
"i+	c #E7AB72",
"j+	c #ECBF8E",
"k+	c #F0D1A8",
"l+	c #F4E2C0",
"m+	c #F5E1BE",
"n+	c #F3DEBA",
"o+	c #EFCDA1",
"p+	c #E7B37B",
"q+	c #D98C52",
"r+	c #32261F",
"s+	c #8C4B35",
"t+	c #B25F3A",
"u+	c #D06F43",
"v+	c #D27441",
"w+	c #D2713B",
"x+	c #D5743B",
"y+	c #D87D3B",
"z+	c #DE8D45",
"A+	c #E29B5A",
"B+	c #E7AE75",
"C+	c #EBBE8E",
"D+	c #EECA9F",
"E+	c #F0D1A9",
"F+	c #F0D2AA",
"G+	c #EBC192",
"H+	c #E6AD73",
"I+	c #DE8C4D",
"J+	c #483125",
"K+	c #704037",
"L+	c #A75837",
"M+	c #C96B41",
"N+	c #D4794A",
"O+	c #D57441",
"P+	c #D3723C",
"Q+	c #D57439",
"R+	c #DA7F3C",
"S+	c #DE8E47",
"T+	c #E29D5D",
"U+	c #E6AD76",
"V+	c #EABA88",
"W+	c #ECC394",
"X+	c #EDC699",
"Y+	c #ECC395",
"Z+	c #E9B984",
"`+	c #E4A467",
" @	c #E18B49",
".@	c #512E20",
"+@	c #904E34",
"@@	c #BA613C",
"#@	c #D5774C",
"$@	c #D8784F",
"%@	c #D37642",
"&@	c #D3743A",
"*@	c #D7773B",
"=@	c #DC8440",
"-@	c #DE914A",
";@	c #E29F5F",
">@	c #E6AB73",
",@	c #E8B682",
"'@	c #EABA86",
")@	c #EAB884",
"!@	c #E7B078",
"~@	c #DF8343",
"{@	c #532D1E",
"]@	c #543C35",
"^@	c #A3543A",
"/@	c #C96C43",
"(@	c #D77D52",
"_@	c #D67B4C",
":@	c #D47744",
"<@	c #D5753C",
"[@	c #D97B3E",
"}@	c #DD8740",
"|@	c #DF934E",
"1@	c #E4A061",
"2@	c #E6AA6E",
"3@	c #E6B078",
"4@	c #E6AD75",
"5@	c #E4A568",
"6@	c #DB7B3F",
"7@	c #532C1D",
"8@	c #673F2E",
"9@	c #B7603E",
"0@	c #D2754B",
"a@	c #D98053",
"b@	c #D77C4C",
"c@	c #D67946",
"d@	c #D77940",
"e@	c #DA7F40",
"f@	c #DD8945",
"g@	c #E09550",
"h@	c #E29E5D",
"i@	c #E4A266",
"j@	c #E3A163",
"k@	c #E19A56",
"l@	c #DD8742",
"m@	c #D37239",
"n@	c #4D291F",
"o@	c #1E181C",
"p@	c #7C402B",
"q@	c #C3683E",
"r@	c #D77A50",
"s@	c #DA8355",
"t@	c #D9804F",
"u@	c #D87B46",
"v@	c #D97C42",
"w@	c #DB8242",
"x@	c #DD8A46",
"y@	c #DF924B",
"z@	c #E09652",
"A@	c #DD8C46",
"B@	c #D97B3C",
"C@	c #C56735",
"D@	c #452A25",
"E@	c #241516",
"F@	c #9B5639",
"G@	c #CC6E45",
"H@	c #DB8356",
"I@	c #DC8656",
"J@	c #DB824F",
"K@	c #DA7E49",
"L@	c #D97F46",
"M@	c #DB8245",
"N@	c #DC8647",
"O@	c #DC8A48",
"P@	c #DC8745",
"Q@	c #DA7D3E",
"R@	c #CF6F36",
"S@	c #B55F39",
"T@	c #271C19",
"U@	c #422D2A",
"V@	c #9D5337",
"W@	c #D3724A",
"X@	c #DD8459",
"Y@	c #DD8859",
"Z@	c #DD8352",
"`@	c #DA804D",
" #	c #DA8049",
".#	c #DA8048",
"+#	c #DB8147",
"@#	c #D97C43",
"##	c #D37238",
"$#	c #C36734",
"%#	c #9B5536",
"&#	c #4A2D25",
"*#	c #A5573C",
"=#	c #D77A49",
"-#	c #DD8557",
";#	c #DD8857",
">#	c #DC8553",
",#	c #D87E4B",
"'#	c #D87D49",
")#	c #D47742",
"!#	c #C86B38",
"~#	c #B45E36",
"{#	c #78442D",
"]#	c #2A231F",
"^#	c #A6593D",
"/#	c #DA7C4C",
"(#	c #DE8856",
"_#	c #DD8657",
":#	c #DD8554",
"<#	c #D98150",
"[#	c #D77B4B",
"}#	c #D27243",
"|#	c #C26739",
"1#	c #A85835",
"2#	c #442925",
"3#	c #201821",
"4#	c #97543D",
"5#	c #D2744F",
"6#	c #DE8656",
"7#	c #DE8556",
"8#	c #DC8151",
"9#	c #D67A4C",
"0#	c #D07044",
"a#	c #BD6238",
"b#	c #874A36",
"c#	c #4F3027",
"d#	c #975B41",
"e#	c #D07A51",
"f#	c #E6834F",
"g#	c #E4804E",
"h#	c #CF7047",
"i#	c #8B4C36",
"j#	c #342422",
"k#	c #3C2928",
"l#	c #4F3B36",
"m#	c #58392E",
"n#	c #402A23",
"                                                ",
"        . +                                     ",
"            @ #                                 ",
"              $ %           & * = - ;           ",
"                > ,       ' ) ! ~ { ] ^         ",
"                / ( _ : < [ } | 1 2 3 4 5 6     ",
"            7 8 9 0 a b c d e f g h i j k l m   ",
"        n o p q r s t u v w x y z A B C D E F   ",
"    G H I J K L M N O P Q R S T U V W X Y Z `   ",
"   ...+.@.#.$.%.&.*.=.-.;.>.,.'.).!.~.{.].^.    ",
"  /.(._.:.<.[.}.|.1.2.3.4.5.6.7.8.9.0.a.b.c.d.  ",
"e.f.g.h.i.j.k.l.m.n.o.p.q.r.s.t.u.v.w.x.y.z.    ",
"  A.B.C.D.E.F.G.H.I.J.K.L.M.N.O.P.Q.R.S.T.U.V.  ",
"  W.X.Y.Z.`. +.+++@+#+$+%+&+*+=+-+;+>+,+'+)+!+  ",
"  ~+{+  ]+^+/+(+_+:+<+[+}+|+1+2+3+4+5+6+7+8+9+  ",
"        0+a+b+c+d+e+f+g+h+i+j+k+'+l+m+n+o+p+q+r+",
"          s+t+u+v+w+x+y+z+A+B+C+D+E+F+o+G+H+I+J+",
"          K+L+M+N+O+P+Q+R+S+T+U+V+W+X+Y+Z+`+ @.@",
"            +@@@#@$@%@&@*@=@-@;@>@,@'@)@!@A+~@{@",
"            ]@^@/@(@_@:@<@[@}@|@1@2@3@4@5@|@6@7@",
"              8@9@0@a@b@c@d@e@f@g@h@i@j@k@l@m@n@",
"              o@p@q@r@s@t@u@v@w@x@y@z@g@A@B@C@D@",
"                E@F@G@H@I@J@K@L@M@N@O@P@Q@R@S@T@",
"                  U@V@W@X@Y@Z@`@ #.#+#@###$#%#  ",
"                    &#*#=#-#;#>#J@,#'#)#!#~#{#  ",
"                      ]#^#/#(#_#:#<#[#}#|#1#2#  ",
"                        3#4#5#6#7#8#9#0#a#b#    ",
"                            c#d#e#f#g#h#i#j#    ",
"                                k#l#m#n#        "};
