/* XPM */
static const char * fruity_xpm[] = {
"20 24 146 2",
"  	c None",
". 	c #3B3B3B",
"+ 	c #4E4E4E",
"@ 	c #565656",
"# 	c #626262",
"$ 	c #141414",
"% 	c #1E1E1E",
"& 	c #1A1A1A",
"* 	c #5E5E5E",
"= 	c #4F4F4F",
"- 	c #6F6F6F",
"; 	c #8B8B8B",
"> 	c #979797",
", 	c #848484",
"' 	c #5B5B5B",
") 	c #727272",
"! 	c #444444",
"~ 	c #3C3C3C",
"{ 	c #686868",
"] 	c #8F8F8F",
"^ 	c #A9A9A9",
"/ 	c #C3C3C3",
"( 	c #D6D6D6",
"_ 	c #E8E8E8",
": 	c #E4E4E4",
"< 	c #2B2B2B",
"[ 	c #2E2E2E",
"} 	c #4B4B4B",
"| 	c #545454",
"1 	c #656565",
"2 	c #777777",
"3 	c #888888",
"4 	c #969696",
"5 	c #ADADAD",
"6 	c #B4B4B4",
"7 	c #D2D2D2",
"8 	c #7F7F7F",
"9 	c #717171",
"0 	c #696969",
"a 	c #878787",
"b 	c #838383",
"c 	c #595959",
"d 	c #797979",
"e 	c #A8A8A8",
"f 	c #C5C5C5",
"g 	c #BDBDBD",
"h 	c #BABABA",
"i 	c #BEBEBE",
"j 	c #B6B6B6",
"k 	c #7C7C7C",
"l 	c #424242",
"m 	c #505050",
"n 	c #3F3F3F",
"o 	c #7D7D7D",
"p 	c #B2B2B2",
"q 	c #C1C1C1",
"r 	c #6B6B6B",
"s 	c #6D6D6D",
"t 	c #949494",
"u 	c #AAAAAA",
"v 	c #C9C9C9",
"w 	c #BCBCBC",
"x 	c #999999",
"y 	c #757575",
"z 	c #515151",
"A 	c #414141",
"B 	c #454545",
"C 	c #4A4A4A",
"D 	c #818181",
"E 	c #585858",
"F 	c #767676",
"G 	c #DADADA",
"H 	c #F7F7F7",
"I 	c #EDEDED",
"J 	c #828282",
"K 	c #222222",
"L 	c #262626",
"M 	c #3E3E3E",
"N 	c #474747",
"O 	c #787878",
"P 	c #404040",
"Q 	c #606060",
"R 	c #E2E2E2",
"S 	c #F6F6F6",
"T 	c #F1F1F1",
"U 	c #E0E0E0",
"V 	c #B3B3B3",
"W 	c #383838",
"X 	c #4C4C4C",
"Y 	c #6A6A6A",
"Z 	c #464646",
"` 	c #8A8A8A",
" .	c #EEEEEE",
"..	c #F0F0F0",
"+.	c #E5E5E5",
"@.	c #6C6C6C",
"#.	c #373737",
"$.	c #646464",
"%.	c #535353",
"&.	c #EBEBEB",
"*.	c #EAEAEA",
"=.	c #C8C8C8",
"-.	c #8E8E8E",
";.	c #3A3A3A",
">.	c #8C8C8C",
",.	c #8D8D8D",
"'.	c #9D9D9D",
").	c #CCCCCC",
"!.	c #D8D8D8",
"~.	c #DFDFDF",
"{.	c #DEDEDE",
"].	c #D9D9D9",
"^.	c #9E9E9E",
"/.	c #313131",
"(.	c #616161",
"_.	c #959595",
":.	c #A5A5A5",
"<.	c #B9B9B9",
"[.	c #C7C7C7",
"}.	c #CFCFCF",
"|.	c #B8B8B8",
"1.	c #A3A3A3",
"2.	c #525252",
"3.	c #898989",
"4.	c #A7A7A7",
"5.	c #C0C0C0",
"6.	c #AEAEAE",
"7.	c #A0A0A0",
"8.	c #5D5D5D",
"9.	c #989898",
"0.	c #909090",
"a.	c #9B9B9B",
"b.	c #ABABAB",
"c.	c #929292",
"d.	c #3D3D3D",
"e.	c #363636",
"f.	c #939393",
"g.	c #919191",
"h.	c #868686",
"i.	c #272727",
"j.	c #575757",
"k.	c #2D2D2D",
"l.	c #9A9A9A",
"m.	c #7B7B7B",
"n.	c #9C9C9C",
"o.	c #484848",
"                                        ",
"      . +                               ",
"          @ #           $ % &           ",
"              *       = - ; > , '       ",
"              ) ! ~ { ] ^ / ( _ : ]     ",
"          < [ } * | 1 2 3 4 ^ 5 6 7 8   ",
"      + 1 9 0 a b c d e f g h i g j k   ",
"  [ l m } n o p q r s t u v w x y z |   ",
"  A B . C . 2 > w D E 1 F G H I v J K   ",
"L ! ~ n M } N ' O 2 + P Q R S T U V     ",
"  l M W X J Y W l X Z M `  .....+.v @.  ",
"  #.M P $.8 a d E %.' , ( _ &.*.: =.-.  ",
"      ;.$.o a 3 >.,.'.h ).!.~.{.].q ^./.",
"        (.d ; 3 3 ; _.:.<.[.}.}.=.|.1.. ",
"        2.) 3.-.3 a >.4 4.j 5./ i 6.7.M ",
"          8.D t ] 3 3.] 9.4.p j 6 :.x M ",
"          ! Y ,._.] ` >.0.a.:.b.4.a.c.d.",
"            e.d f.4 c.,.-.c.9.^.a.g.3.~ ",
"              ! h.x x f.0.0.c.f.0.3.J i.",
"                j.; a.a.4 c.g.g.>.D @.  ",
"                k.E -.a.l.> f.0.3 m.%.  ",
"                    } ` ^.n.4 0.a y Z   ",
"                        (.c.7.'.a X     ",
"                          W o.o.#.      "};
