/* XPM */
static const char * ins_xpm[] = {
"30 10 49 1",
" 	c None",
".	c #DDFF00",
"+	c #FFFF00",
"@	c #2CFE00",
"#	c #75FE00",
"$	c #4BFE00",
"%	c #9DFE00",
"&	c #7FFE00",
"*	c #DBFE00",
"=	c #F2FE00",
"-	c #08FE00",
";	c #11FE00",
">	c #37FE00",
",	c #55FE00",
"'	c #7BFE00",
")	c #0AFE00",
"!	c #BCFE00",
"~	c #1FFE00",
"{	c #D6FE00",
"]	c #35FE00",
"^	c #D1FF00",
"/	c #86FE00",
"(	c #97FE00",
"_	c #48FE00",
":	c #85FE00",
"<	c #D9FF00",
"[	c #0EFE00",
"}	c #B1FE00",
"|	c #93FE00",
"1	c #FCFF00",
"2	c #A3FE00",
"3	c #A9FE00",
"4	c #E2FE00",
"5	c #01FE00",
"6	c #A1FE00",
"7	c #DEFE00",
"8	c #BEFE00",
"9	c #F3FF00",
"0	c #4AFE00",
"a	c #F6FF00",
"b	c #92FE00",
"c	c #EFFF00",
"d	c #34FE00",
"e	c #A0FE00",
"f	c #39FE00",
"g	c #E9FF00",
"h	c #E6FE00",
"i	c #F3FE00",
"j	c #14FE00",
" .++++@  #++$   %+&    *=+-;> ",
"  ,++    #+++   %+&  '+)   !+ ",
"  ,++    #+~{]  %+&  ^+/    ( ",
"  ,++    #+_:+  %+&  <+[      ",
"  ,++    #+_ }~ %+&  |+++++@  ",
"  ,++    #+_  1 2+&   34++++5 ",
"  ,++    #+_  6-7+&       8++ ",
"  ,++    #+_   9++&  0     a+ ",
"  ,++    #+_   b++&  cd   e+f ",
" .++++@  #+_    g+&  !hi++j   "};
