/* XPM */
static const char * jack_black_xpm[] = {
"31 12 157 2",
"  	c None",
". 	c #010101",
"+ 	c #050505",
"@ 	c #000000",
"# 	c #040404",
"$ 	c #030303",
"% 	c #020202",
"& 	c #626262",
"* 	c #7A7A7A",
"= 	c #797979",
"- 	c #707070",
"; 	c #6E6E6E",
"> 	c #737373",
", 	c #787878",
"' 	c #717171",
") 	c #6F6F6F",
"! 	c #131313",
"~ 	c #494949",
"{ 	c #474747",
"] 	c #414141",
"^ 	c #434343",
"/ 	c #4B4B4B",
"( 	c #585858",
"_ 	c #363636",
": 	c #181818",
"< 	c #0B0B0B",
"[ 	c #101010",
"} 	c #323232",
"| 	c #1C1C1C",
"1 	c #595959",
"2 	c #E5E5E5",
"3 	c #E2E2E2",
"4 	c #E6E6E6",
"5 	c #DEDEDE",
"6 	c #D6D6D6",
"7 	c #818181",
"8 	c #060606",
"9 	c #3D3D3D",
"0 	c #0A0A0A",
"a 	c #F1F1F1",
"b 	c #7B7B7B",
"c 	c #080808",
"d 	c #DADADA",
"e 	c #CECECE",
"f 	c #D5D5D5",
"g 	c #CDCDCD",
"h 	c #2F2F2F",
"i 	c #636363",
"j 	c #545454",
"k 	c #FDFDFD",
"l 	c #E7E7E7",
"m 	c #E0E0E0",
"n 	c #E1E1E1",
"o 	c #DDDDDD",
"p 	c #FCFCFC",
"q 	c #878787",
"r 	c #686868",
"s 	c #525252",
"t 	c #FEFEFE",
"u 	c #8A8A8A",
"v 	c #C0C0C0",
"w 	c #F6F6F6",
"x 	c #E9E9E9",
"y 	c #E8E8E8",
"z 	c #DCDCDC",
"A 	c #EBEBEB",
"B 	c #F2F2F2",
"C 	c #333333",
"D 	c #141414",
"E 	c #8E8E8E",
"F 	c #FFFFFF",
"G 	c #F4F4F4",
"H 	c #FBFBFB",
"I 	c #EFEFEF",
"J 	c #969696",
"K 	c #2D2D2D",
"L 	c #8C8C8C",
"M 	c #C3C3C3",
"N 	c #F5F5F5",
"O 	c #F8F8F8",
"P 	c #F9F9F9",
"Q 	c #303030",
"R 	c #292929",
"S 	c #A7A7A7",
"T 	c #2E2E2E",
"U 	c #454545",
"V 	c #DBDBDB",
"W 	c #D9D9D9",
"X 	c #EEEEEE",
"Y 	c #808080",
"Z 	c #0E0E0E",
"` 	c #9B9B9B",
" .	c #202020",
"..	c #BDBDBD",
"+.	c #F7F7F7",
"@.	c #E3E3E3",
"#.	c #E4E4E4",
"$.	c #222222",
"%.	c #ECECEC",
"&.	c #4E4E4E",
"*.	c #464646",
"=.	c #C9C9C9",
"-.	c #BFBFBF",
";.	c #C1C1C1",
">.	c #C5C5C5",
",.	c #BEBEBE",
"'.	c #CACACA",
").	c #1B1B1B",
"!.	c #3F3F3F",
"~.	c #D8D8D8",
"{.	c #676767",
"].	c #949494",
"^.	c #CBCBCB",
"/.	c #BCBCBC",
"(.	c #B9B9B9",
"_.	c #C7C7C7",
":.	c #1F1F1F",
"<.	c #232323",
"[.	c #A0A0A0",
"}.	c #939393",
"|.	c #9A9A9A",
"1.	c #999999",
"2.	c #A4A4A4",
"3.	c #5A5A5A",
"4.	c #070707",
"5.	c #555555",
"6.	c #3A3A3A",
"7.	c #AFAFAF",
"8.	c #7F7F7F",
"9.	c #9E9E9E",
"0.	c #989898",
"a.	c #9F9F9F",
"b.	c #A1A1A1",
"c.	c #111111",
"d.	c #272727",
"e.	c #848484",
"f.	c #767676",
"g.	c #757575",
"h.	c #727272",
"i.	c #484848",
"j.	c #242424",
"k.	c #909090",
"l.	c #424242",
"m.	c #5B5B5B",
"n.	c #747474",
"o.	c #646464",
"p.	c #6C6C6C",
"q.	c #252525",
"r.	c #212121",
"s.	c #7E7E7E",
"t.	c #383838",
"u.	c #777777",
"v.	c #6D6D6D",
"w.	c #3E3E3E",
"x.	c #191919",
"y.	c #0D0D0D",
"z.	c #090909",
". + @ # $ $ @ @ @ @ # @ + % . @ & * = - ; > , ' - ) = = = = = ",
"! ~ { ] ^ ~ / ( _ % : < [ ( } @ & * = - | @ @ @ @ @ % _ = = = ",
"1 2 3 4 3 5 6 3 7 8 9 0 1 a b c @ @ @ @ @ d e f g h @ @ i = = ",
"j k l 3 m n o p q @ r < s t u @ v w x y z 4 3 A B C D _ @ E = ",
"1 F G t p H I F E # J K s F L @ M w N G O H O N P Q R S @ T U ",
"j l o V z 3 W X Y Z `  .j F ' @ ..+.3 @.l m n #.2 $.$.%.&.$ U ",
"*.=.-.;...>.,.'.; Z = ).!.~.{.$ ].^.,./.-.(.,.;._.:.<.2 ( % U ",
"_ S [.` }.|.1.2.3.4.5.[ 6.7.i @ 8.9.1.|.|.0.a.}.b.: $...c.$ = ",
"d.e.' f., g.h.e.i.@ h D j.k.l.@ m.= n.; > , h.- ) ! d.^ @ o.= ",
"<.b ; p.; h.- * U @ q.. r.s.6.% @ @ @ @ @ = b = 7 : @ @ t.= = ",
"} u.> = g.u.v.r w.4.x.. C q j @ & * = - @ @ @ @ @ @ @ y.= = = ",
"@ 4.@ @ @ . $ z.4.@ + + @ @ @ % & * = - ; > , ' - ) = , = = = "};
