/* XPM */
static const char * jack_black_xpm[] = {
"39 12 176 2",
"  	c None",
". 	c #050505",
"+ 	c #000000",
"@ 	c #010101",
"# 	c #040404",
"$ 	c #030303",
"% 	c #020202",
"& 	c #252525",
"* 	c #1A1A1A",
"= 	c #0F0F0F",
"- 	c #0C0C0C",
"; 	c #151515",
"> 	c #AEAEAE",
", 	c #515151",
"' 	c #424242",
") 	c #0A0A0A",
"! 	c #1C1C1C",
"~ 	c #060606",
"{ 	c #131313",
"] 	c #494949",
"^ 	c #474747",
"/ 	c #4D4D4D",
"( 	c #414141",
"_ 	c #434343",
": 	c #4B4B4B",
"< 	c #585858",
"[ 	c #363636",
"} 	c #181818",
"| 	c #0B0B0B",
"1 	c #101010",
"2 	c #323232",
"3 	c #080808",
"4 	c #222222",
"5 	c #202020",
"6 	c #525252",
"7 	c #121212",
"8 	c #C4C4C4",
"9 	c #E2E2E2",
"0 	c #8E8E8E",
"a 	c #070707",
"b 	c #3B3B3B",
"c 	c #171717",
"d 	c #595959",
"e 	c #E5E5E5",
"f 	c #DEDEDE",
"g 	c #E6E6E6",
"h 	c #D6D6D6",
"i 	c #818181",
"j 	c #3D3D3D",
"k 	c #F1F1F1",
"l 	c #7B7B7B",
"m 	c #717171",
"n 	c #B5B5B5",
"o 	c #BFBFBF",
"p 	c #C2C2C2",
"q 	c #D5D5D5",
"r 	c #DADADA",
"s 	c #CECECE",
"t 	c #CFCFCF",
"u 	c #CDCDCD",
"v 	c #2F2F2F",
"w 	c #636363",
"x 	c #E0E0E0",
"y 	c #B8B8B8",
"z 	c #5F5F5F",
"A 	c #161616",
"B 	c #545454",
"C 	c #FDFDFD",
"D 	c #E7E7E7",
"E 	c #D9D9D9",
"F 	c #E1E1E1",
"G 	c #DDDDDD",
"H 	c #FCFCFC",
"I 	c #878787",
"J 	c #686868",
"K 	c #FEFEFE",
"L 	c #8A8A8A",
"M 	c #C0C0C0",
"N 	c #EAEAEA",
"O 	c #E9E9E9",
"P 	c #ECECEC",
"Q 	c #EBEBEB",
"R 	c #E8E8E8",
"S 	c #DCDCDC",
"T 	c #E4E4E4",
"U 	c #F2F2F2",
"V 	c #333333",
"W 	c #141414",
"X 	c #FFFFFF",
"Y 	c #ABABAB",
"Z 	c #979797",
"` 	c #4DE8EA",
" .	c #969696",
"..	c #2D2D2D",
"+.	c #8C8C8C",
"@.	c #303030",
"#.	c #292929",
"$.	c #2E2E2E",
"%.	c #EDEDED",
"&.	c #A4A4A4",
"*.	c #A2A2A2",
"=.	c #464646",
"-.	c #808080",
";.	c #0E0E0E",
">.	c #9B9B9B",
",.	c #4E4E4E",
"'.	c #C8C8C8",
").	c #868686",
"!.	c #727272",
"~.	c #2B2B2B",
"{.	c #C9C9C9",
"].	c #B7B7B7",
"^.	c #C1C1C1",
"/.	c #BDBDBD",
"(.	c #C5C5C5",
"_.	c #BEBEBE",
":.	c #CACACA",
"<.	c #6E6E6E",
"[.	c #797979",
"}.	c #1B1B1B",
"|.	c #3F3F3F",
"1.	c #D8D8D8",
"2.	c #676767",
"3.	c #949494",
"4.	c #BCBCBC",
"5.	c #B9B9B9",
"6.	c #C7C7C7",
"7.	c #1F1F1F",
"8.	c #232323",
"9.	c #707070",
"0.	c #090909",
"a.	c #5B5B5B",
"b.	c #A7A7A7",
"c.	c #A0A0A0",
"d.	c #959595",
"e.	c #939393",
"f.	c #9A9A9A",
"g.	c #999999",
"h.	c #5A5A5A",
"i.	c #555555",
"j.	c #3A3A3A",
"k.	c #AFAFAF",
"l.	c #7F7F7F",
"m.	c #989898",
"n.	c #9F9F9F",
"o.	c #A1A1A1",
"p.	c #111111",
"q.	c #272727",
"r.	c #848484",
"s.	c #757575",
"t.	c #767676",
"u.	c #787878",
"v.	c #484848",
"w.	c #242424",
"x.	c #909090",
"y.	c #747474",
"z.	c #737373",
"A.	c #6F6F6F",
"B.	c #646464",
"C.	c #6C6C6C",
"D.	c #7A7A7A",
"E.	c #454545",
"F.	c #212121",
"G.	c #7E7E7E",
"H.	c #7C7C7C",
"I.	c #6A6A6A",
"J.	c #383838",
"K.	c #404040",
"L.	c #777777",
"M.	c #6D6D6D",
"N.	c #3E3E3E",
"O.	c #191919",
"P.	c #535353",
"Q.	c #626262",
"R.	c #606060",
"S.	c #0D0D0D",
". + + + . @ . + + # $ $ + + + + # + . % @ +         & * = - + # @ + + ; >     ",
", ' ) ! ~ { ] ^ / ( _ ] : < [ % } | 1 < 2 + + + + ~ 3 # ! 4 5 [ : 6 7 % [ 8   ",
"9 0 a b c d e 9 f g 9 f h 9 i ~ j ) d k l 3 m > n o 8 p q r s t q u v + + w x ",
"k y % z A B C D E 9 x F G H I + J | 6 K L + M N O P Q R S g 9 T Q U V W [ + 0 ",
"X Y 3 Z b d ` ` ` ` ` ` ` ` 0 #  ...6 X +.+ ` ` ` ` ` ` ` ` ` ` ` ` @.#.  + $.",
"%.&.c *.=.B ` ` ` ` ` ` ` ` -.;.>.5 B X m + ` ` ` ` ` ` ` ` ` ` ` ` 4 4 P ,.$ ",
"'.).) !.~.=.{.o ].^./.(._.:.<.;.[.}.|.1.2.$ 3.o _.4.4.4.o 5._.o ^.6.7.8.e < % ",
"&.9.0.a.7.[ b.c.d.>.e.f.g.&.h.a i.1 j.k.w + l.g.g.m.g.f.f.m.n.d.e.o.} 4 /.p.$ ",
"l i.+ v * q.r.m s.t.u.s.!.r.v.+ v W w.x.' + a.y.y.z.9.<.z.u.!.m 9.A.{ q._ + B.",
"[.d . ! ) 8.l <.<.C.<.!.9.D.E.+ & @ F.G.j.% z z.t.[.l H.I.[.l t.[.i } + + J.n ",
"s.K.) A p.2 L.z.s.[.s.L.M.J N.a O.@ V I B + + + + ~ 3 # P.h.Q.R.z <.}.+ S.Z   ",
"% 1 + # + + a + + + + @ $ 0.a + . . + + + %         + + + + + . + - + | u.    "};
