/* XPM */
static const char * jack_xpm[] = {
"39 12 211 2",
"  	c None",
". 	c #FEAE00",
"+ 	c #FFA400",
"@ 	c #FFAC00",
"# 	c #FDAC00",
"$ 	c #875F00",
"% 	c #1A1000",
"& 	c #180D01",
"* 	c #725100",
"= 	c #FAB000",
"- 	c #FDAA00",
"; 	c #F5AB00",
"> 	c #FFA500",
", 	c #FFB900",
"' 	c #FFA200",
") 	c #F5A100",
"! 	c #E09000",
"~ 	c #A06700",
"{ 	c #9D6B00",
"] 	c #A36F00",
"^ 	c #9C6A00",
"/ 	c #0D0B00",
"( 	c #0A0700",
"_ 	c #2A1901",
": 	c #C58700",
"< 	c #BF8300",
"[ 	c #BB8300",
"} 	c #B57600",
"| 	c #B07300",
"1 	c #BA7A00",
"2 	c #EA9B00",
"3 	c #ECA400",
"4 	c #A96400",
"5 	c #C57700",
"6 	c #E29500",
"7 	c #F5A200",
"8 	c #FFA700",
"9 	c #FFA900",
"0 	c #F6A200",
"a 	c #E29200",
"b 	c #674400",
"c 	c #6E4900",
"d 	c #6C4800",
"e 	c #3A2602",
"f 	c #010103",
"g 	c #080506",
"h 	c #624000",
"i 	c #7A5300",
"j 	c #794F00",
"k 	c #7C4E00",
"l 	c #815700",
"m 	c #794600",
"n 	c #A16300",
"o 	c #C78400",
"p 	c #C58200",
"q 	c #EEA400",
"r 	c #8A4A01",
"s 	c #702B02",
"t 	c #A15A00",
"u 	c #A56200",
"v 	c #AC6900",
"w 	c #AC6700",
"x 	c #BE7A00",
"y 	c #D78F00",
"z 	c #F4A000",
"A 	c #FAA600",
"B 	c #EE9B00",
"C 	c #DB8D00",
"D 	c #1F1402",
"E 	c #050505",
"F 	c #120A05",
"G 	c #965300",
"H 	c #8B4F00",
"I 	c #9C5E00",
"J 	c #D68900",
"K 	c #FFD100",
"L 	c #512008",
"M 	c #915100",
"N 	c #BA7100",
"O 	c #C17900",
"P 	c #C17C00",
"Q 	c #BB7200",
"R 	c #B06D00",
"S 	c #B57000",
"T 	c #BC7200",
"U 	c #CF8100",
"V 	c #EE9A00",
"W 	c #EB9500",
"X 	c #AC7F00",
"Y 	c #B18500",
"Z 	c #AD8400",
"` 	c #170F01",
" .	c #070702",
"..	c #C59700",
"+.	c #C99C00",
"@.	c #C9A100",
"#.	c #CAA100",
"$.	c #CA9D00",
"%.	c #975D01",
"&.	c #934A00",
"*.	c #C98900",
"=.	c #DFA900",
"-.	c #D28600",
";.	c #A26503",
">.	c #5C3407",
",.	c #865000",
"'.	c #9D5700",
").	c #9F5500",
"!.	c #A05700",
"~.	c #9C5600",
"{.	c #954C00",
"].	c #994A00",
"^.	c #A04C00",
"/.	c #AF5B00",
"(.	c #B56000",
"_.	c #D47D00",
":.	c #EF9C00",
"<.	c #834E00",
"[.	c #875000",
"}.	c #8A5900",
"|.	c #130C01",
"1.	c #040200",
"2.	c #140B03",
"3.	c #935C00",
"4.	c #955D00",
"5.	c #976100",
"6.	c #945E00",
"7.	c #975F00",
"8.	c #9C5506",
"9.	c #BA6B00",
"0.	c #DA9700",
"a.	c #DA9500",
"b.	c #D28200",
"c.	c #A65F0D",
"d.	c #924D00",
"e.	c #C16700",
"f.	c #CA6B00",
"g.	c #C46700",
"h.	c #C16400",
"i.	c #BA5800",
"j.	c #A94C00",
"k.	c #9B4600",
"l.	c #9F4800",
"m.	c #A54C00",
"n.	c #D07B00",
"o.	c #EF9F01",
"p.	c #1E0F01",
"q.	c #000302",
"r.	c #0E0A04",
"s.	c #A56500",
"t.	c #F1CA00",
"u.	c #FFB000",
"v.	c #B77B01",
"w.	c #BF8100",
"x.	c #A05600",
"y.	c #B96400",
"z.	c #BE6D00",
"A.	c #C17A00",
"B.	c #C18200",
"C.	c #AC8A00",
"D.	c #865600",
"E.	c #9B5B00",
"F.	c #B87900",
"G.	c #201A02",
"H.	c #161003",
"I.	c #9E6903",
"J.	c #4D2D00",
"K.	c #704700",
"L.	c #D08B01",
"M.	c #995D00",
"N.	c #5B4500",
"O.	c #4B3500",
"P.	c #3B2100",
"Q.	c #2A1200",
"R.	c #210D00",
"S.	c #E8A000",
"T.	c #E5A000",
"U.	c #EBA000",
"V.	c #D49100",
"W.	c #160C01",
"X.	c #140B00",
"Y.	c #422901",
"Z.	c #F4AB00",
"`.	c #E9A600",
" +	c #E4A300",
".+	c #B98301",
"++	c #6F4502",
"@+	c #7D4B03",
"#+	c #A16D00",
"$+	c #915C00",
"%+	c #422700",
"&+	c #3A2700",
"*+	c #200F00",
"=+	c #1C0C00",
"-+	c #271400",
";+	c #C08200",
">+	c #CC8700",
",+	c #CF8600",
"'+	c #965A00",
")+	c #1A0E01",
"!+	c #301A00",
"~+	c #845100",
"{+	c #A16400",
"]+	c #623500",
"^+	c #402100",
"/+	c #2C1901",
"(+	c #221006",
"_+	c #1F0F01",
":+	c #180A01",
"<+	c #180C00",
"[+	c #261500",
"                                                                              ",
"  . + @ # $ % & * = @ - @ # $ % & * = ;         > , ' + > ) !                 ",
"  ~ { ] ^ / ( _ : < [ } ] ^ / ( _ : < | 1     2 3 4 5 6 7 8 9 0 a             ",
"  b c d e f g h i j k l d e f g h i j m n o p q r s t u v w x y z A B C       ",
"  - - - D E F - - - - - - D E F - - - - G H I J K L M N O P Q R S T U V W     ",
"  X Y Z `  .& ..+.@.#.$.Z `  .& ..+.@.%.&.*.=.-.;.>.,.'.).!.~.{.].^./.(._.:.  ",
"  <.[.}.|.1.2.3.4.5.6.7.}.|.1.2.3.4.5.8.9.0.a.b.c.K d.e.f.g.h.i.j.k.l.m.n.o.  ",
"  - - - p.q.r.- - - - - - p.q.r.- - - s.1 - t.u.v.w.x.y.z.A.B.7 7 7 C.D.E.    ",
"  F.F.F.F.G.H.F.F.F.F.F.F.F.G.H.F.F.F.- I.J.K.L.K M.7 7 7 7 N.O.P.Q.R.        ",
"  S.T.U.V.W.X.Y.Z.3 `. +U.V.W.X.Y.Z.3 .+++    7 @+#+$+%+&+*+=+-+              ",
"  ;+>+,+,+'+)+!+~+{+]+^+,+,+'+)+!+~+{+/+          (+_+:+<+[+                  ",
"                                                                              "};
