/* XPM */
static const char * jack_black_xpm[] = {
"39 12 188 2",
"  	g None",
". 	g #050505",
"+ 	g #000000",
"@ 	g #010101",
"# 	g #040404",
"$ 	g #030303",
"% 	g #020202",
"& 	g #252525",
"* 	g #1A1A1A",
"= 	g #0F0F0F",
"- 	g #0C0C0C",
"; 	g #151515",
"> 	g #AEAEAE",
", 	g #515151",
"' 	g #424242",
") 	g #0A0A0A",
"! 	g #1C1C1C",
"~ 	g #060606",
"{ 	g #131313",
"] 	g #494949",
"^ 	g #474747",
"/ 	g #4D4D4D",
"( 	g #414141",
"_ 	g #434343",
": 	g #4B4B4B",
"< 	g #585858",
"[ 	g #363636",
"} 	g #181818",
"| 	g #0B0B0B",
"1 	g #101010",
"2 	g #323232",
"3 	g #080808",
"4 	g #222222",
"5 	g #202020",
"6 	g #525252",
"7 	g #121212",
"8 	g #C4C4C4",
"9 	g #E2E2E2",
"0 	g #8E8E8E",
"a 	g #070707",
"b 	g #3B3B3B",
"c 	g #171717",
"d 	g #595959",
"e 	g #E5E5E5",
"f 	g #DEDEDE",
"g 	g #E6E6E6",
"h 	g #D6D6D6",
"i 	g #818181",
"j 	g #3D3D3D",
"k 	g #F1F1F1",
"l 	g #7B7B7B",
"m 	g #717171",
"n 	g #B5B5B5",
"o 	g #BFBFBF",
"p 	g #C2C2C2",
"q 	g #D5D5D5",
"r 	g #DADADA",
"s 	g #CECECE",
"t 	g #CFCFCF",
"u 	g #CDCDCD",
"v 	g #2F2F2F",
"w 	g #636363",
"x 	g #E0E0E0",
"y 	g #B8B8B8",
"z 	g #5F5F5F",
"A 	g #161616",
"B 	g #545454",
"C 	g #FDFDFD",
"D 	g #E7E7E7",
"E 	g #D9D9D9",
"F 	g #E1E1E1",
"G 	g #DDDDDD",
"H 	g #FCFCFC",
"I 	g #878787",
"J 	g #686868",
"K 	g #FEFEFE",
"L 	g #8A8A8A",
"M 	g #C0C0C0",
"N 	g #EAEAEA",
"O 	g #E9E9E9",
"P 	g #ECECEC",
"Q 	g #EBEBEB",
"R 	g #E8E8E8",
"S 	g #DCDCDC",
"T 	g #E4E4E4",
"U 	g #F2F2F2",
"V 	g #333333",
"W 	g #141414",
"X 	g #FFFFFF",
"Y 	g #ABABAB",
"Z 	g #979797",
"` 	g #F4F4F4",
" .	g #FAFAFA",
"..	g #FBFBFB",
"+.	g #EFEFEF",
"@.	g #969696",
"#.	g #2D2D2D",
"$.	g #8C8C8C",
"%.	g #C3C3C3",
"&.	g #F6F6F6",
"*.	g #F5F5F5",
"=.	g #F8F8F8",
"-.	g #F7F7F7",
";.	g #F9F9F9",
">.	g #303030",
",.	g #292929",
"'.	g #2E2E2E",
").	g #EDEDED",
"!.	g #A4A4A4",
"~.	g #A2A2A2",
"{.	g #464646",
"].	g #DBDBDB",
"^.	g #EEEEEE",
"/.	g #808080",
"(.	g #0E0E0E",
"_.	g #9B9B9B",
":.	g #BDBDBD",
"<.	g #E3E3E3",
"[.	g #4E4E4E",
"}.	g #C8C8C8",
"|.	g #868686",
"1.	g #727272",
"2.	g #2B2B2B",
"3.	g #C9C9C9",
"4.	g #B7B7B7",
"5.	g #C1C1C1",
"6.	g #C5C5C5",
"7.	g #BEBEBE",
"8.	g #CACACA",
"9.	g #6E6E6E",
"0.	g #797979",
"a.	g #1B1B1B",
"b.	g #3F3F3F",
"c.	g #D8D8D8",
"d.	g #676767",
"e.	g #949494",
"f.	g #BCBCBC",
"g.	g #B9B9B9",
"h.	g #C7C7C7",
"i.	g #1F1F1F",
"j.	g #232323",
"k.	g #707070",
"l.	g #090909",
"m.	g #5B5B5B",
"n.	g #A7A7A7",
"o.	g #A0A0A0",
"p.	g #959595",
"q.	g #939393",
"r.	g #9A9A9A",
"s.	g #999999",
"t.	g #5A5A5A",
"u.	g #555555",
"v.	g #3A3A3A",
"w.	g #AFAFAF",
"x.	g #7F7F7F",
"y.	g #989898",
"z.	g #9F9F9F",
"A.	g #A1A1A1",
"B.	g #111111",
"C.	g #272727",
"D.	g #848484",
"E.	g #757575",
"F.	g #767676",
"G.	g #787878",
"H.	g #484848",
"I.	g #242424",
"J.	g #909090",
"K.	g #747474",
"L.	g #737373",
"M.	g #6F6F6F",
"N.	g #646464",
"O.	g #6C6C6C",
"P.	g #7A7A7A",
"Q.	g #454545",
"R.	g #212121",
"S.	g #7E7E7E",
"T.	g #7C7C7C",
"U.	g #6A6A6A",
"V.	g #383838",
"W.	g #404040",
"X.	g #777777",
"Y.	g #6D6D6D",
"Z.	g #3E3E3E",
"`.	g #191919",
" +	g #535353",
".+	g #626262",
"++	g #606060",
"@+	g #0D0D0D",
". + + + . @ . + + # $ $ + + + + # + . % @ +         & * = - + # @ + + ; >     ",
", ' ) ! ~ { ] ^ / ( _ ] : < [ % } | 1 < 2 + + + + ~ 3 # ! 4 5 [ : 6 7 % [ 8   ",
"9 0 a b c d e 9 f g 9 f h 9 i ~ j ) d k l 3 m > n o 8 p q r s t q u v + + w x ",
"k y % z A B C D E 9 x F G H I + J | 6 K L + M N O P Q R S g 9 T Q U V W [ + 0 ",
"X Y 3 Z b d X `  .K H ..+.X 0 # @.#.6 X $.+ %.&.*.&.&.` =...=.-.*.;.>.,.  + '.",
").!.c ~.{.B D G T ].S 9 E ^./.(._.5 B X m + :.9 9 <.<.<.D x F e T e 4 4 P [.$ ",
"}.|.) 1.2.{.3.o 4.5.:.6.7.8.9.(.0.a.b.c.d.$ e.o 7.f.f.f.o g.7.o 5.h.i.j.e < % ",
"!.k.l.m.i.[ n.o.p._.q.r.s.!.t.a u.1 v.w.w + x.s.s.y.s.r.r.y.z.p.q.A.} 4 :.B.$ ",
"l u.+ v * C.D.m E.F.G.E.1.D.H.+ v W I.J.' + m.K.K.L.k.9.L.G.1.m k.M.{ C._ + N.",
"0.d . ! ) j.l 9.9.O.9.1.k.P.Q.+ & @ R.S.v.% z L.F.0.l T.U.0.l F.0.i } + + V.n ",
"E.W.) A B.2 X.L.E.0.E.X.Y.J Z.a `.@ V I B + + + + ~ 3 #  +t..+++z 9.a.+ @+Z   ",
"% 1 + # + + a + + + + @ $ l.a + . . + + + %         + + + + + . + - + | G.    "};
