/* XPM */
static const char * jack_black_xpm[] = {
"35 12 186 2",
"  	g #010101",
". 	g #050505",
"+ 	g #000000",
"@ 	g #040404",
"# 	g #030303",
"$ 	g #020202",
"% 	g #626262",
"& 	g #7A7A7A",
"* 	g #373737",
"= 	g #303030",
"- 	g #252525",
"; 	g #1A1A1A",
"> 	g #0F0F0F",
", 	g #0C0C0C",
"' 	g #151515",
") 	g #AEAEAE",
"! 	g #E9E9E9",
"~ 	g #FBFBFB",
"{ 	g #FFFFFF",
"] 	g #131313",
"^ 	g #494949",
"/ 	g #474747",
"( 	g #4D4D4D",
"_ 	g #414141",
": 	g #434343",
"< 	g #4B4B4B",
"[ 	g #585858",
"} 	g #363636",
"| 	g #181818",
"1 	g #0B0B0B",
"2 	g #101010",
"3 	g #323232",
"4 	g #060606",
"5 	g #080808",
"6 	g #1C1C1C",
"7 	g #222222",
"8 	g #202020",
"9 	g #525252",
"0 	g #121212",
"a 	g #C4C4C4",
"b 	g #FCFCFC",
"c 	g #F5F5F5",
"d 	g #595959",
"e 	g #E5E5E5",
"f 	g #E2E2E2",
"g 	g #DEDEDE",
"h 	g #E6E6E6",
"i 	g #D6D6D6",
"j 	g #818181",
"k 	g #3D3D3D",
"l 	g #0A0A0A",
"m 	g #F1F1F1",
"n 	g #7B7B7B",
"o 	g #717171",
"p 	g #939393",
"q 	g #B5B5B5",
"r 	g #BFBFBF",
"s 	g #C2C2C2",
"t 	g #D5D5D5",
"u 	g #DADADA",
"v 	g #CECECE",
"w 	g #CFCFCF",
"x 	g #CDCDCD",
"y 	g #2F2F2F",
"z 	g #636363",
"A 	g #E0E0E0",
"B 	g #F4F4F4",
"C 	g #545454",
"D 	g #FDFDFD",
"E 	g #E7E7E7",
"F 	g #D9D9D9",
"G 	g #E1E1E1",
"H 	g #DDDDDD",
"I 	g #878787",
"J 	g #686868",
"K 	g #FEFEFE",
"L 	g #8A8A8A",
"M 	g #C0C0C0",
"N 	g #F6F6F6",
"O 	g #ECECEC",
"P 	g #EBEBEB",
"Q 	g #E8E8E8",
"R 	g #DCDCDC",
"S 	g #E4E4E4",
"T 	g #F2F2F2",
"U 	g #333333",
"V 	g #141414",
"W 	g #8E8E8E",
"X 	g #EAEAEA",
"Y 	g #FAFAFA",
"Z 	g #EFEFEF",
"` 	g #969696",
" .	g #2D2D2D",
"..	g #8C8C8C",
"+.	g #C3C3C3",
"@.	g #F8F8F8",
"#.	g #F7F7F7",
"$.	g #F9F9F9",
"%.	g #292929",
"&.	g #A7A7A7",
"*.	g #2E2E2E",
"=.	g #BCBCBC",
"-.	g #DBDBDB",
";.	g #EEEEEE",
">.	g #808080",
",.	g #0E0E0E",
"'.	g #9B9B9B",
").	g #BDBDBD",
"!.	g #E3E3E3",
"~.	g #4E4E4E",
"{.	g #919191",
"].	g #464646",
"^.	g #C9C9C9",
"/.	g #B7B7B7",
"(.	g #C1C1C1",
"_.	g #C5C5C5",
":.	g #BEBEBE",
"<.	g #CACACA",
"[.	g #6E6E6E",
"}.	g #797979",
"|.	g #1B1B1B",
"1.	g #3F3F3F",
"2.	g #D8D8D8",
"3.	g #676767",
"4.	g #949494",
"5.	g #CBCBCB",
"6.	g #B9B9B9",
"7.	g #C7C7C7",
"8.	g #1F1F1F",
"9.	g #232323",
"0.	g #929292",
"a.	g #A0A0A0",
"b.	g #959595",
"c.	g #9A9A9A",
"d.	g #999999",
"e.	g #A4A4A4",
"f.	g #5A5A5A",
"g.	g #070707",
"h.	g #555555",
"i.	g #3A3A3A",
"j.	g #AFAFAF",
"k.	g #7F7F7F",
"l.	g #9E9E9E",
"m.	g #989898",
"n.	g #9F9F9F",
"o.	g #A1A1A1",
"p.	g #111111",
"q.	g #A9A9A9",
"r.	g #272727",
"s.	g #848484",
"t.	g #757575",
"u.	g #767676",
"v.	g #787878",
"w.	g #727272",
"x.	g #484848",
"y.	g #242424",
"z.	g #909090",
"A.	g #424242",
"B.	g #5B5B5B",
"C.	g #747474",
"D.	g #737373",
"E.	g #707070",
"F.	g #6F6F6F",
"G.	g #646464",
"H.	g #DFDFDF",
"I.	g #6C6C6C",
"J.	g #454545",
"K.	g #212121",
"L.	g #7E7E7E",
"M.	g #5F5F5F",
"N.	g #7C7C7C",
"O.	g #6A6A6A",
"P.	g #383838",
"Q.	g #777777",
"R.	g #6D6D6D",
"S.	g #3E3E3E",
"T.	g #191919",
"U.	g #282828",
"V.	g #3B3B3B",
"W.	g #404040",
"X.	g #535353",
"Y.	g #606060",
"Z.	g #0D0D0D",
"`.	g #979797",
" +	g #090909",
".+	g #262626",
"  . + + @ # # + + + + @ + . $   + % & * = - ; > , + @   + + ' ) ! ~ { ",
"] ^ / ( _ : ^ < [ } $ | 1 2 [ 3 + + # + 4 5 @ 6 7 8 } < 9 0 $ } a b c ",
"d e f g h f g i f j 4 k l d m n 5 o p q r a s t u v w t x y + + z A B ",
"C D E F f A G H b I + J 1 9 K L + M N ! O P Q R h f S P T U V } + W X ",
"d { B Y K b ~ Z { W @ `  .9 { ..+ +.N c N N B @.~ @.#.c $.= %.&.+ *.=.",
"C E H S -.R f F ;.>.,.'.8 C { o + ).#.f !.!.!.E A G e S e 7 7 O ~.# {.",
"].^.r /.(.)._.:.<.[.,.}.|.1.2.3.# 4.5.:.=.=.=.r 6.:.r (.7.8.9.e [ $ 0.",
"} &.a.b.'.p c.d.e.f.g.h.2 i.j.z + k.l.d.m.d.c.c.m.n.b.p o.| 7 ).p.# q.",
"r.s.o t.u.v.t.w.s.x.+ y V y.z.A.+ B.}.C.D.E.[.D.v.w.o E.F.] r.: + G.H.",
"9.n [.[.I.[.w.E.& J.+ -   K.L.i.$ M.& u.}.n N.O.}.n u.}.j | + + P.q N ",
"3 Q.D.t.}.t.Q.R.J S.g.T.  U I C + +   U.U V.W.X.f.% Y.M.[.|.+ Z.`.c $.",
"+ g.+ + + +   #  +g.+ . . + + + $ 8..+  + + + + + + . + , + 1 v.A ~ B "};
