/* XPM */
static const char * jack_xpm[] = {
"45 12 328 2",
"  	c None",
". 	c #FEAE00",
"+ 	c #FFA400",
"@ 	c #FFAC00",
"# 	c #FDAC00",
"$ 	c #875F00",
"% 	c #1A1000",
"& 	c #180D01",
"* 	c #725100",
"= 	c #FAB000",
"- 	c #FDAA00",
"; 	c #FBAA00",
"> 	c #FCAA00",
", 	c #FCA800",
"' 	c #FCAC00",
") 	c #FAA700",
"! 	c #EC9F00",
"~ 	c #AE7400",
"{ 	c #2F1900",
"] 	c #240B00",
"^ 	c #522C00",
"/ 	c #F5AB00",
"( 	c #F2A200",
"_ 	c #DE9400",
": 	c #C88400",
"< 	c #B97800",
"[ 	c #CF8600",
"} 	c #E09600",
"| 	c #CF8400",
"1 	c #D48500",
"2 	c #D08600",
"3 	c #C78300",
"4 	c #B67500",
"5 	c #A06700",
"6 	c #9D6B00",
"7 	c #A36F00",
"8 	c #9C6A00",
"9 	c #0D0B00",
"0 	c #0A0700",
"a 	c #2A1901",
"b 	c #C58700",
"c 	c #BF8300",
"d 	c #BB8300",
"e 	c #B57600",
"f 	c #B87900",
"g 	c #B07400",
"h 	c #AC7600",
"i 	c #A56F00",
"j 	c #AA7200",
"k 	c #B77900",
"l 	c #BC8100",
"m 	c #150802",
"n 	c #020002",
"o 	c #201201",
"p 	c #986700",
"q 	c #B07300",
"r 	c #BA7A00",
"s 	c #D59400",
"t 	c #CC8500",
"u 	c #D38B00",
"v 	c #C17E00",
"w 	c #C78400",
"x 	c #AB6C00",
"y 	c #BE7E00",
"z 	c #C08500",
"A 	c #895100",
"B 	c #A06100",
"C 	c #CF8800",
"D 	c #D08900",
"E 	c #B87700",
"F 	c #674400",
"G 	c #6E4900",
"H 	c #6C4800",
"I 	c #3A2602",
"J 	c #010103",
"K 	c #080506",
"L 	c #624000",
"M 	c #7A5300",
"N 	c #794F00",
"O 	c #7C4E00",
"P 	c #815700",
"Q 	c #865400",
"R 	c #845900",
"S 	c #805600",
"T 	c #835900",
"U 	c #895900",
"V 	c #905200",
"W 	c #583A02",
"X 	c #000003",
"Y 	c #020204",
"Z 	c #291902",
"` 	c #9A6400",
" .	c #794600",
"..	c #A16300",
"+.	c #C68200",
"@.	c #AD7000",
"#.	c #A76600",
"$.	c #BA7600",
"%.	c #C58200",
"&.	c #C18500",
"*.	c #703C01",
"=.	c #5B2302",
"-.	c #834900",
";.	c #865000",
">.	c #8C5500",
",.	c #8C5400",
"'.	c #9A6300",
").	c #AF7400",
"!.	c #CB8700",
"~.	c #B27300",
"{.	c #1F1402",
"].	c #050505",
"^.	c #120A05",
"/.	c #A36700",
"(.	c #362301",
"_.	c #00000A",
":.	c #0B0409",
"<.	c #492F07",
"[.	c #965300",
"}.	c #894700",
"|.	c #9D6100",
"1.	c #7A3800",
"2.	c #824600",
"3.	c #8B4F00",
"4.	c #9C5E00",
"5.	c #AE6F00",
"6.	c #421A07",
"7.	c #764200",
"8.	c #975C00",
"9.	c #9D6200",
"0.	c #9D6500",
"a.	c #985D00",
"b.	c #8F5900",
"c.	c #935B00",
"d.	c #995D00",
"e.	c #A86900",
"f.	c #C17D00",
"g.	c #BF7900",
"h.	c #AC7F00",
"i.	c #B18500",
"j.	c #AD8400",
"k.	c #170F01",
"l.	c #070702",
"m.	c #C59700",
"n.	c #C99C00",
"o.	c #C9A100",
"p.	c #CAA100",
"q.	c #CA9D00",
"r.	c #C79B00",
"s.	c #CDA100",
"t.	c #C69F00",
"u.	c #C79900",
"v.	c #AE7600",
"w.	c #6C2D00",
"x.	c #1D0D00",
"y.	c #030400",
"z.	c #100B00",
"A.	c #5D3D00",
"B.	c #B68100",
"C.	c #975D01",
"D.	c #934A00",
"E.	c #905400",
"F.	c #7B3F00",
"G.	c #784600",
"H.	c #C98900",
"I.	c #DFA900",
"J.	c #AB6D00",
"K.	c #845203",
"L.	c #4B2A06",
"M.	c #6D4100",
"N.	c #804700",
"O.	c #814500",
"P.	c #824700",
"Q.	c #7F4600",
"R.	c #793E00",
"S.	c #7C3C00",
"T.	c #823E00",
"U.	c #8E4A00",
"V.	c #934E00",
"W.	c #AC6600",
"X.	c #C27F00",
"Y.	c #834E00",
"Z.	c #875000",
"`.	c #8A5900",
" +	c #130C01",
".+	c #040200",
"++	c #140B03",
"@+	c #935C00",
"#+	c #955D00",
"$+	c #976100",
"%+	c #945E00",
"&+	c #975F00",
"*+	c #975E00",
"=+	c #986100",
"-+	c #996300",
";+	c #9C5E01",
">+	c #712503",
",+	c #180A00",
"'+	c #100903",
")+	c #5F3B01",
"!+	c #915901",
"~+	c #9C5506",
"{+	c #BA6B00",
"]+	c #C88700",
"^+	c #844300",
"/+	c #915701",
"(+	c #DA9700",
"_+	c #DA9500",
":+	c #AB6A00",
"<+	c #874D0B",
"[+	c #773F00",
"}+	c #9D5400",
"|+	c #A45700",
"1+	c #9F5400",
"2+	c #9D5100",
"3+	c #974800",
"4+	c #893E00",
"5+	c #7E3900",
"6+	c #813B00",
"7+	c #863E00",
"8+	c #A96400",
"9+	c #C28101",
"0+	c #1E0F01",
"a+	c #000302",
"b+	c #0E0A04",
"c+	c #A76800",
"d+	c #8C4000",
"e+	c #201202",
"f+	c #0D0807",
"g+	c #4D3A09",
"h+	c #A56500",
"i+	c #EAC200",
"j+	c #F1CA00",
"k+	c #CF8F00",
"l+	c #956401",
"m+	c #9B6900",
"n+	c #965100",
"o+	c #9A5900",
"p+	c #9D6300",
"q+	c #9D6A00",
"r+	c #8C7000",
"s+	c #6D4600",
"t+	c #7E4A00",
"u+	c #201A02",
"v+	c #161003",
"w+	c #A16F00",
"x+	c #553B00",
"y+	c #130A00",
"z+	c #0E0A02",
"A+	c #2E1F03",
"B+	c #9E6903",
"C+	c #915D00",
"D+	c #724E00",
"E+	c #4B3501",
"F+	c #4F3000",
"G+	c #4D2D00",
"H+	c #704700",
"I+	c #A97101",
"J+	c #7C4C00",
"K+	c #4A3800",
"L+	c #3D2B00",
"M+	c #301B00",
"N+	c #220F00",
"O+	c #1B0B00",
"P+	c #E8A000",
"Q+	c #E5A000",
"R+	c #EBA000",
"S+	c #D49100",
"T+	c #160C01",
"U+	c #140B00",
"V+	c #422901",
"W+	c #F4AB00",
"X+	c #ECA400",
"Y+	c #E9A600",
"Z+	c #E4A300",
"`+	c #E2A200",
" @	c #E4A000",
".@	c #E0A100",
"+@	c #E8A700",
"@@	c #E1A200",
"#@	c #A16E00",
"$@	c #2E1900",
"%@	c #0C0501",
"&@	c #020200",
"*@	c #1B1103",
"=@	c #916000",
"-@	c #B98301",
";@	c #6F4502",
">@	c #422A00",
",@	c #3A2300",
"'@	c #180B00",
")@	c #352000",
"!@	c #663D03",
"~@	c #764B00",
"{@	c #362000",
"]@	c #2F2000",
"^@	c #1A0C00",
"/@	c #170A00",
"(@	c #201000",
"_@	c #C08200",
":@	c #CC8700",
"<@	c #965A00",
"[@	c #1A0E01",
"}@	c #301A00",
"|@	c #845100",
"1@	c #A16400",
"2@	c #623500",
"3@	c #402100",
"4@	c #391F00",
"5@	c #392200",
"6@	c #371E00",
"7@	c #311A00",
"8@	c #302000",
"9@	c #1D1300",
"0@	c #120A01",
"a@	c #0C0402",
"b@	c #060405",
"c@	c #120C05",
"d@	c #2C1901",
"e@	c #221502",
"f@	c #2B1800",
"g@	c #794D00",
"h@	c #925E00",
"i@	c #1C0D05",
"j@	c #190C01",
"k@	c #140801",
"l@	c #140A00",
"m@	c #1F1100",
"                                                                                          ",
". + @ # $ % & * = @ - ; > , ; ' ) ! ~ { ] ^ / ( _ : <         [ } | 1 2 3 4               ",
"5 6 7 8 9 0 a b c d e f g h i j k l m n o p q r s t u v w x y z A B f w C D : E           ",
"F G H I J K L M N O P Q R S T U V W X Y Z `  ...+.@.#.$.w %.&.*.=.-.;.>.,.'.).+.!.v ~.    ",
"- - - {.].^.- - - - - - - - - - /.(._.:.<.- - [.}.|.1.2.3.4.5.- 6.7.8.9.0.a.b.c.d.e.f.g.  ",
"h.i.j.k.l.& m.n.o.p.q.r.s.t.u.v.w.x.y.z.A.B.C.D.E.F.G.- H.I.J.K.L.M.N.O.P.Q.R.S.T.U.V.W.X.",
"Y.Z.`. +.+++@+#+$+%+&+*+=+*+-+;+>+,+n '+)+!+~+{+]+^+/+- (+_+:+<+- [+}+|+1+2+3+4+5+6+7+8+9+",
"- - - 0+a+b+- - - - - - - - - c+d+e+_.f+g+- h+r i+- - - - j+k+l+m+2.n+o+p+q+w w w r+s+t+  ",
"f f f f u+v+f f f f f f f f f f w+x+y+z+A+- - B+C+D+E+F+G+H+I+- J+w w w w K+L+M+N+O+      ",
"P+Q+R+S+T+U+V+W+X+Y+Z+`+ @.@+@@@#@$@%@&@*@=@-@;@>@,@'@)@w w w !@T ~@{@]@^@/@(@            ",
"_@:@[ [ <@[@}@|@1@2@3@4@{@5@6@7@8@9@0@a@b@c@d@e@f@g@h@          i@j@k@l@m@                ",
"                                                                                          "};
