/* XPM */
static const char * learn2_xpm[] = {
"21 10 2 1",
" 	c None",
".	c #000000",
"                     ",
"                     ",
".....  ..............",
".....  ..............",
".....  ..............",
".....  ..............",
".....            ....",
".....            ....",
"                     ",
"                     "};
