/* XPM */
static const char * learn2_xpm[] = {
"21 6 5 1",
". 	c None",
"   c #000000",
"+	c #FFC1C1",
"@	c #AD6666",
"#	c #724B4B",
"     ..              ",
"     ..              ",
"     ..              ",
"     ..              ",
"     ............    ",
"     ............    "};
