/* XPM */
static const char * length_short_xpm[] = {
"23 11 2 1",
" 	c None",
".	c #000000",
"  ...................  ",
"  ...................  ",
"                       ",
"  ................     ",
"  ................     ",
"                       ",
"  ........             ",
"  ........             ",
"                       ",
"  ....                 ",
"  ....                 "};
