/* XPM */
static const char * route64rwb_32x32_xpm[] = {
"32 32 465 2",
"  	c None",
". 	c #373637",
"+ 	c #000303",
"@ 	c #0E1818",
"# 	c #121111",
"$ 	c #0A1111",
"% 	c #191C1C",
"& 	c #152020",
"* 	c #414040",
"= 	c #362626",
"- 	c #CB1C1C",
"; 	c #4B2323",
"> 	c #000E0E",
", 	c #282D2D",
"' 	c #000000",
") 	c #191F1F",
"! 	c #000D0C",
"~ 	c #392020",
"{ 	c #B82929",
"] 	c #F31A1A",
"^ 	c #921313",
"/ 	c #1D2222",
"( 	c #091313",
"_ 	c #0C1616",
": 	c #000708",
"< 	c #2F2C2B",
"[ 	c #911F20",
"} 	c #E23434",
"| 	c #181414",
"1 	c #252627",
"2 	c #431314",
"3 	c #FA1717",
"4 	c #F10D0D",
"5 	c #F60A0A",
"6 	c #FD2222",
"7 	c #C92323",
"8 	c #B23635",
"9 	c #B33232",
"0 	c #BF1C1C",
"a 	c #FB1C1C",
"b 	c #F80A0A",
"c 	c #EA0606",
"d 	c #EB0707",
"e 	c #FB0505",
"f 	c #F12E2E",
"g 	c #BB1F1F",
"h 	c #BB3F3F",
"i 	c #C30E0F",
"j 	c #F72D2C",
"k 	c #F10C0C",
"l 	c #ED2222",
"m 	c #1B1818",
"n 	c #4F4D4D",
"o 	c #212425",
"p 	c #641D1D",
"q 	c #FA1010",
"r 	c #F20D0D",
"s 	c #CB3333",
"t 	c #DDCDCD",
"u 	c #DCC5C5",
"v 	c #DACCCC",
"w 	c #EE2D2D",
"x 	c #CC1717",
"y 	c #DFD0D0",
"z 	c #DBCBCB",
"A 	c #EF2424",
"B 	c #CD3737",
"C 	c #DECACA",
"D 	c #DACBCC",
"E 	c #ED3535",
"F 	c #F00C0C",
"G 	c #F31616",
"H 	c #201213",
"I 	c #2F2F2F",
"J 	c #060909",
"K 	c #983434",
"L 	c #F70B0B",
"M 	c #C93737",
"N 	c #F6FFFF",
"O 	c #F78989",
"P 	c #F78F8F",
"Q 	c #F22222",
"R 	c #C51515",
"S 	c #FFFFFF",
"T 	c #F19595",
"U 	c #F68E8E",
"V 	c #F21D1D",
"W 	c #CC3C3C",
"X 	c #D78888",
"Y 	c #F5F9F9",
"Z 	c #F43E3E",
"` 	c #F00D0D",
" .	c #F71111",
"..	c #351919",
"+.	c #313030",
"@.	c #323030",
"#.	c #522525",
"$.	c #C93738",
"%.	c #F9FFFF",
"&.	c #D6A8A8",
"*.	c #D5ADAE",
"=.	c #ED2828",
"-.	c #D6ADAD",
";.	c #D7ADAE",
">.	c #EE2020",
",.	c #CD3C3D",
"'.	c #C90F0F",
").	c #F0F0F0",
"!.	c #F43F3F",
"~.	c #E91919",
"{.	c #171616",
"].	c #0B1010",
"^.	c #B72525",
"/.	c #DD2121",
"(.	c #FB8B8B",
"_.	c #FA7D7D",
":.	c #E9FCFC",
"<.	c #F33434",
"[.	c #F1BBBC",
"}.	c #F4BABA",
"|.	c #F12222",
"1.	c #C60202",
"2.	c #EFF0F0",
"3.	c #F60707",
"4.	c #632829",
"5.	c #2E2E2F",
"6.	c #180E0E",
"7.	c #FA0E0E",
"8.	c #D62727",
"9.	c #FEB4B4",
"0.	c #FBA7A7",
"a.	c #F0FFFF",
"b.	c #C41515",
"c.	c #F8AFAF",
"d.	c #FBA9A9",
"e.	c #F21F1F",
"f.	c #EDAEAE",
"g.	c #FAFFFF",
"h.	c #E81F1F",
"i.	c #0B1414",
"j.	c #182121",
"k.	c #AD1D1D",
"l.	c #F71010",
"m.	c #F61111",
"n.	c #D64142",
"o.	c #F6F7F7",
"p.	c #F2EDED",
"q.	c #F3F7F7",
"r.	c #F53535",
"s.	c #D52323",
"t.	c #F7FAFA",
"u.	c #F3F3F3",
"v.	c #F52B2B",
"w.	c #D84646",
"x.	c #F5F2F2",
"y.	c #F4EFEF",
"z.	c #F94444",
"A.	c #F90F0F",
"B.	c #842020",
"C.	c #141414",
"D.	c #170B0A",
"E.	c #422C1B",
"F.	c #412B1B",
"G.	c #412B1A",
"H.	c #442615",
"I.	c #431706",
"J.	c #431807",
"K.	c #412917",
"L.	c #432918",
"M.	c #421605",
"N.	c #431806",
"O.	c #412918",
"P.	c #432614",
"Q.	c #421806",
"R.	c #431A09",
"S.	c #43402F",
"T.	c #403B29",
"U.	c #422C1A",
"V.	c #412C1B",
"W.	c #422C1C",
"X.	c #090202",
"Y.	c #151421",
"Z.	c #2423E6",
"`.	c #2322E3",
" +	c #2222E3",
".+	c #2323E4",
"++	c #1C1CDC",
"@+	c #2221E3",
"#+	c #1716EA",
"$+	c #1313E8",
"%+	c #1413E9",
"&+	c #2221E4",
"*+	c #3635EA",
"=+	c #171618",
"-+	c #2C2B13",
";+	c #2222F0",
">+	c #1D1DEF",
",+	c #1515EC",
"'+	c #A7A7DF",
")+	c #CECDE0",
"!+	c #1919ED",
"~+	c #2826E3",
"{+	c #DAD9C9",
"]+	c #EBEBDC",
"^+	c #CCCDB1",
"/+	c #1819DA",
"(+	c #3232F5",
"_+	c #0A090C",
":+	c #1D1C29",
"<+	c #1F1FF2",
"[+	c #1616F0",
"}+	c #9595D7",
"|+	c #4D4CCD",
"1+	c #1C1CF0",
"2+	c #1617F2",
"3+	c #C0BDDA",
"4+	c #C8C8BE",
"5+	c #0F0FD3",
"6+	c #202023",
"7+	c #141456",
"8+	c #1E1EF4",
"9+	c #1616F1",
"0+	c #9292DB",
"a+	c #9A9ADD",
"b+	c #1414F0",
"c+	c #1B1CEF",
"d+	c #5F5DE3",
"e+	c #F9F9F2",
"f+	c #C7C8BE",
"g+	c #2525FF",
"h+	c #111014",
"i+	c #181814",
"j+	c #3030D2",
"k+	c #1C1CEF",
"l+	c #201FDB",
"m+	c #F9F9F4",
"n+	c #BBBBDF",
"o+	c #1313F0",
"p+	c #1B1AE4",
"q+	c #EBEAEA",
"r+	c #FFFFFE",
"s+	c #1919F3",
"t+	c #2C2E74",
"u+	c #2E2E2E",
"v+	c #202050",
"w+	c #1919F9",
"x+	c #B0AFE2",
"y+	c #FEFDF9",
"z+	c #2323E8",
"A+	c #1717F0",
"B+	c #1A1AF0",
"C+	c #1414EF",
"D+	c #ABA9DE",
"E+	c #BBBCD5",
"F+	c #2F2FF2",
"G+	c #100F0B",
"H+	c #050500",
"I+	c #2D2DEF",
"J+	c #1F1FE9",
"K+	c #F2F2EB",
"L+	c #CCCCE2",
"M+	c #9E9EEE",
"N+	c #A4A4EF",
"O+	c #9090EB",
"P+	c #1818E2",
"Q+	c #1E1EEF",
"R+	c #5B57D6",
"S+	c #7174C9",
"T+	c #AAA7F4",
"U+	c #C7C8BF",
"V+	c #1B1BEF",
"W+	c #3838A2",
"X+	c #2A2961",
"Y+	c #1919F2",
"Z+	c #5B5BE2",
"`+	c #FEFEF5",
" @	c #3333E0",
".@	c #1F1FEB",
"+@	c #F1EFE2",
"@@	c #FFFEFF",
"#@	c #DCDDE7",
"$@	c #0A0BE7",
"%@	c #A9A8F1",
"&@	c #1E1EF5",
"*@	c #1A1A2D",
"=@	c #3D3DD2",
"-@	c #1919EF",
";@	c #B0B0EA",
">@	c #FFFFFD",
",@	c #E6E6F1",
"'@	c #DDDDEC",
")@	c #FFFFF8",
"!@	c #FEFEFF",
"~@	c #F1F1EA",
"{@	c #2222E8",
"]@	c #1213F1",
"^@	c #BEBBD6",
"/@	c #373ADC",
"(@	c #0C0CEE",
"_@	c #A7A5F0",
":@	c #C4C4BB",
"<@	c #0606D0",
"[@	c #1A1AF1",
"}@	c #34338B",
"|@	c #1C1A16",
"1@	c #181812",
"2@	c #1D1DEE",
"3@	c #1A1AF4",
"4@	c #A9A9CD",
"5@	c #4B4BE0",
"6@	c #1B1BE8",
"7@	c #1818E5",
"8@	c #4242DD",
"9@	c #EBEBEF",
"0@	c #8281E1",
"a@	c #413CD4",
"b@	c #ECEDF2",
"c@	c #ADADFC",
"d@	c #ABABFA",
"e@	c #E1E1F9",
"f@	c #F5F5F0",
"g@	c #ACACF3",
"h@	c #6F71D8",
"i@	c #1B1AF4",
"j@	c #1C1CEE",
"k@	c #2425BE",
"l@	c #2B2B22",
"m@	c #161629",
"n@	c #1E1EF0",
"o@	c #1414EE",
"p@	c #DBDBFF",
"q@	c #B0B1E2",
"r@	c #1616F3",
"s@	c #1314F0",
"t@	c #C1BFF4",
"u@	c #CCCCE6",
"v@	c #4A45D2",
"w@	c #878ACB",
"x@	c #1E1DF7",
"y@	c #3736D6",
"z@	c #1A1A10",
"A@	c #1C1D2C",
"B@	c #AFAFD7",
"C@	c #B8B8DB",
"D@	c #0E0EF6",
"E@	c #1010EE",
"F@	c #C6C6ED",
"G@	c #C6C6E6",
"H@	c #1D19D4",
"I@	c #FAFAFF",
"J@	c #F2F2FE",
"K@	c #F1F1FE",
"L@	c #F3F3FE",
"M@	c #8385CC",
"N@	c #1D1DF7",
"O@	c #2626C9",
"P@	c #242419",
"Q@	c #161608",
"R@	c #2727ED",
"S@	c #7878D2",
"T@	c #8E8DDC",
"U@	c #2626DB",
"V@	c #2021D8",
"W@	c #8F8FE3",
"X@	c #FCFBF9",
"Y@	c #6E6DD8",
"Z@	c #1919F0",
"`@	c #2424F0",
" #	c #2424EF",
".#	c #1C1DF0",
"+#	c #ACA9F1",
"@#	c #CCCDC3",
"##	c #1818D6",
"$#	c #2020ED",
"%#	c #31329D",
"&#	c #2D2D29",
"*#	c #1D1C1E",
"=#	c #242479",
"-#	c #1B1BF1",
";#	c #1E1EEC",
">#	c #E9E8E9",
",#	c #C4C4E4",
"'#	c #1616EF",
")#	c #0F10D3",
"!#	c #2121F6",
"~#	c #20202F",
"{#	c #090900",
"]#	c #2626C8",
"^#	c #1A1AF3",
"/#	c #1D1DF0",
"(#	c #2D2DE8",
"_#	c #C9C9ED",
":#	c #FFFFFA",
"<#	c #F5F4EF",
"[#	c #9595E1",
"}#	c #1414EB",
"|#	c #ABA9F3",
"1#	c #C7C7BF",
"2#	c #0E0ED2",
"3#	c #1C1CF8",
"4#	c #2C2C81",
"5#	c #1E1E1B",
"6#	c #0F0F0C",
"7#	c #3D3CA0",
"8#	c #1919FE",
"9#	c #1E1EEE",
"0#	c #1717EC",
"a#	c #3333EC",
"b#	c #5E5EE2",
"c#	c #5F5FEB",
"d#	c #201FE2",
"e#	c #1919F1",
"f#	c #1818EF",
"g#	c #6967E1",
"h#	c #8888D3",
"i#	c #7F80C4",
"j#	c #1E1EE6",
"k#	c #2929FB",
"l#	c #2A2A63",
"m#	c #14150E",
"n#	c #1B1A19",
"o#	c #282826",
"p#	c #262597",
"q#	c #2E2ED0",
"r#	c #4747F1",
"s#	c #1B1BF6",
"t#	c #1D1DF5",
"u#	c #1C1CF2",
"v#	c #1C1CF1",
"w#	c #1D1DF4",
"x#	c #1C1CF5",
"y#	c #2C2CF5",
"z#	c #2423C5",
"A#	c #3131AA",
"B#	c #25256C",
"C#	c #141408",
"D#	c #2E2D2D",
"E#	c #161717",
"F#	c #27251B",
"G#	c #212006",
"H#	c #181725",
"I#	c #34336B",
"J#	c #2323B7",
"K#	c #2929F4",
"L#	c #1B1BF3",
"M#	c #1F1FF9",
"N#	c #2E2EDF",
"O#	c #292A81",
"P#	c #19193B",
"Q#	c #262615",
"R#	c #0C0C00",
"S#	c #222114",
"T#	c #201F13",
"U#	c #1A1A1B",
"V#	c #191978",
"W#	c #2D2DF4",
"X#	c #1818FD",
"Y#	c #2A2AC5",
"Z#	c #161646",
"`#	c #0D0E08",
" $	c #282726",
".$	c #1D1D1B",
"+$	c #0F0E06",
"@$	c #1F1F26",
"#$	c #12110E",
"                                                                ",
"          . +                 @ # $               % &           ",
"        * = - ; > , ' ' ) ! ~ { ] ^ / ( ' ' _ : < [ } |         ",
"      1 2 3 4 5 6 7 8 9 0 a b c d d e f g h i j e k k l m n     ",
"    o p q 4 4 4 r s t u v w x y u z A B C u D E 4 4 4 F G H I   ",
"  J K L 4 4 4 4 r M N O P Q R S T U V W S X Y Z 4 4 4 4 `  ...+.",
"  @.#.b 4 4 4 4 r $.%.&.*.=.R S -.;.>.,.S '.).!.4 4 4 4 4 ~.{.  ",
"    ].^.k 4 4 4 4 /.(._.:.<.R S [.}.|.W S 1.2.!.4 4 4 4 3.4.5.  ",
"      6.7.4 4 4 r 8.9.0.a.<.b.S c.d.e.W S f.g.!.4 4 4 4 h.i.    ",
"      j.k.l.m.m. .n.o.p.q.r.s.t.p.u.v.w.x.y.S z.m.m.m.A.B.C.    ",
"        D.E.F.G.F.H.I.J.I.K.L.M.N.I.O.P.Q.R.S.T.E.U.V.W.X.      ",
"        Y.Z.`.`. +`..+++ +`. +`.`.`.`. +`.@+#+$+%+&+`.*+=+      ",
"        -+;+>+>+>+,+'+)+!+>+>+>+>+>+>+>+>+~+{+]+^+/+>+(+_+      ",
"        :+<+>+>+[+}+S S |+1+>+>+>+>+>+>+2+3+S S 4+5+>+(+6+      ",
"        7+8+>+9+0+S S a+b+>+>+>+>+>+>+c+d+e+S S f+5+>+g+h+      ",
"      i+j+k+>+l+m+S n+o+>+>+>+>+>+>+>+p+q+S r+S f+5+>+s+t+u+    ",
"      v+w+>+9+x+S y+z+A+B+>+>+>+>+>+C+D+S S E+S f+5+>+>+F+G+    ",
"    H+I+>+>+J+K+S L+M+N+O+P+Q+>+>+1+R+S S S+T+S U+5+>+>+V+W+#   ",
"    X+Y+>+>+Z+S S S S S S `+ @>+>+.@+@@@#@$@%@S U+5+>+>+>+&@*@  ",
"  ' =@>+>+-@;@S S >@,@'@)@!@~@{@]@^@S S /@(@_@S :@<@A+>+>+[@}@|@",
"  1@2@>+>+3@4@S S 5@6@7@8@9@S 0@a@S S b@c@d@e@S f@g@h@i@>+j@k@l@",
"  m@n@>+>+o@p@S q@r@>+>+s@t@S u@v@S S S S S S S S S w@x@>+>+y@z@",
"  A@n@>+>+s+B@S C@D@>+>+E@F@S G@H@I@J@J@J@K@I@S S L@M@N@>+2@O@P@",
"  Q@R@>+>+k+S@S >@T@U@V@W@X@S Y@Z@`@ # # #.#+#S @###$#>+>+B+%#&#",
"  *#=#-#>+>+;#>#S S S S S S ,#-#>+>+>+>+>+'#%@S f+)#>+>+>+!#~#  ",
"    {#]#^#>+/#(#_#:#S S <#[#}#>+>+>+>+>+>+[+|#S 1#2#>+Q+3#4#5#  ",
"      6#7#8#9#>+0#a#b#c#d#e#>+>+>+>+>+>+>+f#g#h#i#j#e#k#l#m#    ",
"        n#o#p#q#r#s#t#u#>+>+>+>+>+>+>+>+v#w#x#y#z#A#B#C#D#      ",
"            E#F#' G#H#I#J#K#L#>+>+2@M#N#O#P#Q#R#S#'             ",
"                        T#U#V#W#X#Y#Z#`# $                      ",
"                            .$+$@$#$                            ",
"                                                                "};
