/* XPM */
static const char * menu_xpm[] = {
"18 18 4 1",
" 	c None",
".	c #000000",
"+	c #6C734B",
"@	c #A5A5A5",
"..................",
"..................",
"..+@@@@@@@@@@@@@..",
"..+@@@@@@@@@@@@@..",
"..................",
"..................",
"..+@@@@@@@@@@@@@..",
"..+@@@@@@@@@@@@@..",
"..................",
"..................",
"..+@@@@@@@@@@@@@..",
"..+@@@@@@@@@@@@@..",
"..................",
"..................",
"..+@@@@@@@@@@@@@..",
"..+@@@@@@@@@@@@@..",
"..................",
".................."};
