/* XPM */
static const char * menu_full_xpm[] = {
"10 10 2 1",
" 	c None",
".	c #000000",
"          ",
" ........ ",
" ........ ",
" ........ ",
" ........ ",
" ........ ",
" ........ ",
" ........ ",
" ........ ",
"          "};
