/* XPM */
static const char * menu_xpm[] = {
"11 11 4 1",
" 	c None",
".	c #000000",
"+	c #6C734B",
"@	c #F4FFC1",
"           ",
"...........",
".+@@@@@@@@.",
"...........",
".+@@@@@@@@.",
"...........",
".+@@@@@@@@.",
"...........",
".+@@@@@@@@.",
"...........",
"           "};
