/* XPM */
static const char * menu_xpm[] = {
"18 18 3 1",
" 	c #000000",
".	c #6C734B",
"+	c #F4FFC1",
"                  ",
"                  ",
"  .+++++++++++++  ",
"  .+++++++++++++  ",
"                  ",
"                  ",
"  .+++++++++++++  ",
"  .+++++++++++++  ",
"                  ",
"                  ",
"  .+++++++++++++  ",
"  .+++++++++++++  ",
"                  ",
"                  ",
"  .+++++++++++++  ",
"  .+++++++++++++  ",
"                  ",
"                  "};
