/* XPM */
static const char * midi_xpm[] = {
"14 14 4 1",
" 	c None",
".	c #000000",
"+	c #FFFFFF",
"@	c #9E9E9E",
"    ......    ",
"  ...+..+...  ",
" ..+++@@+++.. ",
" .++++++++++. ",
"..++++++++++..",
".++++++++++++.",
".+..++++++..+.",
".+@.++++++.@+.",
".++++++++++++.",
"..+..++++..+..",
" .+@.+..+.@+. ",
" ..+++..+++.. ",
"  ...++++...  ",
"    ......    "};
