/* XPM */
static const char * muting_xpm[] = {
"18 18 3 1",
" 	c None",
".	c #000000",
"+	c #C6EF94",
"..................",
"..................",
"..+.......++++++..",
"...+...+...+++.+..",
"......+...+.+++...",
"..+.+.....+++.++..",
".....+.+..++.++...",
"..+.......++++++..",
"..................",
"..................",
"..++++++..+.+..+..",
"...++..+...+..+...",
"...+.+.+....+..+..",
"..+.+.++..+...+...",
"..++.+.+...++.+...",
"...++.++..+....+..",
"..................",
".................."};
