/* XPM */
static const char * muting_xpm[] = {
"18 18 4 1",
" 	c None",
".	c #000000",
"+	c #A5A5A5",
"@	c #4DE8EA",
"..................",
"..................",
"..+.......@@@@@@..",
"...+...+...@@@.@..",
"......+...@.@@@...",
"..+.+.....@@@.@@..",
".....+.+..@@.@@...",
"..+.......@@@@@@..",
"..................",
"..................",
"..++++++..+.+..+..",
"...++..+...+..+...",
"...+.+.+....+..+..",
"..+.+.++..+...+...",
"..++.+.+...++.+...",
"...++.++..+....+..",
"..................",
".................."};
