/* XPM */
static const char * muting_xpm[] = {
"18 18 4 1",
" 	c None",
".	c #000000",
"+	c #F4FFC1",
"@	c #FFFFFF",
"..................",
"..................",
"..+.......@@@@@@..",
"...+...+...+++.+..",
"......+...+.+++...",
"..+.+.....+++.@@..",
".....+.+..++.@@...",
"..+.......++++++..",
"..................",
"..................",
"..++++++..+.+..+..",
"...++..+...+..+...",
"...+.+.+....+..+..",
"..@.+.@@..+...+...",
"..@@.+.@...++.+...",
"...++.++..+....+..",
"..................",
".................."};
