/* XPM */
static const char * note_length_xpm[] = {
"29 12 2 1",
" 	c None",
".	c #000000",
"                             ",
"      .     .     ...   ...  ",
"      .     .     ...   ...  ",
"      .     .     .     .    ",
"      .     .     .     ...  ",
"      .     .     .     ...  ",
"      .     .     .     .    ",
"      .     .     .     .    ",
"   ....  ....  ....  ....    ",
"   .  .  ....  ....  ....    ",
"   ....  ....  ....  ....    ",
"                             "};
