/* XPM */
static char * paia_seq_24x24_xpm[] = {
"24 24 569 2",
"  	c None",
". 	c #A0B5BD",
"+ 	c #557585",
"@ 	c #526F85",
"# 	c #8195A9",
"$ 	c #A3BCC8",
"% 	c #6D8B9C",
"& 	c #648194",
"* 	c #90A8B5",
"= 	c #A3BEC9",
"- 	c #718D9D",
"; 	c #698394",
"> 	c #90A4B2",
", 	c #9FB3BF",
"' 	c #7D949E",
") 	c #6E8291",
"! 	c #869BAA",
"~ 	c #92A5B2",
"{ 	c #728899",
"] 	c #697D8B",
"^ 	c #859AA7",
"/ 	c #8BA0AE",
"( 	c #6C818F",
"_ 	c #657687",
": 	c #80949E",
"< 	c #0D1922",
"[ 	c #0B1621",
"} 	c #0A1321",
"| 	c #1A2B3F",
"1 	c #131D29",
"2 	c #0E192B",
"3 	c #0E1A2B",
"4 	c #152843",
"5 	c #1F2D39",
"6 	c #121D2A",
"7 	c #0C1726",
"8 	c #182538",
"9 	c #607382",
"0 	c #0F1A28",
"a 	c #0D1926",
"b 	c #25343E",
"c 	c #7B95A3",
"d 	c #0D1822",
"e 	c #121820",
"f 	c #272D38",
"g 	c #6C8692",
"h 	c #0C151F",
"i 	c #111720",
"j 	c #364143",
"k 	c #1F2A35",
"l 	c #060D14",
"m 	c #070F18",
"n 	c #0E131D",
"o 	c #0B141F",
"p 	c #09131B",
"q 	c #08121A",
"r 	c #0D1520",
"s 	c #0E1825",
"t 	c #0A121B",
"u 	c #060F16",
"v 	c #1B222E",
"w 	c #090C15",
"x 	c #020913",
"y 	c #070D17",
"z 	c #242B37",
"A 	c #070811",
"B 	c #02040B",
"C 	c #0D0F17",
"D 	c #25313B",
"E 	c #030409",
"F 	c #04060C",
"G 	c #080B11",
"H 	c #8BA2B2",
"I 	c #264055",
"J 	c #121C27",
"K 	c #151B29",
"L 	c #3F4D58",
"M 	c #192633",
"N 	c #0F1924",
"O 	c #161A25",
"P 	c #3A4651",
"Q 	c #171E2A",
"R 	c #08121B",
"S 	c #0E181F",
"T 	c #3C424F",
"U 	c #111723",
"V 	c #080912",
"W 	c #10131C",
"X 	c #3B3E46",
"Y 	c #090E17",
"Z 	c #04060E",
"` 	c #0E1117",
" .	c #2F3741",
"..	c #090F18",
"+.	c #02050B",
"@.	c #14151C",
"#.	c #919EAB",
"$.	c #9EB1BA",
"%.	c #7D8C94",
"&.	c #939FAA",
"*.	c #A2AEB5",
"=.	c #8F9EA8",
"-.	c #76818A",
";.	c #929EA7",
">.	c #9DA7AA",
",.	c #828F99",
"'.	c #646D75",
").	c #848A95",
"!.	c #949DA4",
"~.	c #75818A",
"{.	c #4E5C68",
"].	c #727C86",
"^.	c #8B959C",
"/.	c #64717C",
"(.	c #47535C",
"_.	c #778187",
":.	c #8C9697",
"<.	c #5D6870",
"[.	c #3C434D",
"}.	c #737B7F",
"|.	c #9EA9B0",
"1.	c #B1C0C6",
"2.	c #767D8E",
"3.	c #B5C1C6",
"4.	c #AFBAC0",
"5.	c #B9C4C7",
"6.	c #697278",
"7.	c #B0BBBF",
"8.	c #AAB5B8",
"9.	c #A0ABAD",
"0.	c #5A5864",
"a.	c #ACAEB1",
"b.	c #A6A9AC",
"c.	c #9FA7AA",
"d.	c #7C767B",
"e.	c #A2ADB2",
"f.	c #9DA6A9",
"g.	c #A1ACAC",
"h.	c #6A6166",
"i.	c #9AA5A7",
"j.	c #9CA7A7",
"k.	c #858E8F",
"l.	c #74706F",
"m.	c #939D9E",
"n.	c #B1B9BC",
"o.	c #B1BCC1",
"p.	c #B1BBC1",
"q.	c #B3BFC1",
"r.	c #AFBABB",
"s.	c #AFBABA",
"t.	c #AEBABC",
"u.	c #AEBABB",
"v.	c #ADB7B8",
"w.	c #A9B0B3",
"x.	c #AAABB0",
"y.	c #AAA9B0",
"z.	c #A8AAAC",
"A.	c #A2A5AA",
"B.	c #9EA5A7",
"C.	c #9DA6A7",
"D.	c #A0A5A7",
"E.	c #9CA1A5",
"F.	c #99A1A4",
"G.	c #9AA1A3",
"H.	c #9BA19F",
"I.	c #989DA0",
"J.	c #9AA4A4",
"K.	c #919B9B",
"L.	c #B5BBBC",
"M.	c #B68890",
"N.	c #AD6D78",
"O.	c #8A868E",
"P.	c #A7AFB4",
"Q.	c #B88289",
"R.	c #A96D74",
"S.	c #8D9298",
"T.	c #A7AEB2",
"U.	c #BD6673",
"V.	c #B5515A",
"W.	c #837B7E",
"X.	c #9DA2A6",
"Y.	c #B2767B",
"Z.	c #A6646C",
"`.	c #858C8F",
" +	c #989DA3",
".+	c #B36B70",
"++	c #A35F63",
"@+	c #848C90",
"#+	c #91A1A3",
"$+	c #B46166",
"%+	c #A3585C",
"&+	c #7F898A",
"*+	c #BB8589",
"=+	c #AD1A2D",
"-+	c #B51D34",
";+	c #740812",
">+	c #9D3A4D",
",+	c #BC152B",
"'+	c #C30C24",
")+	c #540B10",
"!+	c #A5394B",
"~+	c #B60B1D",
"{+	c #BF0D15",
"]+	c #660309",
"^+	c #843744",
"/+	c #C60010",
"(+	c #CB020F",
"_+	c #690B11",
":+	c #9C5762",
"<+	c #C30009",
"[+	c #C8010B",
"}+	c #5E0C13",
"|+	c #AB4450",
"1+	c #BE0006",
"2+	c #C30006",
"3+	c #57171A",
"4+	c #BC5965",
"5+	c #4A0307",
"6+	c #5C0C17",
"7+	c #A41125",
"8+	c #CD2134",
"9+	c #3D0409",
"0+	c #6E0C15",
"a+	c #940613",
"b+	c #B91321",
"c+	c #4C0507",
"d+	c #570A16",
"e+	c #8F010B",
"f+	c #B1131F",
"g+	c #440105",
"h+	c #6F070C",
"i+	c #93010C",
"j+	c #D01828",
"k+	c #380104",
"l+	c #5F0408",
"m+	c #990109",
"n+	c #C40A13",
"o+	c #3C0206",
"p+	c #5B0405",
"q+	c #7A0006",
"r+	c #B57177",
"s+	c #A61122",
"t+	c #AE162A",
"u+	c #7B0813",
"v+	c #A31628",
"w+	c #980D1A",
"x+	c #B80D1F",
"y+	c #68020C",
"z+	c #991620",
"A+	c #BD0518",
"B+	c #CA0B15",
"C+	c #580109",
"D+	c #921019",
"E+	c #B00009",
"F+	c #C2010A",
"G+	c #6E030A",
"H+	c #A3131A",
"I+	c #A2000A",
"J+	c #BB0208",
"K+	c #600506",
"L+	c #A91517",
"M+	c #AC0002",
"N+	c #C20006",
"O+	c #510D10",
"P+	c #A4A5A4",
"Q+	c #AB6567",
"R+	c #944146",
"S+	c #554549",
"T+	c #7C757B",
"U+	c #AB444F",
"V+	c #8D303A",
"W+	c #574345",
"X+	c #887A78",
"Y+	c #A36368",
"Z+	c #884952",
"`+	c #64545A",
" @	c #7B7377",
".@	c #AB3C40",
"+@	c #842932",
"@@	c #4F4446",
"#@	c #767071",
"$@	c #A23C44",
"%@	c #7F2E38",
"&@	c #514E56",
"*@	c #737477",
"=@	c #964549",
"-@	c #72353B",
";@	c #575456",
">@	c #969A9C",
",@	c #83898D",
"'@	c #70777F",
")@	c #767A81",
"!@	c #7C7D83",
"~@	c #7D8384",
"{@	c #707479",
"]@	c #807A7E",
"^@	c #7F7679",
"/@	c #80787A",
"(@	c #716D75",
"_@	c #767678",
":@	c #6F6F74",
"<@	c #6B7077",
"[@	c #61656B",
"}@	c #6C6D71",
"|@	c #686A6E",
"1@	c #696E74",
"2@	c #64696E",
"3@	c #6A6B6D",
"4@	c #69696C",
"5@	c #565B61",
"6@	c #4F545C",
"7@	c #646466",
"8@	c #899193",
"9@	c #27323E",
"0@	c #11202C",
"a@	c #151A27",
"b@	c #6D6C77",
"c@	c #313B47",
"d@	c #192230",
"e@	c #161E27",
"f@	c #7A7980",
"g@	c #2E3741",
"h@	c #131D26",
"i@	c #262833",
"j@	c #71737B",
"k@	c #1E2B37",
"l@	c #14202F",
"m@	c #272A37",
"n@	c #74767C",
"o@	c #27333F",
"p@	c #171F2C",
"q@	c #41444A",
"r@	c #5B5D65",
"s@	c #121E2B",
"t@	c #0E1522",
"u@	c #404146",
"v@	c #353E46",
"w@	c #06080E",
"x@	c #080B12",
"y@	c #1D2830",
"z@	c #090C14",
"A@	c #030509",
"B@	c #080B0F",
"C@	c #1E2933",
"D@	c #0B0E12",
"E@	c #07090E",
"F@	c #25313D",
"G@	c #0B0F15",
"H@	c #02040A",
"I@	c #07080F",
"J@	c #353C49",
"K@	c #0F141C",
"L@	c #04050B",
"M@	c #0A0C11",
"N@	c #283643",
"O@	c #07090D",
"P@	c #040406",
"Q@	c #111011",
"R@	c #010206",
"S@	c #000207",
"T@	c #070A0E",
"U@	c #030508",
"V@	c #020307",
"W@	c #06070A",
"X@	c #010307",
"Y@	c #07080B",
"Z@	c #181A1E",
"`@	c #050507",
" #	c #020305",
".#	c #0F0F12",
"+#	c #2C2B30",
"@#	c #05060A",
"##	c #0B0A0B",
"$#	c #1A181E",
"%#	c #040609",
"&#	c #020306",
"*#	c #211A19",
"=#	c #4F5355",
"-#	c #4E575E",
";#	c #1C232D",
">#	c #2F333A",
",#	c #6B6D72",
"'#	c #45474E",
")#	c #1C1E24",
"!#	c #3B3842",
"~#	c #6F6F70",
"{#	c #3E4043",
"]#	c #1B2328",
"^#	c #4B4C53",
"/#	c #6E6F73",
"(#	c #303239",
"_#	c #1E2028",
":#	c #565359",
"<#	c #73716C",
"[#	c #28292F",
"}#	c #17171E",
"|#	c #524948",
"1#	c #625A56",
"2#	c #2E2D31",
"3#	c #2F2C2D",
"4#	c #59514C",
"5#	c #76777B",
"6#	c #808589",
"7#	c #5C5A5E",
"8#	c #86888D",
"9#	c #7B7D80",
"0#	c #7C7E86",
"a#	c #606061",
"b#	c #7E7F83",
"c#	c #7A7B7C",
"d#	c #7C7C7E",
"e#	c #504849",
"f#	c #808082",
"g#	c #79787B",
"h#	c #7D7C7E",
"i#	c #6C6767",
"j#	c #847F7D",
"k#	c #807978",
"l#	c #7B746F",
"m#	c #5D5553",
"n#	c #6E6765",
"o#	c #6A5F60",
"p#	c #5B4F4D",
"q#	c #675B57",
"r#	c #635C57",
"s#	c #7D8189",
"t#	c #7E7F87",
"u#	c #7E848A",
"v#	c #7D7F87",
"w#	c #7D7F85",
"x#	c #7A7D82",
"y#	c #7C7F85",
"z#	c #7B7C81",
"A#	c #7A7B7E",
"B#	c #7A7A7C",
"C#	c #7F8182",
"D#	c #7C7C7F",
"E#	c #7C797A",
"F#	c #7E7A7B",
"G#	c #837F7B",
"H#	c #837A78",
"I#	c #807673",
"J#	c #7A7069",
"K#	c #706D6A",
"L#	c #706863",
"M#	c #6C615D",
"N#	c #645F59",
"O#	c #625D58",
"P#	c #615956",
"Q#	c #727A80",
"R#	c #777F84",
"S#	c #75767B",
"T#	c #6E6F79",
"U#	c #76797D",
"V#	c #767C82",
"W#	c #756D72",
"X#	c #6C6F73",
"Y#	c #79797A",
"Z#	c #787A7A",
"`#	c #726B6F",
" $	c #6D6F71",
".$	c #787776",
"+$	c #817779",
"@$	c #735A5C",
"#$	c #6D6969",
"$$	c #796F6B",
"%$	c #786967",
"&$	c #665152",
"*$	c #655F5D",
"=$	c #685F59",
"-$	c #5C5854",
";$	c #534F50",
">$	c #5F5458",
",$	c #7B6F73",
"'$	c #C52E3D",
")$	c #C80713",
"!$	c #61050E",
"~$	c #5A3B47",
"{$	c #CD2436",
"]$	c #C9000B",
"^$	c #51080B",
"/$	c #66464E",
"($	c #CD1D29",
"_$	c #CA0007",
":$	c #490609",
"<$	c #75444B",
"[$	c #D50A16",
"}$	c #CC0008",
"|$	c #4B090E",
"1$	c #7F4E52",
"2$	c #CF0911",
"3$	c #B30003",
"4$	c #380E13",
"5$	c #854A4F",
"6$	c #C40F15",
"7$	c #820105",
"8$	c #331E25",
"9$	c #9D474F",
"0$	c #8B020B",
"a$	c #5A0309",
"b$	c #AB010B",
"c$	c #A50C17",
"d$	c #6D0207",
"e$	c #570406",
"f$	c #AD0506",
"g$	c #AD0C19",
"h$	c #730304",
"i$	c #5E0308",
"j$	c #950208",
"k$	c #A60A11",
"l$	c #580203",
"m$	c #7B0104",
"n$	c #8F0203",
"o$	c #C80C0F",
"p$	c #390003",
"q$	c #750105",
"r$	c #7E0108",
"s$	c #B80405",
"t$	c #5E0202",
"u$	c #B70004",
"v$	c #3A0407",
"w$	c #96494B",
"x$	c #A00205",
"y$	c #83040E",
"z$	c #AA000B",
"A$	c #96070E",
"B$	c #930105",
"C$	c #8A0309",
"D$	c #A10003",
"E$	c #AA080D",
"F$	c #960006",
"G$	c #8E0206",
"H$	c #870001",
"I$	c #9F0F11",
"J$	c #950103",
"K$	c #AD0205",
"L$	c #820709",
"M$	c #C20D11",
"N$	c #7F0104",
"O$	c #A50105",
"P$	c #700305",
"Q$	c #BD0203",
"R$	c #450403",
"S$	c #B30303",
"T$	c #410A0B",
"U$	c #746C6A",
"V$	c #B71925",
"W$	c #BD0D13",
"X$	c #652222",
"Y$	c #52454A",
"Z$	c #B6151A",
"`$	c #B40B0D",
" %	c #5D3234",
".%	c #654F51",
"+%	c #BC1317",
"@%	c #B30C10",
"#%	c #613A36",
"$%	c #75544F",
"%%	c #BA1318",
"&%	c #AF1412",
"*%	c #644743",
"=%	c #79544F",
"-%	c #BF0E13",
";%	c #9C1210",
">%	c #543C39",
",%	c #9F2422",
"'%	c #BE0201",
")%	c #A10708",
"!%	c #3E2624",
". + @ # $ % & * = - ; > , ' ) ! ~ { ] ^ / ( _ : ",
"< [ } | 1 2 3 4 5 6 7 8 9 0 a b c d e f g h i j ",
"k l m n o p q r s t u u v w x y z A B C D E F G ",
"H I J K L M N O P Q R S T U V W X Y Z `  ...+.@.",
"#.$.%.&.*.=.-.;.>.,.'.).!.~.{.].^./.(._.:.<.[.}.",
"|.1.2.3.4.5.6.7.8.9.0.a.b.c.d.e.f.g.h.i.j.k.l.m.",
"n.o.p.q.r.s.t.u.v.w.x.y.z.A.B.C.D.E.F.G.H.I.J.K.",
"L.M.N.O.P.Q.R.S.T.U.V.W.X.Y.Z.`. +.+++@+#+$+%+&+",
"*+=+-+;+>+,+'+)+!+~+{+]+^+/+(+_+:+<+[+}+|+1+2+3+",
"4+5+6+7+8+9+0+a+b+c+d+e+f+g+h+i+j+k+l+m+n+o+p+q+",
"r+s+t+u+v+w+x+y+z+A+B+C+D+E+F+G+H+I+J+K+L+M+N+O+",
"P+Q+R+S+T+U+V+W+X+Y+Z+`+ @.@+@@@#@$@%@&@*@=@-@;@",
">@,@'@)@!@~@{@]@^@/@(@_@:@<@[@}@|@1@2@3@4@5@6@7@",
"8@9@0@a@b@c@d@e@f@g@h@i@j@k@l@m@n@o@p@q@r@s@t@u@",
"v@w@E x@y@z@A@B@C@D@A@E@F@G@H@I@J@K@L@M@N@O@P@Q@",
"R@S@R@T@E U@V@O@W@U@X@Y@Z@`@ #.#+#@#R@##$#%#&#*#",
"=#-#;#>#,#'#)#!#~#{#]#^#/#(#_#:#<#[#}#|#1#2#3#4#",
"5#6#7#8#9#0#a#b#c#d#e#f#g#h#i#j#k#l#m#n#o#p#q#r#",
"s#t#u#v#w#x#y#z#A#B#C#D#E#F#G#H#I#J#K#L#M#N#O#P#",
"Q#R#S#T#U#V#W#X#Y#Z#`# $.$+$@$#$$$%$&$*$=$-$;$>$",
",$'$)$!$~${$]$^$/$($_$:$<$[$}$|$1$2$3$4$5$6$7$8$",
"9$0$a$b$c$d$e$f$g$h$i$j$k$l$m$n$o$p$q$r$s$t$u$v$",
"w$x$y$z$A$B$C$D$E$F$G$H$I$J$K$L$M$N$O$P$Q$R$S$T$",
"U$V$W$X$Y$Z$`$ %.%+%@%#%$%%%&%*%=%-%;%>%,%'%)%!%"};
