/* XPM */
static const char * panic_xpm[] = {
"16 16 85 1",
" 	c None",
".	c #000000",
"+	c #360E0E",
"@	c #130909",
"#	c #2E0606",
"$	c #AE1212",
"%	c #B80202",
"&	c #C80000",
"*	c #AE0000",
"=	c #980000",
"-	c #A00000",
";	c #AC0000",
">	c #1F0101",
",	c #210707",
"'	c #880C0C",
")	c #FF4141",
"!	c #FF2B2B",
"~	c #FF1717",
"{	c #FF0D0D",
"]	c #FF0909",
"^	c #D00000",
"/	c #580000",
"(	c #120000",
"_	c #830B0B",
":	c #FF2929",
"<	c #FF1D1D",
"[	c #FF0B0B",
"}	c #FFFFFF",
"|	c #FE0000",
"1	c #F80000",
"2	c #F40000",
"3	c #C60000",
"4	c #520000",
"5	c #6D0707",
"6	c #DE0000",
"7	c #FF1313",
"8	c #FF0505",
"9	c #FF0101",
"0	c #E4E4E4",
"a	c #E80000",
"b	c #E00000",
"c	c #E20000",
"d	c #DC0000",
"e	c #A60000",
"f	c #4E0000",
"g	c #A80000",
"h	c #FF0707",
"i	c #FA0000",
"j	c #F20000",
"k	c #EA0000",
"l	c #D80000",
"m	c #D20000",
"n	c #D40000",
"o	c #820000",
"p	c #F60000",
"q	c #D60000",
"r	c #CE0000",
"s	c #CC0000",
"t	c #DA0000",
"u	c #9A0000",
"v	c #940000",
"w	c #880000",
"x	c #920000",
"y	c #8C0000",
"z	c #860000",
"A	c #BE0000",
"B	c #6C0000",
"C	c #600000",
"D	c #CA0000",
"E	c #900000",
"F	c #3E0000",
"G	c #000202",
"H	c #B40000",
"I	c #A40000",
"J	c #420000",
"K	c #4A0000",
"L	c #9E0000",
"M	c #100000",
"N	c #540000",
"O	c #7A0000",
"P	c #7E0000",
"Q	c #7C0000",
"R	c #780000",
"S	c #480000",
"T	c #0E0000",
"    ..+@....    ",
"   #$%&*=-;*>   ",
"  ,')!~{]{~^/(  ",
" ._:<[]}}|1234. ",
".567{89}0abcdef.",
".g8hijk00lmmdno.",
".*|pa6q00rsstcu.",
".vbbq^s00ssslb=.",
".wrmrss00sssltx.",
".ymmsss00sssqnw.",
".z^qrssssss^qAB.",
".C*^^rs00srnDEF.",
" GfH^^m0}mm^IJ. ",
"  (K;mnnnn^LJM  ",
"   (NOPQQQRST   ",
"    ........    "};
