/* XPM */
static const char * perfedit_xpm[] = {
"23 14 11 1",
" 	c None",
".	c #000000",
"+	c #FF7795",
"@	c #FFFFFF",
"#	c #B2405C",
"$	c #AAAAAA",
"%	c #7C7C7C",
"&	c #FFDA6D",
"*	c #B58F2F",
"=	c #AA5C03",
"-	c #C6C6C6",
"                  ..   ",
"                 .++.  ",
"                .@+#.  ",
"               .@$%.   ",
"              .&&%.    ",
"             .&&*.     ",
"            .&&*.      ",
"           .&&*.       ",
"  ..........=*.....    ",
"  .--------.=.----.    ",
"  .--------..-----.    ",
"  .--------.------.    ",
"  .---------------.    ",
"  .................    "};
