/* XPM */
static const char * q_rec_xpm[] = {
"36 14 7 1",
" 	c None",
".	c #000000",
"+	c #FFFFFF",
"@	c #9E9E9E",
"#	c #FFBABA",
"$	c #FF5454",
"%	c #B51E1E",
"    ......                          ",
"  ...+..+...                        ",
" ..+++@@+++..       .        ....   ",
" .++++++++++.       ..      ..  ..  ",
"..++++++++++..      .#.    ..    .. ",
".++++++++++++. ......#$.   ..    .. ",
".+..++++++..+. .#####$$$.  ..    .. ",
".+@.++++++.@+. .$$$$$$$%.  ..    .. ",
".++++++++++++. ......$%.   ..    .. ",
"..+..++++..+..      .%.    ..  . .. ",
" .+@.+..+.@+.       ..      .. ...  ",
" ..+++..+++..       .        .....  ",
"  ...++++...                      . ",
"    ......                          "};
