/* XPM */
static const char * redo_xpm[] = {
"16 14 3 1",
" 	c None",
".	c #000000",
"+	c #65FF72",
"         .      ",
"         ..     ",
"         .+.    ",
"  ........++.   ",
"  .++++++++++.  ",
"  .+......++.   ",
"  .+.    .+.    ",
"  .+.    ..     ",
"  .+.    .      ",
"  .+.           ",
"  .+.           ",
"  .+........    ",
"  .++++++++.    ",
"  ..........    "};
