/* XPM */
static const char * scale_xpm[] = {
"30 14 3 1",
" 	c None",
".	c #000000",
"+	c #FFFFFF",
"                              ",
"                       ....   ",
"                       .+++   ",
"                   .....      ",
"                   .+++       ",
"               .....          ",
"               .+++           ",
"           .....              ",
"           .+++               ",
"       .....                  ",
"       .+++                   ",
"   .....                      ",
"   ++++                       ",
"                              "};
