/* XPM */
static const char * scale_xpm[] = {
"30 14 2 1",
" 	c None",
".	c #000000",
"                              ",
"                       ....   ",
"                       .      ",
"                   .....      ",
"                   .          ",
"               .....          ",
"               .              ",
"           .....              ",
"           .                  ",
"       .....                  ",
"       .                      ",
"   .....                      ",
"                              ",
"                              "};
