/* XPM */
static const char * seq_editor_xpm[] = {
"32 32 9 1",
" 	c None",
".	c #CBDAE7",
"+	c #B2C0CD",
"@	c #566F84",
"#	c #DB701A",
"$	c #415A6F",
"%	c #264157",
"&	c #FFFFFF",
"*	c #5986AC",
"                                ",
"                            .   ",
"                           .+@  ",
"          ###             .+@$% ",
"          ###            .+@$%  ",
"     #    #             .+@$%   ",
"     ##   #            .+@$%    ",
"     #    #           .+@$%     ",
"     #    #          .+@$%      ",
"     #  ###         .+@$%       ",
"     #  ###        .+@$%        ",
"   ###   #        .+@$%         ",
"   ###           .+@$%          ",
"   ###          .+@$%           ",
"               .+@$%            ",
"               +@$%             ",
"              +@$               ",
"              @                 ",
"&&&&&&&&&&&&&&&&&&&&&&&&&&&&&&&&",
"&&&&&&&&&&&&&&&&&&&&&&&&&&&&&&&&",
"&&&&&&&&&&&&&&&&&&&&****&&&&&&&&",
"&&&&&&&&&&&&&&&&&&&&****&&&&&&&&",
"&&&&&&&&****&&&&&&&&&&&&&&&&&&&&",
"&&&&&&&&****&&&&&&&&&&&&&&&&&&&&",
"&&&&&&&&&&&&&&&&****&&&&&&&&&&&&",
"&&&&&&&&&&&&&&&&****&&&&&&&&&&&&",
"&&&&****&&&&****&&&&&&&&****&&&&",
"&&&&****&&&&****&&&&&&&&****&&&&",
"****&&&&&&&&&&&&&&&&&&&&&&&&****",
"****&&&&&&&&&&&&&&&&&&&&&&&&****",
"&&&&&&&&&&&&&&&&&&&&&&&&&&&&&&&&",
"&&&&&&&&&&&&&&&&&&&&&&&&&&&&&&&&"};
