/* XPM */
static const char * seq64_xpm[] = {
"32 32 6 1",
" 	c #BABABA",
".	c #8B8B8B",
"+	c #5C5C5C",
"@	c #2D2D2D",
"#	c #000000",
"$	c #3E3E3E",
"                                ",
"                                ",
" .+@###@+.                      ",
".+@#####@+.                     ",
"+@@+.  .+++.                    ",
"+++.    .....+@#@+.  .+@####@$+ ",
".+++.      .+@###@+..+@#####@$+ ",
" .+@#@+.  .+@@+..++@@@@+..+@@$+ ",
"  .+@###@+++++. .++@@++. .+@@$+ ",
"     .+@#@@@@#####@@@++. .+@@$+ ",
"       .++@@@#####@@@++. .+@@$+ ",
"+++.   .++@@++.    .+++. .+@@$+ ",
"+@@+. .+@@@@@@+++@@+++++..+@@$+ ",
".+@#####@+..+@####@+..+@####@$+ ",
" .+@###@+.  .+@#@+.   .+@###@$+ ",
"                         .+@@$+ ",
"                         .+@@$+ ",
"                         .+@@$+ ",
"     .+@#@+.     .+++.   .+@@$+ ",
"    .+@###@+.   .+@@+.          ",
"   .+@@+..+++. .+@#@+.          ",
"   .+++.  .....+@##@+.          ",
"   .+@###@+.  .++@@++.          ",
"   .+@####@+..+@@@@++.          ",
"   .+@@+++@@@@@@+++++.          ",
"   .+++. .++@@++..+++.          ",
"   .+++. .++@@@#####@+.         ",
"   .+++. .++@@@#####@+.         ",
"    .+++++@@+.   .+++.          ",
"     .+@##@+.    .+++.          ",
"      .+@@+.     .+++.          ",
"                                "};
