/* XPM */
static const char * seq64_logo_xpm[] = {
"123 32 2 1",
" 	c None",
".	c #000000",
"                                                                                                                           ",
"                                                                                                                           ",
"                                                                                                                           ",
"                                                                                                                           ",
"  ....................    ....................    ....................     ....................    ....            ....    ",
"  ....................    ....................    ....................     ....................    ....            ....    ",
"  ....................    ....................    ....................     ....................    ....            ....    ",
"  ....................    ....................    ....................     ....................    ....            ....    ",
"  ....                    ....                    ....            ....     ....                    ....            ....    ",
"  ....                    ....                    ....            ....     ....                    ....            ....    ",
"  ....                    ....                    ....            ....     ....                    ....            ....    ",
"  ....                    ....                    ....            ....     ....                    ....            ....    ",
"  ....................    ....................    ....            ....     ....................    ....................    ",
"  ....................    ....................    ....            ....     ....................    ....................    ",
"  ....................    ....................    ....            ....     ....................    ....................    ",
"  ....................    ....................    ....            ....     ....................    ....................    ",
"                  ....    ....                    ....    ....    ....     ....            ....                    ....    ",
"                  ....    ....                    ....    ....    ....     ....            ....                    ....    ",
"                  ....    ....                    ....    ....    ....     ....            ....                    ....    ",
"                  ....    ....                    ....    ....    ....     ....            ....                    ....    ",
"  ....................    ....................    ....................     ....................                    ....    ",
"  ....................    ....................    ....................     ....................                    ....    ",
"  ....................    ....................    ....................     ....................                    ....    ",
"  ....................    ....................    ....................     ....................                    ....    ",
"                                                          ....                                                             ",
"                                                          ....                                                             ",
"                                                          ....                                                             ",
"                                                          ....                                                             ",
"                                                                                                                           ",
"                                                                                                                           ",
"                                                                                                                           ",
"                                                                                                                           "};
