/* XPM */
static char * SEQ64_24x24_xpm[] = {
"24 24 542 2",
"  	c None",
". 	c #B2B7B5",
"+ 	c #AFB2B1",
"@ 	c #969AA3",
"# 	c #8D92A0",
"$ 	c #8D92A5",
"% 	c #8F93A6",
"& 	c #9D9FAB",
"* 	c #B1B2B7",
"= 	c #ADAEB2",
"- 	c #9B9DA7",
"; 	c #9D9FAC",
"> 	c #9FA1AD",
", 	c #9DA1AA",
"' 	c #ABADB5",
") 	c #B2B6B4",
"! 	c #A6AAAE",
"~ 	c #9DA1AD",
"{ 	c #9FA1AB",
"] 	c #9EA3AB",
"^ 	c #A3A6B0",
"/ 	c #B3B5B7",
"( 	c #B3B4B3",
"_ 	c #B4B8B8",
": 	c #B7BBBE",
"< 	c #3C4565",
"[ 	c #0B1663",
"} 	c #1D2A6A",
"| 	c #1D2969",
"1 	c #1A266B",
"2 	c #08115C",
"3 	c #6D7296",
"4 	c #8B959E",
"5 	c #040C54",
"6 	c #142268",
"7 	c #19226B",
"8 	c #182166",
"9 	c #152066",
"0 	c #8184A0",
"a 	c #717B89",
"b 	c #081559",
"c 	c #0F1A67",
"d 	c #162067",
"e 	c #0E1C65",
"f 	c #0A1268",
"g 	c #1F2668",
"h 	c #AEB3C2",
"i 	c #B8BABC",
"j 	c #B3BCBB",
"k 	c #232F56",
"l 	c #16236D",
"m 	c #636E97",
"n 	c #707692",
"o 	c #757C93",
"p 	c #747DA0",
"q 	c #9DA6B3",
"r 	c #869496",
"s 	c #020E56",
"t 	c #717BA8",
"u 	c #8E97A9",
"v 	c #9099AA",
"w 	c #9297AA",
"x 	c #AEB8BA",
"y 	c #252E5E",
"z 	c #141F69",
"A 	c #B2BBC4",
"B 	c #B1B7B1",
"C 	c #A1ABB0",
"D 	c #767C94",
"E 	c #070F5C",
"F 	c #858AA9",
"G 	c #B4B9BB",
"H 	c #B4B8BB",
"I 	c #99A1AB",
"J 	c #5F6A8A",
"K 	c #464E77",
"L 	c #414E7A",
"M 	c #37436C",
"N 	c #0B1961",
"O 	c #444C84",
"P 	c #858C98",
"Q 	c #040F58",
"R 	c #3C497D",
"S 	c #47527A",
"T 	c #445179",
"U 	c #464D78",
"V 	c #A9AAB5",
"W 	c #232D54",
"X 	c #222B74",
"Y 	c #B4BAC0",
"Z 	c #878B93",
"` 	c #0B1652",
" .	c #222C73",
"..	c #071263",
"+.	c #8387AC",
"@.	c #B6B8BC",
"#.	c #B2BABB",
"$.	c #222952",
"%.	c #151E6A",
"&.	c #424B7C",
"*.	c #424C7A",
"=.	c #3F4B78",
"-.	c #0D1B62",
";.	c #3C4980",
">.	c #7F8B98",
",.	c #02105B",
"'.	c #313D7C",
").	c #38427B",
"!.	c #3B457C",
"~.	c #3D4477",
"{.	c #84899D",
"].	c #3C4362",
"^.	c #081466",
"/.	c #383F7B",
"(.	c #3F447C",
"_.	c #2A396F",
":.	c #0A1A62",
"<.	c #071567",
"[.	c #464B7D",
"}.	c #B3B7BB",
"|.	c #A2ABAD",
"1.	c #72798C",
"2.	c #6B7390",
"3.	c #656D8E",
"4.	c #646D8B",
"5.	c #727994",
"6.	c #A4AAB0",
"7.	c #A0A8A9",
"8.	c #676E89",
"9.	c #6B728F",
"0.	c #6B708D",
"a.	c #6A7089",
"b.	c #69708D",
"c.	c #959BA9",
"d.	c #A9B1AF",
"e.	c #6A7586",
"f.	c #5E6887",
"g.	c #5D6687",
"h.	c #5D6383",
"i.	c #616786",
"j.	c #767D92",
"k.	c #8B909A",
"l.	c #B3B8B9",
"m.	c #B4B7B7",
"n.	c #525479",
"o.	c #686B99",
"p.	c #B1B7BB",
"q.	c #B0B2B3",
"r.	c #AEB3B3",
"s.	c #5A637E",
"t.	c #6C7195",
"u.	c #ADB3BD",
"v.	c #505580",
"w.	c #55578A",
"x.	c #575B8B",
"y.	c #565A8B",
"z.	c #585C8D",
"A.	c #8D8FA6",
"B.	c #8B8D9D",
"C.	c #585F8C",
"D.	c #626890",
"E.	c #A9AAB8",
"F.	c #B5B7B7",
"G.	c #B8B9BB",
"H.	c #646C8C",
"I.	c #8088A0",
"J.	c #B5BBBC",
"K.	c #B7BCBF",
"L.	c #1C2154",
"M.	c #394384",
"N.	c #AEB3B8",
"O.	c #B2B4B5",
"P.	c #B0B1B5",
"Q.	c #212D62",
"R.	c #3F4781",
"S.	c #A0A9B4",
"T.	c #041056",
"U.	c #475887",
"V.	c #6C7294",
"W.	c #697091",
"X.	c #697192",
"Y.	c #9296A6",
"Z.	c #676C89",
"`.	c #0B1969",
" +	c #132270",
".+	c #1B246B",
"++	c #B5B7C5",
"@+	c #BCBEC0",
"#+	c #192463",
"$+	c #4B5584",
"%+	c #BBBDBF",
"&+	c #B1B9BA",
"*+	c #192354",
"=+	c #3C4683",
"-+	c #ACB3B6",
";+	c #A9AEAE",
">+	c #A4A9AB",
",+	c #212C68",
"'+	c #3C4483",
")+	c #A1A6B2",
"!+	c #071352",
"~+	c #141D66",
"{+	c #191F63",
"]+	c #1C2267",
"^+	c #1B1E65",
"/+	c #9495AB",
"(+	c #63687E",
"_+	c #030E54",
":+	c #9AA6B9",
"<+	c #172062",
"[+	c #343C7B",
"}+	c #B7BEC1",
"|+	c #151E5E",
"1+	c #4C5386",
"2+	c #B7BABD",
"3+	c #B4B8B7",
"4+	c #162150",
"5+	c #223075",
"6+	c #949CAF",
"7+	c #9AA1B0",
"8+	c #8B91A5",
"9+	c #182364",
"0+	c #3A457F",
"a+	c #9DA6AC",
"b+	c #040D56",
"c+	c #6C759B",
"d+	c #959DAD",
"e+	c #979FAD",
"f+	c #94A0AF",
"g+	c #AEB5BA",
"h+	c #5B6380",
"i+	c #03105F",
"j+	c #B1BCC6",
"k+	c #889299",
"l+	c #071357",
"m+	c #404789",
"n+	c #152168",
"o+	c #4C5785",
"p+	c #B6BBBE",
"q+	c #B3B7B7",
"r+	c #758088",
"s+	c #1E296A",
"t+	c #0C195B",
"u+	c #0A1755",
"v+	c #0B1759",
"w+	c #1F2E6C",
"x+	c #848FA3",
"y+	c #99A1A9",
"z+	c #0C1858",
"A+	c #0C1A60",
"B+	c #0D1656",
"C+	c #0B1858",
"D+	c #07145B",
"E+	c #5C648A",
"F+	c #5A607A",
"G+	c #061053",
"H+	c #B1B6C4",
"I+	c #B0B5B2",
"J+	c #757D95",
"K+	c #0C155C",
"L+	c #07145D",
"M+	c #4F5685",
"N+	c #B5BABB",
"O+	c #B4B6B3",
"P+	c #B2B8BB",
"Q+	c #9FA6A9",
"R+	c #9DA3AE",
"S+	c #9B9FB1",
"T+	c #9EA2AF",
"U+	c #A6A8B2",
"V+	c #B0B5B4",
"W+	c #A1A7B1",
"X+	c #A5ACB8",
"Y+	c #A1ABB2",
"Z+	c #A3ABB5",
"`+	c #A4A9B3",
" @	c #AAAEB4",
".@	c #B0B6B8",
"+@	c #A3AAB8",
"@@	c #A0A2AB",
"#@	c #A1A5AB",
"$@	c #A2A5AE",
"%@	c #A9AAB7",
"&@	c #B6BBC1",
"*@	c #B4B8BA",
"=@	c #B3B8BA",
"-@	c #B9BCBF",
";@	c #3D4466",
">@	c #0A1666",
",@	c #18236D",
"'@	c #1A2570",
")@	c #14246D",
"!@	c #0E196A",
"~@	c #474D7B",
"{@	c #B9C1C6",
"]@	c #070F54",
"^@	c #0F1E6A",
"/@	c #1A2469",
"(@	c #15236A",
"_@	c #18236F",
":@	c #5F658D",
"<@	c #8E8E9F",
"[@	c #071463",
"}@	c #111C6B",
"|@	c #121D6A",
"1@	c #131E6C",
"2@	c #0F1C67",
"3@	c #333B75",
"4@	c #BCBFC4",
"5@	c #B5B9BA",
"6@	c #ADB2B5",
"7@	c #1D2362",
"8@	c #394185",
"9@	c #AFB7BF",
"0@	c #B2B5B6",
"a@	c #AFB3B0",
"b@	c #6E738A",
"c@	c #737A97",
"d@	c #B7B7C0",
"e@	c #051457",
"f@	c #535A8C",
"g@	c #9898B0",
"h@	c #8E95B0",
"i@	c #929AAE",
"j@	c #ADB0BB",
"k@	c #888E9D",
"l@	c #030D5A",
"m@	c #959EB2",
"n@	c #B3B5B9",
"o@	c #B5BAB9",
"p@	c #555B7F",
"q@	c #131A65",
"r@	c #BFC1CA",
"s@	c #B6B8BA",
"t@	c #ABAFB2",
"u@	c #1F235D",
"v@	c #3F4A84",
"w@	c #B0BABB",
"x@	c #B2B6B3",
"y@	c #B6B9B8",
"z@	c #8E93A2",
"A@	c #8F93A7",
"B@	c #B6BBC5",
"C@	c #081158",
"D@	c #324176",
"E@	c #505C81",
"F@	c #4E5A81",
"G@	c #4C557D",
"H@	c #9296A2",
"I@	c #848997",
"J@	c #071760",
"K@	c #1C2773",
"L@	c #20296E",
"M@	c #1E2873",
"N@	c #14226B",
"O@	c #596494",
"P@	c #B3B6B9",
"Q@	c #B3B6BA",
"R@	c #B2B8B8",
"S@	c #242A54",
"T@	c #0F1C69",
"U@	c #3A417E",
"V@	c #3C4278",
"W@	c #393F7D",
"X@	c #0D1966",
"Y@	c #2A3475",
"Z@	c #AEB4BD",
"`@	c #020D59",
" #	c #293379",
".#	c #444C7E",
"+#	c #454B82",
"@#	c #454A84",
"##	c #737396",
"$#	c #8789A1",
"%#	c #040C59",
"&#	c #747FA1",
"*#	c #858FA2",
"=#	c #8791A2",
"-#	c #2A3266",
";#	c #1F2670",
">#	c #BBBCC5",
",#	c #B4B8B9",
"'#	c #A7B1AE",
")#	c #687585",
"!#	c #5E6A8A",
"~#	c #5B6885",
"{#	c #5B658A",
"]#	c #626888",
"^#	c #A0A2AE",
"/#	c #B2B4B7",
"(#	c #686A81",
"_#	c #6B718D",
":#	c #636887",
"<#	c #616B88",
"[#	c #626889",
"}#	c #80849C",
"|#	c #9CA5A5",
"1#	c #585F7E",
"2#	c #A7ABB6",
"3#	c #B1B2AF",
"4#	c #B6B7B5",
"5#	c #797B8A",
"6#	c #616A86",
"7#	c #B5BABE",
"8#	c #B3B9BA",
"9#	c #B5B7B9",
"0#	c #AFAFB1",
"a#	c #B1B1B0",
"b#	c #AFB0B1",
"c#	c #B1B2B0",
"d#	c #AFB1B3",
"e#	c #B0B0B4",
"f#	c #949AA9",
"g#	c #4B5283",
"h#	c #323A78",
"i#	c #ACB3B4",
"j#	c #ADB2B2",
"k#	c #ACAFAE",
"l#	c #B3B4B5",
"m#	c #555C8A",
"n#	c #4D547F",
"o#	c #BAB9BA",
"p#	c #B2B3B5",
"q#	c #B2B3AE",
"r#	c #B4B5B8",
"s#	c #B7B9BB",
"t#	c #B6B9BC",
"u#	c #B7BABE",
"v#	c #BABBBC",
"w#	c #B8BAB9",
"x#	c #B6B8B9",
"y#	c #B9BBB7",
"z#	c #777D9B",
"A#	c #121B68",
"B#	c #40477B",
"C#	c #8B8FA4",
"D#	c #BEBFBB",
"E#	c #BABBBD",
"F#	c #BBBCBA",
"G#	c #6D7496",
"H#	c #131B61",
"I#	c #C0C1BF",
"J#	c #B6B9BD",
"K#	c #BBBCBD",
"L#	c #B8BABA",
"M#	c #B5BABD",
"N#	c #B0B7B4",
"O#	c #AFB4B6",
"P#	c #B0B9BA",
"Q#	c #B5B9BB",
"R#	c #B7B8B8",
"S#	c #B5B6B5",
"T#	c #BBC0BC",
"U#	c #0C1668",
"V#	c #373E76",
"W#	c #343B7A",
"X#	c #3D447A",
"Y#	c #B4B5B4",
"Z#	c #B8BCB7",
"`#	c #A3A9B0",
" $	c #111A66",
".$	c #2D3576",
"+$	c #121A60",
"@$	c #BABEBD",
"#$	c #B6B7B7",
"$$	c #B5B7B5",
"%$	c #B4B9B8",
"&$	c #B5B8B7",
"*$	c #B4B8B6",
"=$	c #B4BAB7",
"-$	c #B3B6B3",
";$	c #B3BBB6",
">$	c #B6B9B9",
",$	c #99A0AA",
"'$	c #081163",
")$	c #2B3371",
"!$	c #6D7297",
"~$	c #0B1565",
"{$	c #3F4577",
"]$	c #202971",
"^$	c #6B708E",
"/$	c #363E78",
"($	c #11195F",
"_$	c #C4C9C0",
":$	c #B2B7B3",
"<$	c #B4B6B7",
"[$	c #B1B6B4",
"}$	c #B5BAB7",
"|$	c #B6B8BB",
"1$	c #B5B8B9",
"2$	c #B3B6B8",
"3$	c #B7BABA",
"4$	c #A0A4B0",
"5$	c #030D61",
"6$	c #74778E",
"7$	c #CCCEC5",
"8$	c #293375",
"9$	c #181F63",
"0$	c #7B82A1",
"a$	c #333B77",
"b$	c #19236C",
"c$	c #121A67",
"d$	c #4A5280",
"e$	c #B5B7B8",
"f$	c #B9BCBB",
"g$	c #B8BAB8",
"h$	c #B2B9BA",
"i$	c #AFB6B7",
"j$	c #B4B8BC",
"k$	c #B6B7B8",
"l$	c #BDBFB7",
"m$	c #20286B",
"n$	c #777C9D",
"o$	c #0A1465",
"p$	c #4D527C",
"q$	c #A1A6AF",
"r$	c #757A97",
"s$	c #7B7F9C",
"t$	c #272F73",
"u$	c #121A63",
"v$	c #868A9F",
"w$	c #B8B8B7",
"x$	c #B7B9BA",
"y$	c #B8BABB",
"z$	c #B7B7BA",
"A$	c #B6BABC",
"B$	c #B0B8B3",
"C$	c #B7BDB9",
"D$	c #B5B5B6",
"E$	c #B1B7B6",
"F$	c #ADADB6",
"G$	c #434B84",
"H$	c #1C256D",
"I$	c #575C87",
"J$	c #B5B6B7",
"K$	c #3C447C",
"L$	c #1C2365",
"M$	c #BCC2BD",
"N$	c #B4B7B8",
"O$	c #B6B5BB",
"P$	c #B8B8B9",
"Q$	c #B7B8BA",
". + @ # $ % & * = - ; > , > ' ) ! ~ { ] ^ / ( _ ",
": < [ } | 1 2 3 4 5 6 7 8 9 0 a b c d e f g h i ",
"j k l m n o p q r s t u v w x y z A B C D E F G ",
"H I J K L M N O P Q R S T U V W X Y Z `  ...+.@.",
"#.$.%.&.*.=.-.;.>.,.'.).!.~.{.].^./.(._.:.<.[.}.",
". |.1.2.3.4.5.6.7.8.9.0.a.b.c.d.e.f.g.h.i.j.k.l.",
"m.n.o.p.q.r.s.t.u.v.w.x.y.z.A.B.C.D.E.F.G.H.I.J.",
"K.L.M.N.O.P.Q.R.S.T.U.V.W.X.Y.Z.`. +.+++@+#+$+%+",
"&+*+=+-+;+>+,+'+)+!+~+{+]+^+/+(+_+:+<+[+}+|+1+2+",
"3+4+5+6+7+8+9+0+a+b+c+d+e+f+g+h+i+j+k+l+m+n+o+p+",
"q+r+s+t+u+v+w+x+y+z+A+B+C+D+E+F+G+H+I+J+K+L+M+N+",
"O+P+Q+R+S+T+U+V+. W+X+Y+Z+`+ @.@+@@@#@$@%@&@*@=@",
"-@;@>@,@'@)@!@~@{@]@^@/@(@_@:@<@[@}@|@1@2@3@4@5@",
"6@7@8@9@0@a@b@c@d@e@f@g@h@i@j@k@l@m@n@o@p@q@r@s@",
"t@u@v@w@x@y@z@A@B@C@D@E@F@G@H@I@J@K@L@M@N@O@P@Q@",
"R@S@T@U@V@W@X@Y@Z@`@ #.#+#@###$#%#&#*#=#-#;#>#5@",
",#'#)#!#~#{#]#^#/#(#_#:#<#[#}#|#1#2#3#4#5#6#7#8#",
"9#0#a#b#b#c#d#e#f#g#h#i#j#k#l#m#n#o#e#d#p#q#r#s#",
"t#s@u#v#w#x#y#z#A#B#C#D#E#F#G#A#H#I#J#K#w#L#3+M#",
"N#O#P#Q#R#S#T#U#V#W#X#Y#Z#`# $.$+$@$P#Q##$$$%$&$",
"*$=$-$;$>$) ,$'$)$!$~${$u#]$^$/$($_$:$;$<$[$}$|$",
"P#2+1$&$2$3$4$5$6$7$8$9$0$~$a$b$c$d$y#e$3+f$g$h$",
"s#i$j$x#k$$$l$X m$n$o$p$q$r$s$t$u$v$w$x$y$z$4#i ",
"A$1$B$C$D$E$>$F$G$H$I$J$H 1$T#K$L$M$N$O$P$Q$i j$"};
