/* XPM */
static const char * seq64_32_xpm[] = {
"32 32 2 1",
" 	c #A5A5A5",
".	c #000000",
"                                ",
"                                ",
" .........  ......... ......... ",
" .........  ......... ......... ",
" .........  ......... ......... ",
" ...        ...       ...   ... ",
" ...        ...       ...   ... ",
" ...        ...       ...   ... ",
" .........  ......    ...   ... ",
" .........  ......    ...   ... ",
" .........  ......    ...   ... ",
"       ...  ...       ...   ... ",
"       ...  ...       ...   ... ",
"       ...  ...       ...   ... ",
" .........  ......... ......... ",
" .........  ......... ......... ",
" .........  ......... ......... ",
"                           ...  ",
"   ............  ....  .......  ",
"   ............  ....  ....     ",
"   ............  ....  ....     ",
"   .....         ....  ....     ",
"   .....         ....  ....     ",
"   ............  ..........     ",
"   ............  ..........     ",
"   ............  ..........     ",
"   .....   ....        ....     ",
"   .....   ....        ....     ",
"   ............        ....     ",
"   ............        ....     ",
"   ............        ....     ",
"                                "};
