/* XPM */
static const char * seq64_logo_legacy_xpm[] = {
"123 32 3 1",
" 	c None",
".	c #000000",
"+	c #0000AA",
"                                                                                                                           ",
"                                                                                                                           ",
"                                                                                                                           ",
"                                                                                                                           ",
"  ....................    ....................    ....................     ....................    ....            ....    ",
"  ....................    ....................    ....................     ....................    ....            ....    ",
"  ....................    ....................    ....................     ....................    ....            ....    ",
"  ....................    ....................    ....................     ....................    ....            ....    ",
"  ....                    ....                    ....            ....     ....                    ....            ....    ",
"  ....                    ....                    ....            ....     ....                    ....            ....    ",
"  ....                    ....                    ....            ....     ....                    ....            ....    ",
"  ....                    ....                    ....            ....     ....                    ....            ....    ",
"  ....................    ....................    ....            ....     ....................    ....................    ",
"  ....................    ....................    ....            ....     ....................    ....................    ",
"  ....................    ....................    ....            ....     ....................    ....................    ",
"  ....................    ....................    ....            ....     ....................    ....................    ",
"                  ....    ....                    ....    ....    ....     ....            ....                    ....    ",
"                  ....    ....                    ....    ....    ....     ....            ....                    ....    ",
"                  ....    ....                    ....    ....    ....     ....            ....                    ....    ",
"                  ....    ....                    ....    ....    ....     ....            ....                    ....    ",
"  ....................    ....................    ....................     ....................                    ....    ",
"  ....................    ....................    ....................     ....................                    ....    ",
"  ....................    ....................    ....................     ....................                    ....    ",
"  ....................    ....................    ....................     ....................                    ....    ",
"                                                          ....                                                             ",
"                                                          ....                                                             ",
"      ++   +++ +++ +++ +++ + +  ++++++ +++ ++  +++        ....                                                             ",
"      ++   +   +   + + +   + +  ++ + + + + + + +          ....                                                             ",
"      ++   ++  + + +++ +   +++  ++ + + + + + + ++                                                                          ",
"      ++   +   + + + + +    +   ++ + + + + + + +                                                                           ",
"      ++++ +++ +++ + + +++  +   ++   + +++ ++  +++                                                                         ",
"                                                                                                                           "};
