/* XPM */
static char * SEQUENCER_64_24x24_xpm[] = {
"24 24 124 2",
"  	c None",
". 	c #D0D0D0",
"+ 	c #646464",
"@ 	c #5E5E5E",
"# 	c #666666",
"$ 	c #CDCDCD",
"% 	c #E2E2E2",
"& 	c #F7F7F7",
"* 	c #E7E7E7",
"= 	c #606060",
"- 	c #FFFFFF",
"; 	c #FAFAFA",
"> 	c #5F5F5F",
", 	c #C8C8C8",
"' 	c #F0F0F0",
") 	c #DADADA",
"! 	c #ECECEC",
"~ 	c #CBCBCB",
"{ 	c #F2F2F2",
"] 	c #F5F5F5",
"^ 	c #D3D3D3",
"/ 	c #D7D7D7",
"( 	c #E5E5E5",
"_ 	c #F1F1F1",
": 	c #C9C9C9",
"< 	c #CFCFCF",
"[ 	c #D9D9D9",
"} 	c #D8D8D8",
"| 	c #FBFBFB",
"1 	c #4E4E4E",
"2 	c #AEAEAE",
"3 	c #454545",
"4 	c #A2A2A2",
"5 	c #737373",
"6 	c #ACACAC",
"7 	c #6B6B6B",
"8 	c #7F7F7F",
"9 	c #9A9A9A",
"0 	c #848484",
"a 	c #838383",
"b 	c #B3B3B3",
"c 	c #BEBEBE",
"d 	c #E6E6E6",
"e 	c #DCDCDC",
"f 	c #8C8C8C",
"g 	c #767676",
"h 	c #C1C1C1",
"i 	c #757575",
"j 	c #7B7B7B",
"k 	c #777777",
"l 	c #949494",
"m 	c #BCBCBC",
"n 	c #8A8A8A",
"o 	c #5D5D5D",
"p 	c #919191",
"q 	c #969696",
"r 	c #727272",
"s 	c #D4D4D4",
"t 	c #E4E4E4",
"u 	c #E9E9E9",
"v 	c #FDFDFD",
"w 	c #F8F8F8",
"x 	c #FEFEFE",
"y 	c #FCFCFC",
"z 	c #A0A0A0",
"A 	c #C6C6C6",
"B 	c #313131",
"C 	c #8F8F8F",
"D 	c #000000",
"E 	c #444444",
"F 	c #E8E8E8",
"G 	c #1C1C1C",
"H 	c #010101",
"I 	c #747474",
"J 	c #080808",
"K 	c #3F3F3F",
"L 	c #4C4C4C",
"M 	c #181818",
"N 	c #0A0A0A",
"O 	c #595959",
"P 	c #090909",
"Q 	c #DFDFDF",
"R 	c #898989",
"S 	c #060606",
"T 	c #BFBFBF",
"U 	c #0E0E0E",
"V 	c #EEEEEE",
"W 	c #050505",
"X 	c #0D0D0D",
"Y 	c #252525",
"Z 	c #343434",
"` 	c #8B8B8B",
" .	c #0C0C0C",
"..	c #B4B4B4",
"+.	c #505050",
"@.	c #3D3D3D",
"#.	c #676767",
"$.	c #1A1A1A",
"%.	c #4A4A4A",
"&.	c #F4F4F4",
"*.	c #959595",
"=.	c #696969",
"-.	c #030303",
";.	c #EFEFEF",
">.	c #111111",
",.	c #0B0B0B",
"'.	c #909090",
").	c #A3A3A3",
"!.	c #BABABA",
"~.	c #F9F9F9",
"{.	c #040404",
"].	c #EBEBEB",
"^.	c #929292",
"/.	c #8E8E8E",
"(.	c #070707",
"_.	c #434343",
":.	c #1B1B1B",
"<.	c #0F0F0F",
"[.	c #656565",
"}.	c #515151",
"|.	c #020202",
"1.	c #363636",
"2.	c #EDEDED",
"3.	c #636363",
". + @ @ @ @ @ @ @ @ @ @ @ @ @ @ @ @ @ @ @ @ # $ ",
"+ % & & & & & & & & & & & & & & & & & & & & * = ",
"@ & - - - - - - - - - - - - - - - - - - - - ; > ",
"@ & - - - - - - - - - - - - - - - - - - - - ; > ",
"@ & , ' . ) ! ~ { ] * ^ / ( _ ] : { < ) [ } | > ",
"@ ) 1 2 3 4 5 6 7 , 8 1 9 @ 0 a b c 3 4 + = d = ",
"@ e f g > h i j k l a + m n o p q 6 > h 5 r ' = ",
"@ & [ ] % d ] s e / & t t { ] | u v % d { w _ > ",
"@ & - - - - - - - - - - - - - - - - - - - - ; > ",
"@ & - - - - - x v - - - - - - - x y x - - - ; > ",
"@ & - - - - v z k - - - - - - x A B C - - - ; > ",
"@ & - - - x 4 D E - - - - - - F G H I - - - ; > ",
"@ & - - - ) J K ; - - - - - ; L M N I - - - ; > ",
"@ & - - x O P Q y v - - - y R S T U I - - - ; > ",
"@ & - - V W X Y Z f ; - x h W ` v  .I - - - ; > ",
"@ & - - ..D N +.@.D #.- d $.%.v &. .r - - - ; > ",
"@ & - - *.D b - - =.-.;.@ H U >.>.H ,.'.- - ; > ",
"@ & - - ).H !.y ~.r {.].2 p ^.^./.(._.$ - - ; > ",
"@ & - - ' :.<.[.}.|.}.- - - - - y X g - - - ; > ",
"@ & - - - / 3 (.>.=.] - - - - - ; 1.f - - - ; > ",
"@ & - - - - - - - - - - - - - - - - - - - - ; > ",
"@ & - - - - - - - - - - - - - - - - - - - - ; > ",
"# * ; ; ; ; ; ; ; ; ; ; ; ; ; ; ; ; ; ; ; ; 2.3.",
"$ = @ @ @ @ @ @ @ @ @ @ @ @ @ @ @ @ @ @ @ @ 3.: "};
