/* XPM */
static const char * sequencer64_legacy_xpm[] = {
"260 32 3 1",
" 	c None",
".	c #000000",
"+	c #0000AA",
"                                                                                                                                                                                                                                                                    ",
"                                                                                                                                                                                                                                                                    ",
"                                                                                                                                                                                                                                                                    ",
"                                                                                                                                                                                                                                                                    ",
"  ....................    ....................    ....................    ....            ....    ...................    ....................    ....................    ...................    ...................   ....................    ....            ....  ",
"  ....................    ....................    ....................    ....            ....    ...................    ....................    ....................    ...................    ...................   ....................    ....            ....  ",
"  ....................    ....................    ....................    ....            ....    ...................    ....................    ....................    ...................    ...................   ....................    ....            ....  ",
"  ....................    ....................    ....................    ....            ....    ...................    ....................    ....................    ...................    ...................   ....................    ....            ....  ",
"  ....                    ....                    ....            ....    ....            ....    ....                   .....           ....    ....                    ....                   ....           ....   ....                    ....            ....  ",
"  ....                    ....                    ....            ....    ....            ....    ....                   .....           ....    ....                    ....                   ....           ....   ....                    ....            ....  ",
"  ....                    ....                    ....            ....    ....            ....    ....                   .....           ....    ....                    ....                   ....           ....   ....                    ....            ....  ",
"  ....                    ....                    ....            ....    ....            ....    ....                   .....           ....    ....                    ....                   ....           ....   ....                    ....            ....  ",
"  ....................    ....................    ....            ....    ....            ....    ...................    .....           ....    ....                    ...................    ...................   ....................    ....................  ",
"  ....................    ....................    ....            ....    ....            ....    ...................    .....           ....    ....                    ...................    ...................   ....................    ....................  ",
"  ....................    ....................    ....            ....    ....            ....    ...................    .....           ....    ....                    ...................    ...................   ....................    ....................  ",
"  ....................    ....................    ....            ....    ....            ....    ...................    .....           ....    ....                    ...................    ...................   ....................    ....................  ",
"                  ....    ....                    ....    ....    ....    ....            ....    ....                   .....           ....    ....                    ....                   ....       ....       ....            ....                    ....  ",
"                  ....    ....                    ....    ....    ....    ....            ....    ....                   .....           ....    ....                    ....                   ....       ....       ....            ....                    ....  ",
"                  ....    ....                    ....    ....    ....    ....            ....    ....                   .....           ....    ....                    ....                   ....       ....       ....            ....                    ....  ",
"                  ....    ....                    ....    ....    ....    ....            ....    ....                   .....           ....    ....                    ....                   ....       ....       ....            ....                    ....  ",
"  ....................    ....................    ....................    ....................    ...................    .....           ....    ....................    ...................    ....       ....       ....................                    ....  ",
"  ....................    ....................    ....................    ....................    ...................    .....           ....    ....................    ...................    ....       ....       ....................                    ....  ",
"  ....................    ....................    ....................    ....................    ...................    .....           ....    ....................    ...................    ....       ....       ....................                    ....  ",
"  ....................    ....................    ....................    ....................    ...................    .....           ....    ....................    ...................    ....       ....       ....................                    ....  ",
"                                                          ....                                                                                                                                             ....                                                     ",
"                                                          ....                                                                                                                                             ....                                                     ",
"       +   +++ +++ +++ +++ + +   +++++ +++ ++  +++        ....                                                                                                                                             ....                                                     ",
"       +   +   +   + + +   + +   + + + + + + + +          ....                                                                                                                                             ....                                                     ",
"       +   ++  + + +++ +   +++   + + + + + + + ++                                                                                                                                                                                                                   ",
"       +   +   + + + + +    +    + + + + + + + +                                                                                                                                                                                                                    ",
"       +++ +++ +++ + + +++  +    +   + +++ ++  +++                                                                                                                                                                                                                  ",
"                                                                                                                                                                                                                                                                    "};
