/* XPM */
static const char * sequencer64_square_small_xpm[] = {
"146 24 2 1",
" 	c None",
".	c #000000",
"                                                                                                                                                  ",
"                                                                                                                                                  ",
" ............ ............  ............ ..        ..  ...........  ...........   ...........  ...........  ..........  ............ ..        .. ",
" ............ ............  ............ ..        ..  ...........  ...........   ...........  ...........  ..........  ............ ...       .. ",
" .. ........  ............  .. ..... ... ..        ..  .. ........  ........ ..   .. .......   ..........   .. .... ..  .. ........  ...       .. ",
" ..           ..            ..       ... ..        ..  ..           ..       ..   ..           ..           ..      ..  ..           ...       .. ",
" ..           ...           ..       ... ..        ..  ..           ..       ..   ..           ..           ..      ..  ..           ...       .. ",
" ............ ............  ..       ... ..        ..  ...........  ..       ..   ..           ...........  ..........  ............ ............ ",
" ............ ............  ..       ... ..        ..  ...........  ..       ..   ..           ...........  ..........  ............ ............ ",
"          ... ..            ..   ..  ... ..        ..  ..           ..       ..   ..           ..           ..    ..    ..        ..           .. ",
"          ... ..            ..   ..  ... ..        ..  ..           ..       ..   ..           ..           ..    ..    ..        ..           .. ",
" ............ ............  ............ ............  ...........  ..       ..   ...........  ...........  ..    ..    ............           .. ",
" ............ ............  ............ ............  ...........  ..       ..   ...........  ...........  ..    ..    ............           .. ",
" ...........   ...........  .... ......   ...........  ...........  ..       ..   ..........   ..........   ..    ..    ...........            .. ",
"                                 ..                                                                               ..                              ",
"                                 ..                                                                               ..                              ",
"                                                                                                                                                  ",
"                                                                                                                                                  ",
"                                                                                                                                                  ",
"                                                                                                                                                  ",
"                                                                                                                                                  ",
"                                                                                                                                                  ",
"                                                                                                                                                  ",
"                                                                                                                                                  "};
