/* XPM */
static const char * sequencer64_square_xpm[] = {
"195 32 2 1",
" 	c None",
".	c #000000",
"                                                                                                                                                                                                   ",
"                                                                                                                                                                                                   ",
"                                                                                                                                                                                                   ",
" ................  ................  ................  ...          ...  ...............   ...............   ...............   ..............   ..............  ................  ...          ... ",
" ................  ................  ................  ...          ...  ...............   ...............   ...............   ..............   ..............  ................  ...          ... ",
" ................  ................  ................  ...          ...  ...............   ...............   ...............   ..............   ..............  ................  ...          ... ",
" ...               ...               ...          ...  ...          ...  ...               ...         ...   ...               ...              ...        ...  ...               ...          ... ",
" ...               ...               ...          ...  ...          ...  ...               ...         ...   ...               ...              ...        ...  ...               ...          ... ",
" ...               ...               ...          ...  ...          ...  ...               ...         ...   ...               ...              ...        ...  ...               ...          ... ",
" ................  ................  ...          ...  ...          ...  ...............   ...         ...   ...               ..............   ..............  ................  ................ ",
" ................  ................  ...          ...  ...          ...  ...............   ...         ...   ...               ..............   ..............  ................  ................ ",
" ................  ................  ...          ...  ...          ...  ...............   ...         ...   ...               ..............   ..............  ................  ................ ",
"              ...  ...               ...    ...   ...  ...          ...  ...               ...         ...   ...               ...              ...     ...     ...          ...               ... ",
"              ...  ...               ...    ...   ...  ...          ...  ...               ...         ...   ...               ...              ...     ...     ...          ...               ... ",
"              ...  ...               ...    ...   ...  ...          ...  ...               ...         ...   ...               ...              ...     ...     ...          ...               ... ",
" ................  ................  ................  ................  ...............   ...         ...   ...............   ..............   ...     ...     ................               ... ",
" ................  ................  ................  ................  ...............   ...         ...   ...............   ..............   ...     ...     ................               ... ",
" ................  ................  ................  ................  ...............   ...         ...   ...............   ..............   ...     ...     ................               ... ",
"                                            ...                                                                                                         ...                                        ",
"                                            ...                                                                                                         ...                                        ",
"                                            ...                                                                                                         ...                                        ",
"                                                                                                                                                                                                   ",
"                                                                                                                                                                                                   ",
"                                                                                                                                                                                                   ",
"                                                                                                                                                                                                   ",
"                                                                                                                                                                                                   ",
"                                                                                                                                                                                                   ",
"                                                                                                                                                                                                   ",
"                                                                                                                                                                                                   ",
"                                                                                                                                                                                                   ",
"                                                                                                                                                                                                   ",
"                                                                                                                                                                                                   "};
