/* XPM */
static const char * sequencer24_legacy_xpm[] = {
"260 32 3 1",
" 	c None",
".	c #000000",
"+	c #BDBDBD",
"                                                                                                                                                                                                                                                                    ",
"                                                                                                                                                                                                                                                                    ",
"                                                                                                                                                                                                                                                                    ",
"                                                                                                                                                                                                                                                                    ",
"  ....................    ....................    ....................    ....            ....    ...................    ....................    ....................    ...................    ...................   ....................    ....            ....  ",
"  ....................    ....................    ....................    ....            ....    ...................    ....................    ....................    ...................    ...................   ....................    ....            ....  ",
"  ....................    ....................    ....................    ....            ....    ...................    ....................    ....................    ...................    ...................   ....................    ....            ....  ",
"  ....................    ....................    ....................    ....            ....    ...................    ....................    ....................    ...................    ...................   ....................    ....            ....  ",
"  ....                    ....                    ....            ....    ....            ....    ....                   .....           ....    ....                    ....                   ....           ....                   ....    ....            ....  ",
"  ....                    ....                    ....            ....    ....            ....    ....                   .....           ....    ....                    ....                   ....           ....                   ....    ....            ....  ",
"  ....                    ....                    ....            ....    ....            ....    ....                   .....           ....    ....                    ....                   ....           ....                   ....    ....            ....  ",
"  ....                    ....                    ....            ....    ....            ....    ....                   .....           ....    ....                    ....                   ....           ....                   ....    ....            ....  ",
"  ....................    ....................    ....            ....    ....            ....    ...................    .....           ....    ....                    ...................    ...................   ....................    ....................  ",
"  ....................    ....................    ....            ....    ....            ....    ...................    .....           ....    ....                    ...................    ...................   ....................    ....................  ",
"  ....................    ....................    ....            ....    ....            ....    ...................    .....           ....    ....                    ...................    ...................   ....................    ....................  ",
"  ....................    ....................    ....            ....    ....            ....    ...................    .....           ....    ....                    ...................    ...................   ....................    ....................  ",
"                  ....    ....                    ....    ....    ....    ....            ....    ....                   .....           ....    ....                    ....                   ....       ....       ....                                    ....  ",
"                  ....    ....                    ....    ....    ....    ....            ....    ....                   .....           ....    ....                    ....                   ....       ....       ....                                    ....  ",
"                  ....    ....                    ....    ....    ....    ....            ....    ....                   .....           ....    ....                    ....                   ....       ....       ....                                    ....  ",
"                  ....    ....                    ....    ....    ....    ....            ....    ....                   .....           ....    ....                    ....                   ....       ....       ....                                    ....  ",
"  ....................    ....................    ....................    ....................    ...................    .....           ....    ....................    ...................    ....       ....       ....................                    ....  ",
"  ....................    ....................    ....................    ....................    ...................    .....           ....    ....................    ...................    ....       ....       ....................                    ....  ",
"  ....................    ....................    ....................    ....................    ...................    .....           ....    ....................    ...................    ....       ....       ....................                    ....  ",
"  ....................    ....................    ....................    ....................    ...................    .....           ....    ....................    ...................    ....       ....       ....................                    ....  ",
"                                                          ....                                                                                                                                             ....                                                     ",
"      +++++++++++++++++++++++++++++++++++++++++++++       ....                                                                                                                                             ....                                                     ",
"      +.+++...+...+...+...+.+.+++.....+...+..++...+       ....                                                                                                                                             ....                                                     ",
"      +.+++.+++.+++.+.+.+++.+.+++.+.+.+.+.+.+.+.+++       ....                                                                                                                                             ....                                                     ",
"      +.+++..++.+.+...+.+++...+++.+.+.+.+.+.+.+..++                                                                                                                                                                                                                 ",
"      +.+++.+++.+.+.+.+.++++.++++.+.+.+.+.+.+.+.+++                                                                                                                                                                                                                 ",
"      +...+...+...+.+.+...++.++++.+++.+...+..++...+                                                                                                                                                                                                                 ",
"      +++++++++++++++++++++++++++++++++++++++++++++                                                                                                                                                                                                                 "};
