/* XPM */
static const char * sequencer24_xpm[] = {
"240 32 2 1",
" 	c None",
".	c #000000",
"                                                                                                                                                                                                                                                ",
"                                                                                                                                                                                                                                                ",
"                                                                                                                                                                                                                                                ",
"                                                                                                                                                                                                                                                ",
"                                                                                                                                                                                                                                                ",
"                                                                                                                                                                                                                                                ",
"                                                                                                                                                                                                                                                ",
"                                                                                                                                                                                                                                                ",
"                ......       .............       .......        ...       ...    .............   ...       ...        ......       .............   ...........        .....            ...                                                      ",
"              ..........     .............     ...........      ...       ...    .............   ....      ...      ..........     .............   .............     ........         ....                                                      ",
"             ............    .............    .............     ...       ...    .............   .....     ...     ............    .............   .............    ..........       .....                                                      ",
"             ....    ....    ...             .....     .....    ...       ...    ...             .....     ...    .....    ....    ...             ...      .....  ....   ....       .....                                                      ",
"            ....      ...    ...             ....       ....    ...       ...    ...             ......    ...    ....      ....   ...             ...       ....  ....    ...      ......                                                      ",
"             ....            ...            ....         ...    ...       ...    ...             ......    ...    ...       ..     ...             ...       ....  ...     ...     .......                                                      ",
"             .......         ...            ....         ....   ...       ...    ...             ... ...   ...   ....              ...             ...      .....         ....    ........                                                      ",
"              .........      ............   ....         ....   ...       ...    ............    ... ....  ...   ....              ............    .............          ...     ... ....                                                      ",
"               ..........    ............   ....         ....   ...       ...    ............    ...  ...  ...   ....              ............    ............          ....    ...  ....                                                      ",
"                  .......    ............   ....         ....   ...       ...    ............    ...   ... ...   ....              ............    ..........           ....    ....  ....                                                      ",
"                     .....   ...            ....         ...    ...       ...    ...             ...   ... ...   ....              ...             ...   .....         ....     ...   ....                                                      ",
"            ...       ....   ...            ....    ..  ....    ...       ...    ...             ...    ......   ....        .     ...             ...    .....       ....     .............                                                    ",
"            ....      ....   ...             ....   ........    ....      ...    ...             ...    ......    ....      ....   ...             ...     ....      ....      .............                                                    ",
"             ....    .....   ...             .....   ......     .....    ....    ...             ...     .....    .....    ....    ...             ...      ....    ....       .............                                                    ",
"             ............    .............    ..............     ............    .............   ...     .....     ............    .............   ...      .....  ...........        ....                                                      ",
"              ..........     .............     ..............     ..........     .............   ...      ....      ..........     .............   ...       ....  ...........        ....                                                      ",
"                ......       .............       ....... ....      .......       .............   ...       ...        ......       .............   ...        .... ...........        ....                                                      ",
"                                                          ..                                                                                                                                                                                    ",
"                                                                                                                                                                                                                                                ",
"                                                                                                                                                                                                                                                ",
"                                                                                                                                                                                                                                                ",
"                                                                                                                                                                                                                                                ",
"                                                                                                                                                                                                                                                ",
"                                                                                                                                                                                                                                                "};
