/* XPM */
static const char * sequencer24_square_xpm[] = {
"260 32 2 1",
" 	c None",
".	c #000000",
"                                                                                                                                                                                                                                                                    ",
"                                                                                                                                                                                                                                                                    ",
"                                                                                                                                                                                                                                                                    ",
"                                                                                                                                                                                                                                                                    ",
"  ....................    ....................    ....................    ....            ....    ...................    ....................    ....................    ...................    ...................   ....................    ....            ....  ",
"  ....................    ....................    ....................    ....            ....    ...................    ....................    ....................    ...................    ...................   ....................    ....            ....  ",
"  ....................    ....................    ....................    ....            ....    ...................    ....................    ....................    ...................    ...................   ....................    ....            ....  ",
"  ....................    ....................    ....................    ....            ....    ...................    ....................    ....................    ...................    ...................   ....................    ....            ....  ",
"  ....                    ....                    ....            ....    ....            ....    ....                   .....           ....    ....                    ....                   ....           ....                   ....    ....            ....  ",
"  ....                    ....                    ....            ....    ....            ....    ....                   .....           ....    ....                    ....                   ....           ....                   ....    ....            ....  ",
"  ....                    ....                    ....            ....    ....            ....    ....                   .....           ....    ....                    ....                   ....           ....                   ....    ....            ....  ",
"  ....                    ....                    ....            ....    ....            ....    ....                   .....           ....    ....                    ....                   ....           ....                   ....    ....            ....  ",
"  ....................    ....................    ....            ....    ....            ....    ...................    .....           ....    ....                    ...................    ...................   ....................    ....................  ",
"  ....................    ....................    ....            ....    ....            ....    ...................    .....           ....    ....                    ...................    ...................   ....................    ....................  ",
"  ....................    ....................    ....            ....    ....            ....    ...................    .....           ....    ....                    ...................    ...................   ....................    ....................  ",
"  ....................    ....................    ....            ....    ....            ....    ...................    .....           ....    ....                    ...................    ...................   ....................    ....................  ",
"                  ....    ....                    ....    ....    ....    ....            ....    ....                   .....           ....    ....                    ....                   ....       ....       ....                                    ....  ",
"                  ....    ....                    ....    ....    ....    ....            ....    ....                   .....           ....    ....                    ....                   ....       ....       ....                                    ....  ",
"                  ....    ....                    ....    ....    ....    ....            ....    ....                   .....           ....    ....                    ....                   ....       ....       ....                                    ....  ",
"                  ....    ....                    ....    ....    ....    ....            ....    ....                   .....           ....    ....                    ....                   ....       ....       ....                                    ....  ",
"  ....................    ....................    ....................    ....................    ...................    .....           ....    ....................    ...................    ....       ....       ....................                    ....  ",
"  ....................    ....................    ....................    ....................    ...................    .....           ....    ....................    ...................    ....       ....       ....................                    ....  ",
"  ....................    ....................    ....................    ....................    ...................    .....           ....    ....................    ...................    ....       ....       ....................                    ....  ",
"  ....................    ....................    ....................    ....................    ...................    .....           ....    ....................    ...................    ....       ....       ....................                    ....  ",
"                                                          ....                                                                                                                                             ....                                                     ",
"                                                          ....                                                                                                                                             ....                                                     ",
"                                                          ....                                                                                                                                             ....                                                     ",
"                                                          ....                                                                                                                                             ....                                                     ",
"                                                                                                                                                                                                                                                                    ",
"                                                                                                                                                                                                                                                                    ",
"                                                                                                                                                                                                                                                                    ",
"                                                                                                                                                                                                                                                                    "};
