/* XPM */
static const char * snap_xpm[] = {
"29 12 5 1",
" 	c None",
".	c #000000",
"+	c #56BEFF",
"@	c #BFE8FF",
"#	c #357293",
"              .              ",
"        .     .     .        ",
"        ..    .    ..        ",
"        .+.   .   .@.        ",
"   ......++.  .  .@+......   ",
"   .@@@@@+++. . .@++@@@@@.   ",
"   .+++++++#. . .++++++++.   ",
"   ......+#.  .  .++......   ",
"        .#.   .   .+.        ",
"        ..    .    ..        ",
"        .     .     .        ",
"              .              "};
