/* XPM */
static const char * song_rec_off_xpm[] =
{
"9 9 37 1",
" 	c None",
".	c #030611",
"+	c #090D23",
"@	c #040712",
"#	c #02040E",
"$	c #040818",
"%	c #0D142F",
"&	c #1C35A2",
"*	c #193091",
"=	c #182D88",
"-	c #162A7E",
";	c #070E2B",
">	c #080C20",
",	c #182B7E",
"'	c #172C85",
")	c #172A7D",
"!	c #142778",
"~	c #142674",
"{	c #13236B",
"]	c #080E2C",
"^	c #0A1338",
"/	c #172B83",
"(	c #152879",
"_	c #132573",
":	c #12236A",
"<	c #122268",
"[	c #132571",
"}	c #13246D",
"|	c #05091D",
"1	c #112061",
"2	c #132369",
"3	c #060B22",
"4	c #04081A",
"5	c #101E5C",
"6	c #060B20",
"7	c #020308",
"8	c #02030A",
"  .+@#$  ",
" %&*==-; ",
">,=')!~{]",
"^/(_{:<[^",
"]}:<<<<[^",
"]:<<<<<}^",
"|12<<<:13",
" 45}:{16 ",
"  78887  "
};
