/* XPM */
static const char * song_mode_xpm[] = {
"18 17 4 1",
" 	c None",
".	c #000000",
"+	c #A5A5A5",
"@	c #C6EF94",
"..................",
".++++.+++.+++++++.",
".+.+.+.+..+++++++.",
"..+.+++.+.+++++++.",
"..................",
"..+++.++..+++++++.",
".+.+.+..+.+++++++.",
".++.++.++.+++++++.",
"..................",
".@@@@@@@.@@@.@@@@.",
".@.@@@.@@@.@.@@@@.",
".@@@.@@@@@@@.@@@@.",
"..................",
".++++++++.+++.+++.",
".++++++++..+.+.+..",
".++++++++.+.+++.+.",
".................."};
