/* XPM */
static char * song_snap_xpm[] = {
"20 20 3 1",
" 	c None",
".	c #000000",
"+	c #AD6666",
"                    ",
"                    ",
"                    ",
" ..                 ",
" ..                 ",
" ..                 ",
" ..    +            ",
" ..   ++            ",
" ..  ++++++++++++++ ",
" .. +++++++++++++++ ",
" ..  ++++++++++++++ ",
" ..   ++            ",
" ..    +            ",
" ..                 ",
" ..                 ",
" ..                 ",
" ..                 ",
"                    ",
"                    ",
"                    "};
