/* XPM */
static const char * song_rec_on_xpm[] =
{
"9 9 51 1",
" 	c None",
".	c #0A0D18",
"+	c #161C36",
"@	c #090D1F",
"#	c #050917",
"$	c #0A1026",
"%	c #1F2747",
"&	c #5272E8",
"*	c #3A5DE0",
"=	c #3255DA",
"-	c #2E53DC",
";	c #2C4DCA",
">	c #0E1A46",
",	c #131931",
"'	c #3A57C2",
")	c #3256DA",
"!	c #2D51D5",
"~	c #2449D4",
"{	c #183FD2",
"]	c #0F39D3",
"^	c #1137C5",
"/	c #0F1B47",
"(	c #172557",
"_	c #294ED7",
":	c #1B42D3",
"<	c #0E37D0",
"[	c #0630CE",
"}	c #032ECD",
"|	c #002BCC",
"1	c #0632D6",
"2	c #051551",
"3	c #0832CE",
"4	c #0531D5",
"5	c #051653",
"6	c #022ED0",
"7	c #032FD5",
"8	c #0A1130",
"9	c #082DB6",
"0	c #002CD2",
"a	c #002CCE",
"b	c #042CC0",
"c	c #031041",
"d	c #020C32",
"e	c #0026B4",
"f	c #002DD6",
"g	c #002DD4",
"h	c #0028BE",
"i	c #010E3F",
"j	c #000310",
"k	c #000518",
"l	c #000412",
"  .+@#$  ",
" %&*=-;> ",
",')!~{]^/",
"(_:<[}|1(",
"23}||||4(",
"56|||||7(",
"890|aa0bc",
" defgghi ",
"  jkkkl  "
};
