/* XPM */
static const char * song_mode_xpm[] = {
"18 17 3 1",
" 	c None",
".	c #000000",
"+	c #A5A5A5",
"..................",
".++++.+++.+++++++.",
".+.+.+.+..+++++++.",
"..+.+++.+.+++++++.",
"..................",
"..+++.++..+++++++.",
".+.+.+..+.+++++++.",
".++.++.++.+++++++.",
"..................",
".+++++++.+++.++++.",
".+.+++.+++.+.++++.",
".+++.+++++++.++++.",
"..................",
".++++++++.+++.+++.",
".++++++++..+.+.+..",
".++++++++.+.+++.+.",
".................."};
