/* XPM */
static const char * song_record_xpm[] = {
"13 12 36 1",
" 	c None",
".	c #000000",
"+	c #0F0F29",
"@	c #1C1CA2",
"#	c #1A1A94",
"$	c #18188A",
"%	c #111161",
"&	c #24248A",
"*	c #1D1DA5",
"=	c #1B1B97",
"-	c #1B1B95",
";	c #1A1A92",
">	c #19198F",
",	c #181886",
"'	c #0F0F55",
")	c #151561",
"!	c #171785",
"~	c #16167E",
"{	c #151577",
"]	c #0C0C46",
"^	c #151579",
"/	c #151575",
"(	c #141474",
"_	c #14146E",
":	c #141472",
"<	c #171783",
"[	c #16167C",
"}	c #121266",
"|	c #13136D",
"1	c #131369",
"2	c #0E0E52",
"3	c #090939",
"4	c #0E0E4E",
"5	c #0C0C44",
"6	c #13136B",
"7	c #0A0A3A",
"   ..+...    ",
"  .@@#$$#%.  ",
" .&*=-#;>,'. ",
".)#=#>$!~~{].",
".,#$!~^{/(~_.",
".:<[/(((((~:.",
".}/((((((([|.",
".1{((((((/^%.",
".2//((((({|3.",
" .4:////{_5. ",
"  .]6|6|17.  ",
"   .......   "};
