/* XPM */
static const char * song_editor_xpm[] = {
"32 32 8 1",
" 	c None",
".	c #9ED69A",
"+	c #79AF75",
"@	c #4B8747",
"#	c #30612D",
"$	c #11480C",
"%	c #FFFFFF",
"&	c #47C847",
"                                ",
"                            .   ",
"                           .+@  ",
"                          .+@#$ ",
"                         .+@#$  ",
"                        .+@#$   ",
"                       .+@#$    ",
"                      .+@#$     ",
"                     .+@#$      ",
"                    .+@#$       ",
"                   .+@#$        ",
"                  .+@#$         ",
"                 .+@#$          ",
"                .+@#$           ",
"               .+@#$            ",
"               +@#$             ",
"              +@#               ",
"             +@                 ",
"%%%%%%%%%%%%%%%%%%%%%%%%%%%%%%%%",
"&&&&&&&&&&&&%%%%%%%%%%%&&&&&&&&&",
"&&&&&&&&&&&&%%%%%%%%%%%&&&&&&&&&",
"%%%%%%%%%%%%%%%%%%%%%%%%%%%%%%%%",
"%%%%%%%%&&&&&&&&&&&&&%%%%%%%%%%%",
"%%%%%%%%&&&&&&&&&&&&&%%%%%%%%%%%",
"%%%%%%%%%%%%%%%%%%%%%%%%%%%%%%%%",
"&&&&&&&&&&&&&&&&%%%%%%%%%%%%%%%%",
"&&&&&&&&&&&&&&&&%%%%%%%%%%%%%%%%",
"%%%%%%%%%%%%%%%%%%%%%%%%%%%%%%%%",
"%%%%%%%%%%%%%%%&&&&&&&&&&&&&&&&&",
"%%%%%%%%%%%%%%%&&&&&&&&&&&&&&&&&",
"%%%%%%%%%%%%%%%%%%%%%%%%%%%%%%%%",
"%%%%%%%%%%%%%%%%%%%%%%%%%%%%%%%%"};
