/* XPM */
static char * tempo_record_xpm[] = {
"16 12 73 1",
" 	c None",
".	c #645858",
"+	c #925757",
"@	c #391D1D",
"#	c #000000",
"$	c #BB6A6A",
"%	c #C75353",
"&	c #D44646",
"*	c #CB3737",
"=	c #C42C2C",
"-	c #C42B2B",
";	c #D23434",
">	c #852424",
",	c #B64B4B",
"'	c #DE4141",
")	c #D83232",
"!	c #D92F2F",
"~	c #D92B2B",
"{	c #D82828",
"]	c #D72424",
"^	c #CA2121",
"/	c #7E1717",
"(	c #812F2F",
"_	c #CF3737",
":	c #D93030",
"<	c #D52C2C",
"[	c #D42828",
"}	c #D32020",
"|	c #D11616",
"1	c #CF0E0E",
"2	c #D30B0B",
"3	c #C31010",
"4	c #681414",
"5	c #BA3232",
"6	c #D82B2B",
"7	c #D01616",
"8	c #CE0808",
"9	c #CD0505",
"0	c #CD0202",
"a	c #CC0000",
"b	c #D30909",
"c	c #A71D1D",
"d	c #B21616",
"e	c #D21111",
"f	c #CF0A0A",
"g	c #CD0303",
"h	c #D40707",
"i	c #AF1919",
"j	c #AE0404",
"k	c #CE0000",
"l	c #D30606",
"m	c #AC1313",
"n	c #B00B0B",
"o	c #D00202",
"p	c #CD0000",
"q	c #D10404",
"r	c #9E0C0C",
"s	c #7B1515",
"t	c #C70606",
"u	c #D00000",
"v	c #D20101",
"w	c #BE0404",
"x	c #5F0505",
"y	c #880404",
"z	c #C70101",
"A	c #D10000",
"B	c #C30101",
"C	c #750303",
"D	c #7B0000",
"E	c #BE0000",
"F	c #BF0000",
"G	c #BB0000",
"H	c #690000",
"    .+@###      ",
"   $%&*=-;>#    ",
"  #,')!~{]^/#   ",
" #(_:<[}|1234#  ",
" #56}71890abc#  ",
" #defgaaaaahi#  ",
" #jkaaaaaaalm#  ",
" #noaaaaaapqr#  ",
" #stuaaaaavwx#  ",
"  #yzuuuuABC#   ",
"   #DEFEFGH#    ",
"    #######     "};
