/* XPM */
static const char * tempo_rec_on_xpm[] = {
"12 9 55 1",
" 	c None",
".	c #180A18",
"+	c #361635",
"@	c #1F091E",
"#	c #170517",
"$	c #260A26",
"%	c #471F46",
"&	c #E852E6",
"*	c #E03ADE",
"=	c #DB31D9",
"-	c #DC2EDA",
";	c #CA2CC8",
">	c #460E45",
",	c #311331",
"'	c #C23AC1",
")	c #DA32D8",
"!	c #D52DD3",
"~	c #D424D2",
"{	c #D218D0",
"]	c #D30FD1",
"^	c #C511C3",
"/	c #470F46",
"(	c #571756",
"_	c #D729D5",
":	c #D31BD1",
"<	c #D00ECE",
"[	c #CE06CC",
"}	c #CD03CB",
"|	c #CC00CA",
"1	c #D606D4",
"2	c #941A92",
"3	c #000000",
"4	c #510550",
"5	c #CE08CC",
"6	c #D505D2",
"7	c #961494",
"8	c #530552",
"9	c #D002CE",
"0	c #D503D3",
"a	c #8C0C8A",
"b	c #300A2F",
"c	c #B608B4",
"d	c #D200D0",
"e	c #CE00CC",
"f	c #C004BE",
"g	c #410340",
"h	c #320231",
"i	c #B400B2",
"j	c #D600D3",
"k	c #D400D2",
"l	c #BE00BC",
"m	c #3F013E",
"n	c #100010",
"o	c #180018",
"p	c #120012",
"   .+@#$    ",
"  %&*=-;>   ",
" ,')!~{]^/  ",
" (_:<[}|123 ",
" 45}||||673 ",
" 89|||||0a3 ",
" bcd|eedfg  ",
"  hijkklm   ",
"   nooop    "};
