/* XPM */
static const char * tempo_autorecord_xpm[] = {
"16 12 70 1",
" 	c None",
".	c #000000",
"+	c #391D1D",
"@	c #C75353",
"#	c #D44646",
"$	c #CB3737",
"%	c #C42C2C",
"&	c #C42B2B",
"*	c #D23434",
"=	c #852424",
"-	c #B64B4B",
";	c #DE4141",
">	c #D83232",
",	c #D92F2F",
"'	c #D92B2B",
")	c #D82828",
"!	c #D72424",
"~	c #CA2121",
"{	c #7E1717",
"]	c #812F2F",
"^	c #CF3737",
"/	c #D93030",
"(	c #D52C2C",
"_	c #D42828",
":	c #D32020",
"<	c #D11616",
"[	c #CF0E0E",
"}	c #D30B0B",
"|	c #C31010",
"1	c #681414",
"2	c #BA3232",
"3	c #D82B2B",
"4	c #D01616",
"5	c #CE0808",
"6	c #CD0505",
"7	c #CD0202",
"8	c #CC0000",
"9	c #D30909",
"0	c #A71D1D",
"a	c #B21616",
"b	c #D21111",
"c	c #CF0A0A",
"d	c #CD0303",
"e	c #D40707",
"f	c #AF1919",
"g	c #AE0404",
"h	c #CE0000",
"i	c #D30606",
"j	c #AC1313",
"k	c #B00B0B",
"l	c #D00202",
"m	c #CD0000",
"n	c #D10404",
"o	c #9E0C0C",
"p	c #7B1515",
"q	c #C70606",
"r	c #D00000",
"s	c #D20101",
"t	c #BE0404",
"u	c #5F0505",
"v	c #880404",
"w	c #C70101",
"x	c #D10000",
"y	c #C30101",
"z	c #750303",
"A	c #7B0000",
"B	c #BE0000",
"C	c #BF0000",
"D	c #BB0000",
"E	c #690000",
"    ..+...      ",
"   .@#$%&*=.    ",
"  .-;>,')!~{.   ",
" .]^/(_:<[}|1.  ",
" .23:4[567890.  ",
" .abcd88888ef.  ",
" .gh8888888ij.  ",
" .kl888888mno.  ",
" .pqr88888stu.  ",
"  .vwrrrrxyz.   ",
"   .ABCBCDE.    ",
"    .......     "};
