/* XPM */
static char * tempo_autorecord_xpm[] = {
"16 12 39 1",
" 	c None",
".	c #000000",
"+	c #380C0C",
"@	c #DE0000",
"#	c #CC0000",
"$	c #BE0000",
"%	c #CE0000",
"&	c #860000",
"*	c #BC1010",
"=	c #E40000",
"-	c #D20000",
";	c #D00000",
">	c #CA0000",
",	c #C60000",
"'	c #BA0000",
")	c #760000",
"!	c #850505",
"~	c #C00000",
"{	c #B60000",
"]	c #AE0000",
"^	c #A60000",
"/	c #620000",
"(	c #A80000",
"_	c #A40000",
":	c #A00000",
"<	c #9A0000",
"[	c #9E0000",
"}	c #B40000",
"|	c #AC0000",
"1	c #8C0000",
"2	c #A20000",
"3	c #980000",
"4	c #940000",
"5	c #720000",
"6	c #4E0000",
"7	c #6E0000",
"8	c #5E0000",
"9	c #960000",
"0	c #520000",
"    ..+...      ",
"   .@@#$$%&.    ",
"  .*=-;#>,').   ",
" .!%-#,~{]]^/.  ",
" .'#~{](^_:]<.  ",
" .[}|_:::::][.  ",
" .12:::::::|3.  ",
" .4^::::::2(&.  ",
" .52_:::::^36.  ",
"  .7[____^<8.   ",
"   ./939340.    ",
"    .......     "};
