/* XPM */
static const char * tempo_rec_off_xpm[] = {
"12 9 44 1",
" 	c None",
".	c #140414",
"+	c #2B0B2A",
"@	c #170517",
"#	c #110311",
"$	c #1D051D",
"%	c #381038",
"&	c #BF21BD",
"*	c #AA1EA9",
"=	c #A21CA0",
"-	c #941A93",
";	c #330933",
">	c #270927",
",	c #961C94",
"'	c #9D1B9B",
")	c #951B94",
"!	c #8E188D",
"~	c #881887",
"{	c #80167F",
"]	c #350934",
"^	c #420C41",
"/	c #9B1B99",
"(	c #8F198E",
"_	c #871785",
":	c #7E167D",
"<	c #7B157A",
"[	c #851784",
"}	c #691368",
"|	c #000000",
"1	c #811780",
"2	c #851783",
"3	c #681267",
"4	c #821681",
"5	c #5C105B",
"6	c #240623",
"7	c #741473",
"8	c #7C167B",
"9	c #290729",
"0	c #1F051F",
"a	c #6D136C",
"b	c #721471",
"c	c #270727",
"d	c #0A020A",
"e	c #0E020E",
"   .+@#$    ",
"  %&*==-;   ",
" >,=')!~{]  ",
" ^/(_{:<[}| ",
" ]1:<<<<23| ",
" ]:<<<<<45| ",
" 678<<<:79  ",
"  0a1:{bc   ",
"   deeed    "};
