/* XPM */
static const char * tempo_rec_off_xpm[] = {
"9 9 40 1",
" 	c None",
".	c #140414",
"+	c #2B0B2A",
"@	c #170517",
"#	c #110311",
"$	c #1D051D",
"%	c #381038",
"&	c #BF21BD",
"*	c #AA1EA9",
"=	c #A21CA0",
"-	c #941A93",
";	c #330933",
">	c #270927",
",	c #961C94",
"'	c #9D1B9B",
")	c #951B94",
"!	c #8E188D",
"~	c #881887",
"{	c #80167F",
"]	c #350934",
"^	c #420C41",
"/	c #9B1B99",
"(	c #8F198E",
"_	c #871785",
":	c #7E167D",
"<	c #7B157A",
"[	c #851784",
"}	c #811780",
"|	c #851783",
"1	c #821681",
"2	c #240623",
"3	c #741473",
"4	c #7C167B",
"5	c #290729",
"6	c #1F051F",
"7	c #6D136C",
"8	c #721471",
"9	c #270727",
"0	c #0A020A",
"a	c #0E020E",
"  .+@#$  ",
" %&*==-; ",
">,=')!~{]",
"^/(_{:<[^",
"]}:<<<<|^",
"]:<<<<<1^",
"234<<<:35",
" 67}:{89 ",
"  0aaa0  "};
