/* XPM */
static const char * tempo_record_xpm[] = {
"16 12 37 1",
" 	c None",
".	c #000000",
"+	c #2C1010",
"@	c #AA1E1E",
"#	c #9D1B1B",
"$	c #911919",
"%	c #661212",
"&	c #922626",
"*	c #AE1E1E",
"=	c #A01C1C",
"-	c #9E1C1C",
";	c #9B1B1B",
">	c #971B1B",
",	c #8D1919",
"'	c #5A1010",
")	c #661616",
"!	c #921A1A",
"~	c #8C1818",
"{	c #851717",
"]	c #7E1616",
"^	c #4B0D0D",
"/	c #801616",
"(	c #7C1616",
"_	c #7B1515",
":	c #751515",
"<	c #791515",
"[	c #8A1818",
"}	c #831717",
"|	c #6B1313",
"1	c #741414",
"2	c #701414",
"3	c #570F0F",
"4	c #3C0A0A",
"5	c #530F0F",
"6	c #470D0D",
"7	c #721414",
"8	c #3D0B0B",
"    ..+...      ",
"   .@@#$$#%.    ",
"  .&*=-#;>,'.   ",
" .)#=#>!~{{]^.  ",
" .,#!~{/](_{:.  ",
" .<[}(_____{<.  ",
" .|(_______}1.  ",
" .2]______(/%.  ",
" .3((_____]14.  ",
"  .5<((((]:6.   ",
"   .^717128.    ",
"    .......     "};
