/* XPM */
static const char * transport_follow_xpm[] = {
"18 18 5 1",
" 	c None",
".	c #000000",
"+	c #BFE8FF",
"@	c #56BEFF",
"#	c #357293",
"                  ",
"                  ",
"  ...... .        ",
"  ...... ..       ",
"    ..   .+.      ",
"    ..   .++.     ",
" .........@@+.    ",
" .++..+++@@@@+.   ",
" .@@..@@@@@@@@+.  ",
" .@@..@@@@@@@@@#. ",
" .@@..@@@@@@@@#.  ",
" .@@..@@@@@@@#.   ",
" .........@@#.    ",
"    ..   .@#.     ",
"    ..   .#.      ",
"    ..   ..       ",
"    ..   .        ",
"                  "};
