/* XPM */
static const char * transpose_xpm[] = {
"17 15 4 1",
" 	c None",
".	c #000000",
"+	c #FFFFFF",
"@	c #4DE8EA",
"                 ",
"          ....   ",
"        ..++++.. ",
".........++++++..",
"        ..++++.. ",
"          ....   ",
"        @@@      ",
".........@@......",
"        @ @      ",
"   ....@         ",
" ..++++..        ",
"..++++++.........",
" ..++++..        ",
"   ....          ",
"                 "};
