/* XPM */
static const char * tux_xpm[] = {
"20 24 107 2",
"  	c None",
". 	c #030303",
"+ 	c #050505",
"@ 	c #161616",
"# 	c #010101",
"$ 	c #020202",
"% 	c #040404",
"& 	c #1E1E1E",
"* 	c #060606",
"= 	c #0E0E0E",
"- 	c #0C0C0C",
"; 	c #000000",
"> 	c #141414",
", 	c #181818",
"' 	c #4F4F4F",
") 	c #5D5D5D",
"! 	c #0B0B0B",
"~ 	c #C2C2C2",
"{ 	c #797979",
"] 	c #434343",
"^ 	c #5A5A5A",
"/ 	c #606060",
"( 	c #2F2F2F",
"_ 	c #6A6A6A",
": 	c #0A0A0A",
"< 	c #494949",
"[ 	c #767676",
"} 	c #888888",
"| 	c #676767",
"1 	c #2B2B2B",
"2 	c #686868",
"3 	c #717171",
"4 	c #6B6B6B",
"5 	c #1B1B1B",
"6 	c #1C1C1C",
"7 	c #525252",
"8 	c #808080",
"9 	c #696969",
"0 	c #969696",
"a 	c #CDCDCD",
"b 	c #343434",
"c 	c #222222",
"d 	c #D7D7D7",
"e 	c #CFCFCF",
"f 	c #F7F7F7",
"g 	c #FFFFFF",
"h 	c #959595",
"i 	c #090909",
"j 	c #636363",
"k 	c #FDFDFD",
"l 	c #FEFEFE",
"m 	c #B8B8B8",
"n 	c #151515",
"o 	c #0F0F0F",
"p 	c #8C8C8C",
"q 	c #F8F8F8",
"r 	c #FAFAFA",
"s 	c #EFEFEF",
"t 	c #F0F0F0",
"u 	c #565656",
"v 	c #171717",
"w 	c #252525",
"x 	c #ECECEC",
"y 	c #FCFCFC",
"z 	c #B3B3B3",
"A 	c #313131",
"B 	c #5B5B5B",
"C 	c #F9F9F9",
"D 	c #262626",
"E 	c #FBFBFB",
"F 	c #303030",
"G 	c #F1F1F1",
"H 	c #2E2E2E",
"I 	c #444444",
"J 	c #C0C0C0",
"K 	c #E3E3E3",
"L 	c #232323",
"M 	c #121212",
"N 	c #6F6F6F",
"O 	c #757575",
"P 	c #858585",
"Q 	c #818181",
"R 	c #999999",
"S 	c #F6F6F6",
"T 	c #9C9C9C",
"U 	c #7B7B7B",
"V 	c #828282",
"W 	c #707070",
"X 	c #848484",
"Y 	c #878787",
"Z 	c #5F5F5F",
"` 	c #737373",
" .	c #747474",
"..	c #4E4E4E",
"+.	c #949494",
"@.	c #7D7D7D",
"#.	c #838383",
"$.	c #B9B9B9",
"%.	c #D5D5D5",
"&.	c #D2D2D2",
"*.	c #A6A6A6",
"=.	c #585858",
"-.	c #777777",
";.	c #7C7C7C",
">.	c #5E5E5E",
",.	c #7F7F7F",
"'.	c #424242",
"                                        ",
"              . . . + @                 ",
"              # $ . % & *               ",
"              = - ; > , # .             ",
"              ' ) ! ~ { # .             ",
"              ] ^ / ( _ : $             ",
"              < [ } | | # #             ",
"              1 | 2 3 4 5 6             ",
"              7 8 9 0 a b -             ",
"            c d d e f g h . i           ",
"            j g k l l g m n . .         ",
"          o p g q k r s t u n # .       ",
"        v w x l k k y k k z A @ #       ",
"        $ B g k r y k k g C D + .       ",
"      % ; g E k s E k y r g F . . .     ",
"      # = g q l G y k y k g H > % $     ",
"      I w J g g G y k y k K L M ,       ",
"  N O P Q < R g q k k k S T L ! H U     ",
"  U 8 8 V W o X g k k g x Y 4 Z ` Q     ",
"   .V Q Q 8 ..+.g l r g z | @.8 Q Q 8   ",
"   .#.Q Q 8 P $.%.&.e *.n =.V Q Q 8 @.  ",
"  O  .-.U #.;.( - - + ; * >.V ,.{ {     ",
"          B 7 b         , '.Z )         ",
"                                        "};
