/* XPM */
static const char * tux_xpm[] = {
"24 29 216 2",
"  	c None",
". 	c #020204",
"+ 	c #030304",
"@ 	c #040406",
"# 	c #3C3B3B",
"$ 	c #191919",
"% 	c #000002",
"& 	c #020203",
"* 	c #060606",
"= 	c #000000",
"- 	c #2C2C2C",
"; 	c #09090A",
"> 	c #252525",
", 	c #313132",
"' 	c #29292A",
") 	c #767677",
"! 	c #4E4E4E",
"~ 	c #101012",
"{ 	c #BEBEBE",
"] 	c #A3A3A3",
"^ 	c #111111",
"/ 	c #646465",
"( 	c #242426",
"_ 	c #6E6B67",
": 	c #575752",
"< 	c #2E2E2F",
"[ 	c #7E7E7C",
"} 	c #1C1C1C",
"| 	c #1A1B20",
"1 	c #9B8962",
"2 	c #C79400",
"3 	c #F7CC0C",
"4 	c #A28B10",
"5 	c #B3A156",
"6 	c #161511",
"7 	c #150D03",
"8 	c #E5A506",
"9 	c #FACC0B",
"0 	c #FFE629",
"a 	c #DEBE10",
"b 	c #F8C000",
"c 	c #1B1303",
"d 	c #000005",
"e 	c #8B6000",
"f 	c #A98A08",
"g 	c #8F6507",
"h 	c #D09505",
"i 	c #DCBB6A",
"j 	c #121210",
"k 	c #575759",
"l 	c #010000",
"m 	c #CACBD1",
"n 	c #B28733",
"o 	c #C09036",
"p 	c #BBAA82",
"q 	c #EBEEF9",
"r 	c #878786",
"s 	c #000001",
"t 	c #0C0C0F",
"u 	c #9C9C9B",
"v 	c #FCFCFC",
"w 	c #C6C7CA",
"x 	c #D1D2D4",
"y 	c #F3F5F8",
"z 	c #FFFFFE",
"A 	c #FFFFFF",
"B 	c #292929",
"C 	c #2C2C2D",
"D 	c #F1F1F1",
"E 	c #FEFEFC",
"F 	c #FCFCFA",
"G 	c #FDFDFB",
"H 	c #FEFEFD",
"I 	c #535352",
"J 	c #4A4A4B",
"K 	c #EEEEED",
"L 	c #F6F6F5",
"M 	c #FEFEFB",
"N 	c #F1F1F0",
"O 	c #DDDDDD",
"P 	c #DCDCDC",
"Q 	c #0A0A0B",
"R 	c #010103",
"S 	c #8B8B8B",
"T 	c #FAFAF9",
"U 	c #FAFAF8",
"V 	c #FBFBF9",
"W 	c #F9F9F8",
"X 	c #DEDEDE",
"Y 	c #626263",
"Z 	c #222224",
"` 	c #040404",
" .	c #212123",
"..	c #1C1C1D",
"+.	c #FFFFFD",
"@.	c #FFFFFC",
"#.	c #FDFDFC",
"$.	c #AFAFAF",
"%.	c #2A2A29",
"&.	c #202021",
"*.	c #60605F",
"=.	c #F8F8F7",
"-.	c #ECECEB",
";.	c #151517",
">.	c #030305",
",.	c #FBFBFB",
"'.	c #EDEDEC",
").	c #1F1F21",
"!.	c #000003",
"~.	c #1D1D1E",
"{.	c #F7F7F6",
"].	c #EFEFED",
"^.	c #FBFBFA",
"/.	c #1E1E1F",
"(.	c #101011",
"_.	c #130F05",
":.	c #F0F0EE",
"<.	c #1F1F20",
"[.	c #1B1B1C",
"}.	c #060505",
"|.	c #FFCD11",
"1.	c #BF9201",
"2.	c #484C59",
"3.	c #EFEFEE",
"4.	c #FCF8EA",
"5.	c #F3C92E",
"6.	c #181609",
"7.	c #00000E",
"8.	c #957813",
"9.	c #D39708",
"0.	c #E6AE09",
"a.	c #E1A80B",
"b.	c #F5BC0C",
"c.	c #FFC60D",
"d.	c #9E7F07",
"e.	c #383741",
"f.	c #D3D3D1",
"g.	c #DDDACF",
"h.	c #F0A900",
"i.	c #503806",
"j.	c #302106",
"k.	c #4A3406",
"l.	c #DFAE0A",
"m.	c #F2BD0C",
"n.	c #DCA217",
"o.	c #F4BC0D",
"p.	c #F5BD0C",
"q.	c #E9B60C",
"r.	c #3B3608",
"s.	c #F8F8F6",
"t.	c #CECBC3",
"u.	c #DC9E00",
"v.	c #D8990D",
"w.	c #C88C07",
"x.	c #DFA90B",
"y.	c #F2B40C",
"z.	c #D69C0B",
"A.	c #F5BC0B",
"B.	c #F8BE0C",
"C.	c #B48C05",
"D.	c #373735",
"E.	c #F2F2F1",
"F.	c #79756D",
"G.	c #D99E00",
"H.	c #F1B90A",
"I.	c #F2B90B",
"J.	c #F6BE0C",
"K.	c #F4BD0C",
"L.	c #F4BB0C",
"M.	c #D59B08",
"N.	c #F2C002",
"O.	c #D2B974",
"P.	c #F7F7F5",
"Q.	c #6C6C6B",
"R.	c #080200",
"S.	c #E5A70C",
"T.	c #F6BD0C",
"U.	c #F5BD0B",
"V.	c #F7BF0C",
"W.	c #EEB50B",
"X.	c #DDA40E",
"Y.	c #F7BC0D",
"Z.	c #F7C00C",
"`.	c #C78E05",
" +	c #262527",
".+	c #39393A",
"++	c #2F2F30",
"@+	c #252527",
"#+	c #151617",
"$+	c #000103",
"%+	c #2B1E05",
"&+	c #E5AB0B",
"*+	c #F7BE0B",
"=+	c #F0B814",
"-+	c #D9980B",
";+	c #BF8307",
">+	c #CB9209",
",+	c #CF990B",
"'+	c #E1A70C",
")+	c #F1B80C",
"!+	c #EBB00A",
"~+	c #AF7506",
"{+	c #020202",
"]+	c #000004",
"^+	c #3A2705",
"/+	c #D09307",
"(+	c #EEB50F",
"_+	c #E8AF0B",
":+	c #D0950D",
"<+	c #986506",
"[+	c #915F05",
"}+	c #734905",
"|+	c #402C07",
"1+	c #885905",
"2+	c #A57106",
"3+	c #A16D06",
"                                                ",
"                  . . . . +                     ",
"                  . . . @ # $ %                 ",
"                . . . . & * % .                 ",
"                = - ; = > , @ . .               ",
"                ' ) ! ~ { ] ^ . .               ",
"                / ( _ : < [ } . .               ",
"                | 1 2 3 4 5 6 . .               ",
"                7 8 9 0 a b c = =               ",
"                d e f g h i j k                 ",
"                l m n o p q r s t               ",
"              = u v w x y z A B = ;             ",
"              C D E F G H E A I = . .           ",
"            s J K G L M G N O P & Q R .         ",
"          = } S T U G E V V W X Y Z ` .         ",
"           ...U +.G @.E E E G #.$.%.&.R         ",
"          = *.A E #.=.G E E E E -.;.s . .       ",
"        >.= A F E ,.'.G E F E =.A ).>.. .       ",
"        !.~.A {.E ,.].E M ^.E E A /.(.= .       ",
"        _.= A T E ,.:.E E E G T A /.<.[.}.      ",
"        |.1.2.K A F 3.E E F E 4.5.6.s 7.8.      ",
"  9.0.a.b.c.d.e.f.A V E E G +.g.h.i.j.k.l.m.    ",
"  n.o.p.p.p.q.r.= s.+.E E E +.t.u.v.w.x.p.y.    ",
"  z.A.p.p.p.B.C.D.E.+.M W +.A F.G.H.I.J.p.K.L.  ",
"  M.b.p.p.p.p.N.O.A A A A P.Q.R.S.T.p.p.U.V.W.  ",
"  X.Y.Z.J.p.p.B.`. +.+++@+#+$+%+&+J.p.*+=+-+    ",
"    ;+>+,+'+)+!+~+{+= s % R ]+^+/+(+_+:+        ",
"            <+[+}+            |+1+2+3+          ",
"                                                "};
