/* XPM */
static const char * zoom_in_xpm[] = {
"16 14 9 1",
" 	c None",
".	c #000000",
"+	c #65D3FF",
"@	c #FFFFFF",
"#	c #4C9CBA",
"$	c #BCBCBC",
"%	c #7F7F7F",
"&	c #FFD07A",
"*	c #B76F0B",
"        .....   ",
"       ..+++..  ",
"      ..+@.++.. ",
"      .+@@.+++. ",
"      .+.....+. ",
"      .+@+.++#. ",
"      ..++.+#.. ",
"      $..+##..  ",
"    ..%$.....   ",
"   .&*.         ",
"  .&**.         ",
" .&**.          ",
" .**.           ",
"  ..            "};
