<?xml version="1.0" encoding="UTF-8" standalone="no"?>
<!-- Created with Inkscape (http://www.inkscape.org/) -->

<svg
   xmlns:dc="http://purl.org/dc/elements/1.1/"
   xmlns:cc="http://creativecommons.org/ns#"
   xmlns:rdf="http://www.w3.org/1999/02/22-rdf-syntax-ns#"
   xmlns:svg="http://www.w3.org/2000/svg"
   xmlns="http://www.w3.org/2000/svg"
   xmlns:sodipodi="http://sodipodi.sourceforge.net/DTD/sodipodi-0.dtd"
   xmlns:inkscape="http://www.inkscape.org/namespaces/inkscape"
   width="32"
   height="32"
   viewBox="0 0 8.4666665 8.466667"
   version="1.1"
   id="svg8"
   inkscape:version="0.92.1 r15371"
   sodipodi:docname="sequencer64.svg"
   inkscape:export-filename="sequencer64.png"
   inkscape:export-xdpi="768"
   inkscape:export-ydpi="768">
  <defs
     id="defs2" />
  <sodipodi:namedview
     id="base"
     pagecolor="#ffffff"
     bordercolor="#666666"
     borderopacity="1.0"
     inkscape:pageopacity="0.0"
     inkscape:pageshadow="2"
     inkscape:zoom="11.2"
     inkscape:cx="12.075004"
     inkscape:cy="16.534796"
     inkscape:document-units="mm"
     inkscape:current-layer="layer1"
     showgrid="true"
     units="px"
     inkscape:window-width="1884"
     inkscape:window-height="1051"
     inkscape:window-x="0"
     inkscape:window-y="0"
     inkscape:window-maximized="1">
    <inkscape:grid
       type="xygrid"
       id="grid4485"
       empspacing="4" />
  </sodipodi:namedview>
  <metadata
     id="metadata5">
    <rdf:RDF>
      <cc:Work
         rdf:about="">
        <dc:format>image/svg+xml</dc:format>
        <dc:type
           rdf:resource="http://purl.org/dc/dcmitype/StillImage" />
        <dc:title></dc:title>
      </cc:Work>
    </rdf:RDF>
  </metadata>
  <g
     inkscape:label="Calque 1"
     inkscape:groupmode="layer"
     id="layer1"
     transform="translate(0,-288.53332)">
    <rect
       style="fill:#8e8e8e;fill-opacity:1;stroke:none;stroke-width:0.26458332;stroke-miterlimit:4;stroke-dasharray:none;stroke-opacity:1"
       id="rect915"
       width="8.4666662"
       height="8.4666615"
       x="0"
       y="288.53333"
       ry="2.1166615" />
    <path
       inkscape:connector-curvature="0"
       style="fill:#808080;fill-opacity:1;stroke:none;stroke-width:0.25420344;stroke-miterlimit:4;stroke-dasharray:none;stroke-opacity:1"
       d="m 2.1166667,292.76666 v 0.52917 0.52916 h 0.5291667 v -0.52916 h 3.7041669 v 1.5875 H 3.7041668 v -0.52917 H 3.1750002 v 0.52917 H 1.5875 v 0.52916 h 5.8208333 v 0.52917 h 0.529167 v -0.52917 h 0.5291664 v 0 -2.64584 l 5e-7,10e-6 H 7.1437502 6.085417 Z m 1.0583335,1.5875 v -0.52917 H 2.6458334 v 0.52917 z m 3.7041667,-1.05833 h 1.5875003 v 1.5875 H 7.9375003 v -0.52917 h -0.529167 v 0.52917 H 6.8791669 Z m -2.6458336,0.52916 v 0.52917 h 1.0583336 v -0.52917 z"
       id="rect961-6-7-5"
       sodipodi:nodetypes="ccccccccccccccccccccccccccccccccccccccccccc" />
    <path
       inkscape:connector-curvature="0"
       style="fill:#6c6c6c;fill-opacity:1;stroke:none;stroke-width:0.25420344;stroke-miterlimit:4;stroke-dasharray:none;stroke-opacity:1"
       d="m 1.5875,292.23749 v 0.52917 0.52916 h 0.5291667 v -0.52916 h 3.7041667 v 1.5875 H 3.1750001 v -0.52917 H 2.6458335 v 0.52917 H 1.0583333 v 0.52916 h 5.8208334 v 0.52917 h 0.5291667 v -0.52917 h 0.79375 0.2645833 v -2.64583 H 7.9375003 Z m 1.0583335,1.5875 v -0.52917 H 2.1166667 v 0.52917 z m 3.7041666,-1.05833 h 1.5875002 v 1.5875 H 7.4083334 v -0.52917 H 6.8791667 v 0.52917 H 6.3500001 Z m -2.6458334,0.52916 v 0.52917 h 1.0583334 v -0.52917 z"
       id="rect961-6-7"
       sodipodi:nodetypes="ccccccccccccccccccccccccccccccccccccccccc" />
    <path
       inkscape:connector-curvature="0"
       style="fill:#585858;fill-opacity:1;stroke:none;stroke-width:0.25420344;stroke-miterlimit:4;stroke-dasharray:none;stroke-opacity:1"
       d="m 1.0583333,291.70832 v 0.52917 0.52916 H 1.5875 v -0.52916 h 3.7041667 v 1.5875 H 2.6458334 v -0.52917 H 2.1166667 v 0.52917 H 0.52916667 v 0.52916 H 6.35 v 0.52917 h 0.5291667 v -0.52917 H 7.9375 v -2.64583 z m 1.0583334,1.5875 v -0.52917 H 1.5875 v 0.52917 z m 3.7041667,-1.05833 h 1.5875 v 1.5875 H 6.8791667 v -0.52917 H 6.35 v 0.52917 H 5.8208334 Z M 3.175,292.76665 v 0.52917 h 1.0583334 v -0.52917 z"
       id="rect961-6"
       sodipodi:nodetypes="ccccccccccccccccccccccccccccccccccccccc" />
    <path
       style="fill:#f2f2f2;fill-opacity:1;stroke:none;stroke-width:0.96076888;stroke-miterlimit:4;stroke-dasharray:none;stroke-opacity:1"
       d="m 2,10 v 2 2 h 2 v -2 h 14 v 6 H 8 V 16 H 6 v 2 H 0 v 2 h 22 v 2 h 2 v -2 h 4 V 10 Z m 4,6 V 14 H 4 v 2 z m 14,-4 h 6 v 6 h -2 v -2 h -2 v 2 h -2 z m -10,2 v 2 h 4 v -2 z"
       transform="matrix(0.26458333,0,0,0.26458333,0,288.53332)"
       id="rect961"
       inkscape:connector-curvature="0"
       sodipodi:nodetypes="ccccccccccccccccccccccccccccccccccccccc" />
  </g>
</svg>
