/* XPM */
static const char * collapse_xpm[] = {
"27 11 3 1",
" 	c None",
".	c #000000",
"+	c #FFFFFF",
"                           ",
"  .......         .......  ",
"  .+.....    .    .++++..  ",
"  .+.....   ..    .+...+.  ",
"  .+.....  ...    .+...+.  ",
"  .+..... ....... .++++..  ",
"  .+.....  ...    .+.+...  ",
"  .+.....   ..    .+..+..  ",
"  .+++++.    .    .+...+.  ",
"  .......         .......  ",
"                           "};
