/* XPM */
static char * drum_xpm[] = {
"21 20 9 1",
" 	c None",
".	c #FFFFFF",
"+	c #FFF000",
"@	c #3B3B3B",
"#	c #BF8701",
"$	c #000000",
"%	c #BFE8FF",
"&	c #56BEFF",
"*	c #357293",
"         .   .       ",
"    .   +   +        ",
"     +      @    ##  ",
"      @@   @@   ##   ",
" .      @  @   ##    ",
"  +   $$@@$@$$##     ",
"    $$...@.@.##$$    ",
"  $@@@@.....##...$$  ",
" $....@@@@.##......$ ",
"$...................$",
"$$.................$$",
"$%$$.............$$&$",
"$%%%$$.........$$&&&$",
"$%&&&&$$$$$$$$$&&&&&$",
"$%&&&&&&&&&&&&&&&&&&$",
"$%&&&&&&&&&&&&&&&&&*$",
" $&&&&&&&&&&&&&&&**$ ",
"  $$&&&&&&&&&&&**$$  ",
"    $$*********$$    ",
"      $$$$$$$$$      "};
