/* XPM */
static const char * rec_xpm[] = {
"36 14 10 1",
" 	c None",
".	c #000000",
"+	c #FFFFFF",
"@	c #BFD8FF",
"#	c #9E9E9E",
"$	c #82B1FF",
"%	c #1E56AA",
"&	c #FFBABA",
"*	c #FF5454",
"=	c #B51E1E",
"    ......                ..........",
"  ...+..+...              .@@@@@@@@.",
" ..+++##+++..       .     .@$$$$$$%.",
" .++++++++++.       ..    .@$$$$$$%.",
"..++++++++++..      .&.   .@$$$$$$%.",
".++++++++++++. ......&*.  .@$$$$$$%.",
".+..++++++..+. .&&&&&***. .@$$$$$$%.",
".+#.++++++.#+. .*******=. .@$$$$$$%.",
".++++++++++++. ......*=.  .@$$$$$$%.",
"..+..++++..+..      .=.   .@$$$$$$%.",
" .+#.+..+.#+.       ..    .@$$$$$$%.",
" ..+++..+++..       .     .@$$$$$$%.",
"  ...++++...              .%%%%%%%%.",
"    ......                .........."};
