/* XPM */
static const char * expand_xpm[] = {
"33 11 4 1",
" 	c None",
".	c #000000",
"+	c #FFFFFF",
"@	c #BDBEBD",
"             ................    ",
"             .              .    ",
"  .......    .    .......   .    ",
"  .+.....   ...   .++++..   .    ",
"  .+.....  ..@..  .+...+. .....  ",
"  .+.....  .@@@.  .+...+.  ...   ",
"  .+.....  .@@@.  .++++..   .    ",
"  .+.....  .@@@.  .+.+...        ",
"  .+.....  .@@@.  .+..+..        ",
"  .+++++.  .....  .+...+.        ",
"  .......         .......        "};
