/* XPM */
static const char * key_xpm[] = {
"13 14 3 1",
" 	c None",
".	c #000000",
"+	c #F2D91A",
"     .....   ",
"     .+++.   ",
"     .+...   ",
"     .+++.   ",
"     .+...   ",
"     .+.     ",
"     .+.     ",
"   ...+...   ",
"   .+++++.   ",
"   .+...+.   ",
"   .+. .+.   ",
"   .+...+.   ",
"   .+++++.   ",
"   .......   "};
