/* XPM */
static const char * length_xpm[] = {
"36 11 2 1",
" 	c None",
".	c #000000",
"  ................................  ",
"  ................................  ",
"                                    ",
"  ................                  ",
"  ................                  ",
"                                    ",
"  ........                          ",
"  ........                          ",
"                                    ",
"  ....                              ",
"  ....                              "};
