/* XPM */
static char * logo_xpm[] = {
"25 25 203 2",
"  	c None",
". 	c #FF0000",
"+ 	c #A9A709",
"@ 	c #ADAB09",
"# 	c #B1B009",
"$ 	c #B5B308",
"% 	c #B9B708",
"& 	c #BCBA07",
"* 	c #BFBD07",
"= 	c #C2C006",
"- 	c #C4C206",
"; 	c #C5C406",
"> 	c #C6C506",
", 	c #C7C606",
"' 	c #C8C506",
") 	c #C7C506",
"! 	c #C6C406",
"~ 	c #C4C307",
"{ 	c #000000",
"] 	c #B1B008",
"^ 	c #ACAB09",
"/ 	c #B1AF09",
"( 	c #B5B408",
"_ 	c #B9B807",
": 	c #BDBB07",
"< 	c #C1BF06",
"[ 	c #C9C806",
"} 	c #CBC905",
"| 	c #CDCB06",
"1 	c #CDCC06",
"2 	c #CECC06",
"3 	c #CCCB05",
"4 	c #CBC906",
"5 	c #C9C706",
"6 	c #C7C507",
"7 	c #C0BF06",
"8 	c #B0B009",
"9 	c #AFAD09",
"0 	c #B4B208",
"a 	c #B8B707",
"b 	c #C1C006",
"c 	c #C5C407",
"d 	c #C9C705",
"e 	c #CCCA05",
"f 	c #CECD05",
"g 	c #D1CF05",
"h 	c #D2D005",
"i 	c #D3D105",
"j 	c #D2D105",
"k 	c #CFCD05",
"l 	c #B4B308",
"m 	c #B2B108",
"n 	c #B8B608",
"o 	c #BCBB07",
"p 	c #C1BF07",
"q 	c #CDCC05",
"r 	c #D3D205",
"s 	c #D6D405",
"t 	c #D7D604",
"u 	c #D9D704",
"v 	c #D8D704",
"w 	c #D8D605",
"x 	c #D6D504",
"y 	c #CAC806",
"z 	c #B7B607",
"A 	c #C0BE07",
"B 	c #C4C306",
"C 	c #D1D005",
"D 	c #DCD904",
"E 	c #DEDC03",
"F 	c #DEDD03",
"G 	c #DDDB04",
"H 	c #DBDA04",
"I 	c #D5D405",
"J 	c #CDCB05",
"K 	c #BFBE07",
"L 	c #BAB908",
"M 	c #C2C107",
"N 	c #C8C606",
"O 	c #DEDB04",
"P 	c #E0DE03",
"Q 	c #E3E103",
"R 	c #E5E203",
"S 	c #E4E202",
"T 	c #DAD804",
"U 	c #BDBC07",
"V 	c #C5C307",
"W 	c #CAC805",
"X 	c #DEDC04",
"Y 	c #E2E003",
"Z 	c #E6E403",
"` 	c #E9E602",
" .	c #EAE803",
"..	c #EAE702",
"+.	c #E8E603",
"@.	c #D9D805",
"#.	c #D4D204",
"$.	c #C5C306",
"%.	c #C6C407",
"&.	c #CBCA06",
"*.	c #DCDA03",
"=.	c #E1DF03",
"-.	c #E5E402",
";.	c #EAE802",
">.	c #EEEC02",
",.	c #F0ED02",
"'.	c #F0EE02",
").	c #D8D604",
"!.	c #E3E102",
"~.	c #F2F002",
"{.	c #F5F301",
"].	c #DFDD03",
"^.	c #E5E302",
"/.	c #F0EF02",
"(.	c #F6F301",
"_.	c #FAF901",
":.	c #FBF800",
"<.	c #EBE802",
"[.	c #DFDE03",
"}.	c #D9D804",
"|.	c #C8C706",
"1.	c #C3C007",
"2.	c #E4E303",
"3.	c #EBE903",
"4.	c #EBE902",
"5.	c #E5E303",
"6.	c #DFDD04",
"7.	c #DEDD04",
"8.	c #E4E203",
"9.	c #D9D604",
"0.	c #C2C007",
"a.	c #CCCB06",
"b.	c #E1E003",
"c.	c #EBEA03",
"d.	c #EFED02",
"e.	c #F1EF02",
"f.	c #DCDB04",
"g.	c #D7D504",
"h.	c #C6C507",
"i.	c #CFCE05",
"j.	c #E7E503",
"k.	c #EBEA02",
"l.	c #E9E802",
"m.	c #D5D305",
"n.	c #C0BD07",
"o.	c #E2E004",
"p.	c #E6E303",
"q.	c #D2D004",
"r.	c #C3C107",
"s.	c #C1BE07",
"t.	c #D6D505",
"u.	c #CECD06",
"v.	c #C0BE06",
"w.	c #BBB907",
"x.	c #C7C406",
"y.	c #CAC905",
"z.	c #B0AF09",
"A.	c #BAB808",
"B.	c #BEBD07",
"C.	c #D0CE05",
"D.	c #D4D205",
"E.	c #D4D305",
"F.	c #CAC906",
"G.	c #ADAC09",
"H.	c #B6B408",
"I.	c #C9C606",
"J.	c #BAB907",
"K.	c #B6B508",
"L.	c #B1B108",
"M.	c #A9A809",
"N.	c #AEAC09",
"O.	c #B2B008",
"P.	c #C3C207",
"Q.	c #C8C806",
"R.	c #BDBC08",
"S.	c #BAB807",
"T.	c #B2B009",
"U.	c #AEAD09",
"V.	c #A6A40A",
"W.	c #AAA80A",
"X.	c #B8B607",
"Y.	c #BEBC08",
"Z.	c #C1C007",
"`.	c #C3C106",
" +	c #C3C206",
".+	c #BBBA08",
"++	c #B8B708",
"@+	c #ADAD09",
"#+	c #AAA809",
"$+	c #A2A00A",
"%+	c #A5A40A",
"&+	c #AAA909",
"*+	c #B3B208",
"=+	c #B0AF08",
"-+	c #A9A80A",
";+	c #A6A409",
">+	c #9E9C0A",
",+	c #ACAA09",
"'+	c #B3B209",
")+	c #B3B108",
"!+	c #ABAA09",
"~+	c #A8A709",
"{+	c #A5A30A",
". . . . . . . . . . . . . . . . . . . . . . . . . ",
". + @ # $ % & * = - ; > , ' ) ! ~ = { { { { ] ^ . ",
". ^ / ( _ : < ~ ) [ } | 1 2 3 4 5 6 { 7 { { $ 8 . ",
". 9 0 a : b c d e f g h i i j g k { { ; { { % l . ",
". m n o p ! [ q g r s t u v w x { { 1 y { { o z . ",
". { { A B 5 | C { { D E F F G H { I C J { { K L . ",
". { { M N e g { { O P Q R S Q { { T s g { { = U . ",
". { { V W k { { X Y Z `  ...+.{ Y E @.#.{ { $.* . ",
". { { %.&.{ { *.=.-.;.>.,.'.{ { { { { { { { { { . ",
". { { ) { { ).E !.` >.~.{.{.{ { { { { { { { { { . ",
". { { { { { u ].^.;./.(._.:.(.'.<.R [.}.{ { |.1.. ",
". { { { { { }.[.2.3.{ { { { { { 4.5.6.u { { |.M . ",
". { { N q { { 7.8.{ { { { { { { { 8.F 9.{ { N 0.. ",
". { { ) a.{ { { b.{ c.d.e.e.d.{ { { f.g.{ { h.< . ",
". { { V 4 i.{ { ].Q j. .4.k.l.j.{ { T m.{ { V n.. ",
". { { M N q C { { 6.o.2.-.p.8.{ { { g.q.| N r.U . ",
". { { s.; W k { { { G { { { { { { t.j u.y $.v.w.. ",
". { { : b x.4 u.{ { t { { { { { { j k y.> = U n . ",
". z.$ A.B.M > y J C.j D.D.E.D.{ { { F.) r.B.A.( . ",
". G.# H.L B.0.c I.4 | 1 f u.1 3 { { ; 0.B.J.K.L.. ",
". M.N.O.H._ U A P.! , N 5 Q.N ) { { p R.S.K.T.U.. ",
". V.W.U.L.H.X.& Y.{ Z.`. +r.`.{ { { .+++( # @+#+. ",
". $+%+&+G./ *+K.++{ { { { { { { { % K.*+=+G.-+;+. ",
". >+$+%++ ,+U.8 '+$ { { { { { { $ )+# 9 !+~+{+$+. ",
". . . . . . . . . . . . . . . . . . . . . . . . . "};
