/* XPM */
static const char * loop_xpm[] = {
"33 12 3 1",
" 	c None",
".	c #000000",
"+	c #FFFFFF",
"                                 ",
"              .                  ",
"  .......     ..        .......  ",
"  .+.....   .....  ..   .++++..  ",
"  .+.....  .  ..     .  .+...+.  ",
"  .+..... .   .       . .+...+.  ",
"  .+..... .           . .++++..  ",
"  .+..... .           . .+.+...  ",
"  .+.....  .         .  .+..+..  ",
"  .+++++.   .........   .+...+.  ",
"  .......               .......  ",
"                                 "};
