/* XPM */
static char * panic_xpm[] = {
"20 20 3 1",
" 	c None",
".	c #000000",
"+	c #DCE339",
"                    ",
"        ....        ",
"       ......       ",
"       ..++..       ",
"      ..++++..      ",
"      ..+..+..      ",
"     ..++..++..     ",
"     ..++..++..     ",
"    ..+++..+++..    ",
"    ..+++..+++..    ",
"   ..++++..++++..   ",
"   ..++++..++++..   ",
"  ..++++++++++++..  ",
"  ..++++++++++++..  ",
" ..++++++..++++++.. ",
" ..++++++..++++++.. ",
" .++++++++++++++++. ",
" .................. ",
" .................. ",
"                    "};
