/* XPM */
static char * play2_xpm[] = {
"20 15 6 1",
" 	c None",
".	c #E8DE1B",
"+	c #000000",
"@	c #1BE820",
"#	c #1E1BE8",
"$	c #E8251B",
"                    ",
" .................  ",
"                    ",
"  + + + + + + + + + ",
"                    ",
"  @@@@@@@@@@@@@@@@@ ",
"                    ",
" + + + + + + + + +  ",
"                    ",
"  ###########       ",
"                    ",
"  + + + + + + + + + ",
"                    ",
"    $$$$$$$$$$$$$$$ ",
"                    "};
