/* XPM */
static const char * tools_xpm[] = {
"13 14 5 1",
" 	c None",
".	c #000000",
"+	c #9B9B9B",
"@	c #DDB36A",
"#	c #C4922F",
" ......... ..",
"....+++++...+",
".  ..........",
"   ....... ..",
"     .@.     ",
"     .@.     ",
"     .@.     ",
"     .@.     ",
"     .#.     ",
"     .#.     ",
"     .#.     ",
"     .#.     ",
"     .#.     ",
"     ...     "};
