/* XPM */
static const char * zoom_xpm[] = {
"16 14 10 1",
" 	c None",
".	c #000000",
"+	c #65D3FF",
"@	c #FFFFFF",
"#	c #E5E5E5",
"$	c #4C9CBA",
"%	c #BCBCBC",
"&	c #7F7F7F",
"*	c #FFD07A",
"=	c #B76F0B",
"        .....   ",
"       ..+++..  ",
"      ..+@#++.. ",
"      .+@@++++. ",
"      .+++++++. ",
"      .+@++++$. ",
"      ..++++$.. ",
"      %..+$$..  ",
"    ..&%.....   ",
"   .*=.         ",
"  .*==.         ",
" .*==.          ",
" .==.           ",
"  ..            "};
