/* XPM */
static const char * seq24_xpm[] = {
"32 32 70 1",
" 	c None",
".	c #FFFFFF",
"+	c #DDDDDD",
"@	c #C5C5C5",
"#	c #9F9F9F",
"$	c #B6B6B6",
"%	c #EEEEEE",
"&	c #EDEDED",
"*	c #B7B7B7",
"=	c #C4C4C4",
"-	c #E0E0E0",
";	c #FBFBFB",
">	c #A9A9A9",
",	c #D2D2D2",
"'	c #666666",
")	c #282828",
"!	c #4C4C4C",
"~	c #777777",
"{	c #D3D3D3",
"]	c #080808",
"^	c #DEDEDE",
"/	c #414141",
"(	c #333333",
"_	c #292929",
":	c #636363",
"<	c #C6C6C6",
"[	c #494949",
"}	c #000000",
"|	c #F5F5F5",
"1	c #1C1C1C",
"2	c #D1D1D1",
"3	c #646464",
"4	c #898989",
"5	c #696969",
"6	c #C8C8C8",
"7	c #D5D5D5",
"8	c #141414",
"9	c #ACACAC",
"0	c #8A8A8A",
"a	c #C1C1C1",
"b	c #A4A4A4",
"c	c #4F4F4F",
"d	c #7B7B7B",
"e	c #222222",
"f	c #181818",
"g	c #3E3E3E",
"h	c #030303",
"i	c #D6D6D6",
"j	c #EAEAEA",
"k	c #EFEFEF",
"l	c #AEAEAE",
"m	c #090909",
"n	c #F7F7F7",
"o	c #3A3A3A",
"p	c #0E0E0E",
"q	c #F1F1F1",
"r	c #A6A6A6",
"s	c #FCFCFC",
"t	c #A2A2A2",
"u	c #606060",
"v	c #808080",
"w	c #828282",
"x	c #3C3C3C",
"y	c #FEFEFE",
"z	c #D0D0D0",
"A	c #F8F8F8",
"B	c #FAFAFA",
"C	c #848484",
"D	c #FDFDFD",
"E	c #F2F2F2",
"................................",
"................................",
"................................",
"................................",
"................................",
"................................",
"++++++++++++++++++++++++++++++++",
"@####$%#####&*####=-#####;>%..=,",
"')!!!~{]!!!!^/(!!_:<!!![}|12..34",
"'56667{86666|/9..0:&666a}|1b66c4",
"deeefg{heeeei/9jk0:lmeeeenoeeep4",
"nqqqrg{fqqqqs/tuvw:lxqqqqy....34",
"'}}}}g{}}}}}z/}}}}:l}}}}}|....34",
";AAAAByAAAAAyBA:CA;DAAAAA.....;s",
"...............%E...............",
"................................",
"................................",
"................................",
"................................",
"................................",
"................................",
"................................",
"................................",
"................................",
"................................",
"................................",
"................................",
"................................",
"................................",
"................................",
"................................",
"................................"};
