/* XPM */
static const char * sequencer64_xpm[] = {
"32 32 39 1",
" 	c None",
".	c #279F9F",
"+	c #80F3F5",
"@	c #9F9F9F",
"#	c #B6B6B6",
"$	c #91F2F3",
"%	c #32AAAA",
"&	c #B7B7B7",
"*	c #C4C4C4",
"=	c #A9A9A9",
"-	c #666666",
";	c #000000",
">	c #777777",
",	c #080808",
"'	c #4C4C4C",
")	c #636363",
"!	c #C6C6C6",
"~	c #494949",
"{	c #D1D1D1",
"]	c #898989",
"^	c #141414",
"/	c #C8C8C8",
"(	c #ACACAC",
"_	c #70F4F6",
":	c #8A8A8A",
"<	c #C1C1C1",
"[	c #A4A4A4",
"}	c #7B7B7B",
"|	c #030303",
"1	c #222222",
"2	c #D1ECEC",
"3	c #AEAEAE",
"4	c #A6A6A6",
"5	c #181818",
"6	c #A2A2A2",
"7	c #606060",
"8	c #808080",
"9	c #828282",
"0	c #848484",
"................................",
"................................",
"................................",
"................................",
"................................",
"................................",
"................................",
"+@@@@#$@@@@@%&@@@@*.@@@@..=$..*.",
"-;;;;>.,;;;'.;;;;;)!,;;~..;{..;]",
"-;+++..^////+;(__:;+^//<..;[//;]",
"};;;;;.|;;;1+;(2+:;3|;;;;.;;;;;]",
"____4;.5_____;6789;35__4;.....;]",
"-;;;;;.;;;;;+;;;;;)3;;;;;.....;]",
"...............;0...............",
"...............$................",
"................................",
"@@@@@...........................",
".;;;;;...........@@@@@..........",
"....@@@@@@@.......;;;;;.........",
".....;;;;;;;...........@@@@@....",
".........@@@@@..........;;;;;...",
"........@+;;;;;.................",
".........;..........@@@@@.......",
".....................;;;;;......",
"@@@@+@@@@@@@+@@@@@@@@+@@@@@@@@..",
".;;;;+;;;;;;;+;;;;;;;;+;;;;;;;;.",
"................................",
"................................",
"................................",
"................................",
"................................",
"................................"};
