Hex dump of b4uacuse.mid
Chris Ahlstrom
2015-10-11

This is the original MIDI file, before Seq24 or Sequencer64 got ahold of it.
Note that it doesn't seem to include any track numbers.  I cannot recall if
this file was written by Edit Track on the Atari ST, or by Cakewalk for DOS or
Windows on the PC.

Created using vim and the command :%!xxd -g 1

00000000: 4d 54 68 64 00 00 00 06 00 01 00 0e 00 78 4d 54  MThd.........xMT
00000010: 72 6b 00 00 00 19 00 ff 58 04 04 02 18 08 00 ff  rk......X.......
00000020: 59 02 00 00 00 ff 51 03 08 e3 7c 00 ff 2f 00 4d  Y.....Q...|../.M
00000030: 54 72 6b 00 00 00 2b 00 ff 21 01 00 00 ff 03 0f  Trk...+..!......
00000040: 50 53 53 2d 37 39 30 20 50 61 74 63 68 69 6e 00  PSS-790 Patchin.
00000050: c2 26 00 c5 19 00 c3 57 00 c1 0c 00 c4 48 00 ff  .&.....W.....H..
00000060: 2f 00 4d 54 72 6b 00 00 38 fa 00 ff 21 01 00 00  /.MTrk..8...!...
00000070: ff 03 0f 47 75 69 74 61 72 20 31 20 28 45 2e 43  ...Guitar 1 (E.C
00000080: 2e 29 82 68 90 47 7f 1e 47 00 0a e0 00 40 00 90  .).h.G..G....@..
00000090: 4a 7f 05 e0 00 41 0a 00 42 07 00 41 05 00 40 03  J....A..B..A..@.
000000a0: 90 4a 00 0a 4c 7f 1e 4c 00 0a 4f 7f 43 e0 00 41  .J..L..L..O.C..A
000000b0: 05 00 42 05 00 44 05 00 44 05 00 42 08 00 41 0a  ..B..D..D..B..A.
000000c0: 49 40 07 00 40 08 90 4f 00 00 4c 7f 1e 4c 00 0a  I@..@..O..L..L..
000000d0: 4a 7f 1e 4a 00 0a 4c 7f 1e 4c 00 0a 4f 7f 05 e0  J..J..L..L..O...
000000e0: 00 41 0a 00 42 07 00 41 05 00 40 03 90 4f 00 02  .A..B..A..@..O..
000000f0: e0 00 40 00 00 40 00 00 40 08 90 4c 7f 1e 4c 00  ..@..@..@..L..L.
00000100: 0a 47 7f 1e 47 00 0a 45 7f 1e 45 00 0a 44 7f 1e  .G..G..E..E..D..
00000110: 44 00 0a 40 7f 1e 40 00 0a 47 7f 00 40 7f 00 4c  D..@..@..G..@..L
00000120: 7f 00 44 7f 46 44 00 00 47 00 00 40 00 00 4c 00  ..D.FD..G..@..L.
00000130: 0a 39 7f 1e 39 00 0a 3b 7f 00 3f 7f 00 4b 7f 14  .9..9..;..?..K..
00000140: 4b 00 32 3f 00 00 3b 00 0a 3b 7f 00 3f 7f 00 4b  K.2?..;..;..?..K
00000150: 7f 14 4b 00 5a 3f 00 00 3b 00 0a 3b 7f 1e 3b 00  ..K.Z?..;..;..;.
00000160: 0a 3e 7f 1e 3e 00 0a 3f 7f 1e 3f 00 0a 40 7f 1e  .>..>..?..?..@..
00000170: 40 00 0a 34 7f 00 3b 7f 46 3b 00 00 34 00 0a 34  @..4..;.F;..4..4
00000180: 7f 1e 34 00 0a 34 7f 00 3d 7f 46 3d 00 00 34 00  ..4..4..=.F=..4.
00000190: 0a 34 7f 1e 34 00 0a 34 7f 00 3b 7f 46 3b 00 00  .4..4..4..;.F;..
000001a0: 34 00 0a 34 7f 1e 34 00 0a 34 7f 00 3d 7f 46 3d  4..4..4..4..=.F=
000001b0: 00 00 34 00 0a 34 7f 0a 34 00 1e 3e 7f 00 34 7f  ..4..4..4..>..4.
000001c0: 5a 34 00 00 3e 00 1e 3d 7f 00 34 7f 5a 34 00 00  Z4..>..=..4.Z4..
000001d0: 3d 00 1e 34 7f 00 3b 7f 46 3b 00 00 34 00 0a 34  =..4..;.F;..4..4
000001e0: 7f 1e 34 00 0a 3e 7f 1e 3e 00 0a 3d 7f 1e 3d 00  ..4..>..>..=..=.
000001f0: 0a 39 7f 1e 39 00 0a 39 7f 00 40 7f 46 40 00 00  .9..9..9..@.F@..
00000200: 39 00 0a 39 7f 1e 39 00 0a 39 7f 00 42 7f 46 42  9..9..9..9..B.FB
00000210: 00 00 39 00 0a 39 7f 1e 39 00 0a 39 7f 00 40 7f  ..9..9..9..9..@.
00000220: 46 40 00 00 39 00 0a 39 7f 00 45 7f 14 45 00 0a  F@..9..9..E..E..
00000230: 39 00 0a 39 7f 00 42 7f 00 4e 7f 0f 4e 00 37 42  9..9..B..N..N.7B
00000240: 00 00 39 00 0a 40 7f 1e 40 00 0a 34 7f 00 3b 7f  ..9..@..@..4..;.
00000250: 46 3b 00 00 34 00 0a 34 7f 1e 34 00 0a 34 7f 00  F;..4..4..4..4..
00000260: 3d 7f 46 3d 00 00 34 00 0a 34 7f 1e 34 00 0a 34  =.F=..4..4..4..4
00000270: 7f 00 3e 7f 46 3e 00 00 34 00 0a 34 7f 1e 34 00  ..>.F>..4..4..4.
00000280: 0a 39 7f 00 40 7f 0f 40 00 00 39 00 19 45 7f 00  .9..@..@..9..E..
00000290: 40 7f 1e 40 00 00 45 00 0a 39 7f 00 40 7f 1e 40  @..@..E..9..@..@
000002a0: 00 00 39 00 08 e0 00 40 02 90 43 7f 01 e0 00 41  ..9....@..C....A
000002b0: 05 00 42 04 00 41 02 90 43 00 00 e0 00 40 03 00  ..B..A..C....@..
000002c0: 3f 00 90 44 7f 02 e0 00 3e 04 00 3f 02 00 40 03  ?..D....>..?..@.
000002d0: 00 41 01 90 44 00 01 e0 00 42 02 90 43 7f 01 e0  .A..D....B..C...
000002e0: 00 41 02 00 40 03 00 3f 02 00 3e 03 00 3f 02 00  .A..@..?..>..?..
000002f0: 40 03 00 41 02 00 42 03 00 41 02 00 40 03 00 3f  @..A..B..A..@..?
00000300: 02 00 3e 04 00 3f 05 00 40 03 90 43 00 0a 47 7f  ..>..?..@..C..G.
00000310: 00 4c 7f 1e 4c 00 00 47 00 0a 36 7f 00 3d 7f 46  .L..L..G..6..=.F
00000320: 3d 00 00 36 00 0a 34 7f 1e 34 00 0a 34 7f 00 3b  =..6..4..4..4..;
00000330: 7f 46 3b 00 00 34 00 0a 34 7f 1e 34 00 0a 37 7f  .F;..4..4..4..7.
00000340: 1e 37 00 0a 39 7f 00 40 7f 1e 40 00 00 39 00 0a  .7..9..@..@..9..
00000350: 39 7f 00 42 7f 1e 42 00 00 39 00 0a 39 7f 00 40  9..B..B..9..9..@
00000360: 7f 46 40 00 00 39 00 0a 39 7f 1e 39 00 0a 3c 7f  .F@..9..9..9..<.
00000370: 00 40 7f 46 40 00 00 3c 00 0a 3d 7f 1e 3d 00 0a  .@.F@..<..=..=..
00000380: 45 7f 00 51 7f 00 40 7f 00 45 7f 0a 51 00 3c 45  E..Q..@..E..Q.<E
00000390: 00 00 40 00 00 45 00 0a 39 7f 1e 39 00 0a 42 7f  ..@..E..9..9..B.
000003a0: 1e 42 00 0a 43 7f 1e 43 00 0a 42 7f 1e 42 00 0a  .B..C..C..B..B..
000003b0: 39 7f 00 40 7f 46 40 00 00 39 00 0a 39 7f 1e 39  9..@.F@..9..9..9
000003c0: 00 0a 42 7f 00 39 7f 46 39 00 00 42 00 0a 39 7f  ..B..9.F9..B..9.
000003d0: 1e 39 00 0a 39 7f 00 40 7f 46 40 00 00 39 00 0a  .9..9..@.F@..9..
000003e0: 39 7f 1e 39 00 0a 39 7f 00 42 7f 46 42 00 00 39  9..9..9..B.FB..9
000003f0: 00 0a 39 7f 1e 39 00 0a 34 7f 00 3b 7f 46 3b 00  ..9..9..4..;.F;.
00000400: 00 34 00 0a 34 7f 1e 34 00 0a 34 7f 00 3d 7f 46  .4..4..4..4..=.F
00000410: 3d 00 00 34 00 0a 34 7f 1e 34 00 0a 34 7f 00 3b  =..4..4..4..4..;
00000420: 7f 46 3b 00 00 34 00 0a 34 7f 1e 34 00 0a 3b 7f  .F;..4..4..4..;.
00000430: 1e 3b 00 0a 45 7f 1e 45 00 0a 3b 7f 1e 3b 00 0a  .;..E..E..;..;..
00000440: e0 00 40 00 90 43 7f 02 e0 00 41 04 00 42 04 00  ..@..C....A..B..
00000450: 41 02 90 43 00 00 e0 00 40 03 00 40 00 90 44 7f  A..C....@..@..D.
00000460: 02 e0 00 3e 03 00 40 02 00 40 01 00 41 02 00 42  ...>..@..@..A..B
00000470: 02 90 44 00 00 e0 00 44 01 00 45 02 00 44 00 90  ..D....D..E..D..
00000480: 43 7f 02 e0 00 42 01 00 41 02 00 40 02 00 3f 01  C....B..A..@..?.
00000490: 00 3e 03 00 3f 02 00 40 03 00 41 02 00 42 02 00  .>..?..@..A..B..
000004a0: 41 02 00 40 01 00 40 03 00 3e 01 00 3e 03 00 3c  A..@..@..>..>..<
000004b0: 02 00 3e 03 00 3e 02 00 40 03 90 43 00 0a 34 7f  ..>..>..@..C..4.
000004c0: 1e 34 00 0a 3d 7f 46 3d 00 0a 34 7f 1e 34 00 0a  .4..=.F=..4..4..
000004d0: 34 7f 00 3b 7f 46 3b 00 00 34 00 0a 34 7f 1e 34  4..;.F;..4..4..4
000004e0: 00 0a 34 7f 00 3d 7f 46 3d 00 00 34 00 0a 34 7f  ..4..=.F=..4..4.
000004f0: 1e 34 00 0a 3b 7f 46 3b 00 0a 45 7f 46 45 00 0a  .4..;.F;..E.FE..
00000500: 47 7f 46 47 00 0a 47 7f 46 47 00 0a 45 7f 6e 45  G.FG..G.FG..E.nE
00000510: 00 0a 37 7f 02 e0 00 40 03 00 3f 02 00 3e 03 90  ..7....@..?..>..
00000520: 37 00 00 e0 00 3c 00 90 38 7f 05 e0 00 3e 05 00  7....<..8....>..
00000530: 3f 05 00 40 07 90 38 00 08 39 7f 00 40 7f 46 40  ?..@..8..9..@.F@
00000540: 00 00 39 00 0a 39 7f 00 40 7f 1e 40 00 00 39 00  ..9..9..@..@..9.
00000550: 0a 42 7f 00 39 7f 46 39 00 00 42 00 0a 39 7f 1e  .B..9.F9..B..9..
00000560: 39 00 0a 39 7f 00 43 7f 5a 43 00 00 39 00 1e 39  9..9..C.ZC..9..9
00000570: 7f 00 42 7f 46 42 00 00 39 00 0a 39 7f 1e 39 00  ..B.FB..9..9..9.
00000580: 0a 34 7f 00 3b 7f 46 3b 00 00 34 00 0a 34 7f 1e  .4..;.F;..4..4..
00000590: 34 00 0a 34 7f 00 3d 7f 46 3d 00 00 34 00 0a 34  4..4..=.F=..4..4
000005a0: 7f 1e 34 00 0a 34 7f 00 3b 7f 46 3b 00 00 34 00  ..4..4..;.F;..4.
000005b0: 0a 34 7f 1e 34 00 0a 34 7f 00 3b 7f 0a 3b 00 00  .4..4..4..;..;..
000005c0: 34 00 1e 40 7f 1e 40 00 0a 40 7f 1e 40 00 0a e0  4..@..@..@..@...
000005d0: 00 40 00 90 43 7f 02 e0 00 41 03 90 43 00 00 44  .@..C....A..C..D
000005e0: 7f 01 e0 00 42 04 90 44 00 00 e0 00 41 00 90 43  ....B..D....A..C
000005f0: 7f 02 e0 00 40 03 00 3f 02 00 3e 04 00 3f 02 00  ....@..?..>..?..
00000600: 40 03 00 41 02 00 42 02 00 41 02 00 40 03 00 3f  @..A..B..A..@..?
00000610: 02 00 3e 03 00 3f 02 00 40 03 00 41 02 00 42 04  ..>..?..@..A..B.
00000620: 00 41 02 00 40 03 00 3f 02 00 3e 05 00 3f 05 00  .A..@..?..>..?..
00000630: 40 02 90 43 00 02 e0 00 40 08 90 3b 7f 1e 3b 00  @..C....@..;..;.
00000640: 0a 3f 7f 00 3b 7f 00 45 7f 46 45 00 00 3b 00 00  .?..;..E.FE..;..
00000650: 3f 00 0a 3f 7f 00 45 7f 00 47 7f 46 47 00 00 45  ?..?..E..G.FG..E
00000660: 00 00 3f 00 0a 45 7f 46 45 00 0a 47 7f 00 45 7f  ..?..E.FE..G..E.
00000670: 00 3f 7f 5a 3f 00 00 45 00 00 47 00 1e 3b 7f 00  .?.Z?..E..G..;..
00000680: 34 7f 46 34 00 00 3b 00 0a 34 7f 1e 34 00 0a 3d  4.F4..;..4..4..=
00000690: 7f 00 34 7f 46 34 00 00 3d 00 0a 34 7f 1e 34 00  ..4.F4..=..4..4.
000006a0: 0a 3e 7f 00 34 7f 46 34 00 00 3e 00 0a 34 7f 1e  .>..4.F4..>..4..
000006b0: 34 00 0a 3d 7f 1e 3d 00 0a 3e 7f 1e 3e 00 0a 42  4..=..=..>..>..B
000006c0: 7f 00 39 7f 1e 39 00 00 42 00 0a 39 7f 00 40 7f  ..9..9..B..9..@.
000006d0: 46 40 00 00 39 00 0a 39 7f 00 40 7f 1e 40 00 00  F@..9..9..@..@..
000006e0: 39 00 0a 42 7f 00 39 7f 46 39 00 00 42 00 0a 39  9..B..9.F9..B..9
000006f0: 7f 00 45 7f 0a 45 00 14 39 00 0a 40 7f 00 39 7f  ..E..E..9..@..9.
00000700: 5a 39 00 00 40 00 1e 42 7f 00 39 7f 46 39 00 00  Z9..@..B..9.F9..
00000710: 42 00 0a 39 7f 1e 39 00 0a 34 7f 00 3b 7f 46 3b  B..9..9..4..;.F;
00000720: 00 00 34 00 0a 34 7f 00 3b 7f 1e 3b 00 00 34 00  ..4..4..;..;..4.
00000730: 0a 3d 7f 00 34 7f 46 34 00 00 3d 00 0a 38 7f 1e  .=..4.F4..=..8..
00000740: 38 00 0a 34 7f 00 3b 7f 46 3b 00 00 34 00 0a 34  8..4..;.F;..4..4
00000750: 7f 1e 34 00 0a 34 7f 0a 34 00 19 45 7f 1e 45 00  ..4..4..4..E..E.
00000760: 0a 40 7f 1e 40 00 0b e0 00 40 02 00 41 02 90 43  .@..@....@..A..C
00000770: 7f 01 e0 00 42 02 00 44 03 00 45 02 90 43 00 00  ....B..D..E..C..
00000780: e0 00 44 02 90 44 7f 01 e0 00 42 01 00 41 01 00  ..D..D....B..A..
00000790: 40 03 00 3f 01 90 44 00 00 e0 00 3e 01 00 3f 02  @..?..D....>..?.
000007a0: 90 43 7f 01 e0 00 40 01 00 41 03 00 42 01 00 44  .C....@..A..B..D
000007b0: 02 24 44 02 00 44 02 00 42 01 00 41 02 00 40 02  .$D..D..B..A..@.
000007c0: 00 3f 01 00 3e 03 00 3f 02 00 40 03 00 41 02 00  .?..>..?..@..A..
000007d0: 42 03 00 41 02 00 40 03 00 3f 02 00 3e 04 00 3f  B..A..@..?..>..?
000007e0: 05 00 40 03 90 43 00 01 e0 00 40 09 90 34 7f 1e  ..@..C....@..4..
000007f0: 34 00 0a 34 7f 00 3d 7f 46 3d 00 00 34 00 0a 34  4..4..=.F=..4..4
00000800: 7f 1e 34 00 0a 34 7f 00 3b 7f 46 3b 00 00 34 00  ..4..4..;.F;..4.
00000810: 0a 34 7f 1e 34 00 0a 3d 7f 00 34 7f 46 34 00 00  .4..4..=..4.F4..
00000820: 3d 00 0a 34 7f 1e 34 00 0a 39 7f 00 40 7f 46 40  =..4..4..9..@.F@
00000830: 00 00 39 00 0a 39 7f 1e 39 00 0a 42 7f 00 39 7f  ..9..9..9..B..9.
00000840: 46 39 00 00 42 00 0a 39 7f 1e 39 00 0a 39 7f 00  F9..B..9..9..9..
00000850: 40 7f 46 40 00 00 39 00 0a 39 7f 00 40 7f 1e 40  @.F@..9..9..@..@
00000860: 00 00 39 00 08 e0 00 40 02 00 41 00 90 42 7f 01  ..9....@..A..B..
00000870: e0 00 42 01 00 44 01 24 44 02 00 44 02 00 42 01  ..B..D.$D..D..B.
00000880: 00 41 03 00 40 01 00 40 03 00 3f 01 00 3e 02 00  .A..@..@..?..>..
00000890: 3c 02 00 3e 01 00 3f 02 00 40 07 90 42 00 0a 43  <..>..?..@..B..C
000008a0: 7f 1e 43 00 0a 42 7f 1e 42 00 0a 40 7f 00 39 7f  ..C..B..B..@..9.
000008b0: 46 39 00 00 40 00 0a 39 7f 1e 39 00 0a 42 7f 00  F9..@..9..9..B..
000008c0: 39 7f 5a 39 00 00 42 00 1e 39 7f 00 40 7f 5a 40  9.Z9..B..9..@.Z@
000008d0: 00 00 39 00 1e 42 7f 00 39 7f 5a 39 00 00 42 00  ..9..B..9.Z9..B.
000008e0: 1e 34 7f 00 3b 7f 46 3b 00 00 34 00 0a 34 7f 1e  .4..;.F;..4..4..
000008f0: 34 00 0a 3d 7f 00 34 7f 46 34 00 00 3d 00 0a 34  4..=..4.F4..=..4
00000900: 7f 1e 34 00 0a 3b 7f 00 34 7f 46 34 00 00 3b 00  ..4..;..4.F4..;.
00000910: 0a 4c 7f 00 34 7f 0a 4c 00 14 34 00 0a 3b 7f 00  .L..4..L..4..;..
00000920: 34 7f 0a 34 00 00 3b 00 1e 55 7f 00 45 7f 00 49  4..4..;..U..E..I
00000930: 7f 0a 55 00 14 49 00 00 45 00 0a 40 7f 1e 40 00  ..U..I..E..@..@.
00000940: 0a e0 00 40 00 90 43 7f 02 e0 00 41 04 00 42 01  ...@..C....A..B.
00000950: 90 43 00 01 e0 00 41 02 90 44 7f 01 e0 00 40 02  .C....A..D....@.
00000960: 00 3f 03 00 3e 02 90 44 00 00 e0 00 3f 02 90 43  .?..>..D....?..C
00000970: 7f 01 e0 00 40 04 00 41 02 00 42 04 00 41 02 00  ....@..A..B..A..
00000980: 40 03 00 3f 02 00 3e 03 00 3f 02 00 40 03 00 41  @..?..>..?..@..A
00000990: 02 00 42 02 00 41 02 00 40 01 00 40 03 00 3f 01  ..B..A..@..@..?.
000009a0: 00 3e 03 00 3c 01 00 3e 02 00 3f 02 00 40 05 90  .>..<..>..?..@..
000009b0: 43 00 0a 34 7f 1e 34 00 0a 34 7f 00 3d 7f 46 3d  C..4..4..4..=.F=
000009c0: 00 00 34 00 0a 34 7f 1e 34 00 0a 34 7f 00 3b 7f  ..4..4..4..4..;.
000009d0: 46 3b 00 00 34 00 0a 34 7f 1e 34 00 0a 34 7f 00  F;..4..4..4..4..
000009e0: 3d 7f 46 3d 00 00 34 00 0a 3e 7f 1e 3e 00 0a 3f  =.F=..4..>..>..?
000009f0: 7f 46 3f 00 0a 45 7f 6e 45 00 0a 47 7f 6e 47 00  .F?..E.nE..G.nG.
00000a00: 0a 45 7f 1e 45 00 0a 47 7f 5a 47 00 1e 40 7f 00  .E..E..G.ZG..@..
00000a10: 39 7f 00 45 7f 46 45 00 00 39 00 00 40 00 0a 39  9..E.FE..9..@..9
00000a20: 7f 00 40 7f 00 45 7f 1e 45 00 00 40 00 00 39 00  ..@..E..E..@..9.
00000a30: 0a 39 7f 00 40 7f 00 45 7f 46 45 00 00 40 00 00  .9..@..E.FE..@..
00000a40: 39 00 0a 39 7f 1e 39 00 0a 39 7f 00 42 7f 00 45  9..9..9..9..B..E
00000a50: 7f 46 45 00 00 42 00 00 39 00 0a 39 7f 1e 39 00  .FE..B..9..9..9.
00000a60: 0a 40 7f 1e 40 00 0a 42 7f 1e 42 00 0a 43 7f 1e  .@..@..B..B..C..
00000a70: 43 00 0a 34 7f 00 3b 7f 46 3b 00 00 34 00 0a 34  C..4..;.F;..4..4
00000a80: 7f 1e 34 00 0a 34 7f 00 3d 7f 46 3d 00 00 34 00  ..4..4..=.F=..4.
00000a90: 0a 34 7f 1e 34 00 0a 34 7f 00 3b 7f 46 3b 00 00  .4..4..4..;.F;..
00000aa0: 34 00 0a 34 7f 00 3b 7f 1e 3b 00 00 34 00 0a 34  4..4..;..;..4..4
00000ab0: 7f 00 3b 7f 0a 3b 00 00 34 00 1e 45 7f 00 40 7f  ..;..;..4..E..@.
00000ac0: 1e 40 00 00 45 00 0a 40 7f 1e 40 00 0a e0 00 40  .@..E..@..@....@
00000ad0: 00 90 43 7f 02 e0 00 41 05 90 43 00 00 e0 00 42  ..C....A..C....B
00000ae0: 03 90 44 7f 01 e0 00 41 02 00 40 03 00 3f 02 90  ..D....A..@..?..
00000af0: 44 00 00 e0 00 3e 02 90 43 7f 01 e0 00 3f 02 00  D....>..C....?..
00000b00: 40 03 00 41 02 00 42 03 00 41 02 00 40 03 00 3f  @..A..B..A..@..?
00000b10: 02 00 3e 03 00 3f 02 00 40 03 00 41 02 00 42 03  ..>..?..@..A..B.
00000b20: 00 41 02 00 40 03 00 40 02 00 3e 04 00 40 08 90  .A..@..@..>..@..
00000b30: 43 00 0a 3b 7f 1e 3b 00 0a 45 7f 46 45 00 0a 47  C..;..;..E.FE..G
00000b40: 7f 46 47 00 0a 45 7f 46 45 00 0a 47 7f 46 47 00  .FG..E.FE..G.FG.
00000b50: 0a 45 7f 1e 45 00 0a 3b 7f 00 34 7f 46 34 00 00  .E..E..;..4.F4..
00000b60: 3b 00 0a 34 7f 1e 34 00 0a 3d 7f 00 34 7f 46 34  ;..4..4..=..4.F4
00000b70: 00 00 3d 00 0a 34 7f 1e 34 00 0a 3e 7f 00 34 7f  ..=..4..4..>..4.
00000b80: 46 34 00 00 3e 00 0a 34 7f 1e 34 00 0a 3d 7f 1e  F4..>..4..4..=..
00000b90: 3d 00 0a 3e 7f 1e 3e 00 0a 42 7f 00 39 7f 1e 39  =..>..>..B..9..9
00000ba0: 00 00 42 00 0a 39 7f 00 40 7f 46 40 00 00 39 00  ..B..9..@.F@..9.
00000bb0: 0a 39 7f 00 40 7f 1e 40 00 00 39 00 0a 42 7f 00  .9..@..@..9..B..
00000bc0: 39 7f 46 39 00 00 42 00 0a 39 7f 00 45 7f 0a 45  9.F9..B..9..E..E
00000bd0: 00 14 39 00 0a 40 7f 00 39 7f 5a 39 00 00 40 00  ..9..@..9.Z9..@.
00000be0: 1e 42 7f 00 39 7f 46 39 00 00 42 00 0a 39 7f 1e  .B..9.F9..B..9..
00000bf0: 39 00 0a 34 7f 00 3b 7f 46 3b 00 00 34 00 0a 34  9..4..;.F;..4..4
00000c00: 7f 00 3b 7f 1e 3b 00 00 34 00 0a 3d 7f 00 34 7f  ..;..;..4..=..4.
00000c10: 46 34 00 00 3d 00 0a 38 7f 1e 38 00 0a 34 7f 00  F4..=..8..8..4..
00000c20: 3b 7f 46 3b 00 00 34 00 0a 34 7f 1e 34 00 0a 34  ;.F;..4..4..4..4
00000c30: 7f 0a 34 00 19 45 7f 1e 45 00 0a 40 7f 1e 40 00  ..4..E..E..@..@.
00000c40: 0b e0 00 40 02 00 41 02 90 43 7f 01 e0 00 42 02  ...@..A..C....B.
00000c50: 00 44 03 00 45 02 90 43 00 00 e0 00 44 02 90 44  .D..E..C....D..D
00000c60: 7f 01 e0 00 42 01 00 41 01 00 40 03 00 3f 01 90  ....B..A..@..?..
00000c70: 44 00 00 e0 00 3e 01 00 3f 02 90 43 7f 01 e0 00  D....>..?..C....
00000c80: 40 01 00 41 03 00 42 01 00 44 02 24 44 02 00 44  @..A..B..D.$D..D
00000c90: 02 00 42 01 00 41 02 00 40 02 00 3f 01 00 3e 03  ..B..A..@..?..>.
00000ca0: 00 3f 02 00 40 03 00 41 02 00 42 03 00 41 02 00  .?..@..A..B..A..
00000cb0: 40 03 00 3f 02 00 3e 04 00 3f 05 00 40 03 90 43  @..?..>..?..@..C
00000cc0: 00 01 e0 00 40 09 90 34 7f 1e 34 00 0a 34 7f 00  ....@..4..4..4..
00000cd0: 3d 7f 46 3d 00 00 34 00 0a 34 7f 1e 34 00 0a 34  =.F=..4..4..4..4
00000ce0: 7f 00 3b 7f 46 3b 00 00 34 00 0a 34 7f 1e 34 00  ..;.F;..4..4..4.
00000cf0: 0a 3d 7f 00 34 7f 46 34 00 00 3d 00 0a 34 7f 1e  .=..4.F4..=..4..
00000d00: 34 00 0a 39 7f 00 40 7f 46 40 00 00 39 00 0a 39  4..9..@.F@..9..9
00000d10: 7f 1e 39 00 0a 42 7f 00 39 7f 46 39 00 00 42 00  ..9..B..9.F9..B.
00000d20: 0a 39 7f 1e 39 00 0a 39 7f 00 40 7f 46 40 00 00  .9..9..9..@.F@..
00000d30: 39 00 0a 39 7f 00 40 7f 1e 40 00 00 39 00 08 e0  9..9..@..@..9...
00000d40: 00 40 02 00 41 00 90 42 7f 01 e0 00 42 01 00 44  .@..A..B....B..D
00000d50: 01 24 44 02 00 44 02 00 42 01 00 41 03 00 40 01  .$D..D..B..A..@.
00000d60: 00 40 03 00 3f 01 00 3e 02 00 3c 02 00 3e 01 00  .@..?..>..<..>..
00000d70: 3f 02 00 40 07 90 42 00 0a 43 7f 1e 43 00 0a 42  ?..@..B..C..C..B
00000d80: 7f 1e 42 00 0a 40 7f 00 39 7f 46 39 00 00 40 00  ..B..@..9.F9..@.
00000d90: 0a 39 7f 1e 39 00 0a 42 7f 00 39 7f 5a 39 00 00  .9..9..B..9.Z9..
00000da0: 42 00 1e 39 7f 00 40 7f 5a 40 00 00 39 00 1e 42  B..9..@.Z@..9..B
00000db0: 7f 00 39 7f 5a 39 00 00 42 00 1e 34 7f 00 3b 7f  ..9.Z9..B..4..;.
00000dc0: 46 3b 00 00 34 00 0a 34 7f 1e 34 00 0a 3d 7f 00  F;..4..4..4..=..
00000dd0: 34 7f 46 34 00 00 3d 00 0a 34 7f 1e 34 00 0a 3b  4.F4..=..4..4..;
00000de0: 7f 00 34 7f 46 34 00 00 3b 00 0a 4c 7f 00 34 7f  ..4.F4..;..L..4.
00000df0: 0a 4c 00 14 34 00 0a 3b 7f 00 34 7f 0a 34 00 00  .L..4..;..4..4..
00000e00: 3b 00 1e 55 7f 00 45 7f 00 49 7f 0a 55 00 14 49  ;..U..E..I..U..I
00000e10: 00 00 45 00 0a 40 7f 1e 40 00 0a e0 00 40 00 90  ..E..@..@....@..
00000e20: 43 7f 02 e0 00 41 04 00 42 01 90 43 00 01 e0 00  C....A..B..C....
00000e30: 41 02 90 44 7f 01 e0 00 40 02 00 3f 03 00 3e 02  A..D....@..?..>.
00000e40: 90 44 00 00 e0 00 3f 02 90 43 7f 01 e0 00 40 04  .D....?..C....@.
00000e50: 00 41 02 00 42 04 00 41 02 00 40 03 00 3f 02 00  .A..B..A..@..?..
00000e60: 3e 03 00 3f 02 00 40 03 00 41 02 00 42 02 00 41  >..?..@..A..B..A
00000e70: 02 00 40 01 00 40 03 00 3f 01 00 3e 03 00 3c 01  ..@..@..?..>..<.
00000e80: 00 3e 02 00 3f 02 00 40 05 90 43 00 0a 34 7f 1e  .>..?..@..C..4..
00000e90: 34 00 0a 34 7f 00 3d 7f 46 3d 00 00 34 00 0a 34  4..4..=.F=..4..4
00000ea0: 7f 1e 34 00 0a 34 7f 00 3b 7f 46 3b 00 00 34 00  ..4..4..;.F;..4.
00000eb0: 0a 34 7f 1e 34 00 0a 34 7f 00 3d 7f 46 3d 00 00  .4..4..4..=.F=..
00000ec0: 34 00 0a 3e 7f 1e 3e 00 0a 3f 7f 46 3f 00 0a 45  4..>..>..?.F?..E
00000ed0: 7f 6e 45 00 0a 47 7f 6e 47 00 0a 45 7f 1e 45 00  .nE..G.nG..E..E.
00000ee0: 0a 47 7f 5a 47 00 1e 40 7f 00 39 7f 00 45 7f 46  .G.ZG..@..9..E.F
00000ef0: 45 00 00 39 00 00 40 00 0a 39 7f 00 40 7f 00 45  E..9..@..9..@..E
00000f00: 7f 1e 45 00 00 40 00 00 39 00 0a 39 7f 00 40 7f  ..E..@..9..9..@.
00000f10: 00 45 7f 46 45 00 00 40 00 00 39 00 0a 39 7f 1e  .E.FE..@..9..9..
00000f20: 39 00 0a 39 7f 00 42 7f 00 45 7f 46 45 00 00 42  9..9..B..E.FE..B
00000f30: 00 00 39 00 0a 39 7f 1e 39 00 0a 40 7f 1e 40 00  ..9..9..9..@..@.
00000f40: 0a 42 7f 1e 42 00 0a 43 7f 1e 43 00 0a 34 7f 00  .B..B..C..C..4..
00000f50: 3b 7f 46 3b 00 00 34 00 0a 34 7f 1e 34 00 0a 34  ;.F;..4..4..4..4
00000f60: 7f 00 3d 7f 46 3d 00 00 34 00 0a 34 7f 1e 34 00  ..=.F=..4..4..4.
00000f70: 0a 34 7f 00 3b 7f 46 3b 00 00 34 00 0a 34 7f 00  .4..;.F;..4..4..
00000f80: 3b 7f 1e 3b 00 00 34 00 0a 34 7f 00 3b 7f 0a 3b  ;..;..4..4..;..;
00000f90: 00 00 34 00 1e 45 7f 00 40 7f 1e 40 00 00 45 00  ..4..E..@..@..E.
00000fa0: 0a 40 7f 1e 40 00 0a e0 00 40 00 90 43 7f 02 e0  .@..@....@..C...
00000fb0: 00 41 05 90 43 00 00 e0 00 42 03 90 44 7f 01 e0  .A..C....B..D...
00000fc0: 00 41 02 00 40 03 00 3f 02 90 44 00 00 e0 00 3e  .A..@..?..D....>
00000fd0: 02 90 43 7f 01 e0 00 3f 02 00 40 03 00 41 02 00  ..C....?..@..A..
00000fe0: 42 03 00 41 02 00 40 03 00 3f 02 00 3e 03 00 3f  B..A..@..?..>..?
00000ff0: 02 00 40 03 00 41 02 00 42 03 00 41 02 00 40 03  ..@..A..B..A..@.
00001000: 00 40 02 00 3e 04 00 40 08 90 43 00 0a 3b 7f 1e  .@..>..@..C..;..
00001010: 3b 00 0a 45 7f 46 45 00 0a 47 7f 46 47 00 0a 45  ;..E.FE..G.FG..E
00001020: 7f 46 45 00 0a 47 7f 46 47 00 0a 45 7f 1e 45 00  .FE..G.FG..E..E.
00001030: 0a 4a 7f 28 e0 00 40 02 00 41 04 00 42 05 00 44  .J.(..@..A..B..D
00001040: 04 30 44 03 00 46 04 20 46 05 00 48 04 00 48 02  .0D..F. F..H..H.
00001050: 0c 46 02 00 46 01 00 44 01 90 4a 00 00 e0 00 42  .F..F..D..J....B
00001060: 01 00 40 02 90 4b 7f 19 4b 00 0f 4c 7f 46 4c 00  ..@..K..K..L.FL.
00001070: 0a 4f 7f 02 e0 00 41 04 00 42 04 00 44 03 40 44  .O....A..B..D.@D
00001080: 05 00 46 04 10 46 04 00 48 04 70 49 02 00 48 03  ..F..F..H.pI..H.
00001090: 00 46 01 0c 46 01 90 4f 00 00 e0 00 44 03 00 43  .F..F..O....D..C
000010a0: 01 00 42 01 00 41 00 90 50 7f 03 e0 00 40 02 00  ..B..A..P....@..
000010b0: 40 24 00 40 1b 90 50 00 0a 4c 7f 1e 4c 00 0a 47  @$.@..P..L..L..G
000010c0: 7f 1e 47 00 08 e0 00 40 02 00 41 00 90 4a 7f 01  ..G....@..A..J..
000010d0: e0 00 42 01 00 44 01 24 44 02 00 46 01 14 46 01  ..B..D.$D..F..F.
000010e0: 00 48 01 0c 48 03 00 48 02 2c 46 02 90 4a 00 01  .H..H..H.,F..J..
000010f0: e0 00 46 02 00 44 02 90 4b 7f 01 e0 00 43 02 00  ..F..D..K....C..
00001100: 42 03 00 41 02 00 40 07 90 4b 00 05 4c 7f 1e 4c  B..A..@..K..L..L
00001110: 00 08 e0 00 42 02 00 44 00 90 4f 7f 01 e0 00 46  ....B..D..O....F
00001120: 01 00 48 01 7f 49 02 00 48 01 00 46 01 90 4f 00  ..H..I..H..F..O.
00001130: 00 e0 00 44 01 00 42 02 00 40 00 90 50 7f 14 50  ...D..B..@..P..P
00001140: 00 0a 4c 7f 1e 4c 00 0a 47 7f 1e 47 00 08 e0 00  ..L..L..G..G....
00001150: 42 02 00 44 00 90 45 7f 01 e0 00 46 01 00 48 01  B..D..E....F..H.
00001160: 00 4a 02 90 45 00 00 e0 00 4a 00 90 47 7f 01 e0  .J..E....J..G...
00001170: 00 48 01 00 46 01 00 44 02 00 40 11 00 40 01 00  .H..F..D..@..@..
00001180: 3e 02 90 47 00 00 e0 00 3e 01 00 3c 01 00 3c 03  >..G....>..<..<.
00001190: 00 3a 01 00 3a 01 00 38 01 00 38 02 00 36 00 90  .:..:..8..8..6..
000011a0: 45 7f 01 e0 00 38 01 00 38 03 00 3a 01 00 3a 01  E....8..8..:..:.
000011b0: 00 3c 03 00 3c 01 00 3e 01 00 3e 03 90 45 00 00  .<..<..>..>..E..
000011c0: e0 00 40 01 00 40 02 00 40 02 90 43 7f 0f 43 00  ..@..@..@..C..C.
000011d0: 05 40 7f 1e 40 00 08 e0 00 40 02 90 40 7f 01 e0  .@..@....@..@...
000011e0: 00 42 05 00 42 05 00 44 05 00 44 04 00 44 02 00  .B..B..D..D..D..
000011f0: 42 03 00 42 02 00 40 03 00 40 02 00 3e 03 00 3e  B..B..@..@..>..>
00001200: 02 00 3c 04 00 3e 02 00 3e 03 00 40 02 00 40 03  ..<..>..>..@..@.
00001210: 00 42 02 00 42 03 00 44 02 00 44 03 00 44 02 00  .B..B..D..D..D..
00001220: 42 03 00 42 02 00 40 02 00 40 02 00 3e 03 00 3e  B..B..@..@..>..>
00001230: 02 00 3c 03 00 3e 02 00 3e 03 00 40 02 00 40 03  ..<..>..>..@..@.
00001240: 00 42 02 00 42 03 00 44 02 00 44 04 00 44 05 00  .B..B..D..D..D..
00001250: 42 05 00 42 05 00 40 04 90 40 00 03 41 7f 05 41  B..B..@..@..A..A
00001260: 00 04 42 7f 05 42 00 05 43 7f 05 43 00 00 44 7f  ..B..B..C..C..D.
00001270: 03 45 7f 02 44 00 03 45 00 00 46 7f 05 46 00 00  .E..D..E..F..F..
00001280: 47 7f 1e 47 00 0a 4a 7f 1e 4a 00 0a 4a 7f 25 e0  G..G..J..J..J.%.
00001290: 00 40 03 00 42 03 00 42 04 00 44 04 00 44 04 00  .@..B..B..D..D..
000012a0: 46 05 00 46 03 00 48 04 00 48 04 00 4a 04 00 4a  F..F..H..H..J..J
000012b0: 02 90 4a 00 00 e0 00 4a 01 00 48 02 00 46 00 90  ..J....J..H..F..
000012c0: 4b 7f 01 e0 00 46 01 00 44 01 00 44 02 00 42 01  K....F..D..D..B.
000012d0: 00 40 18 90 4b 00 0a 4c 7f 46 4c 00 0a 4f 7f 26  .@..K..L.FL..O.&
000012e0: e0 00 40 03 00 42 04 00 42 03 00 44 04 00 44 04  ..@..B..B..D..D.
000012f0: 00 46 05 00 46 04 00 48 03 00 48 02 90 4f 00 02  .F..F..H..H..O..
00001300: e0 00 4a 04 00 4a 04 00 4a 00 90 50 7f 02 e0 00  ..J..J..J..P....
00001310: 48 04 00 48 04 00 46 02 00 46 04 00 44 02 00 44  H..H..F..F..D..D
00001320: 04 00 42 04 00 42 02 00 40 02 90 50 00 0a 4c 7f  ..B..B..@..P..L.
00001330: 1e 4c 00 0a 4a 7f 01 e0 00 42 05 00 42 02 00 42  .L..J....B..B..B
00001340: 03 00 40 02 00 40 02 00 3e 02 00 3e 03 00 3c 01  ..@..@..>..>..<.
00001350: 00 3e 01 00 3e 01 00 40 02 00 40 01 00 42 01 00  .>..>..@..@..B..
00001360: 42 01 00 44 02 00 44 01 00 44 01 00 42 01 00 42  B..D..D..D..B..B
00001370: 02 00 40 01 00 3e 01 00 3e 01 00 3c 02 00 3c 01  ..@..>..>..<..<.
00001380: 00 3a 01 00 3c 01 00 3c 02 00 3e 02 00 3e 01 00  .:..<..<..>..>..
00001390: 40 02 90 4a 00 00 47 7f 02 e0 00 40 0d 90 47 00  @..J..G....@..G.
000013a0: 0a 4c 7f 1e 4c 00 0f e0 00 40 00 90 51 7f 01 e0  .L..L....@..Q...
000013b0: 00 42 02 00 42 03 00 44 02 00 44 02 00 44 01 00  .B..B..D..D..D..
000013c0: 42 01 00 42 01 00 40 03 00 40 01 00 3e 01 00 3e  B..B..@..@..>..>
000013d0: 02 00 3c 01 00 3e 02 00 3e 02 00 40 01 00 40 02  ..<..>..>..@..@.
000013e0: 00 42 02 00 42 01 00 42 01 00 40 01 00 40 03 00  .B..B..B..@..@..
000013f0: 3e 01 00 3e 01 00 3c 02 00 3e 02 00 3e 01 00 40  >..>..<..>..>..@
00001400: 03 00 40 01 00 42 03 90 51 00 00 e0 00 42 01 00  ..@..B..Q....B..
00001410: 42 02 00 40 02 00 40 01 00 3e 02 00 3e 02 00 3c  B..@..@..>..>..<
00001420: 00 90 4f 7f 02 e0 00 3e 03 00 3e 02 00 40 03 90  ..O....>..>..@..
00001430: 4f 00 00 e0 00 40 0a 90 4c 7f 46 4c 00 0a e0 00  O....@..L.FL....
00001440: 42 00 90 4c 7f 02 e0 00 42 03 00 44 02 00 44 01  B..L....B..D..D.
00001450: 00 44 02 00 42 01 00 42 01 00 40 03 00 40 01 00  .D..B..B..@..@..
00001460: 3e 01 00 3e 01 00 3c 02 00 3e 02 00 3e 01 00 40  >..>..<..>..>..@
00001470: 02 00 40 02 00 42 01 00 42 02 00 42 02 00 40 01  ..@..B..B..B..@.
00001480: 00 40 02 00 3e 02 00 3e 01 00 3c 02 00 3e 01 00  .@..>..>..<..>..
00001490: 3e 01 00 40 01 00 40 03 00 42 01 00 42 01 00 44  >..@..@..B..B..D
000014a0: 02 00 44 01 00 44 01 00 42 01 00 42 02 00 40 02  ..D..D..B..B..@.
000014b0: 00 40 01 00 3e 02 00 3e 01 00 3c 01 00 3e 03 00  .@..>..>..<..>..
000014c0: 3e 01 00 40 04 90 4c 00 0a 4c 7f 4d 4c 00 01 4d  >..@..L..L.ML..M
000014d0: 7f 03 4d 00 01 4e 7f 03 4e 00 02 4f 7f 03 4f 00  ..M..N..N..O..O.
000014e0: 01 50 7f 02 50 00 03 51 7f 02 51 00 02 52 7f 02  .P..P..Q..Q..R..
000014f0: 52 00 01 53 7f 03 53 00 01 54 7f 03 54 00 01 55  R..S..S..T..T..U
00001500: 7f 02 55 00 02 56 7f 02 56 00 01 57 7f 02 4c 7f  ..U..V..V..W..L.
00001510: 01 57 00 01 58 7f 08 4c 00 0b 58 00 13 4c 7f 1e  .W..X..L..X..L..
00001520: 4c 00 0a 4f 7f 1e 4f 00 08 e0 00 40 02 00 42 00  L..O..O....@..B.
00001530: 90 51 7f 01 e0 00 44 01 00 44 01 00 46 02 00 46  .Q....D..D..F..F
00001540: 01 00 48 01 00 4a 01 00 4a 02 00 4a 01 00 48 02  ..H..J..J..J..H.
00001550: 00 48 02 00 46 01 00 46 01 90 51 00 01 e0 00 44  .H..F..F..Q....D
00001560: 02 00 44 00 90 53 7f 01 e0 00 42 02 00 42 02 00  ..D..S....B..B..
00001570: 40 74 00 40 02 00 3e 04 00 3e 03 00 3c 03 00 3c  @t.@..>..>..<..<
00001580: 03 00 3a 04 00 3a 02 00 38 04 00 38 02 00 36 02  ..:..:..8..8..6.
00001590: 90 53 00 01 e0 00 38 02 00 38 03 00 3a 01 00 3a  .S....8..8..:..:
000015a0: 03 00 3c 00 90 51 7f 02 e0 00 3c 03 00 3e 01 00  ..<..Q....<..>..
000015b0: 3e 02 00 40 02 90 51 00 01 e0 00 40 02 00 40 07  >..@..Q....@..@.
000015c0: 90 4f 7f 1e 4f 00 0a e0 00 42 00 90 51 7f 01 e0  .O..O....B..Q...
000015d0: 00 44 01 00 48 01 00 4a 02 90 51 00 00 e0 00 4c  .D..H..J..Q....L
000015e0: 00 90 53 7f 01 e0 00 4a 01 00 48 01 00 44 02 00  ..S....J..H..D..
000015f0: 40 14 90 53 00 0a 51 7f 1e 51 00 0a e0 00 42 00  @..S..Q..Q....B.
00001600: 90 4f 7f 01 e0 00 42 01 00 44 01 00 46 02 90 4f  .O....B..D..F..O
00001610: 00 00 e0 00 46 00 90 51 7f 01 e0 00 48 01 00 48  ....F..Q....H..H
00001620: 01 00 4a 02 00 4a 01 00 4a 02 00 48 03 00 48 01  ..J..J..J..H..H.
00001630: 00 46 03 00 46 01 00 44 02 00 44 03 00 42 01 00  .F..F..D..D..B..
00001640: 42 03 00 40 02 00 40 0a 00 40 44 90 51 00 50 4c  B..@..@..@D.Q.PL
00001650: 7f 14 4c 00 0a 4f 7f 14 4f 00 0a 51 7f 14 51 00  ..L..O..O..Q..Q.
00001660: 30 e0 00 40 02 00 42 00 90 51 7f 01 e0 00 44 01  0..@..B..Q....D.
00001670: 00 46 01 00 48 02 90 51 00 00 e0 00 4a 01 00 4a  .F..H..Q....J..J
00001680: 01 00 4a 00 90 53 7f 01 e0 00 48 02 00 46 01 00  ..J..S....H..F..
00001690: 44 01 00 44 01 00 42 02 90 53 00 00 e0 00 40 05  D..D..B..S....@.
000016a0: 90 51 7f 0f 51 00 05 4f 7f 0f 4f 00 05 4c 7f 0f  .Q..Q..O..O..L..
000016b0: 4c 00 05 51 7f 0f 51 00 05 4c 7f 0f 4c 00 05 4f  L..Q..Q..L..L..O
000016c0: 7f 0f 4f 00 05 4c 7f 01 e0 00 42 02 00 42 03 00  ..O..L....B..B..
000016d0: 44 02 00 44 02 00 44 01 00 42 01 00 42 01 00 40  D..D..D..B..B..@
000016e0: 02 00 40 01 00 3e 01 00 40 03 00 40 02 00 42 03  ..@..>..@..@..B.
000016f0: 00 42 02 00 44 03 00 44 01 00 44 01 00 42 01 00  .B..D..D..D..B..
00001700: 42 02 00 40 01 00 3e 01 00 3e 01 00 3c 02 00 3e  B..@..>..>..<..>
00001710: 02 00 3e 01 00 40 02 00 40 02 00 42 01 00 42 03  ..>..@..@..B..B.
00001720: 00 42 02 00 40 02 90 4c 00 01 e0 00 40 00 00 40  .B..@..L....@..@
00001730: 04 90 4a 7f 23 4a 00 05 47 7f 0f 47 00 05 45 7f  ..J.#J..G..G..E.
00001740: 0f 45 00 05 43 7f 0f 43 00 05 40 7f 0f 40 00 05  .E..C..C..@..@..
00001750: 45 7f 0f 45 00 05 40 7f 0f 40 00 05 43 7f 0f 43  E..E..@..@..C..C
00001760: 00 05 e0 00 40 00 90 40 7f 01 e0 00 42 02 00 42  ....@..@....B..B
00001770: 03 00 44 02 00 44 02 00 44 01 00 42 01 00 42 01  ..D..D..D..B..B.
00001780: 00 40 03 00 40 01 00 3e 01 00 3e 02 00 3c 01 00  .@..@..>..>..<..
00001790: 3e 01 00 3e 01 00 40 02 00 42 01 00 42 01 00 44  >..>..@..B..B..D
000017a0: 01 00 44 02 00 44 01 00 42 01 00 42 01 00 40 02  ..D..D..B..B..@.
000017b0: 00 40 01 00 3e 01 00 3e 01 00 3c 02 00 3e 01 00  .@..>..>..<..>..
000017c0: 3e 01 00 40 01 00 42 02 00 42 01 00 44 01 00 44  >..@..B..B..D..D
000017d0: 01 00 44 02 00 42 02 00 42 01 00 40 02 90 40 00  ..D..B..B..@..@.
000017e0: 01 e0 00 40 04 90 40 7f 3a e0 00 40 02 90 40 00  ...@..@.:..@..@.
000017f0: 00 e0 00 42 02 00 42 00 90 3f 7f 03 e0 00 44 02  ...B..B..?....D.
00001800: 00 44 01 00 44 02 00 42 01 00 42 01 00 40 03 00  .D..D..B..B..@..
00001810: 40 01 00 3e 01 00 3e 01 00 3c 02 00 3e 01 00 3e  @..>..>..<..>..>
00001820: 01 00 40 01 00 40 02 00 42 01 00 42 01 90 3f 00  ..@..@..B..B..?.
00001830: 00 e0 00 44 01 00 44 02 00 44 00 90 3e 7f 01 e0  ...D..D..D..>...
00001840: 00 42 01 00 42 01 00 40 02 00 3e 01 00 3e 01 00  .B..B..@..>..>..
00001850: 3c 01 00 3e 02 00 3e 01 00 40 01 00 40 03 00 42  <..>..>..@..@..B
00001860: 01 00 42 01 00 44 01 00 44 02 00 44 01 00 42 01  ..B..D..D..D..B.
00001870: 90 3e 00 00 e0 00 42 01 00 40 2f 90 56 7f 1e 56  .>....B..@/.V..V
00001880: 00 0a 53 7f 1e 53 00 08 e0 00 42 02 00 44 00 90  ..S..S....B..D..
00001890: 51 7f 01 e0 00 46 01 00 48 01 00 4a 02 90 51 00  Q....F..H..J..Q.
000018a0: 00 e0 00 48 01 00 46 01 00 44 00 90 53 7f 01 e0  ...H..F..D..S...
000018b0: 00 42 02 00 40 0c 00 40 01 00 3e 02 00 3c 01 00  .B..@..@..>..<..
000018c0: 3a 01 00 3a 01 00 38 02 90 53 00 00 e0 00 36 01  :..:..8..S....6.
000018d0: 00 38 02 00 38 03 00 3a 01 00 3a 03 00 3c 00 90  .8..8..:..:..<..
000018e0: 51 7f 01 e0 00 3c 02 00 3e 03 00 3e 01 00 40 03  Q....<..>..>..@.
000018f0: 00 40 14 90 51 00 0a e0 00 42 00 90 4f 7f 01 e0  .@..Q....B..O...
00001900: 00 44 01 00 46 01 00 46 02 90 4f 00 00 e0 00 46  .D..F..F..O....F
00001910: 01 00 44 01 00 42 00 90 50 7f 01 e0 00 42 02 00  ..D..B..P....B..
00001920: 40 02 00 40 00 00 40 03 90 50 00 05 4c 7f 0f 4c  @..@..@..P..L..L
00001930: 00 05 e0 00 40 00 90 4f 7f 01 e0 00 42 01 00 44  ....@..O....B..D
00001940: 01 00 46 02 90 4f 00 00 e0 00 46 00 90 50 7f 01  ..F..O....F..P..
00001950: e0 00 46 01 00 44 01 00 42 02 00 40 0d 00 40 03  ..F..D..B..@..@.
00001960: 00 3e 02 00 3e 03 00 3c 01 00 3e 03 00 3e 01 00  .>..>..<..>..>..
00001970: 40 02 00 40 02 00 42 02 00 42 01 00 44 03 00 44  @..@..B..B..D..D
00001980: 01 00 44 01 00 42 02 00 42 01 00 40 02 00 40 02  ..D..B..B..@..@.
00001990: 00 3e 01 00 3e 01 00 3c 01 00 3e 02 00 3e 02 00  .>..>..<..>..>..
000019a0: 40 01 00 40 02 00 42 01 00 42 02 00 44 02 00 44  @..@..B..B..D..D
000019b0: 01 00 44 02 00 42 02 00 42 01 00 40 02 00 40 02  ..D..B..B..@..@.
000019c0: 00 3e 01 00 40 02 00 40 03 00 42 02 00 42 03 00  .>..@..@..B..B..
000019d0: 42 02 00 40 03 00 40 02 00 3e 05 00 40 05 00 40  B..@..@..>..@..@
000019e0: 05 00 40 07 90 50 00 81 20 4c 7f 1e 4c 00 08 e0  ..@..P.. L..L...
000019f0: 00 40 02 90 4f 7f 03 e0 00 42 0a 00 42 05 00 44  .@..O....B..B..D
00001a00: 03 00 44 02 00 46 03 00 46 01 00 46 01 00 44 02  ..D..F..F..F..D.
00001a10: 90 4f 00 00 e0 00 42 01 00 40 09 90 51 7f 03 e0  .O....B..@..Q...
00001a20: 00 42 04 00 42 04 00 44 04 00 44 03 00 46 04 00  .B..B..D..D..F..
00001a30: 46 03 00 46 01 00 44 01 00 42 01 00 40 02 90 51  F..F..D..B..@..Q
00001a40: 00 08 e0 00 42 02 00 44 00 90 51 7f 01 e0 00 46  ....B..D..Q....F
00001a50: 01 00 48 01 00 4a 02 90 51 00 00 e0 00 4a 00 90  ..H..J..Q....J..
00001a60: 53 7f 01 e0 00 48 01 00 46 01 00 44 02 00 40 14  S....H..F..D..@.
00001a70: 90 53 00 07 e0 00 42 01 00 44 02 00 44 00 90 51  .S....B..D..D..Q
00001a80: 7f 01 e0 00 46 01 00 46 01 00 46 02 90 51 00 00  ....F..F..F..Q..
00001a90: e0 00 44 01 00 42 01 00 40 00 90 52 7f 17 52 00  ..D..B..@..R..R.
00001aa0: 0a 4f 7f 01 e0 00 42 04 00 42 02 00 44 04 00 44  .O....B..B..D..D
00001ab0: 04 00 46 02 00 46 03 00 46 02 00 44 01 00 44 03  ..F..F..F..D..D.
00001ac0: 00 42 01 00 42 03 90 4f 00 00 e0 00 40 05 00 42  .B..B..O....@..B
00001ad0: 05 90 51 7f 02 e0 00 42 05 00 44 03 00 44 02 00  ..Q....B..D..D..
00001ae0: 46 03 00 46 02 00 46 03 00 44 02 00 44 03 00 42  F..F..F..D..D..B
00001af0: 02 00 42 03 90 51 00 00 e0 00 40 0a 90 51 7f 01  ..B..Q....@..Q..
00001b00: e0 00 42 01 00 44 01 00 44 02 90 51 00 00 e0 00  ..B..D..D..Q....
00001b10: 46 00 90 53 7f 01 e0 00 46 01 00 48 01 00 4a 02  F..S....F..H..J.
00001b20: 00 4a 01 00 46 01 00 3e 04 00 40 07 00 40 07 90  .J..F..>..@..@..
00001b30: 53 00 0a 4f 7f 01 e0 00 42 02 00 42 03 00 44 02  S..O....B..B..D.
00001b40: 00 44 02 00 44 01 00 42 01 00 42 01 00 40 02 00  .D..D..B..B..@..
00001b50: 40 01 00 3e 01 00 3e 01 00 3c 02 00 3e 01 00 3e  @..>..>..<..>..>
00001b60: 01 00 40 01 00 40 02 00 42 01 00 42 01 00 44 01  ..@..@..B..B..D.
00001b70: 00 44 02 00 44 01 00 42 01 00 42 01 00 40 03 00  .D..D..B..B..@..
00001b80: 40 01 00 3e 01 00 3e 02 00 3c 01 00 3e 02 00 3e  @..>..>..<..>..>
00001b90: 02 00 40 01 00 40 02 00 42 02 00 42 01 00 42 02  ..@..@..B..B..B.
00001ba0: 00 40 03 00 40 02 00 3e 03 00 40 02 00 40 04 00  .@..@..>..@..@..
00001bb0: 40 03 90 4f 00 0a 51 7f 1e 51 00 08 e0 00 42 02  @..O..Q..Q....B.
00001bc0: 00 44 00 90 51 7f 01 e0 00 46 01 00 46 01 00 46  .D..Q....F..F..F
00001bd0: 02 90 51 00 00 e0 00 44 00 90 52 7f 01 e0 00 42  ..Q....D..R....B
00001be0: 01 00 42 01 00 40 07 90 52 00 02 e0 00 3e 01 00  ..B..@..R....>..
00001bf0: 3c 02 00 3a 00 90 51 7f 01 e0 00 3c 02 00 3c 02  <..:..Q....<..<.
00001c00: 00 3e 01 00 3e 02 00 40 02 00 40 05 90 51 00 05  .>..>..@..@..Q..
00001c10: 4f 7f 1e 4f 00 0a 51 7f 02 e0 00 42 05 00 42 05  O..O..Q....B..B.
00001c20: 00 44 05 00 44 04 00 44 02 00 42 03 00 42 02 00  .D..D..D..B..B..
00001c30: 40 02 90 51 00 53 e0 00 40 07 90 51 7f 02 51 00  @..Q.S..@..Q..Q.
00001c40: 01 52 7f 03 52 00 01 53 7f 03 53 00 01 54 7f 02  .R..R..S..S..T..
00001c50: 54 00 02 55 7f 02 55 00 00 e0 00 40 01 90 56 7f  T..U..U....@..V.
00001c60: 02 e0 00 42 03 00 42 03 00 44 04 00 44 03 00 46  ...B..B..D..D..F
00001c70: 02 90 56 00 01 e0 00 46 02 00 46 02 00 44 00 90  ..V....F..F..D..
00001c80: 57 7f 01 e0 00 44 01 00 42 01 00 42 02 90 57 00  W....D..B..B..W.
00001c90: 00 e0 00 40 00 90 56 7f 2d 56 00 0a 53 7f 0f 53  ...@..V.-V..S..S
00001ca0: 00 05 51 7f 1e 51 00 08 e0 00 42 02 00 42 00 90  ..Q..Q....B..B..
00001cb0: 51 7f 01 e0 00 44 02 00 44 02 90 51 00 00 e0 00  Q....D..D..Q....
00001cc0: 46 00 90 52 7f 01 e0 00 46 01 00 46 01 00 44 02  F..R....F..F..D.
00001cd0: 00 42 01 00 42 01 00 40 1d 00 40 02 00 3e 03 00  .B..B..@..@..>..
00001ce0: 3e 02 00 3c 02 90 52 00 01 e0 00 3e 04 00 3e 02  >..<..R....>..>.
00001cf0: 00 40 03 90 51 7f 01 e0 00 40 04 00 40 02 00 40  .@..Q....@..@..@
00001d00: 00 00 40 08 90 51 00 05 4f 7f 0f 4f 00 05 4c 7f  ..@..Q..O..O..L.
00001d10: 0f 4c 00 05 e0 00 40 00 90 4f 7f 01 e0 00 42 02  .L....@..O....B.
00001d20: 00 42 02 00 44 02 00 44 01 00 44 03 00 42 01 00  .B..D..D..D..B..
00001d30: 42 03 00 40 01 00 40 02 00 3e 03 00 40 02 00 40  B..@..@..>..@..@
00001d40: 03 00 42 02 00 42 03 00 42 02 00 40 03 00 40 02  ..B..B..B..@..@.
00001d50: 00 3e 03 00 40 01 00 40 01 00 42 03 00 42 01 00  .>..@..@..B..B..
00001d60: 44 01 00 44 02 00 44 01 00 42 01 00 42 01 00 40  D..D..D..B..B..@
00001d70: 03 00 40 01 00 3e 01 00 3e 02 00 3c 01 00 3e 02  ..@..>..>..<..>.
00001d80: 00 3e 02 00 40 01 00 40 02 00 42 02 00 42 01 00  .>..@..@..B..B..
00001d90: 42 02 00 40 02 00 40 02 00 3e 01 00 3e 03 00 3c  B..@..@..>..>..<
00001da0: 01 00 3e 03 00 3e 01 00 40 02 00 40 03 00 40 01  ..>..>..@..@..@.
00001db0: 00 40 08 90 4f 00 14 47 7f 05 47 00 00 45 7f 19  .@..O..G..G..E..
00001dc0: 45 00 0a 43 7f 1e 43 00 0a 40 7f 1e 40 00 0a e0  E..C..C..@..@...
00001dd0: 00 40 00 90 43 7f 02 e0 00 42 03 90 43 00 00 e0  .@..C....B..C...
00001de0: 00 42 00 90 44 7f 02 e0 00 44 03 90 44 00 00 e0  .B..D....D..D...
00001df0: 00 44 00 90 43 7f 01 e0 00 44 01 00 42 01 00 40  .D..C....D..B..@
00001e00: 02 00 40 01 00 3e 01 00 3e 01 00 3c 02 00 3a 01  ..@..>..>..<..:.
00001e10: 00 3c 01 00 3c 01 00 3e 02 00 40 01 00 40 01 00  .<..<..>..@..@..
00001e20: 42 01 00 42 02 00 44 01 00 44 01 00 44 01 00 42  B..B..D..D..D..B
00001e30: 02 00 40 01 00 40 01 00 3e 01 00 3c 02 00 3e 01  ..@..@..>..<..>.
00001e40: 00 3e 01 00 40 01 00 40 03 00 42 01 00 42 01 00  .>..@..@..B..B..
00001e50: 44 02 00 44 01 00 44 01 00 42 01 00 40 02 00 40  D..D..D..B..@..@
00001e60: 01 00 3e 01 00 3c 01 00 3e 03 00 3e 02 00 40 03  ..>..<..>..>..@.
00001e70: 00 40 04 90 43 00 0a 40 7f 46 40 00 0a 3b 7f 05  .@..C..@.F@..;..
00001e80: 3b 00 00 3d 7f 19 3d 00 0a 40 7f 1e 40 00 0a 42  ;..=..=..@..@..B
00001e90: 7f 05 42 00 00 44 7f 19 44 00 0a 47 7f 1e 47 00  ..B..D..D..G..G.
00001ea0: 0a 47 7f 1e 47 00 0a 43 7f 01 43 00 01 44 7f 06  .G..G..C..C..D..
00001eb0: 44 00 02 42 7f 16 42 00 08 40 7f 1e 40 00 0a 3d  D..B..B..@..@..=
00001ec0: 7f 1e 3d 00 0a 40 7f 46 40 00 0a 39 7f 1e 39 00  ..=..@.F@..9..9.
00001ed0: 0a 39 7f 46 39 00 0a 3b 7f 1e 3b 00 0a 45 7f 00  .9.F9..;..;..E..
00001ee0: 3b 7f 00 3f 7f 81 66 3f 00 00 3b 00 00 45 00 0a  ;..?..f?..;..E..
00001ef0: 3b 7f 00 34 7f 46 34 00 00 3b 00 0a 34 7f 1e 34  ;..4.F4..;..4..4
00001f00: 00 0a 3d 7f 00 34 7f 46 34 00 00 3d 00 0a 34 7f  ..=..4.F4..=..4.
00001f10: 1e 34 00 0a 3e 7f 00 34 7f 46 34 00 00 3e 00 0a  .4..>..4.F4..>..
00001f20: 34 7f 1e 34 00 0a 3d 7f 1e 3d 00 0a 3e 7f 1e 3e  4..4..=..=..>..>
00001f30: 00 0a 42 7f 00 39 7f 1e 39 00 00 42 00 0a 39 7f  ..B..9..9..B..9.
00001f40: 00 40 7f 46 40 00 00 39 00 0a 39 7f 00 40 7f 1e  .@.F@..9..9..@..
00001f50: 40 00 00 39 00 0a 42 7f 00 39 7f 46 39 00 00 42  @..9..B..9.F9..B
00001f60: 00 0a 39 7f 00 45 7f 0a 45 00 14 39 00 0a 40 7f  ..9..E..E..9..@.
00001f70: 00 39 7f 5a 39 00 00 40 00 1e 42 7f 00 39 7f 46  .9.Z9..@..B..9.F
00001f80: 39 00 00 42 00 0a 39 7f 1e 39 00 0a 34 7f 00 3b  9..B..9..9..4..;
00001f90: 7f 46 3b 00 00 34 00 0a 34 7f 00 3b 7f 1e 3b 00  .F;..4..4..;..;.
00001fa0: 00 34 00 0a 3d 7f 00 34 7f 46 34 00 00 3d 00 0a  .4..=..4.F4..=..
00001fb0: 38 7f 1e 38 00 0a 34 7f 00 3b 7f 46 3b 00 00 34  8..8..4..;.F;..4
00001fc0: 00 0a 34 7f 1e 34 00 0a 34 7f 0a 34 00 19 45 7f  ..4..4..4..4..E.
00001fd0: 1e 45 00 0a 40 7f 1e 40 00 0b e0 00 40 02 00 41  .E..@..@....@..A
00001fe0: 02 90 43 7f 01 e0 00 42 02 00 44 03 00 45 02 90  ..C....B..D..E..
00001ff0: 43 00 00 e0 00 44 02 90 44 7f 01 e0 00 42 01 00  C....D..D....B..
00002000: 41 01 00 40 03 00 3f 01 90 44 00 00 e0 00 3e 01  A..@..?..D....>.
00002010: 00 3f 02 90 43 7f 01 e0 00 40 01 00 41 03 00 42  .?..C....@..A..B
00002020: 01 00 44 02 24 44 02 00 44 02 00 42 01 00 41 02  ..D.$D..D..B..A.
00002030: 00 40 02 00 3f 01 00 3e 03 00 3f 02 00 40 03 00  .@..?..>..?..@..
00002040: 41 02 00 42 03 00 41 02 00 40 03 00 3f 02 00 3e  A..B..A..@..?..>
00002050: 04 00 3f 05 00 40 03 90 43 00 01 e0 00 40 09 90  ..?..@..C....@..
00002060: 34 7f 1e 34 00 0a 34 7f 00 3d 7f 46 3d 00 00 34  4..4..4..=.F=..4
00002070: 00 0a 34 7f 1e 34 00 0a 34 7f 00 3b 7f 46 3b 00  ..4..4..4..;.F;.
00002080: 00 34 00 0a 34 7f 1e 34 00 0a 3d 7f 00 34 7f 46  .4..4..4..=..4.F
00002090: 34 00 00 3d 00 0a 34 7f 1e 34 00 0a 39 7f 00 40  4..=..4..4..9..@
000020a0: 7f 46 40 00 00 39 00 0a 39 7f 1e 39 00 0a 42 7f  .F@..9..9..9..B.
000020b0: 00 39 7f 46 39 00 00 42 00 0a 39 7f 1e 39 00 0a  .9.F9..B..9..9..
000020c0: 39 7f 00 40 7f 46 40 00 00 39 00 0a 39 7f 00 40  9..@.F@..9..9..@
000020d0: 7f 1e 40 00 00 39 00 08 e0 00 40 02 00 41 00 90  ..@..9....@..A..
000020e0: 42 7f 01 e0 00 42 01 00 44 01 24 44 02 00 44 02  B....B..D.$D..D.
000020f0: 00 42 01 00 41 03 00 40 01 00 40 03 00 3f 01 00  .B..A..@..@..?..
00002100: 3e 02 00 3c 02 00 3e 01 00 3f 02 00 40 07 90 42  >..<..>..?..@..B
00002110: 00 0a 43 7f 1e 43 00 0a 42 7f 1e 42 00 0a 40 7f  ..C..C..B..B..@.
00002120: 00 39 7f 46 39 00 00 40 00 0a 39 7f 1e 39 00 0a  .9.F9..@..9..9..
00002130: 42 7f 00 39 7f 5a 39 00 00 42 00 1e 39 7f 00 40  B..9.Z9..B..9..@
00002140: 7f 5a 40 00 00 39 00 1e 42 7f 00 39 7f 5a 39 00  .Z@..9..B..9.Z9.
00002150: 00 42 00 1e 34 7f 00 3b 7f 46 3b 00 00 34 00 0a  .B..4..;.F;..4..
00002160: 34 7f 1e 34 00 0a 3d 7f 00 34 7f 46 34 00 00 3d  4..4..=..4.F4..=
00002170: 00 0a 34 7f 1e 34 00 0a 3b 7f 00 34 7f 46 34 00  ..4..4..;..4.F4.
00002180: 00 3b 00 0a 4c 7f 00 34 7f 0a 4c 00 14 34 00 0a  .;..L..4..L..4..
00002190: 3b 7f 00 34 7f 0a 34 00 00 3b 00 1e 55 7f 00 45  ;..4..4..;..U..E
000021a0: 7f 00 49 7f 0a 55 00 14 49 00 00 45 00 0a 40 7f  ..I..U..I..E..@.
000021b0: 1e 40 00 0a e0 00 40 00 90 43 7f 02 e0 00 41 04  .@....@..C....A.
000021c0: 00 42 01 90 43 00 01 e0 00 41 02 90 44 7f 01 e0  .B..C....A..D...
000021d0: 00 40 02 00 3f 03 00 3e 02 90 44 00 00 e0 00 3f  .@..?..>..D....?
000021e0: 02 90 43 7f 01 e0 00 40 04 00 41 02 00 42 04 00  ..C....@..A..B..
000021f0: 41 02 00 40 03 00 3f 02 00 3e 03 00 3f 02 00 40  A..@..?..>..?..@
00002200: 03 00 41 02 00 42 02 00 41 02 00 40 01 00 40 03  ..A..B..A..@..@.
00002210: 00 3f 01 00 3e 03 00 3c 01 00 3e 02 00 3f 02 00  .?..>..<..>..?..
00002220: 40 05 90 43 00 0a 34 7f 1e 34 00 0a 34 7f 00 3d  @..C..4..4..4..=
00002230: 7f 46 3d 00 00 34 00 0a 34 7f 1e 34 00 0a 34 7f  .F=..4..4..4..4.
00002240: 00 3b 7f 46 3b 00 00 34 00 0a 34 7f 1e 34 00 0a  .;.F;..4..4..4..
00002250: 34 7f 00 3d 7f 46 3d 00 00 34 00 0a 3e 7f 1e 3e  4..=.F=..4..>..>
00002260: 00 0a 3f 7f 46 3f 00 0a 45 7f 6e 45 00 0a 47 7f  ..?.F?..E.nE..G.
00002270: 6e 47 00 0a 45 7f 1e 45 00 0a 47 7f 5a 47 00 1e  nG..E..E..G.ZG..
00002280: 40 7f 00 39 7f 00 45 7f 46 45 00 00 39 00 00 40  @..9..E.FE..9..@
00002290: 00 0a 39 7f 00 40 7f 00 45 7f 1e 45 00 00 40 00  ..9..@..E..E..@.
000022a0: 00 39 00 0a 39 7f 00 40 7f 00 45 7f 46 45 00 00  .9..9..@..E.FE..
000022b0: 40 00 00 39 00 0a 39 7f 1e 39 00 0a 39 7f 00 42  @..9..9..9..9..B
000022c0: 7f 00 45 7f 46 45 00 00 42 00 00 39 00 0a 39 7f  ..E.FE..B..9..9.
000022d0: 1e 39 00 0a 40 7f 1e 40 00 0a 42 7f 1e 42 00 0a  .9..@..@..B..B..
000022e0: 43 7f 1e 43 00 0a 34 7f 00 3b 7f 46 3b 00 00 34  C..C..4..;.F;..4
000022f0: 00 0a 34 7f 1e 34 00 0a 34 7f 00 3d 7f 46 3d 00  ..4..4..4..=.F=.
00002300: 00 34 00 0a 34 7f 1e 34 00 0a 34 7f 00 3b 7f 46  .4..4..4..4..;.F
00002310: 3b 00 00 34 00 0a 34 7f 00 3b 7f 1e 3b 00 00 34  ;..4..4..;..;..4
00002320: 00 0a 34 7f 00 3b 7f 0a 3b 00 00 34 00 1e 45 7f  ..4..;..;..4..E.
00002330: 00 40 7f 1e 40 00 00 45 00 0a 40 7f 1e 40 00 0a  .@..@..E..@..@..
00002340: e0 00 40 00 90 43 7f 02 e0 00 41 05 90 43 00 00  ..@..C....A..C..
00002350: e0 00 42 03 90 44 7f 01 e0 00 41 02 00 40 03 00  ..B..D....A..@..
00002360: 3f 02 90 44 00 00 e0 00 3e 02 90 43 7f 01 e0 00  ?..D....>..C....
00002370: 3f 02 00 40 03 00 41 02 00 42 03 00 41 02 00 40  ?..@..A..B..A..@
00002380: 03 00 3f 02 00 3e 03 00 3f 02 00 40 03 00 41 02  ..?..>..?..@..A.
00002390: 00 42 03 00 41 02 00 40 03 00 40 02 00 3e 04 00  .B..A..@..@..>..
000023a0: 40 08 90 43 00 0a 3b 7f 1e 3b 00 0a 45 7f 46 45  @..C..;..;..E.FE
000023b0: 00 0a 47 7f 46 47 00 0a 45 7f 46 45 00 0a 47 7f  ..G.FG..E.FE..G.
000023c0: 46 47 00 0a 45 7f 1e 45 00 0a 3b 7f 00 34 7f 46  FG..E..E..;..4.F
000023d0: 34 00 00 3b 00 0a 34 7f 1e 34 00 0a 3d 7f 00 34  4..;..4..4..=..4
000023e0: 7f 46 34 00 00 3d 00 0a 34 7f 1e 34 00 0a 3e 7f  .F4..=..4..4..>.
000023f0: 00 34 7f 46 34 00 00 3e 00 0a 34 7f 1e 34 00 0a  .4.F4..>..4..4..
00002400: 3d 7f 1e 3d 00 0a 3e 7f 1e 3e 00 0a 42 7f 00 39  =..=..>..>..B..9
00002410: 7f 1e 39 00 00 42 00 0a 39 7f 00 40 7f 46 40 00  ..9..B..9..@.F@.
00002420: 00 39 00 0a 39 7f 00 40 7f 1e 40 00 00 39 00 0a  .9..9..@..@..9..
00002430: 42 7f 00 39 7f 46 39 00 00 42 00 0a 39 7f 00 45  B..9.F9..B..9..E
00002440: 7f 0a 45 00 14 39 00 0a 40 7f 00 39 7f 5a 39 00  ..E..9..@..9.Z9.
00002450: 00 40 00 1e 42 7f 00 39 7f 46 39 00 00 42 00 0a  .@..B..9.F9..B..
00002460: 39 7f 1e 39 00 0a 34 7f 00 3b 7f 46 3b 00 00 34  9..9..4..;.F;..4
00002470: 00 0a 34 7f 00 3b 7f 1e 3b 00 00 34 00 0a 3d 7f  ..4..;..;..4..=.
00002480: 00 34 7f 46 34 00 00 3d 00 0a 38 7f 1e 38 00 0a  .4.F4..=..8..8..
00002490: 34 7f 00 3b 7f 46 3b 00 00 34 00 0a 34 7f 1e 34  4..;.F;..4..4..4
000024a0: 00 0a 34 7f 0a 34 00 19 45 7f 1e 45 00 0a 40 7f  ..4..4..E..E..@.
000024b0: 1e 40 00 0b e0 00 40 02 00 41 02 90 43 7f 01 e0  .@....@..A..C...
000024c0: 00 42 02 00 44 03 00 45 02 90 43 00 00 e0 00 44  .B..D..E..C....D
000024d0: 02 90 44 7f 01 e0 00 42 01 00 41 01 00 40 03 00  ..D....B..A..@..
000024e0: 3f 01 90 44 00 00 e0 00 3e 01 00 3f 02 90 43 7f  ?..D....>..?..C.
000024f0: 01 e0 00 40 01 00 41 03 00 42 01 00 44 02 24 44  ...@..A..B..D.$D
00002500: 02 00 44 02 00 42 01 00 41 02 00 40 02 00 3f 01  ..D..B..A..@..?.
00002510: 00 3e 03 00 3f 02 00 40 03 00 41 02 00 42 03 00  .>..?..@..A..B..
00002520: 41 02 00 40 03 00 3f 02 00 3e 04 00 3f 05 00 40  A..@..?..>..?..@
00002530: 03 90 43 00 01 e0 00 40 09 90 34 7f 1e 34 00 0a  ..C....@..4..4..
00002540: 34 7f 00 3d 7f 46 3d 00 00 34 00 0a 34 7f 1e 34  4..=.F=..4..4..4
00002550: 00 0a 34 7f 00 3b 7f 46 3b 00 00 34 00 0a 34 7f  ..4..;.F;..4..4.
00002560: 1e 34 00 0a 3d 7f 00 34 7f 46 34 00 00 3d 00 0a  .4..=..4.F4..=..
00002570: 34 7f 1e 34 00 0a 39 7f 00 40 7f 46 40 00 00 39  4..4..9..@.F@..9
00002580: 00 0a 39 7f 1e 39 00 0a 42 7f 00 39 7f 46 39 00  ..9..9..B..9.F9.
00002590: 00 42 00 0a 39 7f 1e 39 00 0a 39 7f 00 40 7f 46  .B..9..9..9..@.F
000025a0: 40 00 00 39 00 0a 39 7f 00 40 7f 1e 40 00 00 39  @..9..9..@..@..9
000025b0: 00 08 e0 00 40 02 00 41 00 90 42 7f 01 e0 00 42  ....@..A..B....B
000025c0: 01 00 44 01 24 44 02 00 44 02 00 42 01 00 41 03  ..D.$D..D..B..A.
000025d0: 00 40 01 00 40 03 00 3f 01 00 3e 02 00 3c 02 00  .@..@..?..>..<..
000025e0: 3e 01 00 3f 02 00 40 07 90 42 00 0a 43 7f 1e 43  >..?..@..B..C..C
000025f0: 00 0a 42 7f 1e 42 00 0a 40 7f 00 39 7f 46 39 00  ..B..B..@..9.F9.
00002600: 00 40 00 0a 39 7f 1e 39 00 0a 42 7f 00 39 7f 5a  .@..9..9..B..9.Z
00002610: 39 00 00 42 00 1e 39 7f 00 40 7f 5a 40 00 00 39  9..B..9..@.Z@..9
00002620: 00 1e 42 7f 00 39 7f 5a 39 00 00 42 00 1e 34 7f  ..B..9.Z9..B..4.
00002630: 00 3b 7f 46 3b 00 00 34 00 0a 34 7f 1e 34 00 0a  .;.F;..4..4..4..
00002640: 3d 7f 00 34 7f 46 34 00 00 3d 00 0a 34 7f 1e 34  =..4.F4..=..4..4
00002650: 00 0a 3b 7f 00 34 7f 46 34 00 00 3b 00 0a 4c 7f  ..;..4.F4..;..L.
00002660: 00 34 7f 0a 4c 00 14 34 00 0a 3b 7f 00 34 7f 0a  .4..L..4..;..4..
00002670: 34 00 00 3b 00 1e 55 7f 00 45 7f 00 49 7f 0a 55  4..;..U..E..I..U
00002680: 00 14 49 00 00 45 00 0a 40 7f 1e 40 00 0a e0 00  ..I..E..@..@....
00002690: 40 00 90 43 7f 02 e0 00 41 04 00 42 01 90 43 00  @..C....A..B..C.
000026a0: 01 e0 00 41 02 90 44 7f 01 e0 00 40 02 00 3f 03  ...A..D....@..?.
000026b0: 00 3e 02 90 44 00 00 e0 00 3f 02 90 43 7f 01 e0  .>..D....?..C...
000026c0: 00 40 04 00 41 02 00 42 04 00 41 02 00 40 03 00  .@..A..B..A..@..
000026d0: 3f 02 00 3e 03 00 3f 02 00 40 03 00 41 02 00 42  ?..>..?..@..A..B
000026e0: 02 00 41 02 00 40 01 00 40 03 00 3f 01 00 3e 03  ..A..@..@..?..>.
000026f0: 00 3c 01 00 3e 02 00 3f 02 00 40 05 90 43 00 0a  .<..>..?..@..C..
00002700: 34 7f 1e 34 00 0a 34 7f 00 3d 7f 46 3d 00 00 34  4..4..4..=.F=..4
00002710: 00 0a 34 7f 1e 34 00 0a 34 7f 00 3b 7f 46 3b 00  ..4..4..4..;.F;.
00002720: 00 34 00 0a 34 7f 1e 34 00 0a 34 7f 00 3d 7f 46  .4..4..4..4..=.F
00002730: 3d 00 00 34 00 0a 3e 7f 1e 3e 00 0a 3f 7f 46 3f  =..4..>..>..?.F?
00002740: 00 0a 45 7f 6e 45 00 0a 47 7f 6e 47 00 0a 45 7f  ..E.nE..G.nG..E.
00002750: 1e 45 00 0a 47 7f 5a 47 00 1e 40 7f 00 39 7f 00  .E..G.ZG..@..9..
00002760: 45 7f 46 45 00 00 39 00 00 40 00 0a 39 7f 00 40  E.FE..9..@..9..@
00002770: 7f 00 45 7f 1e 45 00 00 40 00 00 39 00 0a 39 7f  ..E..E..@..9..9.
00002780: 00 40 7f 00 45 7f 46 45 00 00 40 00 00 39 00 0a  .@..E.FE..@..9..
00002790: 39 7f 1e 39 00 0a 39 7f 00 42 7f 00 45 7f 46 45  9..9..9..B..E.FE
000027a0: 00 00 42 00 00 39 00 0a 39 7f 1e 39 00 0a 40 7f  ..B..9..9..9..@.
000027b0: 1e 40 00 0a 42 7f 1e 42 00 0a 43 7f 1e 43 00 0a  .@..B..B..C..C..
000027c0: 34 7f 00 3b 7f 46 3b 00 00 34 00 0a 34 7f 1e 34  4..;.F;..4..4..4
000027d0: 00 0a 34 7f 00 3d 7f 46 3d 00 00 34 00 0a 34 7f  ..4..=.F=..4..4.
000027e0: 1e 34 00 0a 34 7f 00 3b 7f 46 3b 00 00 34 00 0a  .4..4..;.F;..4..
000027f0: 34 7f 00 3b 7f 1e 3b 00 00 34 00 0a 34 7f 00 3b  4..;..;..4..4..;
00002800: 7f 0a 3b 00 00 34 00 1e 45 7f 00 40 7f 1e 40 00  ..;..4..E..@..@.
00002810: 00 45 00 0a 40 7f 1e 40 00 0a e0 00 40 00 90 43  .E..@..@....@..C
00002820: 7f 02 e0 00 41 05 90 43 00 00 e0 00 42 03 90 44  ....A..C....B..D
00002830: 7f 01 e0 00 41 02 00 40 03 00 3f 02 90 44 00 00  ....A..@..?..D..
00002840: e0 00 3e 02 90 43 7f 01 e0 00 3f 02 00 40 03 00  ..>..C....?..@..
00002850: 41 02 00 42 03 00 41 02 00 40 03 00 3f 02 00 3e  A..B..A..@..?..>
00002860: 03 00 3f 02 00 40 03 00 41 02 00 42 03 00 41 02  ..?..@..A..B..A.
00002870: 00 40 03 00 40 02 00 3e 04 00 40 08 90 43 00 0a  .@..@..>..@..C..
00002880: 3b 7f 1e 3b 00 0a 45 7f 46 45 00 0a 47 7f 46 47  ;..;..E.FE..G.FG
00002890: 00 0a 45 7f 46 45 00 0a 47 7f 46 47 00 0a 45 7f  ..E.FE..G.FG..E.
000028a0: 1e 45 00 0a 3b 7f 00 34 7f 46 34 00 00 3b 00 0a  .E..;..4.F4..;..
000028b0: 34 7f 1e 34 00 0a 3d 7f 00 34 7f 46 34 00 00 3d  4..4..=..4.F4..=
000028c0: 00 0a 34 7f 1e 34 00 0a 3e 7f 00 34 7f 46 34 00  ..4..4..>..4.F4.
000028d0: 00 3e 00 0a 34 7f 1e 34 00 0a 3d 7f 1e 3d 00 0a  .>..4..4..=..=..
000028e0: 3e 7f 1e 3e 00 0a 42 7f 00 39 7f 1e 39 00 00 42  >..>..B..9..9..B
000028f0: 00 0a 39 7f 00 40 7f 46 40 00 00 39 00 0a 39 7f  ..9..@.F@..9..9.
00002900: 00 40 7f 1e 40 00 00 39 00 0a 42 7f 00 39 7f 46  .@..@..9..B..9.F
00002910: 39 00 00 42 00 0a 39 7f 00 45 7f 0a 45 00 14 39  9..B..9..E..E..9
00002920: 00 0a 40 7f 00 39 7f 5a 39 00 00 40 00 1e 42 7f  ..@..9.Z9..@..B.
00002930: 00 39 7f 46 39 00 00 42 00 0a 39 7f 1e 39 00 0a  .9.F9..B..9..9..
00002940: 34 7f 00 3b 7f 46 3b 00 00 34 00 0a 34 7f 00 3b  4..;.F;..4..4..;
00002950: 7f 1e 3b 00 00 34 00 0a 3d 7f 00 34 7f 46 34 00  ..;..4..=..4.F4.
00002960: 00 3d 00 0a 38 7f 1e 38 00 0a 34 7f 00 3b 7f 46  .=..8..8..4..;.F
00002970: 3b 00 00 34 00 0a 34 7f 1e 34 00 0a 34 7f 0a 34  ;..4..4..4..4..4
00002980: 00 19 45 7f 1e 45 00 0a 40 7f 1e 40 00 0b e0 00  ..E..E..@..@....
00002990: 40 02 00 41 02 90 43 7f 01 e0 00 42 02 00 44 03  @..A..C....B..D.
000029a0: 00 45 02 90 43 00 00 e0 00 44 02 90 44 7f 01 e0  .E..C....D..D...
000029b0: 00 42 01 00 41 01 00 40 03 00 3f 01 90 44 00 00  .B..A..@..?..D..
000029c0: e0 00 3e 01 00 3f 02 90 43 7f 01 e0 00 40 01 00  ..>..?..C....@..
000029d0: 41 03 00 42 01 00 44 02 24 44 02 00 44 02 00 42  A..B..D.$D..D..B
000029e0: 01 00 41 02 00 40 02 00 3f 01 00 3e 03 00 3f 02  ..A..@..?..>..?.
000029f0: 00 40 03 00 41 02 00 42 03 00 41 02 00 40 03 00  .@..A..B..A..@..
00002a00: 3f 02 00 3e 04 00 3f 05 00 40 03 90 43 00 01 e0  ?..>..?..@..C...
00002a10: 00 40 09 90 34 7f 1e 34 00 0a 34 7f 00 3d 7f 46  .@..4..4..4..=.F
00002a20: 3d 00 00 34 00 0a 34 7f 1e 34 00 0a 34 7f 00 3b  =..4..4..4..4..;
00002a30: 7f 46 3b 00 00 34 00 0a 34 7f 1e 34 00 0a 3d 7f  .F;..4..4..4..=.
00002a40: 00 34 7f 46 34 00 00 3d 00 0a 34 7f 1e 34 00 0a  .4.F4..=..4..4..
00002a50: 39 7f 00 40 7f 46 40 00 00 39 00 0a 39 7f 1e 39  9..@.F@..9..9..9
00002a60: 00 0a 42 7f 00 39 7f 46 39 00 00 42 00 0a 39 7f  ..B..9.F9..B..9.
00002a70: 1e 39 00 0a 39 7f 00 40 7f 46 40 00 00 39 00 0a  .9..9..@.F@..9..
00002a80: 39 7f 00 40 7f 1e 40 00 00 39 00 08 e0 00 40 02  9..@..@..9....@.
00002a90: 00 41 00 90 42 7f 01 e0 00 42 01 00 44 01 24 44  .A..B....B..D.$D
00002aa0: 02 00 44 02 00 42 01 00 41 03 00 40 01 00 40 03  ..D..B..A..@..@.
00002ab0: 00 3f 01 00 3e 02 00 3c 02 00 3e 01 00 3f 02 00  .?..>..<..>..?..
00002ac0: 40 07 90 42 00 0a 43 7f 1e 43 00 0a 42 7f 1e 42  @..B..C..C..B..B
00002ad0: 00 0a 40 7f 00 39 7f 46 39 00 00 40 00 0a 39 7f  ..@..9.F9..@..9.
00002ae0: 1e 39 00 0a 42 7f 00 39 7f 5a 39 00 00 42 00 1e  .9..B..9.Z9..B..
00002af0: 39 7f 00 40 7f 5a 40 00 00 39 00 1e 42 7f 00 39  9..@.Z@..9..B..9
00002b00: 7f 5a 39 00 00 42 00 1e 34 7f 00 3b 7f 46 3b 00  .Z9..B..4..;.F;.
00002b10: 00 34 00 0a 34 7f 1e 34 00 0a 3d 7f 00 34 7f 46  .4..4..4..=..4.F
00002b20: 34 00 00 3d 00 0a 34 7f 1e 34 00 0a 3b 7f 00 34  4..=..4..4..;..4
00002b30: 7f 46 34 00 00 3b 00 0a 4c 7f 00 34 7f 0a 4c 00  .F4..;..L..4..L.
00002b40: 14 34 00 0a 3b 7f 00 34 7f 0a 34 00 00 3b 00 1e  .4..;..4..4..;..
00002b50: 55 7f 00 45 7f 00 49 7f 0a 55 00 14 49 00 00 45  U..E..I..U..I..E
00002b60: 00 0a 40 7f 1e 40 00 0a e0 00 40 00 90 43 7f 02  ..@..@....@..C..
00002b70: e0 00 41 04 00 42 01 90 43 00 01 e0 00 41 02 90  ..A..B..C....A..
00002b80: 44 7f 01 e0 00 40 02 00 3f 03 00 3e 02 90 44 00  D....@..?..>..D.
00002b90: 00 e0 00 3f 02 90 43 7f 01 e0 00 40 04 00 41 02  ...?..C....@..A.
00002ba0: 00 42 04 00 41 02 00 40 03 00 3f 02 00 3e 03 00  .B..A..@..?..>..
00002bb0: 3f 02 00 40 03 00 41 02 00 42 02 00 41 02 00 40  ?..@..A..B..A..@
00002bc0: 01 00 40 03 00 3f 01 00 3e 03 00 3c 01 00 3e 02  ..@..?..>..<..>.
00002bd0: 00 3f 02 00 40 05 90 43 00 0a 34 7f 1e 34 00 0a  .?..@..C..4..4..
00002be0: 34 7f 00 3d 7f 46 3d 00 00 34 00 0a 34 7f 1e 34  4..=.F=..4..4..4
00002bf0: 00 0a 34 7f 00 3b 7f 46 3b 00 00 34 00 0a 34 7f  ..4..;.F;..4..4.
00002c00: 1e 34 00 0a 34 7f 00 3d 7f 46 3d 00 00 34 00 0a  .4..4..=.F=..4..
00002c10: 3e 7f 1e 3e 00 0a 3f 7f 46 3f 00 0a 45 7f 6e 45  >..>..?.F?..E.nE
00002c20: 00 0a 47 7f 6e 47 00 0a 45 7f 1e 45 00 0a 47 7f  ..G.nG..E..E..G.
00002c30: 5a 47 00 1e 40 7f 00 39 7f 00 45 7f 46 45 00 00  ZG..@..9..E.FE..
00002c40: 39 00 00 40 00 0a 39 7f 00 40 7f 00 45 7f 1e 45  9..@..9..@..E..E
00002c50: 00 00 40 00 00 39 00 0a 39 7f 00 40 7f 00 45 7f  ..@..9..9..@..E.
00002c60: 46 45 00 00 40 00 00 39 00 0a 39 7f 1e 39 00 0a  FE..@..9..9..9..
00002c70: 39 7f 00 42 7f 00 45 7f 46 45 00 00 42 00 00 39  9..B..E.FE..B..9
00002c80: 00 0a 39 7f 1e 39 00 0a 40 7f 1e 40 00 0a 42 7f  ..9..9..@..@..B.
00002c90: 1e 42 00 0a 43 7f 1e 43 00 0a 34 7f 00 3b 7f 46  .B..C..C..4..;.F
00002ca0: 3b 00 00 34 00 0a 34 7f 1e 34 00 0a 34 7f 00 3d  ;..4..4..4..4..=
00002cb0: 7f 46 3d 00 00 34 00 0a 34 7f 1e 34 00 0a 34 7f  .F=..4..4..4..4.
00002cc0: 00 3b 7f 46 3b 00 00 34 00 0a 34 7f 00 3b 7f 1e  .;.F;..4..4..;..
00002cd0: 3b 00 00 34 00 0a 34 7f 00 3b 7f 0a 3b 00 00 34  ;..4..4..;..;..4
00002ce0: 00 1e 45 7f 00 40 7f 1e 40 00 00 45 00 0a 40 7f  ..E..@..@..E..@.
00002cf0: 1e 40 00 0a e0 00 40 00 90 43 7f 02 e0 00 42 03  .@....@..C....B.
00002d00: 90 43 00 01 e0 00 42 01 90 44 7f 03 e0 00 42 02  .C....B..D....B.
00002d10: 90 44 00 00 e0 00 40 03 00 40 00 90 43 7f 02 e0  .D....@..@..C...
00002d20: 00 3e 04 00 40 02 00 40 03 00 42 02 00 42 03 00  .>..@..@..B..B..
00002d30: 42 02 00 40 03 00 40 02 00 3e 04 00 40 03 00 40  B..@..@..>..@..@
00002d40: 02 00 42 03 00 42 01 00 42 02 00 40 03 00 40 02  ..B..B..B..@..@.
00002d50: 00 3e 03 00 40 05 00 40 04 90 43 00 00 e0 00 40  .>..@..@..C....@
00002d60: 0a 90 3b 7f 1e 3b 00 0a 3b 7f 03 3e 7f 03 45 7f  ..;..;..;..>..E.
00002d70: 40 45 00 00 3e 00 00 3b 00 0a 47 7f 03 45 7f 04  @E..>..;..G..E..
00002d80: 3e 7f 3f 3e 00 00 45 00 00 47 00 0a 45 7f 0a 45  >.?>..E..G..E..E
00002d90: 00 02 47 7f 3a 47 00 28 4c 7f 1e 4c 00 03 4f 7f  ..G.:G.(L..L..O.
00002da0: 1b 4f 00 03 51 7f 1b 51 00 12 e0 00 42 02 00 44  .O..Q..Q....B..D
00002db0: 00 90 51 7f 01 e0 00 46 01 00 48 01 00 4a 02 90  ..Q....F..H..J..
00002dc0: 51 00 00 e0 00 4a 01 00 48 01 00 40 00 90 53 7f  Q....J..H..@..S.
00002dd0: 2b 53 00 08 e0 00 42 02 00 44 00 90 51 7f 01 e0  +S....B..D..Q...
00002de0: 00 46 01 00 48 01 00 4a 02 90 51 00 00 e0 00 4a  .F..H..J..Q....J
00002df0: 01 00 48 01 00 46 00 90 53 7f 01 e0 00 44 02 00  ..H..F..S....D..
00002e00: 40 02 00 40 00 00 40 3a 90 53 00 0a 51 7f 14 51  @..@..@:.S..Q..Q
00002e10: 00 01 4f 7f 10 4f 00 03 4c 7f 1e 4c 00 0a 4f 7f  ..O..O..L..L..O.
00002e20: 1e 4f 00 00 51 7f 39 51 00 01 e0 00 42 02 00 44  .O..Q.9Q....B..D
00002e30: 00 90 51 7f 01 e0 00 46 01 00 48 01 00 4a 02 90  ..Q....F..H..J..
00002e40: 51 00 00 e0 00 4a 01 00 48 01 00 46 00 90 53 7f  Q....J..H..F..S.
00002e50: 01 e0 00 44 02 00 40 02 00 40 00 00 40 4e 90 53  ...D..@..@..@N.S
00002e60: 00 81 34 4c 7f 1e 4c 00 00 4f 7f 1e 4f 00 00 51  ..4L..L..O..O..Q
00002e70: 7f 39 51 00 01 e0 00 42 02 00 44 00 90 51 7f 01  .9Q....B..D..Q..
00002e80: e0 00 46 01 00 48 01 00 4a 02 90 51 00 00 e0 00  ..F..H..J..Q....
00002e90: 4a 00 90 53 7f 01 e0 00 48 01 00 46 01 00 44 02  J..S....H..F..D.
00002ea0: 00 40 05 90 53 00 05 51 7f 0a 51 00 0a 4f 7f 0a  .@..S..Q..Q..O..
00002eb0: 4f 00 0a 4c 7f 0a 4c 00 0a 51 7f 0a 51 00 0a 4c  O..L..L..Q..Q..L
00002ec0: 7f 0a 4c 00 0a 4f 7f 1e 4f 00 00 51 7f 39 51 00  ..L..O..O..Q.9Q.
00002ed0: 01 e0 00 42 02 00 44 00 90 51 7f 01 e0 00 46 01  ...B..D..Q....F.
00002ee0: 00 48 01 00 4a 02 90 51 00 00 e0 00 4a 01 00 48  .H..J..Q....J..H
00002ef0: 01 00 46 00 90 53 7f 01 e0 00 44 02 00 40 12 00  ..F..S....D..@..
00002f00: 42 02 00 42 02 00 44 01 00 44 02 00 44 01 00 42  B..B..D..D..D..B
00002f10: 01 00 40 01 00 3e 02 00 3c 01 00 3e 01 00 40 01  ..@..>..<..>..@.
00002f20: 00 42 02 00 42 01 00 42 01 00 40 03 00 40 01 00  .B..B..B..@..@..
00002f30: 3e 02 00 40 04 00 40 03 90 53 00 00 51 7f 01 e0  >..@..@..S..Q...
00002f40: 00 40 01 00 40 1c 90 51 00 00 4f 7f 1e 4f 00 00  .@..@..Q..O..O..
00002f50: 51 7f 1e 51 00 00 51 7f 05 51 00 00 53 7f 0a 53  Q..Q..Q..Q..S..S
00002f60: 00 05 51 7f 0a 51 00 0a 4f 7f 0a 4f 00 0a 50 7f  ..Q..Q..O..O..P.
00002f70: 32 50 00 81 78 e0 00 40 02 00 42 00 90 56 7f 01  2P..x..@..B..V..
00002f80: e0 00 42 01 00 44 01 00 46 02 00 46 01 00 48 01  ..B..D..F..F..H.
00002f90: 00 48 01 00 4a 02 90 56 00 00 e0 00 4a 01 00 48  .H..J..V....J..H
00002fa0: 01 00 46 00 90 58 7f 01 e0 00 44 02 00 40 0f 00  ..F..X....D..@..
00002fb0: 42 02 00 42 03 00 44 02 00 44 01 00 44 02 00 42  B..B..D..D..D..B
00002fc0: 01 00 42 01 00 40 03 00 40 01 00 3e 01 00 3e 01  ..B..@..@..>..>.
00002fd0: 00 3c 02 00 3e 01 00 3e 01 00 40 01 00 42 02 00  .<..>..>..@..B..
00002fe0: 42 01 00 44 01 00 44 01 00 46 02 00 46 01 00 46  B..D..D..F..F..F
00002ff0: 01 00 44 01 00 44 02 00 42 01 00 40 01 00 40 01  ..D..D..B..@..@.
00003000: 00 3e 02 00 40 02 00 40 01 00 42 02 00 42 02 00  .>..@..@..B..B..
00003010: 44 01 00 44 02 00 44 01 00 42 01 00 42 01 00 40  D..D..D..B..B..@
00003020: 03 00 40 01 00 3e 01 00 3e 02 00 3c 01 00 3e 01  ..@..>..>..<..>.
00003030: 00 3e 01 00 40 02 00 40 02 00 42 01 00 42 02 00  .>..@..@..B..B..
00003040: 44 01 00 44 01 00 44 03 00 42 02 00 42 03 90 58  D..D..D..B..B..X
00003050: 00 00 e0 00 40 02 00 40 00 00 40 08 90 56 7f 05  ....@..@..@..V..
00003060: 56 00 02 57 7f 14 57 00 03 53 7f 1a 53 00 04 57  V..W..W..S..S..W
00003070: 7f 39 57 00 03 53 7f 10 53 00 04 57 7f 10 57 00  .9W..S..S..W..W.
00003080: 04 53 7f 10 53 00 04 51 7f 19 51 00 05 53 7f 1b  .S..S..Q..Q..S..
00003090: 53 00 01 e0 00 42 02 00 44 00 90 51 7f 01 e0 00  S....B..D..Q....
000030a0: 46 01 00 48 01 00 4a 02 90 51 00 00 e0 00 4a 01  F..H..J..Q....J.
000030b0: 00 48 01 00 40 00 90 53 7f 0f 53 00 08 51 7f 1a  .H..@..S..S..Q..
000030c0: 51 00 04 4f 7f 02 e0 00 42 06 00 42 07 00 44 06  Q..O....B..B..D.
000030d0: 00 44 04 90 4f 00 00 e0 00 44 01 00 42 01 00 40  .D..O....D..B..@
000030e0: 03 90 4c 7f 1b 4c 00 03 51 7f 19 51 00 05 4c 7f  ..L..L..Q..Q..L.
000030f0: 1b 4c 00 03 4f 7f 1b 4f 00 01 e0 00 42 02 90 51  .L..O..O....B..Q
00003100: 7f 01 e0 00 42 02 00 44 03 00 44 02 00 46 02 00  ....B..D..D..F..
00003110: 46 02 00 48 03 00 48 02 00 4a 03 00 4a 01 00 4a  F..H..H..J..J..J
00003120: 01 00 48 01 00 46 02 00 44 01 00 42 01 90 51 00  ..H..F..D..B..Q.
00003130: 00 e0 00 40 03 90 53 7f 0a 53 00 0a 51 7f 03 e0  ...@..S..S..Q...
00003140: 00 42 02 90 51 00 00 e0 00 44 00 90 53 7f 01 e0  .B..Q....D..S...
00003150: 00 46 01 00 48 01 90 53 00 00 e0 00 4a 02 00 40  .F..H..S....J..@
00003160: 00 90 53 7f 05 53 00 05 58 7f 0a 58 00 0a 53 7f  ..S..S..X..X..S.
00003170: 0a 53 00 08 e0 00 42 02 90 5b 7f 01 e0 00 42 02  .S....B..[....B.
00003180: 00 44 03 00 44 02 00 46 03 00 46 01 00 46 01 00  .D..D..F..F..F..
00003190: 44 02 90 5b 00 00 e0 00 44 02 00 42 00 90 5c 7f  D..[....D..B..\.
000031a0: 01 e0 00 42 02 00 40 02 00 40 00 00 40 08 90 5c  ...B..@..@..@..\
000031b0: 00 0a 58 7f 3a e0 00 40 02 00 42 01 00 42 01 00  ..X.:..@..B..B..
000031c0: 44 01 00 44 02 00 44 01 00 42 01 00 40 01 00 40  D..D..D..B..@..@
000031d0: 02 00 3e 01 00 3c 01 00 3e 01 00 40 02 00 40 01  ..>..<..>..@..@.
000031e0: 00 42 01 00 44 01 00 44 02 00 44 02 00 42 01 00  .B..D..D..D..B..
000031f0: 42 02 00 40 02 00 40 01 00 3e 02 00 40 02 00 40  B..@..@..>..@..@
00003200: 01 00 42 02 00 42 02 00 44 01 00 44 02 00 44 01  ..B..B..D..D..D.
00003210: 00 42 01 00 42 01 00 40 03 00 40 01 00 3e 01 00  .B..B..@..@..>..
00003220: 3e 02 00 3c 01 00 3e 01 00 3e 03 00 40 01 00 40  >..<..>..>..@..@
00003230: 01 00 42 01 00 42 03 00 44 01 00 44 01 00 44 03  ..B..B..D..D..D.
00003240: 00 42 01 00 42 03 00 40 01 00 40 02 00 3e 02 00  .B..B..@..@..>..
00003250: 40 02 00 40 03 00 42 02 00 42 01 00 42 02 00 40  @..@..B..B..B..@
00003260: 02 00 40 01 00 3e 02 00 40 02 00 40 01 00 42 02  ..@..>..@..@..B.
00003270: 00 42 02 00 44 01 00 44 02 00 44 01 00 42 01 00  .B..D..D..D..B..
00003280: 42 01 00 40 02 00 40 01 00 3e 01 00 40 01 00 40  B..@..@..>..@..@
00003290: 03 00 40 09 90 58 00 81 0c 51 7f 05 51 00 01 e0  ..@..X...Q..Q...
000032a0: 00 40 01 90 56 7f 01 e0 00 42 05 00 42 05 00 44  .@..V....B..B..D
000032b0: 05 00 44 05 00 46 05 00 46 02 90 56 00 01 e0 00  ..D..F..F..V....
000032c0: 46 01 00 44 01 00 44 02 90 57 7f 01 e0 00 42 01  F..D..D..W....B.
000032d0: 00 42 01 00 40 03 00 40 00 00 40 18 90 57 00 0a  .B..@..@..@..W..
000032e0: 53 7f 0c 53 00 01 56 7f 0c 56 00 01 53 7f 0b 53  S..S..V..V..S..S
000032f0: 00 03 51 7f 0a 51 00 0a 53 7f 0a 53 00 08 e0 00  ..Q..Q..S..S....
00003300: 40 02 00 42 00 90 51 7f 01 e0 00 42 01 00 44 01  @..B..Q....B..D.
00003310: 00 46 02 00 46 01 00 48 01 00 48 01 00 4a 02 90  .F..F..H..H..J..
00003320: 51 00 00 e0 00 4a 01 00 48 01 00 46 00 90 53 7f  Q....J..H..F..S.
00003330: 01 e0 00 44 02 00 40 6f 00 40 0a 00 3e 09 00 3e  ...D..@o.@..>..>
00003340: 0a 00 3c 07 00 3c 08 00 3a 07 00 3a 08 00 38 05  ..<..<..:..:..8.
00003350: 90 53 00 00 e0 00 38 02 00 36 03 00 36 02 00 34  .S....8..6..6..4
00003360: 01 00 36 02 00 38 00 90 4f 7f 01 e0 00 3a 01 00  ..6..8..O....:..
00003370: 3c 01 00 3e 02 00 40 02 00 40 00 00 40 17 90 4f  <..>..@..@..@..O
00003380: 00 0a 4c 7f 1b 4c 00 03 4f 7f 1a 4f 00 01 e0 00  ..L..L..O..O....
00003390: 40 03 00 42 00 90 51 7f 02 e0 00 42 03 00 44 02  @..B..Q....B..D.
000033a0: 00 44 03 00 46 03 00 46 03 00 48 02 00 48 03 00  .D..F..F..H..H..
000033b0: 4a 02 00 4a 02 90 51 00 01 e0 00 48 01 00 46 01  J..J..Q....H..F.
000033c0: 00 44 02 00 40 00 90 53 7f 1b 53 00 03 53 7f 0a  .D..@..S..S..S..
000033d0: 53 00 0a 58 7f 0a 58 00 0a 53 7f 0a 53 00 08 e0  S..X..X..S..S...
000033e0: 00 42 02 90 56 7f 01 e0 00 42 01 00 44 01 00 44  .B..V....B..D..D
000033f0: 03 00 46 01 00 46 03 00 48 01 00 48 01 00 4a 03  ..F..F..H..H..J.
00003400: 00 4a 01 90 56 00 00 e0 00 48 01 00 46 01 00 44  .J..V....H..F..D
00003410: 02 00 42 00 90 58 7f 02 e0 00 40 00 00 40 08 90  ..B..X....@..@..
00003420: 58 00 0a 58 7f 0a 58 00 81 7a 51 7f 05 51 00 00  X..X..X..zQ..Q..
00003430: 53 7f 23 e0 00 40 00 90 56 7f 02 e0 00 42 03 00  S.#..@..V....B..
00003440: 42 02 00 44 03 00 44 01 00 44 02 00 42 03 00 42  B..D..D..D..B..B
00003450: 02 00 40 03 00 40 02 00 3e 02 00 40 02 00 40 03  ..@..@..>..@..@.
00003460: 00 42 01 00 42 02 00 44 03 00 44 01 00 44 03 00  .B..B..D..D..D..
00003470: 42 02 00 42 01 00 40 03 00 40 02 00 3e 03 00 40  B..B..@..@..>..@
00003480: 02 00 40 03 00 42 02 00 42 03 00 42 02 00 40 02  ..@..B..B..B..@.
00003490: 00 40 01 00 3e 02 00 3e 02 00 3c 01 00 3e 02 00  .@..>..>..<..>..
000034a0: 3e 02 90 56 00 00 53 00 00 e0 00 40 02 00 40 03  >..V..S....@..@.
000034b0: 00 40 00 90 53 7f 05 53 00 02 51 7f 17 51 00 0a  .@..S..S..Q..Q..
000034c0: 4f 7f 1e 4f 00 0a 4c 7f 1e 4c 00 0a 4f 7f 05 4f  O..O..L..L..O..O
000034d0: 00 02 50 7f 17 50 00 08 e0 00 40 02 00 42 00 90  ..P..P....@..B..
000034e0: 4c 7f 02 e0 00 42 01 00 44 03 00 44 01 00 44 03  L....B..D..D..D.
000034f0: 00 42 02 00 42 03 00 40 02 00 40 03 00 3e 02 00  .B..B..@..@..>..
00003500: 40 03 00 40 02 00 42 03 00 42 01 00 42 01 00 40  @..@..B..B..B..@
00003510: 01 00 40 03 00 3e 01 00 3e 01 00 3c 02 00 3e 02  ..@..>..>..<..>.
00003520: 00 3e 01 00 40 03 00 40 01 00 42 03 00 42 01 00  .>..@..@..B..B..
00003530: 42 02 00 40 02 00 40 01 00 3e 02 00 3e 02 00 3c  B..@..@..>..>..<
00003540: 01 00 3e 01 00 3e 01 00 40 03 00 40 01 00 42 01  ..>..>..@..@..B.
00003550: 00 42 03 00 42 04 90 4c 00 00 e0 00 40 03 00 40  .B..B..L....@..@
00003560: 81 22 90 4c 7f 02 4c 00 01 e0 00 42 02 00 44 00  .".L..L....B..D.
00003570: 90 51 7f 01 e0 00 46 01 00 48 01 00 4a 02 90 51  .Q....F..H..J..Q
00003580: 00 00 e0 00 4a 01 00 48 00 90 53 7f 01 e0 00 40  ....J..H..S....@
00003590: 12 90 53 00 08 e0 00 42 02 00 42 00 90 51 7f 01  ..S....B..B..Q..
000035a0: e0 00 44 01 00 44 01 00 46 02 90 51 00 00 e0 00  ..D..D..F..Q....
000035b0: 46 01 00 46 01 00 44 00 90 52 7f 01 e0 00 42 02  F..F..D..R....B.
000035c0: 00 42 01 00 40 13 90 52 00 0a 4f 7f 06 e0 00 42  .B..@..R..O....B
000035d0: 07 00 42 07 00 44 02 00 44 04 00 46 02 00 46 02  ..B..D..D..F..F.
000035e0: 90 4f 00 01 e0 00 44 01 00 40 08 90 51 7f 1e 51  .O....D..@..Q..Q
000035f0: 00 08 e0 00 42 02 00 44 00 90 51 7f 01 e0 00 46  ....B..D..Q....F
00003600: 01 00 48 01 00 4a 02 90 51 00 00 e0 00 4a 00 90  ..H..J..Q....J..
00003610: 53 7f 01 e0 00 48 01 00 46 01 00 44 02 00 42 01  S....H..F..D..B.
00003620: 00 40 13 90 53 00 0a 4f 7f 06 e0 00 42 09 00 42  .@..S..O....B..B
00003630: 06 00 44 02 00 44 03 00 46 02 00 46 02 90 4f 00  ..D..D..F..F..O.
00003640: 00 e0 00 44 01 00 42 01 00 40 03 00 40 00 00 40  ...D..B..@..@..@
00003650: 05 90 4c 7f 1e 4c 00 0a 4c 7f 46 4c 00 0a 49 7f  ..L..L..L.FL..I.
00003660: 00 55 7f 05 55 00 19 49 00 0a 5b 7f 00 4f 7f 05  .U..U..I..[..O..
00003670: 5b 00 19 4f 00 32 53 7f 1e 53 00 0a 56 7f 1e 56  [..O.2S..S..V..V
00003680: 00 0a 58 7f 1e 58 00 0a 56 7f 1e 56 00 0a 53 7f  ..X..X..V..V..S.
00003690: 1e 53 00 07 e0 00 40 01 00 42 02 00 44 00 90 51  .S....@..B..D..Q
000036a0: 7f 01 e0 00 46 01 00 48 01 00 4a 02 90 51 00 00  ....F..H..J..Q..
000036b0: e0 00 4a 01 00 48 01 00 46 00 90 53 7f 01 e0 00  ..J..H..F..S....
000036c0: 44 02 00 40 14 90 53 00 0a 51 7f 06 e0 00 42 09  D..@..S..Q....B.
000036d0: 00 42 05 00 44 02 00 44 03 00 46 02 00 46 01 00  .B..D..D..F..F..
000036e0: 46 02 90 51 00 00 e0 00 44 01 00 42 01 00 40 08  F..Q....D..B..@.
000036f0: 90 4f 7f 05 e0 00 42 08 00 42 05 00 44 03 00 44  .O....B..B..D..D
00003700: 02 00 46 03 00 46 01 00 46 01 00 44 02 90 4f 00  ..F..F..F..D..O.
00003710: 00 e0 00 42 01 00 42 01 00 40 03 00 40 00 00 40  ...B..B..@..@..@
00003720: 05 90 4c 7f 28 4a 7f 46 4a 00 00 4c 00 5a 4e 7f  ..L.(J.FJ..L.ZN.
00003730: 02 4e 00 03 55 7f 02 55 00 03 58 7f 1c e0 00 40  .N..U..U..X....@
00003740: 02 00 42 01 00 42 02 00 44 02 00 44 01 00 44 02  ..B..B..D..D..D.
00003750: 00 42 02 00 42 02 00 40 01 00 40 03 00 3e 01 00  .B..B..@..@..>..
00003760: 3e 03 00 3c 01 00 3e 02 00 3e 03 00 40 02 00 40  >..<..>..>..@..@
00003770: 03 00 42 02 00 42 03 00 44 02 00 44 02 00 44 01  ..B..B..D..D..D.
00003780: 00 42 01 00 42 01 00 40 02 00 3e 01 00 3e 01 00  .B..B..@..>..>..
00003790: 3c 01 00 3e 02 00 3e 01 00 40 01 00 40 01 00 42  <..>..>..@..@..B
000037a0: 02 00 42 01 00 44 01 00 44 01 00 44 03 00 42 01  ..B..D..D..D..B.
000037b0: 00 42 01 00 40 03 00 40 01 00 3e 01 00 40 02 00  .B..@..@..>..@..
000037c0: 40 01 00 42 02 00 42 02 00 44 01 00 44 01 00 44  @..B..B..D..D..D
000037d0: 01 00 42 02 00 42 01 00 40 01 00 3e 01 00 3e 02  ..B..B..@..>..>.
000037e0: 00 3c 01 00 3e 01 00 3e 01 00 40 02 00 40 01 00  .<..>..>..@..@..
000037f0: 42 01 00 42 01 00 44 02 00 44 01 00 44 01 00 42  B..B..D..D..D..B
00003800: 01 00 40 02 90 58 00 00 e0 00 40 01 00 3e 01 00  ..@..X....@..>..
00003810: 3c 01 00 3e 03 00 3e 02 00 40 03 00 40 02 00 40  <..>..>..@..@..@
00003820: 07 90 56 7f 46 56 00 0a 53 7f 1e 53 00 08 e0 00  ..V.FV..S..S....
00003830: 42 02 00 44 00 90 51 7f 01 e0 00 46 01 00 48 01  B..D..Q....F..H.
00003840: 00 4a 02 90 51 00 00 e0 00 4a 01 00 48 01 00 46  .J..Q....J..H..F
00003850: 00 90 53 7f 01 e0 00 44 02 00 40 02 00 40 00 00  ..S....D..@..@..
00003860: 40 3a 90 53 00 0a 51 7f 1e 51 00 08 e0 00 40 02  @:.S..Q..Q....@.
00003870: 00 42 00 90 4f 7f 01 e0 00 44 01 00 44 01 00 46  .B..O....D..D..F
00003880: 02 90 4f 00 00 e0 00 46 01 00 46 01 00 44 00 90  ..O....F..F..D..
00003890: 50 7f 01 e0 00 42 02 00 40 14 90 50 00 0a 4c 7f  P....B..@..P..L.
000038a0: 1e 4c 00 0a 47 7f 1e 47 00 0a 45 7f 2d e0 00 40  .L..G..G..E.-..@
000038b0: 05 00 3e 06 00 3e 05 00 3c 06 00 3c 05 00 3a 04  ..>..>..<..<..:.
000038c0: 00 3c 01 90 45 00 00 e0 00 3c 01 00 3e 02 00 3e  .<..E....<..>..>
000038d0: 00 90 43 7f 01 e0 00 40 01 00 40 03 00 40 19 90  ..C....@..@..@..
000038e0: 43 00 0a 44 7f 46 44 00 08 e0 00 40 02 00 42 00  C..D.FD....@..B.
000038f0: 90 44 7f 01 e0 00 44 01 00 44 01 00 44 02 00 42  .D....D..D..D..B
00003900: 01 00 42 01 00 40 01 00 3e 02 00 3e 01 00 3c 01  ..B..@..>..>..<.
00003910: 00 3e 01 00 40 02 00 42 01 00 44 01 00 44 01 00  .>..@..B..D..D..
00003920: 44 02 00 42 01 00 40 01 00 3e 01 00 3c 03 00 40  D..B..@..>..<..@
00003930: 01 00 42 01 00 42 02 90 44 00 00 e0 00 40 02 00  ..B..B..D....@..
00003940: 40 03 00 40 02 00 40 03 90 40 7f 46 40 00 32 40  @..@..@..@.F@.2@
00003950: 7f 05 44 7f 03 4a 7f 70 4a 00 00 44 00 1e 40 00  ..D..J.pJ..D..@.
00003960: 00 ff 2f 00 4d 54 72 6b 00 00 39 07 00 ff 21 01  ../.MTrk..9...!.
00003970: 00 00 ff 03 0f 47 75 69 74 61 72 20 32 20 28 52  .....Guitar 2 (R
00003980: 2e 43 2e 29 8b 20 91 34 7f 01 3b 7f 45 34 00 01  .C.). .4..;.E4..
00003990: 3b 00 07 34 7f 1e 34 00 0c 34 7f 00 3d 7f 46 3d  ;..4..4..4..=.F=
000039a0: 00 00 34 00 0a 34 7f 1e 34 00 0b 34 7f 00 3b 7f  ..4..4..4..4..;.
000039b0: 46 3b 00 00 34 00 09 34 7f 1e 34 00 0c 34 7f 00  F;..4..4..4..4..
000039c0: 3d 7f 46 3d 00 00 34 00 0a 34 7f 1e 34 00 09 34  =.F=..4..4..4..4
000039d0: 7f 00 3b 7f 46 3b 00 00 34 00 0b 34 7f 1e 34 00  ..;.F;..4..4..4.
000039e0: 06 34 7f 00 3d 7f 46 3d 00 00 34 00 0e 34 7f 1e  .4..=.F=..4..4..
000039f0: 34 00 06 3b 7f 03 34 7f 43 3b 00 03 34 00 0a 34  4..;..4.C;..4..4
00003a00: 7f 1e 34 00 07 3d 7f 02 34 7f 44 3d 00 02 34 00  ..4..=..4.D=..4.
00003a10: 08 34 7f 1e 34 00 0d 39 7f 00 40 7f 46 40 00 00  .4..4..9..@.F@..
00003a20: 39 00 07 39 7f 00 40 7f 1e 40 00 00 39 00 0a 40  9..9..@..@..9..@
00003a30: 7f 03 39 7f 43 40 00 03 39 00 0b 39 7f 00 40 7f  ..9.C@..9..9..@.
00003a40: 1e 40 00 00 39 00 09 39 7f 01 43 7f 45 39 00 01  .@..9..9..C.E9..
00003a50: 43 00 06 39 7f 03 43 7f 1b 39 00 03 43 00 07 39  C..9..C..9..C..9
00003a60: 7f 02 42 7f 44 39 00 02 42 00 0a 39 7f 1e 39 00  ..B.D9..B..9..9.
00003a70: 33 47 7f 14 47 00 10 e1 00 40 01 91 4f 7f 02 e1  3G..G....@..O...
00003a80: 00 42 05 00 42 03 00 44 04 00 44 05 00 46 04 00  .B..B..D..D..F..
00003a90: 46 04 00 48 05 00 48 02 00 48 01 00 46 02 91 4f  F..H..H..H..F..O
00003aa0: 00 00 e1 00 44 01 00 44 01 00 42 01 00 40 04 91  ....D..D..B..@..
00003ab0: 50 7f 1e 50 00 08 4c 7f 1e 4c 00 0b 47 7f 1e 47  P..P..L..L..G..G
00003ac0: 00 0a 4a 7f 0a 4a 00 04 e1 00 42 00 91 4c 7f 01  ..J..J....B..L..
00003ad0: e1 00 42 01 00 44 01 00 44 02 00 44 01 00 42 01  ..B..D..D..D..B.
00003ae0: 00 42 01 00 40 03 00 40 01 00 3e 01 00 3e 02 00  .B..@..@..>..>..
00003af0: 3c 01 00 3e 01 00 3e 01 00 40 02 00 42 01 00 42  <..>..>..@..B..B
00003b00: 01 00 44 01 00 44 02 00 44 01 00 42 01 00 40 01  ..D..D..D..B..@.
00003b10: 00 3e 02 00 3e 01 00 3c 01 00 3a 01 00 38 02 00  .>..>..<..:..8..
00003b20: 3a 01 00 3c 01 00 3e 01 00 3e 02 00 40 01 00 42  :..<..>..>..@..B
00003b30: 01 00 44 01 00 44 02 00 44 01 00 42 01 00 42 01  ..D..D..D..B..B.
00003b40: 00 40 02 00 3e 01 00 3e 01 00 3c 01 00 3e 03 00  .@..>..>..<..>..
00003b50: 3e 01 00 40 03 00 40 01 00 42 02 00 42 02 00 42  >..@..@..B..B..B
00003b60: 02 00 40 01 00 40 02 00 3e 02 00 3e 01 00 3c 02  ..@..@..>..>..<.
00003b70: 00 3e 01 00 3e 02 00 40 02 00 40 01 00 42 01 00  .>..>..@..@..B..
00003b80: 42 03 00 44 01 00 44 01 00 44 03 00 42 02 00 42  B..D..D..D..B..B
00003b90: 03 00 40 02 91 4c 00 08 4a 7f 1e 4a 00 0b 47 7f  ..@..L..J..J..G.
00003ba0: 1e 47 00 07 45 7f 1e 45 00 09 e1 00 40 01 00 42  .G..E..E....@..B
00003bb0: 03 00 42 00 91 43 7f 01 e1 00 44 03 00 44 01 00  ..B..C....D..D..
00003bc0: 44 01 00 42 01 00 40 02 00 3e 01 00 3c 01 91 43  D..B..@..>..<..C
00003bd0: 00 00 e1 00 3a 01 00 3c 00 91 44 7f 02 e1 00 3e  ....:..<..D....>
00003be0: 01 00 40 01 00 42 01 00 44 02 00 44 01 00 44 01  ..@..B..D..D..D.
00003bf0: 00 42 01 00 42 02 91 44 00 00 e1 00 40 01 00 3e  .B..B..D....@..>
00003c00: 01 00 3e 01 00 3c 02 00 3c 01 91 43 7f 01 e1 00  ..>..<..<..C....
00003c10: 3e 01 00 40 02 00 42 01 00 44 01 00 44 01 00 42  >..@..B..D..D..B
00003c20: 02 00 40 01 00 3e 01 00 3c 01 00 3a 02 00 3c 01  ..@..>..<..:..<.
00003c30: 00 3e 01 00 40 01 00 42 02 00 44 01 00 44 01 00  .>..@..B..D..D..
00003c40: 44 01 00 42 02 00 40 01 00 3e 01 00 3c 01 00 3e  D..B..@..>..<..>
00003c50: 03 00 3e 01 00 40 09 91 43 00 07 4c 7f 46 4c 00  ..>..@..C..L.FL.
00003c60: 0d 4a 7f 1d 4a 00 0b 4c 7f 1e 4c 00 07 e1 00 40  .J..J..L..L....@
00003c70: 02 00 42 01 91 43 7f 01 e1 00 42 03 00 44 02 00  ..B..C....B..D..
00003c80: 44 01 00 44 02 00 42 02 91 43 00 00 e1 00 42 01  D..D..B..C....B.
00003c90: 00 40 02 00 40 01 00 3e 00 91 44 7f 02 e1 00 3e  .@..@..>..D....>
00003ca0: 02 00 3c 01 00 3e 01 00 3e 01 00 40 02 00 40 02  ..<..>..>..@..@.
00003cb0: 00 42 01 91 44 00 00 e1 00 42 02 00 44 00 91 43  .B..D....B..D..C
00003cc0: 7f 01 e1 00 44 01 00 44 01 00 42 02 00 42 01 00  ....D..D..B..B..
00003cd0: 40 01 00 3e 01 00 3e 02 00 3c 01 00 3e 01 00 3e  @..>..>..<..>..>
00003ce0: 01 00 40 02 00 40 02 00 42 01 00 42 02 00 44 01  ..@..@..B..B..D.
00003cf0: 00 44 01 00 44 01 00 42 02 00 40 01 00 3e 01 00  .D..D..B..@..>..
00003d00: 3c 01 00 3e 02 00 3e 01 00 40 01 00 42 01 00 42  <..>..>..@..B..B
00003d10: 02 00 44 01 00 44 01 00 46 01 00 46 02 91 43 00  ..D..D..F..F..C.
00003d20: 00 e1 00 46 01 00 44 01 00 42 01 00 40 08 91 4c  ...F..D..B..@..L
00003d30: 7f 27 e1 00 40 03 00 42 05 00 42 05 00 44 05 00  .'..@..B..B..D..
00003d40: 44 04 00 44 05 00 42 04 00 42 04 00 40 05 00 40  D..D..B..B..@..@
00003d50: 03 00 3e 04 00 3e 05 00 3c 04 00 3e 02 00 3e 03  ..>..>..<..>..>.
00003d60: 00 40 02 00 40 04 00 42 03 00 42 02 00 44 03 00  .@..@..B..B..D..
00003d70: 44 03 00 44 04 00 42 03 00 42 05 91 4c 00 02 e1  D..D..B..B..L...
00003d80: 00 40 1e 91 39 7f 03 40 7f 41 40 00 00 39 00 0a  .@..9..@.A@..9..
00003d90: 39 7f 1e 39 00 0b 39 7f 02 42 7f 43 42 00 00 39  9..9..9..B.CB..9
00003da0: 00 0a 39 7f 1e 39 00 0c 39 7f 01 43 7f 43 43 00  ..9..9..9..C.CC.
00003db0: 00 39 00 0a 39 7f 1e 39 00 0b 39 7f 02 42 7f 43  .9..9..9..9..B.C
00003dc0: 42 00 00 39 00 0a 39 7f 1e 39 00 0a 39 7f 01 40  B..9..9..9..9..@
00003dd0: 7f 45 40 00 00 39 00 0a 39 7f 1e 39 00 0b 39 7f  .E@..9..9..9..9.
00003de0: 01 42 7f 44 42 00 00 39 00 0a 39 7f 1e 39 00 08  .B.DB..9..9..9..
00003df0: 39 7f 03 43 7f 45 43 00 00 39 00 0a 39 7f 1e 39  9..C.EC..9..9..9
00003e00: 00 0a 39 7f 01 42 7f 45 42 00 00 39 00 0a 39 7f  ..9..B.EB..9..9.
00003e10: 1e 39 00 5a e1 00 40 00 91 4f 7f 02 e1 00 42 05  .9.Z..@..O....B.
00003e20: 00 42 04 00 44 05 00 44 04 00 46 05 00 46 03 00  .B..D..D..F..F..
00003e30: 48 05 00 48 03 91 4f 00 00 e1 00 46 01 00 42 03  H..H..O....F..B.
00003e40: 91 50 7f 03 e1 00 40 1b 91 50 00 07 e1 00 40 03  .P....@..P....@.
00003e50: 91 4f 7f 05 e1 00 42 06 00 42 06 00 44 05 00 44  .O....B..B..D..D
00003e60: 06 00 46 07 00 46 02 91 4f 00 01 e1 00 46 02 00  ..F..F..O....F..
00003e70: 44 00 91 50 7f 01 e1 00 42 01 00 42 01 00 40 03  D..P....B..B..@.
00003e80: 00 40 18 91 50 00 0a 4f 7f 46 4f 00 0a 4c 7f 1e  .@..P..O.FO..L..
00003e90: 4c 00 0a 4a 7f 1e 4a 00 08 e1 00 40 02 00 42 00  L..J..J....@..B.
00003ea0: 91 43 7f 01 e1 00 42 01 00 44 01 00 44 02 00 46  .C....B..D..D..F
00003eb0: 01 00 46 01 00 46 01 00 44 02 00 42 01 00 42 01  ..F..F..D..B..B.
00003ec0: 91 43 00 00 e1 00 40 01 00 40 02 00 3e 00 91 44  .C....@..@..>..D
00003ed0: 7f 01 e1 00 3c 01 00 3e 01 00 40 02 00 40 01 00  ....<..>..@..@..
00003ee0: 42 01 00 44 01 00 44 02 00 44 01 00 42 01 91 44  B..D..D..D..B..D
00003ef0: 00 00 e1 00 42 01 00 40 02 00 3e 00 91 43 7f 01  ....B..@..>..C..
00003f00: e1 00 3c 01 00 3c 01 00 3e 02 00 40 02 00 42 01  ..<..<..>..@..B.
00003f10: 00 42 02 00 44 02 00 44 01 00 44 02 00 42 01 00  .B..D..D..D..B..
00003f20: 40 01 00 3e 01 00 3c 02 00 3e 01 00 40 01 00 40  @..>..<..>..@..@
00003f30: 03 00 42 00 00 42 01 00 44 01 00 44 01 00 44 02  ..B..B..D..D..D.
00003f40: 00 42 01 00 42 01 00 40 01 00 3e 02 00 3e 01 00  .B..B..@..>..>..
00003f50: 3c 01 00 3e 01 00 3e 02 91 43 00 01 e1 00 40 09  <..>..>..C....@.
00003f60: 91 4c 7f 81 16 4c 00 0a 4a 7f 1e 4a 00 0a 4c 7f  .L...L..J..J..L.
00003f70: 1e 4c 00 0a e1 00 40 00 91 43 7f 01 e1 00 42 02  .L....@..C....B.
00003f80: 00 42 02 00 44 02 00 44 01 00 44 02 00 42 01 00  .B..D..D..D..B..
00003f90: 42 01 91 43 00 00 e1 00 40 03 00 40 00 91 44 7f  B..C....@..@..D.
00003fa0: 01 e1 00 3e 01 00 3e 01 00 3c 02 00 3e 01 00 3e  ...>..>..<..>..>
00003fb0: 01 00 40 01 00 40 03 00 42 01 91 44 00 00 e1 00  ..@..@..B..D....
00003fc0: 42 01 00 44 02 00 44 00 91 43 7f 01 e1 00 44 01  B..D..D..C....D.
00003fd0: 00 42 01 00 42 02 00 40 01 00 40 01 00 3e 01 00  .B..B..@..@..>..
00003fe0: 3e 02 00 3c 01 00 3e 01 00 3e 01 00 40 02 00 42  >..<..>..>..@..B
00003ff0: 01 00 42 01 00 44 01 00 44 02 00 44 01 00 42 01  ..B..D..D..D..B.
00004000: 00 42 01 00 40 02 00 3e 01 00 3e 01 00 3c 01 00  .B..@..>..>..<..
00004010: 3e 02 00 3e 01 00 40 01 00 40 03 00 42 01 00 42  >..>..@..@..B..B
00004020: 01 00 44 01 00 44 02 91 43 00 00 e1 00 44 01 00  ..D..D..C....D..
00004030: 42 01 00 40 01 00 3e 02 00 3c 01 00 3e 02 00 3e  B..@..>..<..>..>
00004040: 02 00 40 00 91 4c 7f 46 4c 00 0a 39 7f 1e 39 00  ..@..L.FL..9..9.
00004050: 0a 3a 7f 1e 3a 00 0a 3b 7f 46 3b 00 08 3b 7f 02  .:..:..;.F;..;..
00004060: 47 7f 02 3f 7f 00 45 7f 42 3b 00 02 47 00 02 3f  G..?..E.B;..G..?
00004070: 00 00 45 00 08 4b 7f 00 47 7f 02 3f 7f 00 45 7f  ..E..K..G..?..E.
00004080: 44 47 00 00 4b 00 02 3f 00 00 45 00 08 45 7f 01  DG..K..?..E..E..
00004090: 4b 7f 00 47 7f 01 3f 7f 44 45 00 01 4b 00 00 47  K..G..?.DE..K..G
000040a0: 00 01 3f 00 08 47 7f 01 3f 7f 01 4b 7f 00 45 7f  ..?..G..?..K..E.
000040b0: 44 47 00 01 3f 00 01 4b 00 00 45 00 06 3f 7f 00  DG..?..K..E..?..
000040c0: 4b 7f 00 47 7f 02 45 7f 44 47 00 00 3f 00 00 4b  K..G..E.DG..?..K
000040d0: 00 02 45 00 0c 39 7f 5a 39 00 1e 3c 7f 1e 3c 00  ..E..9.Z9..<..<.
000040e0: 0a 3d 7f 1e 3d 00 06 40 7f 1e 40 00 0c 43 7f 1e  .=..=..@..@..C..
000040f0: 43 00 0a 40 7f 1e 40 00 0b 43 7f 1e 43 00 07 40  C..@..@..C..C..@
00004100: 7f 1e 40 00 0e 37 7f 01 e1 00 40 03 00 42 05 00  ..@..7....@..B..
00004110: 42 05 00 44 04 00 44 05 00 46 05 00 46 02 00 46  B..D..D..F..F..F
00004120: 01 00 44 02 00 42 01 00 42 01 91 37 00 00 e1 00  ..D..B..B..7....
00004130: 40 03 91 38 7f 1e 38 00 08 34 7f 5a 34 00 20 45  @..8..8..4.Z4. E
00004140: 7f 03 47 7f 02 45 00 23 4a 7f 44 47 00 02 4a 00  ..G..E.#J.DG..J.
00004150: 0b 45 7f 05 45 00 00 47 7f 23 4a 7f 46 4a 00 00  .E..E..G.#J.FJ..
00004160: 47 00 0b 47 7f 05 47 00 00 45 7f 19 45 00 06 43  G..G..G..E..E..C
00004170: 7f 1e 43 00 0d 40 7f 1e 40 00 04 e1 00 40 01 00  ..C..@..@....@..
00004180: 42 02 00 42 00 91 43 7f 02 e1 00 44 02 00 44 01  B..B..C....D..D.
00004190: 91 43 00 00 e1 00 44 02 00 42 00 91 44 7f 01 e1  .C....D..B..D...
000041a0: 00 40 01 00 3e 01 00 3c 02 91 44 00 00 e1 00 3a  .@..>..<..D....:
000041b0: 01 00 3c 01 00 3e 00 91 43 7f 01 e1 00 3e 02 00  ..<..>..C....>..
000041c0: 40 01 00 40 01 00 42 01 00 44 02 00 44 01 00 44  @..@..B..D..D..D
000041d0: 01 00 42 01 00 40 02 00 40 01 00 3e 01 00 3c 01  ..B..@..@..>..<.
000041e0: 00 3e 02 00 3e 01 00 40 02 00 40 02 00 42 01 00  .>..>..@..@..B..
000041f0: 42 01 00 42 01 00 40 02 00 40 01 00 3e 01 00 3e  B..B..@..@..>..>
00004200: 01 00 3c 02 00 3e 01 00 40 01 00 42 01 00 44 02  ..<..>..@..B..D.
00004210: 00 44 01 00 44 01 00 42 01 00 40 02 00 40 01 00  .D..D..B..@..@..
00004220: 3e 01 00 3c 01 00 3e 02 00 40 01 00 40 01 00 42  >..<..>..@..@..B
00004230: 01 00 44 02 00 44 01 00 44 02 00 42 02 00 42 02  ..D..D..D..B..B.
00004240: 91 43 00 00 e1 00 40 06 91 4c 7f 46 4c 00 0a 39  .C....@..L.FL..9
00004250: 7f 1e 39 00 0d 3a 7f 1e 3a 00 0a 3b 7f 46 3b 00  ..9..:..:..;.F;.
00004260: 07 45 7f 03 4e 7f 01 47 7f 42 45 00 03 4e 00 01  .E..N..G.BE..N..
00004270: 47 00 0a 3f 7f 46 3f 00 08 3b 7f 02 34 7f 44 3b  G..?.F?..;..4.D;
00004280: 00 02 34 00 06 34 7f 1e 34 00 0a 3d 7f 00 34 7f  ..4..4..4..=..4.
00004290: 46 34 00 00 3d 00 0e 34 7f 1e 34 00 06 34 7f 02  F4..=..4..4..4..
000042a0: 3e 7f 44 34 00 02 3e 00 0a 34 7f 1e 34 00 0a 34  >.D4..>..4..4..4
000042b0: 7f 01 3d 7f 45 34 00 01 3d 00 07 34 7f 1e 34 00  ..=.E4..=..4..4.
000042c0: 0a 39 7f 04 40 7f 42 39 00 04 40 00 08 39 7f 1e  .9..@.B9..@..9..
000042d0: 39 00 08 42 7f 04 39 7f 42 42 00 04 39 00 0a 39  9..B..9.BB..9..9
000042e0: 7f 1e 39 00 06 39 7f 04 43 7f 42 39 00 04 43 00  ..9..9..C.B9..C.
000042f0: 09 39 7f 1e 39 00 07 42 7f 03 39 7f 57 42 00 03  .9..9..B..9.WB..
00004300: 39 00 6b 4a 7f 05 4a 00 03 e1 00 40 00 91 4c 7f  9.kJ..J....@..L.
00004310: 02 e1 00 42 03 00 42 02 00 44 03 00 44 02 00 44  ...B..B..D..D..D
00004320: 03 00 42 02 00 42 03 00 40 02 00 40 03 00 3e 02  ..B..B..@..@..>.
00004330: 00 3e 03 00 3c 02 00 3e 03 00 3e 02 00 40 03 00  .>..<..>..>..@..
00004340: 40 04 00 42 02 00 42 03 00 44 02 00 44 04 00 44  @..B..B..D..D..D
00004350: 02 00 42 03 00 42 02 00 40 03 00 40 02 00 3e 03  ..B..B..@..@..>.
00004360: 00 3e 02 00 3c 02 00 3e 02 00 3e 03 00 40 02 00  .>..<..>..>..@..
00004370: 40 01 00 42 03 00 42 02 00 44 03 00 44 01 00 44  @..B..B..D..D..D
00004380: 01 00 42 02 00 42 01 00 40 01 00 40 03 00 3e 01  ..B..B..@..@..>.
00004390: 00 3e 01 00 3c 01 00 3c 02 00 3a 01 00 3c 02 00  .>..<..<..:..<..
000043a0: 3c 02 00 3e 01 00 3e 02 00 40 02 00 40 01 00 42  <..>..>..@..@..B
000043b0: 02 00 42 02 00 44 01 00 44 02 00 46 02 00 46 01  ..B..D..D..F..F.
000043c0: 00 46 01 00 44 01 00 44 03 00 42 01 00 42 01 00  .F..D..D..B..B..
000043d0: 40 02 00 40 01 00 3e 01 00 3e 03 00 3c 01 00 3c  @..@..>..>..<..<
000043e0: 01 00 3a 01 00 3c 02 00 3c 01 00 3e 01 00 3e 01  ..:..<..<..>..>.
000043f0: 00 40 03 00 40 01 00 42 01 00 42 02 00 44 01 00  .@..@..B..B..D..
00004400: 44 01 00 44 03 00 42 02 00 42 01 00 40 03 00 40  D..D..B..B..@..@
00004410: 01 00 3e 03 00 3e 02 00 3c 01 00 3e 03 00 3e 01  ..>..>..<..>..>.
00004420: 00 40 03 00 40 01 00 42 02 00 42 02 00 44 02 00  .@..@..B..B..D..
00004430: 44 01 00 44 02 00 42 01 00 42 01 00 40 01 00 40  D..D..B..B..@..@
00004440: 02 00 3e 01 00 3e 01 00 3c 01 00 3c 02 00 3a 01  ..>..>..<..<..:.
00004450: 00 3c 01 00 3e 01 00 3e 02 00 40 01 00 42 01 00  .<..>..>..@..B..
00004460: 42 01 00 44 02 00 46 01 00 46 01 00 46 01 00 44  B..D..F..F..F..D
00004470: 02 00 44 01 00 42 01 00 40 01 00 40 02 00 3e 01  ..D..B..@..@..>.
00004480: 00 3e 01 00 3c 03 00 3e 02 00 3e 04 00 40 0f 91  .>..<..>..>..@..
00004490: 4c 00 1b 4f 7f 08 e1 00 40 0a 00 42 11 00 42 0d  L..O....@..B..B.
000044a0: 00 44 09 00 44 06 00 46 02 00 46 03 00 48 02 91  .D..D..F..F..H..
000044b0: 4f 00 00 e1 00 48 03 00 46 01 00 44 01 00 42 02  O....H..F..D..B.
000044c0: 00 40 07 91 4f 7f 08 e1 00 42 02 00 42 04 00 44  .@..O....B..B..D
000044d0: 02 00 44 04 00 46 03 00 46 03 00 48 03 00 48 01  ..D..F..F..H..H.
000044e0: 91 4f 00 01 e1 00 48 02 00 46 01 00 44 01 00 42  .O....H..F..D..B
000044f0: 01 00 40 03 91 50 7f 46 50 00 57 45 7f 05 45 00  ..@..P.FP.WE..E.
00004500: 00 47 7f 19 47 00 0d 4a 7f 1e 4a 00 07 47 7f 05  .G..G..J..J..G..
00004510: 47 00 04 45 7f 19 45 00 06 43 7f 1e 43 00 0c 40  G..E..E..C..C..@
00004520: 7f 1e 40 00 0c 43 7f 24 44 7f 04 43 00 1a 44 00  ..@..C.$D..C..D.
00004530: 0d 4a 7f 1e 4a 00 0b 39 7f 00 40 7f 46 40 00 00  .J..J..9..@.F@..
00004540: 39 00 0a 39 7f 1e 39 00 08 39 7f 01 42 7f 45 39  9..9..9..9..B.E9
00004550: 00 01 42 00 0b 39 7f 1e 39 00 06 39 7f 03 43 7f  ..B..9..9..9..C.
00004560: 43 39 00 03 43 00 0b 39 7f 1e 39 00 08 42 7f 01  C9..C..9..9..B..
00004570: 39 7f 45 42 00 01 39 00 07 39 7f 1e 39 00 0c 39  9.EB..9..9..9..9
00004580: 7f 02 40 7f 44 39 00 02 40 00 09 39 7f 1e 39 00  ..@.D9..@..9..9.
00004590: 09 42 7f 02 39 7f 44 42 00 02 39 00 06 42 7f 02  .B..9.DB..9..B..
000045a0: 39 7f 1c 42 00 02 39 00 08 39 7f 00 43 7f 46 43  9..B..9..9..C.FC
000045b0: 00 00 39 00 0a 43 7f 02 39 7f 1c 43 00 02 39 00  ..9..C..9..C..9.
000045c0: 0a 39 7f 02 42 7f 44 39 00 02 42 00 08 39 7f 00  .9..B.D9..B..9..
000045d0: 42 7f 1e 42 00 00 39 00 0b 39 7f 01 40 7f 42 40  B..B..9..9..@.B@
000045e0: 00 03 39 00 0a 4c 7f 1e 4c 00 07 51 7f 05 51 00  ..9..L..L..Q..Q.
000045f0: 00 53 7f 41 53 00 0d 51 7f 02 53 7f 03 51 00 3e  .S.AS..Q..S..Q.>
00004600: 53 00 0c 51 7f 1e 51 00 0c 4f 7f 1e 4f 00 81 28  S..Q..Q..O..O..(
00004610: 51 7f 0a 51 00 00 53 7f 3c 53 00 0a 4f 7f 1e 4f  Q..Q..S.<S..O..O
00004620: 00 0a 51 7f 1e 51 00 0a 4c 7f 1e 4c 00 0a 4f 7f  ..Q..Q..L..L..O.
00004630: 1e 4f 00 0a 4f 7f 01 e1 00 40 06 00 42 0d 00 42  .O..O....@..B..B
00004640: 0c 00 44 0d 00 44 08 00 46 05 00 46 07 00 48 05  ..D..D..F..F..H.
00004650: 00 48 03 00 48 02 91 4f 00 00 e1 00 46 01 00 44  .H..H..O....F..D
00004660: 01 00 42 01 00 40 84 5a 91 39 7f 5a 39 00 1e 3c  ..B..@.Z.9.Z9..<
00004670: 7f 1e 3c 00 0a 3d 7f 1e 3d 00 0a 40 7f 1e 40 00  ..<..=..=..@..@.
00004680: 0a 43 7f 1e 43 00 0a 40 7f 1e 40 00 0a 43 7f 1e  .C..C..@..@..C..
00004690: 43 00 0a 40 7f 1e 40 00 08 e1 00 40 02 91 37 7f  C..@..@....@..7.
000046a0: 01 e1 00 42 05 00 42 04 00 44 05 00 44 03 00 46  ...B..B..D..D..F
000046b0: 05 00 46 04 00 48 05 00 48 03 91 37 00 00 e1 00  ..F..H..H..7....
000046c0: 48 01 00 46 01 00 44 01 00 42 02 00 40 00 91 38  H..F..D..B..@..8
000046d0: 7f 1e 38 00 0a 34 7f 5a 34 00 1e 45 7f 05 45 00  ..8..4.Z4..E..E.
000046e0: 00 47 7f 23 4a 7f 1e 4a 00 0a 4a 7f 1e 4a 00 0a  .G.#J..J..J..J..
000046f0: 47 00 00 45 7f 05 45 00 00 47 7f 23 4a 7f 1e 4a  G..E..E..G.#J..J
00004700: 00 0a 4a 7f 1e 4a 00 0a 47 00 00 47 7f 05 47 00  ..J..J..G..G..G.
00004710: 00 45 7f 19 45 00 0a 44 7f 1e 44 00 0a 40 7f 1e  .E..E..D..D..@..
00004720: 40 00 08 e1 00 40 02 00 42 00 91 43 7f 02 e1 00  @....@..B..C....
00004730: 42 03 00 44 02 91 43 00 00 e1 00 44 01 00 44 02  B..D..C....D..D.
00004740: 91 44 7f 01 e1 00 42 01 00 42 03 00 40 01 00 40  .D....B..B..@..@
00004750: 02 91 44 00 00 e1 00 3e 02 00 40 00 91 43 7f 02  ..D....>..@..C..
00004760: e1 00 40 03 00 42 01 00 42 02 00 44 03 00 44 01  ..@..B..B..D..D.
00004770: 00 44 01 00 42 02 00 40 01 00 3e 01 00 3e 01 00  .D..B..@..>..>..
00004780: 3c 02 00 3a 01 00 3c 01 00 3c 01 00 3e 02 00 40  <..:..<..<..>..@
00004790: 01 00 40 01 00 42 01 00 42 02 00 44 01 00 44 01  ..@..B..B..D..D.
000047a0: 00 44 01 00 42 02 00 40 01 00 3e 01 00 3c 01 00  .D..B..@..>..<..
000047b0: 3a 02 00 3c 01 00 3e 01 00 3e 01 00 40 02 00 40  :..<..>..>..@..@
000047c0: 01 00 42 01 00 44 01 00 44 02 91 43 00 00 e1 00  ..B..D..D..C....
000047d0: 44 01 00 42 02 00 42 02 00 40 02 00 40 03 91 4c  D..B..B..@..@..L
000047e0: 7f 1e 4c 00 0a 39 7f 1e 39 00 0a 3a 7f 1e 3a 00  ..L..9..9..:..:.
000047f0: 0a 3b 7f 6e 3b 00 0a 4e 7f 00 45 7f 00 47 7f 46  .;.n;..N..E..G.F
00004800: 47 00 00 45 00 00 4e 00 0a 45 7f 00 47 7f 46 47  G..E..N..E..G.FG
00004810: 00 00 45 00 0a 3b 7f 00 34 7f 46 34 00 00 3b 00  ..E..;..4.F4..;.
00004820: 0a 34 7f 00 3b 7f 1e 3b 00 00 34 00 0a 34 7f 00  .4..;..;..4..4..
00004830: 3d 7f 41 3d 00 00 34 00 05 34 7f 00 3d 7f 1e 3d  =.A=..4..4..=..=
00004840: 00 00 34 00 14 3e 7f 02 34 7f 44 3e 00 02 34 00  ..4..>..4.D>..4.
00004850: 08 34 7f 00 3e 7f 1e 3e 00 00 34 00 0a 3d 7f 00  .4..>..>..4..=..
00004860: 34 7f 46 34 00 00 3d 00 0a 34 7f 00 3d 7f 1e 3d  4.F4..=..4..=..=
00004870: 00 00 34 00 0a 39 7f 00 40 7f 46 40 00 00 39 00  ..4..9..@.F@..9.
00004880: 0a 39 7f 00 40 7f 1e 40 00 00 39 00 0a 42 7f 00  .9..@..@..9..B..
00004890: 39 7f 46 39 00 00 42 00 0a 39 7f 00 42 7f 1e 42  9.F9..B..9..B..B
000048a0: 00 00 39 00 0a 39 7f 00 43 7f 46 43 00 00 39 00  ..9..9..C.FC..9.
000048b0: 0a 39 7f 00 43 7f 1e 43 00 00 39 00 0a 42 7f 00  .9..C..C..9..B..
000048c0: 39 7f 5a 39 00 00 42 00 81 3e 47 7f 14 47 00 00  9.Z9..B..>G..G..
000048d0: 4a 7f 19 4a 00 02 4c 7f 0b 4c 00 04 4c 7f 0e 4c  J..J..L..L..L..L
000048e0: 00 02 e1 00 40 02 00 42 00 91 4c 7f 01 e1 00 42  ....@..B..L....B
000048f0: 01 00 44 03 00 44 01 00 46 01 00 46 01 00 46 02  ..D..D..F..F..F.
00004900: 00 44 01 00 44 01 00 42 01 00 42 03 00 40 01 00  .D..D..B..B..@..
00004910: 40 01 00 3e 02 00 3e 01 00 3c 01 00 3e 01 00 3e  @..>..>..<..>..>
00004920: 02 00 40 01 00 42 01 00 42 01 00 44 02 00 44 01  ..@..B..B..D..D.
00004930: 00 46 01 00 46 01 00 46 02 00 44 01 00 42 01 00  .F..F..F..D..B..
00004940: 40 01 00 3e 02 00 3c 01 00 3e 02 00 3e 02 00 40  @..>..<..>..>..@
00004950: 01 00 40 02 00 42 02 00 42 01 00 44 02 00 44 02  ..@..B..B..D..D.
00004960: 00 44 01 00 42 01 00 42 01 00 40 02 00 3e 01 00  .D..B..B..@..>..
00004970: 3e 01 00 3c 01 00 3e 02 00 3e 01 00 40 01 00 40  >..<..>..>..@..@
00004980: 01 00 42 02 00 42 01 00 44 01 00 44 01 00 42 02  ..B..B..D..D..B.
00004990: 00 40 01 00 3e 01 00 3c 01 00 3a 02 00 3c 01 00  .@..>..<..:..<..
000049a0: 3c 01 00 3e 01 00 40 02 00 40 01 00 42 01 00 42  <..>..@..@..B..B
000049b0: 01 00 44 02 00 44 01 00 44 01 00 42 01 00 40 02  ..D..D..D..B..@.
000049c0: 00 40 01 00 3e 01 00 3c 03 00 3e 03 00 3e 04 00  .@..>..<..>..>..
000049d0: 40 08 00 40 01 91 4c 00 81 72 e1 00 42 02 00 44  @..@..L..r..B..D
000049e0: 00 91 45 7f 01 e1 00 46 01 00 48 01 00 4a 02 91  ..E....F..H..J..
000049f0: 45 00 00 e1 00 4a 01 00 48 00 91 47 7f 01 e1 00  E....J..H..G....
00004a00: 40 17 91 47 00 0a 4a 7f 1e 4a 00 0a 4a 7f 1e 4a  @..G..J..J..J..J
00004a10: 00 0a 47 7f 01 e1 00 3e 01 00 3c 01 00 3a 02 91  ..G....>..<..:..
00004a20: 47 00 00 e1 00 38 01 00 3e 01 00 40 00 91 45 7f  G....8..>..@..E.
00004a30: 17 45 00 0a 43 7f 1e 43 00 0a 40 7f 81 02 40 00  .E..C..C..@...@.
00004a40: 1e 39 7f 00 40 7f 46 40 00 00 39 00 0a 39 7f 1e  .9..@.F@..9..9..
00004a50: 39 00 0a 39 7f 00 42 7f 46 42 00 00 39 00 0a 39  9..9..B.FB..9..9
00004a60: 7f 1e 39 00 0a 39 7f 00 43 7f 46 43 00 00 39 00  ..9..9..C.FC..9.
00004a70: 0a 39 7f 1e 39 00 0a 39 7f 00 42 7f 46 42 00 00  .9..9..9..B.FB..
00004a80: 39 00 0a 39 7f 1e 39 00 0a 39 7f 00 40 7f 46 40  9..9..9..9..@.F@
00004a90: 00 00 39 00 0a 39 7f 1e 39 00 0a 39 7f 00 42 7f  ..9..9..9..9..B.
00004aa0: 46 42 00 00 39 00 0a 39 7f 1e 39 00 0a 39 7f 00  FB..9..9..9..9..
00004ab0: 43 7f 46 43 00 00 39 00 0a 39 7f 1e 39 00 0a 42  C.FC..9..9..9..B
00004ac0: 7f 00 39 7f 46 39 00 00 42 00 0a 39 7f 00 42 7f  ..9.F9..B..9..B.
00004ad0: 1e 42 00 00 39 00 0a 34 7f 00 40 7f 0a 40 00 3c  .B..9..4..@..@.<
00004ae0: 34 00 07 e1 00 40 01 00 42 02 00 42 00 91 4f 7f  4....@..B..B..O.
00004af0: 01 e1 00 44 01 00 44 01 00 46 02 00 46 01 00 46  ...D..D..F..F..F
00004b00: 01 91 4f 00 00 e1 00 44 01 00 42 02 00 40 00 91  ..O....D..B..@..
00004b10: 50 7f 1a 50 00 02 e1 00 42 02 00 42 00 91 4f 7f  P..P....B..B..O.
00004b20: 01 e1 00 44 01 00 44 01 00 46 02 00 46 01 00 46  ...D..D..F..F..F
00004b30: 01 91 4f 00 00 e1 00 44 01 00 42 02 91 50 7f 01  ..O....D..B..P..
00004b40: e1 00 42 04 00 40 37 91 50 00 0a e1 00 42 00 91  ..B..@7.P....B..
00004b50: 4f 7f 01 e1 00 44 01 00 46 01 00 46 02 00 44 01  O....D..F..F..D.
00004b60: 00 42 01 91 4f 00 00 e1 00 40 03 91 50 7f 1a 50  .B..O....@..P..P
00004b70: 00 04 4c 7f 81 52 4c 00 1c e1 00 40 02 91 4f 7f  ..L..RL....@..O.
00004b80: 00 5b 7f 01 e1 00 42 02 00 42 04 00 44 03 00 44  .[....B..B..D..D
00004b90: 03 00 46 02 91 5b 00 01 e1 00 46 04 00 48 02 00  ..F..[....F..H..
00004ba0: 48 04 00 4a 02 00 4a 03 00 40 27 91 4f 00 32 4f  H..J..J..@'.O.2O
00004bb0: 7f 0d e1 00 42 17 00 42 10 00 44 0a 00 44 06 00  ....B..B..D..D..
00004bc0: 44 02 91 4f 00 00 e1 00 42 01 00 42 01 00 40 08  D..O....B..B..@.
00004bd0: 91 4c 7f 1e 4c 00 0a 47 7f 05 47 00 00 46 7f 03  .L..L..G..G..F..
00004be0: 46 00 02 45 7f 14 45 00 0a 43 7f 1e 43 00 0a 40  F..E..E..C..C..@
00004bf0: 7f 6e 40 00 0a 3e 7f 1e 3e 00 0a 3f 7f 46 3f 00  .n@..>..>..?.F?.
00004c00: 0a 3b 7f 1e 3b 00 0a 3b 7f 1e 3b 00 0a 45 7f 00  .;..;..;..;..E..
00004c10: 3e 7f 00 47 7f 02 4a 7f 0a 4a 00 3a 45 00 00 3e  >..G..J..J.:E..>
00004c20: 00 00 47 00 0a 45 7f 00 47 7f 00 3e 7f 02 4a 7f  ..G..E..G..>..J.
00004c30: 0a 4a 00 3a 45 00 00 47 00 00 3e 00 0a 3e 7f 00  .J.:E..G..>..>..
00004c40: 45 7f 00 47 7f 02 4a 7f 0a 4a 00 3a 3e 00 00 45  E..G..J..J.:>..E
00004c50: 00 00 47 00 0a 3e 7f 00 45 7f 00 47 7f 01 4a 7f  ..G..>..E..G..J.
00004c60: 0a 4a 00 3b 3e 00 00 45 00 00 47 00 0a 39 7f 5a  .J.;>..E..G..9.Z
00004c70: 39 00 1e 3c 7f 1e 3c 00 0a 3d 7f 1e 3d 00 0a 40  9..<..<..=..=..@
00004c80: 7f 1e 40 00 0a 43 7f 1e 43 00 0a 40 7f 1e 40 00  ..@..C..C..@..@.
00004c90: 0a 43 7f 1e 43 00 0a 43 7f 1e 43 00 0a e1 00 40  .C..C..C..C....@
00004ca0: 00 91 37 7f 01 e1 00 3e 02 00 3e 02 00 3c 01 00  ..7....>..>..<..
00004cb0: 3e 01 00 3e 01 00 40 02 00 42 01 00 42 01 00 44  >..>..@..B..B..D
00004cc0: 01 00 44 02 00 44 01 00 42 01 00 40 01 00 40 02  ..D..D..B..@..@.
00004cd0: 00 3e 01 00 3c 01 00 3e 01 00 3e 02 00 40 01 00  .>..<..>..>..@..
00004ce0: 40 02 00 42 02 00 42 01 00 44 01 00 44 01 00 42  @..B..B..D..D..B
00004cf0: 02 00 40 01 00 3e 01 00 3c 01 00 3e 02 00 40 01  ..@..>..<..>..@.
00004d00: 00 40 01 00 42 01 00 42 02 00 44 01 00 46 01 00  .@..B..B..D..F..
00004d10: 46 01 00 44 02 00 42 01 00 40 01 00 3e 01 00 3a  F..D..B..@..>..:
00004d20: 02 00 3c 01 00 3e 01 00 3e 01 00 40 02 00 40 01  ..<..>..>..@..@.
00004d30: 00 42 01 00 44 01 00 44 02 00 44 01 00 42 01 00  .B..D..D..D..B..
00004d40: 40 08 91 37 00 05 34 7f 00 40 7f 0a 40 00 50 34  @..7..4..@..@.P4
00004d50: 00 1e 45 7f 07 45 00 01 46 7f 07 46 00 02 47 7f  ..E..E..F..F..G.
00004d60: 17 47 00 00 47 7f 00 4a 7f 46 4a 00 00 47 00 0a  .G..G..J.FJ..G..
00004d70: 45 7f 05 45 00 01 46 7f 05 46 00 02 47 7f 11 47  E..E..F..F..G..G
00004d80: 00 0a 4a 7f 00 47 7f 46 47 00 00 4a 00 0a 47 7f  ..J..G.FG..J..G.
00004d90: 05 47 00 01 46 7f 06 46 00 03 45 7f 0f 45 00 0a  .G..F..F..E..E..
00004da0: 43 7f 1e 43 00 0a 40 7f 1e 40 00 07 e1 00 40 03  C..C..@..@....@.
00004db0: 00 42 00 91 43 7f 02 e1 00 42 03 00 44 02 91 43  .B..C....B..D..C
00004dc0: 00 00 e1 00 44 01 00 44 02 00 42 00 91 44 7f 01  ....D..D..B..D..
00004dd0: e1 00 42 01 00 40 01 00 40 02 00 3e 01 00 3e 01  ..B..@..@..>..>.
00004de0: 91 44 00 00 e1 00 3c 01 00 3c 02 00 3a 00 91 43  .D....<..<..:..C
00004df0: 7f 01 e1 00 3c 01 00 3e 01 00 3e 02 00 40 01 00  ....<..>..>..@..
00004e00: 40 01 00 42 01 00 44 02 00 44 01 00 44 01 00 42  @..B..D..D..D..B
00004e10: 01 00 40 02 00 3e 01 00 3e 01 00 3c 01 00 3a 02  ..@..>..>..<..:.
00004e20: 00 3c 01 00 3e 01 00 3e 01 00 40 02 00 40 01 00  .<..>..>..@..@..
00004e30: 42 01 00 44 01 00 44 02 00 44 01 00 42 01 00 42  B..D..D..D..B..B
00004e40: 01 00 40 02 00 40 01 00 3e 01 00 3e 01 00 3c 02  ..@..@..>..>..<.
00004e50: 00 3e 01 00 3e 01 00 40 03 00 40 01 00 42 01 00  .>..>..@..@..B..
00004e60: 42 01 00 42 02 91 43 00 01 e1 00 40 09 91 4c 7f  B..B..C....@..L.
00004e70: 46 4c 00 0a 39 7f 1e 39 00 0a 3a 7f 1e 3a 00 0a  FL..9..9..:..:..
00004e80: 3b 7f 46 3b 00 0a 47 7f 00 4e 7f 00 45 7f 46 45  ;.F;..G..N..E.FE
00004e90: 00 00 4e 00 00 47 00 0a 47 7f 00 45 7f 00 3f 7f  ..N..G..G..E..?.
00004ea0: 46 3f 00 00 45 00 00 47 00 0a 3b 7f 02 34 7f 44  F?..E..G..;..4.D
00004eb0: 3b 00 02 34 00 06 34 7f 1e 34 00 0a 3d 7f 00 34  ;..4..4..4..=..4
00004ec0: 7f 46 34 00 00 3d 00 0e 34 7f 1e 34 00 06 34 7f  .F4..=..4..4..4.
00004ed0: 02 3e 7f 44 34 00 02 3e 00 0a 34 7f 1e 34 00 0a  .>.D4..>..4..4..
00004ee0: 34 7f 01 3d 7f 45 34 00 01 3d 00 07 34 7f 1e 34  4..=.E4..=..4..4
00004ef0: 00 0a 39 7f 04 40 7f 42 39 00 04 40 00 08 39 7f  ..9..@.B9..@..9.
00004f00: 1e 39 00 08 42 7f 04 39 7f 42 42 00 04 39 00 0a  .9..B..9.BB..9..
00004f10: 39 7f 1e 39 00 06 39 7f 04 43 7f 42 39 00 04 43  9..9..9..C.B9..C
00004f20: 00 09 39 7f 1e 39 00 07 42 7f 03 39 7f 57 42 00  ..9..9..B..9.WB.
00004f30: 03 39 00 1d 3b 7f 02 34 7f 44 3b 00 02 34 00 06  .9..;..4.D;..4..
00004f40: 34 7f 1e 34 00 0a 3d 7f 00 34 7f 46 34 00 00 3d  4..4..=..4.F4..=
00004f50: 00 0e 34 7f 1e 34 00 06 34 7f 02 3e 7f 44 34 00  ..4..4..4..>.D4.
00004f60: 02 3e 00 0a 34 7f 1e 34 00 0a 34 7f 01 3d 7f 45  .>..4..4..4..=.E
00004f70: 34 00 01 3d 00 07 34 7f 1e 34 00 0a 39 7f 04 40  4..=..4..4..9..@
00004f80: 7f 42 39 00 04 40 00 08 39 7f 1e 39 00 08 42 7f  .B9..@..9..9..B.
00004f90: 04 39 7f 42 42 00 04 39 00 0a 39 7f 1e 39 00 06  .9.BB..9..9..9..
00004fa0: 39 7f 04 43 7f 42 39 00 04 43 00 09 39 7f 1e 39  9..C.B9..C..9..9
00004fb0: 00 07 42 7f 03 39 7f 57 42 00 03 39 00 1f 39 7f  ..B..9.WB..9..9.
00004fc0: 00 40 7f 46 40 00 00 39 00 0a 39 7f 1e 39 00 08  .@.F@..9..9..9..
00004fd0: 39 7f 01 42 7f 45 39 00 01 42 00 0b 39 7f 1e 39  9..B.E9..B..9..9
00004fe0: 00 06 39 7f 03 43 7f 43 39 00 03 43 00 0b 39 7f  ..9..C.C9..C..9.
00004ff0: 1e 39 00 08 42 7f 01 39 7f 45 42 00 01 39 00 07  .9..B..9.EB..9..
00005000: 39 7f 1e 39 00 0c 39 7f 02 40 7f 44 39 00 02 40  9..9..9..@.D9..@
00005010: 00 09 39 7f 1e 39 00 09 42 7f 02 39 7f 44 42 00  ..9..9..B..9.DB.
00005020: 02 39 00 06 42 7f 02 39 7f 1c 42 00 02 39 00 08  .9..B..9..B..9..
00005030: 39 7f 00 43 7f 46 43 00 00 39 00 0a 43 7f 02 39  9..C.FC..9..C..9
00005040: 7f 1c 43 00 02 39 00 0a 39 7f 02 42 7f 44 39 00  ..C..9..9..B.D9.
00005050: 02 42 00 08 39 7f 00 42 7f 1e 42 00 00 39 00 0a  .B..9..B..B..9..
00005060: 3b 7f 02 34 7f 44 3b 00 02 34 00 06 34 7f 1e 34  ;..4.D;..4..4..4
00005070: 00 0a 3d 7f 00 34 7f 46 34 00 00 3d 00 0e 34 7f  ..=..4.F4..=..4.
00005080: 1e 34 00 06 34 7f 02 3e 7f 44 34 00 02 3e 00 0a  .4..4..>.D4..>..
00005090: 34 7f 1e 34 00 0a 34 7f 01 3d 7f 45 34 00 01 3d  4..4..4..=.E4..=
000050a0: 00 07 34 7f 1e 34 00 0a 39 7f 04 40 7f 42 39 00  ..4..4..9..@.B9.
000050b0: 04 40 00 08 39 7f 1e 39 00 08 42 7f 04 39 7f 42  .@..9..9..B..9.B
000050c0: 42 00 04 39 00 0a 39 7f 1e 39 00 06 39 7f 04 43  B..9..9..9..9..C
000050d0: 7f 42 39 00 04 43 00 09 39 7f 1e 39 00 07 42 7f  .B9..C..9..9..B.
000050e0: 03 39 7f 57 42 00 03 39 00 1d 3b 7f 02 34 7f 44  .9.WB..9..;..4.D
000050f0: 3b 00 02 34 00 06 34 7f 1e 34 00 0a 3d 7f 00 34  ;..4..4..4..=..4
00005100: 7f 46 34 00 00 3d 00 0e 34 7f 1e 34 00 06 34 7f  .F4..=..4..4..4.
00005110: 02 3e 7f 44 34 00 02 3e 00 0a 34 7f 1e 34 00 0a  .>.D4..>..4..4..
00005120: 34 7f 01 3d 7f 45 34 00 01 3d 00 07 34 7f 1e 34  4..=.E4..=..4..4
00005130: 00 0a 39 7f 04 40 7f 42 39 00 04 40 00 08 39 7f  ..9..@.B9..@..9.
00005140: 1e 39 00 08 42 7f 04 39 7f 42 42 00 04 39 00 0a  .9..B..9.BB..9..
00005150: 39 7f 1e 39 00 06 39 7f 04 43 7f 42 39 00 04 43  9..9..9..C.B9..C
00005160: 00 09 39 7f 1e 39 00 07 42 7f 03 39 7f 57 42 00  ..9..9..B..9.WB.
00005170: 03 39 00 1d 3b 7f 02 34 7f 44 3b 00 02 34 00 06  .9..;..4.D;..4..
00005180: 34 7f 1e 34 00 0a 3d 7f 00 34 7f 46 34 00 00 3d  4..4..=..4.F4..=
00005190: 00 0e 34 7f 1e 34 00 06 34 7f 02 3e 7f 44 34 00  ..4..4..4..>.D4.
000051a0: 02 3e 00 0a 34 7f 1e 34 00 0a 34 7f 01 3d 7f 45  .>..4..4..4..=.E
000051b0: 34 00 01 3d 00 07 34 7f 1e 34 00 0a 39 7f 04 40  4..=..4..4..9..@
000051c0: 7f 42 39 00 04 40 00 08 39 7f 1e 39 00 08 42 7f  .B9..@..9..9..B.
000051d0: 04 39 7f 42 42 00 04 39 00 0a 39 7f 1e 39 00 06  .9.BB..9..9..9..
000051e0: 39 7f 04 43 7f 42 39 00 04 43 00 09 39 7f 1e 39  9..C.B9..C..9..9
000051f0: 00 07 42 7f 03 39 7f 57 42 00 03 39 00 1b 3b 7f  ..B..9.WB..9..;.
00005200: 02 3b 00 00 34 7f 46 34 00 08 3b 7f 02 34 7f 1c  .;..4.F4..;..4..
00005210: 3b 00 02 34 00 0a 34 7f 02 3d 7f 44 34 00 02 3d  ;..4..4..=.D4..=
00005220: 00 0a 34 7f 1e 34 00 06 34 7f 02 3b 7f 44 34 00  ..4..4..4..;.D4.
00005230: 02 3b 00 0c 34 7f 1e 34 00 06 3d 7f 02 34 7f 44  .;..4..4..=..4.D
00005240: 3d 00 02 34 00 0a 3e 7f 1e 3e 00 08 39 7f 02 40  =..4..>..>..9..@
00005250: 7f 3a 39 00 02 40 00 12 39 7f 1e 39 00 0c 42 7f  .:9..@..9..9..B.
00005260: 01 39 7f 45 42 00 01 39 00 07 39 7f 1e 39 00 0d  .9.EB..9..9..9..
00005270: 43 7f 01 39 7f 3b 43 00 01 39 00 13 39 7f 1e 39  C..9.;C..9..9..9
00005280: 00 0a 39 7f 01 42 7f 59 39 00 01 42 00 6e 4c 7f  ..9..B.Y9..B.nL.
00005290: 1e 4c 00 08 51 7f 05 51 00 01 52 7f 05 52 00 01  .L..Q..Q..R..R..
000052a0: 53 7f 3b 53 00 0a 53 7f 46 53 00 09 53 7f 46 53  S.;S..S.FS..S.FS
000052b0: 00 0c 53 7f 46 53 00 08 53 7f 1e 53 00 2f e1 00  ..S.FS..S..S./..
000052c0: 40 01 91 53 7f 02 e1 00 3e 01 00 3e 01 00 3c 03  @..S....>..>..<.
000052d0: 00 3c 02 00 3e 01 91 53 00 00 e1 00 40 02 91 52  .<..>..S....@..R
000052e0: 7f 3a 52 00 0a 51 7f 46 51 00 0e 50 7f 4f e1 00  .:R..Q.FQ..P.O..
000052f0: 40 04 00 42 05 00 42 05 00 44 05 00 44 03 00 46  @..B..B..D..D..F
00005300: 03 00 46 01 00 48 03 00 48 01 00 48 01 91 50 00  ..F..H..H..H..P.
00005310: 00 e1 00 46 01 00 44 02 00 42 01 00 40 06 91 4c  ...F..D..B..@..L
00005320: 7f 0a 4c 00 06 47 7f 0a 47 00 03 46 7f 07 46 00  ..L..G..G..F..F.
00005330: 04 45 7f 32 45 00 06 43 7f 0a 43 00 0c 40 7f 1e  .E.2E..C..C..@..
00005340: 40 00 0a 39 7f 02 40 7f 44 39 00 02 40 00 0a 39  @..9..@.D9..@..9
00005350: 7f 1e 39 00 09 39 7f 01 42 7f 45 39 00 01 42 00  ..9..9..B.E9..B.
00005360: 09 39 7f 1e 39 00 09 39 7f 00 43 7f 46 43 00 00  .9..9..9..C.FC..
00005370: 39 00 08 39 7f 1e 39 00 0d 39 7f 00 40 7f 46 40  9..9..9..9..@.F@
00005380: 00 00 39 00 0a 39 7f 1e 39 00 07 40 7f 04 39 7f  ..9..9..9..@..9.
00005390: 42 40 00 04 39 00 09 39 7f 1e 39 00 0b 42 7f 00  B@..9..9..9..B..
000053a0: 39 7f 46 39 00 00 42 00 06 42 7f 04 39 7f 1a 42  9.F9..B..B..9..B
000053b0: 00 04 39 00 06 43 7f 04 39 7f 42 43 00 04 39 00  ..9..C..9.BC..9.
000053c0: 08 39 7f 1e 39 00 0a 39 7f 00 42 7f 5a 42 00 00  .9..9..9..B.ZB..
000053d0: 39 00 58 4c 7f 0a 4c 00 0a 4f 7f 0a 4f 00 0c 51  9.XL..L..O..O..Q
000053e0: 7f 0a 51 00 0b 51 7f 05 51 00 00 52 7f 05 52 00  ..Q..Q..Q..R..R.
000053f0: 00 53 7f 25 53 00 0c 51 7f 07 51 00 01 52 7f 05  .S.%S..Q..Q..R..
00005400: 52 00 03 53 7f 22 53 00 0b 51 7f 07 51 00 00 52  R..S."S..Q..Q..R
00005410: 7f 05 52 00 00 53 7f 21 53 00 10 51 7f 08 51 00  ..R..S.!S..Q..Q.
00005420: 00 52 7f 06 52 00 00 53 7f 24 53 00 09 51 7f 07  .R..R..S.$S..Q..
00005430: 51 00 00 52 7f 07 52 00 03 53 7f 4b 53 00 05 52  Q..R..R..S.KS..R
00005440: 7f 0a 52 00 49 47 7f 1a 47 00 04 4a 7f 1b 4c 7f  ..R.IG..G..J..L.
00005450: 03 4a 00 39 4c 00 03 4a 7f 1d 47 7f 01 4a 00 1a  .J.9L..J..G..J..
00005460: 47 00 03 45 7f 38 45 00 02 43 7f 1e 43 00 02 40  G..E.8E..C..C..@
00005470: 7f 1a 40 00 02 e1 00 40 02 00 42 01 00 42 00 91  ..@....@..B..B..
00005480: 40 7f 01 e1 00 44 03 00 44 01 00 46 01 00 46 01  @....D..D..F..F.
00005490: 00 46 02 00 44 01 00 44 01 00 42 01 00 40 02 00  .F..D..D..B..@..
000054a0: 40 01 00 3e 01 00 3e 01 00 3c 02 00 3e 01 00 3e  @..>..>..<..>..>
000054b0: 01 00 40 01 00 40 03 00 42 01 00 42 01 00 44 02  ..@..@..B..B..D.
000054c0: 00 44 01 00 44 01 00 42 01 00 42 02 00 40 02 00  .D..D..B..B..@..
000054d0: 40 01 00 3e 02 00 3e 01 00 3c 01 00 3e 01 00 3e  @..>..>..<..>..>
000054e0: 02 00 40 01 00 42 01 00 42 01 00 44 02 00 44 01  ..@..B..B..D..D.
000054f0: 00 44 01 00 42 01 00 42 03 00 40 01 00 40 01 00  .D..B..B..@..@..
00005500: 3e 02 00 40 02 00 40 01 00 42 02 00 42 02 00 44  >..@..@..B..B..D
00005510: 01 00 44 02 00 44 01 91 40 00 00 e1 00 42 01 00  ..D..D..@....B..
00005520: 42 01 00 40 02 00 40 01 00 3e 01 00 3e 01 00 3c  B..@..@..>..>..<
00005530: 00 91 3e 7f 02 e1 00 3e 01 00 3e 01 00 40 01 00  ..>....>..>..@..
00005540: 42 02 00 42 01 00 44 01 00 44 01 00 44 02 00 42  B..B..D..D..D..B
00005550: 01 00 40 01 00 40 01 00 3e 02 00 3c 01 00 3e 01  ..@..@..>..<..>.
00005560: 00 3e 01 00 40 02 00 42 01 00 42 01 00 44 01 00  .>..@..B..B..D..
00005570: 44 02 00 44 01 00 42 02 91 3e 00 00 e1 00 42 02  D..D..B..>....B.
00005580: 00 40 0b 91 3b 7f 46 3b 00 0b 47 7f 00 4e 7f 00  .@..;.F;..G..N..
00005590: 45 7f 46 45 00 00 4e 00 00 47 00 06 4e 7f 03 45  E.FE..N..G..N..E
000055a0: 7f 00 47 7f 43 4e 00 02 45 00 01 47 00 07 47 7f  ..G.CN..E..G..G.
000055b0: 03 4e 7f 01 45 7f 81 12 47 00 03 4e 00 01 45 00  .N..E...G..N..E.
000055c0: 06 37 7f 02 e1 00 42 03 00 42 04 00 44 04 00 44  .7....B..B..D..D
000055d0: 04 00 46 03 00 46 04 00 48 04 00 48 02 91 37 00  ..F..F..H..H..7.
000055e0: 00 e1 00 46 02 00 44 01 00 42 01 00 40 08 91 38  ...F..D..B..@..8
000055f0: 7f 1e 38 00 0c 39 7f 46 39 00 08 51 7f 01 45 7f  ..8..9.F9..Q..E.
00005600: 02 51 00 1c 45 00 0b 3c 7f 1e 3c 00 06 3d 7f 1e  .Q..E..<..<..=..
00005610: 3d 00 0e 40 7f 1e 40 00 06 43 7f 1e 43 00 0c 40  =..@..@..C..C..@
00005620: 7f 1e 40 00 0a 43 7f 1e 43 00 0a 40 7f 1e 40 00  ..@..C..C..@..@.
00005630: 0a e1 00 40 01 91 37 7f 01 e1 00 42 05 00 42 05  ...@..7....B..B.
00005640: 00 44 05 00 44 05 00 46 05 00 46 03 00 46 01 91  .D..D..F..F..F..
00005650: 37 00 00 e1 00 44 01 00 42 01 00 42 02 00 40 06  7....D..B..B..@.
00005660: 91 38 7f 1e 38 00 0b 34 7f 5a 34 00 1c 45 7f 05  .8..8..4.Z4..E..
00005670: 45 00 00 46 7f 05 46 00 02 47 7f 19 47 00 01 47  E..F..F..G..G..G
00005680: 7f 03 4a 7f 1b 47 00 03 4a 00 0b 47 7f 00 4a 7f  ..J..G..J..G..J.
00005690: 1c 4a 00 02 47 00 08 45 7f 05 45 00 00 46 7f 06  .J..G..E..E..F..
000056a0: 46 00 04 47 7f 1b 4a 7f 44 47 00 02 4a 00 08 47  F..G..J.DG..J..G
000056b0: 7f 07 47 00 00 46 7f 06 46 00 02 45 7f 24 45 00  ..G..F..F..E.$E.
000056c0: 0a 43 7f 0a 43 00 07 40 7f 1e 40 00 0a e1 00 40  .C..C..@..@....@
000056d0: 02 00 42 01 00 42 00 91 43 7f 02 e1 00 44 02 00  ..B..B..C....D..
000056e0: 44 01 91 43 00 00 e1 00 44 01 00 42 00 91 44 7f  D..C....D..B..D.
000056f0: 01 e1 00 40 02 00 3e 01 00 3c 01 91 44 00 00 e1  ...@..>..<..D...
00005700: 00 3a 00 91 43 7f 01 e1 00 3c 02 00 3e 01 00 3e  .:..C....<..>..>
00005710: 01 00 40 01 00 42 02 00 42 01 00 42 01 00 40 01  ..@..B..B..B..@.
00005720: 00 3e 02 00 3e 01 00 3c 02 00 3e 02 00 40 01 00  .>..>..<..>..@..
00005730: 42 01 00 44 01 00 44 02 00 44 01 00 42 01 00 40  B..D..D..D..B..@
00005740: 01 00 40 02 00 3e 01 00 3c 01 00 3e 01 00 40 02  ..@..>..<..>..@.
00005750: 00 40 01 00 42 01 00 44 01 00 44 02 00 44 01 00  .@..B..D..D..D..
00005760: 42 01 00 40 01 00 3e 02 00 3c 01 00 3e 01 00 40  B..@..>..<..>..@
00005770: 01 00 42 02 00 42 01 00 44 01 00 46 01 00 46 02  ..B..B..D..F..F.
00005780: 00 46 01 00 44 01 00 44 03 00 42 01 00 42 01 91  .F..D..D..B..B..
00005790: 43 00 00 e1 00 40 0a 91 4c 7f 1e 4c 00 09 39 7f  C....@..L..L..9.
000057a0: 1e 39 00 0b 3b 7f 1e 3b 00 06 3b 7f 28 e1 00 40  .9..;..;..;.(..@
000057b0: 03 00 42 02 00 42 03 00 44 02 00 44 02 00 44 01  ..B..B..D..D..D.
000057c0: 00 42 01 00 42 01 00 40 03 00 40 01 00 3e 01 00  .B..B..@..@..>..
000057d0: 3e 02 00 3c 01 00 3e 02 00 3e 02 00 40 01 00 40  >..<..>..>..@..@
000057e0: 02 00 42 02 00 42 01 00 44 02 00 44 02 00 44 01  ..B..B..D..D..D.
000057f0: 00 42 01 00 40 01 00 3e 02 00 3e 01 00 3c 01 00  .B..@..>..>..<..
00005800: 3a 01 00 3c 02 00 3c 01 00 3e 01 00 40 01 00 40  :..<..<..>..@..@
00005810: 02 00 42 01 00 42 01 00 44 01 00 44 02 00 44 01  ..B..B..D..D..D.
00005820: 00 42 01 00 42 01 00 40 02 00 3e 01 00 3e 01 00  .B..B..@..>..>..
00005830: 3c 01 00 3e 02 00 3e 01 00 40 01 00 40 01 00 42  <..>..>..@..@..B
00005840: 02 00 42 01 00 44 01 00 44 01 00 44 02 00 42 01  ..B..D..D..D..B.
00005850: 00 40 01 00 40 01 00 3e 02 00 3c 01 00 3e 01 00  .@..@..>..<..>..
00005860: 3e 01 00 40 02 00 40 01 00 42 01 00 42 01 00 44  >..@..@..B..B..D
00005870: 02 00 44 01 00 44 01 00 42 01 00 40 02 00 40 01  ..D..D..B..@..@.
00005880: 00 3e 01 00 3c 01 00 3e 02 00 3e 01 00 40 01 00  .>..<..>..>..@..
00005890: 42 01 00 42 02 00 44 01 00 44 01 00 44 01 00 42  B..B..D..D..D..B
000058a0: 03 00 42 01 91 3b 00 00 e1 00 40 56 91 4c 7f 1e  ..B..;....@V.L..
000058b0: 4c 00 0c 45 7f 0a 45 00 00 47 7f 3c 47 00 0a 4a  L..E..E..G.<G..J
000058c0: 7f 1e 4a 00 0a e1 00 40 00 91 47 7f 00 4a 7f 02  ..J....@..G..J..
000058d0: e1 00 42 03 00 42 02 00 44 04 00 44 02 00 46 03  ..B..B..D..D..F.
000058e0: 00 46 02 00 46 03 00 44 02 00 44 02 00 42 02 00  .F..F..D..D..B..
000058f0: 42 03 00 40 01 00 40 02 00 3e 03 00 3e 01 00 3c  B..@..@..>..>..<
00005900: 03 00 3c 02 00 3a 01 00 3c 03 00 3c 02 00 3e 02  ..<..:..<..<..>.
00005910: 00 3e 02 00 40 01 00 40 03 00 42 02 00 42 02 00  .>..@..@..B..B..
00005920: 44 02 00 44 01 00 44 03 00 42 01 00 42 01 00 40  D..D..D..B..B..@
00005930: 03 00 40 01 00 3e 03 00 3e 01 00 3c 01 00 3c 03  ..@..>..>..<..<.
00005940: 00 3a 01 00 3c 01 00 3c 01 00 3e 02 00 3e 01 00  .:..<..<..>..>..
00005950: 40 01 00 40 03 00 42 01 00 42 01 00 44 01 00 44  @..@..B..B..D..D
00005960: 02 00 46 01 00 46 01 00 46 01 00 44 02 00 44 02  ..F..F..F..D..D.
00005970: 00 42 01 00 42 02 00 40 01 00 40 01 00 3e 01 00  .B..B..@..@..>..
00005980: 3e 03 00 3c 01 00 3c 01 00 3a 02 00 3c 01 00 3c  >..<..<..:..<..<
00005990: 02 00 3e 02 00 3e 01 00 40 02 00 40 02 00 42 01  ..>..>..@..@..B.
000059a0: 00 42 02 00 44 02 00 44 01 00 44 02 00 42 02 00  .B..D..D..D..B..
000059b0: 42 01 00 40 02 00 40 02 00 3e 02 00 3e 01 00 3c  B..@..@..>..>..<
000059c0: 02 00 3c 02 00 3a 01 00 3c 03 00 3c 01 00 3e 03  ..<..:..<..<..>.
000059d0: 00 3e 01 00 40 02 00 40 02 00 42 02 00 42 01 00  .>..@..@..B..B..
000059e0: 44 03 00 44 01 00 44 03 00 42 01 00 42 02 00 40  D..D..D..B..B..@
000059f0: 02 00 40 02 00 3e 01 00 3e 03 00 3c 01 00 3c 03  ..@..>..>..<..<.
00005a00: 00 3a 01 00 3c 02 00 3c 02 00 3e 01 00 3e 02 00  .:..<..<..>..>..
00005a10: 40 02 00 40 01 00 42 02 00 42 02 00 44 01 00 44  @..@..B..B..D..D
00005a20: 02 00 46 02 00 46 01 00 46 01 00 44 01 00 42 02  ..F..F..F..D..B.
00005a30: 00 42 01 00 40 01 00 3e 01 00 3c 02 00 3c 01 00  .B..@..>..<..<..
00005a40: 3a 01 00 38 01 00 3a 02 00 3c 01 00 3e 01 00 40  :..8..:..<..>..@
00005a50: 01 00 40 03 00 40 04 91 4a 00 00 47 00 81 50 e1  ..@..@..J..G..P.
00005a60: 00 40 02 91 47 7f 00 4a 7f 01 e1 00 42 04 00 42  .@..G..J....B..B
00005a70: 03 00 44 04 00 44 04 00 46 05 00 46 04 00 48 03  ..D..D..F..F..H.
00005a80: 00 48 04 00 4a 04 91 4a 00 00 e1 00 4a 02 91 47  .H..J..J....J..G
00005a90: 00 00 e1 00 48 02 00 40 00 91 49 7f 00 4c 7f 02  ....H..@..I..L..
00005aa0: e1 00 40 44 91 4c 00 00 49 00 08 e1 00 42 02 00  ..@D.L..I....B..
00005ab0: 44 00 91 47 7f 00 4a 7f 01 e1 00 46 01 00 48 01  D..G..J....F..H.
00005ac0: 00 4a 02 91 4a 00 00 47 00 00 e1 00 4a 01 00 48  .J..J..G....J..H
00005ad0: 00 91 4c 7f 01 e1 00 46 01 00 44 00 91 49 7f 02  ..L....F..D..I..
00005ae0: e1 00 42 01 00 40 02 00 40 11 91 49 00 00 4c 00  ..B..@..@..I..L.
00005af0: 0a 4c 7f 1e 4c 00 0a 4a 7f 05 4a 00 01 4b 7f 06  .L..L..J..J..K..
00005b00: 4b 00 01 4c 7f 11 4c 00 32 51 7f 1e 51 00 08 e1  K..L..L.2Q..Q...
00005b10: 00 40 02 00 42 00 91 51 7f 01 e1 00 42 01 00 44  .@..B..Q....B..D
00005b20: 01 00 44 02 00 46 02 00 46 01 00 48 02 00 48 01  ..D..F..F..H..H.
00005b30: 00 4a 01 91 51 00 00 e1 00 4a 01 00 48 02 00 44  .J..Q....J..H..D
00005b40: 00 91 53 7f 01 e1 00 40 0b 91 53 00 0b e1 00 42  ..S....@..S....B
00005b50: 02 00 44 00 91 51 7f 01 e1 00 46 01 00 48 01 00  ..D..Q....F..H..
00005b60: 4a 02 91 51 00 00 e1 00 4a 00 91 53 7f 01 e1 00  J..Q....J..S....
00005b70: 4a 01 00 48 01 00 46 02 00 44 01 00 42 01 00 40  J..H..F..D..B..@
00005b80: 12 91 53 00 08 e1 00 42 02 00 44 00 91 51 7f 01  ..S....B..D..Q..
00005b90: e1 00 46 01 00 46 01 00 48 02 00 4a 01 00 4a 01  ..F..F..H..J..J.
00005ba0: 00 48 01 00 46 02 91 51 00 00 e1 00 44 01 00 42  .H..F..Q....D..B
00005bb0: 01 00 40 00 91 53 7f 12 e1 00 40 08 00 3e 07 00  ..@..S....@..>..
00005bc0: 3e 05 00 3c 05 00 3c 05 00 3a 02 00 3a 03 00 38  >..<..<..:..:..8
00005bd0: 02 00 38 03 91 53 00 00 e1 00 36 01 00 38 01 00  ..8..S....6..8..
00005be0: 3a 01 00 3a 02 00 3c 01 00 3c 01 00 3e 01 00 40  :..:..<..<..>..@
00005bf0: 02 91 51 7f 1e 51 00 0a e1 00 40 00 91 4f 7f 02  ..Q..Q....@..O..
00005c00: e1 00 42 05 00 42 05 00 44 05 00 44 05 00 46 05  ..B..B..D..D..F.
00005c10: 00 46 04 00 46 02 00 44 03 00 44 01 91 4f 00 03  .F..F..D..D..O..
00005c20: e1 00 42 00 91 50 7f 02 e1 00 42 03 00 40 03 00  ..B..P....B..@..
00005c30: 40 16 91 50 00 81 3c e1 00 42 02 00 46 00 91 51  @..P..<..B..F..Q
00005c40: 7f 01 e1 00 48 01 00 4a 01 00 48 02 91 51 00 00  ....H..J..H..Q..
00005c50: e1 00 46 00 91 53 7f 01 e1 00 44 01 00 42 01 00  ..F..S....D..B..
00005c60: 40 03 00 40 27 91 53 00 08 e1 00 42 02 00 44 00  @..@'.S....B..D.
00005c70: 91 51 7f 01 e1 00 46 01 00 48 01 00 4a 02 91 51  .Q....F..H..J..Q
00005c80: 00 00 e1 00 48 01 00 44 01 00 40 00 91 53 7f 03  ....H..D..@..S..
00005c90: e1 00 40 07 91 53 00 15 e1 00 40 02 00 42 00 91  ..@..S....@..B..
00005ca0: 51 7f 01 e1 00 44 01 00 46 01 00 48 02 00 4a 01  Q....D..F..H..J.
00005cb0: 00 4a 01 00 4a 01 00 48 02 91 51 00 00 e1 00 46  .J..J..H..Q....F
00005cc0: 01 00 44 01 00 44 00 91 54 7f 01 e1 00 42 02 00  ..D..D..T....B..
00005cd0: 40 01 91 54 00 01 e1 00 40 01 91 53 7f 20 53 00  @..T....@..S. S.
00005ce0: 08 e1 00 40 02 00 42 00 91 51 7f 01 e1 00 44 01  ...@..B..Q....D.
00005cf0: 00 44 01 00 46 02 00 48 01 00 48 01 00 48 01 00  .D..F..H..H..H..
00005d00: 46 02 91 51 00 00 e1 00 44 01 00 44 01 00 42 00  F..Q....D..D..B.
00005d10: 91 54 7f 01 e1 00 40 03 00 40 01 91 54 00 03 53  .T....@..@..T..S
00005d20: 7f 1e 53 00 0a 4f 7f 1e 4f 00 0a e1 00 40 00 91  ..S..O..O....@..
00005d30: 51 7f 03 e1 00 42 07 00 42 06 00 44 06 00 44 04  Q....B..B..D..D.
00005d40: 00 44 02 00 42 02 91 51 00 00 e1 00 42 02 00 40  .D..B..Q....B..@
00005d50: 08 91 51 7f 05 51 00 01 54 7f 04 54 00 02 53 7f  ..Q..Q..T..T..S.
00005d60: 12 53 00 0a 51 7f 46 51 00 0a 4f 7f 0a 4f 00 0a  .S..Q.FQ..O..O..
00005d70: 4c 7f 0a 4c 00 0a e1 00 40 00 91 4c 7f 01 e1 00  L..L....@..L....
00005d80: 42 02 00 42 03 00 44 02 00 44 02 00 44 02 00 42  B..B..D..D..D..B
00005d90: 03 00 42 01 00 40 02 00 40 02 00 3e 02 00 3e 03  ..B..@..@..>..>.
00005da0: 00 3c 01 00 3e 02 00 3e 02 00 40 01 00 40 02 00  .<..>..>..@..@..
00005db0: 42 02 00 42 01 00 44 02 00 44 02 00 44 02 00 42  B..B..D..D..D..B
00005dc0: 01 00 42 02 00 40 02 00 40 01 00 3e 02 00 3e 02  ..B..@..@..>..>.
00005dd0: 00 3c 01 00 3e 02 00 3e 02 00 40 01 00 40 02 00  .<..>..>..@..@..
00005de0: 42 01 00 42 02 00 44 02 00 44 01 00 44 01 00 42  B..B..D..D..D..B
00005df0: 01 00 42 02 00 40 01 00 40 01 00 3e 01 00 3e 02  ..B..@..@..>..>.
00005e00: 00 3c 01 00 3e 02 00 3e 02 00 40 01 00 40 02 00  .<..>..>..@..@..
00005e10: 42 02 00 42 01 00 42 01 00 40 01 00 40 02 00 3e  B..B..B..@..@..>
00005e20: 01 00 3c 01 00 3c 01 00 3a 02 00 3c 01 00 3e 01  ..<..<..:..<..>.
00005e30: 00 3e 01 00 40 02 91 4c 00 00 e1 00 40 02 00 40  .>..@..L....@..@
00005e40: 12 91 4f 7f 1e 4f 00 0a 51 7f 0a 51 00 01 52 7f  ..O..O..Q..Q..R.
00005e50: 07 52 00 02 53 7f 0a 53 00 0a 51 7f 05 51 00 01  .R..S..S..Q..Q..
00005e60: 52 7f 04 52 00 01 53 7f 13 53 00 08 e1 00 42 02  R..R..S..S....B.
00005e70: 00 44 00 91 51 7f 01 e1 00 46 01 00 48 01 00 4a  .D..Q....F..H..J
00005e80: 02 91 51 00 00 e1 00 4a 01 00 48 01 00 44 00 91  ..Q....J..H..D..
00005e90: 53 7f 01 e1 00 40 16 91 53 00 0a 51 7f 0a 51 00  S....@..S..Q..Q.
00005ea0: 0a 4f 7f 0a 4f 00 0a 4c 7f 0a 4c 00 0a 4c 7f 12  .O..O..L..L..L..
00005eb0: e1 00 40 03 00 42 02 00 42 03 00 44 02 00 44 03  ..@..B..B..D..D.
00005ec0: 00 44 01 00 42 01 00 42 02 00 40 01 00 3e 01 00  .D..B..B..@..>..
00005ed0: 3e 01 00 3c 02 00 3c 01 00 3a 01 00 3c 01 00 3c  >..<..<..:..<..<
00005ee0: 02 00 3e 01 00 3e 01 00 40 01 00 40 02 00 42 01  ..>..>..@..@..B.
00005ef0: 00 42 01 00 44 01 00 44 02 00 44 01 00 42 01 00  .B..D..D..D..B..
00005f00: 42 01 00 40 02 00 3e 01 00 3e 01 00 3c 01 00 3e  B..@..>..>..<..>
00005f10: 02 00 3e 01 00 40 01 00 40 03 00 42 01 00 42 01  ..>..@..@..B..B.
00005f20: 00 44 01 00 44 02 00 42 01 00 40 01 00 3e 01 00  .D..D..B..@..>..
00005f30: 3c 02 00 3a 01 00 3a 01 00 3c 01 00 3e 02 00 40  <..:..:..<..>..@
00005f40: 05 91 4c 00 0a 4f 7f 01 e1 00 40 05 00 42 09 00  ..L..O....@..B..
00005f50: 42 06 00 44 02 00 44 03 00 46 02 00 46 02 91 4f  B..D..D..F..F..O
00005f60: 00 00 e1 00 46 01 00 44 01 00 42 01 00 40 03 00  ....F..D..B..@..
00005f70: 40 00 00 40 81 24 91 47 7f 0a 47 00 07 e1 00 40  @..@.$.G..G....@
00005f80: 03 00 42 00 91 4a 7f 02 e1 00 42 03 00 44 03 00  ..B..J....B..D..
00005f90: 44 03 00 46 02 00 46 03 91 4a 00 00 e1 00 46 01  D..F..F..J....F.
00005fa0: 00 44 01 00 42 02 00 40 00 91 4b 7f 02 e1 00 40  .D..B..@..K....@
00005fb0: 08 91 4b 00 0a 4c 7f 0a 4c 00 0a 4f 7f 46 4f 00  ..K..L..L..O.FO.
00005fc0: 0a 4c 7f 0a 4c 00 0a 47 7f 0a 47 00 0a 4a 7f 1e  .L..L..G..G..J..
00005fd0: 4a 00 0a 47 7f 1e 47 00 08 e1 00 42 02 00 44 00  J..G..G....B..D.
00005fe0: 91 45 7f 01 e1 00 46 01 00 48 01 00 4a 02 91 45  .E....F..H..J..E
00005ff0: 00 00 e1 00 4a 01 00 48 01 00 46 01 00 44 00 91  ....J..H..F..D..
00006000: 47 7f 02 e1 00 42 01 00 40 02 00 40 11 91 47 00  G....B..@..@..G.
00006010: 0a 45 7f 1e 45 00 0a 43 7f 1e 43 00 0a 40 7f 1e  .E..E..C..C..@..
00006020: 40 00 0a e1 00 40 00 91 40 7f 01 e1 00 42 02 00  @....@..@....B..
00006030: 42 02 00 44 02 00 44 01 00 46 03 00 46 01 00 46  B..D..D..F..F..F
00006040: 01 00 44 03 00 44 01 00 42 01 00 42 03 00 40 01  ..D..D..B..B..@.
00006050: 00 40 01 00 3e 03 00 3e 01 00 3c 01 00 3e 02 00  .@..>..>..<..>..
00006060: 3e 01 00 40 01 00 40 03 00 42 01 00 42 01 00 44  >..@..@..B..B..D
00006070: 01 00 44 02 00 44 01 00 42 01 00 40 01 00 40 02  ..D..D..B..@..@.
00006080: 00 3e 01 00 3c 01 00 3c 01 00 3a 02 00 38 01 00  .>..<..<..:..8..
00006090: 3a 01 00 3c 01 00 3c 02 00 3e 01 00 40 01 00 40  :..<..<..>..@..@
000060a0: 01 00 42 02 00 44 01 00 44 01 00 44 01 00 42 02  ..B..D..D..D..B.
000060b0: 00 40 01 00 3e 01 00 3c 01 00 3a 02 00 3c 01 00  .@..>..<..:..<..
000060c0: 3e 01 00 40 01 00 42 02 00 44 01 00 46 01 00 46  >..@..B..D..F..F
000060d0: 01 00 46 02 00 44 01 00 42 01 00 40 01 00 40 02  ..F..D..B..@..@.
000060e0: 00 3e 01 00 3c 02 00 3e 02 91 40 00 01 e1 00 3e  .>..<..>..@....>
000060f0: 02 00 40 03 00 40 04 00 40 14 91 43 7f 05 43 00  ..@..@..@..C..C.
00006100: 02 44 7f 17 44 00 0a 47 7f 1e 47 00 0a 47 7f 02  .D..D..G..G..G..
00006110: 4c 7f 1c 4c 00 00 47 00 0a 4e 7f 05 4e 00 00 4f  L..L..G..N..N..O
00006120: 7f 06 4f 00 02 50 7f 14 50 00 07 4c 7f 1e 4c 00  ..O..P..P..L..L.
00006130: 0a 47 7f 1e 47 00 0a 4e 7f 05 4e 00 00 4f 7f 07  .G..G..N..N..O..
00006140: 4f 00 04 50 7f 15 50 00 03 4c 7f 1e 4c 00 0a 47  O..P..P..L..L..G
00006150: 7f 1e 47 00 0a 4e 7f 0a 4e 00 02 4f 7f 0a 4f 00  ..G..N..N..O..O.
00006160: 03 50 7f 1f 50 00 04 4c 7f 0a 4c 00 0a 47 7f 1e  .P..P..L..L..G..
00006170: 47 00 0a 4a 7f 0a 4a 00 02 e1 00 40 01 91 4c 7f  G..J..J....@..L.
00006180: 02 e1 00 42 02 00 42 03 00 44 02 00 44 01 00 44  ...B..B..D..D..D
00006190: 03 00 42 01 00 42 01 00 40 03 00 40 01 00 3e 01  ..B..B..@..@..>.
000061a0: 00 3e 03 00 3c 01 00 3e 01 00 3e 02 00 40 01 00  .>..<..>..>..@..
000061b0: 40 02 00 42 02 00 42 01 00 44 01 00 44 01 00 44  @..B..B..D..D..D
000061c0: 03 00 42 01 00 42 01 00 40 03 00 40 01 00 3e 01  ..B..B..@..@..>.
000061d0: 00 3e 03 00 3c 01 00 3e 03 00 3e 01 00 40 01 00  .>..<..>..>..@..
000061e0: 40 03 00 42 01 00 42 01 00 44 03 00 44 01 00 44  @..B..B..D..D..D
000061f0: 01 00 42 01 00 42 02 00 40 01 00 3e 01 00 3e 01  ..B..B..@..>..>.
00006200: 00 3c 02 00 3e 01 00 3e 02 00 40 02 00 40 01 00  .<..>..>..@..@..
00006210: 42 01 00 42 03 00 44 01 00 44 01 00 44 01 00 42  B..B..D..D..D..B
00006220: 03 00 42 01 00 40 03 00 40 05 91 4c 00 0a 4c 7f  ..B..@..@..L..L.
00006230: 1e 4c 00 03 4a 7f 1b 4a 00 03 47 7f 19 47 00 00  .L..J..J..G..G..
00006240: e1 00 40 02 00 42 00 91 45 7f 01 e1 00 42 01 00  ..@..B..E....B..
00006250: 44 01 00 46 02 00 46 01 00 48 01 00 48 01 00 4a  D..F..F..H..H..J
00006260: 02 91 45 00 00 e1 00 4a 01 00 48 01 00 46 01 00  ..E....J..H..F..
00006270: 44 00 91 47 7f 02 e1 00 40 02 00 40 00 00 40 0d  D..G....@..@..@.
00006280: 91 47 00 00 45 7f 1e 45 00 02 43 7f 1c 43 00 01  .G..E..E..C..C..
00006290: e1 00 40 01 00 42 00 91 40 7f 01 e1 00 42 02 00  ..@..B..@....B..
000062a0: 44 01 00 44 01 00 46 01 00 46 02 00 46 01 00 44  D..D..F..F..F..D
000062b0: 01 00 42 01 00 42 02 00 40 01 00 40 01 00 3e 01  ..B..B..@..@..>.
000062c0: 00 3c 02 00 3e 01 00 3e 01 00 40 01 00 40 02 00  .<..>..>..@..@..
000062d0: 42 01 00 42 01 00 44 01 00 44 02 00 44 01 00 42  B..B..D..D..D..B
000062e0: 01 00 42 01 00 40 02 00 40 01 00 3e 01 00 3e 01  ..B..@..@..>..>.
000062f0: 00 3c 02 00 3e 01 00 40 01 00 40 01 00 42 02 00  .<..>..@..@..B..
00006300: 42 01 00 44 01 00 46 01 00 46 02 00 46 01 00 44  B..D..F..F..F..D
00006310: 01 00 42 01 00 42 02 00 40 01 00 40 01 00 3e 01  ..B..B..@..@..>.
00006320: 00 3c 02 00 3e 01 00 40 01 00 40 01 00 42 02 00  .<..>..@..@..B..
00006330: 42 01 00 44 01 00 46 01 00 46 02 00 46 01 00 44  B..D..F..F..F..D
00006340: 01 00 42 01 00 40 02 00 40 01 00 3e 01 00 3c 01  ..B..@..@..>..<.
00006350: 00 3a 02 00 3c 01 00 3e 01 00 40 01 00 40 02 00  .:..<..>..@..@..
00006360: 42 01 00 44 01 00 46 01 00 46 02 00 44 01 00 42  B..D..F..F..D..B
00006370: 01 91 40 00 00 e1 00 40 03 00 40 2d 91 40 7f 1e  ..@....@..@-.@..
00006380: 40 00 08 e1 00 42 02 00 44 00 91 45 7f 01 e1 00  @....B..D..E....
00006390: 46 01 00 48 01 00 4a 02 91 45 00 00 e1 00 4a 01  F..H..J..E....J.
000063a0: 00 40 01 91 47 7f 01 e1 00 40 00 00 40 1e 00 40  .@..G....@..@..@
000063b0: 02 00 42 00 91 4a 7f 01 e1 00 42 01 00 44 01 00  ..B..J....B..D..
000063c0: 44 02 00 44 01 00 42 01 00 40 01 00 40 02 00 3e  D..D..B..@..@..>
000063d0: 01 00 3e 01 00 3c 01 00 3a 02 00 3c 01 00 3e 01  ..>..<..:..<..>.
000063e0: 00 3e 01 00 40 02 00 40 01 00 42 01 00 44 01 00  .>..@..@..B..D..
000063f0: 44 02 00 44 01 00 42 01 00 42 01 00 40 02 00 3e  D..D..B..B..@..>
00006400: 01 00 3e 01 00 3c 01 00 3e 02 00 40 01 00 40 01  ..>..<..>..@..@.
00006410: 00 42 01 00 44 02 00 44 01 00 44 01 00 42 01 00  .B..D..D..D..B..
00006420: 40 02 00 40 01 00 3e 01 00 3c 01 00 3e 02 00 3e  @..@..>..<..>..>
00006430: 01 00 40 01 00 42 01 00 42 02 00 44 01 00 44 01  ..@..B..B..D..D.
00006440: 00 44 01 00 42 02 00 42 01 00 40 01 00 3e 01 00  .D..B..B..@..>..
00006450: 3e 02 00 3c 01 00 3e 01 00 40 01 00 40 02 91 4a  >..<..>..@..@..J
00006460: 00 00 47 00 01 e1 00 40 01 00 40 08 00 42 00 91  ..G....@..@..B..
00006470: 45 7f 01 e1 00 44 01 00 46 01 00 48 02 91 45 00  E....D..F..H..E.
00006480: 00 e1 00 4a 00 91 47 7f 01 e1 00 40 02 00 40 00  ...J..G....@..@.
00006490: 00 40 20 00 40 00 91 4a 7f 01 e1 00 42 01 00 42  .@ .@..J....B..B
000064a0: 01 00 44 02 00 44 01 00 46 01 00 46 01 00 42 02  ..D..D..F..F..B.
000064b0: 00 3a 01 00 3c 01 00 3e 01 00 40 02 00 40 01 00  .:..<..>..@..@..
000064c0: 42 01 00 44 01 00 46 02 00 46 01 00 42 01 00 3a  B..D..F..F..B..:
000064d0: 01 00 3c 02 00 3e 01 00 40 01 00 42 01 00 42 02  ..<..>..@..B..B.
000064e0: 91 4a 00 00 e1 00 40 06 00 40 01 00 42 01 00 42  .J....@..@..B..B
000064f0: 02 00 44 00 91 4a 7f 01 e1 00 44 01 00 46 01 00  ..D..J....D..F..
00006500: 46 02 00 44 01 00 40 01 00 3a 01 00 3c 02 00 3e  F..D..@..:..<..>
00006510: 01 00 40 01 00 40 01 00 42 02 00 44 01 00 44 01  ..@..@..B..D..D.
00006520: 00 44 01 00 42 02 00 40 01 00 3e 01 00 3c 01 00  .D..B..@..>..<..
00006530: 3e 02 00 3e 01 00 40 01 00 40 03 91 4a 00 00 e1  >..>..@..@..J...
00006540: 00 40 08 00 42 02 91 47 00 00 e1 00 44 00 91 45  .@..B..G....D..E
00006550: 7f 01 e1 00 46 01 00 48 01 00 4a 02 91 45 00 00  ....F..H..J..E..
00006560: e1 00 4a 01 00 40 00 91 47 7f 02 e1 00 40 00 00  ..J..@..G....@..
00006570: 40 03 91 47 00 01 45 7f 12 45 00 0a 43 7f 1e 43  @..G..E..E..C..C
00006580: 00 0a 40 7f 0a 40 00 0a 3e 7f 0a 3e 00 0a 3e 7f  ..@..@..>..>..>.
00006590: 32 3e 00 08 e1 00 40 02 91 56 7f 01 e1 00 42 02  2>....@..V....B.
000065a0: 00 42 03 00 44 02 00 44 03 00 46 02 00 46 03 00  .B..D..D..F..F..
000065b0: 48 02 00 48 03 00 4a 02 00 4a 02 91 56 00 00 e1  H..H..J..J..V...
000065c0: 00 48 01 00 46 01 00 44 01 00 42 02 00 40 00 91  .H..F..D..B..@..
000065d0: 58 7f 02 e1 00 40 00 00 40 19 91 58 00 01 e1 00  X....@..@..X....
000065e0: 42 02 00 44 00 91 51 7f 01 e1 00 46 01 00 48 01  B..D..Q....F..H.
000065f0: 00 4a 02 91 51 00 00 e1 00 4a 01 00 48 01 00 44  .J..Q....J..H..D
00006600: 00 91 53 7f 01 e1 00 40 03 00 40 00 00 40 13 91  ..S....@..@..@..
00006610: 53 00 0a 51 7f 0a 51 00 0a 4f 7f 3a e1 00 40 02  S..Q..Q..O.:..@.
00006620: 91 4f 00 00 e1 00 42 01 00 44 01 00 44 00 91 56  .O....B..D..D..V
00006630: 7f 01 e1 00 46 02 00 48 01 00 48 01 00 4a 01 00  ....F..H..H..J..
00006640: 4c 02 00 4c 01 00 48 01 91 56 00 00 e1 00 40 03  L..L..H..V....@.
00006650: 00 40 00 00 40 00 91 58 7f 28 58 00 03 e1 00 40  .@..@..X.(X....@
00006660: 02 00 42 00 91 51 7f 01 e1 00 42 01 00 44 01 00  ..B..Q....B..D..
00006670: 46 02 00 46 01 00 48 01 00 48 01 00 4a 02 91 51  F..F..H..H..J..Q
00006680: 00 00 e1 00 4a 01 00 48 01 00 44 00 91 53 7f 01  ....J..H..D..S..
00006690: e1 00 40 03 00 40 00 00 40 22 91 53 00 0a 51 7f  ..@..@..@".S..Q.
000066a0: 32 51 00 0a 4f 7f 0a 4f 00 0a 4c 7f 1e 4c 00 07  2Q..O..O..L..L..
000066b0: e1 00 40 03 00 42 00 91 4c 7f 02 e1 00 42 03 00  ..@..B..L....B..
000066c0: 44 02 00 44 01 00 44 02 00 42 01 00 42 01 00 40  D..D..D..B..B..@
000066d0: 03 00 40 01 00 3e 01 00 3e 01 00 3c 02 00 3e 01  ..@..>..>..<..>.
000066e0: 00 3e 01 00 40 01 00 40 02 00 42 01 00 42 01 00  .>..@..@..B..B..
000066f0: 44 01 00 44 02 00 44 01 00 42 01 00 42 01 00 40  D..D..D..B..B..@
00006700: 03 00 40 01 00 3e 01 00 3e 02 00 3c 01 00 3e 01  ..@..>..>..<..>.
00006710: 00 3e 01 00 40 02 00 40 02 00 42 01 00 42 02 00  .>..@..@..B..B..
00006720: 44 01 00 44 01 00 44 01 00 42 02 00 40 01 00 40  D..D..D..B..@..@
00006730: 01 00 3e 01 00 3e 02 00 3c 01 00 3a 01 00 3c 01  ..>..>..<..:..<.
00006740: 00 3e 02 00 40 01 00 40 01 00 42 01 00 44 02 00  .>..@..@..B..D..
00006750: 46 01 00 46 01 00 46 01 00 44 02 00 42 01 00 40  F..F..F..D..B..@
00006760: 01 00 40 01 00 3e 02 00 3c 01 00 3c 01 00 3e 01  ..@..>..<..<..>.
00006770: 00 40 02 00 42 01 00 44 01 00 44 01 00 44 02 00  .@..B..D..D..D..
00006780: 42 01 00 42 01 00 40 01 00 40 02 00 3e 02 00 40  B..B..@..@..>..@
00006790: 03 91 4c 00 00 e1 00 40 03 00 40 07 91 45 7f 05  ..L....@..@..E..
000067a0: 45 00 05 45 7f 05 45 00 01 46 7f 06 46 00 04 47  E..E..E..F..F..G
000067b0: 7f 18 4a 7f 1e 4a 00 0a 4a 7f 1e 4a 00 0a 4a 7f  ..J..J..J..J..J.
000067c0: 1e 4a 00 0a 4a 7f 1e 4a 00 0a 4a 7f 1e 4a 00 06  .J..J..J..J..J..
000067d0: 47 00 05 47 7f 04 47 00 02 46 7f 06 46 00 03 45  G..G..G..F..F..E
000067e0: 7f 15 45 00 03 43 7f 1e 43 00 0a 40 7f 1e 40 00  ..E..C..C..@..@.
000067f0: 08 e1 00 40 02 00 42 00 91 43 7f 01 e1 00 44 01  ...@..B..C....D.
00006800: 00 44 01 00 46 02 91 43 00 00 e1 00 46 01 00 46  .D..F..C....F..F
00006810: 01 00 44 00 91 44 7f 01 e1 00 44 02 00 42 01 00  ..D..D....D..B..
00006820: 40 01 91 44 00 00 e1 00 40 01 00 3e 02 00 3e 00  @..D....@..>..>.
00006830: 91 43 7f 01 e1 00 3c 01 00 3e 01 00 40 02 00 40  .C....<..>..@..@
00006840: 01 00 42 01 00 44 01 00 44 02 00 44 01 00 42 01  ..B..D..D..D..B.
00006850: 00 42 01 00 40 02 00 3e 01 00 3e 01 00 3c 01 00  .B..@..>..>..<..
00006860: 3e 02 00 40 01 00 42 01 00 44 01 00 46 02 00 46  >..@..B..D..F..F
00006870: 01 00 46 01 00 44 01 00 42 02 00 40 01 00 40 01  ..F..D..B..@..@.
00006880: 00 3e 01 00 3c 02 00 3e 01 00 40 01 00 42 01 00  .>..<..>..@..B..
00006890: 44 02 00 44 01 00 44 02 00 42 02 00 42 02 00 40  D..D..D..B..B..@
000068a0: 03 00 40 05 91 43 00 0a 4c 7f 1e 4c 00 0a 39 7f  ..@..C..L..L..9.
000068b0: 1e 39 00 0a 3a 7f 1e 3a 00 0a 3b 7f 1e 3b 00 0a  .9..:..:..;..;..
000068c0: 3b 7f 46 3b 00 0a 3f 7f 00 4e 7f 00 47 7f 00 45  ;.F;..?..N..G..E
000068d0: 7f 46 45 00 00 3f 00 00 4e 00 00 47 00 0a 3f 7f  .FE..?..N..G..?.
000068e0: 00 45 7f 00 47 7f 46 47 00 00 45 00 00 3f 00 0a  .E..G.FG..E..?..
000068f0: 3b 7f 00 34 7f 46 34 00 00 3b 00 0a 34 7f 00 3b  ;..4.F4..;..4..;
00006900: 7f 1e 3b 00 00 34 00 0a 34 7f 00 3d 7f 41 3d 00  ..;..4..4..=.A=.
00006910: 00 34 00 05 34 7f 00 3d 7f 1e 3d 00 00 34 00 14  .4..4..=..=..4..
00006920: 3e 7f 02 34 7f 44 3e 00 02 34 00 08 34 7f 00 3e  >..4.D>..4..4..>
00006930: 7f 1e 3e 00 00 34 00 0a 3d 7f 00 34 7f 46 34 00  ..>..4..=..4.F4.
00006940: 00 3d 00 0a 34 7f 00 3d 7f 1e 3d 00 00 34 00 0a  .=..4..=..=..4..
00006950: 39 7f 00 40 7f 46 40 00 00 39 00 0a 39 7f 00 40  9..@.F@..9..9..@
00006960: 7f 1e 40 00 00 39 00 0a 42 7f 00 39 7f 46 39 00  ..@..9..B..9.F9.
00006970: 00 42 00 0a 39 7f 00 42 7f 1e 42 00 00 39 00 0a  .B..9..B..B..9..
00006980: 39 7f 00 43 7f 46 43 00 00 39 00 0a 39 7f 00 43  9..C.FC..9..9..C
00006990: 7f 1e 43 00 00 39 00 0a 42 7f 00 39 7f 5a 39 00  ..C..9..B..9.Z9.
000069a0: 00 42 00 6e 45 7f 0a 45 00 02 46 7f 08 46 00 01  .B.nE..E..F..F..
000069b0: 47 7f 32 47 00 09 4a 7f 46 4a 00 0a 4a 7f 46 4a  G.2G..J.FJ..J.FJ
000069c0: 00 0a 4a 7f 0d 4a 00 02 49 7f 05 49 00 01 48 7f  ..J..J..I..I..H.
000069d0: 05 48 00 01 47 7f 06 47 00 03 46 7f 05 46 00 01  .H..G..G..F..F..
000069e0: 45 7f 21 45 00 05 43 7f 1e 43 00 0a 40 7f 6e 40  E.!E..C..C..@.n@
000069f0: 00 0a 4c 7f 46 4c 00 0a 4b 7f 46 4b 00 0a 4a 7f  ..L.FL..K.FK..J.
00006a00: 81 52 4a 00 1e 39 7f 00 40 7f 46 40 00 00 39 00  .RJ..9..@.F@..9.
00006a10: 0a 39 7f 1e 39 00 0a 39 7f 00 42 7f 46 42 00 00  .9..9..9..B.FB..
00006a20: 39 00 0a 39 7f 1e 39 00 0a 39 7f 00 43 7f 46 43  9..9..9..9..C.FC
00006a30: 00 00 39 00 0a 39 7f 1e 39 00 0a 39 7f 00 42 7f  ..9..9..9..9..B.
00006a40: 46 42 00 00 39 00 0a 39 7f 1e 39 00 0a 39 7f 00  FB..9..9..9..9..
00006a50: 40 7f 46 40 00 00 39 00 0a 39 7f 1e 39 00 0a 39  @.F@..9..9..9..9
00006a60: 7f 00 42 7f 46 42 00 00 39 00 0a 39 7f 1e 39 00  ..B.FB..9..9..9.
00006a70: 0a 39 7f 00 43 7f 46 43 00 00 39 00 0a 39 7f 1e  .9..C.FC..9..9..
00006a80: 39 00 0a 42 7f 00 39 7f 46 39 00 00 42 00 0a 39  9..B..9.F9..B..9
00006a90: 7f 00 42 7f 1e 42 00 00 39 00 32 45 7f 03 45 00  ..B..B..9.2E..E.
00006aa0: 02 46 7f 07 46 00 03 47 7f 14 47 00 05 4a 7f 1e  .F..F..G..G..J..
00006ab0: 4a 00 0a 4a 7f 1f 4a 00 09 4a 7f 1e 4a 00 0a 4a  J..J..J..J..J..J
00006ac0: 7f 1e 4a 00 0a 4a 7f 23 4a 00 0a 4a 7f 19 4a 00  ..J..J.#J..J..J.
00006ad0: 0a 4a 7f 1e 4a 00 0a 47 7f 07 47 00 01 46 7f 07  .J..J..G..G..F..
00006ae0: 46 00 01 45 7f 22 45 00 0a 43 7f 0a 43 00 0a 40  F..E."E..C..C..@
00006af0: 7f 1e 40 00 08 e1 00 40 02 00 42 00 91 43 7f 01  ..@....@..B..C..
00006b00: e1 00 42 01 00 44 01 00 44 02 00 44 01 00 42 01  ..B..D..D..D..B.
00006b10: 91 43 00 00 e1 00 40 01 00 40 02 00 3e 00 91 44  .C....@..@..>..D
00006b20: 7f 01 e1 00 3e 01 00 3c 03 00 3e 01 91 44 00 00  ....>..<..>..D..
00006b30: e1 00 40 01 00 42 01 00 44 02 00 46 00 91 43 7f  ..@..B..D..F..C.
00006b40: 01 e1 00 46 01 00 44 01 00 42 02 00 40 01 00 3e  ...F..D..B..@..>
00006b50: 01 00 3c 01 00 3a 02 00 3c 01 00 3e 01 00 40 01  ..<..:..<..>..@.
00006b60: 00 42 02 00 44 01 00 42 01 00 40 01 00 3e 02 00  .B..D..B..@..>..
00006b70: 3a 01 00 3c 01 00 3e 01 00 40 02 00 42 01 00 44  :..<..>..@..B..D
00006b80: 01 00 44 01 00 44 02 00 42 01 00 40 01 00 3e 01  ..D..D..B..@..>.
00006b90: 00 3c 02 00 3a 01 00 3c 01 00 3e 01 00 40 02 00  .<..:..<..>..@..
00006ba0: 42 01 00 44 01 00 44 01 00 44 02 00 42 02 00 42  B..D..D..D..B..B
00006bb0: 01 00 40 02 91 43 00 01 e1 00 40 09 91 4c 7f 46  ..@..C....@..L.F
00006bc0: 4c 00 0a 4a 7f 1e 4a 00 0a 4c 7f 1e 4c 00 08 e1  L..J..J..L..L...
00006bd0: 00 40 02 00 42 00 91 43 7f 01 e1 00 42 02 00 44  .@..B..C....B..D
00006be0: 02 00 44 01 00 44 01 91 43 00 00 e1 00 42 01 00  ..D..D..C....B..
00006bf0: 42 02 00 40 00 91 44 7f 02 e1 00 40 01 00 3e 02  B..@..D....@..>.
00006c00: 00 3e 01 00 3c 01 91 44 00 00 e1 00 3e 01 00 3e  .>..<..D....>..>
00006c10: 02 91 43 7f 01 e1 00 40 01 00 40 01 00 42 02 00  ..C....@..@..B..
00006c20: 42 02 00 44 01 00 44 02 00 44 01 00 42 01 00 42  B..D..D..D..B..B
00006c30: 01 00 40 02 00 3e 01 00 3e 01 00 3c 01 00 3e 02  ..@..>..>..<..>.
00006c40: 00 3e 01 00 40 01 00 40 03 00 42 01 00 42 01 00  .>..@..@..B..B..
00006c50: 44 01 00 44 02 00 44 01 00 42 01 00 40 01 00 40  D..D..D..B..@..@
00006c60: 02 00 3e 01 00 3c 01 00 3e 03 00 3e 01 00 40 02  ..>..<..>..>..@.
00006c70: 00 40 03 00 40 00 00 40 04 91 43 00 0a 4c 7f 81  .@..@..@..C..L..
00006c80: 02 4c 00 1e 3f 7f 46 3f 00 0a 3b 7f 1e 3b 00 0a  .L..?.F?..;..;..
00006c90: 3b 7f 1e 3b 00 0a 45 7f 00 3e 7f 00 47 7f 02 4a  ;..;..E..>..G..J
00006ca0: 7f 0a 4a 00 3a 45 00 00 3e 00 00 47 00 0a 45 7f  ..J.:E..>..G..E.
00006cb0: 00 47 7f 00 3e 7f 02 4a 7f 0a 4a 00 3a 45 00 00  .G..>..J..J.:E..
00006cc0: 47 00 00 3e 00 0a 3e 7f 00 45 7f 00 47 7f 02 4a  G..>..>..E..G..J
00006cd0: 7f 0a 4a 00 3a 3e 00 00 45 00 00 47 00 0a 3e 7f  ..J.:>..E..G..>.
00006ce0: 00 45 7f 00 47 7f 01 4a 7f 0a 4a 00 3b 3e 00 00  .E..G..J..J.;>..
00006cf0: 45 00 00 47 00 0a 39 7f 5a 39 00 1e 3c 7f 1e 3c  E..G..9.Z9..<..<
00006d00: 00 0a 3d 7f 1e 3d 00 0a 40 7f 1e 40 00 0a 43 7f  ..=..=..@..@..C.
00006d10: 1e 43 00 0a 40 7f 1e 40 00 0a 43 7f 1e 43 00 0a  .C..@..@..C..C..
00006d20: 43 7f 1e 43 00 08 e1 00 40 02 00 42 00 91 37 7f  C..C....@..B..7.
00006d30: 02 e1 00 42 03 00 44 02 00 44 01 00 44 02 00 42  ...B..D..D..D..B
00006d40: 01 00 42 01 00 40 01 00 3e 02 00 3e 01 00 3c 01  ..B..@..>..>..<.
00006d50: 00 3e 01 00 3e 02 00 40 01 00 40 02 00 42 02 00  .>..>..@..@..B..
00006d60: 42 01 00 44 01 00 44 01 00 42 02 00 40 01 00 3e  B..D..D..B..@..>
00006d70: 01 00 3c 01 00 3e 02 00 3e 02 00 40 01 00 40 02  ..<..>..>..@..@.
00006d80: 00 42 01 00 42 02 00 44 02 00 44 01 00 44 01 00  .B..B..D..D..D..
00006d90: 42 01 00 40 02 00 3e 01 00 3c 01 00 3e 01 00 3e  B..@..>..<..>..>
00006da0: 02 00 40 01 00 42 01 00 42 01 00 44 02 00 44 01  ..@..B..B..D..D.
00006db0: 00 44 02 00 42 03 00 42 02 00 40 02 91 37 00 01  .D..B..B..@..7..
00006dc0: e1 00 40 09 91 34 7f 00 40 7f 0a 40 00 50 34 00  ..@..4..@..@.P4.
00006dd0: 1e 45 7f 07 45 00 03 47 7f 1e 47 00 00 47 7f 00  .E..E..G..G..G..
00006de0: 4a 7f 46 4a 00 00 47 00 0a 45 7f 06 45 00 01 47  J.FJ..G..E..E..G
00006df0: 7f 17 47 00 0a 4a 7f 00 47 7f 46 47 00 00 4a 00  ..G..J..G.FG..J.
00006e00: 0a 47 7f 07 47 00 01 45 7f 16 45 00 0a 43 7f 1e  .G..G..E..E..C..
00006e10: 43 00 0a 40 7f 1e 40 00 0a 43 7f 07 43 00 03 44  C..@..@..C..C..D
00006e20: 7f 07 44 00 03 43 7f 32 43 00 0a 4c 7f 46 4c 00  ..D..C.2C..L.FL.
00006e30: 0a 39 7f 1e 39 00 0a 3a 7f 1e 3a 00 0a 3b 7f 46  .9..9..:..:..;.F
00006e40: 3b 00 0a 47 7f 00 4e 7f 00 45 7f 46 45 00 00 4e  ;..G..N..E.FE..N
00006e50: 00 00 47 00 0a 47 7f 00 45 7f 00 3f 7f 46 3f 00  ..G..G..E..?.F?.
00006e60: 00 45 00 00 47 00 0a 3b 7f 02 34 7f 44 3b 00 02  .E..G..;..4.D;..
00006e70: 34 00 06 34 7f 1e 34 00 0a 3d 7f 00 34 7f 46 34  4..4..4..=..4.F4
00006e80: 00 00 3d 00 0e 34 7f 1e 34 00 06 34 7f 02 3e 7f  ..=..4..4..4..>.
00006e90: 44 34 00 02 3e 00 0a 34 7f 1e 34 00 0a 34 7f 01  D4..>..4..4..4..
00006ea0: 3d 7f 45 34 00 01 3d 00 07 34 7f 1e 34 00 0a 39  =.E4..=..4..4..9
00006eb0: 7f 04 40 7f 42 39 00 04 40 00 08 39 7f 1e 39 00  ..@.B9..@..9..9.
00006ec0: 08 42 7f 04 39 7f 42 42 00 04 39 00 0a 39 7f 1e  .B..9.BB..9..9..
00006ed0: 39 00 06 39 7f 04 43 7f 42 39 00 04 43 00 09 39  9..9..C.B9..C..9
00006ee0: 7f 1e 39 00 07 42 7f 03 39 7f 57 42 00 03 39 00  ..9..B..9.WB..9.
00006ef0: 1d 3b 7f 02 34 7f 44 3b 00 02 34 00 06 34 7f 1e  .;..4.D;..4..4..
00006f00: 34 00 0a 3d 7f 00 34 7f 46 34 00 00 3d 00 0e 34  4..=..4.F4..=..4
00006f10: 7f 1e 34 00 06 34 7f 02 3e 7f 44 34 00 02 3e 00  ..4..4..>.D4..>.
00006f20: 0a 34 7f 1e 34 00 0a 34 7f 01 3d 7f 45 34 00 01  .4..4..4..=.E4..
00006f30: 3d 00 07 34 7f 1e 34 00 0a 39 7f 04 40 7f 42 39  =..4..4..9..@.B9
00006f40: 00 04 40 00 08 39 7f 1e 39 00 08 42 7f 04 39 7f  ..@..9..9..B..9.
00006f50: 42 42 00 04 39 00 0a 39 7f 1e 39 00 06 39 7f 04  BB..9..9..9..9..
00006f60: 43 7f 42 39 00 04 43 00 09 39 7f 1e 39 00 07 42  C.B9..C..9..9..B
00006f70: 7f 03 39 7f 57 42 00 03 39 00 1f 39 7f 00 40 7f  ..9.WB..9..9..@.
00006f80: 46 40 00 00 39 00 0a 39 7f 1e 39 00 08 39 7f 01  F@..9..9..9..9..
00006f90: 42 7f 45 39 00 01 42 00 0b 39 7f 1e 39 00 06 39  B.E9..B..9..9..9
00006fa0: 7f 03 43 7f 43 39 00 03 43 00 0b 39 7f 1e 39 00  ..C.C9..C..9..9.
00006fb0: 08 42 7f 01 39 7f 45 42 00 01 39 00 07 39 7f 1e  .B..9.EB..9..9..
00006fc0: 39 00 0c 39 7f 02 40 7f 44 39 00 02 40 00 09 39  9..9..@.D9..@..9
00006fd0: 7f 1e 39 00 09 42 7f 02 39 7f 44 42 00 02 39 00  ..9..B..9.DB..9.
00006fe0: 06 42 7f 02 39 7f 1c 42 00 02 39 00 08 39 7f 00  .B..9..B..9..9..
00006ff0: 43 7f 46 43 00 00 39 00 0a 43 7f 02 39 7f 1c 43  C.FC..9..C..9..C
00007000: 00 02 39 00 0a 39 7f 02 42 7f 44 39 00 02 42 00  ..9..9..B.D9..B.
00007010: 08 39 7f 00 42 7f 1e 42 00 00 39 00 0a 3b 7f 02  .9..B..B..9..;..
00007020: 34 7f 44 3b 00 02 34 00 06 34 7f 1e 34 00 0a 3d  4.D;..4..4..4..=
00007030: 7f 00 34 7f 46 34 00 00 3d 00 0e 34 7f 1e 34 00  ..4.F4..=..4..4.
00007040: 06 34 7f 02 3e 7f 44 34 00 02 3e 00 0a 34 7f 1e  .4..>.D4..>..4..
00007050: 34 00 0a 34 7f 01 3d 7f 45 34 00 01 3d 00 07 34  4..4..=.E4..=..4
00007060: 7f 1e 34 00 0a 39 7f 04 40 7f 42 39 00 04 40 00  ..4..9..@.B9..@.
00007070: 08 39 7f 1e 39 00 08 42 7f 04 39 7f 42 42 00 04  .9..9..B..9.BB..
00007080: 39 00 0a 39 7f 1e 39 00 06 39 7f 04 43 7f 42 39  9..9..9..9..C.B9
00007090: 00 04 43 00 09 39 7f 1e 39 00 07 42 7f 03 39 7f  ..C..9..9..B..9.
000070a0: 57 42 00 03 39 00 1d 3b 7f 02 34 7f 44 3b 00 02  WB..9..;..4.D;..
000070b0: 34 00 06 34 7f 1e 34 00 0a 3d 7f 00 34 7f 46 34  4..4..4..=..4.F4
000070c0: 00 00 3d 00 0e 34 7f 1e 34 00 06 34 7f 02 3e 7f  ..=..4..4..4..>.
000070d0: 44 34 00 02 3e 00 0a 34 7f 1e 34 00 0a 34 7f 01  D4..>..4..4..4..
000070e0: 3d 7f 45 34 00 01 3d 00 07 34 7f 1e 34 00 0a 39  =.E4..=..4..4..9
000070f0: 7f 04 40 7f 42 39 00 04 40 00 08 39 7f 1e 39 00  ..@.B9..@..9..9.
00007100: 08 42 7f 04 39 7f 42 42 00 04 39 00 0a 39 7f 1e  .B..9.BB..9..9..
00007110: 39 00 06 39 7f 04 43 7f 42 39 00 04 43 00 09 39  9..9..C.B9..C..9
00007120: 7f 1e 39 00 07 42 7f 03 39 7f 57 42 00 03 39 00  ..9..B..9.WB..9.
00007130: 6d 48 7f 00 45 7f 0a 45 00 00 48 00 03 47 7f 02  mH..E..E..H..G..
00007140: 4a 7f 7d 4a 00 00 47 00 14 46 7f 46 46 00 0a 46  J.}J..G..F.FF..F
00007150: 7f 00 49 7f 1e 49 00 00 46 00 0a 48 7f 00 45 7f  ..I..I..F..H..E.
00007160: 46 45 00 00 48 00 0a 45 7f 00 48 7f 1e 48 00 00  FE..H..E..H..H..
00007170: 45 00 0a 43 7f 00 47 7f 0a 43 00 00 44 7f 39 47  E..C..G..C..D.9G
00007180: 00 03 44 00 0a 3b 7f 1e 3b 00 5a 4a 7f 00 53 7f  ..D..;..;.ZJ..S.
00007190: 00 4e 7f 00 40 7f 00 44 7f 6e 44 00 00 4e 00 00  .N..@..D.nD..N..
000071a0: 4a 00 00 53 00 00 40 00 07 40 7f 01 44 7f 02 4a  J..S..@..@..D..J
000071b0: 7f 01 53 7f 00 4e 7f 01 40 00 01 44 00 02 4a 00  ..S..N..@..D..J.
000071c0: 01 53 00 00 4e 00 07 40 7f 00 44 7f 02 53 7f 00  .S..N..@..D..S..
000071d0: 4a 7f 00 4e 7f 03 44 00 00 40 00 02 4a 00 00 53  J..N..D..@..J..S
000071e0: 00 00 4e 00 05 44 7f 01 4a 7f 01 4e 7f 01 40 7f  ..N..D..J..N..@.
000071f0: 00 53 7f 02 44 00 01 4a 00 01 4e 00 01 40 00 00  .S..D..J..N..@..
00007200: 53 00 07 55 7f 05 55 00 05 55 7f 05 55 00 05 55  S..U..U..U..U..U
00007210: 7f 05 55 00 05 55 7f 05 55 00 05 55 7f 05 55 00  ..U..U..U..U..U.
00007220: 05 55 7f 05 55 00 05 4e 7f 00 44 7f 00 4a 7f 0a  .U..U..N..D..J..
00007230: 4a 00 00 44 00 00 4e 00 0a 4e 7f 00 53 7f 00 4a  J..D..N..N..S..J
00007240: 7f 01 44 7f 1d 44 00 00 4e 00 00 53 00 00 4a 00  ..D..D..N..S..J.
00007250: 0a 4e 7f 00 53 7f 00 4a 7f 00 40 7f 00 44 7f 81  .N..S..J..@..D..
00007260: 5d 40 00 05 44 00 01 4a 00 03 53 00 00 4e 00 00  ]@..D..J..S..N..
00007270: ff 2f 00 4d 54 72 6b 00 00 06 f9 00 ff 21 01 00  ./.MTrk......!..
00007280: 00 ff 03 05 56 6f 63 61 6c 8e 58 92 47 7f 1e 47  ....Vocal.X.G..G
00007290: 00 0a 4e 7f 05 4e 00 00 4f 7f 28 4f 00 00 4f 7f  ..N..N..O.(O..O.
000072a0: 1e 4f 00 00 4f 7f 28 4f 00 05 4f 7f 46 4f 00 0a  .O..O.(O..O.FO..
000072b0: 4e 7f 1e 4e 00 0a 4c 7f 73 4c 00 81 75 47 7f 05  N..N..L.sL..uG..
000072c0: 47 00 00 49 7f 41 49 00 0a 4c 7f 1e 4c 00 0a 4e  G..I.AI..L..L..N
000072d0: 7f 43 4e 00 0d 4c 7f 1e 4c 00 0a 4a 7f 05 4a 00  .CN..L..L..J..J.
000072e0: 00 4c 7f 55 4c 00 1e 49 7f 0f 49 00 05 47 7f 50  .L.UL..I..I..G.P
000072f0: 47 00 86 34 47 7f 1e 47 00 0a 4e 7f 0a 4e 00 02  G..4G..G..N..N..
00007300: 4f 7f 21 4f 7f 07 4f 00 17 4f 00 00 4f 7f 28 4f  O.!O..O..O..O.(O
00007310: 00 05 4f 7f 46 4f 00 0a 4e 7f 1e 4e 00 0a 4c 7f  ..O.FO..N..N..L.
00007320: 73 4c 00 81 75 47 7f 0a 47 00 02 49 7f 3a 49 00  sL..uG..G..I.:I.
00007330: 0a 4c 7f 1e 4c 00 0b 4c 7f 06 4c 00 03 4e 7f 19  .L..L..L..L..N..
00007340: 4e 00 05 4c 7f 1e 4c 00 0a 47 7f 1c 47 00 0c 4a  N..L..L..G..G..J
00007350: 7f 05 4a 00 00 4c 7f 55 4c 00 1e 49 7f 0f 49 00  ..J..L.UL..I..I.
00007360: 05 47 7f 50 47 00 85 3c 4e 7f 0a 4e 00 02 4f 7f  .G.PG..<N..N..O.
00007370: 14 4f 00 08 4e 7f 23 4e 00 05 4f 7f 1e 4f 00 0a  .O..N.#N..O..O..
00007380: 4f 7f 1e 4f 00 0a 4e 7f 1e 4e 00 0a 4e 7f 1e 4e  O..O..N..N..N..N
00007390: 00 0a 4e 7f 1e 4e 00 0a 4e 7f 0a 4e 00 0a 4e 7f  ..N..N..N..N..N.
000073a0: 11 4e 00 08 4e 7f 0a 4e 00 05 4e 7f 0a 4e 00 0a  .N..N..N..N..N..
000073b0: 4e 7f 1e 4e 00 0a 4e 7f 0a 4e 00 05 50 7f 37 50  N..N..N..N..P.7P
000073c0: 00 0a 4c 7f 4d 4c 00 81 23 49 7f 1e 49 00 0a 4c  ..L.ML..#I..I..L
000073d0: 7f 1e 4c 00 0a 4e 7f 1e 4e 00 0a 4f 7f 1e 4f 00  ..L..N..N..O..O.
000073e0: 0a 49 7f 1e 49 00 0a 49 7f 46 49 00 0a 4c 7f 1e  .I..I..I.FI..L..
000073f0: 4c 00 0a 4c 7f 1e 4c 00 0a 4c 7f 81 20 4c 00 86  L..L..L..L.. L..
00007400: 20 47 7f 1e 47 00 0a 4e 7f 0a 4e 00 05 4f 7f 5f   G..G..N..N..O._
00007410: 4f 00 0a 4f 7f 46 4f 00 0a 4e 7f 1e 4e 00 0a 4c  O..O.FO..N..N..L
00007420: 7f 46 4c 00 0a 4c 7f 28 4c 00 81 48 49 7f 1e 49  .FL..L.(L..HI..I
00007430: 00 0a 49 7f 1e 49 00 0a 4c 7f 1e 4c 00 0a 4c 7f  ..I..I..L..L..L.
00007440: 1e 4c 00 0a 4c 7f 28 4c 00 00 4e 7f 46 4e 00 0a  .L..L.(L..N.FN..
00007450: 4c 7f 5a 4c 00 1e 4c 7f 23 4c 00 05 4a 7f 81 0c  L.ZL..L.#L..J...
00007460: 4a 00 85 64 47 7f 1e 47 00 0a 4e 7f 0a 4e 00 01  J..dG..G..N..N..
00007470: 4f 7f 4f 4f 00 1e 4f 7f 43 4f 00 03 4e 7f 28 4e  O.OO..O.CO..N.(N
00007480: 00 0a 4c 7f 46 4c 00 0a 4c 7f 28 4c 00 81 48 47  ..L.FL..L.(L..HG
00007490: 7f 1e 47 00 0a 49 7f 1e 49 00 0a 4c 7f 1e 4c 00  ..G..I..I..L..L.
000074a0: 0a 4c 7f 1e 4c 00 0a 4c 7f 28 4c 00 00 4e 7f 46  .L..L..L.(L..N.F
000074b0: 4e 00 0a 4a 7f 0a 4a 00 00 4c 7f 50 4c 00 1e 4c  N..J..J..L.PL..L
000074c0: 7f 28 4c 00 00 4a 7f 81 0c 4a 00 85 64 47 7f 1e  .(L..J...J..dG..
000074d0: 47 00 0a 4e 7f 46 4e 00 0a 4e 7f 1e 4e 00 0a 4e  G..N.FN..N..N..N
000074e0: 7f 5a 4e 00 1e 4e 7f 28 4e 00 00 50 7f 46 50 00  .ZN..N.(N..P.FP.
000074f0: 5a 47 7f 1e 47 00 0a 4a 7f 0a 4a 00 00 4c 7f 50  ZG..G..J..J..L.P
00007500: 4c 00 1e 4c 7f 5a 4c 00 1e 4c 7f 0a 4c 00 00 4e  L..L.ZL..L..L..N
00007510: 7f 46 4e 00 00 49 7f 1e 49 00 0a 4c 7f 46 4c 00  .FN..I..I..L.FL.
00007520: 0a 4c 7f 6e 4c 00 86 52 47 7f 1e 47 00 0a 4e 7f  .L.nL..RG..G..N.
00007530: 05 4e 00 02 4f 7f 31 4f 00 04 4f 7f 14 4f 00 00  .N..O.1O..O..O..
00007540: 51 7f 1e 51 00 0a 4f 7f 46 4f 00 0a 4e 7f 1e 4e  Q..Q..O.FO..N..N
00007550: 00 0a 4c 7f 5a 4c 00 82 0e 47 7f 07 47 00 03 49  ..L.ZL...G..G..I
00007560: 7f 3c 49 00 0a 4c 7f 1e 4c 00 0a 4c 7f 07 4c 00  .<I..L..L..L..L.
00007570: 03 4e 7f 14 4e 00 0a 4c 7f 1e 4c 00 0a 49 7f 1e  .N..N..L..L..I..
00007580: 49 00 0a 49 7f 0a 49 00 00 4c 7f 50 4c 00 1e 49  I..I..I..L.PL..I
00007590: 7f 14 49 00 00 47 7f 5a 47 00 86 2a 47 7f 1e 47  ..I..G.ZG..*G..G
000075a0: 00 0a 4e 7f 07 4e 00 03 4f 7f 2f 4f 00 03 4f 7f  ..N..N..O./O..O.
000075b0: 14 4f 00 00 50 7f 1e 50 00 0a 4f 7f 46 4f 00 0a  .O..P..P..O.FO..
000075c0: 4e 7f 1e 4e 00 0a 4c 7f 5a 4c 00 82 0e 47 7f 06  N..N..L.ZL...G..
000075d0: 47 00 02 49 7f 3e 49 00 0a 4c 7f 1e 4c 00 0a 4c  G..I.>I..L..L..L
000075e0: 7f 06 4c 00 02 4e 7f 3e 4e 00 0a 49 7f 1e 49 00  ..L..N.>N..I..I.
000075f0: 0a 4a 7f 0a 4a 00 03 4c 7f 4d 4c 00 1e 49 7f 0a  .J..J..L.ML..I..
00007600: 49 00 03 47 7f 6b 47 00 85 28 4e 7f 08 4e 00 03  I..G.kG..(N..N..
00007610: 4f 7f 3b 4f 00 0a 4f 7f 1e 4f 00 0a 4f 7f 1e 4f  O.;O..O..O..O..O
00007620: 00 0a 4e 7f 23 4e 00 0a 4e 7f 19 4e 00 0a 4e 7f  ..N.#N..N..N..N.
00007630: 1e 4e 00 0a 4e 7f 0f 4e 00 05 4e 7f 0f 4e 00 05  .N..N..N..N..N..
00007640: 4e 7f 16 4e 00 05 4e 7f 0e 4e 00 05 4e 7f 1b 4e  N..N..N..N..N..N
00007650: 00 07 4e 7f 0f 4e 00 03 4f 7f 34 4f 00 0a 4c 7f  ..N..N..O.4O..L.
00007660: 1e 4c 00 81 52 49 7f 1e 49 00 0a 4c 7f 1e 4c 00  .L..RI..I..L..L.
00007670: 0a 4c 7f 1e 4c 00 0a 4c 7f 07 4c 00 03 4e 7f 14  .L..L..L..L..N..
00007680: 4e 00 0a 49 7f 1e 49 00 0a 49 7f 46 49 00 0a 4c  N..I..I..I.FI..L
00007690: 7f 1e 4c 00 0a 4c 7f 1e 4c 00 0a 4c 7f 28 4c 00  ..L..L..L..L.(L.
000076a0: 00 4a 7f 5a 4a 00 b3 66 4e 7f 05 4e 00 00 4f 7f  .J.ZJ..fN..N..O.
000076b0: 0a 4f 00 05 4f 7f 50 4f 00 14 4f 7f 46 4f 00 0a  .O..O.PO..O.FO..
000076c0: 4f 7f 3c 4f 00 0a 4f 7f 50 4f 00 0a 4c 7f 5a 4c  O.<O..O.PO..L.ZL
000076d0: 00 6e 47 7f 0a 47 00 02 49 7f 3a 49 00 0a 4a 7f  .nG..G..I.:I..J.
000076e0: 0a 4a 00 02 4c 7f 3a 4c 00 0a 4c 7f 0a 4c 00 02  .J..L.:L..L..L..
000076f0: 4f 7f 44 4f 00 05 50 7f 19 50 00 0a 4a 7f 0a 4a  O.DO..P..P..J..J
00007700: 00 02 4c 7f 3a 4c 00 0a 4c 7f 33 4c 00 09 4c 7f  ..L.:L..L.3L..L.
00007710: 03 4c 00 04 4a 7f 59 4a 00 86 24 4c 7f 05 4c 00  .L..J.YJ..$L..L.
00007720: 02 4f 7f 17 4f 00 0a 4f 7f 46 4f 00 0a 4f 7f 3c  .O..O..O.FO..O.<
00007730: 4f 00 11 4f 7f 50 4f 00 05 4c 7f 17 4c 00 0f 51  O..O.PO..L..L..Q
00007740: 7f 50 51 00 81 70 49 7f 46 49 00 0a 4c 7f 46 4c  .PQ..pI.FI..L.FL
00007750: 00 0a 4c 7f 0a 4c 00 00 4f 7f 3c 4f 00 0a 4c 7f  ..L..L..O.<O..L.
00007760: 32 4c 00 0a 4c 7f 5a 4c 00 0a 4c 7f 03 4c 00 04  2L..L.ZL..L..L..
00007770: 4a 7f 3f 4a 00 85 32 4c 7f 05 4c 00 00 4f 7f 19  J.?J..2L..L..O..
00007780: 4f 00 0a 4f 7f 1e 4f 00 0a 4f 7f 1e 4f 00 0a 4e  O..O..O..O..O..N
00007790: 7f 6e 4e 00 0a 4e 7f 1e 4e 00 0a 4e 7f 1e 4e 00  .nN..N..N..N..N.
000077a0: 0a 4e 7f 1e 4e 00 0a 4e 7f 05 4e 00 00 50 7f 19  .N..N..N..N..P..
000077b0: 50 00 0a 47 7f 78 47 00 81 48 49 7f 1e 49 00 0a  P..G.xG..HI..I..
000077c0: 4c 7f 46 4c 00 0a 4e 7f 1e 4e 00 0a 49 7f 25 49  L.FL..N..N..I.%I
000077d0: 00 03 4c 7f 46 4c 00 0a 4c 7f 46 4c 00 0a 4c 7f  ..L.FL..L.FL..L.
000077e0: 25 4c 00 03 4a 7f 78 4a 00 84 08 4a 7f 1e 4a 00  %L..J.xJ...J..J.
000077f0: 0a 47 7f 1b 47 00 ae 7d 4e 7f 05 4e 00 02 4f 7f  .G..G..}N..N..O.
00007800: 31 4f 00 04 4f 7f 14 4f 00 00 51 7f 1e 51 00 0a  1O..O..O..Q..Q..
00007810: 4f 7f 46 4f 00 0a 4e 7f 1e 4e 00 0a 4c 7f 5a 4c  O.FO..N..N..L.ZL
00007820: 00 82 0e 47 7f 07 47 00 03 49 7f 3c 49 00 0a 4c  ...G..G..I.<I..L
00007830: 7f 1e 4c 00 0a 4c 7f 07 4c 00 03 4e 7f 14 4e 00  ..L..L..L..N..N.
00007840: 0a 4c 7f 1e 4c 00 0a 49 7f 1e 49 00 0a 49 7f 0a  .L..L..I..I..I..
00007850: 49 00 00 4c 7f 50 4c 00 1e 49 7f 14 49 00 00 47  I..L.PL..I..I..G
00007860: 7f 5a 47 00 86 2a 47 7f 1e 47 00 0a 4e 7f 07 4e  .ZG..*G..G..N..N
00007870: 00 03 4f 7f 2f 4f 00 03 4f 7f 14 4f 00 00 50 7f  ..O./O..O..O..P.
00007880: 1e 50 00 0a 4f 7f 46 4f 00 0a 4e 7f 1e 4e 00 0a  .P..O.FO..N..N..
00007890: 4c 7f 5a 4c 00 82 0e 47 7f 06 47 00 02 49 7f 3e  L.ZL...G..G..I.>
000078a0: 49 00 0a 4c 7f 1e 4c 00 0a 4c 7f 06 4c 00 02 4e  I..L..L..L..L..N
000078b0: 7f 3e 4e 00 0a 49 7f 1e 49 00 0a 4a 7f 0a 4a 00  .>N..I..I..J..J.
000078c0: 03 4c 7f 4d 4c 00 1e 49 7f 0a 49 00 03 47 7f 6b  .L.ML..I..I..G.k
000078d0: 47 00 85 28 4e 7f 08 4e 00 03 4f 7f 3b 4f 00 0a  G..(N..N..O.;O..
000078e0: 4f 7f 1e 4f 00 0a 4f 7f 1e 4f 00 0a 4e 7f 23 4e  O..O..O..O..N.#N
000078f0: 00 0a 4e 7f 19 4e 00 0a 4e 7f 1e 4e 00 0a 4e 7f  ..N..N..N..N..N.
00007900: 0f 4e 00 05 4e 7f 0f 4e 00 05 4e 7f 16 4e 00 05  .N..N..N..N..N..
00007910: 4e 7f 0e 4e 00 05 4e 7f 1b 4e 00 07 4e 7f 0f 4e  N..N..N..N..N..N
00007920: 00 03 4f 7f 34 4f 00 0a 4c 7f 1e 4c 00 81 52 49  ..O.4O..L..L..RI
00007930: 7f 1e 49 00 0a 4c 7f 1e 4c 00 0a 4c 7f 1e 4c 00  ..I..L..L..L..L.
00007940: 0a 4c 7f 07 4c 00 03 4e 7f 14 4e 00 0a 49 7f 1e  .L..L..N..N..I..
00007950: 49 00 0a 49 7f 46 49 00 0a 4c 7f 1e 4c 00 0a 4c  I..I.FI..L..L..L
00007960: 7f 1e 4c 00 0a 4c 7f 28 4c 00 00 4a 7f 5a 4a 00  ..L..L.(L..J.ZJ.
00007970: 00 ff 2f 00 4d 54 72 6b 00 00 28 9f 00 ff 21 01  ../.MTrk..(...!.
00007980: 00 00 ff 03 0f 52 68 79 74 68 6d 20 28 43 68 6f  .....Rhythm (Cho
00007990: 72 64 73 29 88 38 93 45 6b 01 42 6b 00 47 6b 01  rds).8.Ek.Bk.Gk.
000079a0: 3f 6b 19 3f 00 01 47 00 03 45 00 01 42 00 30 3f  ?k.?..G..E..B.0?
000079b0: 6b 00 42 6b 00 45 6b 00 47 6b 60 3f 00 01 45 00  k.Bk.Ek.Gk`?..E.
000079c0: 01 47 00 02 42 00 14 3f 6b 00 42 6b 00 45 6b 00  .G..B..?k.Bk.Ek.
000079d0: 47 6b 14 47 00 01 3f 00 00 42 00 00 45 00 13 3f  Gk.G..?..B..E..?
000079e0: 6b 00 42 6b 01 45 6b 00 47 6b 1e 45 00 00 3f 00  k.Bk.Ek.Gk.E..?.
000079f0: 00 42 00 02 47 00 81 27 3e 6b 00 40 6b 00 44 6b  .B..G..'>k.@k.Dk
00007a00: 00 47 6b 14 40 00 01 44 00 01 47 00 06 3e 00 09  .Gk.@..D..G..>..
00007a10: 44 6b 03 3e 6b 00 40 6b 00 47 6b 37 40 00 05 44  Dk.>k.@k.Gk7@..D
00007a20: 00 00 3e 00 00 47 00 3c 3e 6b 00 44 6b 02 40 6b  ..>..G.<>k.Dk.@k
00007a30: 00 47 6b 3a 40 00 02 47 00 00 3e 00 04 44 00 81  .Gk:@..G..>..D..
00007a40: 2e 3e 6b 00 40 6b 00 47 6b 01 44 6b 47 40 00 03  .>k.@k.Gk.DkG@..
00007a50: 47 00 02 3e 00 00 44 00 2b 44 6b 00 47 6b 02 3e  G..>..D.+Dk.Gk.>
00007a60: 6b 00 40 6b 23 3e 00 00 47 00 03 44 00 00 40 00  k.@k#>..G..D..@.
00007a70: 25 44 6b 03 3e 6b 00 47 6b 00 40 6b 5a 40 00 0c  %Dk.>k.Gk.@kZ@..
00007a80: 47 00 00 3e 00 01 44 00 82 01 40 6b 00 43 6b 00  G..>..D...@k.Ck.
00007a90: 45 6b 00 49 6b 14 43 00 01 40 00 01 45 00 01 49  Ek.Ik.C..@..E..I
00007aa0: 00 11 49 6b 01 40 6b 00 43 6b 00 45 6b 34 45 00  ..Ik.@k.Ck.Ek4E.
00007ab0: 02 49 00 00 40 00 01 43 00 18 40 6b 00 43 6b 00  .I..@..C..@k.Ck.
00007ac0: 45 6b 00 49 6b 12 43 00 00 40 00 02 45 00 02 49  Ek.Ik.C..@..E..I
00007ad0: 00 12 40 6b 00 43 6b 01 45 6b 01 49 6b 46 43 00  ..@k.Ck.Ek.IkFC.
00007ae0: 01 45 00 09 49 00 03 40 00 23 43 6b 01 40 6b 00  .E..I..@.#Ck.@k.
00007af0: 45 6b 01 49 6b 32 49 00 00 45 00 00 40 00 03 43  Ek.Ik2I..E..@..C
00007b00: 00 43 3e 6b 00 40 6b 00 44 6b 00 47 6b 5b 47 00  .C>k.@k.Dk.Gk[G.
00007b10: 02 3e 00 01 44 00 05 40 00 13 3e 6b 00 47 6b 02  .>..D..@..>k.Gk.
00007b20: 40 6b 00 44 6b 1c 3e 00 05 47 00 01 40 00 05 44  @k.Dk.>..G..@..D
00007b30: 00 27 44 6b 00 47 6b 01 3e 6b 01 40 6b 5d 40 00  .'Dk.Gk.>k.@k]@.
00007b40: 01 47 00 01 44 00 01 3e 00 14 40 6b 02 3e 6b 00  .G..D..>..@k.>k.
00007b50: 44 6b 00 47 6b 12 44 00 00 3e 00 02 40 00 02 47  Dk.Gk.D..>..@..G
00007b60: 00 12 40 6b 00 47 6b 01 3e 6b 00 44 6b 66 40 00  ..@k.Gk.>k.Dkf@.
00007b70: 03 3e 00 02 47 00 03 44 00 59 3e 6b 00 40 6b 00  .>..G..D.Y>k.@k.
00007b80: 44 6b 00 47 6b 14 47 00 02 44 00 00 3e 00 08 40  Dk.Gk.G..D..>..@
00007b90: 00 07 3e 6b 00 40 6b 01 44 6b 00 47 6b 37 47 00  ..>k.@k.Dk.Gk7G.
00007ba0: 02 3e 00 00 40 00 00 44 00 12 44 6b 03 3e 6b 01  .>..@..D..Dk.>k.
00007bb0: 47 6b 01 40 6b 11 40 00 01 47 00 02 3e 00 02 44  Gk.@k.@..G..>..D
00007bc0: 00 14 3e 6b 00 47 6b 01 40 6b 01 44 6b 4b 40 00  ..>k.Gk.@k.DkK@.
00007bd0: 00 47 00 05 44 00 01 3e 00 25 3e 6b 00 44 6b 00  .G..D..>.%>k.Dk.
00007be0: 47 6b 02 40 6b 4b 40 00 05 44 00 01 3e 00 02 47  Gk.@kK@..D..>..G
00007bf0: 00 73 43 6b 00 4c 6b 02 45 6b 00 49 6b 81 00 49  .sCk.Lk.Ek.Ik..I
00007c00: 00 01 4c 00 02 45 00 03 43 00 18 4c 6b 02 43 6b  ..L..E..C..Lk.Ck
00007c10: 00 45 6b 03 49 6b 81 54 45 00 01 49 00 00 4c 00  .Ek.Ik.TE..I..L.
00007c20: 03 43 00 13 45 6b 00 43 6b 02 49 6b 00 4c 6b 81  .C..Ek.Ck.Ik.Lk.
00007c30: 2a 45 00 01 4c 00 04 49 00 03 43 00 14 43 6b 00  *E..L..I..C..Ck.
00007c40: 45 6b 00 4c 6b 02 49 6b 82 09 45 00 03 43 00 00  Ek.Lk.Ik..E..C..
00007c50: 4c 00 00 49 00 50 44 6b 00 47 6b 00 3e 6b 00 40  L..I.PDk.Gk.>k.@
00007c60: 6b 16 47 00 04 44 00 02 3e 00 02 40 00 0c 44 6b  k.G..D..>..@..Dk
00007c70: 03 3e 6b 00 40 6b 00 47 6b 38 3e 00 01 47 00 01  .>k.@k.Gk8>..G..
00007c80: 44 00 03 40 00 0e 3e 6b 00 40 6b 00 47 6b 01 44  D..@..>k.@k.Gk.D
00007c90: 6b 10 47 00 00 3e 00 03 40 00 00 44 00 17 40 6b  k.G..>..@..D..@k
00007ca0: 02 3e 6b 00 44 6b 00 47 6b 81 52 47 00 01 3e 00  .>k.Dk.Gk.RG..>.
00007cb0: 04 44 00 00 40 00 20 47 6b 00 3e 6b 00 44 6b 01  .D..@. Gk.>k.Dk.
00007cc0: 40 6b 71 44 00 00 47 00 05 40 00 01 3e 00 08 44  @kqD..G..@..>..D
00007cd0: 6b 00 47 6b 01 3e 6b 00 40 6b 18 3e 00 01 47 00  k.Gk.>k.@k.>..G.
00007ce0: 02 44 00 00 40 00 2a 3e 6b 00 40 6b 00 44 6b 00  .D..@.*>k.@k.Dk.
00007cf0: 47 6b 6b 44 00 01 47 00 00 40 00 04 3e 00 08 47  GkkD..G..@..>..G
00007d00: 6b 00 44 6b 02 3e 6b 00 40 6b 15 47 00 02 44 00  k.Dk.>k.@k.G..D.
00007d10: 01 3e 00 00 40 00 0e 3e 6b 00 40 6b 00 44 6b 00  .>..@..>k.@k.Dk.
00007d20: 47 6b 81 1e 40 00 02 44 00 01 3e 00 00 47 00 27  Gk..@..D..>..G.'
00007d30: 42 6b 00 45 6b 00 47 6b 00 4b 6b 28 4b 00 00 42  Bk.Ek.Gk.Kk(K..B
00007d40: 00 00 45 00 00 47 00 28 42 6b 00 45 6b 00 47 6b  ..E..G.(Bk.Ek.Gk
00007d50: 00 4b 6b 2a 47 00 03 42 00 00 45 00 03 4b 00 20  .Kk*G..B..E..K. 
00007d60: 42 6b 00 45 6b 00 47 6b 00 4b 6b 25 47 00 03 45  Bk.Ek.Gk.Kk%G..E
00007d70: 00 05 4b 00 02 42 00 21 42 6b 00 45 6b 00 47 6b  ..K..B.!Bk.Ek.Gk
00007d80: 00 4b 6b 28 4b 00 02 45 00 03 47 00 00 42 00 23  .Kk(K..E..G..B.#
00007d90: 42 6b 00 45 6b 00 47 6b 00 4b 6b 46 4b 00 00 42  Bk.Ek.Gk.KkFK..B
00007da0: 00 02 47 00 00 45 00 58 40 6b 00 43 6b 00 45 6b  ..G..E.X@k.Ck.Ek
00007db0: 00 49 6b 32 45 00 01 43 00 01 40 00 00 49 00 1c  .Ik2E..C..@..I..
00007dc0: 40 6b 00 43 6b 00 45 6b 00 49 6b 23 49 00 00 45  @k.Ck.Ek.Ik#I..E
00007dd0: 00 00 43 00 02 40 00 03 40 6b 00 43 6b 00 45 6b  ..C..@..@k.Ck.Ek
00007de0: 00 49 6b 23 49 00 00 40 00 00 43 00 02 45 00 2b  .Ik#I..@..C..E.+
00007df0: 40 6b 00 43 6b 00 45 6b 00 49 6b 19 49 00 00 45  @k.Ck.Ek.Ik.I..E
00007e00: 00 00 43 00 02 40 00 0d 40 6b 00 43 6b 00 45 6b  ..C..@..@k.Ck.Ek
00007e10: 00 49 6b 81 13 45 00 03 40 00 00 43 00 00 49 00  .Ik..E..@..C..I.
00007e20: 57 40 6b 03 3e 6b 00 44 6b 00 47 6b 1b 40 00 03  W@k.>k.Dk.Gk.@..
00007e30: 44 00 02 3e 00 00 47 00 08 40 6b 00 47 6b 00 3e  D..>..G..@k.Gk.>
00007e40: 6b 00 44 6b 2a 44 00 03 3e 00 02 47 00 00 40 00  k.Dk*D..>..G..@.
00007e50: 21 3e 6b 00 40 6b 00 44 6b 00 47 6b 14 40 00 02  !>k.@k.Dk.Gk.@..
00007e60: 3e 00 00 44 00 00 47 00 12 3e 6b 00 47 6b 00 44  >..D..G..>k.Gk.D
00007e70: 6b 01 40 6b 81 27 40 00 07 44 00 00 3e 00 01 47  k.@k.'@..D..>..G
00007e80: 00 40 42 6b 00 47 6b 00 4b 6b 02 45 6b 38 47 00  .@Bk.Gk.Kk.Ek8G.
00007e90: 02 4b 00 01 45 00 02 42 00 11 47 6b 00 42 6b 00  .K..E..B..Gk.Bk.
00007ea0: 4b 6b 00 45 6b 25 45 00 00 47 00 03 4b 00 01 42  Kk.Ek%E..G..K..B
00007eb0: 00 27 42 6b 00 45 6b 00 47 6b 00 4b 6b 23 47 00  .'Bk.Ek.Gk.Kk#G.
00007ec0: 00 45 00 02 4b 00 05 42 00 26 42 6b 00 45 6b 00  .E..K..B.&Bk.Ek.
00007ed0: 47 6b 00 4b 6b 81 3b 47 00 03 42 00 00 45 00 00  Gk.Kk.;G..B..E..
00007ee0: 4b 00 81 0c 40 6b 00 44 6b 00 47 6b 00 4a 6b 16  K...@k.Dk.Gk.Jk.
00007ef0: 4a 00 00 40 00 03 47 00 00 44 00 0f 40 6b 00 44  J..@..G..D..@k.D
00007f00: 6b 00 47 6b 01 4a 6b 36 40 00 01 44 00 02 47 00  k.Gk.Jk6@..D..G.
00007f10: 03 4a 00 09 40 6b 00 44 6b 00 47 6b 00 4a 6b 16  .J..@k.Dk.Gk.Jk.
00007f20: 40 00 04 44 00 01 47 00 01 4a 00 0c 4a 6b 00 40  @..D..G..J..Jk.@
00007f30: 6b 00 47 6b 02 44 6b 3d 40 00 04 44 00 05 4a 00  k.Gk.Dk=@..D..J.
00007f40: 01 47 00 07 40 6b 00 47 6b 00 4a 6b 02 44 6b 1e  .G..@k.Gk.Jk.Dk.
00007f50: 40 00 01 44 00 02 4a 00 00 47 00 05 40 6b 00 44  @..D..J..G..@k.D
00007f60: 6b 00 47 6b 00 4a 6b 4b 40 00 01 44 00 01 47 00  k.Gk.JkK@..D..G.
00007f70: 06 4a 00 75 40 6b 00 43 6b 00 45 6b 00 49 6b 14  .J.u@k.Ck.Ek.Ik.
00007f80: 43 00 01 40 00 01 45 00 01 49 00 11 49 6b 01 40  C..@..E..I..Ik.@
00007f90: 6b 00 43 6b 00 45 6b 34 45 00 02 49 00 00 40 00  k.Ck.Ek4E..I..@.
00007fa0: 01 43 00 18 40 6b 00 43 6b 00 45 6b 00 49 6b 12  .C..@k.Ck.Ek.Ik.
00007fb0: 43 00 00 40 00 02 45 00 02 49 00 12 40 6b 00 43  C..@..E..I..@k.C
00007fc0: 6b 01 45 6b 01 49 6b 46 43 00 01 45 00 09 49 00  k.Ek.IkFC..E..I.
00007fd0: 03 40 00 23 43 6b 01 40 6b 00 45 6b 01 49 6b 32  .@.#Ck.@k.Ek.Ik2
00007fe0: 49 00 00 45 00 00 40 00 03 43 00 43 3e 6b 00 40  I..E..@..C.C>k.@
00007ff0: 6b 00 44 6b 00 47 6b 5b 47 00 02 3e 00 01 44 00  k.Dk.Gk[G..>..D.
00008000: 05 40 00 13 3e 6b 00 47 6b 02 40 6b 00 44 6b 1c  .@..>k.Gk.@k.Dk.
00008010: 3e 00 05 47 00 01 40 00 05 44 00 27 44 6b 00 47  >..G..@..D.'Dk.G
00008020: 6b 01 3e 6b 01 40 6b 5d 40 00 01 47 00 01 44 00  k.>k.@k]@..G..D.
00008030: 01 3e 00 14 40 6b 02 3e 6b 00 44 6b 00 47 6b 12  .>..@k.>k.Dk.Gk.
00008040: 44 00 00 3e 00 02 40 00 02 47 00 12 40 6b 00 47  D..>..@..G..@k.G
00008050: 6b 01 3e 6b 00 44 6b 66 40 00 03 3e 00 02 47 00  k.>k.Dkf@..>..G.
00008060: 03 44 00 59 3e 6b 00 40 6b 00 44 6b 00 47 6b 14  .D.Y>k.@k.Dk.Gk.
00008070: 47 00 02 44 00 00 3e 00 08 40 00 07 3e 6b 00 40  G..D..>..@..>k.@
00008080: 6b 01 44 6b 00 47 6b 37 47 00 02 3e 00 00 40 00  k.Dk.Gk7G..>..@.
00008090: 00 44 00 12 44 6b 03 3e 6b 01 47 6b 01 40 6b 11  .D..Dk.>k.Gk.@k.
000080a0: 40 00 01 47 00 02 3e 00 02 44 00 14 3e 6b 00 47  @..G..>..D..>k.G
000080b0: 6b 01 40 6b 01 44 6b 4b 40 00 00 47 00 05 44 00  k.@k.DkK@..G..D.
000080c0: 01 3e 00 25 3e 6b 00 44 6b 00 47 6b 02 40 6b 4b  .>.%>k.Dk.Gk.@kK
000080d0: 40 00 05 44 00 01 3e 00 02 47 00 73 43 6b 00 4c  @..D..>..G.sCk.L
000080e0: 6b 02 45 6b 00 49 6b 81 00 49 00 01 4c 00 02 45  k.Ek.Ik..I..L..E
000080f0: 00 03 43 00 18 4c 6b 02 43 6b 00 45 6b 03 49 6b  ..C..Lk.Ck.Ek.Ik
00008100: 81 54 45 00 01 49 00 00 4c 00 03 43 00 13 45 6b  .TE..I..L..C..Ek
00008110: 00 43 6b 02 49 6b 00 4c 6b 81 2a 45 00 01 4c 00  .Ck.Ik.Lk.*E..L.
00008120: 04 49 00 03 43 00 14 43 6b 00 45 6b 00 4c 6b 02  .I..C..Ck.Ek.Lk.
00008130: 49 6b 82 09 45 00 03 43 00 00 4c 00 00 49 00 50  Ik..E..C..L..I.P
00008140: 44 6b 00 47 6b 00 3e 6b 00 40 6b 16 47 00 04 44  Dk.Gk.>k.@k.G..D
00008150: 00 02 3e 00 02 40 00 0c 44 6b 03 3e 6b 00 40 6b  ..>..@..Dk.>k.@k
00008160: 00 47 6b 38 3e 00 01 47 00 01 44 00 03 40 00 0e  .Gk8>..G..D..@..
00008170: 3e 6b 00 40 6b 00 47 6b 01 44 6b 10 47 00 00 3e  >k.@k.Gk.Dk.G..>
00008180: 00 03 40 00 00 44 00 1e 44 6b 00 53 6b 05 4c 6b  ..@..D..Dk.Sk.Lk
00008190: 02 4a 6b 81 46 53 00 01 4a 00 04 4c 00 00 44 00  .Jk.FS..J..L..D.
000081a0: 20 47 6b 00 3e 6b 00 44 6b 01 40 6b 71 44 00 00   Gk.>k.Dk.@kqD..
000081b0: 47 00 05 40 00 01 3e 00 08 44 6b 00 47 6b 01 3e  G..@..>..Dk.Gk.>
000081c0: 6b 00 40 6b 18 3e 00 01 47 00 02 44 00 00 40 00  k.@k.>..G..D..@.
000081d0: 2a 4a 6b 00 4c 6b 00 44 6b 00 53 6b 6b 44 00 01  *Jk.Lk.Dk.SkkD..
000081e0: 53 00 00 4c 00 04 4a 00 08 47 6b 00 44 6b 02 3e  S..L..J..Gk.Dk.>
000081f0: 6b 00 40 6b 15 47 00 02 44 00 01 3e 00 00 40 00  k.@k.G..D..>..@.
00008200: 0e 3e 6b 00 40 6b 00 44 6b 00 47 6b 81 1e 40 00  .>k.@k.Dk.Gk..@.
00008210: 02 44 00 01 3e 00 00 47 00 27 42 6b 00 45 6b 00  .D..>..G.'Bk.Ek.
00008220: 47 6b 00 4b 6b 28 4b 00 00 42 00 00 45 00 00 47  Gk.Kk(K..B..E..G
00008230: 00 28 42 6b 00 45 6b 00 47 6b 00 4b 6b 2a 47 00  .(Bk.Ek.Gk.Kk*G.
00008240: 03 42 00 00 45 00 03 4b 00 20 42 6b 00 45 6b 00  .B..E..K. Bk.Ek.
00008250: 47 6b 00 4b 6b 25 47 00 03 45 00 05 4b 00 02 42  Gk.Kk%G..E..K..B
00008260: 00 21 42 6b 00 45 6b 00 47 6b 00 4b 6b 28 4b 00  .!Bk.Ek.Gk.Kk(K.
00008270: 02 45 00 03 47 00 00 42 00 23 42 6b 00 45 6b 00  .E..G..B.#Bk.Ek.
00008280: 47 6b 00 4b 6b 46 4b 00 00 42 00 02 47 00 00 45  Gk.KkFK..B..G..E
00008290: 00 58 40 6b 00 43 6b 00 45 6b 00 49 6b 32 45 00  .X@k.Ck.Ek.Ik2E.
000082a0: 01 43 00 01 40 00 00 49 00 1c 40 6b 00 43 6b 00  .C..@..I..@k.Ck.
000082b0: 45 6b 00 49 6b 20 49 00 03 45 00 00 43 00 02 40  Ek.Ik I..E..C..@
000082c0: 00 2b 4c 6b 00 43 6b 00 45 6b 00 49 6b 41 49 00  .+Lk.Ck.Ek.IkAI.
000082d0: 00 45 00 00 43 00 02 4c 00 0d 40 6b 00 43 6b 00  .E..C..L..@k.Ck.
000082e0: 45 6b 00 49 6b 81 13 45 00 03 40 00 00 43 00 00  Ek.Ik..E..@..C..
000082f0: 49 00 5a 40 6b 00 3e 6b 00 44 6b 00 47 6b 1b 40  I.Z@k.>k.Dk.Gk.@
00008300: 00 03 44 00 02 3e 00 00 47 00 08 40 6b 00 47 6b  ..D..>..G..@k.Gk
00008310: 00 3e 6b 00 44 6b 2a 44 00 03 3e 00 02 47 00 00  .>k.Dk*D..>..G..
00008320: 40 00 21 3e 6b 00 40 6b 00 44 6b 00 47 6b 14 40  @.!>k.@k.Dk.Gk.@
00008330: 00 02 3e 00 00 44 00 00 47 00 12 4a 6b 00 47 6b  ..>..D..G..Jk.Gk
00008340: 00 44 6b 01 40 6b 81 27 40 00 07 44 00 00 4a 00  .Dk.@k.'@..D..J.
00008350: 01 47 00 40 42 6b 00 47 6b 00 4b 6b 02 45 6b 38  .G.@Bk.Gk.Kk.Ek8
00008360: 47 00 02 4b 00 01 45 00 02 42 00 11 47 6b 00 42  G..K..E..B..Gk.B
00008370: 6b 00 4b 6b 00 45 6b 25 45 00 00 47 00 03 4b 00  k.Kk.Ek%E..G..K.
00008380: 01 42 00 27 42 6b 00 45 6b 00 47 6b 00 4b 6b 23  .B.'Bk.Ek.Gk.Kk#
00008390: 47 00 00 45 00 02 4b 00 05 42 00 26 4e 6b 00 45  G..E..K..B.&Nk.E
000083a0: 6b 00 47 6b 00 4b 6b 46 4e 00 0a 42 6b 6b 47 00  k.Gk.KkFN..BkkG.
000083b0: 03 4b 00 00 45 00 00 42 00 32 3e 6b 00 44 6b 00  .K..E..B.2>k.Dk.
000083c0: 47 6b 02 40 6b 55 47 00 00 44 00 03 40 00 01 3e  Gk.@kUG..D..@..>
000083d0: 00 05 3e 6b 01 40 6b 00 44 6b 00 47 6b 15 3e 00  ..>k.@k.Dk.Gk.>.
000083e0: 02 40 00 00 44 00 01 47 00 04 44 6b 00 47 6b 01  .@..D..G..Dk.Gk.
000083f0: 3e 6b 00 40 6b 29 44 00 01 47 00 00 40 00 03 3e  >k.@k)D..G..@..>
00008400: 00 1d 3e 6b 00 40 6b 00 44 6b 00 47 6b 61 47 00  ..>k.@k.Dk.GkaG.
00008410: 01 44 00 02 3e 00 02 40 00 12 40 6b 00 44 6b 00  .D..>..@..@k.Dk.
00008420: 3e 6b 00 47 6b 14 3e 00 02 47 00 00 40 00 03 44  >k.Gk.>..G..@..D
00008430: 00 0f 3e 6b 00 40 6b 00 44 6b 00 47 6b 4b 40 00  ..>k.@k.Dk.GkK@.
00008440: 05 47 00 05 44 00 01 3e 00 65 49 6b 03 40 6b 00  .G..D..>.eIk.@k.
00008450: 43 6b 00 45 6b 15 45 00 05 43 00 00 49 00 01 40  Ck.Ek.E..C..I..@
00008460: 00 17 43 6b 00 40 6b 00 49 6b 00 45 6b 2e 45 00  ..Ck.@k.Ik.Ek.E.
00008470: 04 43 00 05 49 00 00 40 00 0f 45 6b 00 43 6b 00  .C..I..@..Ek.Ck.
00008480: 49 6b 02 40 6b 0d 43 00 03 45 00 04 40 00 03 49  Ik.@k.C..E..@..I
00008490: 00 16 49 6b 00 40 6b 05 43 6b 00 45 6b 55 45 00  ..Ik.@k.Ck.EkUE.
000084a0: 00 43 00 04 49 00 01 40 00 1c 45 6b 00 43 6b 00  .C..I..@..Ek.Ck.
000084b0: 49 6b 00 40 6b 48 40 00 05 45 00 03 43 00 08 49  Ik.@kH@..E..C..I
000084c0: 00 20 4a 6b 00 47 6b 01 44 6b 0b 4a 00 03 4c 6b  . Jk.Gk.Dk.J..Lk
000084d0: 0c 4c 00 03 4a 6b 0c 4a 00 03 4c 6b 0c 4c 00 08  .L..Jk.J..Lk.L..
000084e0: 4a 6b 11 4c 6b 58 4c 00 0a 4e 6b 07 4e 00 03 4f  Jk.LkXL..Nk.N..O
000084f0: 6b 07 4f 00 03 50 6b 07 50 00 03 51 6b 07 51 00  k.O..Pk.P..Qk.Q.
00008500: 03 53 6b 07 53 00 0d 5f 6b 25 4a 00 00 47 00 03  .Sk.S.._k%J..G..
00008510: 44 00 00 5f 00 28 44 6b 00 47 6b 02 3e 6b 00 40  D.._.(Dk.Gk.>k.@
00008520: 6b 14 40 00 00 44 00 03 3e 00 00 47 00 0f 3e 6b  k.@..D..>..G..>k
00008530: 00 40 6b 00 44 6b 00 47 6b 43 3e 00 03 40 00 00  .@k.Dk.GkC>..@..
00008540: 44 00 00 47 00 0a 3e 6b 00 40 6b 00 44 6b 00 47  D..G..>k.@k.Dk.G
00008550: 6b 1b 44 00 00 3e 00 00 40 00 03 47 00 0a 3e 6b  k.D..>..@..G..>k
00008560: 00 40 6b 02 44 6b 00 47 6b 67 44 00 00 3e 00 02  .@k.Dk.GkgD..>..
00008570: 40 00 03 47 00 0a 3e 6b 00 44 6b 00 47 6b 00 4c  @..G..>k.Dk.Gk.L
00008580: 6b 46 4c 00 00 3e 00 00 44 00 00 47 00 0a 3e 6b  kFL..>..D..G..>k
00008590: 00 47 6b 02 40 6b 00 44 6b 81 3d 40 00 04 44 00  .Gk.@k.Dk.=@..D.
000085a0: 01 47 00 01 3e 00 53 3d 6b 00 43 6b 01 40 6b 01  .G..>.S=k.Ck.@k.
000085b0: 45 6b 4f 40 00 0b 45 00 01 43 00 00 3d 00 1b 3d  EkO@..E..C..=..=
000085c0: 6b 00 43 6b 00 45 6b 01 40 6b 40 3d 00 02 40 00  k.Ck.Ek.@k@=..@.
000085d0: 03 45 00 00 43 00 0a 3d 6b 00 40 6b 00 45 6b 02  .E..C..=k.@k.Ek.
000085e0: 43 6b 55 43 00 01 45 00 00 40 00 02 3d 00 1e 3d  CkUC..E..@..=..=
000085f0: 6b 00 43 6b 00 45 6b 02 40 6b 12 43 00 02 3d 00  k.Ck.Ek.@k.C..=.
00008600: 00 45 00 00 40 00 12 3d 6b 00 40 6b 00 43 6b 00  .E..@..=k.@k.Ck.
00008610: 45 6b 5f 3d 00 0d 40 00 02 45 00 02 43 00 58 40  Ek_=..@..E..C.X@
00008620: 6b 00 43 6b 00 49 6b 00 45 6b 20 40 00 01 45 00  k.Ck.Ik.Ek @..E.
00008630: 00 49 00 02 43 00 05 49 6b 02 40 6b 00 43 6b 00  .I..C..Ik.@k.Ck.
00008640: 45 6b 3a 43 00 00 40 00 02 49 00 00 45 00 12 40  Ek:C..@..I..E..@
00008650: 6b 00 43 6b 00 45 6b 00 49 6b 14 40 00 02 43 00  k.Ck.Ek.Ik.@..C.
00008660: 03 45 00 01 49 00 0e 40 6b 00 45 6b 00 49 6b 02  .E..I..@k.Ek.Ik.
00008670: 43 6b 53 43 00 00 40 00 01 45 00 07 49 00 1b 40  CkSC..@..E..I..@
00008680: 6b 00 45 6b 01 49 6b 01 43 6b 60 45 00 02 40 00  k.Ek.Ik.Ck`E..@.
00008690: 00 43 00 06 49 00 0e 44 6b 02 40 6b 00 47 6b 00  .C..I..Dk.@k.Gk.
000086a0: 4a 6b 83 32 4a 00 05 40 00 04 47 00 01 44 00 22  Jk.2J..@..G..D."
000086b0: 3e 6b 02 44 6b 00 47 6b 03 40 6b 83 24 40 00 02  >k.Dk.Gk.@k.$@..
000086c0: 3e 00 05 44 00 01 47 00 2f 42 6b 00 45 6b 02 3f  >..D..G./Bk.Ek.?
000086d0: 6b 00 47 6b 73 3f 00 00 42 00 00 45 00 03 47 00  k.Gks?..B..E..G.
000086e0: 28 3f 6b 00 42 6b 00 45 6b 00 47 6b 41 47 00 00  (?k.Bk.Ek.GkAG..
000086f0: 3f 00 00 42 00 00 45 00 0f 3f 6b 00 47 6b 02 42  ?..B..E..?k.Gk.B
00008700: 6b 00 45 6b 30 42 00 02 3f 00 00 47 00 00 45 00  k.Ek0B..?..G..E.
00008710: 1c 3f 6b 00 42 6b 00 45 6b 00 47 6b 23 47 00 00  .?k.Bk.Ek.Gk#G..
00008720: 45 00 00 3f 00 02 42 00 29 3f 6b 00 42 6b 02 47  E..?..B.)?k.Bk.G
00008730: 6b 00 45 6b 43 42 00 03 47 00 02 3f 00 00 45 00  k.EkCB..G..?..E.
00008740: 08 43 6b 00 45 6b 00 49 6b 02 40 6b 37 45 00 03  .Ck.Ek.Ik.@k7E..
00008750: 40 00 00 49 00 05 43 00 0f 40 6b 00 43 6b 00 45  @..I..C..@k.Ck.E
00008760: 6b 00 49 6b 2f 45 00 00 40 00 04 43 00 02 49 00  k.Ik/E..@..C..I.
00008770: 1b 40 6b 00 45 6b 00 49 6b 01 43 6b 29 45 00 03  .@k.Ek.Ik.Ck)E..
00008780: 40 00 00 43 00 03 49 00 20 40 6b 00 43 6b 00 49  @..C..I. @k.Ck.I
00008790: 6b 02 45 6b 27 45 00 04 40 00 01 43 00 01 49 00  k.Ek'E..@..C..I.
000087a0: 1e 40 6b 03 43 6b 00 45 6b 00 49 6b 3e 45 00 04  .@k.Ck.Ek.Ik>E..
000087b0: 49 00 00 43 00 01 40 00 0d 40 6b 00 43 6b 00 45  I..C..@..@k.Ck.E
000087c0: 6b 00 49 6b 38 45 00 01 43 00 01 40 00 03 49 00  k.Ik8E..C..@..I.
000087d0: 81 0b 47 6b 00 4a 6b 00 4c 6b 02 44 6b 42 4c 00  ..Gk.Jk.Lk.DkBL.
000087e0: 00 47 00 02 44 00 01 4a 00 13 44 6b 00 47 6b 00  .G..D..J..Dk.Gk.
000087f0: 4a 6b 00 4c 6b 0f 47 00 02 44 00 00 4c 00 01 4a  Jk.Lk.G..D..L..J
00008800: 00 0c 4a 6b 00 4c 6b 02 44 6b 00 47 6b 81 52 4a  ..Jk.Lk.Dk.Gk.RJ
00008810: 00 03 47 00 00 44 00 02 4c 00 17 4a 6b 00 4c 6b  ..G..D..L..Jk.Lk
00008820: 02 4e 6b 00 53 6b 81 52 4e 00 00 4a 00 00 4c 00  .Nk.Sk.RN..J..L.
00008830: 03 53 00 16 4b 6b 03 47 6b 02 42 6b 1c 45 6b 81  .S..Kk.Gk.Bk.Ek.
00008840: 48 45 00 00 4b 00 00 47 00 00 42 00 0a 3e 6b 00  HE..K..G..B..>k.
00008850: 40 6b 00 44 6b 02 3b 6b 35 40 00 05 3e 00 05 44  @k.Dk.;k5@..>..D
00008860: 00 05 3b 00 0a 44 6b 02 3b 6b 00 3e 6b 00 40 6b  ..;..Dk.;k.>k.@k
00008870: 19 40 00 03 3e 00 00 44 00 05 3b 00 05 3b 6b 00  .@..>..D..;..;k.
00008880: 3e 6b 00 40 6b 00 44 6b 16 40 00 03 3e 00 07 44  >k.@k.Dk.@..>..D
00008890: 00 03 3b 00 2b 3b 6b 00 40 6b 00 3e 6b 00 44 6b  ..;.+;k.@k.>k.Dk
000088a0: 5f 40 00 04 44 00 00 3e 00 01 3b 00 16 3e 6b 00  _@..D..>..;..>k.
000088b0: 3b 6b 00 40 6b 00 44 6b 0f 3e 00 02 40 00 05 44  ;k.@k.Dk.>..@..D
000088c0: 00 03 3b 00 0f 3b 6b 00 3e 6b 00 40 6b 00 44 6b  ..;..;k.>k.@k.Dk
000088d0: 62 40 00 02 44 00 00 3b 00 01 3e 00 60 3d 6b 03  b@..D..;..>.`=k.
000088e0: 39 6b 00 40 6b 00 43 6b 16 40 00 00 39 00 03 3d  9k.@k.Ck.@..9..=
000088f0: 00 00 43 00 0f 39 6b 00 3d 6b 00 40 6b 00 43 6b  ..C..9k.=k.@k.Ck
00008900: 37 40 00 05 3d 00 02 43 00 03 39 00 0d 3d 6b 00  7@..=..C..9..=k.
00008910: 39 6b 02 40 6b 00 43 6b 15 39 00 00 3d 00 01 40  9k.@k.Ck.9..=..@
00008920: 00 00 43 00 12 39 6b 00 3d 6b 00 43 6b 01 40 6b  ..C..9k.=k.Ck.@k
00008930: 34 40 00 04 43 00 00 3d 00 03 39 00 10 39 6b 01  4@..C..=..9..9k.
00008940: 3d 6b 00 40 6b 00 43 6b 13 3d 00 01 40 00 01 39  =k.@k.Ck.=..@..9
00008950: 00 00 43 00 17 39 6b 00 43 6b 01 3d 6b 01 40 6b  ..C..9k.Ck.=k.@k
00008960: 49 3d 00 01 40 00 03 43 00 00 39 00 75 3b 6b 00  I=..@..C..9.u;k.
00008970: 3e 6b 03 40 6b 00 44 6b 1b 3b 00 03 3e 00 00 40  >k.@k.Dk.;..>..@
00008980: 00 02 44 00 08 3e 6b 00 44 6b 02 3b 6b 00 40 6b  ..D..>k.Dk.;k.@k
00008990: 37 40 00 03 3e 00 02 3b 00 05 44 00 0d 44 6b 00  7@..>..;..D..Dk.
000089a0: 3b 6b 00 3e 6b 00 40 6b 1a 40 00 00 3e 00 02 3b  ;k.>k.@k.@..>..;
000089b0: 00 00 44 00 0c 3b 6b 00 3e 6b 00 40 6b 00 44 6b  ..D..;k.>k.@k.Dk
000089c0: 48 40 00 05 3e 00 09 3b 00 02 44 00 20 40 6b 00  H@..>..;..D. @k.
000089d0: 44 6b 02 3e 6b 00 3b 6b 3d 40 00 04 3e 00 01 44  Dk.>k.;k=@..>..D
000089e0: 00 00 3b 00 81 01 3b 6b 00 3e 6b 03 40 6b 00 44  ..;...;k.>k.@k.D
000089f0: 6b 1b 3b 00 03 3e 00 00 40 00 02 44 00 08 3e 6b  k.;..>..@..D..>k
00008a00: 00 44 6b 02 3b 6b 00 40 6b 37 40 00 03 3e 00 02  .Dk.;k.@k7@..>..
00008a10: 3b 00 05 44 00 0d 44 6b 00 3b 6b 00 3e 6b 00 40  ;..D..Dk.;k.>k.@
00008a20: 6b 1a 40 00 00 3e 00 02 3b 00 00 44 00 0c 3b 6b  k.@..>..;..D..;k
00008a30: 00 3e 6b 00 40 6b 00 44 6b 48 40 00 05 3e 00 09  .>k.@k.DkH@..>..
00008a40: 3b 00 02 44 00 20 40 6b 00 44 6b 02 3e 6b 00 3b  ;..D. @k.Dk.>k.;
00008a50: 6b 3d 40 00 04 3e 00 01 44 00 00 3b 00 81 04 39  k=@..>..D..;...9
00008a60: 6b 00 3d 6b 00 40 6b 00 43 6b 19 43 00 00 3d 00  k.=k.@k.Ck.C..=.
00008a70: 02 40 00 08 39 00 05 39 6b 00 40 6b 00 43 6b 02  .@..9..9k.@k.Ck.
00008a80: 3d 6b 3a 40 00 02 3d 00 00 43 00 03 39 00 0c 39  =k:@..=..C..9..9
00008a90: 6b 01 3d 6b 02 40 6b 00 43 6b 11 39 00 03 3d 00  k.=k.@k.Ck.9..=.
00008aa0: 02 40 00 00 43 00 12 39 6b 00 40 6b 02 43 6b 03  .@..C..9k.@k.Ck.
00008ab0: 3d 6b 50 39 00 02 3d 00 01 40 00 05 43 00 1b 39  =kP9..=..@..C..9
00008ac0: 6b 00 43 6b 02 3d 6b 00 40 6b 5e 40 00 00 3d 00  k.Ck.=k.@k^@..=.
00008ad0: 05 39 00 01 43 00 62 39 6b 00 40 6b 02 3d 6b 01  .9..C.b9k.@k.=k.
00008ae0: 43 6b 1b 3d 00 01 40 00 01 39 00 01 43 00 07 3d  Ck.=..@..9..C..=
00008af0: 6b 02 43 6b 03 40 6b 01 39 6b 2e 3d 00 03 43 00  k.Ck.@k.9k.=..C.
00008b00: 00 40 00 06 39 00 14 39 6b 01 3d 6b 01 43 6b 02  .@..9..9k.=k.Ck.
00008b10: 40 6b 12 40 00 00 3d 00 03 43 00 01 39 00 0d 40  @k.@..=..C..9..@
00008b20: 6b 02 3d 6b 00 43 6b 03 39 6b 52 3d 00 03 40 00  k.=k.Ck.9kR=..@.
00008b30: 01 39 00 01 43 00 1c 3d 6b 00 40 6b 00 43 6b 02  .9..C..=k.@k.Ck.
00008b40: 39 6b 64 39 00 03 3d 00 00 40 00 01 43 00 5b 3b  9kd9..=..@..C.[;
00008b50: 6b 00 3e 6b 03 40 6b 00 44 6b 1b 3b 00 03 3e 00  k.>k.@k.Dk.;..>.
00008b60: 00 40 00 02 44 00 08 3e 6b 00 44 6b 02 3b 6b 00  .@..D..>k.Dk.;k.
00008b70: 40 6b 37 40 00 03 3e 00 02 3b 00 05 44 00 0d 44  @k7@..>..;..D..D
00008b80: 6b 00 3b 6b 00 3e 6b 00 40 6b 1a 40 00 00 3e 00  k.;k.>k.@k.@..>.
00008b90: 02 3b 00 00 44 00 0c 3b 6b 00 3e 6b 00 40 6b 00  .;..D..;k.>k.@k.
00008ba0: 44 6b 48 40 00 05 3e 00 09 3b 00 02 44 00 20 40  DkH@..>..;..D. @
00008bb0: 6b 00 44 6b 02 3e 6b 00 3b 6b 3d 40 00 04 3e 00  k.Dk.>k.;k=@..>.
00008bc0: 01 44 00 00 3b 00 81 01 3b 6b 00 3e 6b 03 40 6b  .D..;...;k.>k.@k
00008bd0: 00 44 6b 1b 3b 00 03 3e 00 00 40 00 02 44 00 08  .Dk.;..>..@..D..
00008be0: 3e 6b 00 44 6b 02 3b 6b 00 40 6b 37 40 00 03 3e  >k.Dk.;k.@k7@..>
00008bf0: 00 02 3b 00 05 44 00 0d 44 6b 00 3b 6b 00 3e 6b  ..;..D..Dk.;k.>k
00008c00: 00 40 6b 1a 40 00 00 3e 00 02 3b 00 00 44 00 0c  .@k.@..>..;..D..
00008c10: 3b 6b 00 3e 6b 00 40 6b 00 44 6b 48 40 00 05 3e  ;k.>k.@k.DkH@..>
00008c20: 00 09 3b 00 02 44 00 20 40 6b 00 44 6b 02 3e 6b  ..;..D. @k.Dk.>k
00008c30: 00 3b 6b 3d 40 00 04 3e 00 01 44 00 00 3b 00 81  .;k=@..>..D..;..
00008c40: 04 45 6b 00 3f 6b 00 42 6b 01 3b 6b 1d 3f 00 00  .Ek.?k.Bk.;k.?..
00008c50: 45 00 01 42 00 02 3b 00 07 45 6b 02 3b 6b 00 3f  E..B..;..Ek.;k.?
00008c60: 6b 00 42 6b 37 45 00 04 3f 00 04 3b 00 00 42 00  k.Bk7E..?..;..B.
00008c70: 0f 3b 6b 00 3f 6b 00 42 6b 00 45 6b 16 45 00 03  .;k.?k.Bk.Ek.E..
00008c80: 3f 00 01 42 00 01 3b 00 0d 45 6b 01 42 6b 01 3f  ?..B..;..Ek.Bk.?
00008c90: 6b 00 3b 6b 47 3f 00 04 3b 00 01 45 00 03 42 00  k.;kG?..;..E..B.
00008ca0: 27 45 6b 02 3b 6b 00 42 6b 00 3f 6b 3c 3f 00 00  'Ek.;k.Bk.?k<?..
00008cb0: 45 00 03 42 00 00 3b 00 81 04 39 6b 03 3d 6b 00  E..B..;...9k.=k.
00008cc0: 40 6b 00 43 6b 1b 40 00 01 3d 00 02 39 00 00 43  @k.Ck.@..=..9..C
00008cd0: 00 0a 39 6b 00 3d 6b 01 40 6b 00 43 6b 41 40 00  ..9k.=k.@k.CkA@.
00008ce0: 02 39 00 00 3d 00 02 43 00 07 3d 6b 03 40 6b 02  .9..=..C..=k.@k.
00008cf0: 39 6b 00 43 6b 1a 40 00 02 3d 00 00 39 00 02 43  9k.Ck.@..=..9..C
00008d00: 00 08 43 6b 00 3d 6b 02 39 6b 03 40 6b 51 40 00  ..Ck.=k.9k.@kQ@.
00008d10: 01 39 00 00 3d 00 01 43 00 20 39 6b 00 3d 6b 00  .9..=..C. 9k.=k.
00008d20: 40 6b 00 43 6b 4b 40 00 00 3d 00 02 43 00 03 39  @k.CkK@..=..C..9
00008d30: 00 75 3b 6b 00 3e 6b 03 40 6b 00 44 6b 1b 3b 00  .u;k.>k.@k.Dk.;.
00008d40: 03 3e 00 00 40 00 02 44 00 08 3e 6b 00 44 6b 02  .>..@..D..>k.Dk.
00008d50: 3b 6b 00 40 6b 37 40 00 03 3e 00 00 44 00 02 3b  ;k.@k7@..>..D..;
00008d60: 00 12 44 6b 00 3b 6b 00 3e 6b 00 40 6b 1a 40 00  ..Dk.;k.>k.@k.@.
00008d70: 00 3e 00 02 3b 00 00 44 00 0c 3b 6b 00 3e 6b 00  .>..;..D..;k.>k.
00008d80: 40 6b 00 44 6b 48 40 00 05 3e 00 09 3b 00 02 44  @k.DkH@..>..;..D
00008d90: 00 20 40 6b 00 44 6b 02 3e 6b 00 3b 6b 3d 40 00  . @k.Dk.>k.;k=@.
00008da0: 04 3e 00 01 44 00 00 3b 00 81 01 3b 6b 00 3e 6b  .>..D..;...;k.>k
00008db0: 03 40 6b 00 44 6b 1b 3b 00 03 3e 00 00 40 00 02  .@k.Dk.;..>..@..
00008dc0: 44 00 08 3e 6b 00 44 6b 02 3b 6b 00 40 6b 37 40  D..>k.Dk.;k.@k7@
00008dd0: 00 03 3e 00 02 3b 00 05 44 00 0d 44 6b 00 3b 6b  ..>..;..D..Dk.;k
00008de0: 00 3e 6b 00 40 6b 1a 40 00 00 3e 00 02 3b 00 00  .>k.@k.@..>..;..
00008df0: 44 00 0c 42 6b 02 3b 6b 00 39 6b 00 3f 6b 81 4d  D..Bk.;k.9k.?k.M
00008e00: 42 00 03 3f 00 02 3b 00 03 39 00 73 40 6b 00 44  B..?..;..9.s@k.D
00008e10: 6b 00 47 6b 00 4a 6b 16 4a 00 00 40 00 03 47 00  k.Gk.Jk.J..@..G.
00008e20: 00 44 00 0f 40 6b 00 44 6b 00 47 6b 01 4a 6b 36  .D..@k.Dk.Gk.Jk6
00008e30: 40 00 01 44 00 02 47 00 03 4a 00 09 40 6b 00 44  @..D..G..J..@k.D
00008e40: 6b 00 47 6b 00 4a 6b 16 40 00 04 44 00 01 47 00  k.Gk.Jk.@..D..G.
00008e50: 01 4a 00 0c 4a 6b 00 40 6b 00 47 6b 02 44 6b 3d  .J..Jk.@k.Gk.Dk=
00008e60: 40 00 04 44 00 05 4a 00 01 47 00 07 40 6b 00 47  @..D..J..G..@k.G
00008e70: 6b 00 4a 6b 02 44 6b 1e 40 00 01 44 00 02 4a 00  k.Jk.Dk.@..D..J.
00008e80: 00 47 00 05 40 6b 00 44 6b 00 47 6b 00 4a 6b 4b  .G..@k.Dk.Gk.JkK
00008e90: 40 00 01 44 00 01 47 00 06 4a 00 75 40 6b 00 43  @..D..G..J.u@k.C
00008ea0: 6b 00 45 6b 00 49 6b 14 43 00 01 40 00 01 45 00  k.Ek.Ik.C..@..E.
00008eb0: 01 49 00 11 49 6b 01 40 6b 00 43 6b 00 45 6b 34  .I..Ik.@k.Ck.Ek4
00008ec0: 45 00 02 49 00 00 40 00 01 43 00 18 40 6b 00 43  E..I..@..C..@k.C
00008ed0: 6b 00 45 6b 00 49 6b 12 43 00 00 40 00 02 45 00  k.Ek.Ik.C..@..E.
00008ee0: 02 49 00 12 40 6b 00 43 6b 01 45 6b 01 49 6b 46  .I..@k.Ck.Ek.IkF
00008ef0: 43 00 01 45 00 09 49 00 03 40 00 23 43 6b 01 40  C..E..I..@.#Ck.@
00008f00: 6b 00 45 6b 01 49 6b 32 49 00 00 45 00 00 40 00  k.Ek.Ik2I..E..@.
00008f10: 03 43 00 43 3e 6b 00 40 6b 00 44 6b 00 47 6b 5b  .C.C>k.@k.Dk.Gk[
00008f20: 47 00 02 3e 00 01 44 00 05 40 00 13 3e 6b 00 47  G..>..D..@..>k.G
00008f30: 6b 02 40 6b 00 44 6b 1c 3e 00 05 47 00 01 40 00  k.@k.Dk.>..G..@.
00008f40: 05 44 00 27 44 6b 00 47 6b 01 3e 6b 01 40 6b 5d  .D.'Dk.Gk.>k.@k]
00008f50: 40 00 01 47 00 01 44 00 01 3e 00 14 40 6b 02 3e  @..G..D..>..@k.>
00008f60: 6b 00 44 6b 00 47 6b 12 44 00 00 3e 00 02 40 00  k.Dk.Gk.D..>..@.
00008f70: 02 47 00 12 40 6b 00 47 6b 01 3e 6b 00 44 6b 66  .G..@k.Gk.>k.Dkf
00008f80: 40 00 03 3e 00 02 47 00 03 44 00 59 3e 6b 00 40  @..>..G..D.Y>k.@
00008f90: 6b 00 44 6b 00 47 6b 14 47 00 02 44 00 00 3e 00  k.Dk.Gk.G..D..>.
00008fa0: 08 40 00 07 3e 6b 00 40 6b 01 44 6b 00 47 6b 37  .@..>k.@k.Dk.Gk7
00008fb0: 47 00 02 3e 00 00 40 00 00 44 00 12 44 6b 03 3e  G..>..@..D..Dk.>
00008fc0: 6b 01 47 6b 01 40 6b 11 40 00 01 47 00 02 3e 00  k.Gk.@k.@..G..>.
00008fd0: 02 44 00 14 3e 6b 00 47 6b 01 40 6b 01 44 6b 4b  .D..>k.Gk.@k.DkK
00008fe0: 40 00 00 47 00 05 44 00 01 3e 00 25 3e 6b 00 44  @..G..D..>.%>k.D
00008ff0: 6b 00 47 6b 02 40 6b 4b 40 00 05 44 00 01 3e 00  k.Gk.@kK@..D..>.
00009000: 02 47 00 73 43 6b 00 4c 6b 02 45 6b 00 49 6b 81  .G.sCk.Lk.Ek.Ik.
00009010: 00 49 00 01 4c 00 02 45 00 03 43 00 18 4c 6b 02  .I..L..E..C..Lk.
00009020: 43 6b 00 45 6b 03 49 6b 81 54 45 00 01 49 00 00  Ck.Ek.Ik.TE..I..
00009030: 4c 00 03 43 00 13 45 6b 00 43 6b 02 49 6b 00 4c  L..C..Ek.Ck.Ik.L
00009040: 6b 81 2a 45 00 01 4c 00 04 49 00 03 43 00 14 43  k.*E..L..I..C..C
00009050: 6b 00 45 6b 00 4c 6b 02 49 6b 82 09 45 00 03 43  k.Ek.Lk.Ik..E..C
00009060: 00 00 4c 00 00 49 00 50 44 6b 00 47 6b 00 3e 6b  ..L..I.PDk.Gk.>k
00009070: 00 40 6b 16 47 00 04 44 00 02 3e 00 02 40 00 0c  .@k.G..D..>..@..
00009080: 44 6b 03 3e 6b 00 40 6b 00 47 6b 38 3e 00 01 47  Dk.>k.@k.Gk8>..G
00009090: 00 01 44 00 03 40 00 0e 3e 6b 00 40 6b 00 47 6b  ..D..@..>k.@k.Gk
000090a0: 01 44 6b 10 47 00 00 3e 00 03 40 00 00 44 00 1e  .Dk.G..>..@..D..
000090b0: 44 6b 00 53 6b 05 4c 6b 02 4a 6b 81 46 53 00 01  Dk.Sk.Lk.Jk.FS..
000090c0: 4a 00 04 4c 00 00 44 00 20 47 6b 00 3e 6b 00 44  J..L..D. Gk.>k.D
000090d0: 6b 01 40 6b 71 44 00 00 47 00 05 40 00 01 3e 00  k.@kqD..G..@..>.
000090e0: 08 44 6b 00 47 6b 01 3e 6b 00 40 6b 18 3e 00 01  .Dk.Gk.>k.@k.>..
000090f0: 47 00 02 44 00 00 40 00 2a 4a 6b 00 4c 6b 00 44  G..D..@.*Jk.Lk.D
00009100: 6b 00 53 6b 6b 44 00 01 53 00 00 4c 00 04 4a 00  k.SkkD..S..L..J.
00009110: 08 47 6b 00 44 6b 02 3e 6b 00 40 6b 15 47 00 02  .Gk.Dk.>k.@k.G..
00009120: 44 00 01 3e 00 00 40 00 0e 3e 6b 00 40 6b 00 44  D..>..@..>k.@k.D
00009130: 6b 00 47 6b 81 1e 40 00 02 44 00 01 3e 00 00 47  k.Gk..@..D..>..G
00009140: 00 27 42 6b 00 45 6b 00 47 6b 00 4b 6b 28 4b 00  .'Bk.Ek.Gk.Kk(K.
00009150: 00 42 00 00 45 00 00 47 00 28 42 6b 00 45 6b 00  .B..E..G.(Bk.Ek.
00009160: 47 6b 00 4b 6b 2a 47 00 03 42 00 00 45 00 03 4b  Gk.Kk*G..B..E..K
00009170: 00 20 42 6b 00 45 6b 00 47 6b 00 4b 6b 25 47 00  . Bk.Ek.Gk.Kk%G.
00009180: 03 45 00 05 4b 00 02 42 00 21 42 6b 00 45 6b 00  .E..K..B.!Bk.Ek.
00009190: 47 6b 00 4b 6b 28 4b 00 02 45 00 03 47 00 00 42  Gk.Kk(K..E..G..B
000091a0: 00 23 42 6b 00 45 6b 00 47 6b 00 4b 6b 46 4b 00  .#Bk.Ek.Gk.KkFK.
000091b0: 00 42 00 02 47 00 00 45 00 58 40 6b 00 43 6b 00  .B..G..E.X@k.Ck.
000091c0: 45 6b 00 49 6b 32 45 00 01 43 00 01 40 00 00 49  Ek.Ik2E..C..@..I
000091d0: 00 1c 40 6b 00 43 6b 00 45 6b 00 49 6b 20 49 00  ..@k.Ck.Ek.Ik I.
000091e0: 03 45 00 00 43 00 02 40 00 2b 4c 6b 00 43 6b 00  .E..C..@.+Lk.Ck.
000091f0: 45 6b 00 49 6b 41 49 00 00 45 00 00 43 00 02 4c  Ek.IkAI..E..C..L
00009200: 00 0d 40 6b 00 43 6b 00 45 6b 00 49 6b 81 13 45  ..@k.Ck.Ek.Ik..E
00009210: 00 03 40 00 00 43 00 00 49 00 5a 40 6b 00 3e 6b  ..@..C..I.Z@k.>k
00009220: 00 44 6b 00 47 6b 1b 40 00 03 44 00 02 3e 00 00  .Dk.Gk.@..D..>..
00009230: 47 00 08 40 6b 00 47 6b 00 3e 6b 00 44 6b 2a 44  G..@k.Gk.>k.Dk*D
00009240: 00 03 3e 00 02 47 00 00 40 00 21 3e 6b 00 40 6b  ..>..G..@.!>k.@k
00009250: 00 44 6b 00 47 6b 14 40 00 02 3e 00 00 44 00 00  .Dk.Gk.@..>..D..
00009260: 47 00 12 4a 6b 00 47 6b 00 44 6b 01 40 6b 81 27  G..Jk.Gk.Dk.@k.'
00009270: 40 00 07 44 00 00 4a 00 01 47 00 40 42 6b 00 47  @..D..J..G.@Bk.G
00009280: 6b 00 4b 6b 02 45 6b 38 47 00 02 4b 00 01 45 00  k.Kk.Ek8G..K..E.
00009290: 02 42 00 11 47 6b 00 42 6b 00 4b 6b 00 45 6b 25  .B..Gk.Bk.Kk.Ek%
000092a0: 45 00 00 47 00 03 4b 00 01 42 00 27 42 6b 00 45  E..G..K..B.'Bk.E
000092b0: 6b 00 47 6b 00 4b 6b 23 47 00 00 45 00 02 4b 00  k.Gk.Kk#G..E..K.
000092c0: 05 42 00 26 4e 6b 00 45 6b 00 47 6b 00 4b 6b 46  .B.&Nk.Ek.Gk.KkF
000092d0: 4e 00 0a 42 6b 6b 47 00 03 4b 00 00 45 00 00 42  N..BkkG..K..E..B
000092e0: 00 32 3e 6b 00 40 6b 00 44 6b 02 3b 6b 35 40 00  .2>k.@k.Dk.;k5@.
000092f0: 05 3e 00 05 44 00 05 3b 00 0a 44 6b 02 3b 6b 00  .>..D..;..Dk.;k.
00009300: 3e 6b 00 40 6b 19 40 00 03 3e 00 00 44 00 05 3b  >k.@k.@..>..D..;
00009310: 00 05 3b 6b 00 3e 6b 00 40 6b 00 44 6b 16 40 00  ..;k.>k.@k.Dk.@.
00009320: 03 3e 00 07 44 00 03 3b 00 2b 3b 6b 00 40 6b 00  .>..D..;.+;k.@k.
00009330: 3e 6b 00 44 6b 5f 40 00 04 44 00 00 3e 00 01 3b  >k.Dk_@..D..>..;
00009340: 00 16 3e 6b 00 3b 6b 00 40 6b 00 44 6b 0f 3e 00  ..>k.;k.@k.Dk.>.
00009350: 02 40 00 05 44 00 03 3b 00 0f 3b 6b 00 3e 6b 00  .@..D..;..;k.>k.
00009360: 40 6b 00 44 6b 62 40 00 02 44 00 00 3b 00 01 3e  @k.Dkb@..D..;..>
00009370: 00 60 3d 6b 03 39 6b 00 40 6b 00 43 6b 16 40 00  .`=k.9k.@k.Ck.@.
00009380: 00 39 00 03 3d 00 00 43 00 0f 39 6b 00 3d 6b 00  .9..=..C..9k.=k.
00009390: 40 6b 00 43 6b 37 40 00 05 3d 00 02 43 00 03 39  @k.Ck7@..=..C..9
000093a0: 00 0d 3d 6b 00 39 6b 02 40 6b 00 43 6b 15 39 00  ..=k.9k.@k.Ck.9.
000093b0: 00 3d 00 01 40 00 00 43 00 12 39 6b 00 3d 6b 00  .=..@..C..9k.=k.
000093c0: 43 6b 01 40 6b 34 40 00 04 43 00 00 3d 00 03 39  Ck.@k4@..C..=..9
000093d0: 00 10 39 6b 01 3d 6b 00 40 6b 00 43 6b 13 3d 00  ..9k.=k.@k.Ck.=.
000093e0: 01 40 00 01 39 00 00 43 00 17 39 6b 00 43 6b 01  .@..9..C..9k.Ck.
000093f0: 3d 6b 01 40 6b 49 3d 00 01 40 00 03 43 00 00 39  =k.@kI=..@..C..9
00009400: 00 75 3b 6b 00 3e 6b 03 40 6b 00 44 6b 1b 3b 00  .u;k.>k.@k.Dk.;.
00009410: 03 3e 00 00 40 00 02 44 00 08 3e 6b 00 44 6b 02  .>..@..D..>k.Dk.
00009420: 3b 6b 00 40 6b 37 40 00 03 3e 00 02 3b 00 05 44  ;k.@k7@..>..;..D
00009430: 00 0d 44 6b 00 3b 6b 00 3e 6b 00 40 6b 1a 40 00  ..Dk.;k.>k.@k.@.
00009440: 00 3e 00 02 3b 00 00 44 00 0c 3b 6b 00 3e 6b 00  .>..;..D..;k.>k.
00009450: 40 6b 00 44 6b 48 40 00 05 3e 00 09 3b 00 02 44  @k.DkH@..>..;..D
00009460: 00 20 40 6b 00 44 6b 02 3e 6b 00 3b 6b 3d 40 00  . @k.Dk.>k.;k=@.
00009470: 04 3e 00 01 44 00 00 3b 00 81 01 3b 6b 00 3e 6b  .>..D..;...;k.>k
00009480: 03 40 6b 00 44 6b 1b 3b 00 03 3e 00 00 40 00 02  .@k.Dk.;..>..@..
00009490: 44 00 08 3e 6b 00 44 6b 02 3b 6b 00 40 6b 37 40  D..>k.Dk.;k.@k7@
000094a0: 00 03 3e 00 02 3b 00 05 44 00 0d 44 6b 00 3b 6b  ..>..;..D..Dk.;k
000094b0: 00 3e 6b 00 40 6b 1a 40 00 00 3e 00 02 3b 00 00  .>k.@k.@..>..;..
000094c0: 44 00 0c 3b 6b 00 3e 6b 00 40 6b 00 44 6b 48 40  D..;k.>k.@k.DkH@
000094d0: 00 05 3e 00 09 3b 00 02 44 00 20 40 6b 00 44 6b  ..>..;..D. @k.Dk
000094e0: 02 3e 6b 00 3b 6b 3d 40 00 04 3e 00 01 44 00 00  .>k.;k=@..>..D..
000094f0: 3b 00 81 04 39 6b 00 3d 6b 00 40 6b 00 43 6b 19  ;...9k.=k.@k.Ck.
00009500: 43 00 00 3d 00 02 40 00 08 39 00 05 39 6b 00 40  C..=..@..9..9k.@
00009510: 6b 00 43 6b 02 3d 6b 3a 40 00 02 3d 00 00 43 00  k.Ck.=k:@..=..C.
00009520: 03 39 00 0c 39 6b 01 3d 6b 02 40 6b 00 43 6b 11  .9..9k.=k.@k.Ck.
00009530: 39 00 03 3d 00 02 40 00 00 43 00 12 39 6b 00 40  9..=..@..C..9k.@
00009540: 6b 02 43 6b 03 3d 6b 50 39 00 02 3d 00 01 40 00  k.Ck.=kP9..=..@.
00009550: 05 43 00 1b 39 6b 00 43 6b 02 3d 6b 00 40 6b 5e  .C..9k.Ck.=k.@k^
00009560: 40 00 00 3d 00 05 39 00 01 43 00 62 39 6b 00 40  @..=..9..C.b9k.@
00009570: 6b 02 3d 6b 01 43 6b 1b 3d 00 01 40 00 01 39 00  k.=k.Ck.=..@..9.
00009580: 01 43 00 07 3d 6b 02 43 6b 03 40 6b 01 39 6b 2e  .C..=k.Ck.@k.9k.
00009590: 3d 00 03 43 00 00 40 00 06 39 00 14 39 6b 01 3d  =..C..@..9..9k.=
000095a0: 6b 01 43 6b 02 40 6b 12 40 00 00 3d 00 03 43 00  k.Ck.@k.@..=..C.
000095b0: 01 39 00 0d 40 6b 02 3d 6b 00 43 6b 03 39 6b 52  .9..@k.=k.Ck.9kR
000095c0: 3d 00 03 40 00 01 39 00 01 43 00 1c 3d 6b 00 40  =..@..9..C..=k.@
000095d0: 6b 00 43 6b 02 39 6b 64 39 00 03 3d 00 00 40 00  k.Ck.9kd9..=..@.
000095e0: 01 43 00 5b 3b 6b 00 3e 6b 03 40 6b 00 44 6b 1b  .C.[;k.>k.@k.Dk.
000095f0: 3b 00 03 3e 00 00 40 00 02 44 00 08 3e 6b 00 44  ;..>..@..D..>k.D
00009600: 6b 02 3b 6b 00 40 6b 37 40 00 03 3e 00 02 3b 00  k.;k.@k7@..>..;.
00009610: 05 44 00 0d 44 6b 00 3b 6b 00 3e 6b 00 40 6b 1a  .D..Dk.;k.>k.@k.
00009620: 40 00 00 3e 00 02 3b 00 00 44 00 0c 3b 6b 00 3e  @..>..;..D..;k.>
00009630: 6b 00 40 6b 00 44 6b 48 40 00 05 3e 00 09 3b 00  k.@k.DkH@..>..;.
00009640: 02 44 00 20 40 6b 00 44 6b 02 3e 6b 00 3b 6b 3d  .D. @k.Dk.>k.;k=
00009650: 40 00 04 3e 00 01 44 00 00 3b 00 81 01 3b 6b 00  @..>..D..;...;k.
00009660: 3e 6b 03 40 6b 00 44 6b 1b 3b 00 03 3e 00 00 40  >k.@k.Dk.;..>..@
00009670: 00 02 44 00 08 3e 6b 00 44 6b 02 3b 6b 00 40 6b  ..D..>k.Dk.;k.@k
00009680: 37 40 00 03 3e 00 02 3b 00 05 44 00 0d 44 6b 00  7@..>..;..D..Dk.
00009690: 3b 6b 00 3e 6b 00 40 6b 1a 40 00 00 3e 00 02 3b  ;k.>k.@k.@..>..;
000096a0: 00 00 44 00 0c 3b 6b 00 3e 6b 00 40 6b 00 44 6b  ..D..;k.>k.@k.Dk
000096b0: 48 40 00 05 3e 00 09 3b 00 02 44 00 20 40 6b 00  H@..>..;..D. @k.
000096c0: 44 6b 02 3e 6b 00 3b 6b 3d 40 00 04 3e 00 01 44  Dk.>k.;k=@..>..D
000096d0: 00 00 3b 00 81 04 45 6b 00 3f 6b 00 42 6b 01 3b  ..;...Ek.?k.Bk.;
000096e0: 6b 1d 3f 00 00 45 00 01 42 00 02 3b 00 07 45 6b  k.?..E..B..;..Ek
000096f0: 02 3b 6b 00 3f 6b 00 42 6b 37 45 00 04 3f 00 04  .;k.?k.Bk7E..?..
00009700: 3b 00 00 42 00 0f 3b 6b 00 3f 6b 00 42 6b 00 45  ;..B..;k.?k.Bk.E
00009710: 6b 16 45 00 03 3f 00 01 42 00 01 3b 00 0d 45 6b  k.E..?..B..;..Ek
00009720: 01 42 6b 01 3f 6b 00 3b 6b 47 3f 00 04 3b 00 01  .Bk.?k.;kG?..;..
00009730: 45 00 03 42 00 27 45 6b 02 3b 6b 00 42 6b 00 3f  E..B.'Ek.;k.Bk.?
00009740: 6b 3c 3f 00 00 45 00 03 42 00 00 3b 00 81 04 39  k<?..E..B..;...9
00009750: 6b 03 3d 6b 00 40 6b 00 43 6b 1b 40 00 01 3d 00  k.=k.@k.Ck.@..=.
00009760: 02 39 00 00 43 00 0a 39 6b 00 3d 6b 01 40 6b 00  .9..C..9k.=k.@k.
00009770: 43 6b 41 40 00 02 39 00 00 3d 00 02 43 00 07 3d  CkA@..9..=..C..=
00009780: 6b 03 40 6b 02 39 6b 00 43 6b 1a 40 00 02 3d 00  k.@k.9k.Ck.@..=.
00009790: 00 39 00 02 43 00 08 43 6b 00 3d 6b 02 39 6b 03  .9..C..Ck.=k.9k.
000097a0: 40 6b 51 40 00 01 39 00 00 3d 00 01 43 00 20 39  @kQ@..9..=..C. 9
000097b0: 6b 00 3d 6b 00 40 6b 00 43 6b 4b 40 00 00 3d 00  k.=k.@k.CkK@..=.
000097c0: 02 43 00 03 39 00 75 3b 6b 00 3e 6b 03 40 6b 00  .C..9.u;k.>k.@k.
000097d0: 44 6b 1b 3b 00 03 3e 00 00 40 00 02 44 00 08 3e  Dk.;..>..@..D..>
000097e0: 6b 00 44 6b 02 3b 6b 00 40 6b 37 40 00 03 3e 00  k.Dk.;k.@k7@..>.
000097f0: 00 44 00 02 3b 00 12 44 6b 00 3b 6b 00 3e 6b 00  .D..;..Dk.;k.>k.
00009800: 40 6b 1a 40 00 00 3e 00 02 3b 00 00 44 00 0c 3b  @k.@..>..;..D..;
00009810: 6b 00 3e 6b 00 40 6b 00 44 6b 48 40 00 05 3e 00  k.>k.@k.DkH@..>.
00009820: 09 3b 00 02 44 00 20 40 6b 00 44 6b 02 3e 6b 00  .;..D. @k.Dk.>k.
00009830: 3b 6b 3d 40 00 04 3e 00 01 44 00 00 3b 00 81 01  ;k=@..>..D..;...
00009840: 3b 6b 00 3e 6b 03 40 6b 00 44 6b 1b 3b 00 03 3e  ;k.>k.@k.Dk.;..>
00009850: 00 00 40 00 02 44 00 08 3e 6b 00 44 6b 02 3b 6b  ..@..D..>k.Dk.;k
00009860: 00 40 6b 37 40 00 03 3e 00 02 3b 00 05 44 00 0d  .@k7@..>..;..D..
00009870: 44 6b 00 3b 6b 00 3e 6b 00 40 6b 1a 40 00 00 3e  Dk.;k.>k.@k.@..>
00009880: 00 02 3b 00 00 44 00 0c 42 6b 02 3b 6b 00 39 6b  ..;..D..Bk.;k.9k
00009890: 00 3f 6b 81 4d 42 00 03 3f 00 02 3b 00 03 39 00  .?k.MB..?..;..9.
000098a0: 19 3e 6b 00 44 6b 00 47 6b 02 40 6b 55 47 00 00  .>k.Dk.Gk.@kUG..
000098b0: 44 00 03 40 00 01 3e 00 05 3e 6b 01 40 6b 00 44  D..@..>..>k.@k.D
000098c0: 6b 00 47 6b 15 3e 00 02 40 00 00 44 00 01 47 00  k.Gk.>..@..D..G.
000098d0: 04 44 6b 00 47 6b 01 3e 6b 00 40 6b 29 44 00 01  .Dk.Gk.>k.@k)D..
000098e0: 47 00 00 40 00 03 3e 00 1d 3e 6b 00 40 6b 00 44  G..@..>..>k.@k.D
000098f0: 6b 00 47 6b 61 47 00 01 44 00 02 3e 00 02 40 00  k.GkaG..D..>..@.
00009900: 12 40 6b 00 44 6b 00 3e 6b 00 47 6b 14 3e 00 02  .@k.Dk.>k.Gk.>..
00009910: 47 00 00 40 00 03 44 00 0f 3e 6b 00 40 6b 00 44  G..@..D..>k.@k.D
00009920: 6b 00 47 6b 4b 40 00 05 47 00 05 44 00 01 3e 00  k.GkK@..G..D..>.
00009930: 65 49 6b 03 40 6b 00 43 6b 00 45 6b 15 45 00 05  eIk.@k.Ck.Ek.E..
00009940: 43 00 00 49 00 01 40 00 17 43 6b 00 40 6b 00 49  C..I..@..Ck.@k.I
00009950: 6b 00 45 6b 2e 45 00 04 43 00 05 49 00 00 40 00  k.Ek.E..C..I..@.
00009960: 0f 45 6b 00 43 6b 00 49 6b 02 40 6b 0d 43 00 03  .Ek.Ck.Ik.@k.C..
00009970: 45 00 04 40 00 03 49 00 16 49 6b 00 40 6b 05 43  E..@..I..Ik.@k.C
00009980: 6b 00 45 6b 55 45 00 00 43 00 04 49 00 01 40 00  k.EkUE..C..I..@.
00009990: 1c 45 6b 00 43 6b 00 49 6b 00 40 6b 48 40 00 05  .Ek.Ck.Ik.@kH@..
000099a0: 45 00 03 43 00 08 49 00 20 4a 6b 00 47 6b 01 44  E..C..I. Jk.Gk.D
000099b0: 6b 0b 4a 00 03 4c 6b 0c 4c 00 03 4a 6b 0c 4a 00  k.J..Lk.L..Jk.J.
000099c0: 03 4c 6b 0c 4c 00 08 4a 6b 11 4c 6b 58 4c 00 0a  .Lk.L..Jk.LkXL..
000099d0: 4e 6b 07 4e 00 03 4f 6b 07 4f 00 03 50 6b 07 50  Nk.N..Ok.O..Pk.P
000099e0: 00 03 51 6b 07 51 00 03 53 6b 07 53 00 0d 5f 6b  ..Qk.Q..Sk.S.._k
000099f0: 25 4a 00 00 47 00 03 44 00 00 5f 00 28 44 6b 00  %J..G..D.._.(Dk.
00009a00: 47 6b 02 3e 6b 00 40 6b 14 40 00 00 44 00 03 3e  Gk.>k.@k.@..D..>
00009a10: 00 00 47 00 0f 3e 6b 00 40 6b 00 44 6b 00 47 6b  ..G..>k.@k.Dk.Gk
00009a20: 43 3e 00 03 40 00 00 44 00 00 47 00 0a 3e 6b 00  C>..@..D..G..>k.
00009a30: 40 6b 00 44 6b 00 47 6b 1b 44 00 00 3e 00 00 40  @k.Dk.Gk.D..>..@
00009a40: 00 03 47 00 0a 3e 6b 00 40 6b 02 44 6b 00 47 6b  ..G..>k.@k.Dk.Gk
00009a50: 67 44 00 00 3e 00 02 40 00 03 47 00 0a 3e 6b 00  gD..>..@..G..>k.
00009a60: 44 6b 00 47 6b 00 4c 6b 46 4c 00 00 3e 00 00 44  Dk.Gk.LkFL..>..D
00009a70: 00 00 47 00 0a 3e 6b 00 47 6b 02 40 6b 00 44 6b  ..G..>k.Gk.@k.Dk
00009a80: 81 3d 40 00 04 44 00 01 47 00 01 3e 00 53 3d 6b  .=@..D..G..>.S=k
00009a90: 00 43 6b 01 40 6b 01 45 6b 4f 40 00 0b 45 00 01  .Ck.@k.EkO@..E..
00009aa0: 43 00 00 3d 00 1b 3d 6b 00 43 6b 00 45 6b 01 40  C..=..=k.Ck.Ek.@
00009ab0: 6b 40 3d 00 02 40 00 03 45 00 00 43 00 0a 3d 6b  k@=..@..E..C..=k
00009ac0: 00 40 6b 00 45 6b 02 43 6b 55 43 00 01 45 00 00  .@k.Ek.CkUC..E..
00009ad0: 40 00 02 3d 00 1e 3d 6b 00 43 6b 00 45 6b 02 40  @..=..=k.Ck.Ek.@
00009ae0: 6b 12 43 00 02 3d 00 00 45 00 00 40 00 12 3d 6b  k.C..=..E..@..=k
00009af0: 00 40 6b 00 43 6b 00 45 6b 5f 3d 00 0d 40 00 02  .@k.Ck.Ek_=..@..
00009b00: 45 00 02 43 00 58 40 6b 00 43 6b 00 49 6b 00 45  E..C.X@k.Ck.Ik.E
00009b10: 6b 20 40 00 01 45 00 00 49 00 02 43 00 05 49 6b  k @..E..I..C..Ik
00009b20: 02 40 6b 00 43 6b 00 45 6b 3a 43 00 00 40 00 02  .@k.Ck.Ek:C..@..
00009b30: 49 00 00 45 00 12 40 6b 00 43 6b 00 45 6b 00 49  I..E..@k.Ck.Ek.I
00009b40: 6b 14 40 00 02 43 00 03 45 00 01 49 00 0e 40 6b  k.@..C..E..I..@k
00009b50: 00 45 6b 00 49 6b 02 43 6b 53 43 00 00 40 00 01  .Ek.Ik.CkSC..@..
00009b60: 45 00 07 49 00 1b 40 6b 00 45 6b 01 49 6b 01 43  E..I..@k.Ek.Ik.C
00009b70: 6b 60 45 00 02 40 00 00 43 00 06 49 00 0e 44 6b  k`E..@..C..I..Dk
00009b80: 02 40 6b 00 47 6b 00 4a 6b 83 32 4a 00 05 40 00  .@k.Gk.Jk.2J..@.
00009b90: 04 47 00 01 44 00 22 3e 6b 02 44 6b 00 47 6b 03  .G..D.">k.Dk.Gk.
00009ba0: 40 6b 83 24 40 00 02 3e 00 05 44 00 01 47 00 2f  @k.$@..>..D..G./
00009bb0: 42 6b 00 45 6b 02 3f 6b 00 47 6b 73 3f 00 00 42  Bk.Ek.?k.Gks?..B
00009bc0: 00 00 45 00 03 47 00 28 3f 6b 00 42 6b 00 45 6b  ..E..G.(?k.Bk.Ek
00009bd0: 00 47 6b 41 47 00 00 3f 00 00 42 00 00 45 00 0f  .GkAG..?..B..E..
00009be0: 3f 6b 00 47 6b 02 42 6b 00 45 6b 30 42 00 02 3f  ?k.Gk.Bk.Ek0B..?
00009bf0: 00 00 47 00 00 45 00 1c 3f 6b 00 42 6b 00 45 6b  ..G..E..?k.Bk.Ek
00009c00: 00 47 6b 23 47 00 00 45 00 00 3f 00 02 42 00 29  .Gk#G..E..?..B.)
00009c10: 3f 6b 00 42 6b 02 47 6b 00 45 6b 43 42 00 03 47  ?k.Bk.Gk.EkCB..G
00009c20: 00 02 3f 00 00 45 00 08 43 6b 00 45 6b 00 49 6b  ..?..E..Ck.Ek.Ik
00009c30: 02 40 6b 37 45 00 03 40 00 00 49 00 05 43 00 0f  .@k7E..@..I..C..
00009c40: 40 6b 00 43 6b 00 45 6b 00 49 6b 2f 45 00 00 40  @k.Ck.Ek.Ik/E..@
00009c50: 00 04 43 00 02 49 00 1b 40 6b 00 45 6b 00 49 6b  ..C..I..@k.Ek.Ik
00009c60: 01 43 6b 29 45 00 03 40 00 00 43 00 03 49 00 20  .Ck)E..@..C..I. 
00009c70: 40 6b 00 43 6b 00 49 6b 02 45 6b 27 45 00 04 40  @k.Ck.Ik.Ek'E..@
00009c80: 00 01 43 00 01 49 00 1e 40 6b 03 43 6b 00 45 6b  ..C..I..@k.Ck.Ek
00009c90: 00 49 6b 3e 45 00 04 49 00 00 43 00 01 40 00 0d  .Ik>E..I..C..@..
00009ca0: 40 6b 00 43 6b 00 45 6b 00 49 6b 38 45 00 01 43  @k.Ck.Ek.Ik8E..C
00009cb0: 00 01 40 00 03 49 00 81 0b 47 6b 00 4a 6b 00 4c  ..@..I...Gk.Jk.L
00009cc0: 6b 02 44 6b 42 4c 00 00 47 00 02 44 00 01 4a 00  k.DkBL..G..D..J.
00009cd0: 13 44 6b 00 47 6b 00 4a 6b 00 4c 6b 0f 47 00 02  .Dk.Gk.Jk.Lk.G..
00009ce0: 44 00 00 4c 00 01 4a 00 0c 4a 6b 00 4c 6b 02 44  D..L..J..Jk.Lk.D
00009cf0: 6b 00 47 6b 81 52 4a 00 03 47 00 00 44 00 02 4c  k.Gk.RJ..G..D..L
00009d00: 00 17 4a 6b 00 4c 6b 02 4e 6b 00 53 6b 81 52 4e  ..Jk.Lk.Nk.Sk.RN
00009d10: 00 00 4a 00 00 4c 00 03 53 00 16 4b 6b 03 47 6b  ..J..L..S..Kk.Gk
00009d20: 02 42 6b 1c 45 6b 81 48 45 00 00 4b 00 00 47 00  .Bk.Ek.HE..K..G.
00009d30: 00 42 00 81 02 40 6b 00 3b 6b 01 3e 6b 01 38 6b  .B...@k.;k.>k.8k
00009d40: 42 38 00 04 3b 00 01 3e 00 02 40 00 2b 3b 6b 02  B8..;..>..@.+;k.
00009d50: 40 6b 01 38 6b 00 3e 6b 81 48 38 00 05 3b 00 01  @k.8k.>k.H8..;..
00009d60: 40 00 01 3e 00 70 37 6b 00 39 6b 00 3d 6b 02 40  @..>.p7k.9k.=k.@
00009d70: 6b 12 3d 00 00 37 00 02 40 00 03 39 00 0f 40 6b  k.=..7..@..9..@k
00009d80: 00 39 6b 00 3d 6b 02 37 6b 3a 3d 00 00 39 00 02  .9k.=k.7k:=..9..
00009d90: 37 00 03 40 00 07 3d 6b 04 39 6b 01 40 6b 01 37  7..@..=k.9k.@k.7
00009da0: 6b 0e 37 00 03 39 00 02 3d 00 03 40 00 14 40 6b  k.7..9..=..@..@k
00009db0: 00 39 6b 00 3d 6b 02 37 6b 81 46 37 00 02 40 00  .9k.=k.7k.F7..@.
00009dc0: 00 39 00 06 3d 00 6d 3b 6b 01 40 6b 00 3e 6b 02  .9..=.m;k.@k.>k.
00009dd0: 38 6b 1a 3e 00 01 3b 00 00 40 00 00 38 00 0d 40  8k.>..;..@..8..@
00009de0: 6b 00 38 6b 01 3b 6b 01 3e 6b 28 38 00 04 40 00  k.8k.;k.>k(8..@.
00009df0: 01 3b 00 05 3e 00 1a 3b 6b 00 3e 6b 00 40 6b 00  .;..>..;k.>k.@k.
00009e00: 38 6b 13 40 00 03 38 00 02 3b 00 01 3e 00 11 40  8k.@..8..;..>..@
00009e10: 6b 00 3e 6b 01 38 6b 00 3b 6b 81 10 38 00 05 40  k.>k.8k.;k..8..@
00009e20: 00 03 3b 00 02 3e 00 81 22 44 6b 00 47 6b 03 4a  ..;..>.."Dk.Gk.J
00009e30: 6b 01 40 6b 10 40 00 01 44 00 02 47 00 01 4a 00  k.@k.@..D..G..J.
00009e40: 11 47 6b 00 4a 6b 02 40 6b 02 44 6b 35 44 00 00  .Gk.Jk.@k.Dk5D..
00009e50: 40 00 00 47 00 02 4a 00 15 4a 6b 02 44 6b 00 47  @..G..J..Jk.Dk.G
00009e60: 6b 01 40 6b 11 40 00 02 44 00 01 47 00 00 4a 00  k.@k.@..D..G..J.
00009e70: 13 44 6b 00 47 6b 02 40 6b 00 4a 6b 81 2a 44 00  .Dk.Gk.@k.Jk.*D.
00009e80: 03 4a 00 00 40 00 01 47 00 81 0d 40 6b 03 3d 6b  .J..@..G...@k.=k
00009e90: 00 43 6b 00 45 6b 11 45 00 05 40 00 03 43 00 00  .Ck.Ek.E..@..C..
00009ea0: 3d 00 0f 43 6b 01 3d 6b 01 45 6b 00 40 6b 2d 40  =..Ck.=k.Ek.@k-@
00009eb0: 00 00 45 00 03 3d 00 00 43 00 1c 3d 6b 02 43 6b  ..E..=..C..=k.Ck
00009ec0: 00 40 6b 01 45 6b 0e 40 00 01 3d 00 01 45 00 01  .@k.Ek.@..=..E..
00009ed0: 43 00 14 43 6b 02 3d 6b 00 40 6b 01 45 6b 0f 45  C..Ck.=k.@k.Ek.E
00009ee0: 00 00 3d 00 01 40 00 01 43 00 16 3d 6b 00 40 6b  ..=..@..C..=k.@k
00009ef0: 00 43 6b 00 45 6b 0f 40 00 02 3d 00 00 45 00 03  .Ck.Ek.@..=..E..
00009f00: 43 00 14 3d 6b 00 40 6b 00 43 6b 00 45 6b 0c 45  C..=k.@k.Ck.Ek.E
00009f10: 00 00 40 00 05 43 00 03 3d 00 11 3d 6b 03 43 6b  ..@..C..=..=k.Ck
00009f20: 01 40 6b 00 45 6b 4a 40 00 01 3d 00 01 43 00 01  .@k.EkJ@..=..C..
00009f30: 45 00 7a 37 6b 00 39 6b 00 3d 6b 01 40 6b 18 39  E.z7k.9k.=k.@k.9
00009f40: 00 00 37 00 01 40 00 01 3d 00 0d 37 6b 00 39 6b  ..7..@..=..7k.9k
00009f50: 00 40 6b 01 3d 6b 31 37 00 02 39 00 00 40 00 03  .@k.=k17..9..@..
00009f60: 3d 00 17 40 6b 02 37 6b 00 3d 6b 01 39 6b 10 37  =..@k.7k.=k.9k.7
00009f70: 00 03 40 00 00 3d 00 00 39 00 15 3d 6b 01 37 6b  ..@..=..9..=k.7k
00009f80: 01 39 6b 00 40 6b 73 37 00 03 3d 00 00 40 00 01  .9k.@ks7..=..@..
00009f90: 39 00 81 46 34 6b 00 38 6b 00 3b 6b 00 3e 6b 17  9..F4k.8k.;k.>k.
00009fa0: 3e 00 00 34 00 00 38 00 03 3b 00 0e 34 6b 01 3b  >..4..8..;..4k.;
00009fb0: 6b 00 38 6b 00 3e 6b 1b 38 00 05 3b 00 02 34 00  k.8k.>k.8..;..4.
00009fc0: 03 3e 00 2a 34 6b 00 38 6b 00 3b 6b 02 3e 6b 12  .>.*4k.8k.;k.>k.
00009fd0: 34 00 02 38 00 00 3b 00 00 3e 00 12 34 6b 00 38  4..8..;..>..4k.8
00009fe0: 6b 01 3e 6b 00 3b 6b 50 38 00 04 3b 00 03 3e 00  k.>k.;kP8..;..>.
00009ff0: 04 34 00 1c 34 6b 00 38 6b 00 3b 6b 00 3e 6b 3a  .4..4k.8k.;k.>k:
0000a000: 3b 00 00 38 00 04 3e 00 03 34 00 0f 34 6b 00 3b  ;..8..>..4..4k.;
0000a010: 6b 00 3e 6b 02 38 6b 14 38 00 04 3e 00 00 3b 00  k.>k.8k.8..>..;.
0000a020: 04 34 00 0a 38 6b 02 34 6b 00 3b 6b 00 3e 6b 5a  .4..8k.4k.;k.>kZ
0000a030: 38 00 01 3b 00 02 3e 00 03 34 00 16 34 6b 00 3b  8..;..>..4..4k.;
0000a040: 6b 00 3e 6b 02 38 6b 19 38 00 00 3b 00 03 3e 00  k.>k.8k.8..;..>.
0000a050: 0a 34 00 28 34 6b 00 38 6b 00 3b 6b 00 3e 6b 55  .4.(4k.8k.;k.>kU
0000a060: 38 00 02 3b 00 01 3e 00 03 34 00 1d 3b 6b 00 3e  8..;..>..4..;k.>
0000a070: 6b 02 34 6b 03 38 6b 0f 34 00 00 3e 00 02 3b 00  k.4k.8k.4..>..;.
0000a080: 03 38 00 0c 3b 6b 03 38 6b 00 34 6b 02 3e 6b 38  .8..;k.8k.4k.>k8
0000a090: 3b 00 02 38 00 02 34 00 01 3e 00 81 06 39 6b 00  ;..8..4..>...9k.
0000a0a0: 42 6b 03 3f 6b 01 3b 6b 14 39 00 02 3b 00 02 3f  Bk.?k.;k.9..;..?
0000a0b0: 00 00 42 00 0f 39 6b 00 3b 6b 00 3f 6b 00 42 6b  ..B..9k.;k.?k.Bk
0000a0c0: 32 42 00 02 3f 00 05 3b 00 05 39 00 10 3f 6b 02  2B..?..;..9..?k.
0000a0d0: 39 6b 00 3b 6b 00 42 6b 11 42 00 00 3b 00 01 39  9k.;k.Bk.B..;..9
0000a0e0: 00 02 3f 00 14 42 6b 02 39 6b 00 3b 6b 00 3f 6b  ..?..Bk.9k.;k.?k
0000a0f0: 81 26 3f 00 00 3b 00 00 42 00 04 39 00 81 14 37  .&?..;..B..9...7
0000a100: 6b 00 39 6b 00 3d 6b 00 40 6b 16 40 00 03 39 00  k.9k.=k.@k.@..9.
0000a110: 02 37 00 03 3d 00 0a 37 6b 00 39 6b 00 3d 6b 00  .7..=..7k.9k.=k.
0000a120: 40 6b 35 39 00 02 40 00 01 3d 00 00 37 00 18 39  @k59..@..=..7..9
0000a130: 6b 00 3d 6b 00 40 6b 02 37 6b 14 39 00 01 3d 00  k.=k.@k.7k.9..=.
0000a140: 00 40 00 02 37 00 0c 3d 6b 03 39 6b 00 37 6b 00  .@..7..=k.9k.7k.
0000a150: 40 6b 81 21 37 00 01 3d 00 00 39 00 09 40 00 81  @k.!7..=..9..@..
0000a160: 15 3e 6b 00 44 6b 00 47 6b 00 4c 6b 23 44 00 0a  .>k.Dk.Gk.Lk#D..
0000a170: 3e 00 00 47 00 00 4c 00 23 3e 6b 00 44 6b 00 47  >..G..L.#>k.Dk.G
0000a180: 6b 00 4c 6b 1e 44 00 05 3e 00 00 47 00 00 4c 00  k.Lk.D..>..G..L.
0000a190: 2d 3e 6b 00 44 6b 00 47 6b 00 4c 6b 81 39 44 00  ->k.Dk.Gk.Lk.9D.
0000a1a0: 05 3e 00 00 47 00 0a 4c 00 28 44 6b 00 3e 6b 00  .>..G..L.(Dk.>k.
0000a1b0: 47 6b 00 4c 6b 28 47 00 00 44 00 0a 4c 00 05 3e  Gk.Lk(G..D..L..>
0000a1c0: 00 19 3e 6b 00 44 6b 00 47 6b 00 4c 6b 5a 44 00  ..>k.Dk.Gk.LkZD.
0000a1d0: 0a 47 00 05 3e 00 00 4c 00 37 42 6b 00 44 6b 00  .G..>..L.7Bk.Dk.
0000a1e0: 47 6b 00 4c 6b 05 4a 6b 81 61 4a 00 00 47 00 00  Gk.Lk.Jk.aJ..G..
0000a1f0: 42 00 00 44 00 00 4c 00 32 40 6b 00 47 6b 01 3b  B..D..L.2@k.Gk.;
0000a200: 6b 00 44 6b 01 3e 6b 82 0d 3e 00 02 40 00 02 44  k.Dk.>k..>..@..D
0000a210: 00 00 3b 00 05 47 00 00 ff 2f 00 4d 54 72 6b 00  ..;..G.../.MTrk.
0000a220: 00 11 6d 00 ff 21 01 00 00 ff 03 0b 42 61 73 73  ..m..!......Bass
0000a230: 20 47 75 69 74 61 72 88 10 94 23 7f 19 23 00 0f   Guitar...#..#..
0000a240: 23 7f 25 23 00 2b 23 7f 61 23 00 81 37 28 7f 43  #.%#.+#.a#..7(.C
0000a250: 28 00 0d 28 7f 1e 28 00 0a 2f 7f 3c 2f 00 14 28  (..(..(../.</..(
0000a260: 7f 61 28 00 18 28 7f 1d 28 00 0a 2f 7f 53 2f 00  .a(..(..(../.S/.
0000a270: 27 28 7f 35 28 00 19 28 7f 21 28 00 07 2f 7f 3e  '(.5(..(.!(../.>
0000a280: 2f 00 12 28 7f 6f 28 00 09 28 7f 29 28 00 00 2f  /..(.o(..(.)(../
0000a290: 7f 45 2f 00 32 2d 7f 37 2d 00 19 2d 7f 1f 2d 00  .E/.2-.7-..-..-.
0000a2a0: 09 34 7f 33 34 00 1d 34 7f 1a 34 00 10 2d 7f 35  .4.34..4..4..-.5
0000a2b0: 2d 00 19 2d 7f 1c 2d 00 0d 34 7f 63 34 00 14 2f  -..-..-..4.c4../
0000a2c0: 7f 20 2f 00 08 2b 7f 1b 2b 00 0d 28 7f 1e 28 00  . /..+..+..(..(.
0000a2d0: 0a 2b 7f 46 2b 00 0a 32 7f 1e 32 00 0a 31 7f 3c  .+.F+..2..2..1.<
0000a2e0: 31 00 14 31 7f 16 31 00 12 2f 7f 69 2f 00 0f 2f  1..1..1../.i/../
0000a2f0: 7f 46 2f 00 0a 2b 7f 1b 2b 00 0d 28 7f 46 28 00  .F/..+..+..(.F(.
0000a300: 0a 28 7f 1e 28 00 0a 28 7f 23 28 00 05 28 7f 23  .(..(..(.#(..(.#
0000a310: 28 00 05 28 7f 1b 28 00 0d 2b 7f 66 2b 00 12 2d  (..(..(..+.f+..-
0000a320: 7f 19 2d 00 0f 2d 7f 19 2d 00 0f 2d 7f 16 2d 00  ..-..-..-..-..-.
0000a330: 12 34 7f 39 34 00 17 34 7f 19 34 00 0f 2d 7f 3e  .4.94..4..4..-.>
0000a340: 2d 00 12 2d 7f 20 2d 00 08 34 7f 50 34 00 28 2d  -..-. -..4.P4.(-
0000a350: 7f 43 2d 00 0d 2d 7f 1b 2d 00 0d 34 7f 39 34 00  .C-..-..-..4.94.
0000a360: 17 34 7f 19 34 00 0f 2d 7f 1b 2d 00 0d 2d 7f 16  .4..4..-..-..-..
0000a370: 2d 00 0f 2d 7f 1c 2d 00 0f 34 7f 60 34 00 18 28  -..-..-..4.`4..(
0000a380: 7f 2f 28 00 21 28 7f 25 28 00 03 2f 7f 37 2f 00  ./(.!(.%(../.7/.
0000a390: 19 2f 7f 16 2f 00 12 28 7f 42 28 00 0e 28 7f 20  ./../..(.B(..(. 
0000a3a0: 28 00 08 2f 7f 4b 2f 00 2d 28 7f 32 28 00 1e 28  (../.K/.-(.2(..(
0000a3b0: 7f 21 28 00 07 34 7f 33 34 00 1d 2f 7f 1b 2f 00  .!(..4.34../../.
0000a3c0: 0d 28 7f 4b 28 00 05 34 7f 20 34 00 08 2f 7f 35  .(.K(..4. 4../.5
0000a3d0: 2f 00 43 33 7f 3c 33 00 14 36 7f 1e 36 00 0a 33  /.C3.<3..6..6..3
0000a3e0: 7f 48 33 00 08 36 7f 20 36 00 08 33 7f 43 33 00  .H3..6. 6..3.C3.
0000a3f0: 0d 36 7f 69 36 00 38 31 7f 45 31 00 0a 34 7f 1e  .6.i6.81.E1..4..
0000a400: 34 00 0b 31 7f 47 31 00 08 34 7f 1b 34 00 0d 31  4..1.G1..4..4..1
0000a410: 7f 43 31 00 0d 34 7f 55 34 00 4b 28 7f 3c 28 00  .C1..4.U4.K(.<(.
0000a420: 14 28 7f 1b 28 00 0d 2f 7f 35 2f 00 1b 2f 7f 1e  .(..(../.5/../..
0000a430: 2f 00 0a 28 7f 3c 28 00 14 28 7f 1e 28 00 0a 2f  /..(.<(..(..(../
0000a440: 7f 64 2f 00 14 28 7f 3c 28 00 14 28 7f 1e 28 00  .d/..(.<(..(..(.
0000a450: 0a 2f 7f 3d 2f 00 13 2f 7f 19 2f 00 14 2a 7f 39  ./.=/../../..*.9
0000a460: 2a 00 12 2a 7f 19 2a 00 0f 2d 7f 46 2d 00 0a 2d  *..*..*..-.F-..-
0000a470: 7f 1e 2d 00 0c 28 7f 35 28 00 19 28 7f 21 28 00  ..-..(.5(..(.!(.
0000a480: 07 2f 7f 3e 2f 00 12 28 7f 6f 28 00 09 28 7f 29  ./.>/..(.o(..(.)
0000a490: 28 00 00 2f 7f 45 2f 00 32 2d 7f 37 2d 00 19 2d  (../.E/.2-.7-..-
0000a4a0: 7f 1f 2d 00 09 34 7f 33 34 00 1d 34 7f 1a 34 00  ..-..4.34..4..4.
0000a4b0: 10 2d 7f 35 2d 00 19 2d 7f 1c 2d 00 0d 34 7f 63  .-.5-..-..-..4.c
0000a4c0: 34 00 14 2f 7f 46 2f 00 0a 2b 7f 1b 2b 00 0d 28  4../.F/..+..+..(
0000a4d0: 7f 46 28 00 0a 2b 7f 1e 2b 00 0a 32 7f 3c 32 00  .F(..+..+..2.<2.
0000a4e0: 14 32 7f 16 32 00 12 31 7f 69 31 00 0f 2f 7f 46  .2..2..1.i1../.F
0000a4f0: 2f 00 0a 2b 7f 1b 2b 00 0d 28 7f 46 28 00 0a 2b  /..+..+..(.F(..+
0000a500: 7f 1e 2b 00 0a 28 7f 23 28 00 05 28 7f 23 28 00  ..+..(.#(..(.#(.
0000a510: 05 28 7f 1b 28 00 0d 2b 7f 66 2b 00 12 2d 7f 19  .(..(..+.f+..-..
0000a520: 2d 00 0f 2d 7f 19 2d 00 0f 2d 7f 16 2d 00 12 34  -..-..-..-..-..4
0000a530: 7f 39 34 00 17 34 7f 19 34 00 0f 2d 7f 3e 2d 00  .94..4..4..-.>-.
0000a540: 12 2d 7f 20 2d 00 08 34 7f 50 34 00 28 2d 7f 43  .-. -..4.P4.(-.C
0000a550: 2d 00 0d 2d 7f 1b 2d 00 0d 34 7f 39 34 00 17 34  -..-..-..4.94..4
0000a560: 7f 19 34 00 0f 2d 7f 1b 2d 00 0d 2d 7f 16 2d 00  ..4..-..-..-..-.
0000a570: 0f 2d 7f 1c 2d 00 0f 34 7f 60 34 00 18 28 7f 2f  .-..-..4.`4..(./
0000a580: 28 00 21 28 7f 25 28 00 03 2f 7f 37 2f 00 19 2f  (.!(.%(../.7/../
0000a590: 7f 16 2f 00 12 28 7f 42 28 00 0e 28 7f 20 28 00  ../..(.B(..(. (.
0000a5a0: 08 2f 7f 4b 2f 00 2d 28 7f 32 28 00 1e 28 7f 21  ./.K/.-(.2(..(.!
0000a5b0: 28 00 07 34 7f 33 34 00 1d 2f 7f 1b 2f 00 0d 28  (..4.34../../..(
0000a5c0: 7f 4b 28 00 05 34 7f 20 34 00 08 2f 7f 46 2f 00  .K(..4. 4../.F/.
0000a5d0: 0a 34 7f 1e 34 00 0a 33 7f 3c 33 00 14 36 7f 1e  .4..4..3.<3..6..
0000a5e0: 36 00 0a 33 7f 48 33 00 08 36 7f 20 36 00 08 33  6..3.H3..6. 6..3
0000a5f0: 7f 43 33 00 0d 36 7f 69 36 00 0f 2f 7f 1e 2f 00  .C3..6.i6../../.
0000a600: 0b 31 7f 45 31 00 0a 34 7f 1e 34 00 0b 31 7f 47  .1.E1..4..4..1.G
0000a610: 31 00 08 34 7f 1b 34 00 0d 31 7f 43 31 00 0d 34  1..4..4..1.C1..4
0000a620: 7f 55 34 00 23 25 7f 20 25 00 08 28 7f 3c 28 00  .U4.#%. %..(.<(.
0000a630: 14 28 7f 1b 28 00 0d 2f 7f 35 2f 00 1b 2f 7f 1e  .(..(../.5/../..
0000a640: 2f 00 0a 28 7f 3c 28 00 14 28 7f 1e 28 00 0a 2f  /..(.<(..(..(../
0000a650: 7f 64 2f 00 14 28 7f 3c 28 00 14 28 7f 1e 28 00  .d/..(.<(..(..(.
0000a660: 0a 2f 7f 3d 2f 00 13 2f 7f 19 2f 00 0f 2a 7f 3e  ./.=/../../..*.>
0000a670: 2a 00 12 2a 7f 19 2a 00 0f 2d 7f 46 2d 00 0a 2f  *..*..*..-.F-../
0000a680: 7f 1e 2f 00 0c 28 7f 35 28 00 19 28 7f 21 28 00  ../..(.5(..(.!(.
0000a690: 07 2f 7f 3e 2f 00 12 28 7f 6f 28 00 09 28 7f 29  ./.>/..(.o(..(.)
0000a6a0: 28 00 00 2f 7f 45 2f 00 32 2d 7f 37 2d 00 19 2d  (../.E/.2-.7-..-
0000a6b0: 7f 1f 2d 00 09 34 7f 33 34 00 1d 34 7f 1a 34 00  ..-..4.34..4..4.
0000a6c0: 10 2d 7f 35 2d 00 19 2d 7f 1c 2d 00 0d 34 7f 63  .-.5-..-..-..4.c
0000a6d0: 34 00 14 2f 7f 46 2f 00 0a 2b 7f 1b 2b 00 0d 28  4../.F/..+..+..(
0000a6e0: 7f 46 28 00 0a 2b 7f 1e 2b 00 0a 32 7f 3c 32 00  .F(..+..+..2.<2.
0000a6f0: 14 32 7f 16 32 00 12 31 7f 69 31 00 0f 2f 7f 46  .2..2..1.i1../.F
0000a700: 2f 00 0a 2b 7f 1b 2b 00 0d 28 7f 46 28 00 0a 2b  /..+..+..(.F(..+
0000a710: 7f 1e 2b 00 0a 28 7f 23 28 00 05 28 7f 23 28 00  ..+..(.#(..(.#(.
0000a720: 05 28 7f 1b 28 00 0d 2b 7f 66 2b 00 12 2d 7f 19  .(..(..+.f+..-..
0000a730: 2d 00 0f 2d 7f 19 2d 00 0f 2d 7f 16 2d 00 12 34  -..-..-..-..-..4
0000a740: 7f 39 34 00 17 34 7f 19 34 00 0f 2d 7f 3e 2d 00  .94..4..4..-.>-.
0000a750: 12 2d 7f 20 2d 00 08 34 7f 50 34 00 28 2d 7f 43  .-. -..4.P4.(-.C
0000a760: 2d 00 0d 2d 7f 1b 2d 00 0d 34 7f 39 34 00 17 34  -..-..-..4.94..4
0000a770: 7f 19 34 00 0f 2d 7f 1b 2d 00 0d 2d 7f 16 2d 00  ..4..-..-..-..-.
0000a780: 0f 2d 7f 1c 2d 00 0f 34 7f 60 34 00 18 28 7f 2f  .-..-..4.`4..(./
0000a790: 28 00 21 28 7f 25 28 00 03 2f 7f 37 2f 00 19 2f  (.!(.%(../.7/../
0000a7a0: 7f 16 2f 00 12 28 7f 42 28 00 0e 28 7f 20 28 00  ../..(.B(..(. (.
0000a7b0: 08 2f 7f 4b 2f 00 2d 28 7f 32 28 00 1e 28 7f 21  ./.K/.-(.2(..(.!
0000a7c0: 28 00 07 34 7f 33 34 00 1d 2f 7f 1b 2f 00 0d 28  (..4.34../../..(
0000a7d0: 7f 4b 28 00 05 34 7f 20 34 00 08 2f 7f 46 2f 00  .K(..4. 4../.F/.
0000a7e0: 0a 34 7f 1e 34 00 0a 33 7f 3c 33 00 14 36 7f 1e  .4..4..3.<3..6..
0000a7f0: 36 00 0a 33 7f 48 33 00 08 36 7f 20 36 00 08 33  6..3.H3..6. 6..3
0000a800: 7f 43 33 00 0d 36 7f 69 36 00 0f 2f 7f 1e 2f 00  .C3..6.i6../../.
0000a810: 0b 31 7f 45 31 00 0a 34 7f 1e 34 00 0b 31 7f 47  .1.E1..4..4..1.G
0000a820: 31 00 08 34 7f 1b 34 00 0d 31 7f 43 31 00 0d 34  1..4..4..1.C1..4
0000a830: 7f 55 34 00 23 25 7f 20 25 00 08 28 7f 3c 28 00  .U4.#%. %..(.<(.
0000a840: 14 28 7f 1b 28 00 0d 2f 7f 35 2f 00 1b 2f 7f 1e  .(..(../.5/../..
0000a850: 2f 00 0a 28 7f 3c 28 00 14 28 7f 1e 28 00 0a 2f  /..(.<(..(..(../
0000a860: 7f 64 2f 00 14 28 7f 3c 28 00 14 28 7f 1e 28 00  .d/..(.<(..(..(.
0000a870: 0a 2f 7f 3d 2f 00 13 2f 7f 19 2f 00 0f 2a 7f 3e  ./.=/../../..*.>
0000a880: 2a 00 12 2a 7f 19 2a 00 0f 2d 7f 46 2d 00 0a 2f  *..*..*..-.F-../
0000a890: 7f 1e 2f 00 0a 28 7f 44 28 00 0c 28 7f 1e 28 00  ../..(.D(..(..(.
0000a8a0: 0a 2f 7f 3e 2f 00 12 2f 7f 1e 2f 00 0a 28 7f 3e  ./.>/../../..(.>
0000a8b0: 28 00 12 28 7f 1e 28 00 0a 2f 7f 43 2f 00 0d 2f  (..(..(../.C/../
0000a8c0: 7f 1e 2f 00 0a 2d 7f 3e 2d 00 12 2d 7f 1e 2d 00  ../..-.>-..-..-.
0000a8d0: 0a 34 7f 37 34 00 19 34 7f 25 34 00 03 2d 7f 39  .4.74..4.%4..-.9
0000a8e0: 2d 00 17 2d 7f 16 2d 00 12 34 7f 37 34 00 19 34  -..-..-..4.74..4
0000a8f0: 7f 1a 34 00 10 28 7f 32 28 00 1c 28 7f 19 28 00  ..4..(.2(..(..(.
0000a900: 0f 2f 7f 34 2f 00 1c 2f 7f 1c 2f 00 0c 28 7f 3a  ./.4/../../..(.:
0000a910: 28 00 16 28 7f 1e 28 00 0b 2f 7f 36 2f 00 19 2f  (..(..(../.6/../
0000a920: 7f 1e 2f 00 0a 28 7f 3e 28 00 13 28 7f 20 28 00  ../..(.>(..(. (.
0000a930: 09 2f 7f 35 2f 00 19 2f 7f 1b 2f 00 0d 28 7f 35  ./.5/../../..(.5
0000a940: 28 00 1b 28 7f 1b 28 00 0e 2f 7f 38 2f 00 19 2f  (..(..(../.8/../
0000a950: 7f 1c 2f 00 0a 2d 7f 37 2d 00 19 2d 7f 1b 2d 00  ../..-.7-..-..-.
0000a960: 0d 34 7f 37 34 00 19 34 7f 1a 34 00 0f 2d 7f 3d  .4.74..4..4..-.=
0000a970: 2d 00 12 2d 7f 1e 2d 00 0a 34 7f 2f 34 00 1e 34  -..-..-..4./4..4
0000a980: 7f 1c 34 00 0f 2d 7f 35 2d 00 1b 2d 7f 1e 2d 00  ..4..-.5-..-..-.
0000a990: 0a 34 7f 33 34 00 1d 34 7f 1e 34 00 0a 2d 7f 37  .4.34..4..4..-.7
0000a9a0: 2d 00 19 2d 7f 20 2d 00 08 34 7f 37 34 00 19 34  -..-. -..4.74..4
0000a9b0: 7f 23 34 00 05 28 7f 3c 28 00 14 28 7f 1f 28 00  .#4..(.<(..(..(.
0000a9c0: 09 2f 7f 2f 2f 00 21 2f 7f 1e 2f 00 0a 28 7f 32  ././/.!/../..(.2
0000a9d0: 28 00 1e 28 7f 1b 28 00 0f 2f 7f 30 2f 00 1e 2f  (..(..(../.0/../
0000a9e0: 7f 19 2f 00 14 2f 7f 3c 2f 00 0f 2d 7f 6e 2d 00  ../../.</..-.n-.
0000a9f0: 0a 2b 7f 1e 2b 00 0a 2d 7f 46 2d 00 0a 2b 7f 1e  .+..+..-.F-..+..
0000aa00: 2b 00 0a 28 7f 70 28 00 09 34 7f 39 34 00 16 34  +..(.p(..4.94..4
0000aa10: 7f 1f 34 00 09 31 7f 32 31 00 1e 31 7f 19 31 00  ..4..1.21..1..1.
0000aa20: 0f 32 7f 35 32 00 1b 32 7f 1e 32 00 0a 2f 7f 37  .2.52..2..2../.7
0000aa30: 2f 00 19 2f 7f 1b 2f 00 0d 2d 7f 39 2d 00 17 2d  /../../..-.9-..-
0000aa40: 7f 1e 2d 00 0a 34 7f 30 34 00 20 34 7f 1b 34 00  ..-..4.04. 4..4.
0000aa50: 0d 2d 7f 39 2d 00 17 2d 7f 1a 2d 00 0f 34 7f 36  .-.9-..-..-..4.6
0000aa60: 34 00 19 34 7f 19 34 00 0f 28 7f 47 28 00 09 28  4..4..4..(.G(..(
0000aa70: 7f 1e 28 00 0b 2f 7f 38 2f 00 17 2f 7f 1a 2f 00  ..(../.8/../../.
0000aa80: 0e 28 7f 33 28 00 1d 28 7f 1e 28 00 0c 2f 7f 30  .(.3(..(..(../.0
0000aa90: 2f 00 1b 2f 7f 1c 2f 00 11 28 7f 30 28 00 1e 28  /../../..(.0(..(
0000aaa0: 7f 15 28 00 15 2f 7f 2b 2f 00 23 2f 7f 19 2f 00  ..(../.+/.#/../.
0000aab0: 0f 36 7f 38 36 00 18 36 7f 1b 36 00 0d 33 7f 3a  .6.86..6..6..3.:
0000aac0: 33 00 16 33 7f 15 33 00 15 28 7f 35 28 00 19 28  3..3..3..(.5(..(
0000aad0: 7f 21 28 00 07 2f 7f 3e 2f 00 12 28 7f 6f 28 00  .!(../.>/..(.o(.
0000aae0: 09 28 7f 29 28 00 00 2f 7f 45 2f 00 32 2d 7f 37  .(.)(../.E/.2-.7
0000aaf0: 2d 00 19 2d 7f 1f 2d 00 09 34 7f 33 34 00 1d 34  -..-..-..4.34..4
0000ab00: 7f 1a 34 00 10 2d 7f 35 2d 00 19 2d 7f 1c 2d 00  ..4..-.5-..-..-.
0000ab10: 0d 34 7f 63 34 00 14 2f 7f 46 2f 00 0a 2b 7f 1b  .4.c4../.F/..+..
0000ab20: 2b 00 0d 28 7f 46 28 00 0a 2b 7f 1e 2b 00 0a 32  +..(.F(..+..+..2
0000ab30: 7f 3c 32 00 14 32 7f 16 32 00 12 31 7f 69 31 00  .<2..2..2..1.i1.
0000ab40: 0f 2f 7f 46 2f 00 0a 2b 7f 1b 2b 00 0d 28 7f 46  ./.F/..+..+..(.F
0000ab50: 28 00 0a 2b 7f 1e 2b 00 0a 28 7f 23 28 00 05 28  (..+..+..(.#(..(
0000ab60: 7f 23 28 00 05 28 7f 1b 28 00 0d 2b 7f 66 2b 00  .#(..(..(..+.f+.
0000ab70: 12 2d 7f 19 2d 00 0f 2d 7f 19 2d 00 0f 2d 7f 16  .-..-..-..-..-..
0000ab80: 2d 00 12 34 7f 39 34 00 17 34 7f 19 34 00 0f 2d  -..4.94..4..4..-
0000ab90: 7f 3e 2d 00 12 2d 7f 20 2d 00 08 34 7f 50 34 00  .>-..-. -..4.P4.
0000aba0: 28 2d 7f 43 2d 00 0d 2d 7f 1b 2d 00 0d 34 7f 39  (-.C-..-..-..4.9
0000abb0: 34 00 17 34 7f 19 34 00 0f 2d 7f 1b 2d 00 0d 2d  4..4..4..-..-..-
0000abc0: 7f 16 2d 00 0f 2d 7f 1c 2d 00 0f 34 7f 60 34 00  ..-..-..-..4.`4.
0000abd0: 18 28 7f 2f 28 00 21 28 7f 25 28 00 03 2f 7f 37  .(./(.!(.%(../.7
0000abe0: 2f 00 19 2f 7f 16 2f 00 12 28 7f 42 28 00 0e 28  /../../..(.B(..(
0000abf0: 7f 20 28 00 08 2f 7f 4b 2f 00 2d 28 7f 32 28 00  . (../.K/.-(.2(.
0000ac00: 1e 28 7f 21 28 00 07 34 7f 33 34 00 1d 2f 7f 1b  .(.!(..4.34../..
0000ac10: 2f 00 0d 28 7f 4b 28 00 05 34 7f 20 34 00 08 2f  /..(.K(..4. 4../
0000ac20: 7f 46 2f 00 0a 34 7f 1e 34 00 0a 33 7f 3c 33 00  .F/..4..4..3.<3.
0000ac30: 14 36 7f 1e 36 00 0a 33 7f 48 33 00 08 36 7f 20  .6..6..3.H3..6. 
0000ac40: 36 00 08 33 7f 43 33 00 0d 36 7f 69 36 00 0f 2f  6..3.C3..6.i6../
0000ac50: 7f 1e 2f 00 0b 31 7f 45 31 00 0a 34 7f 1e 34 00  ../..1.E1..4..4.
0000ac60: 0b 31 7f 47 31 00 08 34 7f 1b 34 00 0d 31 7f 43  .1.G1..4..4..1.C
0000ac70: 31 00 0d 34 7f 55 34 00 23 25 7f 20 25 00 08 28  1..4.U4.#%. %..(
0000ac80: 7f 3c 28 00 14 28 7f 1b 28 00 0d 2f 7f 35 2f 00  .<(..(..(../.5/.
0000ac90: 1b 2f 7f 1e 2f 00 0a 28 7f 3c 28 00 14 28 7f 1e  ./../..(.<(..(..
0000aca0: 28 00 0a 2f 7f 64 2f 00 14 28 7f 3c 28 00 14 28  (../.d/..(.<(..(
0000acb0: 7f 1e 28 00 0a 2f 7f 3d 2f 00 13 2f 7f 19 2f 00  ..(../.=/../../.
0000acc0: 0f 2a 7f 3e 2a 00 12 2a 7f 19 2a 00 0f 2d 7f 46  .*.>*..*..*..-.F
0000acd0: 2d 00 0a 2f 7f 1e 2f 00 0a 28 7f 44 28 00 0c 28  -../../..(.D(..(
0000ace0: 7f 1e 28 00 0a 2f 7f 3e 2f 00 12 2f 7f 1e 2f 00  ..(../.>/../../.
0000acf0: 0a 28 7f 3e 28 00 12 28 7f 1e 28 00 0a 2f 7f 43  .(.>(..(..(../.C
0000ad00: 2f 00 0d 2f 7f 1e 2f 00 0a 2d 7f 3e 2d 00 12 2d  /../../..-.>-..-
0000ad10: 7f 1e 2d 00 0a 34 7f 20 34 00 08 34 7f 1e 34 00  ..-..4. 4..4..4.
0000ad20: 0a 34 7f 25 34 00 03 2d 7f 39 2d 00 17 2d 7f 16  .4.%4..-.9-..-..
0000ad30: 2d 00 12 34 7f 1e 34 00 0a 34 7f 1e 34 00 0a 34  -..4..4..4..4..4
0000ad40: 7f 1e 34 00 0c 28 7f 1c 28 00 0c 28 7f 1c 28 00  ..4..(..(..(..(.
0000ad50: 0a 28 7f 19 28 00 0f 2f 7f 34 2f 00 1c 2f 7f 1c  .(..(../.4/../..
0000ad60: 2f 00 0c 28 7f 3a 28 00 16 28 7f 1e 28 00 0b 32  /..(.:(..(..(..2
0000ad70: 7f 36 32 00 19 2f 7f 1e 2f 00 0a 28 7f 3e 28 00  .62../../..(.>(.
0000ad80: 13 28 7f 20 28 00 09 2b 7f 35 2b 00 19 2f 7f 1b  .(. (..+.5+../..
0000ad90: 2f 00 0d 28 7f 35 28 00 1b 28 7f 1b 28 00 0e 32  /..(.5(..(..(..2
0000ada0: 7f 38 32 00 19 2f 7f 1c 2f 00 0a 2d 7f 37 2d 00  .82../../..-.7-.
0000adb0: 19 2d 7f 1b 2d 00 0d 34 7f 37 34 00 19 34 7f 1a  .-..-..4.74..4..
0000adc0: 34 00 0f 2d 7f 3d 2d 00 12 2d 7f 1e 2d 00 0a 37  4..-.=-..-..-..7
0000add0: 7f 2f 37 00 1e 34 7f 1c 34 00 0f 2d 7f 35 2d 00  ./7..4..4..-.5-.
0000ade0: 1b 2d 7f 1e 2d 00 0a 34 7f 33 34 00 1d 34 7f 1e  .-..-..4.34..4..
0000adf0: 34 00 0a 2d 7f 37 2d 00 19 2d 7f 20 2d 00 08 37  4..-.7-..-. -..7
0000ae00: 7f 37 37 00 19 34 7f 23 34 00 05 28 7f 3c 28 00  .77..4.#4..(.<(.
0000ae10: 14 28 7f 1f 28 00 09 2f 7f 2f 2f 00 21 2f 7f 1e  .(..(.././/.!/..
0000ae20: 2f 00 0a 28 7f 32 28 00 1e 28 7f 1b 28 00 0f 32  /..(.2(..(..(..2
0000ae30: 7f 30 32 00 1e 2f 7f 19 2f 00 14 2f 7f 3c 2f 00  .02../../../.</.
0000ae40: 0f 2d 7f 1e 2d 00 0c 2c 7f 08 2c 00 02 2b 7f 14  .-..-..,..,..+..
0000ae50: 2b 00 08 28 7f 1e 28 00 0a 2b 7f 1e 2b 00 0a 2d  +..(..(..+..+..-
0000ae60: 7f 46 2d 00 0a 2b 7f 1e 2b 00 0a 28 7f 1e 28 00  .F-..+..+..(..(.
0000ae70: 0a 2b 7f 1e 2b 00 0a 2d 7f 0a 2d 00 02 2b 7f 08  .+..+..-..-..+..
0000ae80: 2b 00 02 2f 7f 0d 2f 00 06 34 7f 39 34 00 16 2d  +../../..4.94..-
0000ae90: 7f 1e 2d 00 0a 2d 7f 1e 2d 00 0a 2f 7f 1e 2f 00  ..-..-..-../../.
0000aea0: 0a 32 7f 20 32 00 08 34 7f 1e 34 00 02 36 7f 0d  .2. 2..4..4..6..
0000aeb0: 36 00 05 34 7f 14 34 00 0a 32 7f 1e 32 00 0a 2f  6..4..4..2..2../
0000aec0: 7f 37 2f 00 19 2f 7f 1b 2f 00 0d 28 7f 39 28 00  .7/../../..(.9(.
0000aed0: 17 2d 7f 1e 2d 00 0a 34 7f 30 34 00 20 34 7f 1b  .-..-..4.04. 4..
0000aee0: 34 00 0d 2d 7f 39 2d 00 17 2d 7f 1a 2d 00 0f 39  4..-.9-..-..-..9
0000aef0: 7f 36 39 00 19 34 7f 19 34 00 0f 28 7f 47 28 00  .69..4..4..(.G(.
0000af00: 09 28 7f 1e 28 00 0b 2f 7f 38 2f 00 17 2f 7f 1a  .(..(../.8/../..
0000af10: 2f 00 0e 28 7f 33 28 00 1d 28 7f 1e 28 00 0c 32  /..(.3(..(..(..2
0000af20: 7f 30 32 00 1b 2f 7f 1c 2f 00 11 28 7f 30 28 00  .02../../..(.0(.
0000af30: 1e 28 7f 15 28 00 15 2f 7f 2b 2f 00 23 2f 7f 19  .(..(../.+/.#/..
0000af40: 2f 00 0f 36 7f 38 36 00 18 36 7f 1b 36 00 0d 33  /..6.86..6..6..3
0000af50: 7f 3a 33 00 16 33 7f 15 33 00 15 28 7f 35 28 00  .:3..3..3..(.5(.
0000af60: 19 28 7f 21 28 00 07 2f 7f 3e 2f 00 12 28 7f 6f  .(.!(../.>/..(.o
0000af70: 28 00 09 28 7f 29 28 00 00 2f 7f 45 2f 00 32 2d  (..(.)(../.E/.2-
0000af80: 7f 37 2d 00 19 2d 7f 1f 2d 00 09 34 7f 33 34 00  .7-..-..-..4.34.
0000af90: 1d 34 7f 1a 34 00 10 2d 7f 35 2d 00 19 2d 7f 1c  .4..4..-.5-..-..
0000afa0: 2d 00 0d 34 7f 63 34 00 14 2f 7f 20 2f 00 08 2b  -..4.c4../. /..+
0000afb0: 7f 1b 2b 00 0d 28 7f 1e 28 00 0a 2b 7f 46 2b 00  ..+..(..(..+.F+.
0000afc0: 0a 32 7f 1e 32 00 0a 31 7f 3c 31 00 14 31 7f 16  .2..2..1.<1..1..
0000afd0: 31 00 12 2f 7f 69 2f 00 0f 2f 7f 46 2f 00 0a 2b  1../.i/../.F/..+
0000afe0: 7f 1b 2b 00 0d 28 7f 46 28 00 0a 28 7f 1e 28 00  ..+..(.F(..(..(.
0000aff0: 0a 28 7f 23 28 00 05 28 7f 23 28 00 05 28 7f 1b  .(.#(..(.#(..(..
0000b000: 28 00 0d 2b 7f 66 2b 00 12 2d 7f 19 2d 00 0f 2d  (..+.f+..-..-..-
0000b010: 7f 19 2d 00 0f 2d 7f 16 2d 00 12 34 7f 39 34 00  ..-..-..-..4.94.
0000b020: 17 34 7f 19 34 00 0f 2d 7f 3e 2d 00 12 2d 7f 20  .4..4..-.>-..-. 
0000b030: 2d 00 08 34 7f 50 34 00 28 2d 7f 43 2d 00 0d 2d  -..4.P4.(-.C-..-
0000b040: 7f 1b 2d 00 0d 34 7f 39 34 00 17 34 7f 19 34 00  ..-..4.94..4..4.
0000b050: 0f 2d 7f 1b 2d 00 0d 2d 7f 16 2d 00 0f 2d 7f 1c  .-..-..-..-..-..
0000b060: 2d 00 0f 34 7f 60 34 00 18 28 7f 2f 28 00 21 28  -..4.`4..(./(.!(
0000b070: 7f 25 28 00 03 2f 7f 37 2f 00 19 2f 7f 16 2f 00  .%(../.7/../../.
0000b080: 12 28 7f 42 28 00 0e 28 7f 20 28 00 08 2f 7f 4b  .(.B(..(. (../.K
0000b090: 2f 00 2d 28 7f 32 28 00 1e 28 7f 21 28 00 07 34  /.-(.2(..(.!(..4
0000b0a0: 7f 33 34 00 1d 2f 7f 1b 2f 00 0d 28 7f 4b 28 00  .34../../..(.K(.
0000b0b0: 05 34 7f 20 34 00 08 2f 7f 35 2f 00 43 33 7f 3c  .4. 4../.5/.C3.<
0000b0c0: 33 00 14 36 7f 1e 36 00 0a 33 7f 48 33 00 08 36  3..6..6..3.H3..6
0000b0d0: 7f 20 36 00 08 33 7f 43 33 00 0d 36 7f 69 36 00  . 6..3.C3..6.i6.
0000b0e0: 38 31 7f 45 31 00 0a 34 7f 1e 34 00 0b 31 7f 47  81.E1..4..4..1.G
0000b0f0: 31 00 08 34 7f 1b 34 00 0d 31 7f 43 31 00 0d 34  1..4..4..1.C1..4
0000b100: 7f 55 34 00 4b 28 7f 3c 28 00 14 28 7f 1b 28 00  .U4.K(.<(..(..(.
0000b110: 0d 2f 7f 35 2f 00 1b 2f 7f 1e 2f 00 0a 28 7f 3c  ./.5/../../..(.<
0000b120: 28 00 14 28 7f 1e 28 00 0a 2f 7f 64 2f 00 14 28  (..(..(../.d/..(
0000b130: 7f 3c 28 00 14 28 7f 1e 28 00 0a 2f 7f 3d 2f 00  .<(..(..(../.=/.
0000b140: 13 2f 7f 19 2f 00 14 2a 7f 39 2a 00 12 2a 7f 19  ./../..*.9*..*..
0000b150: 2a 00 0f 2d 7f 46 2d 00 0a 2d 7f 1e 2d 00 0a 28  *..-.F-..-..-..(
0000b160: 7f 44 28 00 0c 28 7f 1e 28 00 0a 2f 7f 3e 2f 00  .D(..(..(../.>/.
0000b170: 12 2f 7f 1e 2f 00 0a 28 7f 3e 28 00 12 28 7f 1e  ./../..(.>(..(..
0000b180: 28 00 0a 2f 7f 43 2f 00 0d 2f 7f 1e 2f 00 0a 2d  (../.C/../../..-
0000b190: 7f 3e 2d 00 12 2d 7f 1e 2d 00 0a 34 7f 37 34 00  .>-..-..-..4.74.
0000b1a0: 19 34 7f 25 34 00 03 2d 7f 39 2d 00 17 2d 7f 16  .4.%4..-.9-..-..
0000b1b0: 2d 00 12 34 7f 37 34 00 19 34 7f 1a 34 00 10 28  -..4.74..4..4..(
0000b1c0: 7f 32 28 00 1c 28 7f 19 28 00 0f 2f 7f 34 2f 00  .2(..(..(../.4/.
0000b1d0: 1c 2f 7f 1c 2f 00 0c 28 7f 3a 28 00 16 28 7f 1e  ./../..(.:(..(..
0000b1e0: 28 00 0b 2f 7f 36 2f 00 19 2f 7f 1e 2f 00 0a 28  (../.6/../../..(
0000b1f0: 7f 3e 28 00 13 28 7f 20 28 00 09 2f 7f 35 2f 00  .>(..(. (../.5/.
0000b200: 19 2f 7f 1b 2f 00 0d 28 7f 35 28 00 1b 28 7f 1b  ./../..(.5(..(..
0000b210: 28 00 0e 2f 7f 38 2f 00 19 2f 7f 1c 2f 00 0a 2d  (../.8/../../..-
0000b220: 7f 37 2d 00 19 2d 7f 1b 2d 00 0d 34 7f 37 34 00  .7-..-..-..4.74.
0000b230: 19 34 7f 1a 34 00 0f 2d 7f 3d 2d 00 12 2d 7f 1e  .4..4..-.=-..-..
0000b240: 2d 00 0a 34 7f 2f 34 00 1e 34 7f 1c 34 00 0f 2d  -..4./4..4..4..-
0000b250: 7f 35 2d 00 1b 2d 7f 1e 2d 00 0a 34 7f 33 34 00  .5-..-..-..4.34.
0000b260: 1d 34 7f 1e 34 00 0a 2d 7f 37 2d 00 19 2d 7f 20  .4..4..-.7-..-. 
0000b270: 2d 00 08 34 7f 37 34 00 19 34 7f 23 34 00 05 28  -..4.74..4.#4..(
0000b280: 7f 3c 28 00 14 28 7f 1f 28 00 09 2f 7f 2f 2f 00  .<(..(..(.././/.
0000b290: 21 2f 7f 1e 2f 00 0a 28 7f 32 28 00 1e 28 7f 1b  !/../..(.2(..(..
0000b2a0: 28 00 0f 2f 7f 30 2f 00 1e 2f 7f 19 2f 00 14 2f  (../.0/../../../
0000b2b0: 7f 3c 2f 00 0f 2d 7f 6e 2d 00 0a 2b 7f 1e 2b 00  .</..-.n-..+..+.
0000b2c0: 0a 2d 7f 46 2d 00 0a 2b 7f 1e 2b 00 0a 28 7f 70  .-.F-..+..+..(.p
0000b2d0: 28 00 09 34 7f 39 34 00 16 34 7f 1f 34 00 09 31  (..4.94..4..4..1
0000b2e0: 7f 32 31 00 1e 31 7f 19 31 00 0f 32 7f 35 32 00  .21..1..1..2.52.
0000b2f0: 1b 32 7f 1e 32 00 0a 2f 7f 37 2f 00 19 2f 7f 1b  .2..2../.7/../..
0000b300: 2f 00 0d 2d 7f 39 2d 00 17 2d 7f 1e 2d 00 0a 34  /..-.9-..-..-..4
0000b310: 7f 30 34 00 20 34 7f 1b 34 00 0d 2d 7f 39 2d 00  .04. 4..4..-.9-.
0000b320: 17 2d 7f 1a 2d 00 0f 34 7f 36 34 00 19 34 7f 19  .-..-..4.64..4..
0000b330: 34 00 0f 28 7f 47 28 00 09 28 7f 1e 28 00 0b 2f  4..(.G(..(..(../
0000b340: 7f 38 2f 00 17 2f 7f 1a 2f 00 0e 2b 7f 33 2b 00  .8/../../..+.3+.
0000b350: 1d 28 7f 1e 28 00 0c 26 7f 30 26 00 1b 23 7f 1c  .(..(..&.0&..#..
0000b360: 23 00 11 28 7f 30 28 00 1e 28 7f 15 28 00 15 2f  #..(.0(..(..(../
0000b370: 7f 2b 2f 00 23 2f 7f 19 2f 00 0f 34 7f 46 34 00  .+/.#/../..4.F4.
0000b380: 0a 2f 7f 1e 2f 00 0a 2f 7f 6e 2f 00 00 ff 2f 00  ./../../.n/.../.
0000b390: 4d 54 72 6b 00 00 3a a0 00 ff 21 01 00 00 ff 03  MTrk..:...!.....
0000b3a0: 05 44 72 75 6d 73 8a 28 9f 31 50 00 26 50 07 26  .Drums.(.1P.&P.&
0000b3b0: 00 03 31 00 00 26 50 07 26 00 03 26 50 07 26 00  ..1..&P.&..&P.&.
0000b3c0: 03 26 50 07 26 00 03 26 50 07 26 00 03 26 50 07  .&P.&..&P.&..&P.
0000b3d0: 26 00 03 26 50 07 26 00 03 26 50 05 26 00 02 26  &..&P.&..&P.&..&
0000b3e0: 50 05 26 00 03 26 50 05 26 00 05 26 50 05 26 00  P.&..&P.&..&P.&.
0000b3f0: 05 26 50 05 26 00 05 26 50 05 26 00 00 2d 40 00  .&P.&..&P.&..-@.
0000b400: 39 40 00 3f 40 02 26 50 03 2c 40 07 39 00 03 26  9@.?@.&P.,@.9..&
0000b410: 00 02 2c 00 08 3f 00 00 2d 00 32 3c 40 05 39 40  ..,..?..-.2<@.9@
0000b420: 0a 3c 00 02 39 00 1c 2d 40 00 39 40 02 26 50 03  .<..9..-@.9@.&P.
0000b430: 2c 40 02 31 50 05 39 00 03 26 00 02 2c 00 03 31  ,@.1P.9..&..,..1
0000b440: 00 05 2d 00 37 39 40 0c 39 00 1c 2d 40 02 39 40  ..-.79@.9..-@.9@
0000b450: 03 2c 40 0a 39 00 02 2c 00 08 2d 00 37 39 40 0c  .,@.9..,..-.79@.
0000b460: 39 00 17 3c 40 05 2d 40 00 26 50 00 39 40 05 2c  9..<@.-@.&P.9@.,
0000b470: 40 00 31 50 05 3c 00 02 39 00 05 2c 00 08 2d 00  @.1P.<..9..,..-.
0000b480: 00 26 00 05 31 00 2f 39 40 0d 39 00 1e 2d 40 00  .&..1./9@.9..-@.
0000b490: 39 40 05 2c 40 07 39 00 05 2c 00 08 2d 00 37 39  9@.,@.9..,..-.79
0000b4a0: 40 0c 39 00 19 3c 40 03 2d 40 00 39 40 02 26 50  @.9..<@.-@.9@.&P
0000b4b0: 03 2c 40 02 31 50 05 39 00 00 3c 00 03 26 00 02  .,@.1P.9..<..&..
0000b4c0: 2c 00 03 31 00 05 2d 00 37 39 40 0c 39 00 1c 2d  ,..1..-.79@.9..-
0000b4d0: 40 02 39 40 03 2c 40 0a 39 00 02 2c 00 08 2d 00  @.9@.,@.9..,..-.
0000b4e0: 37 39 40 0c 39 00 17 3c 40 05 2d 40 00 26 50 00  79@.9..<@.-@.&P.
0000b4f0: 39 40 05 2c 40 00 31 50 05 3c 00 02 39 00 05 2c  9@.,@.1P.<..9..,
0000b500: 00 08 2d 00 00 26 00 05 31 00 32 39 40 0c 39 00  ..-..&..1.29@.9.
0000b510: 1c 2d 40 00 39 40 05 2c 40 07 39 00 05 2c 00 08  .-@.9@.,@.9..,..
0000b520: 2d 00 32 3c 40 05 39 40 0a 3c 00 03 39 00 16 3c  -.2<@.9@.<..9..<
0000b530: 40 05 2d 40 02 26 50 00 39 40 03 2c 40 02 31 50  @.-@.&P.9@.,@.1P
0000b540: 03 3c 00 05 39 00 00 26 00 02 2c 00 03 31 00 05  .<..9..&..,..1..
0000b550: 2d 00 34 39 40 0d 39 00 1e 2d 40 02 39 40 03 2c  -.49@.9..-@.9@.,
0000b560: 40 0a 39 00 02 2c 00 08 2d 00 37 39 40 0c 39 00  @.9..,..-.79@.9.
0000b570: 17 3c 40 05 2d 40 00 26 50 02 39 40 03 2c 40 00  .<@.-@.&P.9@.,@.
0000b580: 31 50 0a 39 00 01 3c 00 01 2c 00 08 2d 00 00 26  1P.9..<..,..-..&
0000b590: 00 05 31 00 32 39 40 0c 39 00 1c 2d 40 00 39 40  ..1.29@.9..-@.9@
0000b5a0: 0a 2c 40 02 39 00 0a 2c 00 03 2d 00 37 39 40 0c  .,@.9..,..-.79@.
0000b5b0: 39 00 19 3c 40 03 2d 40 00 39 40 02 26 50 05 31  9..<@.-@.9@.&P.1
0000b5c0: 50 03 2c 40 02 39 00 00 3c 00 03 26 00 05 31 00  P.,@.9..<..&..1.
0000b5d0: 02 2c 00 03 2d 00 37 39 40 0c 39 00 1c 2d 40 02  .,..-.79@.9..-@.
0000b5e0: 39 40 08 2c 40 05 39 00 07 2c 00 03 2d 00 37 39  9@.,@.9..,..-.79
0000b5f0: 40 0c 39 00 17 3c 40 05 2d 40 00 26 50 00 39 40  @.9..<@.-@.&P.9@
0000b600: 05 31 50 05 3c 00 00 2c 40 02 39 00 0a 2c 00 03  .1P.<..,@.9..,..
0000b610: 2d 00 00 26 00 05 31 00 2f 39 40 0d 39 00 1e 2d  -..&..1./9@.9..-
0000b620: 40 00 39 40 0a 2c 40 02 39 00 0a 2c 00 03 2d 00  @.9@.,@.9..,..-.
0000b630: 37 26 50 00 39 40 05 31 50 07 39 00 01 26 00 04  7&P.9@.1P.9..&..
0000b640: 31 00 12 3c 40 05 2d 40 00 39 40 02 26 50 05 31  1..<@.-@.9@.&P.1
0000b650: 50 03 3c 00 00 2c 40 02 39 00 03 26 00 05 31 00  P.<..,@.9..&..1.
0000b660: 02 2c 00 03 2d 00 0f 39 40 0c 39 00 1c 26 50 00  .,..-..9@.9..&P.
0000b670: 39 40 05 31 50 07 39 00 03 26 00 05 31 00 14 2d  9@.1P.9..&..1..-
0000b680: 40 02 39 40 08 2c 40 05 39 00 07 2c 00 03 2d 00  @.9@.,@.9..,..-.
0000b690: 37 39 40 01 26 50 04 31 50 07 39 00 01 26 00 07  79@.&P.1P.9..&..
0000b6a0: 31 00 0f 3c 40 05 2d 40 00 26 50 00 39 40 05 31  1..<@.-@.&P.9@.1
0000b6b0: 50 05 3c 00 00 2c 40 02 39 00 0a 2c 00 03 2d 00  P.<..,@.9..,..-.
0000b6c0: 00 26 00 05 31 00 0a 39 40 0c 39 00 19 39 40 0d  .&..1..9@.9..9@.
0000b6d0: 39 00 1e 2d 40 00 39 40 02 26 50 08 2c 40 00 31  9..-@.9@.&P.,@.1
0000b6e0: 50 02 39 00 05 26 00 05 2c 00 03 31 00 00 2d 00  P.9..&..,..1..-.
0000b6f0: 32 3c 40 05 39 40 0a 3c 00 02 39 00 15 3c 40 07  2<@.9@.<..9..<@.
0000b700: 2d 40 00 39 40 02 26 50 05 31 50 03 3c 00 00 2c  -@.9@.&P.1P.<..,
0000b710: 40 02 39 00 03 26 00 05 31 00 02 2c 00 03 2d 00  @.9..&..1..,..-.
0000b720: 37 39 40 0c 39 00 1c 2d 40 02 39 40 08 2c 40 05  79@.9..-@.9@.,@.
0000b730: 39 00 07 2c 00 03 2d 00 32 3c 40 05 39 40 0a 3c  9..,..-.2<@.9@.<
0000b740: 00 02 39 00 17 3c 40 05 2d 40 00 26 50 00 39 40  ..9..<@.-@.&P.9@
0000b750: 05 31 50 05 3c 00 00 2c 40 02 39 00 0a 2c 00 03  .1P.<..,@.9..,..
0000b760: 2d 00 00 26 00 05 31 00 2f 39 40 0d 39 00 1e 2d  -..&..1./9@.9..-
0000b770: 40 00 39 40 0a 2c 40 02 39 00 0a 2c 00 03 2d 00  @.9@.,@.9..,..-.
0000b780: 37 39 40 0c 39 00 19 3c 40 03 2d 40 00 39 40 02  79@.9..<@.-@.9@.
0000b790: 26 50 05 31 50 03 3c 00 00 2c 40 02 39 00 03 26  &P.1P.<..,@.9..&
0000b7a0: 00 05 31 00 02 2c 00 03 2d 00 37 39 40 0c 39 00  ..1..,..-.79@.9.
0000b7b0: 1c 2d 40 02 39 40 08 2c 40 05 39 00 07 2c 00 03  .-@.9@.,@.9..,..
0000b7c0: 2d 00 37 39 40 0c 39 00 17 3c 40 05 2d 40 00 26  -.79@.9..<@.-@.&
0000b7d0: 50 00 39 40 05 31 50 05 3c 00 00 2c 40 02 39 00  P.9@.1P.<..,@.9.
0000b7e0: 0a 2c 00 03 2d 00 00 26 00 05 31 00 2f 39 40 0d  .,..-..&..1./9@.
0000b7f0: 39 00 1e 2d 40 00 39 40 0a 2c 40 02 39 00 0a 2c  9..-@.9@.,@.9..,
0000b800: 00 03 2d 00 37 39 40 0c 39 00 17 3c 40 05 2d 40  ..-.79@.9..<@.-@
0000b810: 00 39 40 02 26 50 05 31 50 03 3c 00 00 2c 40 02  .9@.&P.1P.<..,@.
0000b820: 39 00 03 26 00 05 31 00 02 2c 00 03 2d 00 37 39  9..&..1..,..-.79
0000b830: 40 0c 39 00 1c 2d 40 02 39 40 08 2c 40 05 39 00  @.9..-@.9@.,@.9.
0000b840: 07 2c 00 03 2d 00 37 39 40 0c 39 00 18 3c 40 04  .,..-.79@.9..<@.
0000b850: 2d 40 00 26 50 00 39 40 05 31 50 05 3c 00 00 2c  -@.&P.9@.1P.<..,
0000b860: 40 02 39 00 0a 2c 00 03 2d 00 00 26 00 05 31 00  @.9..,..-..&..1.
0000b870: 2f 39 40 0d 39 00 1e 2d 40 00 39 40 0a 2c 40 02  /9@.9..-@.9@.,@.
0000b880: 39 00 0a 2c 00 03 2d 00 37 39 40 0c 39 00 17 3c  9..,..-.79@.9..<
0000b890: 40 05 2d 40 00 39 40 02 26 50 05 31 50 03 3c 00  @.-@.9@.&P.1P.<.
0000b8a0: 00 2c 40 02 39 00 03 26 00 05 31 00 02 2c 00 03  .,@.9..&..1..,..
0000b8b0: 2d 00 37 39 40 0c 39 00 1c 2d 40 02 39 40 08 2c  -.79@.9..-@.9@.,
0000b8c0: 40 05 39 00 07 2c 00 03 2d 00 37 39 40 0c 39 00  @.9..,..-.79@.9.
0000b8d0: 14 3c 40 08 2d 40 00 26 50 00 39 40 05 31 50 05  .<@.-@.&P.9@.1P.
0000b8e0: 3c 00 00 2c 40 02 39 00 0a 2c 00 03 2d 00 00 26  <..,@.9..,..-..&
0000b8f0: 00 05 31 00 2f 39 40 0d 39 00 1e 2d 40 00 39 40  ..1./9@.9..-@.9@
0000b900: 0a 2c 40 02 39 00 0a 2c 00 03 2d 00 2f 3c 40 08  .,@.9..,..-./<@.
0000b910: 39 40 0a 3c 00 02 39 00 17 3c 40 05 2d 40 00 39  9@.<..9..<@.-@.9
0000b920: 40 02 26 50 05 31 50 03 2c 40 02 39 00 00 3c 00  @.&P.1P.,@.9..<.
0000b930: 03 26 00 05 31 00 02 2c 00 03 2d 00 37 39 40 0c  .&..1..,..-.79@.
0000b940: 39 00 1c 2d 40 02 39 40 08 2c 40 05 39 00 07 2c  9..-@.9@.,@.9..,
0000b950: 00 03 2d 00 37 39 40 0c 39 00 17 3c 40 05 2d 40  ..-.79@.9..<@.-@
0000b960: 00 26 50 00 39 40 05 31 50 05 3c 00 00 2c 40 02  .&P.9@.1P.<..,@.
0000b970: 39 00 0a 2c 00 03 2d 00 00 26 00 05 31 00 2f 39  9..,..-..&..1./9
0000b980: 40 0d 39 00 1e 2d 40 00 39 40 0a 2c 40 02 39 00  @.9..-@.9@.,@.9.
0000b990: 0a 2c 00 03 2d 00 37 39 40 0c 39 00 19 3c 40 03  .,..-.79@.9..<@.
0000b9a0: 2d 40 00 39 40 02 26 50 05 31 50 03 2c 40 02 39  -@.9@.&P.1P.,@.9
0000b9b0: 00 03 26 00 00 3c 00 05 31 00 02 2c 00 03 2d 00  ..&..<..1..,..-.
0000b9c0: 37 39 40 0c 39 00 1c 2d 40 02 39 40 08 2c 40 05  79@.9..-@.9@.,@.
0000b9d0: 39 00 07 2c 00 03 2d 00 37 39 40 0c 39 00 17 3c  9..,..-.79@.9..<
0000b9e0: 40 05 2d 40 00 26 50 00 39 40 05 31 50 05 3c 00  @.-@.&P.9@.1P.<.
0000b9f0: 00 2c 40 02 39 00 0a 2c 00 03 2d 00 00 26 00 05  .,@.9..,..-..&..
0000ba00: 31 00 2f 39 40 0d 39 00 1e 2d 40 00 39 40 0a 2c  1./9@.9..-@.9@.,
0000ba10: 40 02 39 00 0a 2c 00 03 2d 00 32 3c 40 05 39 40  @.9..,..-.2<@.9@
0000ba20: 0a 3c 00 02 39 00 17 3c 40 05 2d 40 00 39 40 02  .<..9..<@.-@.9@.
0000ba30: 26 50 05 31 50 03 3c 00 00 2c 40 02 39 00 03 26  &P.1P.<..,@.9..&
0000ba40: 00 05 31 00 02 2c 00 03 2d 00 37 39 40 0c 39 00  ..1..,..-.79@.9.
0000ba50: 1c 2d 40 02 39 40 08 2c 40 05 39 00 07 2c 00 03  .-@.9@.,@.9..,..
0000ba60: 2d 00 32 3c 40 05 39 40 0a 3c 00 02 39 00 18 3c  -.2<@.9@.<..9..<
0000ba70: 40 04 2d 40 00 26 50 00 39 40 05 31 50 05 3c 00  @.-@.&P.9@.1P.<.
0000ba80: 00 2c 40 02 39 00 0a 2c 00 03 2d 00 00 26 00 05  .,@.9..,..-..&..
0000ba90: 31 00 2f 39 40 0d 39 00 1e 2d 40 00 39 40 0a 2c  1./9@.9..-@.9@.,
0000baa0: 40 02 39 00 0a 2c 00 03 2d 00 32 3c 40 05 26 50  @.9..,..-.2<@.&P
0000bab0: 00 39 40 05 31 50 07 39 00 03 26 00 02 3c 00 05  .9@.1P.9..&..<..
0000bac0: 31 00 12 2d 40 00 39 40 02 26 50 05 31 50 03 2c  1..-@.9@.&P.1P.,
0000bad0: 40 02 39 00 03 26 00 05 31 00 02 2c 00 03 2d 00  @.9..&..1..,..-.
0000bae0: 37 26 50 00 39 40 07 31 50 05 31 00 00 39 00 03  7&P.9@.1P.1..9..
0000baf0: 26 00 19 2d 40 02 26 50 00 39 40 08 2c 40 02 31  &..-@.&P.9@.,@.1
0000bb00: 50 03 39 00 02 26 00 03 31 00 02 2c 00 03 2d 00  P.9..&..1..,..-.
0000bb10: 0f 26 50 0f 26 00 19 26 50 00 39 40 0c 39 00 03  .&P.&..&P.9@.9..
0000bb20: 26 00 19 2d 40 00 26 50 00 39 40 05 31 50 05 2c  &..-@.&P.9@.1P.,
0000bb30: 40 02 39 00 0a 2c 00 03 2d 00 00 26 00 05 31 00  @.9..,..-..&..1.
0000bb40: 2f 39 40 03 26 50 0a 39 00 05 26 00 19 2d 40 00  /9@.&P.9..&..-@.
0000bb50: 39 40 02 39 40 03 2c 40 00 26 50 07 39 00 03 39  9@.9@.,@.&P.9..9
0000bb60: 00 02 2c 00 03 26 00 05 2d 00 37 39 40 0c 39 00  ..,..&..-.79@.9.
0000bb70: 19 3c 40 03 2d 40 00 39 40 02 26 50 03 2c 40 02  .<@.-@.9@.&P.,@.
0000bb80: 31 50 05 39 00 00 3c 00 03 26 00 02 2c 00 03 31  1P.9..<..&..,..1
0000bb90: 00 05 2d 00 37 39 40 0c 39 00 1c 2d 40 02 39 40  ..-.79@.9..-@.9@
0000bba0: 03 2c 40 0a 39 00 02 2c 00 08 2d 00 37 39 40 0c  .,@.9..,..-.79@.
0000bbb0: 39 00 17 3c 40 05 2d 40 00 26 50 00 39 40 05 2c  9..<@.-@.&P.9@.,
0000bbc0: 40 00 31 50 05 3c 00 02 39 00 05 2c 00 08 2d 00  @.1P.<..9..,..-.
0000bbd0: 00 26 00 05 31 00 32 39 40 0c 39 00 1c 2d 40 00  .&..1.29@.9..-@.
0000bbe0: 39 40 05 2c 40 07 39 00 05 2c 00 08 2d 00 32 3c  9@.,@.9..,..-.2<
0000bbf0: 40 05 39 40 0a 3c 00 03 39 00 16 3c 40 05 2d 40  @.9@.<..9..<@.-@
0000bc00: 02 26 50 00 39 40 03 2c 40 02 31 50 03 3c 00 05  .&P.9@.,@.1P.<..
0000bc10: 39 00 00 26 00 02 2c 00 03 31 00 05 2d 00 34 39  9..&..,..1..-.49
0000bc20: 40 0d 39 00 1e 2d 40 02 39 40 03 2c 40 0a 39 00  @.9..-@.9@.,@.9.
0000bc30: 02 2c 00 08 2d 00 37 39 40 0c 39 00 17 3c 40 05  .,..-.79@.9..<@.
0000bc40: 2d 40 00 26 50 02 39 40 03 2c 40 00 31 50 0a 39  -@.&P.9@.,@.1P.9
0000bc50: 00 01 3c 00 01 2c 00 08 2d 00 00 26 00 05 31 00  ..<..,..-..&..1.
0000bc60: 0a 26 50 0c 26 00 1c 39 40 0c 39 00 1c 2d 40 00  .&P.&..9@.9..-@.
0000bc70: 39 40 0a 2c 40 02 39 00 0a 2c 00 03 2d 00 37 39  9@.,@.9..,..-.79
0000bc80: 40 0c 39 00 19 3c 40 03 2d 40 00 39 40 02 26 50  @.9..<@.-@.9@.&P
0000bc90: 05 31 50 03 2c 40 02 39 00 00 3c 00 03 26 00 05  .1P.,@.9..<..&..
0000bca0: 31 00 02 2c 00 03 2d 00 0f 26 50 0f 26 00 19 39  1..,..-..&P.&..9
0000bcb0: 40 0c 39 00 1c 2d 40 01 26 50 01 39 40 04 26 00  @.9..-@.&P.9@.&.
0000bcc0: 04 2c 40 00 26 50 05 26 00 00 39 00 03 26 50 04  .,@.&P.&..9..&P.
0000bcd0: 2c 00 01 26 00 02 2d 00 03 26 50 07 26 00 2d 39  ,..&..-..&P.&.-9
0000bce0: 40 0c 39 00 17 3c 40 05 2d 40 00 26 50 00 39 40  @.9..<@.-@.&P.9@
0000bcf0: 05 26 00 00 31 50 05 3c 00 00 2c 40 00 26 50 02  .&..1P.<..,@.&P.
0000bd00: 39 00 03 26 00 05 26 50 02 2c 00 03 26 00 00 2d  9..&..&P.,..&..-
0000bd10: 00 05 31 00 00 26 50 05 26 00 05 26 50 05 26 00  ..1..&P.&..&P.&.
0000bd20: 05 26 50 05 26 00 16 39 40 0d 39 00 1e 2d 40 00  .&P.&..9@.9..-@.
0000bd30: 39 40 0a 2c 40 02 39 00 0a 2c 00 03 2d 00 37 26  9@.,@.9..,..-.7&
0000bd40: 50 00 39 40 05 31 50 07 39 00 01 26 00 04 31 00  P.9@.1P.9..&..1.
0000bd50: 12 3c 40 05 2d 40 00 39 40 02 26 50 05 31 50 03  .<@.-@.9@.&P.1P.
0000bd60: 3c 00 00 2c 40 02 39 00 03 26 00 05 31 00 02 2c  <..,@.9..&..1..,
0000bd70: 00 03 2d 00 0f 39 40 0c 39 00 1c 26 50 00 39 40  ..-..9@.9..&P.9@
0000bd80: 05 31 50 07 39 00 03 26 00 05 31 00 14 2d 40 02  .1P.9..&..1..-@.
0000bd90: 26 50 00 39 40 08 2c 40 05 39 00 02 26 00 05 2c  &P.9@.,@.9..&..,
0000bda0: 00 03 2d 00 37 39 40 01 26 50 04 31 50 07 39 00  ..-.79@.&P.1P.9.
0000bdb0: 01 26 00 07 31 00 0f 3c 40 05 2d 40 00 26 50 00  .&..1..<@.-@.&P.
0000bdc0: 39 40 05 31 50 05 3c 00 00 2c 40 02 39 00 0a 2c  9@.1P.<..,@.9..,
0000bdd0: 00 03 2d 00 00 26 00 05 31 00 0a 39 40 0c 39 00  ..-..&..1..9@.9.
0000bde0: 19 39 40 0d 39 00 1e 2d 40 00 39 40 02 26 50 08  .9@.9..-@.9@.&P.
0000bdf0: 2c 40 00 31 50 02 39 00 05 26 00 05 2c 00 03 31  ,@.1P.9..&..,..1
0000be00: 00 00 2d 00 32 3c 40 05 39 40 0a 3c 00 00 26 50  ..-.2<@.9@.<..&P
0000be10: 02 39 00 0d 26 00 08 3c 40 07 2d 40 00 39 40 02  .9..&..<@.-@.9@.
0000be20: 26 50 05 31 50 03 3c 00 00 2c 40 02 39 00 03 26  &P.1P.<..,@.9..&
0000be30: 00 05 31 00 02 2c 00 03 2d 00 37 39 40 0c 39 00  ..1..,..-.79@.9.
0000be40: 1c 2d 40 02 26 50 00 39 40 08 2c 40 05 39 00 02  .-@.&P.9@.,@.9..
0000be50: 26 00 05 2c 00 03 2d 00 32 3c 40 05 39 40 0a 3c  &..,..-.2<@.9@.<
0000be60: 00 02 39 00 17 3c 40 05 2d 40 00 26 50 00 39 40  ..9..<@.-@.&P.9@
0000be70: 05 31 50 05 3c 00 00 2c 40 02 39 00 0a 2c 00 03  .1P.<..,@.9..,..
0000be80: 2d 00 00 26 00 05 31 00 2f 39 40 0d 39 00 1e 2d  -..&..1./9@.9..-
0000be90: 40 00 39 40 0a 2c 40 02 39 00 0a 2c 00 03 2d 00  @.9@.,@.9..,..-.
0000bea0: 37 39 40 0c 39 00 19 3c 40 03 2d 40 00 39 40 02  79@.9..<@.-@.9@.
0000beb0: 26 50 05 31 50 03 3c 00 00 2c 40 02 39 00 03 26  &P.1P.<..,@.9..&
0000bec0: 00 05 31 00 02 2c 00 03 2d 00 37 39 40 0c 39 00  ..1..,..-.79@.9.
0000bed0: 1c 2d 40 02 39 40 08 2c 40 05 39 00 07 2c 00 03  .-@.9@.,@.9..,..
0000bee0: 2d 00 37 39 40 0c 39 00 17 3c 40 05 2d 40 00 26  -.79@.9..<@.-@.&
0000bef0: 50 00 39 40 05 31 50 05 3c 00 00 2c 40 02 39 00  P.9@.1P.<..,@.9.
0000bf00: 0a 2c 00 03 2d 00 00 26 00 05 31 00 2f 39 40 0d  .,..-..&..1./9@.
0000bf10: 39 00 1e 2d 40 00 39 40 0a 2c 40 02 39 00 0a 2c  9..-@.9@.,@.9..,
0000bf20: 00 03 2d 00 37 39 40 0c 39 00 17 3c 40 05 2d 40  ..-.79@.9..<@.-@
0000bf30: 00 39 40 02 26 50 05 31 50 03 3c 00 00 2c 40 02  .9@.&P.1P.<..,@.
0000bf40: 39 00 03 26 00 05 31 00 02 2c 00 03 2d 00 37 39  9..&..1..,..-.79
0000bf50: 40 0c 39 00 1c 2d 40 02 39 40 08 2c 40 05 39 00  @.9..-@.9@.,@.9.
0000bf60: 07 2c 00 03 2d 00 37 39 40 0c 39 00 18 3c 40 04  .,..-.79@.9..<@.
0000bf70: 2d 40 00 26 50 00 39 40 05 31 50 05 3c 00 00 2c  -@.&P.9@.1P.<..,
0000bf80: 40 02 39 00 0a 2c 00 03 2d 00 00 26 00 05 31 00  @.9..,..-..&..1.
0000bf90: 2f 39 40 0d 39 00 1e 2d 40 00 39 40 0a 2c 40 02  /9@.9..-@.9@.,@.
0000bfa0: 39 00 0a 2c 00 03 2d 00 37 39 40 0c 39 00 17 3c  9..,..-.79@.9..<
0000bfb0: 40 05 2d 40 00 39 40 02 26 50 05 31 50 03 3c 00  @.-@.9@.&P.1P.<.
0000bfc0: 00 2c 40 02 39 00 03 26 00 05 31 00 02 2c 00 03  .,@.9..&..1..,..
0000bfd0: 2d 00 37 39 40 0c 39 00 1c 2d 40 02 39 40 08 2c  -.79@.9..-@.9@.,
0000bfe0: 40 05 39 00 07 2c 00 03 2d 00 37 39 40 0c 39 00  @.9..,..-.79@.9.
0000bff0: 14 3c 40 08 2d 40 00 26 50 00 39 40 05 31 50 05  .<@.-@.&P.9@.1P.
0000c000: 3c 00 00 2c 40 02 39 00 0a 2c 00 03 2d 00 00 26  <..,@.9..,..-..&
0000c010: 00 05 31 00 2f 39 40 03 26 50 05 26 00 05 39 00  ..1./9@.&P.&..9.
0000c020: 00 26 50 05 26 00 05 26 50 06 26 00 04 26 50 06  .&P.&..&P.&..&P.
0000c030: 26 00 04 2d 40 00 39 40 0a 2c 40 02 39 00 0a 2c  &..-@.9@.,@.9..,
0000c040: 00 03 2d 00 2f 3c 40 08 39 40 0a 3c 00 02 39 00  ..-./<@.9@.<..9.
0000c050: 17 3c 40 05 2d 40 00 39 40 02 26 50 05 31 50 03  .<@.-@.9@.&P.1P.
0000c060: 2c 40 02 39 00 00 3c 00 03 26 00 05 31 00 02 2c  ,@.9..<..&..1..,
0000c070: 00 03 2d 00 37 39 40 0c 39 00 1c 2d 40 02 39 40  ..-.79@.9..-@.9@
0000c080: 08 2c 40 05 39 00 07 2c 00 03 2d 00 37 39 40 0c  .,@.9..,..-.79@.
0000c090: 39 00 17 3c 40 05 2d 40 00 26 50 00 39 40 05 31  9..<@.-@.&P.9@.1
0000c0a0: 50 05 3c 00 00 2c 40 02 39 00 0a 2c 00 03 2d 00  P.<..,@.9..,..-.
0000c0b0: 00 26 00 05 31 00 2f 39 40 0d 39 00 1e 2d 40 00  .&..1./9@.9..-@.
0000c0c0: 39 40 0a 2c 40 02 39 00 0a 2c 00 03 2d 00 37 39  9@.,@.9..,..-.79
0000c0d0: 40 0c 39 00 19 3c 40 03 2d 40 00 39 40 02 26 50  @.9..<@.-@.9@.&P
0000c0e0: 05 31 50 03 2c 40 02 39 00 03 26 00 00 3c 00 05  .1P.,@.9..&..<..
0000c0f0: 31 00 02 2c 00 03 2d 00 37 39 40 0c 39 00 1c 2d  1..,..-.79@.9..-
0000c100: 40 02 39 40 08 2c 40 05 39 00 07 2c 00 03 2d 00  @.9@.,@.9..,..-.
0000c110: 37 39 40 0c 39 00 17 3c 40 05 2d 40 00 26 50 00  79@.9..<@.-@.&P.
0000c120: 39 40 05 31 50 05 3c 00 00 2c 40 02 39 00 0a 2c  9@.1P.<..,@.9..,
0000c130: 00 03 2d 00 00 26 00 05 31 00 2f 39 40 0d 39 00  ..-..&..1./9@.9.
0000c140: 1e 2d 40 00 39 40 0a 2c 40 02 39 00 0a 2c 00 03  .-@.9@.,@.9..,..
0000c150: 2d 00 32 3c 40 05 39 40 0a 3c 00 02 39 00 17 3c  -.2<@.9@.<..9..<
0000c160: 40 05 2d 40 00 39 40 02 26 50 05 31 50 03 3c 00  @.-@.9@.&P.1P.<.
0000c170: 00 2c 40 02 39 00 03 26 00 05 31 00 02 2c 00 03  .,@.9..&..1..,..
0000c180: 2d 00 37 39 40 0c 39 00 1c 2d 40 02 39 40 08 2c  -.79@.9..-@.9@.,
0000c190: 40 05 39 00 07 2c 00 03 2d 00 32 3c 40 05 39 40  @.9..,..-.2<@.9@
0000c1a0: 0a 3c 00 02 39 00 18 3c 40 04 2d 40 00 26 50 00  .<..9..<@.-@.&P.
0000c1b0: 39 40 05 31 50 05 3c 00 00 2c 40 02 39 00 0a 2c  9@.1P.<..,@.9..,
0000c1c0: 00 03 2d 00 00 26 00 05 31 00 2f 39 40 0d 39 00  ..-..&..1./9@.9.
0000c1d0: 1e 2d 40 00 39 40 0a 2c 40 02 39 00 0a 2c 00 03  .-@.9@.,@.9..,..
0000c1e0: 2d 00 32 3c 40 05 26 50 00 39 40 05 31 50 07 39  -.2<@.&P.9@.1P.9
0000c1f0: 00 03 26 00 02 3c 00 05 31 00 12 2d 40 00 39 40  ..&..<..1..-@.9@
0000c200: 02 26 50 05 31 50 03 2c 40 02 39 00 03 26 00 05  .&P.1P.,@.9..&..
0000c210: 31 00 02 2c 00 03 2d 00 37 26 50 00 39 40 07 31  1..,..-.7&P.9@.1
0000c220: 50 05 31 00 00 39 00 03 26 00 19 2d 40 02 26 50  P.1..9..&..-@.&P
0000c230: 00 39 40 08 2c 40 02 31 50 03 39 00 02 26 00 03  .9@.,@.1P.9..&..
0000c240: 31 00 02 2c 00 03 2d 00 0f 3f 40 1e 3f 00 0a 39  1..,..-..?@.?..9
0000c250: 40 0c 39 00 1c 2d 40 00 26 50 00 39 40 05 31 50  @.9..-@.&P.9@.1P
0000c260: 05 2c 40 02 39 00 0a 2c 00 03 2d 00 00 26 00 05  .,@.9..,..-..&..
0000c270: 31 00 2f 39 40 03 26 50 0a 39 00 05 26 00 19 2d  1./9@.&P.9..&..-
0000c280: 40 00 39 40 05 2c 40 07 39 00 05 2c 00 08 2d 00  @.9@.,@.9..,..-.
0000c290: 37 39 40 0c 39 00 19 3c 40 03 2d 40 00 39 40 02  79@.9..<@.-@.9@.
0000c2a0: 26 50 03 2c 40 02 31 50 05 39 00 00 3c 00 03 26  &P.,@.1P.9..<..&
0000c2b0: 00 02 2c 00 03 31 00 05 2d 00 37 39 40 0c 39 00  ..,..1..-.79@.9.
0000c2c0: 1c 2d 40 02 39 40 03 2c 40 0a 39 00 02 2c 00 08  .-@.9@.,@.9..,..
0000c2d0: 2d 00 37 39 40 0c 39 00 17 3c 40 05 2d 40 00 26  -.79@.9..<@.-@.&
0000c2e0: 50 00 39 40 05 2c 40 00 31 50 05 3c 00 02 39 00  P.9@.,@.1P.<..9.
0000c2f0: 05 2c 00 08 2d 00 00 26 00 05 31 00 32 39 40 0c  .,..-..&..1.29@.
0000c300: 39 00 1c 2d 40 00 39 40 05 2c 40 07 39 00 05 2c  9..-@.9@.,@.9..,
0000c310: 00 08 2d 00 32 3c 40 05 39 40 0a 3c 00 03 39 00  ..-.2<@.9@.<..9.
0000c320: 16 3c 40 05 2d 40 02 26 50 00 39 40 03 2c 40 02  .<@.-@.&P.9@.,@.
0000c330: 31 50 03 3c 00 05 39 00 00 26 00 02 2c 00 03 31  1P.<..9..&..,..1
0000c340: 00 05 2d 00 34 39 40 0d 39 00 1e 2d 40 02 39 40  ..-.49@.9..-@.9@
0000c350: 03 2c 40 0a 39 00 02 2c 00 08 2d 00 37 39 40 0c  .,@.9..,..-.79@.
0000c360: 39 00 17 3c 40 05 2d 40 00 26 50 02 39 40 03 2c  9..<@.-@.&P.9@.,
0000c370: 40 00 31 50 0a 39 00 01 3c 00 01 2c 00 08 2d 00  @.1P.9..<..,..-.
0000c380: 00 26 00 05 31 00 32 39 40 0c 39 00 1c 2d 40 00  .&..1.29@.9..-@.
0000c390: 39 40 0a 2c 40 02 39 00 0a 2c 00 03 2d 00 37 39  9@.,@.9..,..-.79
0000c3a0: 40 0c 39 00 19 3c 40 03 2d 40 00 39 40 02 26 50  @.9..<@.-@.9@.&P
0000c3b0: 05 31 50 03 2c 40 02 39 00 00 3c 00 03 26 00 05  .1P.,@.9..<..&..
0000c3c0: 31 00 02 2c 00 03 2d 00 37 39 40 0c 39 00 1c 2d  1..,..-.79@.9..-
0000c3d0: 40 02 39 40 08 2c 40 05 39 00 07 2c 00 03 2d 00  @.9@.,@.9..,..-.
0000c3e0: 37 39 40 0c 39 00 17 3c 40 05 2d 40 00 26 50 00  79@.9..<@.-@.&P.
0000c3f0: 39 40 05 31 50 05 3c 00 00 2c 40 02 39 00 0a 2c  9@.1P.<..,@.9..,
0000c400: 00 03 2d 00 00 26 00 05 31 00 2f 39 40 0d 39 00  ..-..&..1./9@.9.
0000c410: 1e 2d 40 00 39 40 0a 2c 40 02 39 00 0a 2c 00 03  .-@.9@.,@.9..,..
0000c420: 2d 00 37 26 50 00 39 40 05 31 50 07 39 00 01 26  -.7&P.9@.1P.9..&
0000c430: 00 04 31 00 12 3c 40 05 2d 40 00 39 40 02 26 50  ..1..<@.-@.9@.&P
0000c440: 05 31 50 03 3c 00 00 2c 40 02 39 00 03 26 00 05  .1P.<..,@.9..&..
0000c450: 31 00 02 2c 00 03 2d 00 0f 39 40 0c 39 00 1c 26  1..,..-..9@.9..&
0000c460: 50 00 39 40 05 31 50 07 39 00 03 26 00 05 31 00  P.9@.1P.9..&..1.
0000c470: 14 2d 40 02 26 50 00 39 40 03 31 50 05 2c 40 05  .-@.&P.9@.1P.,@.
0000c480: 39 00 02 26 00 05 2c 00 03 31 00 00 2d 00 37 39  9..&..,..1..-.79
0000c490: 40 01 26 50 04 31 50 07 39 00 01 26 00 07 31 00  @.&P.1P.9..&..1.
0000c4a0: 0f 3c 40 05 2d 40 00 26 50 00 39 40 05 31 50 05  .<@.-@.&P.9@.1P.
0000c4b0: 3c 00 00 2c 40 02 39 00 05 26 00 05 2c 00 00 31  <..,@.9..&..,..1
0000c4c0: 00 03 2d 00 0f 26 50 00 39 40 05 31 50 07 39 00  ..-..&P.9@.1P.9.
0000c4d0: 03 26 00 07 31 00 0f 39 40 03 26 50 07 31 50 03  .&..1..9@.&P.1P.
0000c4e0: 39 00 05 26 00 0a 31 00 0f 2d 40 00 39 40 02 26  9..&..1..-@.9@.&
0000c4f0: 50 08 2c 40 00 31 50 02 39 00 05 26 00 05 2c 00  P.,@.1P.9..&..,.
0000c500: 03 31 00 00 2d 00 32 3c 40 05 39 40 0a 3c 00 02  .1..-.2<@.9@.<..
0000c510: 39 00 15 3c 40 07 2d 40 00 39 40 02 26 50 05 31  9..<@.-@.9@.&P.1
0000c520: 50 03 3c 00 00 2c 40 02 39 00 03 26 00 05 31 00  P.<..,@.9..&..1.
0000c530: 02 2c 00 03 2d 00 37 39 40 0c 39 00 1c 2d 40 02  .,..-.79@.9..-@.
0000c540: 39 40 08 2c 40 05 39 00 07 2c 00 03 2d 00 32 3c  9@.,@.9..,..-.2<
0000c550: 40 05 39 40 0a 3c 00 02 39 00 17 3c 40 05 2d 40  @.9@.<..9..<@.-@
0000c560: 00 26 50 00 39 40 05 31 50 05 3c 00 00 2c 40 02  .&P.9@.1P.<..,@.
0000c570: 39 00 0a 2c 00 03 2d 00 00 26 00 05 31 00 2f 39  9..,..-..&..1./9
0000c580: 40 0d 39 00 1e 2d 40 00 39 40 0a 2c 40 02 39 00  @.9..-@.9@.,@.9.
0000c590: 0a 2c 00 03 2d 00 37 39 40 0c 39 00 19 3c 40 03  .,..-.79@.9..<@.
0000c5a0: 2d 40 00 39 40 02 26 50 05 31 50 03 3c 00 00 2c  -@.9@.&P.1P.<..,
0000c5b0: 40 02 39 00 03 26 00 05 31 00 02 2c 00 03 2d 00  @.9..&..1..,..-.
0000c5c0: 37 39 40 0c 39 00 1c 2d 40 02 39 40 08 2c 40 05  79@.9..-@.9@.,@.
0000c5d0: 39 00 07 2c 00 03 2d 00 37 39 40 0c 39 00 17 3c  9..,..-.79@.9..<
0000c5e0: 40 05 2d 40 00 26 50 00 39 40 05 31 50 05 3c 00  @.-@.&P.9@.1P.<.
0000c5f0: 00 2c 40 02 39 00 0a 2c 00 03 2d 00 00 26 00 05  .,@.9..,..-..&..
0000c600: 31 00 2f 39 40 0d 39 00 1e 2d 40 00 39 40 0a 2c  1./9@.9..-@.9@.,
0000c610: 40 02 39 00 0a 2c 00 03 2d 00 37 39 40 0c 39 00  @.9..,..-.79@.9.
0000c620: 17 3c 40 05 2d 40 00 39 40 02 26 50 05 31 50 03  .<@.-@.9@.&P.1P.
0000c630: 3c 00 00 2c 40 02 39 00 03 26 00 05 31 00 02 2c  <..,@.9..&..1..,
0000c640: 00 03 2d 00 37 39 40 0c 39 00 1c 2d 40 02 39 40  ..-.79@.9..-@.9@
0000c650: 08 2c 40 05 39 00 07 2c 00 03 2d 00 37 39 40 0c  .,@.9..,..-.79@.
0000c660: 39 00 18 3c 40 04 2d 40 00 26 50 00 39 40 05 31  9..<@.-@.&P.9@.1
0000c670: 50 05 3c 00 00 2c 40 02 39 00 0a 2c 00 03 2d 00  P.<..,@.9..,..-.
0000c680: 00 26 00 05 31 00 2f 39 40 0d 39 00 1e 2d 40 00  .&..1./9@.9..-@.
0000c690: 39 40 0a 2c 40 02 39 00 0a 2c 00 03 2d 00 37 39  9@.,@.9..,..-.79
0000c6a0: 40 0c 39 00 17 3c 40 05 2d 40 00 39 40 02 26 50  @.9..<@.-@.9@.&P
0000c6b0: 05 31 50 03 3c 00 00 2c 40 02 39 00 03 26 00 05  .1P.<..,@.9..&..
0000c6c0: 31 00 02 2c 00 03 2d 00 37 26 50 00 39 40 07 31  1..,..-.7&P.9@.1
0000c6d0: 50 05 39 00 05 26 00 05 31 00 12 2d 40 00 26 50  P.9..&..1..-@.&P
0000c6e0: 02 39 40 05 31 50 03 2c 40 05 39 00 00 26 00 07  .9@.1P.,@.9..&..
0000c6f0: 2c 00 00 31 00 03 2d 00 37 26 50 00 39 40 07 31  ,..1..-.7&P.9@.1
0000c700: 50 05 39 00 00 26 00 0a 31 00 0a 3c 40 08 2d 40  P.9..&..1..<@.-@
0000c710: 00 26 50 00 39 40 05 31 50 05 3c 00 00 2c 40 02  .&P.9@.1P.<..,@.
0000c720: 39 00 08 26 00 02 2c 00 03 31 00 00 2d 00 34 39  9..&..,..1..-.49
0000c730: 40 0d 39 00 1e 2d 40 00 39 40 0a 2c 40 02 39 00  @.9..-@.9@.,@.9.
0000c740: 0a 2c 00 03 2d 00 2f 3c 40 08 39 40 0a 3c 00 02  .,..-./<@.9@.<..
0000c750: 39 00 17 3c 40 05 2d 40 00 39 40 02 26 50 05 31  9..<@.-@.9@.&P.1
0000c760: 50 03 2c 40 02 39 00 00 3c 00 03 26 00 05 31 00  P.,@.9..<..&..1.
0000c770: 02 2c 00 03 2d 00 37 39 40 0c 39 00 1c 2d 40 02  .,..-.79@.9..-@.
0000c780: 39 40 08 2c 40 05 39 00 07 2c 00 03 2d 00 37 39  9@.,@.9..,..-.79
0000c790: 40 0c 39 00 17 3c 40 05 2d 40 00 26 50 00 39 40  @.9..<@.-@.&P.9@
0000c7a0: 05 31 50 05 3c 00 00 2c 40 02 39 00 0a 2c 00 03  .1P.<..,@.9..,..
0000c7b0: 2d 00 00 26 00 05 31 00 2f 39 40 0d 39 00 1e 2d  -..&..1./9@.9..-
0000c7c0: 40 00 39 40 0a 2c 40 02 39 00 0a 2c 00 03 2d 00  @.9@.,@.9..,..-.
0000c7d0: 37 39 40 0c 39 00 19 3c 40 03 2d 40 00 39 40 02  79@.9..<@.-@.9@.
0000c7e0: 26 50 05 31 50 03 2c 40 02 39 00 03 26 00 00 3c  &P.1P.,@.9..&..<
0000c7f0: 00 05 31 00 02 2c 00 03 2d 00 37 39 40 0c 39 00  ..1..,..-.79@.9.
0000c800: 1c 2d 40 02 39 40 08 2c 40 05 39 00 07 2c 00 03  .-@.9@.,@.9..,..
0000c810: 2d 00 37 39 40 0c 39 00 17 3c 40 05 2d 40 00 26  -.79@.9..<@.-@.&
0000c820: 50 00 39 40 05 31 50 05 3c 00 00 2c 40 02 39 00  P.9@.1P.<..,@.9.
0000c830: 0a 2c 00 03 2d 00 00 26 00 05 31 00 2f 39 40 0d  .,..-..&..1./9@.
0000c840: 39 00 1e 2d 40 00 39 40 0a 2c 40 02 39 00 0a 2c  9..-@.9@.,@.9..,
0000c850: 00 03 2d 00 32 3c 40 05 39 40 0a 3c 00 02 39 00  ..-.2<@.9@.<..9.
0000c860: 17 3c 40 05 2d 40 00 39 40 02 26 50 05 31 50 03  .<@.-@.9@.&P.1P.
0000c870: 3c 00 00 2c 40 02 39 00 03 26 00 05 31 00 02 2c  <..,@.9..&..1..,
0000c880: 00 03 2d 00 37 39 40 0c 39 00 1c 2d 40 02 39 40  ..-.79@.9..-@.9@
0000c890: 08 2c 40 05 39 00 07 2c 00 03 2d 00 32 3c 40 05  .,@.9..,..-.2<@.
0000c8a0: 39 40 0a 3c 00 02 39 00 18 3c 40 04 2d 40 00 26  9@.<..9..<@.-@.&
0000c8b0: 50 00 39 40 05 31 50 05 3c 00 00 2c 40 02 39 00  P.9@.1P.<..,@.9.
0000c8c0: 0a 2c 00 03 2d 00 00 26 00 05 31 00 2f 39 40 0d  .,..-..&..1./9@.
0000c8d0: 39 00 1e 2d 40 00 39 40 02 26 50 03 31 50 05 2c  9..-@.9@.&P.1P.,
0000c8e0: 40 02 39 00 05 26 00 03 31 00 02 2c 00 03 2d 00  @.9..&..1..,..-.
0000c8f0: 0f 26 50 05 31 50 07 26 00 05 31 00 12 3c 40 05  .&P.1P.&..1..<@.
0000c900: 26 50 00 39 40 05 31 50 07 39 00 03 26 00 02 3c  &P.9@.1P.9..&..<
0000c910: 00 05 31 00 12 2d 40 00 39 40 02 26 50 05 31 50  ..1..-@.9@.&P.1P
0000c920: 03 2c 40 02 39 00 03 26 00 05 31 00 02 2c 00 03  .,@.9..&..1..,..
0000c930: 2d 00 0f 26 50 07 31 50 05 26 00 08 31 00 14 26  -..&P.1P.&..1..&
0000c940: 50 00 39 40 07 31 50 05 39 00 03 26 00 05 31 00  P.9@.1P.9..&..1.
0000c950: 14 2d 40 02 26 50 00 39 40 08 2c 40 02 31 50 03  .-@.&P.9@.,@.1P.
0000c960: 39 00 02 26 00 03 26 50 02 2c 00 03 2d 00 02 31  9..&..&P.,..-..1
0000c970: 00 08 26 00 05 26 50 07 31 50 05 26 00 08 31 00  ..&..&P.1P.&..1.
0000c980: 00 26 50 0c 26 00 08 26 50 00 39 40 07 31 50 05  .&P.&..&P.9@.1P.
0000c990: 39 00 03 26 00 05 31 00 14 2d 40 00 26 50 00 39  9..&..1..-@.&P.9
0000c9a0: 40 07 31 50 03 2c 40 02 39 00 03 26 00 07 2c 00  @.1P.,@.9..&..,.
0000c9b0: 00 31 00 03 2d 00 0f 26 50 07 31 50 08 26 00 07  .1..-..&P.1P.&..
0000c9c0: 31 00 0f 39 40 03 26 50 07 31 50 03 39 00 05 26  1..9@.&P.1P.9..&
0000c9d0: 00 0a 31 00 0f 2d 40 00 39 40 02 3f 40 03 2c 40  ..1..-@.9@.?@.,@
0000c9e0: 07 39 00 05 2c 00 08 2d 00 02 3f 00 35 39 40 0c  .9..,..-..?.59@.
0000c9f0: 39 00 1c 2d 40 00 39 40 00 3d 40 02 26 50 03 2c  9..-@.9@.=@.&P.,
0000ca00: 40 02 31 50 05 39 00 03 26 00 02 2c 00 03 31 00  @.1P.9..&..,..1.
0000ca10: 05 2d 00 02 3d 00 35 3c 40 0c 3c 00 1c 2d 40 05  .-..=.5<@.<..-@.
0000ca20: 2c 40 00 3c 40 0c 2c 00 03 3c 00 05 2d 00 34 3c  ,@.<@.,..<..-.4<
0000ca30: 40 12 3c 00 14 3c 40 05 2d 40 00 26 50 05 2c 40  @.<..<@.-@.&P.,@
0000ca40: 00 31 50 05 3c 00 07 2c 00 08 2d 00 00 26 00 05  .1P.<..,..-..&..
0000ca50: 31 00 32 39 40 0c 39 00 1c 2d 40 00 39 40 05 2c  1.29@.9..-@.9@.,
0000ca60: 40 07 39 00 05 2c 00 08 2d 00 32 3c 40 0f 3c 00  @.9..,..-.2<@.<.
0000ca70: 1e 2d 40 00 3c 40 02 26 50 03 2c 40 02 31 50 08  .-@.<@.&P.,@.1P.
0000ca80: 26 00 00 3c 00 02 2c 00 03 31 00 05 2d 00 34 39  &..<..,..1..-.49
0000ca90: 40 0d 39 00 1e 2d 40 02 39 40 03 2c 40 0a 39 00  @.9..-@.9@.,@.9.
0000caa0: 02 2c 00 08 2d 00 37 39 40 0c 39 00 1c 2d 40 00  .,..-.79@.9..-@.
0000cab0: 26 50 05 2c 40 00 31 50 00 3c 40 0c 2c 00 08 2d  &P.,@.1P.<@.,..-
0000cac0: 00 00 3c 00 00 26 00 05 31 00 32 39 40 0c 39 00  ..<..&..1.29@.9.
0000cad0: 1c 2d 40 00 39 40 0a 2c 40 02 39 00 0a 2c 00 03  .-@.9@.,@.9..,..
0000cae0: 2d 00 37 39 40 0c 39 00 1c 2d 40 02 26 50 00 3c  -.79@.9..-@.&P.<
0000caf0: 40 05 31 50 03 2c 40 05 26 00 02 3c 00 03 31 00  @.1P.,@.&..<..1.
0000cb00: 02 2c 00 03 2d 00 37 39 40 0c 39 00 1c 2d 40 02  .,..-.79@.9..-@.
0000cb10: 39 40 08 2c 40 05 39 00 07 2c 00 03 2d 00 37 39  9@.,@.9..,..-.79
0000cb20: 40 0c 39 00 1c 2d 40 00 26 50 00 3c 40 05 31 50  @.9..-@.&P.<@.1P
0000cb30: 05 2c 40 07 3c 00 05 2c 00 03 2d 00 00 26 00 05  .,@.<..,..-..&..
0000cb40: 31 00 2f 39 40 0d 39 00 1e 2d 40 00 39 40 0a 2c  1./9@.9..-@.9@.,
0000cb50: 40 02 39 00 0a 2c 00 03 2d 00 37 26 50 00 39 40  @.9..,..-.7&P.9@
0000cb60: 05 31 50 07 39 00 01 26 00 04 31 00 12 3c 40 05  .1P.9..&..1..<@.
0000cb70: 2d 40 00 39 40 02 26 50 05 31 50 03 3c 00 00 2c  -@.9@.&P.1P.<..,
0000cb80: 40 02 39 00 03 26 00 05 31 00 02 2c 00 03 2d 00  @.9..&..1..,..-.
0000cb90: 0f 39 40 0c 39 00 1c 26 50 00 39 40 05 31 50 07  .9@.9..&P.9@.1P.
0000cba0: 39 00 03 26 00 05 31 00 14 2d 40 02 26 50 00 39  9..&..1..-@.&P.9
0000cbb0: 40 08 2c 40 05 39 00 02 26 00 05 2c 00 03 2d 00  @.,@.9..&..,..-.
0000cbc0: 37 39 40 01 26 50 04 31 50 07 39 00 01 26 00 07  79@.&P.1P.9..&..
0000cbd0: 31 00 14 2d 40 00 26 50 00 3c 40 05 31 50 05 2c  1..-@.&P.<@.1P.,
0000cbe0: 40 05 3c 00 07 2c 00 03 2d 00 00 26 00 05 31 00  @.<..,..-..&..1.
0000cbf0: 0a 39 40 0c 39 00 19 39 40 0d 39 00 1e 2d 40 00  .9@.9..9@.9..-@.
0000cc00: 39 40 02 26 50 08 2c 40 00 31 50 02 39 00 05 26  9@.&P.,@.1P.9..&
0000cc10: 00 05 2c 00 03 31 00 00 2d 00 0f 26 50 0f 26 00  ..,..1..-..&P.&.
0000cc20: 14 3c 40 0f 3c 00 1b 3c 40 03 2d 40 02 26 50 05  .<@.<..<@.-@.&P.
0000cc30: 31 50 03 2c 40 05 26 00 00 3c 00 05 31 00 02 2c  1P.,@.&..<..1..,
0000cc40: 00 03 2d 00 0a 26 50 14 26 00 19 39 40 0c 39 00  ..-..&P.&..9@.9.
0000cc50: 1c 2d 40 02 39 40 08 2c 40 05 39 00 07 2c 00 03  .-@.9@.,@.9..,..
0000cc60: 2d 00 32 3c 40 0f 3c 00 19 3c 40 05 2d 40 00 26  -.2<@.<..<@.-@.&
0000cc70: 50 05 31 50 05 3c 00 00 2c 40 0c 2c 00 03 2d 00  P.1P.<..,@.,..-.
0000cc80: 00 26 00 05 31 00 2f 39 40 0d 39 00 1e 2d 40 00  .&..1./9@.9..-@.
0000cc90: 39 40 0a 2c 40 02 39 00 0a 2c 00 03 2d 00 37 39  9@.,@.9..,..-.79
0000cca0: 40 0c 39 00 19 3c 40 03 2d 40 02 26 50 05 31 50  @.9..<@.-@.&P.1P
0000ccb0: 03 3c 00 00 2c 40 05 26 00 05 31 00 02 2c 00 03  .<..,@.&..1..,..
0000ccc0: 2d 00 37 39 40 0c 39 00 1c 2d 40 02 39 40 08 2c  -.79@.9..-@.9@.,
0000ccd0: 40 05 39 00 07 2c 00 03 2d 00 37 39 40 0c 39 00  @.9..,..-.79@.9.
0000cce0: 17 3c 40 05 2d 40 00 26 50 05 31 50 05 3c 00 00  .<@.-@.&P.1P.<..
0000ccf0: 2c 40 0c 2c 00 03 2d 00 00 26 00 05 31 00 2f 39  ,@.,..-..&..1./9
0000cd00: 40 0d 39 00 1e 2d 40 00 39 40 0a 2c 40 02 39 00  @.9..-@.9@.,@.9.
0000cd10: 0a 2c 00 03 2d 00 37 39 40 0c 39 00 17 3c 40 05  .,..-.79@.9..<@.
0000cd20: 2d 40 02 26 50 05 31 50 03 3c 00 00 2c 40 05 26  -@.&P.1P.<..,@.&
0000cd30: 00 05 31 00 02 2c 00 03 2d 00 37 39 40 0c 39 00  ..1..,..-.79@.9.
0000cd40: 1c 2d 40 02 39 40 08 2c 40 05 39 00 07 2c 00 03  .-@.9@.,@.9..,..
0000cd50: 2d 00 37 39 40 0c 39 00 18 3c 40 04 2d 40 00 26  -.79@.9..<@.-@.&
0000cd60: 50 05 31 50 05 3c 00 00 2c 40 0c 2c 00 03 2d 00  P.1P.<..,@.,..-.
0000cd70: 00 26 00 05 31 00 0a 26 50 19 26 00 0c 39 40 0d  .&..1..&P.&..9@.
0000cd80: 39 00 1e 2d 40 00 39 40 0a 2c 40 02 39 00 0a 2c  9..-@.9@.,@.9..,
0000cd90: 00 03 2d 00 37 39 40 0c 39 00 17 3c 40 05 2d 40  ..-.79@.9..<@.-@
0000cda0: 02 26 50 05 31 50 03 3c 00 00 2c 40 05 26 00 05  .&P.1P.<..,@.&..
0000cdb0: 31 00 02 2c 00 03 2d 00 37 39 40 0c 39 00 1c 2d  1..,..-.79@.9..-
0000cdc0: 40 02 39 40 08 2c 40 05 39 00 07 2c 00 03 2d 00  @.9@.,@.9..,..-.
0000cdd0: 37 39 40 0c 39 00 14 3c 40 08 2d 40 00 26 50 05  79@.9..<@.-@.&P.
0000cde0: 31 50 05 3c 00 00 2c 40 0c 2c 00 03 2d 00 00 26  1P.<..,@.,..-..&
0000cdf0: 00 05 31 00 0a 26 50 19 26 00 0c 39 40 0d 39 00  ..1..&P.&..9@.9.
0000ce00: 1e 2d 40 00 39 40 0a 2c 40 02 39 00 0a 2c 00 03  .-@.9@.,@.9..,..
0000ce10: 2d 00 2f 3c 40 12 3c 00 19 3c 40 05 2d 40 02 26  -./<@.<..<@.-@.&
0000ce20: 50 05 31 50 03 2c 40 02 3c 00 03 26 00 05 31 00  P.1P.,@.<..&..1.
0000ce30: 02 2c 00 03 2d 00 37 39 40 0c 39 00 1c 2d 40 02  .,..-.79@.9..-@.
0000ce40: 39 40 08 2c 40 05 39 00 07 2c 00 03 2d 00 37 39  9@.,@.9..,..-.79
0000ce50: 40 0c 39 00 17 3c 40 05 2d 40 00 26 50 05 31 50  @.9..<@.-@.&P.1P
0000ce60: 05 3c 00 00 2c 40 0c 2c 00 03 2d 00 00 26 00 05  .<..,@.,..-..&..
0000ce70: 31 00 2f 39 40 0d 39 00 1e 2d 40 00 39 40 0a 2c  1./9@.9..-@.9@.,
0000ce80: 40 02 39 00 0a 2c 00 03 2d 00 37 39 40 0c 39 00  @.9..,..-.79@.9.
0000ce90: 19 3c 40 03 2d 40 02 26 50 05 31 50 03 2c 40 05  .<@.-@.&P.1P.,@.
0000cea0: 26 00 00 3c 00 05 31 00 02 2c 00 03 2d 00 37 39  &..<..1..,..-.79
0000ceb0: 40 0c 39 00 1c 2d 40 02 39 40 08 2c 40 05 39 00  @.9..-@.9@.,@.9.
0000cec0: 07 2c 00 03 2d 00 37 39 40 0c 39 00 17 3c 40 05  .,..-.79@.9..<@.
0000ced0: 2d 40 00 26 50 05 31 50 05 3c 00 00 2c 40 0c 2c  -@.&P.1P.<..,@.,
0000cee0: 00 03 2d 00 00 26 00 05 31 00 0a 26 50 1e 26 00  ..-..&..1..&P.&.
0000cef0: 07 39 40 0d 39 00 1e 2d 40 00 39 40 0a 2c 40 02  .9@.9..-@.9@.,@.
0000cf00: 39 00 0a 2c 00 03 2d 00 0f 3c 40 0c 3c 00 19 3c  9..,..-..<@.<..<
0000cf10: 40 0d 3c 00 1b 3c 40 03 2d 40 02 26 50 05 31 50  @.<..<@.-@.&P.1P
0000cf20: 03 3c 00 00 2c 40 05 26 00 05 31 00 02 2c 00 00  .<..,@.&..1..,..
0000cf30: 39 40 03 2d 00 0a 39 00 2d 39 40 0c 39 00 1c 2d  9@.-..9.-9@.9..-
0000cf40: 40 02 39 40 08 2c 40 05 39 00 07 2c 00 03 2d 00  @.9@.,@.9..,..-.
0000cf50: 32 3c 40 0f 3c 00 1a 3c 40 04 2d 40 00 26 50 05  2<@.<..<@.-@.&P.
0000cf60: 31 50 05 3c 00 00 2c 40 0c 2c 00 03 2d 00 00 26  1P.<..,@.,..-..&
0000cf70: 00 05 31 00 2f 39 40 0d 39 00 1e 2d 40 00 39 40  ..1./9@.9..-@.9@
0000cf80: 05 34 40 05 2c 40 02 39 00 05 34 00 05 2c 00 03  .4@.,@.9..4..,..
0000cf90: 2d 00 32 3c 40 05 26 50 00 39 40 05 34 40 00 31  -.2<@.&P.9@.4@.1
0000cfa0: 50 07 39 00 03 26 00 02 3c 00 00 34 00 05 31 00  P.9..&..<..4..1.
0000cfb0: 12 2d 40 00 39 40 02 26 50 04 34 40 01 31 50 03  .-@.9@.&P.4@.1P.
0000cfc0: 2c 40 02 39 00 03 26 00 02 34 00 03 31 00 02 2c  ,@.9..&..4..1..,
0000cfd0: 00 03 2d 00 32 34 40 05 26 50 00 39 40 07 31 50  ..-.24@.&P.9@.1P
0000cfe0: 01 34 00 04 31 00 00 39 00 03 26 00 17 34 40 02  .4..1..9..&..4@.
0000cff0: 2d 40 02 26 50 00 39 40 08 2c 40 02 34 00 00 31  -@.&P.9@.,@.4..1
0000d000: 50 03 39 00 02 26 00 03 31 00 02 2c 00 03 2d 00  P.9..&..1..,..-.
0000d010: 37 26 50 00 39 40 05 34 40 02 31 50 04 26 00 01  7&P.9@.4@.1P.&..
0000d020: 39 00 05 34 00 04 31 00 13 2d 40 00 26 50 00 39  9..4..1..-@.&P.9
0000d030: 40 05 31 50 02 34 40 03 2c 40 02 39 00 03 26 00  @.1P.4@.,@.9..&.
0000d040: 05 34 00 02 2c 00 03 2d 00 05 31 00 0a 26 50 01  .4..,..-..1..&P.
0000d050: 34 40 01 31 50 09 34 00 01 31 00 00 26 00 17 34  4@.1P.4..1..&..4
0000d060: 40 02 39 40 03 26 50 05 34 00 01 31 50 04 39 00  @.9@.&P.4..1P.9.
0000d070: 05 31 00 00 26 00 14 26 50 05 26 00 00 2d 40 00  .1..&..&P.&..-@.
0000d080: 39 40 05 2c 40 07 39 00 05 2c 00 08 2d 00 37 39  9@.,@.9..,..-.79
0000d090: 40 0c 39 00 19 3c 40 03 2d 40 00 39 40 02 26 50  @.9..<@.-@.9@.&P
0000d0a0: 03 2c 40 02 31 50 05 39 00 00 3c 00 03 26 00 02  .,@.1P.9..<..&..
0000d0b0: 2c 00 03 31 00 05 2d 00 37 39 40 0c 39 00 1c 2d  ,..1..-.79@.9..-
0000d0c0: 40 02 39 40 03 2c 40 0a 39 00 02 2c 00 08 2d 00  @.9@.,@.9..,..-.
0000d0d0: 37 39 40 0c 39 00 17 3c 40 05 2d 40 00 26 50 00  79@.9..<@.-@.&P.
0000d0e0: 39 40 05 2c 40 00 31 50 05 3c 00 02 39 00 05 2c  9@.,@.1P.<..9..,
0000d0f0: 00 08 2d 00 00 26 00 05 31 00 32 39 40 0c 39 00  ..-..&..1.29@.9.
0000d100: 1c 2d 40 00 39 40 05 2c 40 07 39 00 05 2c 00 08  .-@.9@.,@.9..,..
0000d110: 2d 00 32 3c 40 05 39 40 0a 3c 00 03 39 00 16 3c  -.2<@.9@.<..9..<
0000d120: 40 05 2d 40 02 26 50 00 39 40 03 2c 40 02 31 50  @.-@.&P.9@.,@.1P
0000d130: 03 3c 00 05 39 00 00 26 00 02 2c 00 03 31 00 05  .<..9..&..,..1..
0000d140: 2d 00 34 39 40 0d 39 00 1e 2d 40 02 39 40 03 2c  -.49@.9..-@.9@.,
0000d150: 40 0a 39 00 02 2c 00 08 2d 00 37 39 40 0c 39 00  @.9..,..-.79@.9.
0000d160: 17 3c 40 05 2d 40 00 26 50 02 39 40 03 2c 40 00  .<@.-@.&P.9@.,@.
0000d170: 31 50 0a 39 00 01 3c 00 01 2c 00 08 2d 00 00 26  1P.9..<..,..-..&
0000d180: 00 05 31 00 32 39 40 0c 39 00 1c 2d 40 00 39 40  ..1.29@.9..-@.9@
0000d190: 0a 2c 40 02 39 00 0a 2c 00 03 2d 00 37 39 40 0c  .,@.9..,..-.79@.
0000d1a0: 39 00 19 3c 40 03 2d 40 00 39 40 02 26 50 05 31  9..<@.-@.9@.&P.1
0000d1b0: 50 03 2c 40 02 39 00 00 3c 00 03 26 00 05 31 00  P.,@.9..<..&..1.
0000d1c0: 02 2c 00 03 2d 00 37 39 40 0c 39 00 1c 2d 40 02  .,..-.79@.9..-@.
0000d1d0: 39 40 08 2c 40 05 39 00 07 2c 00 03 2d 00 37 39  9@.,@.9..,..-.79
0000d1e0: 40 0c 39 00 17 3c 40 05 2d 40 00 26 50 00 39 40  @.9..<@.-@.&P.9@
0000d1f0: 05 31 50 05 3c 00 00 2c 40 02 39 00 0a 2c 00 03  .1P.<..,@.9..,..
0000d200: 2d 00 00 26 00 05 31 00 2f 39 40 0d 39 00 1e 2d  -..&..1./9@.9..-
0000d210: 40 00 39 40 0a 2c 40 02 39 00 0a 2c 00 03 2d 00  @.9@.,@.9..,..-.
0000d220: 37 26 50 00 39 40 05 31 50 07 39 00 01 26 00 04  7&P.9@.1P.9..&..
0000d230: 31 00 12 3c 40 05 2d 40 00 39 40 02 26 50 05 31  1..<@.-@.9@.&P.1
0000d240: 50 03 3c 00 00 2c 40 02 39 00 03 26 00 05 31 00  P.<..,@.9..&..1.
0000d250: 02 2c 00 03 2d 00 0f 39 40 0c 39 00 1c 26 50 00  .,..-..9@.9..&P.
0000d260: 39 40 05 31 50 07 39 00 03 26 00 05 31 00 14 2d  9@.1P.9..&..1..-
0000d270: 40 02 26 50 00 39 40 03 31 50 05 2c 40 05 39 00  @.&P.9@.1P.,@.9.
0000d280: 02 26 00 05 2c 00 03 31 00 00 2d 00 37 39 40 01  .&..,..1..-.79@.
0000d290: 26 50 04 31 50 07 39 00 01 26 00 07 31 00 0f 3c  &P.1P.9..&..1..<
0000d2a0: 40 05 2d 40 00 26 50 00 39 40 05 31 50 05 3c 00  @.-@.&P.9@.1P.<.
0000d2b0: 00 2c 40 02 39 00 05 26 00 05 2c 00 00 31 00 03  .,@.9..&..,..1..
0000d2c0: 2d 00 0f 26 50 00 39 40 05 31 50 07 39 00 03 26  -..&P.9@.1P.9..&
0000d2d0: 00 07 31 00 0f 39 40 03 26 50 07 31 50 03 39 00  ..1..9@.&P.1P.9.
0000d2e0: 05 26 00 0a 31 00 0f 2d 40 00 39 40 02 26 50 08  .&..1..-@.9@.&P.
0000d2f0: 2c 40 00 31 50 02 39 00 05 26 00 05 2c 00 03 31  ,@.1P.9..&..,..1
0000d300: 00 00 2d 00 32 3c 40 05 39 40 0a 3c 00 02 39 00  ..-.2<@.9@.<..9.
0000d310: 15 3c 40 07 2d 40 00 39 40 02 26 50 05 31 50 03  .<@.-@.9@.&P.1P.
0000d320: 3c 00 00 2c 40 02 39 00 03 26 00 05 31 00 02 2c  <..,@.9..&..1..,
0000d330: 00 03 2d 00 37 39 40 0c 39 00 1c 2d 40 02 39 40  ..-.79@.9..-@.9@
0000d340: 08 2c 40 05 39 00 07 2c 00 03 2d 00 32 3c 40 05  .,@.9..,..-.2<@.
0000d350: 39 40 0a 3c 00 02 39 00 17 3c 40 05 2d 40 00 26  9@.<..9..<@.-@.&
0000d360: 50 00 39 40 05 31 50 05 3c 00 00 2c 40 02 39 00  P.9@.1P.<..,@.9.
0000d370: 0a 2c 00 03 2d 00 00 26 00 05 31 00 2f 39 40 0d  .,..-..&..1./9@.
0000d380: 39 00 1e 2d 40 00 39 40 0a 2c 40 02 39 00 0a 2c  9..-@.9@.,@.9..,
0000d390: 00 03 2d 00 37 39 40 0c 39 00 19 3c 40 03 2d 40  ..-.79@.9..<@.-@
0000d3a0: 00 39 40 02 26 50 05 31 50 03 3c 00 00 2c 40 02  .9@.&P.1P.<..,@.
0000d3b0: 39 00 03 26 00 05 31 00 02 2c 00 03 2d 00 37 39  9..&..1..,..-.79
0000d3c0: 40 0c 39 00 1c 2d 40 02 39 40 08 2c 40 05 39 00  @.9..-@.9@.,@.9.
0000d3d0: 07 2c 00 03 2d 00 37 39 40 0c 39 00 17 3c 40 05  .,..-.79@.9..<@.
0000d3e0: 2d 40 00 26 50 00 39 40 05 31 50 05 3c 00 00 2c  -@.&P.9@.1P.<..,
0000d3f0: 40 02 39 00 0a 2c 00 03 2d 00 00 26 00 05 31 00  @.9..,..-..&..1.
0000d400: 2f 39 40 0d 39 00 1e 2d 40 00 39 40 0a 2c 40 02  /9@.9..-@.9@.,@.
0000d410: 39 00 0a 2c 00 03 2d 00 37 39 40 0c 39 00 17 3c  9..,..-.79@.9..<
0000d420: 40 05 2d 40 00 39 40 02 26 50 05 31 50 03 3c 00  @.-@.9@.&P.1P.<.
0000d430: 00 2c 40 02 39 00 03 26 00 05 31 00 02 2c 00 03  .,@.9..&..1..,..
0000d440: 2d 00 37 39 40 0c 39 00 1c 2d 40 02 39 40 08 2c  -.79@.9..-@.9@.,
0000d450: 40 05 39 00 07 2c 00 03 2d 00 37 39 40 0c 39 00  @.9..,..-.79@.9.
0000d460: 18 3c 40 04 2d 40 00 26 50 00 39 40 05 31 50 05  .<@.-@.&P.9@.1P.
0000d470: 3c 00 00 2c 40 02 39 00 0a 2c 00 03 2d 00 00 26  <..,@.9..,..-..&
0000d480: 00 05 31 00 2f 39 40 0d 39 00 1e 2d 40 00 39 40  ..1./9@.9..-@.9@
0000d490: 0a 2c 40 02 39 00 0a 2c 00 03 2d 00 37 39 40 0c  .,@.9..,..-.79@.
0000d4a0: 39 00 17 3c 40 05 2d 40 00 39 40 02 26 50 05 31  9..<@.-@.9@.&P.1
0000d4b0: 50 03 3c 00 00 2c 40 02 39 00 03 26 00 05 31 00  P.<..,@.9..&..1.
0000d4c0: 02 2c 00 03 2d 00 37 26 50 00 39 40 07 31 50 05  .,..-.7&P.9@.1P.
0000d4d0: 39 00 05 26 00 05 31 00 12 2d 40 00 26 50 02 39  9..&..1..-@.&P.9
0000d4e0: 40 05 31 50 03 2c 40 05 39 00 00 26 00 07 2c 00  @.1P.,@.9..&..,.
0000d4f0: 00 31 00 03 2d 00 37 26 50 00 39 40 07 31 50 05  .1..-.7&P.9@.1P.
0000d500: 39 00 00 26 00 0a 31 00 0a 3c 40 08 2d 40 00 26  9..&..1..<@.-@.&
0000d510: 50 00 39 40 05 31 50 05 3c 00 00 2c 40 02 39 00  P.9@.1P.<..,@.9.
0000d520: 08 26 00 02 2c 00 03 31 00 00 2d 00 34 39 40 0d  .&..,..1..-.49@.
0000d530: 39 00 1e 2d 40 00 39 40 0a 2c 40 02 39 00 0a 2c  9..-@.9@.,@.9..,
0000d540: 00 03 2d 00 2f 3c 40 08 39 40 0a 3c 00 02 39 00  ..-./<@.9@.<..9.
0000d550: 17 3c 40 05 2d 40 00 39 40 02 26 50 05 31 50 03  .<@.-@.9@.&P.1P.
0000d560: 2c 40 02 39 00 00 3c 00 03 26 00 05 31 00 02 2c  ,@.9..<..&..1..,
0000d570: 00 03 2d 00 37 39 40 0c 39 00 1c 2d 40 02 39 40  ..-.79@.9..-@.9@
0000d580: 08 2c 40 05 39 00 07 2c 00 03 2d 00 37 39 40 0c  .,@.9..,..-.79@.
0000d590: 39 00 17 3c 40 05 2d 40 00 26 50 00 39 40 05 31  9..<@.-@.&P.9@.1
0000d5a0: 50 05 3c 00 00 2c 40 02 39 00 0a 2c 00 03 2d 00  P.<..,@.9..,..-.
0000d5b0: 00 26 00 05 31 00 2f 39 40 0d 39 00 1e 2d 40 00  .&..1./9@.9..-@.
0000d5c0: 39 40 0a 2c 40 02 39 00 0a 2c 00 03 2d 00 37 39  9@.,@.9..,..-.79
0000d5d0: 40 0c 39 00 19 3c 40 03 2d 40 00 39 40 02 26 50  @.9..<@.-@.9@.&P
0000d5e0: 05 31 50 03 2c 40 02 39 00 03 26 00 00 3c 00 05  .1P.,@.9..&..<..
0000d5f0: 31 00 02 2c 00 03 2d 00 37 39 40 0c 39 00 1c 2d  1..,..-.79@.9..-
0000d600: 40 02 39 40 08 2c 40 05 39 00 07 2c 00 03 2d 00  @.9@.,@.9..,..-.
0000d610: 37 39 40 0c 39 00 17 3c 40 05 2d 40 00 26 50 00  79@.9..<@.-@.&P.
0000d620: 39 40 05 31 50 05 3c 00 00 2c 40 02 39 00 0a 2c  9@.1P.<..,@.9..,
0000d630: 00 03 2d 00 00 26 00 05 31 00 2f 39 40 0d 39 00  ..-..&..1./9@.9.
0000d640: 1e 2d 40 00 39 40 0a 2c 40 02 39 00 0a 2c 00 03  .-@.9@.,@.9..,..
0000d650: 2d 00 32 3c 40 05 39 40 0a 3c 00 02 39 00 17 3c  -.2<@.9@.<..9..<
0000d660: 40 05 2d 40 00 39 40 02 26 50 05 31 50 03 3c 00  @.-@.9@.&P.1P.<.
0000d670: 00 2c 40 02 39 00 03 26 00 05 31 00 02 2c 00 03  .,@.9..&..1..,..
0000d680: 2d 00 37 39 40 0c 39 00 1c 2d 40 02 39 40 08 2c  -.79@.9..-@.9@.,
0000d690: 40 05 39 00 07 2c 00 03 2d 00 32 3c 40 05 39 40  @.9..,..-.2<@.9@
0000d6a0: 0a 3c 00 02 39 00 18 3c 40 04 2d 40 00 26 50 00  .<..9..<@.-@.&P.
0000d6b0: 39 40 05 31 50 05 3c 00 00 2c 40 02 39 00 0a 2c  9@.1P.<..,@.9..,
0000d6c0: 00 03 2d 00 00 26 00 05 31 00 2f 39 40 0d 39 00  ..-..&..1./9@.9.
0000d6d0: 1e 2d 40 00 39 40 02 26 50 03 31 50 05 2c 40 02  .-@.9@.&P.1P.,@.
0000d6e0: 39 00 05 26 00 03 31 00 02 2c 00 03 2d 00 0f 26  9..&..1..,..-..&
0000d6f0: 50 05 31 50 07 26 00 05 31 00 12 3c 40 05 26 50  P.1P.&..1..<@.&P
0000d700: 00 39 40 05 31 50 07 39 00 03 26 00 02 3c 00 05  .9@.1P.9..&..<..
0000d710: 31 00 12 2d 40 00 39 40 02 26 50 05 31 50 03 2c  1..-@.9@.&P.1P.,
0000d720: 40 02 39 00 03 26 00 05 31 00 02 2c 00 03 2d 00  @.9..&..1..,..-.
0000d730: 0f 26 50 07 31 50 05 26 00 08 31 00 14 26 50 00  .&P.1P.&..1..&P.
0000d740: 39 40 07 31 50 05 39 00 03 26 00 05 31 00 14 2d  9@.1P.9..&..1..-
0000d750: 40 02 26 50 00 39 40 08 2c 40 02 31 50 03 39 00  @.&P.9@.,@.1P.9.
0000d760: 02 26 00 03 26 50 02 2c 00 03 2d 00 02 31 00 08  .&..&P.,..-..1..
0000d770: 26 00 05 26 50 07 31 50 05 26 00 08 31 00 00 26  &..&P.1P.&..1..&
0000d780: 50 0c 26 00 08 26 50 00 39 40 07 31 50 05 39 00  P.&..&P.9@.1P.9.
0000d790: 03 26 00 05 31 00 14 2d 40 00 26 50 00 39 40 07  .&..1..-@.&P.9@.
0000d7a0: 31 50 03 2c 40 02 39 00 03 26 00 07 2c 00 00 31  1P.,@.9..&..,..1
0000d7b0: 00 03 2d 00 0f 26 50 07 31 50 08 26 00 07 31 00  ..-..&P.1P.&..1.
0000d7c0: 0f 39 40 03 26 50 07 31 50 03 39 00 05 26 00 0a  .9@.&P.1P.9..&..
0000d7d0: 31 00 0f 2d 40 00 39 40 02 3f 40 03 2c 40 07 39  1..-@.9@.?@.,@.9
0000d7e0: 00 05 2c 00 08 2d 00 02 3f 00 35 39 40 0c 39 00  ..,..-..?.59@.9.
0000d7f0: 1c 2d 40 00 39 40 00 3d 40 02 26 50 03 2c 40 02  .-@.9@.=@.&P.,@.
0000d800: 31 50 05 39 00 03 26 00 02 2c 00 03 31 00 05 2d  1P.9..&..,..1..-
0000d810: 00 02 3d 00 35 3c 40 0c 3c 00 1c 2d 40 05 2c 40  ..=.5<@.<..-@.,@
0000d820: 00 3c 40 0c 2c 00 03 3c 00 05 2d 00 34 3c 40 12  .<@.,..<..-.4<@.
0000d830: 3c 00 14 3c 40 05 2d 40 00 26 50 05 2c 40 00 31  <..<@.-@.&P.,@.1
0000d840: 50 05 3c 00 07 2c 00 08 2d 00 00 26 00 05 31 00  P.<..,..-..&..1.
0000d850: 32 39 40 0c 39 00 1c 2d 40 00 39 40 05 2c 40 07  29@.9..-@.9@.,@.
0000d860: 39 00 05 2c 00 08 2d 00 32 3c 40 0f 3c 00 1e 2d  9..,..-.2<@.<..-
0000d870: 40 00 3c 40 02 26 50 03 2c 40 02 31 50 08 26 00  @.<@.&P.,@.1P.&.
0000d880: 00 3c 00 02 2c 00 03 31 00 05 2d 00 34 39 40 0d  .<..,..1..-.49@.
0000d890: 39 00 1e 2d 40 02 39 40 03 2c 40 0a 39 00 02 2c  9..-@.9@.,@.9..,
0000d8a0: 00 08 2d 00 37 39 40 0c 39 00 1c 2d 40 00 26 50  ..-.79@.9..-@.&P
0000d8b0: 05 2c 40 00 31 50 00 3c 40 0c 2c 00 08 2d 00 00  .,@.1P.<@.,..-..
0000d8c0: 3c 00 00 26 00 05 31 00 32 39 40 0c 39 00 1c 2d  <..&..1.29@.9..-
0000d8d0: 40 00 39 40 0a 2c 40 02 39 00 0a 2c 00 03 2d 00  @.9@.,@.9..,..-.
0000d8e0: 37 39 40 0c 39 00 1c 2d 40 02 26 50 00 3c 40 05  79@.9..-@.&P.<@.
0000d8f0: 31 50 03 2c 40 05 26 00 02 3c 00 03 31 00 02 2c  1P.,@.&..<..1..,
0000d900: 00 03 2d 00 37 39 40 0c 39 00 1c 2d 40 02 39 40  ..-.79@.9..-@.9@
0000d910: 08 2c 40 05 39 00 07 2c 00 03 2d 00 37 39 40 0c  .,@.9..,..-.79@.
0000d920: 39 00 1c 2d 40 00 26 50 00 3c 40 05 31 50 05 2c  9..-@.&P.<@.1P.,
0000d930: 40 07 3c 00 05 2c 00 03 2d 00 00 26 00 05 31 00  @.<..,..-..&..1.
0000d940: 2f 39 40 0d 39 00 1e 2d 40 00 39 40 0a 2c 40 02  /9@.9..-@.9@.,@.
0000d950: 39 00 0a 2c 00 03 2d 00 37 26 50 00 39 40 05 31  9..,..-.7&P.9@.1
0000d960: 50 07 39 00 01 26 00 04 31 00 12 3c 40 05 2d 40  P.9..&..1..<@.-@
0000d970: 00 39 40 02 26 50 05 31 50 03 3c 00 00 2c 40 02  .9@.&P.1P.<..,@.
0000d980: 39 00 03 26 00 05 31 00 02 2c 00 03 2d 00 0f 39  9..&..1..,..-..9
0000d990: 40 0c 39 00 1c 26 50 00 39 40 05 31 50 07 39 00  @.9..&P.9@.1P.9.
0000d9a0: 03 26 00 05 31 00 14 2d 40 02 26 50 00 39 40 08  .&..1..-@.&P.9@.
0000d9b0: 2c 40 05 39 00 02 26 00 05 2c 00 03 2d 00 37 39  ,@.9..&..,..-.79
0000d9c0: 40 01 26 50 04 31 50 07 39 00 01 26 00 07 31 00  @.&P.1P.9..&..1.
0000d9d0: 14 2d 40 00 26 50 00 3c 40 05 31 50 05 2c 40 05  .-@.&P.<@.1P.,@.
0000d9e0: 3c 00 07 2c 00 03 2d 00 00 26 00 05 31 00 0a 39  <..,..-..&..1..9
0000d9f0: 40 0c 39 00 19 39 40 0d 39 00 1e 2d 40 00 39 40  @.9..9@.9..-@.9@
0000da00: 02 26 50 08 2c 40 00 31 50 02 39 00 05 26 00 05  .&P.,@.1P.9..&..
0000da10: 2c 00 03 31 00 00 2d 00 0f 26 50 0f 26 00 14 3c  ,..1..-..&P.&..<
0000da20: 40 0f 3c 00 1b 3c 40 03 2d 40 02 26 50 05 31 50  @.<..<@.-@.&P.1P
0000da30: 03 2c 40 05 26 00 00 3c 00 05 31 00 02 2c 00 03  .,@.&..<..1..,..
0000da40: 2d 00 0a 26 50 14 26 00 19 39 40 0c 39 00 1c 2d  -..&P.&..9@.9..-
0000da50: 40 02 39 40 08 2c 40 05 39 00 07 2c 00 03 2d 00  @.9@.,@.9..,..-.
0000da60: 32 3c 40 0f 3c 00 19 3c 40 05 2d 40 00 26 50 05  2<@.<..<@.-@.&P.
0000da70: 31 50 05 3c 00 00 2c 40 0c 2c 00 03 2d 00 00 26  1P.<..,@.,..-..&
0000da80: 00 05 31 00 2f 39 40 0d 39 00 1e 2d 40 00 39 40  ..1./9@.9..-@.9@
0000da90: 0a 2c 40 02 39 00 0a 2c 00 03 2d 00 37 39 40 0c  .,@.9..,..-.79@.
0000daa0: 39 00 19 3c 40 03 2d 40 02 26 50 05 31 50 03 3c  9..<@.-@.&P.1P.<
0000dab0: 00 00 2c 40 05 26 00 05 31 00 02 2c 00 03 2d 00  ..,@.&..1..,..-.
0000dac0: 37 39 40 0c 39 00 1c 2d 40 02 39 40 08 2c 40 05  79@.9..-@.9@.,@.
0000dad0: 39 00 07 2c 00 03 2d 00 37 39 40 0c 39 00 17 3c  9..,..-.79@.9..<
0000dae0: 40 05 2d 40 00 26 50 05 31 50 05 3c 00 00 2c 40  @.-@.&P.1P.<..,@
0000daf0: 0c 2c 00 03 2d 00 00 26 00 05 31 00 2f 39 40 0d  .,..-..&..1./9@.
0000db00: 39 00 1e 2d 40 00 39 40 0a 2c 40 02 39 00 0a 2c  9..-@.9@.,@.9..,
0000db10: 00 03 2d 00 37 39 40 0c 39 00 17 3c 40 05 2d 40  ..-.79@.9..<@.-@
0000db20: 02 26 50 05 31 50 03 3c 00 00 2c 40 05 26 00 05  .&P.1P.<..,@.&..
0000db30: 31 00 02 2c 00 03 2d 00 37 39 40 0c 39 00 1c 2d  1..,..-.79@.9..-
0000db40: 40 02 39 40 08 2c 40 05 39 00 07 2c 00 03 2d 00  @.9@.,@.9..,..-.
0000db50: 37 39 40 0c 39 00 18 3c 40 04 2d 40 00 26 50 05  79@.9..<@.-@.&P.
0000db60: 31 50 05 3c 00 00 2c 40 0c 2c 00 03 2d 00 00 26  1P.<..,@.,..-..&
0000db70: 00 05 31 00 0a 26 50 19 26 00 0c 39 40 0d 39 00  ..1..&P.&..9@.9.
0000db80: 1e 2d 40 00 39 40 0a 2c 40 02 39 00 0a 2c 00 03  .-@.9@.,@.9..,..
0000db90: 2d 00 37 39 40 0c 39 00 17 3c 40 05 2d 40 02 26  -.79@.9..<@.-@.&
0000dba0: 50 05 31 50 03 3c 00 00 2c 40 05 26 00 05 31 00  P.1P.<..,@.&..1.
0000dbb0: 02 2c 00 03 2d 00 37 39 40 0c 39 00 1c 2d 40 02  .,..-.79@.9..-@.
0000dbc0: 39 40 08 2c 40 05 39 00 07 2c 00 03 2d 00 37 39  9@.,@.9..,..-.79
0000dbd0: 40 0c 39 00 14 3c 40 08 2d 40 00 26 50 05 31 50  @.9..<@.-@.&P.1P
0000dbe0: 05 3c 00 00 2c 40 0c 2c 00 03 2d 00 00 26 00 05  .<..,@.,..-..&..
0000dbf0: 31 00 0a 26 50 19 26 00 0c 39 40 0d 39 00 1e 2d  1..&P.&..9@.9..-
0000dc00: 40 00 39 40 0a 2c 40 02 39 00 0a 2c 00 03 2d 00  @.9@.,@.9..,..-.
0000dc10: 2f 3c 40 12 3c 00 19 3c 40 05 2d 40 02 26 50 05  /<@.<..<@.-@.&P.
0000dc20: 31 50 03 2c 40 02 3c 00 03 26 00 05 31 00 02 2c  1P.,@.<..&..1..,
0000dc30: 00 03 2d 00 37 39 40 0c 39 00 1c 2d 40 02 39 40  ..-.79@.9..-@.9@
0000dc40: 08 2c 40 05 39 00 07 2c 00 03 2d 00 37 39 40 0c  .,@.9..,..-.79@.
0000dc50: 39 00 17 3c 40 05 2d 40 00 26 50 05 31 50 05 3c  9..<@.-@.&P.1P.<
0000dc60: 00 00 2c 40 0c 2c 00 03 2d 00 00 26 00 05 31 00  ..,@.,..-..&..1.
0000dc70: 2f 39 40 0d 39 00 1e 2d 40 00 39 40 0a 2c 40 02  /9@.9..-@.9@.,@.
0000dc80: 39 00 0a 2c 00 03 2d 00 37 39 40 0c 39 00 19 3c  9..,..-.79@.9..<
0000dc90: 40 03 2d 40 02 26 50 05 31 50 03 2c 40 05 26 00  @.-@.&P.1P.,@.&.
0000dca0: 00 3c 00 05 31 00 02 2c 00 03 2d 00 37 39 40 0c  .<..1..,..-.79@.
0000dcb0: 39 00 1c 2d 40 02 39 40 08 2c 40 05 39 00 07 2c  9..-@.9@.,@.9..,
0000dcc0: 00 03 2d 00 37 39 40 0c 39 00 17 3c 40 05 2d 40  ..-.79@.9..<@.-@
0000dcd0: 00 26 50 05 31 50 05 3c 00 00 2c 40 0c 2c 00 03  .&P.1P.<..,@.,..
0000dce0: 2d 00 00 26 00 05 31 00 0a 26 50 1e 26 00 07 39  -..&..1..&P.&..9
0000dcf0: 40 0d 39 00 1e 2d 40 00 39 40 0a 2c 40 02 39 00  @.9..-@.9@.,@.9.
0000dd00: 0a 2c 00 03 2d 00 0f 3c 40 0c 3c 00 19 3c 40 0d  .,..-..<@.<..<@.
0000dd10: 3c 00 1b 3c 40 03 2d 40 02 26 50 05 31 50 03 3c  <..<@.-@.&P.1P.<
0000dd20: 00 00 2c 40 05 26 00 05 31 00 02 2c 00 00 39 40  ..,@.&..1..,..9@
0000dd30: 03 2d 00 0a 39 00 2d 39 40 0c 39 00 1c 2d 40 02  .-..9.-9@.9..-@.
0000dd40: 39 40 08 2c 40 05 39 00 07 2c 00 03 2d 00 32 3c  9@.,@.9..,..-.2<
0000dd50: 40 0f 3c 00 1a 3c 40 04 2d 40 00 26 50 05 31 50  @.<..<@.-@.&P.1P
0000dd60: 05 3c 00 00 2c 40 0c 2c 00 03 2d 00 00 26 00 05  .<..,@.,..-..&..
0000dd70: 31 00 2f 39 40 0d 39 00 1e 2d 40 00 39 40 05 34  1./9@.9..-@.9@.4
0000dd80: 40 05 2c 40 02 39 00 05 34 00 05 2c 00 03 2d 00  @.,@.9..4..,..-.
0000dd90: 32 3c 40 05 26 50 00 39 40 05 34 40 00 31 50 07  2<@.&P.9@.4@.1P.
0000dda0: 39 00 03 26 00 02 3c 00 00 34 00 05 31 00 12 2d  9..&..<..4..1..-
0000ddb0: 40 00 39 40 02 26 50 04 34 40 01 31 50 03 2c 40  @.9@.&P.4@.1P.,@
0000ddc0: 02 39 00 03 26 00 02 34 00 03 31 00 02 2c 00 03  .9..&..4..1..,..
0000ddd0: 2d 00 32 34 40 05 26 50 00 39 40 07 31 50 01 34  -.24@.&P.9@.1P.4
0000dde0: 00 04 31 00 00 39 00 03 26 00 17 34 40 02 2d 40  ..1..9..&..4@.-@
0000ddf0: 02 26 50 00 39 40 08 2c 40 02 34 00 00 31 50 03  .&P.9@.,@.4..1P.
0000de00: 39 00 02 26 00 03 31 00 02 2c 00 03 2d 00 37 26  9..&..1..,..-.7&
0000de10: 50 00 39 40 05 34 40 02 31 50 04 26 00 01 39 00  P.9@.4@.1P.&..9.
0000de20: 05 34 00 04 31 00 13 2d 40 00 26 50 00 39 40 05  .4..1..-@.&P.9@.
0000de30: 31 50 02 34 40 03 2c 40 02 39 00 03 26 00 05 34  1P.4@.,@.9..&..4
0000de40: 00 02 2c 00 03 2d 00 05 31 00 0a 26 50 01 34 40  ..,..-..1..&P.4@
0000de50: 01 31 50 09 34 00 01 31 00 00 26 00 17 34 40 02  .1P.4..1..&..4@.
0000de60: 39 40 03 26 50 05 34 00 01 31 50 04 39 00 05 31  9@.&P.4..1P.9..1
0000de70: 00 00 26 00 14 26 50 05 26 00 00 2d 40 00 39 40  ..&..&P.&..-@.9@
0000de80: 05 2c 40 07 39 00 05 2c 00 08 2d 00 37 39 40 0c  .,@.9..,..-.79@.
0000de90: 39 00 19 3c 40 03 2d 40 00 39 40 02 26 50 03 2c  9..<@.-@.9@.&P.,
0000dea0: 40 02 31 50 05 39 00 00 3c 00 03 26 00 02 2c 00  @.1P.9..<..&..,.
0000deb0: 03 31 00 05 2d 00 37 39 40 0c 39 00 1c 2d 40 02  .1..-.79@.9..-@.
0000dec0: 39 40 03 2c 40 0a 39 00 02 2c 00 08 2d 00 37 39  9@.,@.9..,..-.79
0000ded0: 40 0c 39 00 17 3c 40 05 2d 40 00 26 50 00 39 40  @.9..<@.-@.&P.9@
0000dee0: 05 2c 40 00 31 50 05 3c 00 02 39 00 05 2c 00 08  .,@.1P.<..9..,..
0000def0: 2d 00 00 26 00 05 31 00 32 39 40 0c 39 00 1c 2d  -..&..1.29@.9..-
0000df00: 40 00 39 40 05 2c 40 07 39 00 05 2c 00 08 2d 00  @.9@.,@.9..,..-.
0000df10: 32 3c 40 05 39 40 0a 3c 00 03 39 00 16 3c 40 05  2<@.9@.<..9..<@.
0000df20: 2d 40 02 26 50 00 39 40 03 2c 40 02 31 50 03 3c  -@.&P.9@.,@.1P.<
0000df30: 00 05 39 00 00 26 00 02 2c 00 03 31 00 05 2d 00  ..9..&..,..1..-.
0000df40: 34 39 40 0d 39 00 1e 2d 40 02 39 40 03 2c 40 0a  49@.9..-@.9@.,@.
0000df50: 39 00 02 2c 00 08 2d 00 37 39 40 0c 39 00 17 3c  9..,..-.79@.9..<
0000df60: 40 05 2d 40 00 26 50 02 39 40 03 2c 40 00 31 50  @.-@.&P.9@.,@.1P
0000df70: 0a 39 00 01 3c 00 01 2c 00 08 2d 00 00 26 00 05  .9..<..,..-..&..
0000df80: 31 00 32 39 40 0c 39 00 1c 2d 40 00 39 40 0a 2c  1.29@.9..-@.9@.,
0000df90: 40 02 39 00 0a 2c 00 03 2d 00 37 39 40 0c 39 00  @.9..,..-.79@.9.
0000dfa0: 19 3c 40 03 2d 40 00 39 40 02 26 50 05 31 50 03  .<@.-@.9@.&P.1P.
0000dfb0: 2c 40 02 39 00 00 3c 00 03 26 00 05 31 00 02 2c  ,@.9..<..&..1..,
0000dfc0: 00 03 2d 00 37 39 40 0c 39 00 1c 2d 40 02 39 40  ..-.79@.9..-@.9@
0000dfd0: 08 2c 40 05 39 00 07 2c 00 03 2d 00 37 39 40 0c  .,@.9..,..-.79@.
0000dfe0: 39 00 17 3c 40 05 2d 40 00 26 50 00 39 40 05 31  9..<@.-@.&P.9@.1
0000dff0: 50 05 3c 00 00 2c 40 02 39 00 0a 2c 00 03 2d 00  P.<..,@.9..,..-.
0000e000: 00 26 00 05 31 00 2f 39 40 0d 39 00 1e 2d 40 00  .&..1./9@.9..-@.
0000e010: 39 40 0a 2c 40 02 39 00 0a 2c 00 03 2d 00 37 26  9@.,@.9..,..-.7&
0000e020: 50 00 39 40 05 31 50 07 39 00 01 26 00 04 31 00  P.9@.1P.9..&..1.
0000e030: 12 3c 40 05 2d 40 00 39 40 02 26 50 05 31 50 03  .<@.-@.9@.&P.1P.
0000e040: 3c 00 00 2c 40 02 39 00 03 26 00 05 31 00 02 2c  <..,@.9..&..1..,
0000e050: 00 03 2d 00 0f 39 40 0c 39 00 1c 26 50 00 39 40  ..-..9@.9..&P.9@
0000e060: 05 31 50 07 39 00 03 26 00 05 31 00 14 2d 40 02  .1P.9..&..1..-@.
0000e070: 26 50 00 39 40 03 31 50 05 2c 40 05 39 00 02 26  &P.9@.1P.,@.9..&
0000e080: 00 05 2c 00 03 31 00 00 2d 00 37 39 40 01 26 50  ..,..1..-.79@.&P
0000e090: 04 31 50 07 39 00 01 26 00 07 31 00 0f 3c 40 05  .1P.9..&..1..<@.
0000e0a0: 2d 40 00 26 50 00 39 40 05 31 50 05 3c 00 00 2c  -@.&P.9@.1P.<..,
0000e0b0: 40 02 39 00 05 26 00 05 2c 00 00 31 00 03 2d 00  @.9..&..,..1..-.
0000e0c0: 0f 26 50 00 39 40 05 31 50 07 39 00 03 26 00 07  .&P.9@.1P.9..&..
0000e0d0: 31 00 0f 39 40 03 26 50 07 31 50 03 39 00 05 26  1..9@.&P.1P.9..&
0000e0e0: 00 0a 31 00 0f 2d 40 00 39 40 02 26 50 08 2c 40  ..1..-@.9@.&P.,@
0000e0f0: 00 31 50 02 39 00 05 26 00 05 2c 00 03 31 00 00  .1P.9..&..,..1..
0000e100: 2d 00 32 3c 40 05 39 40 0a 3c 00 02 39 00 15 3c  -.2<@.9@.<..9..<
0000e110: 40 07 2d 40 00 39 40 02 26 50 05 31 50 03 3c 00  @.-@.9@.&P.1P.<.
0000e120: 00 2c 40 02 39 00 03 26 00 05 31 00 02 2c 00 03  .,@.9..&..1..,..
0000e130: 2d 00 37 39 40 0c 39 00 1c 2d 40 02 39 40 08 2c  -.79@.9..-@.9@.,
0000e140: 40 05 39 00 07 2c 00 03 2d 00 32 3c 40 05 39 40  @.9..,..-.2<@.9@
0000e150: 0a 3c 00 02 39 00 17 3c 40 05 2d 40 00 26 50 00  .<..9..<@.-@.&P.
0000e160: 39 40 05 31 50 05 3c 00 00 2c 40 02 39 00 0a 2c  9@.1P.<..,@.9..,
0000e170: 00 03 2d 00 00 26 00 05 31 00 2f 39 40 0d 39 00  ..-..&..1./9@.9.
0000e180: 1e 2d 40 00 39 40 0a 2c 40 02 39 00 0a 2c 00 03  .-@.9@.,@.9..,..
0000e190: 2d 00 37 39 40 0c 39 00 19 3c 40 03 2d 40 00 39  -.79@.9..<@.-@.9
0000e1a0: 40 02 26 50 05 31 50 03 3c 00 00 2c 40 02 39 00  @.&P.1P.<..,@.9.
0000e1b0: 03 26 00 05 31 00 02 2c 00 03 2d 00 37 39 40 0c  .&..1..,..-.79@.
0000e1c0: 39 00 1c 2d 40 02 39 40 08 2c 40 05 39 00 07 2c  9..-@.9@.,@.9..,
0000e1d0: 00 03 2d 00 37 39 40 0c 39 00 17 3c 40 05 2d 40  ..-.79@.9..<@.-@
0000e1e0: 00 26 50 00 39 40 05 31 50 05 3c 00 00 2c 40 02  .&P.9@.1P.<..,@.
0000e1f0: 39 00 0a 2c 00 03 2d 00 00 26 00 05 31 00 2f 39  9..,..-..&..1./9
0000e200: 40 0d 39 00 1e 2d 40 00 39 40 0a 2c 40 02 39 00  @.9..-@.9@.,@.9.
0000e210: 0a 2c 00 03 2d 00 37 39 40 0c 39 00 17 3c 40 05  .,..-.79@.9..<@.
0000e220: 2d 40 00 39 40 02 26 50 05 31 50 03 3c 00 00 2c  -@.9@.&P.1P.<..,
0000e230: 40 02 39 00 03 26 00 05 31 00 02 2c 00 03 2d 00  @.9..&..1..,..-.
0000e240: 37 39 40 0c 39 00 1c 2d 40 02 39 40 08 2c 40 05  79@.9..-@.9@.,@.
0000e250: 39 00 07 2c 00 03 2d 00 37 39 40 0c 39 00 18 3c  9..,..-.79@.9..<
0000e260: 40 04 2d 40 00 26 50 00 39 40 05 31 50 05 3c 00  @.-@.&P.9@.1P.<.
0000e270: 00 2c 40 02 39 00 0a 2c 00 03 2d 00 00 26 00 05  .,@.9..,..-..&..
0000e280: 31 00 2f 39 40 0d 39 00 1e 2d 40 00 39 40 0a 2c  1./9@.9..-@.9@.,
0000e290: 40 02 39 00 0a 2c 00 03 2d 00 37 39 40 0c 39 00  @.9..,..-.79@.9.
0000e2a0: 17 3c 40 05 2d 40 00 39 40 02 26 50 05 31 50 03  .<@.-@.9@.&P.1P.
0000e2b0: 3c 00 00 2c 40 02 39 00 03 26 00 05 31 00 02 2c  <..,@.9..&..1..,
0000e2c0: 00 03 2d 00 37 26 50 00 39 40 07 31 50 05 39 00  ..-.7&P.9@.1P.9.
0000e2d0: 05 26 00 05 31 00 12 2d 40 00 26 50 02 39 40 05  .&..1..-@.&P.9@.
0000e2e0: 31 50 03 2c 40 05 39 00 00 26 00 07 2c 00 00 31  1P.,@.9..&..,..1
0000e2f0: 00 03 2d 00 37 26 50 00 39 40 07 31 50 05 39 00  ..-.7&P.9@.1P.9.
0000e300: 00 26 00 0a 31 00 0a 3c 40 08 2d 40 00 26 50 00  .&..1..<@.-@.&P.
0000e310: 39 40 05 31 50 05 3c 00 00 2c 40 02 39 00 08 26  9@.1P.<..,@.9..&
0000e320: 00 02 2c 00 03 31 00 00 2d 00 34 39 40 0d 39 00  ..,..1..-.49@.9.
0000e330: 1e 2d 40 00 39 40 0a 2c 40 02 39 00 0a 2c 00 03  .-@.9@.,@.9..,..
0000e340: 2d 00 2f 3c 40 08 39 40 0a 3c 00 02 39 00 17 3c  -./<@.9@.<..9..<
0000e350: 40 05 2d 40 00 39 40 02 26 50 05 31 50 03 2c 40  @.-@.9@.&P.1P.,@
0000e360: 02 39 00 00 3c 00 03 26 00 05 31 00 02 2c 00 03  .9..<..&..1..,..
0000e370: 2d 00 37 39 40 0c 39 00 1c 2d 40 02 39 40 08 2c  -.79@.9..-@.9@.,
0000e380: 40 05 39 00 07 2c 00 03 2d 00 37 39 40 0c 39 00  @.9..,..-.79@.9.
0000e390: 17 3c 40 05 2d 40 00 26 50 00 39 40 05 31 50 05  .<@.-@.&P.9@.1P.
0000e3a0: 3c 00 00 2c 40 02 39 00 0a 2c 00 03 2d 00 00 26  <..,@.9..,..-..&
0000e3b0: 00 05 31 00 2f 39 40 0d 39 00 1e 2d 40 00 39 40  ..1./9@.9..-@.9@
0000e3c0: 0a 2c 40 02 39 00 0a 2c 00 03 2d 00 37 39 40 0c  .,@.9..,..-.79@.
0000e3d0: 39 00 19 3c 40 03 2d 40 00 39 40 02 26 50 05 31  9..<@.-@.9@.&P.1
0000e3e0: 50 03 2c 40 02 39 00 03 26 00 00 3c 00 05 31 00  P.,@.9..&..<..1.
0000e3f0: 02 2c 00 03 2d 00 37 39 40 0c 39 00 1c 2d 40 02  .,..-.79@.9..-@.
0000e400: 39 40 08 2c 40 05 39 00 07 2c 00 03 2d 00 37 39  9@.,@.9..,..-.79
0000e410: 40 0c 39 00 17 3c 40 05 2d 40 00 26 50 00 39 40  @.9..<@.-@.&P.9@
0000e420: 05 31 50 05 3c 00 00 2c 40 02 39 00 0a 2c 00 03  .1P.<..,@.9..,..
0000e430: 2d 00 00 26 00 05 31 00 2f 39 40 0d 39 00 1e 2d  -..&..1./9@.9..-
0000e440: 40 00 39 40 0a 2c 40 02 39 00 0a 2c 00 03 2d 00  @.9@.,@.9..,..-.
0000e450: 32 3c 40 05 39 40 0a 3c 00 02 39 00 17 3c 40 05  2<@.9@.<..9..<@.
0000e460: 2d 40 00 39 40 02 26 50 05 31 50 03 3c 00 00 2c  -@.9@.&P.1P.<..,
0000e470: 40 02 39 00 03 26 00 05 31 00 02 2c 00 03 2d 00  @.9..&..1..,..-.
0000e480: 37 39 40 0c 39 00 1c 2d 40 02 39 40 08 2c 40 05  79@.9..-@.9@.,@.
0000e490: 39 00 07 2c 00 03 2d 00 32 3c 40 05 39 40 0a 3c  9..,..-.2<@.9@.<
0000e4a0: 00 02 39 00 18 3c 40 04 2d 40 00 26 50 00 39 40  ..9..<@.-@.&P.9@
0000e4b0: 05 31 50 05 3c 00 00 2c 40 02 39 00 0a 2c 00 03  .1P.<..,@.9..,..
0000e4c0: 2d 00 00 26 00 05 31 00 2f 39 40 0d 39 00 1e 2d  -..&..1./9@.9..-
0000e4d0: 40 00 39 40 02 26 50 03 31 50 05 2c 40 02 39 00  @.9@.&P.1P.,@.9.
0000e4e0: 05 26 00 03 31 00 02 2c 00 03 2d 00 0f 26 50 05  .&..1..,..-..&P.
0000e4f0: 31 50 07 26 00 05 31 00 12 3c 40 05 26 50 00 39  1P.&..1..<@.&P.9
0000e500: 40 05 31 50 07 39 00 03 26 00 02 3c 00 05 31 00  @.1P.9..&..<..1.
0000e510: 12 2d 40 00 39 40 02 26 50 05 31 50 03 2c 40 02  .-@.9@.&P.1P.,@.
0000e520: 39 00 03 26 00 05 31 00 02 2c 00 03 2d 00 0f 26  9..&..1..,..-..&
0000e530: 50 07 31 50 05 26 00 08 31 00 14 26 50 00 39 40  P.1P.&..1..&P.9@
0000e540: 07 31 50 05 39 00 03 26 00 05 31 00 14 2d 40 02  .1P.9..&..1..-@.
0000e550: 26 50 00 39 40 08 2c 40 02 31 50 03 39 00 02 26  &P.9@.,@.1P.9..&
0000e560: 00 03 26 50 02 2c 00 03 2d 00 02 31 00 08 26 00  ..&P.,..-..1..&.
0000e570: 05 26 50 07 31 50 05 26 00 08 31 00 00 26 50 0c  .&P.1P.&..1..&P.
0000e580: 26 00 08 26 50 00 39 40 07 31 50 05 39 00 03 26  &..&P.9@.1P.9..&
0000e590: 00 05 31 00 14 2d 40 00 26 50 00 39 40 07 31 50  ..1..-@.&P.9@.1P
0000e5a0: 03 2c 40 02 39 00 03 26 00 07 2c 00 00 31 00 03  .,@.9..&..,..1..
0000e5b0: 2d 00 0f 26 50 07 31 50 08 26 00 07 31 00 0f 39  -..&P.1P.&..1..9
0000e5c0: 40 03 26 50 07 31 50 03 39 00 05 26 00 0a 31 00  @.&P.1P.9..&..1.
0000e5d0: 0f 2d 40 00 3e 40 05 2c 40 07 3e 00 05 2c 00 08  .-@.>@.,@.>..,..
0000e5e0: 2d 00 37 3e 40 0c 3e 00 19 3c 40 03 2d 40 00 3e  -.7>@.>..<@.-@.>
0000e5f0: 40 02 26 50 03 2c 40 02 31 50 05 3e 00 00 3c 00  @.&P.,@.1P.>..<.
0000e600: 03 26 00 02 2c 00 03 31 00 05 2d 00 37 3e 40 0c  .&..,..1..-.7>@.
0000e610: 3e 00 1c 2d 40 02 3e 40 03 2c 40 0a 3e 00 02 2c  >..-@.>@.,@.>..,
0000e620: 00 08 2d 00 37 3e 40 0c 3e 00 17 3c 40 05 2d 40  ..-.7>@.>..<@.-@
0000e630: 00 26 50 00 3e 40 05 2c 40 00 31 50 05 3c 00 02  .&P.>@.,@.1P.<..
0000e640: 3e 00 05 2c 00 08 2d 00 00 26 00 05 31 00 32 3e  >..,..-..&..1.2>
0000e650: 40 0c 3e 00 1c 2d 40 00 3e 40 05 2c 40 07 3e 00  @.>..-@.>@.,@.>.
0000e660: 05 2c 00 08 2d 00 32 3c 40 05 3e 40 0a 3c 00 03  .,..-.2<@.>@.<..
0000e670: 3e 00 16 3c 40 05 2d 40 02 26 50 00 3e 40 03 2c  >..<@.-@.&P.>@.,
0000e680: 40 02 31 50 03 3c 00 05 3e 00 00 26 00 02 2c 00  @.1P.<..>..&..,.
0000e690: 03 31 00 05 2d 00 34 3e 40 0d 3e 00 1e 2d 40 02  .1..-.4>@.>..-@.
0000e6a0: 3e 40 03 2c 40 0a 3e 00 02 2c 00 08 2d 00 37 3e  >@.,@.>..,..-.7>
0000e6b0: 40 0c 3e 00 17 3c 40 05 2d 40 00 26 50 02 3e 40  @.>..<@.-@.&P.>@
0000e6c0: 03 2c 40 00 31 50 0a 3e 00 01 3c 00 01 2c 00 08  .,@.1P.>..<..,..
0000e6d0: 2d 00 00 26 00 05 31 00 32 3e 40 0c 3e 00 1c 2d  -..&..1.2>@.>..-
0000e6e0: 40 00 3e 40 0a 2c 40 02 3e 00 0a 2c 00 03 2d 00  @.>@.,@.>..,..-.
0000e6f0: 37 3e 40 0c 3e 00 19 3c 40 03 2d 40 00 3e 40 02  7>@.>..<@.-@.>@.
0000e700: 26 50 05 31 50 03 2c 40 02 3e 00 00 3c 00 03 26  &P.1P.,@.>..<..&
0000e710: 00 05 31 00 02 2c 00 03 2d 00 37 3e 40 0c 3e 00  ..1..,..-.7>@.>.
0000e720: 1c 2d 40 02 3e 40 08 2c 40 05 3e 00 07 2c 00 03  .-@.>@.,@.>..,..
0000e730: 2d 00 37 3e 40 0c 3e 00 17 3c 40 05 2d 40 00 26  -.7>@.>..<@.-@.&
0000e740: 50 00 3e 40 05 31 50 05 3c 00 00 2c 40 02 3e 00  P.>@.1P.<..,@.>.
0000e750: 0a 2c 00 03 2d 00 00 26 00 05 31 00 2f 3e 40 0d  .,..-..&..1./>@.
0000e760: 3e 00 1e 2d 40 00 3e 40 0a 2c 40 02 3e 00 0a 2c  >..-@.>@.,@.>..,
0000e770: 00 03 2d 00 37 26 50 00 3e 40 05 31 50 07 3e 00  ..-.7&P.>@.1P.>.
0000e780: 01 26 00 04 31 00 12 3c 40 05 2d 40 00 3e 40 02  .&..1..<@.-@.>@.
0000e790: 26 50 05 31 50 03 3c 00 00 2c 40 02 3e 00 03 26  &P.1P.<..,@.>..&
0000e7a0: 00 05 31 00 02 2c 00 03 2d 00 0f 3e 40 0c 3e 00  ..1..,..-..>@.>.
0000e7b0: 1c 26 50 00 3e 40 05 31 50 07 3e 00 03 26 00 05  .&P.>@.1P.>..&..
0000e7c0: 31 00 14 2d 40 02 26 50 00 3e 40 03 31 50 05 2c  1..-@.&P.>@.1P.,
0000e7d0: 40 05 3e 00 02 26 00 05 2c 00 03 31 00 00 2d 00  @.>..&..,..1..-.
0000e7e0: 37 3e 40 01 26 50 04 31 50 07 3e 00 01 26 00 07  7>@.&P.1P.>..&..
0000e7f0: 31 00 0f 3c 40 05 2d 40 00 26 50 00 3e 40 05 31  1..<@.-@.&P.>@.1
0000e800: 50 05 3c 00 00 2c 40 02 3e 00 05 26 00 05 2c 00  P.<..,@.>..&..,.
0000e810: 00 31 00 03 2d 00 0f 26 50 00 3e 40 05 31 50 07  .1..-..&P.>@.1P.
0000e820: 3e 00 03 26 00 07 31 00 0f 3e 40 03 26 50 07 31  >..&..1..>@.&P.1
0000e830: 50 03 3e 00 05 26 00 0a 31 00 0f 2d 40 00 3e 40  P.>..&..1..-@.>@
0000e840: 02 26 50 08 2c 40 00 31 50 02 3e 00 05 26 00 05  .&P.,@.1P.>..&..
0000e850: 2c 00 03 31 00 00 2d 00 32 3c 40 05 3e 40 0a 3c  ,..1..-.2<@.>@.<
0000e860: 00 02 3e 00 15 3c 40 07 2d 40 00 3e 40 02 26 50  ..>..<@.-@.>@.&P
0000e870: 05 31 50 03 3c 00 00 2c 40 02 3e 00 03 26 00 05  .1P.<..,@.>..&..
0000e880: 31 00 02 2c 00 03 2d 00 37 3e 40 0c 3e 00 1c 2d  1..,..-.7>@.>..-
0000e890: 40 02 3e 40 08 2c 40 05 3e 00 07 2c 00 03 2d 00  @.>@.,@.>..,..-.
0000e8a0: 32 3c 40 05 3e 40 0a 3c 00 02 3e 00 17 3c 40 05  2<@.>@.<..>..<@.
0000e8b0: 2d 40 00 26 50 00 3e 40 05 31 50 05 3c 00 00 2c  -@.&P.>@.1P.<..,
0000e8c0: 40 02 3e 00 0a 2c 00 03 2d 00 00 26 00 05 31 00  @.>..,..-..&..1.
0000e8d0: 2f 3e 40 0d 3e 00 1e 2d 40 00 3e 40 0a 2c 40 02  />@.>..-@.>@.,@.
0000e8e0: 3e 00 0a 2c 00 03 2d 00 37 3e 40 0c 3e 00 19 3c  >..,..-.7>@.>..<
0000e8f0: 40 03 2d 40 00 3e 40 02 26 50 05 31 50 03 3c 00  @.-@.>@.&P.1P.<.
0000e900: 00 2c 40 02 3e 00 03 26 00 05 31 00 02 2c 00 03  .,@.>..&..1..,..
0000e910: 2d 00 37 3e 40 0c 3e 00 1c 2d 40 02 3e 40 08 2c  -.7>@.>..-@.>@.,
0000e920: 40 05 3e 00 07 2c 00 03 2d 00 37 3e 40 0c 3e 00  @.>..,..-.7>@.>.
0000e930: 17 3c 40 05 2d 40 00 26 50 00 3e 40 05 31 50 05  .<@.-@.&P.>@.1P.
0000e940: 3c 00 00 2c 40 02 3e 00 0a 2c 00 03 2d 00 00 26  <..,@.>..,..-..&
0000e950: 00 05 31 00 2f 3e 40 0d 3e 00 1e 2d 40 00 3e 40  ..1./>@.>..-@.>@
0000e960: 0a 2c 40 02 3e 00 0a 2c 00 03 2d 00 37 3e 40 0c  .,@.>..,..-.7>@.
0000e970: 3e 00 17 3c 40 05 2d 40 00 3e 40 02 26 50 05 31  >..<@.-@.>@.&P.1
0000e980: 50 03 3c 00 00 2c 40 02 3e 00 03 26 00 05 31 00  P.<..,@.>..&..1.
0000e990: 02 2c 00 03 2d 00 37 3e 40 0c 3e 00 1c 2d 40 02  .,..-.7>@.>..-@.
0000e9a0: 3e 40 08 2c 40 05 3e 00 07 2c 00 03 2d 00 37 3e  >@.,@.>..,..-.7>
0000e9b0: 40 0c 3e 00 18 3c 40 04 2d 40 00 26 50 00 3e 40  @.>..<@.-@.&P.>@
0000e9c0: 05 31 50 05 3c 00 00 2c 40 02 3e 00 0a 2c 00 03  .1P.<..,@.>..,..
0000e9d0: 2d 00 00 26 00 05 31 00 2f 3e 40 0d 3e 00 1e 2d  -..&..1./>@.>..-
0000e9e0: 40 00 3e 40 0a 2c 40 02 3e 00 0a 2c 00 03 2d 00  @.>@.,@.>..,..-.
0000e9f0: 37 3e 40 0c 3e 00 17 3c 40 05 2d 40 00 3e 40 02  7>@.>..<@.-@.>@.
0000ea00: 26 50 05 31 50 03 3c 00 00 2c 40 02 3e 00 03 26  &P.1P.<..,@.>..&
0000ea10: 00 05 31 00 02 2c 00 03 2d 00 37 26 50 00 3e 40  ..1..,..-.7&P.>@
0000ea20: 07 31 50 05 3e 00 05 26 00 05 31 00 12 2d 40 00  .1P.>..&..1..-@.
0000ea30: 26 50 02 3e 40 05 31 50 03 2c 40 05 3e 00 00 26  &P.>@.1P.,@.>..&
0000ea40: 00 07 2c 00 00 31 00 03 2d 00 37 26 50 00 3e 40  ..,..1..-.7&P.>@
0000ea50: 07 31 50 05 3e 00 00 26 00 0a 31 00 0a 3c 40 08  .1P.>..&..1..<@.
0000ea60: 2d 40 00 26 50 00 3e 40 05 31 50 05 3c 00 00 2c  -@.&P.>@.1P.<..,
0000ea70: 40 02 3e 00 08 26 00 02 2c 00 03 31 00 00 2d 00  @.>..&..,..1..-.
0000ea80: 34 3e 40 0d 3e 00 1e 2d 40 00 3e 40 0a 2c 40 02  4>@.>..-@.>@.,@.
0000ea90: 3e 00 0a 2c 00 03 2d 00 2f 3c 40 08 3e 40 0a 3c  >..,..-./<@.>@.<
0000eaa0: 00 02 3e 00 17 3c 40 05 2d 40 00 3e 40 02 26 50  ..>..<@.-@.>@.&P
0000eab0: 05 31 50 03 2c 40 02 3e 00 00 3c 00 03 26 00 05  .1P.,@.>..<..&..
0000eac0: 31 00 02 2c 00 03 2d 00 37 3e 40 0c 3e 00 1c 2d  1..,..-.7>@.>..-
0000ead0: 40 02 3e 40 08 2c 40 05 3e 00 07 2c 00 03 2d 00  @.>@.,@.>..,..-.
0000eae0: 37 3e 40 0c 3e 00 17 3c 40 05 2d 40 00 26 50 00  7>@.>..<@.-@.&P.
0000eaf0: 3e 40 05 31 50 05 3c 00 00 2c 40 02 3e 00 0a 2c  >@.1P.<..,@.>..,
0000eb00: 00 03 2d 00 00 26 00 05 31 00 2f 3e 40 0d 3e 00  ..-..&..1./>@.>.
0000eb10: 1e 2d 40 00 3e 40 0a 2c 40 02 3e 00 0a 2c 00 03  .-@.>@.,@.>..,..
0000eb20: 2d 00 37 3e 40 0c 3e 00 19 3c 40 03 2d 40 00 3e  -.7>@.>..<@.-@.>
0000eb30: 40 02 26 50 05 31 50 03 2c 40 02 3e 00 03 26 00  @.&P.1P.,@.>..&.
0000eb40: 00 3c 00 05 31 00 02 2c 00 03 2d 00 37 3e 40 0c  .<..1..,..-.7>@.
0000eb50: 3e 00 1c 2d 40 02 3e 40 08 2c 40 05 3e 00 07 2c  >..-@.>@.,@.>..,
0000eb60: 00 03 2d 00 37 26 50 00 3e 40 06 26 00 04 26 50  ..-.7&P.>@.&..&P
0000eb70: 02 3e 00 05 26 00 03 26 50 06 26 00 04 26 50 05  .>..&..&P.&..&P.
0000eb80: 3c 40 01 26 00 04 2d 40 00 26 50 00 3e 40 05 31  <@.&..-@.&P.>@.1
0000eb90: 50 02 26 00 03 3c 00 00 2c 40 00 26 50 02 3e 00  P.&..<..,@.&P.>.
0000eba0: 05 26 00 03 26 50 02 2c 00 03 2d 00 02 26 00 03  .&..&P.,..-..&..
0000ebb0: 31 00 00 26 50 06 26 00 04 26 50 06 26 00 04 26  1..&P.&..&P.&..&
0000ebc0: 50 06 26 00 04 26 50 07 26 00 03 26 50 06 26 00  P.&..&P.&..&P.&.
0000ebd0: 01 3e 40 03 26 50 06 26 00 04 3e 00 00 26 50 06  .>@.&P.&..>..&P.
0000ebe0: 26 00 04 26 50 05 26 00 05 26 50 05 26 00 05 2d  &..&P.&..&P.&..-
0000ebf0: 40 00 3e 40 01 2c 40 00 26 50 06 2c 40 05 3e 00  @.>@.,@.&P.,@.>.
0000ec00: 01 2c 00 03 26 00 09 2d 00 06 2c 00 06 3f 40 14  .,..&..-..,..?@.
0000ec10: 3f 00 0f 2c 40 08 26 50 02 34 40 09 2c 00 06 26  ?..,@.&P.4@.,..&
0000ec20: 00 03 34 00 14 26 50 05 34 40 0b 2c 40 06 26 00  ..4..&P.4@.,@.&.
0000ec30: 08 34 00 08 2c 00 28 2d 40 02 31 50 00 26 50 00  .4..,.(-@.1P.&P.
0000ec40: 32 40 0d 2d 00 02 31 00 00 26 00 00 32 00 16 2d  2@.-..1..&..2..-
0000ec50: 40 03 26 50 05 31 50 0d 2d 00 09 26 00 05 31 00  @.&P.1P.-..&..1.
0000ec60: 26 2d 40 06 2c 40 04 34 40 0c 2d 00 05 34 00 00  &-@.,@.4@.-..4..
0000ec70: 2c 00 13 2d 40 01 32 40 03 26 50 05 2c 40 00 34  ,..-@.2@.&P.,@.4
0000ec80: 40 0a 32 00 01 2d 00 0c 2c 00 02 26 00 02 34 00  @.2..-..,..&..4.
0000ec90: 2d 32 40 03 26 50 02 31 50 01 2d 40 07 32 00 07  -2@.&P.1P.-@.2..
0000eca0: 26 00 00 31 00 05 2d 00 12 3d 40 02 26 50 00 32  &..1..-..=@.&P.2
0000ecb0: 40 01 31 50 02 2d 40 0c 32 00 03 3d 00 02 26 00  @.1P.-@.2..=..&.
0000ecc0: 00 31 00 03 2d 00 10 26 50 01 31 50 12 31 00 01  .1..-..&P.1P.1..
0000ecd0: 26 00 13 2c 40 00 26 50 02 34 40 01 2d 40 0e 26  &..,@.&P.4@.-@.&
0000ece0: 00 03 2c 00 00 34 00 01 2d 00 11 2d 40 02 39 40  ..,..4..-..-@.9@
0000ecf0: 00 3f 40 01 2c 40 01 26 50 03 34 40 0f 26 00 00  .?@.,@.&P.4@.&..
0000ed00: 3f 00 00 39 00 01 2d 00 00 2c 00 04 34 00 30 2d  ?..9..-..,..4.0-
0000ed10: 40 05 2c 40 02 26 50 00 33 40 00 32 40 02 31 50  @.,@.&P.3@.2@.1P
0000ed20: 09 2d 00 04 32 00 02 2c 00 04 33 00 01 26 00 03  .-..2..,..3..&..
0000ed30: 31 00 0f 34 40 02 2d 40 05 34 00 03 26 50 07 26  1..4@.-@.4..&P.&
0000ed40: 00 03 34 40 01 2d 00 06 34 00 03 26 50 07 26 00  ..4@.-..4..&P.&.
0000ed50: 03 34 40 07 34 00 03 26 50 07 26 00 03 34 40 07  .4@.4..&P.&..4@.
0000ed60: 34 00 03 26 50 07 26 00 03 34 40 07 34 00 03 26  4..&P.&..4@.4..&
0000ed70: 50 00 39 40 07 26 00 03 34 40 02 39 00 05 34 00  P.9@.&..4@.9..4.
0000ed80: 03 26 50 07 26 00 03 34 40 07 34 00 03 26 50 07  .&P.&..4@.4..&P.
0000ed90: 26 00 03 34 40 07 34 00 03 26 50 07 26 00 03 34  &..4@.4..&P.&..4
0000eda0: 40 00 39 40 07 34 00 03 26 50 05 39 00 02 26 00  @.9@.4..&P.9..&.
0000edb0: 03 34 40 07 34 00 03 26 50 07 26 00 03 34 40 00  .4@.4..&P.&..4@.
0000edc0: 39 40 05 2c 40 02 34 00 03 26 50 07 26 00 00 39  9@.,@.4..&P.&..9
0000edd0: 00 03 31 50 05 2c 00 02 31 00 03 26 50 07 26 00  ..1P.,..1..&P.&.
0000ede0: 03 3f 40 01 2d 40 01 39 40 03 2c 40 0c 39 00 03  .?@.-@.9@.,@.9..
0000edf0: 3f 00 06 2c 00 02 2d 00 0c 26 50 00 39 40 0c 26  ?..,..-..&P.9@.&
0000ee00: 00 05 39 00 05 2d 40 12 39 40 02 2d 00 08 26 50  ..9..-@.9@.-..&P
0000ee10: 07 39 00 05 26 00 12 39 40 05 2d 40 0a 39 00 0d  .9..&..9@.-@.9..
0000ee20: 2d 00 02 26 50 0a 39 40 02 26 00 0f 39 00 1c 2d  -..&P.9@.&..9..-
0000ee30: 40 16 2d 00 00 ff 2f 00 4d 54 72 6b 00 00 00 1e  @.-.../.MTrk....
0000ee40: 00 ff 21 01 00 00 ff 03 0e 43 68 72 69 73 20 41  ..!......Chris A
0000ee50: 68 6c 73 74 72 6f 6d 00 c0 00 00 ff 2f 00 4d 54  hlstrom...../.MT
0000ee60: 72 6b 00 00 00 1f 00 ff 21 01 00 00 ff 03 0f 28  rk......!......(
0000ee70: 47 45 6e 69 65 3a 20 4b 49 43 4b 41 48 41 00 c0  GEnie: KICKAHA..
0000ee80: 00 00 ff 2f 00 4d 54 72 6b 00 00 00 18 00 ff 21  .../.MTrk......!
0000ee90: 01 00 00 ff 03 0b 22 42 65 66 6f 72 65 20 59 6f  ......"Before Yo
0000eea0: 75 00 ff 2f 00 4d 54 72 6b 00 00 00 1a 00 ff 21  u../.MTrk......!
0000eeb0: 01 00 00 ff 03 0d 41 63 63 75 73 65 20 4d 65 22  ......Accuse Me"
0000eec0: 20 62 79 00 ff 2f 00 4d 54 72 6b 00 00 00 1b 00   by../.MTrk.....
0000eed0: ff 21 01 00 00 ff 03 0e 45 72 69 63 20 43 6c 61  .!......Eric Cla
0000eee0: 70 74 6f 6e 20 26 00 ff 2f 00 4d 54 72 6b 00 00  pton &../.MTrk..
0000eef0: 00 18 00 ff 21 01 00 00 ff 03 0b 52 6f 62 65 72  ....!......Rober
0000ef00: 74 20 43 72 61 79 00 ff 2f 00 0a                 t Cray../..
