Hex dump of b4uacuse-GM-alternate.midi
Chris Ahlstrom
2015-10-11

Created using vim and the command :%!xxd -g 1

The MIDI version of this file (b4uacuse-GM-bad.midi) ferreted out a "bug" in
midicvt that caused a segfault, due to a missing "02"  at about offset 0x19.
Timidity plays the file fine, though.  The missing "02" occurs because sequence
number 0 can be represented by "FF 00 00" instead of "FF 00 02 00 00".
(And in the former case, only the first track can use the "FF 00 00" sequence.

Here, Sequencer64 (and Seq24) write the longer format for each track, including
track 0.

00000000: 4d 54 68 64 00 00 00 06 00 01 00 0e 00 c0 4d 54  MThd..........MT
00000010: 72 6b 00 00 00 38 00 ff 00 00 00 ff 03 08 55 6e  rk...8........Un
00000020: 74 69 74 6c 65 64 00 ff 7f 04 24 24 00 08 00 ff  titled....$$....
00000030: 7f 05 24 24 00 01 00 00 ff 7f 06 24 24 00 06 04  ..$$.......$$...
00000040: 04 00 ff 7f 05 24 24 00 02 00 30 ff 2f 00 4d 54  .....$$...0./.MT
00000050: 72 6b 00 00 00 68 00 ff 00 02 00 01 00 ff 03 0f  rk...h..........
00000060: 50 53 53 2d 37 39 30 20 50 61 74 63 68 69 6e 00  PSS-790 Patchin.
00000070: c4 21 00 c4 03 00 c4 45 00 c4 1a 00 c4 19 00 ff  .!.....E........
00000080: 7f 1c 24 24 00 08 00 00 00 f0 00 00 01 1f 00 00  ..$$............
00000090: 00 00 00 00 03 00 00 00 08 cf 00 00 00 00 00 ff  ................
000000a0: 7f 05 24 24 00 01 00 00 ff 7f 06 24 24 00 06 04  ..$$.......$$...
000000b0: 04 00 ff 7f 05 24 24 00 02 04 30 ff 2f 00 4d 54  .....$$...0./.MT
000000c0: 72 6b 00 00 48 8c 00 ff 00 02 00 02 00 ff 03 0f  rk..H...........
000000d0: 47 75 69 74 61 72 20 31 20 28 45 2e 43 2e 29 84  Guitar 1 (E.C.).
000000e0: 40 90 47 7f 30 80 47 00 10 e0 00 40 00 90 4a 7f  @.G.0.G....@..J.
000000f0: 08 e0 00 41 10 e0 00 42 0b e0 00 41 08 e0 00 40  ...A...B...A...@
00000100: 05 80 4a 00 10 90 4c 7f 30 80 4c 00 10 90 4f 7f  ..J...L.0.L...O.
00000110: 6b e0 00 41 08 e0 00 42 08 e0 00 44 08 e0 00 44  k..A...B...D...D
00000120: 08 e0 00 42 0d e0 00 41 10 e0 49 40 0b e0 00 40  ...B...A..I@...@
00000130: 0d 90 4c 7f 00 80 4f 00 30 80 4c 00 10 90 4a 7f  ..L...O.0.L...J.
00000140: 30 80 4a 00 10 90 4c 7f 30 80 4c 00 10 90 4f 7f  0.J...L.0.L...O.
00000150: 08 e0 00 41 10 e0 00 42 0b e0 00 41 08 e0 00 40  ...A...B...A...@
00000160: 05 80 4f 00 03 e0 00 40 00 e0 00 40 00 e0 00 40  ..O....@...@...@
00000170: 0d 90 4c 7f 30 80 4c 00 10 90 47 7f 30 80 47 00  ..L.0.L...G.0.G.
00000180: 10 90 45 7f 30 80 45 00 10 90 44 7f 30 80 44 00  ..E.0.E...D.0.D.
00000190: 10 90 40 7f 30 80 40 00 10 90 47 7f 00 90 40 7f  ..@.0.@...G...@.
000001a0: 00 90 4c 7f 00 90 44 7f 70 80 44 00 00 80 47 00  ..L...D.p.D...G.
000001b0: 00 80 40 00 00 80 4c 00 10 90 39 7f 30 80 39 00  ..@...L...9.0.9.
000001c0: 10 90 3b 7f 00 90 3f 7f 00 90 4b 7f 20 80 4b 00  ..;...?...K. .K.
000001d0: 50 80 3f 00 00 80 3b 00 10 90 3b 7f 00 90 3f 7f  P.?...;...;...?.
000001e0: 00 90 4b 7f 20 80 4b 00 81 10 80 3f 00 00 80 3b  ..K. .K....?...;
000001f0: 00 10 90 3b 7f 30 80 3b 00 10 90 3e 7f 30 80 3e  ...;.0.;...>.0.>
00000200: 00 10 90 3f 7f 30 80 3f 00 10 90 40 7f 30 80 40  ...?.0.?...@.0.@
00000210: 00 10 90 34 7f 00 90 3b 7f 70 80 3b 00 00 80 34  ...4...;.p.;...4
00000220: 00 10 90 34 7f 30 80 34 00 10 90 34 7f 00 90 3d  ...4.0.4...4...=
00000230: 7f 70 80 3d 00 00 80 34 00 10 90 34 7f 30 80 34  .p.=...4...4.0.4
00000240: 00 10 90 34 7f 00 90 3b 7f 70 80 3b 00 00 80 34  ...4...;.p.;...4
00000250: 00 10 90 34 7f 30 80 34 00 10 90 34 7f 00 90 3d  ...4.0.4...4...=
00000260: 7f 70 80 3d 00 00 80 34 00 10 90 34 7f 10 80 34  .p.=...4...4...4
00000270: 00 30 90 3e 7f 00 90 34 7f 81 10 80 34 00 00 80  .0.>...4....4...
00000280: 3e 00 30 90 3d 7f 00 90 34 7f 81 10 80 34 00 00  >.0.=...4....4..
00000290: 80 3d 00 30 90 34 7f 00 90 3b 7f 70 80 3b 00 00  .=.0.4...;.p.;..
000002a0: 80 34 00 10 90 34 7f 30 80 34 00 10 90 3e 7f 30  .4...4.0.4...>.0
000002b0: 80 3e 00 10 90 3d 7f 30 80 3d 00 10 90 39 7f 30  .>...=.0.=...9.0
000002c0: 80 39 00 10 90 39 7f 00 90 40 7f 70 80 40 00 00  .9...9...@.p.@..
000002d0: 80 39 00 10 90 39 7f 30 80 39 00 10 90 39 7f 00  .9...9.0.9...9..
000002e0: 90 42 7f 70 80 42 00 00 80 39 00 10 90 39 7f 30  .B.p.B...9...9.0
000002f0: 80 39 00 10 90 39 7f 00 90 40 7f 70 80 40 00 00  .9...9...@.p.@..
00000300: 80 39 00 10 90 39 7f 00 90 45 7f 20 80 45 00 10  .9...9...E. .E..
00000310: 80 39 00 10 90 39 7f 00 90 42 7f 00 90 4e 7f 18  .9...9...B...N..
00000320: 80 4e 00 58 80 42 00 00 80 39 00 10 90 40 7f 30  .N.X.B...9...@.0
00000330: 80 40 00 10 90 34 7f 00 90 3b 7f 70 80 3b 00 00  .@...4...;.p.;..
00000340: 80 34 00 10 90 34 7f 30 80 34 00 10 90 34 7f 00  .4...4.0.4...4..
00000350: 90 3d 7f 70 80 3d 00 00 80 34 00 10 90 34 7f 30  .=.p.=...4...4.0
00000360: 80 34 00 10 90 34 7f 00 90 3e 7f 70 80 3e 00 00  .4...4...>.p.>..
00000370: 80 34 00 10 90 34 7f 30 80 34 00 10 90 39 7f 00  .4...4.0.4...9..
00000380: 90 40 7f 18 80 40 00 00 80 39 00 28 90 45 7f 00  .@...@...9.(.E..
00000390: 90 40 7f 30 80 40 00 00 80 45 00 10 90 39 7f 00  .@.0.@...E...9..
000003a0: 90 40 7f 30 80 40 00 00 80 39 00 0c e0 00 40 04  .@.0.@...9....@.
000003b0: 90 43 7f 01 e0 00 41 08 e0 00 42 07 e0 00 41 03  .C....A...B...A.
000003c0: e0 00 40 00 80 43 00 05 e0 00 3f 00 90 44 7f 03  ..@..C....?..D..
000003d0: e0 00 3e 06 e0 00 3f 03 e0 00 40 05 e0 00 41 02  ..>...?...@...A.
000003e0: 80 44 00 01 e0 00 42 04 90 43 7f 01 e0 00 41 03  .D....B..C....A.
000003f0: e0 00 40 05 e0 00 3f 03 e0 00 3e 05 e0 00 3f 03  ..@...?...>...?.
00000400: e0 00 40 05 e0 00 41 03 e0 00 42 05 e0 00 41 03  ..@...A...B...A.
00000410: e0 00 40 05 e0 00 3f 03 e0 00 3e 07 e0 00 3f 08  ..@...?...>...?.
00000420: e0 00 40 05 80 43 00 10 90 47 7f 00 90 4c 7f 30  ..@..C...G...L.0
00000430: 80 4c 00 00 80 47 00 10 90 36 7f 00 90 3d 7f 70  .L...G...6...=.p
00000440: 80 3d 00 00 80 36 00 10 90 34 7f 30 80 34 00 10  .=...6...4.0.4..
00000450: 90 34 7f 00 90 3b 7f 70 80 3b 00 00 80 34 00 10  .4...;.p.;...4..
00000460: 90 34 7f 30 80 34 00 10 90 37 7f 30 80 37 00 10  .4.0.4...7.0.7..
00000470: 90 39 7f 00 90 40 7f 30 80 40 00 00 80 39 00 10  .9...@.0.@...9..
00000480: 90 39 7f 00 90 42 7f 30 80 42 00 00 80 39 00 10  .9...B.0.B...9..
00000490: 90 39 7f 00 90 40 7f 70 80 40 00 00 80 39 00 10  .9...@.p.@...9..
000004a0: 90 39 7f 30 80 39 00 10 90 3c 7f 00 90 40 7f 70  .9.0.9...<...@.p
000004b0: 80 40 00 00 80 3c 00 10 90 3d 7f 30 80 3d 00 10  .@...<...=.0.=..
000004c0: 90 45 7f 00 90 51 7f 00 90 40 7f 00 90 45 7f 10  .E...Q...@...E..
000004d0: 80 51 00 60 80 45 00 00 80 40 00 00 80 45 00 10  .Q.`.E...@...E..
000004e0: 90 39 7f 30 80 39 00 10 90 42 7f 30 80 42 00 10  .9.0.9...B.0.B..
000004f0: 90 43 7f 30 80 43 00 10 90 42 7f 30 80 42 00 10  .C.0.C...B.0.B..
00000500: 90 39 7f 00 90 40 7f 70 80 40 00 00 80 39 00 10  .9...@.p.@...9..
00000510: 90 39 7f 30 80 39 00 10 90 42 7f 00 90 39 7f 70  .9.0.9...B...9.p
00000520: 80 39 00 00 80 42 00 10 90 39 7f 30 80 39 00 10  .9...B...9.0.9..
00000530: 90 39 7f 00 90 40 7f 70 80 40 00 00 80 39 00 10  .9...@.p.@...9..
00000540: 90 39 7f 30 80 39 00 10 90 39 7f 00 90 42 7f 70  .9.0.9...9...B.p
00000550: 80 42 00 00 80 39 00 10 90 39 7f 30 80 39 00 10  .B...9...9.0.9..
00000560: 90 34 7f 00 90 3b 7f 70 80 3b 00 00 80 34 00 10  .4...;.p.;...4..
00000570: 90 34 7f 30 80 34 00 10 90 34 7f 00 90 3d 7f 70  .4.0.4...4...=.p
00000580: 80 3d 00 00 80 34 00 10 90 34 7f 30 80 34 00 10  .=...4...4.0.4..
00000590: 90 34 7f 00 90 3b 7f 70 80 3b 00 00 80 34 00 10  .4...;.p.;...4..
000005a0: 90 34 7f 30 80 34 00 10 90 3b 7f 30 80 3b 00 10  .4.0.4...;.0.;..
000005b0: 90 45 7f 30 80 45 00 10 90 3b 7f 30 80 3b 00 10  .E.0.E...;.0.;..
000005c0: e0 00 40 00 90 43 7f 03 e0 00 41 06 e0 00 42 07  ..@..C....A...B.
000005d0: e0 00 41 03 e0 00 40 00 80 43 00 05 e0 00 40 00  ..A...@..C....@.
000005e0: 90 44 7f 03 e0 00 3e 05 e0 00 40 03 e0 00 40 01  .D....>...@...@.
000005f0: e0 00 41 04 e0 00 42 03 e0 00 44 00 80 44 00 01  ..A...B...D..D..
00000600: e0 00 45 04 e0 00 44 00 90 43 7f 03 e0 00 42 01  ..E...D..C....B.
00000610: e0 00 41 04 e0 00 40 03 e0 00 3f 01 e0 00 3e 05  ..A...@...?...>.
00000620: e0 00 3f 03 e0 00 40 05 e0 00 41 03 e0 00 42 04  ..?...@...A...B.
00000630: e0 00 41 03 e0 00 40 01 e0 00 40 05 e0 00 3e 02  ..A...@...@...>.
00000640: e0 00 3e 05 e0 00 3c 03 e0 00 3e 05 e0 00 3e 03  ..>...<...>...>.
00000650: e0 00 40 05 80 43 00 10 90 34 7f 30 80 34 00 10  ..@..C...4.0.4..
00000660: 90 3d 7f 70 80 3d 00 10 90 34 7f 30 80 34 00 10  .=.p.=...4.0.4..
00000670: 90 34 7f 00 90 3b 7f 70 80 3b 00 00 80 34 00 10  .4...;.p.;...4..
00000680: 90 34 7f 30 80 34 00 10 90 34 7f 00 90 3d 7f 70  .4.0.4...4...=.p
00000690: 80 3d 00 00 80 34 00 10 90 34 7f 30 80 34 00 10  .=...4...4.0.4..
000006a0: 90 3b 7f 70 80 3b 00 10 90 45 7f 70 80 45 00 10  .;.p.;...E.p.E..
000006b0: 90 47 7f 70 80 47 00 10 90 47 7f 70 80 47 00 10  .G.p.G...G.p.G..
000006c0: 90 45 7f 81 30 80 45 00 10 90 37 7f 03 e0 00 40  .E..0.E...7....@
000006d0: 05 e0 00 3f 03 e0 00 3e 05 e0 00 3c 00 90 38 7f  ...?...>...<..8.
000006e0: 00 80 37 00 08 e0 00 3e 08 e0 00 3f 08 e0 00 40  ..7....>...?...@
000006f0: 0b 80 38 00 0d 90 39 7f 00 90 40 7f 70 80 40 00  ..8...9...@.p.@.
00000700: 00 80 39 00 10 90 39 7f 00 90 40 7f 30 80 40 00  ..9...9...@.0.@.
00000710: 00 80 39 00 10 90 42 7f 00 90 39 7f 70 80 39 00  ..9...B...9.p.9.
00000720: 00 80 42 00 10 90 39 7f 30 80 39 00 10 90 39 7f  ..B...9.0.9...9.
00000730: 00 90 43 7f 81 10 80 43 00 00 80 39 00 30 90 39  ..C....C...9.0.9
00000740: 7f 00 90 42 7f 70 80 42 00 00 80 39 00 10 90 39  ...B.p.B...9...9
00000750: 7f 30 80 39 00 10 90 34 7f 00 90 3b 7f 70 80 3b  .0.9...4...;.p.;
00000760: 00 00 80 34 00 10 90 34 7f 30 80 34 00 10 90 34  ...4...4.0.4...4
00000770: 7f 00 90 3d 7f 70 80 3d 00 00 80 34 00 10 90 34  ...=.p.=...4...4
00000780: 7f 30 80 34 00 10 90 34 7f 00 90 3b 7f 70 80 3b  .0.4...4...;.p.;
00000790: 00 00 80 34 00 10 90 34 7f 30 80 34 00 10 90 34  ...4...4.0.4...4
000007a0: 7f 00 90 3b 7f 10 80 3b 00 00 80 34 00 30 90 40  ...;...;...4.0.@
000007b0: 7f 30 80 40 00 10 90 40 7f 30 80 40 00 10 e0 00  .0.@...@.0.@....
000007c0: 40 00 90 43 7f 03 e0 00 41 05 90 44 7f 00 80 43  @..C....A..D...C
000007d0: 00 01 e0 00 42 07 e0 00 41 00 90 43 7f 00 80 44  ....B...A..C...D
000007e0: 00 03 e0 00 40 05 e0 00 3f 03 e0 00 3e 06 e0 00  ....@...?...>...
000007f0: 3f 03 e0 00 40 05 e0 00 41 03 e0 00 42 04 e0 00  ?...@...A...B...
00000800: 41 03 e0 00 40 05 e0 00 3f 03 e0 00 3e 05 e0 00  A...@...?...>...
00000810: 3f 03 e0 00 40 05 e0 00 41 03 e0 00 42 06 e0 00  ?...@...A...B...
00000820: 41 03 e0 00 40 05 e0 00 3f 03 e0 00 3e 08 e0 00  A...@...?...>...
00000830: 3f 08 e0 00 40 04 80 43 00 03 e0 00 40 0d 90 3b  ?...@..C....@..;
00000840: 7f 30 80 3b 00 10 90 3f 7f 00 90 3b 7f 00 90 45  .0.;...?...;...E
00000850: 7f 70 80 45 00 00 80 3b 00 00 80 3f 00 10 90 3f  .p.E...;...?...?
00000860: 7f 00 90 45 7f 00 90 47 7f 70 80 47 00 00 80 45  ...E...G.p.G...E
00000870: 00 00 80 3f 00 10 90 45 7f 70 80 45 00 10 90 47  ...?...E.p.E...G
00000880: 7f 00 90 45 7f 00 90 3f 7f 81 10 80 3f 00 00 80  ...E...?....?...
00000890: 45 00 00 80 47 00 30 90 3b 7f 00 90 34 7f 70 80  E...G.0.;...4.p.
000008a0: 34 00 00 80 3b 00 10 90 34 7f 30 80 34 00 10 90  4...;...4.0.4...
000008b0: 3d 7f 00 90 34 7f 70 80 34 00 00 80 3d 00 10 90  =...4.p.4...=...
000008c0: 34 7f 30 80 34 00 10 90 3e 7f 00 90 34 7f 70 80  4.0.4...>...4.p.
000008d0: 34 00 00 80 3e 00 10 90 34 7f 30 80 34 00 10 90  4...>...4.0.4...
000008e0: 3d 7f 30 80 3d 00 10 90 3e 7f 30 80 3e 00 10 90  =.0.=...>.0.>...
000008f0: 42 7f 00 90 39 7f 30 80 39 00 00 80 42 00 10 90  B...9.0.9...B...
00000900: 39 7f 00 90 40 7f 70 80 40 00 00 80 39 00 10 90  9...@.p.@...9...
00000910: 39 7f 00 90 40 7f 30 80 40 00 00 80 39 00 10 90  9...@.0.@...9...
00000920: 42 7f 00 90 39 7f 70 80 39 00 00 80 42 00 10 90  B...9.p.9...B...
00000930: 39 7f 00 90 45 7f 10 80 45 00 20 80 39 00 10 90  9...E...E. .9...
00000940: 40 7f 00 90 39 7f 81 10 80 39 00 00 80 40 00 30  @...9....9...@.0
00000950: 90 42 7f 00 90 39 7f 70 80 39 00 00 80 42 00 10  .B...9.p.9...B..
00000960: 90 39 7f 30 80 39 00 10 90 34 7f 00 90 3b 7f 70  .9.0.9...4...;.p
00000970: 80 3b 00 00 80 34 00 10 90 34 7f 00 90 3b 7f 30  .;...4...4...;.0
00000980: 80 3b 00 00 80 34 00 10 90 3d 7f 00 90 34 7f 70  .;...4...=...4.p
00000990: 80 34 00 00 80 3d 00 10 90 38 7f 30 80 38 00 10  .4...=...8.0.8..
000009a0: 90 34 7f 00 90 3b 7f 70 80 3b 00 00 80 34 00 10  .4...;.p.;...4..
000009b0: 90 34 7f 30 80 34 00 10 90 34 7f 10 80 34 00 28  .4.0.4...4...4.(
000009c0: 90 45 7f 30 80 45 00 10 90 40 7f 30 80 40 00 11  .E.0.E...@.0.@..
000009d0: e0 00 40 03 e0 00 41 04 90 43 7f 01 e0 00 42 03  ..@...A..C....B.
000009e0: e0 00 44 05 e0 00 45 03 e0 00 44 00 80 43 00 04  ..D...E...D..C..
000009f0: 90 44 7f 01 e0 00 42 02 e0 00 41 01 e0 00 40 05  .D....B...A...@.
00000a00: e0 00 3f 02 e0 00 3e 00 80 44 00 01 e0 00 3f 04  ..?...>..D....?.
00000a10: 90 43 7f 01 e0 00 40 02 e0 00 41 05 e0 00 42 01  .C....@...A...B.
00000a20: e0 00 44 03 e0 24 44 04 e0 00 44 03 e0 00 42 01  ..D..$D...D...B.
00000a30: e0 00 41 04 e0 00 40 03 e0 00 3f 01 e0 00 3e 05  ..A...@...?...>.
00000a40: e0 00 3f 03 e0 00 40 05 e0 00 41 03 e0 00 42 05  ..?...@...A...B.
00000a50: e0 00 41 03 e0 00 40 05 e0 00 3f 03 e0 00 3e 07  ..A...@...?...>.
00000a60: e0 00 3f 08 e0 00 40 05 80 43 00 01 e0 00 40 0f  ..?...@..C....@.
00000a70: 90 34 7f 30 80 34 00 10 90 34 7f 00 90 3d 7f 70  .4.0.4...4...=.p
00000a80: 80 3d 00 00 80 34 00 10 90 34 7f 30 80 34 00 10  .=...4...4.0.4..
00000a90: 90 34 7f 00 90 3b 7f 70 80 3b 00 00 80 34 00 10  .4...;.p.;...4..
00000aa0: 90 34 7f 30 80 34 00 10 90 3d 7f 00 90 34 7f 70  .4.0.4...=...4.p
00000ab0: 80 34 00 00 80 3d 00 10 90 34 7f 30 80 34 00 10  .4...=...4.0.4..
00000ac0: 90 39 7f 00 90 40 7f 70 80 40 00 00 80 39 00 10  .9...@.p.@...9..
00000ad0: 90 39 7f 30 80 39 00 10 90 42 7f 00 90 39 7f 70  .9.0.9...B...9.p
00000ae0: 80 39 00 00 80 42 00 10 90 39 7f 30 80 39 00 10  .9...B...9.0.9..
00000af0: 90 39 7f 00 90 40 7f 70 80 40 00 00 80 39 00 10  .9...@.p.@...9..
00000b00: 90 39 7f 00 90 40 7f 30 80 40 00 00 80 39 00 0c  .9...@.0.@...9..
00000b10: e0 00 40 04 e0 00 41 00 90 42 7f 01 e0 00 42 02  ..@...A..B....B.
00000b20: e0 00 44 01 e0 24 44 04 e0 00 44 03 e0 00 42 01  ..D..$D...D...B.
00000b30: e0 00 41 05 e0 00 40 02 e0 00 40 05 e0 00 3f 01  ..A...@...@...?.
00000b40: e0 00 3e 03 e0 00 3c 04 e0 00 3e 01 e0 00 3f 03  ..>...<...>...?.
00000b50: e0 00 40 0c 80 42 00 10 90 43 7f 30 80 43 00 10  ..@..B...C.0.C..
00000b60: 90 42 7f 30 80 42 00 10 90 40 7f 00 90 39 7f 70  .B.0.B...@...9.p
00000b70: 80 39 00 00 80 40 00 10 90 39 7f 30 80 39 00 10  .9...@...9.0.9..
00000b80: 90 42 7f 00 90 39 7f 81 10 80 39 00 00 80 42 00  .B...9....9...B.
00000b90: 30 90 39 7f 00 90 40 7f 81 10 80 40 00 00 80 39  0.9...@....@...9
00000ba0: 00 30 90 42 7f 00 90 39 7f 81 10 80 39 00 00 80  .0.B...9....9...
00000bb0: 42 00 30 90 34 7f 00 90 3b 7f 70 80 3b 00 00 80  B.0.4...;.p.;...
00000bc0: 34 00 10 90 34 7f 30 80 34 00 10 90 3d 7f 00 90  4...4.0.4...=...
00000bd0: 34 7f 70 80 34 00 00 80 3d 00 10 90 34 7f 30 80  4.p.4...=...4.0.
00000be0: 34 00 10 90 3b 7f 00 90 34 7f 70 80 34 00 00 80  4...;...4.p.4...
00000bf0: 3b 00 10 90 4c 7f 00 90 34 7f 10 80 4c 00 20 80  ;...L...4...L. .
00000c00: 34 00 10 90 3b 7f 00 90 34 7f 10 80 34 00 00 80  4...;...4...4...
00000c10: 3b 00 30 90 55 7f 00 90 45 7f 00 90 49 7f 10 80  ;.0.U...E...I...
00000c20: 55 00 20 80 49 00 00 80 45 00 10 90 40 7f 30 80  U. .I...E...@.0.
00000c30: 40 00 10 e0 00 40 00 90 43 7f 03 e0 00 41 06 e0  @....@..C....A..
00000c40: 00 42 02 80 43 00 01 e0 00 41 04 90 44 7f 01 e0  .B..C....A..D...
00000c50: 00 40 03 e0 00 3f 05 e0 00 3e 03 e0 00 3f 00 80  .@...?...>...?..
00000c60: 44 00 04 90 43 7f 01 e0 00 40 07 e0 00 41 03 e0  D...C....@...A..
00000c70: 00 42 06 e0 00 41 03 e0 00 40 05 e0 00 3f 03 e0  .B...A...@...?..
00000c80: 00 3e 05 e0 00 3f 03 e0 00 40 05 e0 00 41 03 e0  .>...?...@...A..
00000c90: 00 42 04 e0 00 41 03 e0 00 40 01 e0 00 40 05 e0  .B...A...@...@..
00000ca0: 00 3f 02 e0 00 3e 05 e0 00 3c 01 e0 00 3e 03 e0  .?...>...<...>..
00000cb0: 00 3f 04 e0 00 40 08 80 43 00 10 90 34 7f 30 80  .?...@..C...4.0.
00000cc0: 34 00 10 90 34 7f 00 90 3d 7f 70 80 3d 00 00 80  4...4...=.p.=...
00000cd0: 34 00 10 90 34 7f 30 80 34 00 10 90 34 7f 00 90  4...4.0.4...4...
00000ce0: 3b 7f 70 80 3b 00 00 80 34 00 10 90 34 7f 30 80  ;.p.;...4...4.0.
00000cf0: 34 00 10 90 34 7f 00 90 3d 7f 70 80 3d 00 00 80  4...4...=.p.=...
00000d00: 34 00 10 90 3e 7f 30 80 3e 00 10 90 3f 7f 70 80  4...>.0.>...?.p.
00000d10: 3f 00 10 90 45 7f 81 30 80 45 00 10 90 47 7f 81  ?...E..0.E...G..
00000d20: 30 80 47 00 10 90 45 7f 30 80 45 00 10 90 47 7f  0.G...E.0.E...G.
00000d30: 81 10 80 47 00 30 90 40 7f 00 90 39 7f 00 90 45  ...G.0.@...9...E
00000d40: 7f 70 80 45 00 00 80 39 00 00 80 40 00 10 90 39  .p.E...9...@...9
00000d50: 7f 00 90 40 7f 00 90 45 7f 30 80 45 00 00 80 40  ...@...E.0.E...@
00000d60: 00 00 80 39 00 10 90 39 7f 00 90 40 7f 00 90 45  ...9...9...@...E
00000d70: 7f 70 80 45 00 00 80 40 00 00 80 39 00 10 90 39  .p.E...@...9...9
00000d80: 7f 30 80 39 00 10 90 39 7f 00 90 42 7f 00 90 45  .0.9...9...B...E
00000d90: 7f 70 80 45 00 00 80 42 00 00 80 39 00 10 90 39  .p.E...B...9...9
00000da0: 7f 30 80 39 00 10 90 40 7f 30 80 40 00 10 90 42  .0.9...@.0.@...B
00000db0: 7f 30 80 42 00 10 90 43 7f 30 80 43 00 10 90 34  .0.B...C.0.C...4
00000dc0: 7f 00 90 3b 7f 70 80 3b 00 00 80 34 00 10 90 34  ...;.p.;...4...4
00000dd0: 7f 30 80 34 00 10 90 34 7f 00 90 3d 7f 70 80 3d  .0.4...4...=.p.=
00000de0: 00 00 80 34 00 10 90 34 7f 30 80 34 00 10 90 34  ...4...4.0.4...4
00000df0: 7f 00 90 3b 7f 70 80 3b 00 00 80 34 00 10 90 34  ...;.p.;...4...4
00000e00: 7f 00 90 3b 7f 30 80 3b 00 00 80 34 00 10 90 34  ...;.0.;...4...4
00000e10: 7f 00 90 3b 7f 10 80 3b 00 00 80 34 00 30 90 45  ...;...;...4.0.E
00000e20: 7f 00 90 40 7f 30 80 40 00 00 80 45 00 10 90 40  ...@.0.@...E...@
00000e30: 7f 30 80 40 00 10 e0 00 40 00 90 43 7f 03 e0 00  .0.@....@..C....
00000e40: 41 08 e0 00 42 00 80 43 00 05 90 44 7f 01 e0 00  A...B..C...D....
00000e50: 41 03 e0 00 40 05 e0 00 3f 03 e0 00 3e 00 80 44  A...@...?...>..D
00000e60: 00 04 90 43 7f 01 e0 00 3f 03 e0 00 40 05 e0 00  ...C....?...@...
00000e70: 41 03 e0 00 42 05 e0 00 41 03 e0 00 40 05 e0 00  A...B...A...@...
00000e80: 3f 03 e0 00 3e 05 e0 00 3f 03 e0 00 40 05 e0 00  ?...>...?...@...
00000e90: 41 03 e0 00 42 05 e0 00 41 03 e0 00 40 05 e0 00  A...B...A...@...
00000ea0: 40 03 e0 00 3e 07 e0 00 40 0d 80 43 00 10 90 3b  @...>...@..C...;
00000eb0: 7f 30 80 3b 00 10 90 45 7f 70 80 45 00 10 90 47  .0.;...E.p.E...G
00000ec0: 7f 70 80 47 00 10 90 45 7f 70 80 45 00 10 90 47  .p.G...E.p.E...G
00000ed0: 7f 70 80 47 00 10 90 45 7f 30 80 45 00 10 90 3b  .p.G...E.0.E...;
00000ee0: 7f 00 90 34 7f 70 80 34 00 00 80 3b 00 10 90 34  ...4.p.4...;...4
00000ef0: 7f 30 80 34 00 10 90 3d 7f 00 90 34 7f 70 80 34  .0.4...=...4.p.4
00000f00: 00 00 80 3d 00 10 90 34 7f 30 80 34 00 10 90 3e  ...=...4.0.4...>
00000f10: 7f 00 90 34 7f 70 80 34 00 00 80 3e 00 10 90 34  ...4.p.4...>...4
00000f20: 7f 30 80 34 00 10 90 3d 7f 30 80 3d 00 10 90 3e  .0.4...=.0.=...>
00000f30: 7f 30 80 3e 00 10 90 42 7f 00 90 39 7f 30 80 39  .0.>...B...9.0.9
00000f40: 00 00 80 42 00 10 90 39 7f 00 90 40 7f 70 80 40  ...B...9...@.p.@
00000f50: 00 00 80 39 00 10 90 39 7f 00 90 40 7f 30 80 40  ...9...9...@.0.@
00000f60: 00 00 80 39 00 10 90 42 7f 00 90 39 7f 70 80 39  ...9...B...9.p.9
00000f70: 00 00 80 42 00 10 90 39 7f 00 90 45 7f 10 80 45  ...B...9...E...E
00000f80: 00 20 80 39 00 10 90 40 7f 00 90 39 7f 81 10 80  . .9...@...9....
00000f90: 39 00 00 80 40 00 30 90 42 7f 00 90 39 7f 70 80  9...@.0.B...9.p.
00000fa0: 39 00 00 80 42 00 10 90 39 7f 30 80 39 00 10 90  9...B...9.0.9...
00000fb0: 34 7f 00 90 3b 7f 70 80 3b 00 00 80 34 00 10 90  4...;.p.;...4...
00000fc0: 34 7f 00 90 3b 7f 30 80 3b 00 00 80 34 00 10 90  4...;.0.;...4...
00000fd0: 3d 7f 00 90 34 7f 70 80 34 00 00 80 3d 00 10 90  =...4.p.4...=...
00000fe0: 38 7f 30 80 38 00 10 90 34 7f 00 90 3b 7f 70 80  8.0.8...4...;.p.
00000ff0: 3b 00 00 80 34 00 10 90 34 7f 30 80 34 00 10 90  ;...4...4.0.4...
00001000: 34 7f 10 80 34 00 28 90 45 7f 30 80 45 00 10 90  4...4.(.E.0.E...
00001010: 40 7f 30 80 40 00 11 e0 00 40 03 e0 00 41 04 90  @.0.@....@...A..
00001020: 43 7f 01 e0 00 42 03 e0 00 44 05 e0 00 45 03 e0  C....B...D...E..
00001030: 00 44 00 80 43 00 04 90 44 7f 01 e0 00 42 02 e0  .D..C...D....B..
00001040: 00 41 01 e0 00 40 05 e0 00 3f 02 e0 00 3e 00 80  .A...@...?...>..
00001050: 44 00 01 e0 00 3f 04 90 43 7f 01 e0 00 40 02 e0  D....?..C....@..
00001060: 00 41 05 e0 00 42 01 e0 00 44 03 e0 24 44 04 e0  .A...B...D..$D..
00001070: 00 44 03 e0 00 42 01 e0 00 41 04 e0 00 40 03 e0  .D...B...A...@..
00001080: 00 3f 01 e0 00 3e 05 e0 00 3f 03 e0 00 40 05 e0  .?...>...?...@..
00001090: 00 41 03 e0 00 42 05 e0 00 41 03 e0 00 40 05 e0  .A...B...A...@..
000010a0: 00 3f 03 e0 00 3e 07 e0 00 3f 08 e0 00 40 05 80  .?...>...?...@..
000010b0: 43 00 01 e0 00 40 0f 90 34 7f 30 80 34 00 10 90  C....@..4.0.4...
000010c0: 34 7f 00 90 3d 7f 70 80 3d 00 00 80 34 00 10 90  4...=.p.=...4...
000010d0: 34 7f 30 80 34 00 10 90 34 7f 00 90 3b 7f 70 80  4.0.4...4...;.p.
000010e0: 3b 00 00 80 34 00 10 90 34 7f 30 80 34 00 10 90  ;...4...4.0.4...
000010f0: 3d 7f 00 90 34 7f 70 80 34 00 00 80 3d 00 10 90  =...4.p.4...=...
00001100: 34 7f 30 80 34 00 10 90 39 7f 00 90 40 7f 70 80  4.0.4...9...@.p.
00001110: 40 00 00 80 39 00 10 90 39 7f 30 80 39 00 10 90  @...9...9.0.9...
00001120: 42 7f 00 90 39 7f 70 80 39 00 00 80 42 00 10 90  B...9.p.9...B...
00001130: 39 7f 30 80 39 00 10 90 39 7f 00 90 40 7f 70 80  9.0.9...9...@.p.
00001140: 40 00 00 80 39 00 10 90 39 7f 00 90 40 7f 30 80  @...9...9...@.0.
00001150: 40 00 00 80 39 00 0c e0 00 40 04 e0 00 41 00 90  @...9....@...A..
00001160: 42 7f 01 e0 00 42 02 e0 00 44 01 e0 24 44 04 e0  B....B...D..$D..
00001170: 00 44 03 e0 00 42 01 e0 00 41 05 e0 00 40 02 e0  .D...B...A...@..
00001180: 00 40 05 e0 00 3f 01 e0 00 3e 03 e0 00 3c 04 e0  .@...?...>...<..
00001190: 00 3e 01 e0 00 3f 03 e0 00 40 0c 80 42 00 10 90  .>...?...@..B...
000011a0: 43 7f 30 80 43 00 10 90 42 7f 30 80 42 00 10 90  C.0.C...B.0.B...
000011b0: 40 7f 00 90 39 7f 70 80 39 00 00 80 40 00 10 90  @...9.p.9...@...
000011c0: 39 7f 30 80 39 00 10 90 42 7f 00 90 39 7f 81 10  9.0.9...B...9...
000011d0: 80 39 00 00 80 42 00 30 90 39 7f 00 90 40 7f 81  .9...B.0.9...@..
000011e0: 10 80 40 00 00 80 39 00 30 90 42 7f 00 90 39 7f  ..@...9.0.B...9.
000011f0: 81 10 80 39 00 00 80 42 00 30 90 34 7f 00 90 3b  ...9...B.0.4...;
00001200: 7f 70 80 3b 00 00 80 34 00 10 90 34 7f 30 80 34  .p.;...4...4.0.4
00001210: 00 10 90 3d 7f 00 90 34 7f 70 80 34 00 00 80 3d  ...=...4.p.4...=
00001220: 00 10 90 34 7f 30 80 34 00 10 90 3b 7f 00 90 34  ...4.0.4...;...4
00001230: 7f 70 80 34 00 00 80 3b 00 10 90 4c 7f 00 90 34  .p.4...;...L...4
00001240: 7f 10 80 4c 00 20 80 34 00 10 90 3b 7f 00 90 34  ...L. .4...;...4
00001250: 7f 10 80 34 00 00 80 3b 00 30 90 55 7f 00 90 45  ...4...;.0.U...E
00001260: 7f 00 90 49 7f 10 80 55 00 20 80 49 00 00 80 45  ...I...U. .I...E
00001270: 00 10 90 40 7f 30 80 40 00 10 e0 00 40 00 90 43  ...@.0.@....@..C
00001280: 7f 03 e0 00 41 06 e0 00 42 02 80 43 00 01 e0 00  ....A...B..C....
00001290: 41 04 90 44 7f 01 e0 00 40 03 e0 00 3f 05 e0 00  A..D....@...?...
000012a0: 3e 03 e0 00 3f 00 80 44 00 04 90 43 7f 01 e0 00  >...?..D...C....
000012b0: 40 07 e0 00 41 03 e0 00 42 06 e0 00 41 03 e0 00  @...A...B...A...
000012c0: 40 05 e0 00 3f 03 e0 00 3e 05 e0 00 3f 03 e0 00  @...?...>...?...
000012d0: 40 05 e0 00 41 03 e0 00 42 04 e0 00 41 03 e0 00  @...A...B...A...
000012e0: 40 01 e0 00 40 05 e0 00 3f 02 e0 00 3e 05 e0 00  @...@...?...>...
000012f0: 3c 01 e0 00 3e 03 e0 00 3f 04 e0 00 40 08 80 43  <...>...?...@..C
00001300: 00 10 90 34 7f 30 80 34 00 10 90 34 7f 00 90 3d  ...4.0.4...4...=
00001310: 7f 70 80 3d 00 00 80 34 00 10 90 34 7f 30 80 34  .p.=...4...4.0.4
00001320: 00 10 90 34 7f 00 90 3b 7f 70 80 3b 00 00 80 34  ...4...;.p.;...4
00001330: 00 10 90 34 7f 30 80 34 00 10 90 34 7f 00 90 3d  ...4.0.4...4...=
00001340: 7f 70 80 3d 00 00 80 34 00 10 90 3e 7f 30 80 3e  .p.=...4...>.0.>
00001350: 00 10 90 3f 7f 70 80 3f 00 10 90 45 7f 81 30 80  ...?.p.?...E..0.
00001360: 45 00 10 90 47 7f 81 30 80 47 00 10 90 45 7f 30  E...G..0.G...E.0
00001370: 80 45 00 10 90 47 7f 81 10 80 47 00 30 90 40 7f  .E...G....G.0.@.
00001380: 00 90 39 7f 00 90 45 7f 70 80 45 00 00 80 39 00  ..9...E.p.E...9.
00001390: 00 80 40 00 10 90 39 7f 00 90 40 7f 00 90 45 7f  ..@...9...@...E.
000013a0: 30 80 45 00 00 80 40 00 00 80 39 00 10 90 39 7f  0.E...@...9...9.
000013b0: 00 90 40 7f 00 90 45 7f 70 80 45 00 00 80 40 00  ..@...E.p.E...@.
000013c0: 00 80 39 00 10 90 39 7f 30 80 39 00 10 90 39 7f  ..9...9.0.9...9.
000013d0: 00 90 42 7f 00 90 45 7f 70 80 45 00 00 80 42 00  ..B...E.p.E...B.
000013e0: 00 80 39 00 10 90 39 7f 30 80 39 00 10 90 40 7f  ..9...9.0.9...@.
000013f0: 30 80 40 00 10 90 42 7f 30 80 42 00 10 90 43 7f  0.@...B.0.B...C.
00001400: 30 80 43 00 10 90 34 7f 00 90 3b 7f 70 80 3b 00  0.C...4...;.p.;.
00001410: 00 80 34 00 10 90 34 7f 30 80 34 00 10 90 34 7f  ..4...4.0.4...4.
00001420: 00 90 3d 7f 70 80 3d 00 00 80 34 00 10 90 34 7f  ..=.p.=...4...4.
00001430: 30 80 34 00 10 90 34 7f 00 90 3b 7f 70 80 3b 00  0.4...4...;.p.;.
00001440: 00 80 34 00 10 90 34 7f 00 90 3b 7f 30 80 3b 00  ..4...4...;.0.;.
00001450: 00 80 34 00 10 90 34 7f 00 90 3b 7f 10 80 3b 00  ..4...4...;...;.
00001460: 00 80 34 00 30 90 45 7f 00 90 40 7f 30 80 40 00  ..4.0.E...@.0.@.
00001470: 00 80 45 00 10 90 40 7f 30 80 40 00 10 e0 00 40  ..E...@.0.@....@
00001480: 00 90 43 7f 03 e0 00 41 08 e0 00 42 00 80 43 00  ..C....A...B..C.
00001490: 05 90 44 7f 01 e0 00 41 03 e0 00 40 05 e0 00 3f  ..D....A...@...?
000014a0: 03 e0 00 3e 00 80 44 00 04 90 43 7f 01 e0 00 3f  ...>..D...C....?
000014b0: 03 e0 00 40 05 e0 00 41 03 e0 00 42 05 e0 00 41  ...@...A...B...A
000014c0: 03 e0 00 40 05 e0 00 3f 03 e0 00 3e 05 e0 00 3f  ...@...?...>...?
000014d0: 03 e0 00 40 05 e0 00 41 03 e0 00 42 05 e0 00 41  ...@...A...B...A
000014e0: 03 e0 00 40 05 e0 00 40 03 e0 00 3e 07 e0 00 40  ...@...@...>...@
000014f0: 0d 80 43 00 10 90 3b 7f 30 80 3b 00 10 90 45 7f  ..C...;.0.;...E.
00001500: 70 80 45 00 10 90 47 7f 70 80 47 00 10 90 45 7f  p.E...G.p.G...E.
00001510: 70 80 45 00 10 90 47 7f 70 80 47 00 10 90 45 7f  p.E...G.p.G...E.
00001520: 30 80 45 00 10 90 4a 7f 40 e0 00 40 03 e0 00 41  0.E...J.@..@...A
00001530: 06 e0 00 42 08 e0 00 44 07 e0 30 44 04 e0 00 46  ...B...D..0D...F
00001540: 07 e0 20 46 08 e0 00 48 06 e0 00 48 03 e0 0c 46  .. F...H...H...F
00001550: 04 e0 00 46 01 e0 00 44 02 e0 00 42 00 80 4a 00  ...F...D...B..J.
00001560: 01 e0 00 40 04 90 4b 7f 28 80 4b 00 18 90 4c 7f  ...@..K.(.K...L.
00001570: 70 80 4c 00 10 90 4f 7f 03 e0 00 41 06 e0 00 42  p.L...O....A...B
00001580: 07 e0 00 44 04 e0 40 44 08 e0 00 46 07 e0 10 46  ...D..@D...F...F
00001590: 06 e0 00 48 07 e0 70 49 03 e0 00 48 05 e0 00 46  ...H..pI...H...F
000015a0: 01 e0 0c 46 02 e0 00 44 00 80 4f 00 05 e0 00 43  ...F...D..O....C
000015b0: 01 e0 00 42 02 e0 00 41 00 90 50 7f 05 e0 00 40  ...B...A..P....@
000015c0: 03 e0 00 40 39 e0 00 40 2c 80 50 00 10 90 4c 7f  ...@9..@,.P...L.
000015d0: 30 80 4c 00 10 90 47 7f 30 80 47 00 0c e0 00 40  0.L...G.0.G....@
000015e0: 04 e0 00 41 00 90 4a 7f 01 e0 00 42 02 e0 00 44  ...A..J....B...D
000015f0: 01 e0 24 44 04 e0 00 46 01 e0 14 46 02 e0 00 48  ..$D...F...F...H
00001600: 01 e0 0c 48 05 e0 00 48 03 e0 2c 46 04 80 4a 00  ...H...H..,F..J.
00001610: 01 e0 00 46 03 e0 00 44 04 90 4b 7f 01 e0 00 43  ...F...D..K....C
00001620: 03 e0 00 42 05 e0 00 41 03 e0 00 40 0c 80 4b 00  ...B...A...@..K.
00001630: 08 90 4c 7f 30 80 4c 00 0c e0 00 42 04 e0 00 44  ..L.0.L....B...D
00001640: 00 90 4f 7f 01 e0 00 46 02 e0 00 48 01 e0 7f 49  ..O....F...H...I
00001650: 04 e0 00 48 01 e0 00 46 02 e0 00 44 00 80 4f 00  ...H...F...D..O.
00001660: 01 e0 00 42 04 e0 00 40 00 90 50 7f 20 80 50 00  ...B...@..P. .P.
00001670: 10 90 4c 7f 30 80 4c 00 10 90 47 7f 30 80 47 00  ..L.0.L...G.0.G.
00001680: 0c e0 00 42 04 e0 00 44 00 90 45 7f 01 e0 00 46  ...B...D..E....F
00001690: 02 e0 00 48 01 e0 00 4a 04 e0 00 4a 00 90 47 7f  ...H...J...J..G.
000016a0: 00 80 45 00 01 e0 00 48 02 e0 00 46 01 e0 00 44  ..E....H...F...D
000016b0: 04 e0 00 40 1b e0 00 40 01 e0 00 3e 04 e0 00 3e  ...@...@...>...>
000016c0: 00 80 47 00 01 e0 00 3c 02 e0 00 3c 05 e0 00 3a  ..G....<...<...:
000016d0: 01 e0 00 3a 02 e0 00 38 01 e0 00 38 04 e0 00 36  ...:...8...8...6
000016e0: 00 90 45 7f 01 e0 00 38 02 e0 00 38 05 e0 00 3a  ..E....8...8...:
000016f0: 01 e0 00 3a 02 e0 00 3c 05 e0 00 3c 01 e0 00 3e  ...:...<...<...>
00001700: 02 e0 00 3e 05 e0 00 40 00 80 45 00 01 e0 00 40  ...>...@..E....@
00001710: 03 e0 00 40 04 90 43 7f 18 80 43 00 08 90 40 7f  ...@..C...C...@.
00001720: 30 80 40 00 0c e0 00 40 04 90 40 7f 01 e0 00 42  0.@....@..@....B
00001730: 08 e0 00 42 08 e0 00 44 08 e0 00 44 07 e0 00 44  ...B...D...D...D
00001740: 03 e0 00 42 05 e0 00 42 03 e0 00 40 05 e0 00 40  ...B...B...@...@
00001750: 03 e0 00 3e 05 e0 00 3e 03 e0 00 3c 06 e0 00 3e  ...>...>...<...>
00001760: 03 e0 00 3e 05 e0 00 40 03 e0 00 40 05 e0 00 42  ...>...@...@...B
00001770: 03 e0 00 42 05 e0 00 44 03 e0 00 44 05 e0 00 44  ...B...D...D...D
00001780: 03 e0 00 42 05 e0 00 42 03 e0 00 40 04 e0 00 40  ...B...B...@...@
00001790: 03 e0 00 3e 05 e0 00 3e 03 e0 00 3c 05 e0 00 3e  ...>...>...<...>
000017a0: 03 e0 00 3e 05 e0 00 40 03 e0 00 40 05 e0 00 42  ...>...@...@...B
000017b0: 03 e0 00 42 05 e0 00 44 03 e0 00 44 06 e0 00 44  ...B...D...D...D
000017c0: 08 e0 00 42 08 e0 00 42 08 e0 00 40 07 80 40 00  ...B...B...@..@.
000017d0: 04 90 41 7f 08 80 41 00 07 90 42 7f 08 80 42 00  ..A...A...B...B.
000017e0: 08 90 43 7f 08 90 44 7f 00 80 43 00 05 90 45 7f  ..C...D...C...E.
000017f0: 03 80 44 00 05 90 46 7f 00 80 45 00 08 90 47 7f  ..D...F...E...G.
00001800: 00 80 46 00 30 80 47 00 10 90 4a 7f 30 80 4a 00  ..F.0.G...J.0.J.
00001810: 10 90 4a 7f 3b e0 00 40 05 e0 00 42 04 e0 00 42  ..J.;..@...B...B
00001820: 07 e0 00 44 06 e0 00 44 07 e0 00 46 08 e0 00 46  ...D...D...F...F
00001830: 04 e0 00 48 07 e0 00 48 06 e0 00 4a 07 e0 00 4a  ...H...H...J...J
00001840: 03 e0 00 4a 00 80 4a 00 01 e0 00 48 04 e0 00 46  ...J..J....H...F
00001850: 00 90 4b 7f 01 e0 00 46 02 e0 00 44 01 e0 00 44  ..K....F...D...D
00001860: 04 e0 00 42 01 e0 00 40 27 80 4b 00 10 90 4c 7f  ...B...@'.K...L.
00001870: 70 80 4c 00 10 90 4f 7f 3c e0 00 40 05 e0 00 42  p.L...O.<..@...B
00001880: 07 e0 00 42 04 e0 00 44 07 e0 00 44 06 e0 00 46  ...B...D...D...F
00001890: 08 e0 00 46 07 e0 00 48 04 e0 00 48 04 80 4f 00  ...F...H...H..O.
000018a0: 03 e0 00 4a 06 e0 00 4a 07 e0 00 4a 00 90 50 7f  ...J...J...J..P.
000018b0: 03 e0 00 48 06 e0 00 48 07 e0 00 46 03 e0 00 46  ...H...H...F...F
000018c0: 06 e0 00 44 03 e0 00 44 07 e0 00 42 06 e0 00 42  ...D...D...B...B
000018d0: 03 e0 00 40 04 80 50 00 10 90 4c 7f 30 80 4c 00  ...@..P...L.0.L.
000018e0: 10 90 4a 7f 01 e0 00 42 08 e0 00 42 03 e0 00 42  ..J....B...B...B
000018f0: 05 e0 00 40 03 e0 00 40 04 e0 00 3e 03 e0 00 3e  ...@...@...>...>
00001900: 05 e0 00 3c 01 e0 00 3e 02 e0 00 3e 01 e0 00 40  ...<...>...>...@
00001910: 04 e0 00 40 01 e0 00 42 02 e0 00 42 01 e0 00 44  ...@...B...B...D
00001920: 04 e0 00 44 01 e0 00 44 02 e0 00 42 01 e0 00 42  ...D...D...B...B
00001930: 04 e0 00 40 01 e0 00 3e 02 e0 00 3e 01 e0 00 3c  ...@...>...>...<
00001940: 04 e0 00 3c 01 e0 00 3a 02 e0 00 3c 01 e0 00 3c  ...<...:...<...<
00001950: 04 e0 00 3e 03 e0 00 3e 01 e0 00 40 04 90 47 7f  ...>...>...@..G.
00001960: 00 80 4a 00 03 e0 00 40 15 80 47 00 10 90 4c 7f  ..J....@..G...L.
00001970: 30 80 4c 00 18 e0 00 40 00 90 51 7f 01 e0 00 42  0.L....@..Q....B
00001980: 03 e0 00 42 05 e0 00 44 03 e0 00 44 04 e0 00 44  ...B...D...D...D
00001990: 01 e0 00 42 02 e0 00 42 01 e0 00 40 05 e0 00 40  ...B...B...@...@
000019a0: 02 e0 00 3e 01 e0 00 3e 04 e0 00 3c 01 e0 00 3e  ...>...>...<...>
000019b0: 03 e0 00 3e 04 e0 00 40 01 e0 00 40 03 e0 00 42  ...>...@...@...B
000019c0: 04 e0 00 42 01 e0 00 42 02 e0 00 40 01 e0 00 40  ...B...B...@...@
000019d0: 05 e0 00 3e 02 e0 00 3e 01 e0 00 3c 04 e0 00 3e  ...>...>...<...>
000019e0: 03 e0 00 3e 01 e0 00 40 05 e0 00 40 02 e0 00 42  ...>...@...@...B
000019f0: 05 e0 00 42 00 80 51 00 01 e0 00 42 03 e0 00 40  ...B..Q....B...@
00001a00: 04 e0 00 40 01 e0 00 3e 03 e0 00 3e 04 e0 00 3c  ...@...>...>...<
00001a10: 00 90 4f 7f 03 e0 00 3e 05 e0 00 3e 03 e0 00 40  ..O....>...>...@
00001a20: 05 e0 00 40 00 80 4f 00 10 90 4c 7f 70 80 4c 00  ...@..O...L.p.L.
00001a30: 10 e0 00 42 00 90 4c 7f 03 e0 00 42 05 e0 00 44  ...B..L....B...D
00001a40: 03 e0 00 44 01 e0 00 44 04 e0 00 42 01 e0 00 42  ...D...D...B...B
00001a50: 02 e0 00 40 05 e0 00 40 01 e0 00 3e 02 e0 00 3e  ...@...@...>...>
00001a60: 01 e0 00 3c 04 e0 00 3e 03 e0 00 3e 01 e0 00 40  ...<...>...>...@
00001a70: 04 e0 00 40 03 e0 00 42 01 e0 00 42 04 e0 00 42  ...@...B...B...B
00001a80: 03 e0 00 40 01 e0 00 40 04 e0 00 3e 03 e0 00 3e  ...@...@...>...>
00001a90: 01 e0 00 3c 04 e0 00 3e 01 e0 00 3e 02 e0 00 40  ...<...>...>...@
00001aa0: 01 e0 00 40 05 e0 00 42 02 e0 00 42 01 e0 00 44  ...@...B...B...D
00001ab0: 04 e0 00 44 01 e0 00 44 02 e0 00 42 01 e0 00 42  ...D...D...B...B
00001ac0: 04 e0 00 40 03 e0 00 40 01 e0 00 3e 04 e0 00 3e  ...@...@...>...>
00001ad0: 01 e0 00 3c 02 e0 00 3e 05 e0 00 3e 01 e0 00 40  ...<...>...>...@
00001ae0: 07 80 4c 00 10 90 4c 7f 7b 80 4c 00 01 90 4d 7f  ..L...L.{.L...M.
00001af0: 05 80 4d 00 02 90 4e 7f 05 80 4e 00 03 90 4f 7f  ..M...N...N...O.
00001b00: 05 80 4f 00 01 90 50 7f 03 80 50 00 05 90 51 7f  ..O...P...P...Q.
00001b10: 03 80 51 00 04 90 52 7f 03 80 52 00 01 90 53 7f  ..Q...R...R...S.
00001b20: 05 80 53 00 02 90 54 7f 05 80 54 00 01 90 55 7f  ..S...T...T...U.
00001b30: 03 80 55 00 04 90 56 7f 03 80 56 00 01 90 57 7f  ..U...V...V...W.
00001b40: 04 90 4c 7f 01 80 57 00 02 90 58 7f 0d 80 4c 00  ..L...W...X...L.
00001b50: 11 80 58 00 1f 90 4c 7f 30 80 4c 00 10 90 4f 7f  ..X...L.0.L...O.
00001b60: 30 80 4f 00 0c e0 00 40 04 e0 00 42 00 90 51 7f  0.O....@...B..Q.
00001b70: 01 e0 00 44 02 e0 00 44 01 e0 00 46 04 e0 00 46  ...D...D...F...F
00001b80: 01 e0 00 48 02 e0 00 4a 01 e0 00 4a 04 e0 00 4a  ...H...J...J...J
00001b90: 01 e0 00 48 03 e0 00 48 04 e0 00 46 01 e0 00 46  ...H...H...F...F
00001ba0: 02 80 51 00 01 e0 00 44 04 e0 00 44 00 90 53 7f  ..Q....D...D..S.
00001bb0: 01 e0 00 42 03 e0 00 42 04 e0 00 40 81 39 e0 00  ...B...B...@.9..
00001bc0: 40 03 e0 00 3e 07 e0 00 3e 05 e0 00 3c 04 e0 00  @...>...>...<...
00001bd0: 3c 05 e0 00 3a 07 e0 00 3a 03 e0 00 38 06 e0 00  <...:...:...8...
00001be0: 38 03 e0 00 36 04 80 53 00 01 e0 00 38 03 e0 00  8...6..S....8...
00001bf0: 38 05 e0 00 3a 02 e0 00 3a 05 e0 00 3c 00 90 51  8...:...:...<..Q
00001c00: 7f 03 e0 00 3c 05 e0 00 3e 01 e0 00 3e 03 e0 00  ....<...>...>...
00001c10: 40 04 80 51 00 01 e0 00 40 03 e0 00 40 0c 90 4f  @..Q....@...@..O
00001c20: 7f 30 80 4f 00 10 e0 00 42 00 90 51 7f 01 e0 00  .0.O....B..Q....
00001c30: 44 02 e0 00 48 01 e0 00 4a 04 e0 00 4c 00 90 53  D...H...J...L..S
00001c40: 7f 00 80 51 00 01 e0 00 4a 02 e0 00 48 01 e0 00  ...Q....J...H...
00001c50: 44 04 e0 00 40 20 80 53 00 10 90 51 7f 30 80 51  D...@ .S...Q.0.Q
00001c60: 00 10 e0 00 42 00 90 4f 7f 01 e0 00 42 02 e0 00  ....B..O....B...
00001c70: 44 01 e0 00 46 04 e0 00 46 00 90 51 7f 00 80 4f  D...F...F..Q...O
00001c80: 00 01 e0 00 48 02 e0 00 48 01 e0 00 4a 04 e0 00  ....H...H...J...
00001c90: 4a 01 e0 00 4a 03 e0 00 48 05 e0 00 48 02 e0 00  J...J...H...H...
00001ca0: 46 05 e0 00 46 01 e0 00 44 03 e0 00 44 05 e0 00  F...F...D...D...
00001cb0: 42 02 e0 00 42 05 e0 00 40 03 e0 00 40 10 e0 00  B...B...@...@...
00001cc0: 40 6d 80 51 00 81 00 90 4c 7f 20 80 4c 00 10 90  @m.Q....L. .L...
00001cd0: 4f 7f 20 80 4f 00 10 90 51 7f 20 80 51 00 4c e0  O. .O...Q. .Q.L.
00001ce0: 00 40 04 e0 00 42 00 90 51 7f 01 e0 00 44 02 e0  .@...B..Q....D..
00001cf0: 00 46 01 e0 00 48 04 e0 00 4a 00 80 51 00 01 e0  .F...H...J..Q...
00001d00: 00 4a 02 e0 00 4a 00 90 53 7f 01 e0 00 48 04 e0  .J...J..S....H..
00001d10: 00 46 01 e0 00 44 02 e0 00 44 01 e0 00 42 04 e0  .F...D...D...B..
00001d20: 00 40 00 80 53 00 08 90 51 7f 18 80 51 00 08 90  .@..S...Q...Q...
00001d30: 4f 7f 18 80 4f 00 08 90 4c 7f 18 80 4c 00 08 90  O...O...L...L...
00001d40: 51 7f 18 80 51 00 08 90 4c 7f 18 80 4c 00 08 90  Q...Q...L...L...
00001d50: 4f 7f 18 80 4f 00 08 90 4c 7f 01 e0 00 42 03 e0  O...O...L....B..
00001d60: 00 42 05 e0 00 44 03 e0 00 44 04 e0 00 44 01 e0  .B...D...D...D..
00001d70: 00 42 02 e0 00 42 01 e0 00 40 04 e0 00 40 01 e0  .B...B...@...@..
00001d80: 00 3e 02 e0 00 40 05 e0 00 40 03 e0 00 42 05 e0  .>...@...@...B..
00001d90: 00 42 03 e0 00 44 05 e0 00 44 01 e0 00 44 02 e0  .B...D...D...D..
00001da0: 00 42 01 e0 00 42 04 e0 00 40 01 e0 00 3e 02 e0  .B...B...@...>..
00001db0: 00 3e 01 e0 00 3c 04 e0 00 3e 03 e0 00 3e 01 e0  .>...<...>...>..
00001dc0: 00 40 04 e0 00 40 03 e0 00 42 01 e0 00 42 05 e0  .@...@...B...B..
00001dd0: 00 42 03 e0 00 40 04 80 4c 00 01 e0 00 40 00 e0  .B...@..L....@..
00001de0: 00 40 07 90 4a 7f 38 80 4a 00 08 90 47 7f 18 80  .@..J.8.J...G...
00001df0: 47 00 08 90 45 7f 18 80 45 00 08 90 43 7f 18 80  G...E...E...C...
00001e00: 43 00 08 90 40 7f 18 80 40 00 08 90 45 7f 18 80  C...@...@...E...
00001e10: 45 00 08 90 40 7f 18 80 40 00 08 90 43 7f 18 80  E...@...@...C...
00001e20: 43 00 08 e0 00 40 00 90 40 7f 01 e0 00 42 03 e0  C....@..@....B..
00001e30: 00 42 05 e0 00 44 03 e0 00 44 04 e0 00 44 01 e0  .B...D...D...D..
00001e40: 00 42 02 e0 00 42 01 e0 00 40 05 e0 00 40 02 e0  .B...B...@...@..
00001e50: 00 3e 01 e0 00 3e 04 e0 00 3c 01 e0 00 3e 02 e0  .>...>...<...>..
00001e60: 00 3e 01 e0 00 40 04 e0 00 42 01 e0 00 42 02 e0  .>...@...B...B..
00001e70: 00 44 01 e0 00 44 04 e0 00 44 01 e0 00 42 02 e0  .D...D...D...B..
00001e80: 00 42 01 e0 00 40 04 e0 00 40 01 e0 00 3e 02 e0  .B...@...@...>..
00001e90: 00 3e 01 e0 00 3c 04 e0 00 3e 01 e0 00 3e 02 e0  .>...<...>...>..
00001ea0: 00 40 01 e0 00 42 04 e0 00 42 01 e0 00 44 02 e0  .@...B...B...D..
00001eb0: 00 44 01 e0 00 44 04 e0 00 42 03 e0 00 42 01 e0  .D...D...B...B..
00001ec0: 00 40 04 80 40 00 01 e0 00 40 07 90 40 7f 5c e0  .@..@....@..@.\.
00001ed0: 00 40 04 e0 00 42 00 80 40 00 03 e0 00 42 00 90  .@...B..@....B..
00001ee0: 3f 7f 05 e0 00 44 03 e0 00 44 01 e0 00 44 04 e0  ?....D...D...D..
00001ef0: 00 42 01 e0 00 42 02 e0 00 40 05 e0 00 40 01 e0  .B...B...@...@..
00001f00: 00 3e 02 e0 00 3e 01 e0 00 3c 04 e0 00 3e 01 e0  .>...>...<...>..
00001f10: 00 3e 02 e0 00 40 01 e0 00 40 04 e0 00 42 01 e0  .>...@...@...B..
00001f20: 00 42 02 e0 00 44 00 80 3f 00 01 e0 00 44 04 e0  .B...D..?....D..
00001f30: 00 44 00 90 3e 7f 01 e0 00 42 02 e0 00 42 01 e0  .D..>....B...B..
00001f40: 00 40 04 e0 00 3e 01 e0 00 3e 02 e0 00 3c 01 e0  .@...>...>...<..
00001f50: 00 3e 04 e0 00 3e 01 e0 00 40 02 e0 00 40 05 e0  .>...>...@...@..
00001f60: 00 42 01 e0 00 42 02 e0 00 44 01 e0 00 44 04 e0  .B...B...D...D..
00001f70: 00 44 01 e0 00 42 02 e0 00 42 00 80 3e 00 01 e0  .D...B...B..>...
00001f80: 00 40 4c 90 56 7f 30 80 56 00 10 90 53 7f 30 80  .@L.V.0.V...S.0.
00001f90: 53 00 0c e0 00 42 04 e0 00 44 00 90 51 7f 01 e0  S....B...D..Q...
00001fa0: 00 46 02 e0 00 48 01 e0 00 4a 04 e0 00 48 00 80  .F...H...J...H..
00001fb0: 51 00 01 e0 00 46 02 e0 00 44 00 90 53 7f 01 e0  Q....F...D..S...
00001fc0: 00 42 04 e0 00 40 13 e0 00 40 01 e0 00 3e 04 e0  .B...@...@...>..
00001fd0: 00 3c 01 e0 00 3a 02 e0 00 3a 01 e0 00 38 04 e0  .<...:...:...8..
00001fe0: 00 36 00 80 53 00 01 e0 00 38 03 e0 00 38 05 e0  .6..S....8...8..
00001ff0: 00 3a 02 e0 00 3a 05 e0 00 3c 00 90 51 7f 01 e0  .:...:...<..Q...
00002000: 00 3c 03 e0 00 3e 05 e0 00 3e 02 e0 00 40 05 e0  .<...>...>...@..
00002010: 00 40 20 80 51 00 10 e0 00 42 00 90 4f 7f 01 e0  .@ .Q....B..O...
00002020: 00 44 02 e0 00 46 01 e0 00 46 04 e0 00 46 00 80  .D...F...F...F..
00002030: 4f 00 01 e0 00 44 02 e0 00 42 00 90 50 7f 01 e0  O....D...B..P...
00002040: 00 42 04 e0 00 40 03 e0 00 40 00 e0 00 40 05 80  .B...@...@...@..
00002050: 50 00 08 90 4c 7f 18 80 4c 00 08 e0 00 40 00 90  P...L...L....@..
00002060: 4f 7f 01 e0 00 42 02 e0 00 44 01 e0 00 46 04 e0  O....B...D...F..
00002070: 00 46 00 90 50 7f 00 80 4f 00 01 e0 00 46 02 e0  .F..P...O....F..
00002080: 00 44 01 e0 00 42 04 e0 00 40 14 e0 00 40 05 e0  .D...B...@...@..
00002090: 00 3e 03 e0 00 3e 05 e0 00 3c 02 e0 00 3e 05 e0  .>...>...<...>..
000020a0: 00 3e 01 e0 00 40 03 e0 00 40 04 e0 00 42 03 e0  .>...@...@...B..
000020b0: 00 42 01 e0 00 44 05 e0 00 44 02 e0 00 44 01 e0  .B...D...D...D..
000020c0: 00 42 04 e0 00 42 01 e0 00 40 03 e0 00 40 04 e0  .B...B...@...@..
000020d0: 00 3e 01 e0 00 3e 02 e0 00 3c 01 e0 00 3e 04 e0  .>...>...<...>..
000020e0: 00 3e 03 e0 00 40 01 e0 00 40 04 e0 00 42 01 e0  .>...@...@...B..
000020f0: 00 42 03 e0 00 44 04 e0 00 44 01 e0 00 44 03 e0  .B...D...D...D..
00002100: 00 42 04 e0 00 42 01 e0 00 40 03 e0 00 40 04 e0  .B...B...@...@..
00002110: 00 3e 01 e0 00 40 03 e0 00 40 05 e0 00 42 03 e0  .>...@...@...B..
00002120: 00 42 05 e0 00 42 03 e0 00 40 05 e0 00 40 03 e0  .B...B...@...@..
00002130: 00 3e 08 e0 00 40 08 e0 00 40 08 e0 00 40 0c 80  .>...@...@...@..
00002140: 50 00 82 00 90 4c 7f 30 80 4c 00 0c e0 00 40 04  P....L.0.L....@.
00002150: 90 4f 7f 04 e0 00 42 10 e0 00 42 08 e0 00 44 05  .O....B...B...D.
00002160: e0 00 44 03 e0 00 46 05 e0 00 46 02 e0 00 46 01  ..D...F...F...F.
00002170: e0 00 44 04 e0 00 42 00 80 4f 00 01 e0 00 40 0f  ..D...B..O....@.
00002180: 90 51 7f 04 e0 00 42 07 e0 00 42 06 e0 00 44 07  .Q....B...B...D.
00002190: e0 00 44 04 e0 00 46 07 e0 00 46 05 e0 00 46 01  ..D...F...F...F.
000021a0: e0 00 44 02 e0 00 42 01 e0 00 40 04 80 51 00 0c  ..D...B...@..Q..
000021b0: e0 00 42 04 e0 00 44 00 90 51 7f 01 e0 00 46 02  ..B...D..Q....F.
000021c0: e0 00 48 01 e0 00 4a 04 e0 00 4a 00 90 53 7f 00  ..H...J...J..S..
000021d0: 80 51 00 01 e0 00 48 02 e0 00 46 01 e0 00 44 04  .Q....H...F...D.
000021e0: e0 00 40 20 80 53 00 0b e0 00 42 01 e0 00 44 04  ..@ .S....B...D.
000021f0: e0 00 44 00 90 51 7f 01 e0 00 46 02 e0 00 46 01  ..D..Q....F...F.
00002200: e0 00 46 04 e0 00 44 00 80 51 00 01 e0 00 42 02  ..F...D..Q....B.
00002210: e0 00 40 00 90 52 7f 25 80 52 00 10 90 4f 7f 01  ..@..R.%.R...O..
00002220: e0 00 42 07 e0 00 42 03 e0 00 44 06 e0 00 44 07  ..B...B...D...D.
00002230: e0 00 46 03 e0 00 46 05 e0 00 46 03 e0 00 44 01  ..F...F...F...D.
00002240: e0 00 44 05 e0 00 42 02 e0 00 42 05 e0 00 40 00  ..D...B...B...@.
00002250: 80 4f 00 08 e0 00 42 08 90 51 7f 03 e0 00 42 08  .O....B..Q....B.
00002260: e0 00 44 05 e0 00 44 03 e0 00 46 05 e0 00 46 03  ..D...D...F...F.
00002270: e0 00 46 05 e0 00 44 03 e0 00 44 05 e0 00 42 03  ..F...D...D...B.
00002280: e0 00 42 05 e0 00 40 00 80 51 00 10 90 51 7f 01  ..B...@..Q...Q..
00002290: e0 00 42 02 e0 00 44 01 e0 00 44 04 e0 00 46 00  ..B...D...D...F.
000022a0: 90 53 7f 00 80 51 00 01 e0 00 46 02 e0 00 48 01  .S...Q....F...H.
000022b0: e0 00 4a 04 e0 00 4a 01 e0 00 46 02 e0 00 3e 06  ..J...J...F...>.
000022c0: e0 00 40 0b e0 00 40 0c 80 53 00 10 90 4f 7f 01  ..@...@..S...O..
000022d0: e0 00 42 03 e0 00 42 05 e0 00 44 03 e0 00 44 04  ..B...B...D...D.
000022e0: e0 00 44 01 e0 00 42 02 e0 00 42 01 e0 00 40 04  ..D...B...B...@.
000022f0: e0 00 40 01 e0 00 3e 02 e0 00 3e 01 e0 00 3c 04  ..@...>...>...<.
00002300: e0 00 3e 01 e0 00 3e 02 e0 00 40 01 e0 00 40 04  ..>...>...@...@.
00002310: e0 00 42 01 e0 00 42 02 e0 00 44 01 e0 00 44 04  ..B...B...D...D.
00002320: e0 00 44 01 e0 00 42 02 e0 00 42 01 e0 00 40 05  ..D...B...B...@.
00002330: e0 00 40 02 e0 00 3e 01 e0 00 3e 04 e0 00 3c 01  ..@...>...>...<.
00002340: e0 00 3e 03 e0 00 3e 04 e0 00 40 01 e0 00 40 03  ..>...>...@...@.
00002350: e0 00 42 04 e0 00 42 01 e0 00 42 03 e0 00 40 05  ..B...B...B...@.
00002360: e0 00 40 03 e0 00 3e 05 e0 00 40 03 e0 00 40 07  ..@...>...@...@.
00002370: e0 00 40 05 80 4f 00 10 90 51 7f 30 80 51 00 0c  ..@..O...Q.0.Q..
00002380: e0 00 42 04 e0 00 44 00 90 51 7f 01 e0 00 46 02  ..B...D..Q....F.
00002390: e0 00 46 01 e0 00 46 04 e0 00 44 00 90 52 7f 00  ..F...F...D..R..
000023a0: 80 51 00 01 e0 00 42 02 e0 00 42 01 e0 00 40 0c  .Q....B...B...@.
000023b0: 80 52 00 03 e0 00 3e 01 e0 00 3c 04 e0 00 3a 00  .R....>...<...:.
000023c0: 90 51 7f 01 e0 00 3c 03 e0 00 3c 04 e0 00 3e 01  .Q....<...<...>.
000023d0: e0 00 3e 03 e0 00 40 04 e0 00 40 08 80 51 00 08  ..>...@...@..Q..
000023e0: 90 4f 7f 30 80 4f 00 10 90 51 7f 03 e0 00 42 08  .O.0.O...Q....B.
000023f0: e0 00 42 08 e0 00 44 08 e0 00 44 06 e0 00 44 03  ..B...D...D...D.
00002400: e0 00 42 05 e0 00 42 03 e0 00 40 04 80 51 00 81  ..B...B...@..Q..
00002410: 04 e0 00 40 0c 90 51 7f 03 80 51 00 01 90 52 7f  ...@..Q...Q...R.
00002420: 05 80 52 00 02 90 53 7f 05 80 53 00 01 90 54 7f  ..R...S...S...T.
00002430: 03 80 54 00 04 90 55 7f 03 e0 00 40 00 80 55 00  ..T...U....@..U.
00002440: 01 90 56 7f 04 e0 00 42 04 e0 00 42 05 e0 00 44  ..V....B...B...D
00002450: 07 e0 00 44 04 e0 00 46 04 80 56 00 01 e0 00 46  ...D...F..V....F
00002460: 03 e0 00 46 04 e0 00 44 00 90 57 7f 01 e0 00 44  ...F...D..W....D
00002470: 02 e0 00 42 01 e0 00 42 04 e0 00 40 00 90 56 7f  ...B...B...@..V.
00002480: 00 80 57 00 48 80 56 00 10 90 53 7f 18 80 53 00  ..W.H.V...S...S.
00002490: 08 90 51 7f 30 80 51 00 0c e0 00 42 04 e0 00 42  ..Q.0.Q....B...B
000024a0: 00 90 51 7f 01 e0 00 44 03 e0 00 44 04 e0 00 46  ..Q....D...D...F
000024b0: 00 90 52 7f 00 80 51 00 01 e0 00 46 02 e0 00 46  ..R...Q....F...F
000024c0: 01 e0 00 44 04 e0 00 42 01 e0 00 42 02 e0 00 40  ...D...B...B...@
000024d0: 2e e0 00 40 03 e0 00 3e 05 e0 00 3e 03 e0 00 3c  ...@...>...>...<
000024e0: 04 80 52 00 01 e0 00 3e 07 e0 00 3e 03 e0 00 40  ..R....>...>...@
000024f0: 05 90 51 7f 01 e0 00 40 07 e0 00 40 03 e0 00 40  ..Q....@...@...@
00002500: 00 e0 00 40 0d 80 51 00 08 90 4f 7f 18 80 4f 00  ...@..Q...O...O.
00002510: 08 90 4c 7f 18 80 4c 00 08 e0 00 40 00 90 4f 7f  ..L...L....@..O.
00002520: 01 e0 00 42 03 e0 00 42 04 e0 00 44 03 e0 00 44  ...B...B...D...D
00002530: 01 e0 00 44 05 e0 00 42 02 e0 00 42 05 e0 00 40  ...D...B...B...@
00002540: 01 e0 00 40 03 e0 00 3e 05 e0 00 40 03 e0 00 40  ...@...>...@...@
00002550: 05 e0 00 42 03 e0 00 42 05 e0 00 42 03 e0 00 40  ...B...B...B...@
00002560: 05 e0 00 40 03 e0 00 3e 05 e0 00 40 02 e0 00 40  ...@...>...@...@
00002570: 01 e0 00 42 05 e0 00 42 02 e0 00 44 01 e0 00 44  ...B...B...D...D
00002580: 04 e0 00 44 01 e0 00 42 02 e0 00 42 01 e0 00 40  ...D...B...B...@
00002590: 05 e0 00 40 02 e0 00 3e 01 e0 00 3e 04 e0 00 3c  ...@...>...>...<
000025a0: 01 e0 00 3e 03 e0 00 3e 04 e0 00 40 01 e0 00 40  ...>...>...@...@
000025b0: 03 e0 00 42 04 e0 00 42 01 e0 00 42 03 e0 00 40  ...B...B...B...@
000025c0: 04 e0 00 40 03 e0 00 3e 01 e0 00 3e 05 e0 00 3c  ...@...>...>...<
000025d0: 02 e0 00 3e 05 e0 00 3e 01 e0 00 40 03 e0 00 40  ...>...>...@...@
000025e0: 05 e0 00 40 02 e0 00 40 0d 80 4f 00 20 90 47 7f  ...@...@..O. .G.
000025f0: 08 90 45 7f 00 80 47 00 28 80 45 00 10 90 43 7f  ..E...G.(.E...C.
00002600: 30 80 43 00 10 90 40 7f 30 80 40 00 10 e0 00 40  0.C...@.0.@....@
00002610: 00 90 43 7f 03 e0 00 42 05 e0 00 42 00 90 44 7f  ..C....B...B..D.
00002620: 00 80 43 00 03 e0 00 44 05 e0 00 44 00 90 43 7f  ..C....D...D..C.
00002630: 00 80 44 00 01 e0 00 44 02 e0 00 42 01 e0 00 40  ..D....D...B...@
00002640: 04 e0 00 40 01 e0 00 3e 02 e0 00 3e 01 e0 00 3c  ...@...>...>...<
00002650: 04 e0 00 3a 01 e0 00 3c 02 e0 00 3c 01 e0 00 3e  ...:...<...<...>
00002660: 04 e0 00 40 01 e0 00 40 02 e0 00 42 01 e0 00 42  ...@...@...B...B
00002670: 04 e0 00 44 01 e0 00 44 02 e0 00 44 01 e0 00 42  ...D...D...D...B
00002680: 04 e0 00 40 01 e0 00 40 02 e0 00 3e 01 e0 00 3c  ...@...@...>...<
00002690: 04 e0 00 3e 01 e0 00 3e 02 e0 00 40 01 e0 00 40  ...>...>...@...@
000026a0: 05 e0 00 42 02 e0 00 42 01 e0 00 44 04 e0 00 44  ...B...B...D...D
000026b0: 01 e0 00 44 02 e0 00 42 01 e0 00 40 04 e0 00 40  ...D...B...@...@
000026c0: 01 e0 00 3e 02 e0 00 3c 01 e0 00 3e 05 e0 00 3e  ...>...<...>...>
000026d0: 03 e0 00 40 05 e0 00 40 07 80 43 00 10 90 40 7f  ...@...@..C...@.
000026e0: 70 80 40 00 10 90 3b 7f 08 90 3d 7f 00 80 3b 00  p.@...;...=...;.
000026f0: 28 80 3d 00 10 90 40 7f 30 80 40 00 10 90 42 7f  (.=...@.0.@...B.
00002700: 08 90 44 7f 00 80 42 00 28 80 44 00 10 90 47 7f  ..D...B.(.D...G.
00002710: 30 80 47 00 10 90 47 7f 30 80 47 00 10 90 43 7f  0.G...G.0.G...C.
00002720: 01 80 43 00 02 90 44 7f 09 80 44 00 04 90 42 7f  ..C...D...D...B.
00002730: 23 80 42 00 0d 90 40 7f 30 80 40 00 10 90 3d 7f  #.B...@.0.@...=.
00002740: 30 80 3d 00 10 90 40 7f 70 80 40 00 10 90 39 7f  0.=...@.p.@...9.
00002750: 30 80 39 00 10 90 39 7f 70 80 39 00 10 90 3b 7f  0.9...9.p.9...;.
00002760: 30 80 3b 00 10 90 45 7f 00 90 3b 7f 00 90 3f 7f  0.;...E...;...?.
00002770: 82 70 80 3f 00 00 80 3b 00 00 80 45 00 10 90 3b  .p.?...;...E...;
00002780: 7f 00 90 34 7f 70 80 34 00 00 80 3b 00 10 90 34  ...4.p.4...;...4
00002790: 7f 30 80 34 00 10 90 3d 7f 00 90 34 7f 70 80 34  .0.4...=...4.p.4
000027a0: 00 00 80 3d 00 10 90 34 7f 30 80 34 00 10 90 3e  ...=...4.0.4...>
000027b0: 7f 00 90 34 7f 70 80 34 00 00 80 3e 00 10 90 34  ...4.p.4...>...4
000027c0: 7f 30 80 34 00 10 90 3d 7f 30 80 3d 00 10 90 3e  .0.4...=.0.=...>
000027d0: 7f 30 80 3e 00 10 90 42 7f 00 90 39 7f 30 80 39  .0.>...B...9.0.9
000027e0: 00 00 80 42 00 10 90 39 7f 00 90 40 7f 70 80 40  ...B...9...@.p.@
000027f0: 00 00 80 39 00 10 90 39 7f 00 90 40 7f 30 80 40  ...9...9...@.0.@
00002800: 00 00 80 39 00 10 90 42 7f 00 90 39 7f 70 80 39  ...9...B...9.p.9
00002810: 00 00 80 42 00 10 90 39 7f 00 90 45 7f 10 80 45  ...B...9...E...E
00002820: 00 20 80 39 00 10 90 40 7f 00 90 39 7f 81 10 80  . .9...@...9....
00002830: 39 00 00 80 40 00 30 90 42 7f 00 90 39 7f 70 80  9...@.0.B...9.p.
00002840: 39 00 00 80 42 00 10 90 39 7f 30 80 39 00 10 90  9...B...9.0.9...
00002850: 34 7f 00 90 3b 7f 70 80 3b 00 00 80 34 00 10 90  4...;.p.;...4...
00002860: 34 7f 00 90 3b 7f 30 80 3b 00 00 80 34 00 10 90  4...;.0.;...4...
00002870: 3d 7f 00 90 34 7f 70 80 34 00 00 80 3d 00 10 90  =...4.p.4...=...
00002880: 38 7f 30 80 38 00 10 90 34 7f 00 90 3b 7f 70 80  8.0.8...4...;.p.
00002890: 3b 00 00 80 34 00 10 90 34 7f 30 80 34 00 10 90  ;...4...4.0.4...
000028a0: 34 7f 10 80 34 00 28 90 45 7f 30 80 45 00 10 90  4...4.(.E.0.E...
000028b0: 40 7f 30 80 40 00 11 e0 00 40 03 e0 00 41 04 90  @.0.@....@...A..
000028c0: 43 7f 01 e0 00 42 03 e0 00 44 05 e0 00 45 03 e0  C....B...D...E..
000028d0: 00 44 00 80 43 00 04 90 44 7f 01 e0 00 42 02 e0  .D..C...D....B..
000028e0: 00 41 01 e0 00 40 05 e0 00 3f 02 e0 00 3e 00 80  .A...@...?...>..
000028f0: 44 00 01 e0 00 3f 04 90 43 7f 01 e0 00 40 02 e0  D....?..C....@..
00002900: 00 41 05 e0 00 42 01 e0 00 44 03 e0 24 44 04 e0  .A...B...D..$D..
00002910: 00 44 03 e0 00 42 01 e0 00 41 04 e0 00 40 03 e0  .D...B...A...@..
00002920: 00 3f 01 e0 00 3e 05 e0 00 3f 03 e0 00 40 05 e0  .?...>...?...@..
00002930: 00 41 03 e0 00 42 05 e0 00 41 03 e0 00 40 05 e0  .A...B...A...@..
00002940: 00 3f 03 e0 00 3e 07 e0 00 3f 08 e0 00 40 05 80  .?...>...?...@..
00002950: 43 00 01 e0 00 40 0f 90 34 7f 30 80 34 00 10 90  C....@..4.0.4...
00002960: 34 7f 00 90 3d 7f 70 80 3d 00 00 80 34 00 10 90  4...=.p.=...4...
00002970: 34 7f 30 80 34 00 10 90 34 7f 00 90 3b 7f 70 80  4.0.4...4...;.p.
00002980: 3b 00 00 80 34 00 10 90 34 7f 30 80 34 00 10 90  ;...4...4.0.4...
00002990: 3d 7f 00 90 34 7f 70 80 34 00 00 80 3d 00 10 90  =...4.p.4...=...
000029a0: 34 7f 30 80 34 00 10 90 39 7f 00 90 40 7f 70 80  4.0.4...9...@.p.
000029b0: 40 00 00 80 39 00 10 90 39 7f 30 80 39 00 10 90  @...9...9.0.9...
000029c0: 42 7f 00 90 39 7f 70 80 39 00 00 80 42 00 10 90  B...9.p.9...B...
000029d0: 39 7f 30 80 39 00 10 90 39 7f 00 90 40 7f 70 80  9.0.9...9...@.p.
000029e0: 40 00 00 80 39 00 10 90 39 7f 00 90 40 7f 30 80  @...9...9...@.0.
000029f0: 40 00 00 80 39 00 0c e0 00 40 04 e0 00 41 00 90  @...9....@...A..
00002a00: 42 7f 01 e0 00 42 02 e0 00 44 01 e0 24 44 04 e0  B....B...D..$D..
00002a10: 00 44 03 e0 00 42 01 e0 00 41 05 e0 00 40 02 e0  .D...B...A...@..
00002a20: 00 40 05 e0 00 3f 01 e0 00 3e 03 e0 00 3c 04 e0  .@...?...>...<..
00002a30: 00 3e 01 e0 00 3f 03 e0 00 40 0c 80 42 00 10 90  .>...?...@..B...
00002a40: 43 7f 30 80 43 00 10 90 42 7f 30 80 42 00 10 90  C.0.C...B.0.B...
00002a50: 40 7f 00 90 39 7f 70 80 39 00 00 80 40 00 10 90  @...9.p.9...@...
00002a60: 39 7f 30 80 39 00 10 90 42 7f 00 90 39 7f 81 10  9.0.9...B...9...
00002a70: 80 39 00 00 80 42 00 30 90 39 7f 00 90 40 7f 81  .9...B.0.9...@..
00002a80: 10 80 40 00 00 80 39 00 30 90 42 7f 00 90 39 7f  ..@...9.0.B...9.
00002a90: 81 10 80 39 00 00 80 42 00 30 90 34 7f 00 90 3b  ...9...B.0.4...;
00002aa0: 7f 70 80 3b 00 00 80 34 00 10 90 34 7f 30 80 34  .p.;...4...4.0.4
00002ab0: 00 10 90 3d 7f 00 90 34 7f 70 80 34 00 00 80 3d  ...=...4.p.4...=
00002ac0: 00 10 90 34 7f 30 80 34 00 10 90 3b 7f 00 90 34  ...4.0.4...;...4
00002ad0: 7f 70 80 34 00 00 80 3b 00 10 90 4c 7f 00 90 34  .p.4...;...L...4
00002ae0: 7f 10 80 4c 00 20 80 34 00 10 90 3b 7f 00 90 34  ...L. .4...;...4
00002af0: 7f 10 80 34 00 00 80 3b 00 30 90 55 7f 00 90 45  ...4...;.0.U...E
00002b00: 7f 00 90 49 7f 10 80 55 00 20 80 49 00 00 80 45  ...I...U. .I...E
00002b10: 00 10 90 40 7f 30 80 40 00 10 e0 00 40 00 90 43  ...@.0.@....@..C
00002b20: 7f 03 e0 00 41 06 e0 00 42 02 80 43 00 01 e0 00  ....A...B..C....
00002b30: 41 04 90 44 7f 01 e0 00 40 03 e0 00 3f 05 e0 00  A..D....@...?...
00002b40: 3e 03 e0 00 3f 00 80 44 00 04 90 43 7f 01 e0 00  >...?..D...C....
00002b50: 40 07 e0 00 41 03 e0 00 42 06 e0 00 41 03 e0 00  @...A...B...A...
00002b60: 40 05 e0 00 3f 03 e0 00 3e 05 e0 00 3f 03 e0 00  @...?...>...?...
00002b70: 40 05 e0 00 41 03 e0 00 42 04 e0 00 41 03 e0 00  @...A...B...A...
00002b80: 40 01 e0 00 40 05 e0 00 3f 02 e0 00 3e 05 e0 00  @...@...?...>...
00002b90: 3c 01 e0 00 3e 03 e0 00 3f 04 e0 00 40 08 80 43  <...>...?...@..C
00002ba0: 00 10 90 34 7f 30 80 34 00 10 90 34 7f 00 90 3d  ...4.0.4...4...=
00002bb0: 7f 70 80 3d 00 00 80 34 00 10 90 34 7f 30 80 34  .p.=...4...4.0.4
00002bc0: 00 10 90 34 7f 00 90 3b 7f 70 80 3b 00 00 80 34  ...4...;.p.;...4
00002bd0: 00 10 90 34 7f 30 80 34 00 10 90 34 7f 00 90 3d  ...4.0.4...4...=
00002be0: 7f 70 80 3d 00 00 80 34 00 10 90 3e 7f 30 80 3e  .p.=...4...>.0.>
00002bf0: 00 10 90 3f 7f 70 80 3f 00 10 90 45 7f 81 30 80  ...?.p.?...E..0.
00002c00: 45 00 10 90 47 7f 81 30 80 47 00 10 90 45 7f 30  E...G..0.G...E.0
00002c10: 80 45 00 10 90 47 7f 81 10 80 47 00 30 90 40 7f  .E...G....G.0.@.
00002c20: 00 90 39 7f 00 90 45 7f 70 80 45 00 00 80 39 00  ..9...E.p.E...9.
00002c30: 00 80 40 00 10 90 39 7f 00 90 40 7f 00 90 45 7f  ..@...9...@...E.
00002c40: 30 80 45 00 00 80 40 00 00 80 39 00 10 90 39 7f  0.E...@...9...9.
00002c50: 00 90 40 7f 00 90 45 7f 70 80 45 00 00 80 40 00  ..@...E.p.E...@.
00002c60: 00 80 39 00 10 90 39 7f 30 80 39 00 10 90 39 7f  ..9...9.0.9...9.
00002c70: 00 90 42 7f 00 90 45 7f 70 80 45 00 00 80 42 00  ..B...E.p.E...B.
00002c80: 00 80 39 00 10 90 39 7f 30 80 39 00 10 90 40 7f  ..9...9.0.9...@.
00002c90: 30 80 40 00 10 90 42 7f 30 80 42 00 10 90 43 7f  0.@...B.0.B...C.
00002ca0: 30 80 43 00 10 90 34 7f 00 90 3b 7f 70 80 3b 00  0.C...4...;.p.;.
00002cb0: 00 80 34 00 10 90 34 7f 30 80 34 00 10 90 34 7f  ..4...4.0.4...4.
00002cc0: 00 90 3d 7f 70 80 3d 00 00 80 34 00 10 90 34 7f  ..=.p.=...4...4.
00002cd0: 30 80 34 00 10 90 34 7f 00 90 3b 7f 70 80 3b 00  0.4...4...;.p.;.
00002ce0: 00 80 34 00 10 90 34 7f 00 90 3b 7f 30 80 3b 00  ..4...4...;.0.;.
00002cf0: 00 80 34 00 10 90 34 7f 00 90 3b 7f 10 80 3b 00  ..4...4...;...;.
00002d00: 00 80 34 00 30 90 45 7f 00 90 40 7f 30 80 40 00  ..4.0.E...@.0.@.
00002d10: 00 80 45 00 10 90 40 7f 30 80 40 00 10 e0 00 40  ..E...@.0.@....@
00002d20: 00 90 43 7f 03 e0 00 41 08 e0 00 42 00 80 43 00  ..C....A...B..C.
00002d30: 05 90 44 7f 01 e0 00 41 03 e0 00 40 05 e0 00 3f  ..D....A...@...?
00002d40: 03 e0 00 3e 00 80 44 00 04 90 43 7f 01 e0 00 3f  ...>..D...C....?
00002d50: 03 e0 00 40 05 e0 00 41 03 e0 00 42 05 e0 00 41  ...@...A...B...A
00002d60: 03 e0 00 40 05 e0 00 3f 03 e0 00 3e 05 e0 00 3f  ...@...?...>...?
00002d70: 03 e0 00 40 05 e0 00 41 03 e0 00 42 05 e0 00 41  ...@...A...B...A
00002d80: 03 e0 00 40 05 e0 00 40 03 e0 00 3e 07 e0 00 40  ...@...@...>...@
00002d90: 0d 80 43 00 10 90 3b 7f 30 80 3b 00 10 90 45 7f  ..C...;.0.;...E.
00002da0: 70 80 45 00 10 90 47 7f 70 80 47 00 10 90 45 7f  p.E...G.p.G...E.
00002db0: 70 80 45 00 10 90 47 7f 70 80 47 00 10 90 45 7f  p.E...G.p.G...E.
00002dc0: 30 80 45 00 10 90 3b 7f 00 90 34 7f 70 80 34 00  0.E...;...4.p.4.
00002dd0: 00 80 3b 00 10 90 34 7f 30 80 34 00 10 90 3d 7f  ..;...4.0.4...=.
00002de0: 00 90 34 7f 70 80 34 00 00 80 3d 00 10 90 34 7f  ..4.p.4...=...4.
00002df0: 30 80 34 00 10 90 3e 7f 00 90 34 7f 70 80 34 00  0.4...>...4.p.4.
00002e00: 00 80 3e 00 10 90 34 7f 30 80 34 00 10 90 3d 7f  ..>...4.0.4...=.
00002e10: 30 80 3d 00 10 90 3e 7f 30 80 3e 00 10 90 42 7f  0.=...>.0.>...B.
00002e20: 00 90 39 7f 30 80 39 00 00 80 42 00 10 90 39 7f  ..9.0.9...B...9.
00002e30: 00 90 40 7f 70 80 40 00 00 80 39 00 10 90 39 7f  ..@.p.@...9...9.
00002e40: 00 90 40 7f 30 80 40 00 00 80 39 00 10 90 42 7f  ..@.0.@...9...B.
00002e50: 00 90 39 7f 70 80 39 00 00 80 42 00 10 90 39 7f  ..9.p.9...B...9.
00002e60: 00 90 45 7f 10 80 45 00 20 80 39 00 10 90 40 7f  ..E...E. .9...@.
00002e70: 00 90 39 7f 81 10 80 39 00 00 80 40 00 30 90 42  ..9....9...@.0.B
00002e80: 7f 00 90 39 7f 70 80 39 00 00 80 42 00 10 90 39  ...9.p.9...B...9
00002e90: 7f 30 80 39 00 10 90 34 7f 00 90 3b 7f 70 80 3b  .0.9...4...;.p.;
00002ea0: 00 00 80 34 00 10 90 34 7f 00 90 3b 7f 30 80 3b  ...4...4...;.0.;
00002eb0: 00 00 80 34 00 10 90 3d 7f 00 90 34 7f 70 80 34  ...4...=...4.p.4
00002ec0: 00 00 80 3d 00 10 90 38 7f 30 80 38 00 10 90 34  ...=...8.0.8...4
00002ed0: 7f 00 90 3b 7f 70 80 3b 00 00 80 34 00 10 90 34  ...;.p.;...4...4
00002ee0: 7f 30 80 34 00 10 90 34 7f 10 80 34 00 28 90 45  .0.4...4...4.(.E
00002ef0: 7f 30 80 45 00 10 90 40 7f 30 80 40 00 11 e0 00  .0.E...@.0.@....
00002f00: 40 03 e0 00 41 04 90 43 7f 01 e0 00 42 03 e0 00  @...A..C....B...
00002f10: 44 05 e0 00 45 03 e0 00 44 00 80 43 00 04 90 44  D...E...D..C...D
00002f20: 7f 01 e0 00 42 02 e0 00 41 01 e0 00 40 05 e0 00  ....B...A...@...
00002f30: 3f 02 e0 00 3e 00 80 44 00 01 e0 00 3f 04 90 43  ?...>..D....?..C
00002f40: 7f 01 e0 00 40 02 e0 00 41 05 e0 00 42 01 e0 00  ....@...A...B...
00002f50: 44 03 e0 24 44 04 e0 00 44 03 e0 00 42 01 e0 00  D..$D...D...B...
00002f60: 41 04 e0 00 40 03 e0 00 3f 01 e0 00 3e 05 e0 00  A...@...?...>...
00002f70: 3f 03 e0 00 40 05 e0 00 41 03 e0 00 42 05 e0 00  ?...@...A...B...
00002f80: 41 03 e0 00 40 05 e0 00 3f 03 e0 00 3e 07 e0 00  A...@...?...>...
00002f90: 3f 08 e0 00 40 05 80 43 00 01 e0 00 40 0f 90 34  ?...@..C....@..4
00002fa0: 7f 30 80 34 00 10 90 34 7f 00 90 3d 7f 70 80 3d  .0.4...4...=.p.=
00002fb0: 00 00 80 34 00 10 90 34 7f 30 80 34 00 10 90 34  ...4...4.0.4...4
00002fc0: 7f 00 90 3b 7f 70 80 3b 00 00 80 34 00 10 90 34  ...;.p.;...4...4
00002fd0: 7f 30 80 34 00 10 90 3d 7f 00 90 34 7f 70 80 34  .0.4...=...4.p.4
00002fe0: 00 00 80 3d 00 10 90 34 7f 30 80 34 00 10 90 39  ...=...4.0.4...9
00002ff0: 7f 00 90 40 7f 70 80 40 00 00 80 39 00 10 90 39  ...@.p.@...9...9
00003000: 7f 30 80 39 00 10 90 42 7f 00 90 39 7f 70 80 39  .0.9...B...9.p.9
00003010: 00 00 80 42 00 10 90 39 7f 30 80 39 00 10 90 39  ...B...9.0.9...9
00003020: 7f 00 90 40 7f 70 80 40 00 00 80 39 00 10 90 39  ...@.p.@...9...9
00003030: 7f 00 90 40 7f 30 80 40 00 00 80 39 00 0c e0 00  ...@.0.@...9....
00003040: 40 04 e0 00 41 00 90 42 7f 01 e0 00 42 02 e0 00  @...A..B....B...
00003050: 44 01 e0 24 44 04 e0 00 44 03 e0 00 42 01 e0 00  D..$D...D...B...
00003060: 41 05 e0 00 40 02 e0 00 40 05 e0 00 3f 01 e0 00  A...@...@...?...
00003070: 3e 03 e0 00 3c 04 e0 00 3e 01 e0 00 3f 03 e0 00  >...<...>...?...
00003080: 40 0c 80 42 00 10 90 43 7f 30 80 43 00 10 90 42  @..B...C.0.C...B
00003090: 7f 30 80 42 00 10 90 40 7f 00 90 39 7f 70 80 39  .0.B...@...9.p.9
000030a0: 00 00 80 40 00 10 90 39 7f 30 80 39 00 10 90 42  ...@...9.0.9...B
000030b0: 7f 00 90 39 7f 81 10 80 39 00 00 80 42 00 30 90  ...9....9...B.0.
000030c0: 39 7f 00 90 40 7f 81 10 80 40 00 00 80 39 00 30  9...@....@...9.0
000030d0: 90 42 7f 00 90 39 7f 81 10 80 39 00 00 80 42 00  .B...9....9...B.
000030e0: 30 90 34 7f 00 90 3b 7f 70 80 3b 00 00 80 34 00  0.4...;.p.;...4.
000030f0: 10 90 34 7f 30 80 34 00 10 90 3d 7f 00 90 34 7f  ..4.0.4...=...4.
00003100: 70 80 34 00 00 80 3d 00 10 90 34 7f 30 80 34 00  p.4...=...4.0.4.
00003110: 10 90 3b 7f 00 90 34 7f 70 80 34 00 00 80 3b 00  ..;...4.p.4...;.
00003120: 10 90 4c 7f 00 90 34 7f 10 80 4c 00 20 80 34 00  ..L...4...L. .4.
00003130: 10 90 3b 7f 00 90 34 7f 10 80 34 00 00 80 3b 00  ..;...4...4...;.
00003140: 30 90 55 7f 00 90 45 7f 00 90 49 7f 10 80 55 00  0.U...E...I...U.
00003150: 20 80 49 00 00 80 45 00 10 90 40 7f 30 80 40 00   .I...E...@.0.@.
00003160: 10 e0 00 40 00 90 43 7f 03 e0 00 41 06 e0 00 42  ...@..C....A...B
00003170: 02 80 43 00 01 e0 00 41 04 90 44 7f 01 e0 00 40  ..C....A..D....@
00003180: 03 e0 00 3f 05 e0 00 3e 03 e0 00 3f 00 80 44 00  ...?...>...?..D.
00003190: 04 90 43 7f 01 e0 00 40 07 e0 00 41 03 e0 00 42  ..C....@...A...B
000031a0: 06 e0 00 41 03 e0 00 40 05 e0 00 3f 03 e0 00 3e  ...A...@...?...>
000031b0: 05 e0 00 3f 03 e0 00 40 05 e0 00 41 03 e0 00 42  ...?...@...A...B
000031c0: 04 e0 00 41 03 e0 00 40 01 e0 00 40 05 e0 00 3f  ...A...@...@...?
000031d0: 02 e0 00 3e 05 e0 00 3c 01 e0 00 3e 03 e0 00 3f  ...>...<...>...?
000031e0: 04 e0 00 40 08 80 43 00 10 90 34 7f 30 80 34 00  ...@..C...4.0.4.
000031f0: 10 90 34 7f 00 90 3d 7f 70 80 3d 00 00 80 34 00  ..4...=.p.=...4.
00003200: 10 90 34 7f 30 80 34 00 10 90 34 7f 00 90 3b 7f  ..4.0.4...4...;.
00003210: 70 80 3b 00 00 80 34 00 10 90 34 7f 30 80 34 00  p.;...4...4.0.4.
00003220: 10 90 34 7f 00 90 3d 7f 70 80 3d 00 00 80 34 00  ..4...=.p.=...4.
00003230: 10 90 3e 7f 30 80 3e 00 10 90 3f 7f 70 80 3f 00  ..>.0.>...?.p.?.
00003240: 10 90 45 7f 81 30 80 45 00 10 90 47 7f 81 30 80  ..E..0.E...G..0.
00003250: 47 00 10 90 45 7f 30 80 45 00 10 90 47 7f 81 10  G...E.0.E...G...
00003260: 80 47 00 30 90 40 7f 00 90 39 7f 00 90 45 7f 70  .G.0.@...9...E.p
00003270: 80 45 00 00 80 39 00 00 80 40 00 10 90 39 7f 00  .E...9...@...9..
00003280: 90 40 7f 00 90 45 7f 30 80 45 00 00 80 40 00 00  .@...E.0.E...@..
00003290: 80 39 00 10 90 39 7f 00 90 40 7f 00 90 45 7f 70  .9...9...@...E.p
000032a0: 80 45 00 00 80 40 00 00 80 39 00 10 90 39 7f 30  .E...@...9...9.0
000032b0: 80 39 00 10 90 39 7f 00 90 42 7f 00 90 45 7f 70  .9...9...B...E.p
000032c0: 80 45 00 00 80 42 00 00 80 39 00 10 90 39 7f 30  .E...B...9...9.0
000032d0: 80 39 00 10 90 40 7f 30 80 40 00 10 90 42 7f 30  .9...@.0.@...B.0
000032e0: 80 42 00 10 90 43 7f 30 80 43 00 10 90 34 7f 00  .B...C.0.C...4..
000032f0: 90 3b 7f 70 80 3b 00 00 80 34 00 10 90 34 7f 30  .;.p.;...4...4.0
00003300: 80 34 00 10 90 34 7f 00 90 3d 7f 70 80 3d 00 00  .4...4...=.p.=..
00003310: 80 34 00 10 90 34 7f 30 80 34 00 10 90 34 7f 00  .4...4.0.4...4..
00003320: 90 3b 7f 70 80 3b 00 00 80 34 00 10 90 34 7f 00  .;.p.;...4...4..
00003330: 90 3b 7f 30 80 3b 00 00 80 34 00 10 90 34 7f 00  .;.0.;...4...4..
00003340: 90 3b 7f 10 80 3b 00 00 80 34 00 30 90 45 7f 00  .;...;...4.0.E..
00003350: 90 40 7f 30 80 40 00 00 80 45 00 10 90 40 7f 30  .@.0.@...E...@.0
00003360: 80 40 00 10 e0 00 40 00 90 43 7f 03 e0 00 41 08  .@....@..C....A.
00003370: e0 00 42 00 80 43 00 05 90 44 7f 01 e0 00 41 03  ..B..C...D....A.
00003380: e0 00 40 05 e0 00 3f 03 e0 00 3e 00 80 44 00 04  ..@...?...>..D..
00003390: 90 43 7f 01 e0 00 3f 03 e0 00 40 05 e0 00 41 03  .C....?...@...A.
000033a0: e0 00 42 05 e0 00 41 03 e0 00 40 05 e0 00 3f 03  ..B...A...@...?.
000033b0: e0 00 3e 05 e0 00 3f 03 e0 00 40 05 e0 00 41 03  ..>...?...@...A.
000033c0: e0 00 42 05 e0 00 41 03 e0 00 40 05 e0 00 40 03  ..B...A...@...@.
000033d0: e0 00 3e 07 e0 00 40 0d 80 43 00 10 90 3b 7f 30  ..>...@..C...;.0
000033e0: 80 3b 00 10 90 45 7f 70 80 45 00 10 90 47 7f 70  .;...E.p.E...G.p
000033f0: 80 47 00 10 90 45 7f 70 80 45 00 10 90 47 7f 70  .G...E.p.E...G.p
00003400: 80 47 00 10 90 45 7f 30 80 45 00 10 90 3b 7f 00  .G...E.0.E...;..
00003410: 90 34 7f 70 80 34 00 00 80 3b 00 10 90 34 7f 30  .4.p.4...;...4.0
00003420: 80 34 00 10 90 3d 7f 00 90 34 7f 70 80 34 00 00  .4...=...4.p.4..
00003430: 80 3d 00 10 90 34 7f 30 80 34 00 10 90 3e 7f 00  .=...4.0.4...>..
00003440: 90 34 7f 70 80 34 00 00 80 3e 00 10 90 34 7f 30  .4.p.4...>...4.0
00003450: 80 34 00 10 90 3d 7f 30 80 3d 00 10 90 3e 7f 30  .4...=.0.=...>.0
00003460: 80 3e 00 10 90 42 7f 00 90 39 7f 30 80 39 00 00  .>...B...9.0.9..
00003470: 80 42 00 10 90 39 7f 00 90 40 7f 70 80 40 00 00  .B...9...@.p.@..
00003480: 80 39 00 10 90 39 7f 00 90 40 7f 30 80 40 00 00  .9...9...@.0.@..
00003490: 80 39 00 10 90 42 7f 00 90 39 7f 70 80 39 00 00  .9...B...9.p.9..
000034a0: 80 42 00 10 90 39 7f 00 90 45 7f 10 80 45 00 20  .B...9...E...E. 
000034b0: 80 39 00 10 90 40 7f 00 90 39 7f 81 10 80 39 00  .9...@...9....9.
000034c0: 00 80 40 00 30 90 42 7f 00 90 39 7f 70 80 39 00  ..@.0.B...9.p.9.
000034d0: 00 80 42 00 10 90 39 7f 30 80 39 00 10 90 34 7f  ..B...9.0.9...4.
000034e0: 00 90 3b 7f 70 80 3b 00 00 80 34 00 10 90 34 7f  ..;.p.;...4...4.
000034f0: 00 90 3b 7f 30 80 3b 00 00 80 34 00 10 90 3d 7f  ..;.0.;...4...=.
00003500: 00 90 34 7f 70 80 34 00 00 80 3d 00 10 90 38 7f  ..4.p.4...=...8.
00003510: 30 80 38 00 10 90 34 7f 00 90 3b 7f 70 80 3b 00  0.8...4...;.p.;.
00003520: 00 80 34 00 10 90 34 7f 30 80 34 00 10 90 34 7f  ..4...4.0.4...4.
00003530: 10 80 34 00 28 90 45 7f 30 80 45 00 10 90 40 7f  ..4.(.E.0.E...@.
00003540: 30 80 40 00 11 e0 00 40 03 e0 00 41 04 90 43 7f  0.@....@...A..C.
00003550: 01 e0 00 42 03 e0 00 44 05 e0 00 45 03 e0 00 44  ...B...D...E...D
00003560: 00 80 43 00 04 90 44 7f 01 e0 00 42 02 e0 00 41  ..C...D....B...A
00003570: 01 e0 00 40 05 e0 00 3f 02 e0 00 3e 00 80 44 00  ...@...?...>..D.
00003580: 01 e0 00 3f 04 90 43 7f 01 e0 00 40 02 e0 00 41  ...?..C....@...A
00003590: 05 e0 00 42 01 e0 00 44 03 e0 24 44 04 e0 00 44  ...B...D..$D...D
000035a0: 03 e0 00 42 01 e0 00 41 04 e0 00 40 03 e0 00 3f  ...B...A...@...?
000035b0: 01 e0 00 3e 05 e0 00 3f 03 e0 00 40 05 e0 00 41  ...>...?...@...A
000035c0: 03 e0 00 42 05 e0 00 41 03 e0 00 40 05 e0 00 3f  ...B...A...@...?
000035d0: 03 e0 00 3e 07 e0 00 3f 08 e0 00 40 05 80 43 00  ...>...?...@..C.
000035e0: 01 e0 00 40 0f 90 34 7f 30 80 34 00 10 90 34 7f  ...@..4.0.4...4.
000035f0: 00 90 3d 7f 70 80 3d 00 00 80 34 00 10 90 34 7f  ..=.p.=...4...4.
00003600: 30 80 34 00 10 90 34 7f 00 90 3b 7f 70 80 3b 00  0.4...4...;.p.;.
00003610: 00 80 34 00 10 90 34 7f 30 80 34 00 10 90 3d 7f  ..4...4.0.4...=.
00003620: 00 90 34 7f 70 80 34 00 00 80 3d 00 10 90 34 7f  ..4.p.4...=...4.
00003630: 30 80 34 00 10 90 39 7f 00 90 40 7f 70 80 40 00  0.4...9...@.p.@.
00003640: 00 80 39 00 10 90 39 7f 30 80 39 00 10 90 42 7f  ..9...9.0.9...B.
00003650: 00 90 39 7f 70 80 39 00 00 80 42 00 10 90 39 7f  ..9.p.9...B...9.
00003660: 30 80 39 00 10 90 39 7f 00 90 40 7f 70 80 40 00  0.9...9...@.p.@.
00003670: 00 80 39 00 10 90 39 7f 00 90 40 7f 30 80 40 00  ..9...9...@.0.@.
00003680: 00 80 39 00 0c e0 00 40 04 e0 00 41 00 90 42 7f  ..9....@...A..B.
00003690: 01 e0 00 42 02 e0 00 44 01 e0 24 44 04 e0 00 44  ...B...D..$D...D
000036a0: 03 e0 00 42 01 e0 00 41 05 e0 00 40 02 e0 00 40  ...B...A...@...@
000036b0: 05 e0 00 3f 01 e0 00 3e 03 e0 00 3c 04 e0 00 3e  ...?...>...<...>
000036c0: 01 e0 00 3f 03 e0 00 40 0c 80 42 00 10 90 43 7f  ...?...@..B...C.
000036d0: 30 80 43 00 10 90 42 7f 30 80 42 00 10 90 40 7f  0.C...B.0.B...@.
000036e0: 00 90 39 7f 70 80 39 00 00 80 40 00 10 90 39 7f  ..9.p.9...@...9.
000036f0: 30 80 39 00 10 90 42 7f 00 90 39 7f 81 10 80 39  0.9...B...9....9
00003700: 00 00 80 42 00 30 90 39 7f 00 90 40 7f 81 10 80  ...B.0.9...@....
00003710: 40 00 00 80 39 00 30 90 42 7f 00 90 39 7f 81 10  @...9.0.B...9...
00003720: 80 39 00 00 80 42 00 30 90 34 7f 00 90 3b 7f 70  .9...B.0.4...;.p
00003730: 80 3b 00 00 80 34 00 10 90 34 7f 30 80 34 00 10  .;...4...4.0.4..
00003740: 90 3d 7f 00 90 34 7f 70 80 34 00 00 80 3d 00 10  .=...4.p.4...=..
00003750: 90 34 7f 30 80 34 00 10 90 3b 7f 00 90 34 7f 70  .4.0.4...;...4.p
00003760: 80 34 00 00 80 3b 00 10 90 4c 7f 00 90 34 7f 10  .4...;...L...4..
00003770: 80 4c 00 20 80 34 00 10 90 3b 7f 00 90 34 7f 10  .L. .4...;...4..
00003780: 80 34 00 00 80 3b 00 30 90 55 7f 00 90 45 7f 00  .4...;.0.U...E..
00003790: 90 49 7f 10 80 55 00 20 80 49 00 00 80 45 00 10  .I...U. .I...E..
000037a0: 90 40 7f 30 80 40 00 10 e0 00 40 00 90 43 7f 03  .@.0.@....@..C..
000037b0: e0 00 41 06 e0 00 42 02 80 43 00 01 e0 00 41 04  ..A...B..C....A.
000037c0: 90 44 7f 01 e0 00 40 03 e0 00 3f 05 e0 00 3e 03  .D....@...?...>.
000037d0: e0 00 3f 00 80 44 00 04 90 43 7f 01 e0 00 40 07  ..?..D...C....@.
000037e0: e0 00 41 03 e0 00 42 06 e0 00 41 03 e0 00 40 05  ..A...B...A...@.
000037f0: e0 00 3f 03 e0 00 3e 05 e0 00 3f 03 e0 00 40 05  ..?...>...?...@.
00003800: e0 00 41 03 e0 00 42 04 e0 00 41 03 e0 00 40 01  ..A...B...A...@.
00003810: e0 00 40 05 e0 00 3f 02 e0 00 3e 05 e0 00 3c 01  ..@...?...>...<.
00003820: e0 00 3e 03 e0 00 3f 04 e0 00 40 08 80 43 00 10  ..>...?...@..C..
00003830: 90 34 7f 30 80 34 00 10 90 34 7f 00 90 3d 7f 70  .4.0.4...4...=.p
00003840: 80 3d 00 00 80 34 00 10 90 34 7f 30 80 34 00 10  .=...4...4.0.4..
00003850: 90 34 7f 00 90 3b 7f 70 80 3b 00 00 80 34 00 10  .4...;.p.;...4..
00003860: 90 34 7f 30 80 34 00 10 90 34 7f 00 90 3d 7f 70  .4.0.4...4...=.p
00003870: 80 3d 00 00 80 34 00 10 90 3e 7f 30 80 3e 00 10  .=...4...>.0.>..
00003880: 90 3f 7f 70 80 3f 00 10 90 45 7f 81 30 80 45 00  .?.p.?...E..0.E.
00003890: 10 90 47 7f 81 30 80 47 00 10 90 45 7f 30 80 45  ..G..0.G...E.0.E
000038a0: 00 10 90 47 7f 81 10 80 47 00 30 90 40 7f 00 90  ...G....G.0.@...
000038b0: 39 7f 00 90 45 7f 70 80 45 00 00 80 39 00 00 80  9...E.p.E...9...
000038c0: 40 00 10 90 39 7f 00 90 40 7f 00 90 45 7f 30 80  @...9...@...E.0.
000038d0: 45 00 00 80 40 00 00 80 39 00 10 90 39 7f 00 90  E...@...9...9...
000038e0: 40 7f 00 90 45 7f 70 80 45 00 00 80 40 00 00 80  @...E.p.E...@...
000038f0: 39 00 10 90 39 7f 30 80 39 00 10 90 39 7f 00 90  9...9.0.9...9...
00003900: 42 7f 00 90 45 7f 70 80 45 00 00 80 42 00 00 80  B...E.p.E...B...
00003910: 39 00 10 90 39 7f 30 80 39 00 10 90 40 7f 30 80  9...9.0.9...@.0.
00003920: 40 00 10 90 42 7f 30 80 42 00 10 90 43 7f 30 80  @...B.0.B...C.0.
00003930: 43 00 10 90 34 7f 00 90 3b 7f 70 80 3b 00 00 80  C...4...;.p.;...
00003940: 34 00 10 90 34 7f 30 80 34 00 10 90 34 7f 00 90  4...4.0.4...4...
00003950: 3d 7f 70 80 3d 00 00 80 34 00 10 90 34 7f 30 80  =.p.=...4...4.0.
00003960: 34 00 10 90 34 7f 00 90 3b 7f 70 80 3b 00 00 80  4...4...;.p.;...
00003970: 34 00 10 90 34 7f 00 90 3b 7f 30 80 3b 00 00 80  4...4...;.0.;...
00003980: 34 00 10 90 34 7f 00 90 3b 7f 10 80 3b 00 00 80  4...4...;...;...
00003990: 34 00 30 90 45 7f 00 90 40 7f 30 80 40 00 00 80  4.0.E...@.0.@...
000039a0: 45 00 10 90 40 7f 30 80 40 00 10 e0 00 40 00 90  E...@.0.@....@..
000039b0: 43 7f 03 e0 00 42 05 80 43 00 01 e0 00 42 02 90  C....B..C....B..
000039c0: 44 7f 05 e0 00 42 03 e0 00 40 00 80 44 00 05 e0  D....B...@..D...
000039d0: 00 40 00 90 43 7f 03 e0 00 3e 06 e0 00 40 03 e0  .@..C....>...@..
000039e0: 00 40 05 e0 00 42 03 e0 00 42 05 e0 00 42 03 e0  .@...B...B...B..
000039f0: 00 40 05 e0 00 40 03 e0 00 3e 07 e0 00 40 05 e0  .@...@...>...@..
00003a00: 00 40 03 e0 00 42 05 e0 00 42 01 e0 00 42 03 e0  .@...B...B...B..
00003a10: 00 40 05 e0 00 40 03 e0 00 3e 05 e0 00 40 08 e0  .@...@...>...@..
00003a20: 00 40 07 e0 00 40 00 80 43 00 10 90 3b 7f 30 80  .@...@..C...;.0.
00003a30: 3b 00 10 90 3b 7f 04 90 3e 7f 05 90 45 7f 67 80  ;...;...>...E.g.
00003a40: 45 00 00 80 3e 00 00 80 3b 00 10 90 47 7f 04 90  E...>...;...G...
00003a50: 45 7f 07 90 3e 7f 65 80 3e 00 00 80 45 00 00 80  E...>.e.>...E...
00003a60: 47 00 10 90 45 7f 10 80 45 00 03 90 47 7f 5d 80  G...E...E...G.].
00003a70: 47 00 40 90 4c 7f 30 80 4c 00 04 90 4f 7f 2c 80  G.@.L.0.L...O.,.
00003a80: 4f 00 04 90 51 7f 2c 80 51 00 1c e0 00 42 04 e0  O...Q.,.Q....B..
00003a90: 00 44 00 90 51 7f 01 e0 00 46 02 e0 00 48 01 e0  .D..Q....F...H..
00003aa0: 00 4a 04 e0 00 4a 00 80 51 00 01 e0 00 48 02 e0  .J...J..Q....H..
00003ab0: 00 40 00 90 53 7f 45 80 53 00 0c e0 00 42 04 e0  .@..S.E.S....B..
00003ac0: 00 44 00 90 51 7f 01 e0 00 46 02 e0 00 48 01 e0  .D..Q....F...H..
00003ad0: 00 4a 04 e0 00 4a 00 80 51 00 01 e0 00 48 02 e0  .J...J..Q....H..
00003ae0: 00 46 00 90 53 7f 01 e0 00 44 04 e0 00 40 03 e0  .F..S....D...@..
00003af0: 00 40 00 e0 00 40 5d 80 53 00 10 90 51 7f 20 80  .@...@].S...Q. .
00003b00: 51 00 01 90 4f 7f 1a 80 4f 00 05 90 4c 7f 30 80  Q...O...O...L.0.
00003b10: 4c 00 10 90 4f 7f 30 90 51 7f 00 80 4f 00 5b 80  L...O.0.Q...O.[.
00003b20: 51 00 01 e0 00 42 04 e0 00 44 00 90 51 7f 01 e0  Q....B...D..Q...
00003b30: 00 46 02 e0 00 48 01 e0 00 4a 04 e0 00 4a 00 80  .F...H...J...J..
00003b40: 51 00 01 e0 00 48 02 e0 00 46 00 90 53 7f 01 e0  Q....H...F..S...
00003b50: 00 44 04 e0 00 40 03 e0 00 40 00 e0 00 40 7d 80  .D...@...@...@}.
00003b60: 53 00 82 20 90 4c 7f 30 90 4f 7f 00 80 4c 00 30  S.. .L.0.O...L.0
00003b70: 90 51 7f 00 80 4f 00 5b 80 51 00 01 e0 00 42 04  .Q...O.[.Q....B.
00003b80: e0 00 44 00 90 51 7f 01 e0 00 46 02 e0 00 48 01  ..D..Q....F...H.
00003b90: e0 00 4a 04 e0 00 4a 00 90 53 7f 00 80 51 00 01  ..J...J..S...Q..
00003ba0: e0 00 48 02 e0 00 46 01 e0 00 44 04 e0 00 40 08  ..H...F...D...@.
00003bb0: 80 53 00 08 90 51 7f 10 80 51 00 10 90 4f 7f 10  .S...Q...Q...O..
00003bc0: 80 4f 00 10 90 4c 7f 10 80 4c 00 10 90 51 7f 10  .O...L...L...Q..
00003bd0: 80 51 00 10 90 4c 7f 10 80 4c 00 10 90 4f 7f 30  .Q...L...L...O.0
00003be0: 90 51 7f 00 80 4f 00 5b 80 51 00 01 e0 00 42 04  .Q...O.[.Q....B.
00003bf0: e0 00 44 00 90 51 7f 01 e0 00 46 02 e0 00 48 01  ..D..Q....F...H.
00003c00: e0 00 4a 04 e0 00 4a 00 80 51 00 01 e0 00 48 02  ..J...J..Q....H.
00003c10: e0 00 46 00 90 53 7f 01 e0 00 44 04 e0 00 40 1c  ..F..S....D...@.
00003c20: e0 00 42 04 e0 00 42 03 e0 00 44 01 e0 00 44 04  ..B...B...D...D.
00003c30: e0 00 44 01 e0 00 42 02 e0 00 40 01 e0 00 3e 04  ..D...B...@...>.
00003c40: e0 00 3c 01 e0 00 3e 02 e0 00 40 01 e0 00 42 04  ..<...>...@...B.
00003c50: e0 00 42 01 e0 00 42 02 e0 00 40 05 e0 00 40 01  ..B...B...@...@.
00003c60: e0 00 3e 03 e0 00 40 07 e0 00 40 05 90 51 7f 00  ..>...@...@..Q..
00003c70: 80 53 00 01 e0 00 40 02 e0 00 40 2d 90 4f 7f 00  .S....@...@-.O..
00003c80: 80 51 00 30 90 51 7f 00 80 4f 00 30 90 51 7f 00  .Q.0.Q...O.0.Q..
00003c90: 80 51 00 08 90 53 7f 00 80 51 00 10 80 53 00 08  .Q...S...Q...S..
00003ca0: 90 51 7f 10 80 51 00 10 90 4f 7f 10 80 4f 00 10  .Q...Q...O...O..
00003cb0: 90 50 7f 50 80 50 00 83 0c e0 00 40 04 e0 00 42  .P.P.P.....@...B
00003cc0: 00 90 56 7f 01 e0 00 42 02 e0 00 44 01 e0 00 46  ..V....B...D...F
00003cd0: 04 e0 00 46 01 e0 00 48 02 e0 00 48 01 e0 00 4a  ...F...H...H...J
00003ce0: 04 e0 00 4a 00 80 56 00 01 e0 00 48 02 e0 00 46  ...J..V....H...F
00003cf0: 00 90 58 7f 01 e0 00 44 04 e0 00 40 18 e0 00 42  ..X....D...@...B
00003d00: 03 e0 00 42 05 e0 00 44 03 e0 00 44 01 e0 00 44  ...B...D...D...D
00003d10: 04 e0 00 42 01 e0 00 42 02 e0 00 40 05 e0 00 40  ...B...B...@...@
00003d20: 01 e0 00 3e 02 e0 00 3e 01 e0 00 3c 04 e0 00 3e  ...>...>...<...>
00003d30: 01 e0 00 3e 02 e0 00 40 01 e0 00 42 04 e0 00 42  ...>...@...B...B
00003d40: 01 e0 00 44 02 e0 00 44 01 e0 00 46 04 e0 00 46  ...D...D...F...F
00003d50: 01 e0 00 46 02 e0 00 44 01 e0 00 44 04 e0 00 42  ...F...D...D...B
00003d60: 01 e0 00 40 02 e0 00 40 01 e0 00 3e 04 e0 00 40  ...@...@...>...@
00003d70: 03 e0 00 40 01 e0 00 42 04 e0 00 42 03 e0 00 44  ...@...B...B...D
00003d80: 01 e0 00 44 04 e0 00 44 01 e0 00 42 02 e0 00 42  ...D...D...B...B
00003d90: 01 e0 00 40 05 e0 00 40 02 e0 00 3e 01 e0 00 3e  ...@...@...>...>
00003da0: 04 e0 00 3c 01 e0 00 3e 02 e0 00 3e 01 e0 00 40  ...<...>...>...@
00003db0: 04 e0 00 40 03 e0 00 42 01 e0 00 42 04 e0 00 44  ...@...B...B...D
00003dc0: 01 e0 00 44 02 e0 00 44 05 e0 00 42 03 e0 00 42  ...D...D...B...B
00003dd0: 05 e0 00 40 00 80 58 00 03 e0 00 40 00 e0 00 40  ...@..X....@...@
00003de0: 0d 90 56 7f 08 80 56 00 03 90 57 7f 20 80 57 00  ..V...V...W. .W.
00003df0: 05 90 53 7f 29 80 53 00 07 90 57 7f 5b 80 57 00  ..S.).S...W.[.W.
00003e00: 05 90 53 7f 19 80 53 00 07 90 57 7f 19 80 57 00  ..S...S...W...W.
00003e10: 07 90 53 7f 19 80 53 00 07 90 51 7f 28 80 51 00  ..S...S...Q.(.Q.
00003e20: 08 90 53 7f 2b 80 53 00 01 e0 00 42 04 e0 00 44  ..S.+.S....B...D
00003e30: 00 90 51 7f 01 e0 00 46 02 e0 00 48 01 e0 00 4a  ..Q....F...H...J
00003e40: 04 e0 00 4a 00 80 51 00 01 e0 00 48 02 e0 00 40  ...J..Q....H...@
00003e50: 00 90 53 7f 18 80 53 00 0d 90 51 7f 29 80 51 00  ..S...S...Q.).Q.
00003e60: 07 90 4f 7f 03 e0 00 42 09 e0 00 42 0c e0 00 44  ..O....B...B...D
00003e70: 09 e0 00 44 07 e0 00 44 00 80 4f 00 01 e0 00 42  ...D...D..O....B
00003e80: 02 e0 00 40 05 90 4c 7f 2b 80 4c 00 05 90 51 7f  ...@..L.+.L...Q.
00003e90: 28 80 51 00 08 90 4c 7f 2b 80 4c 00 05 90 4f 7f  (.Q...L.+.L...O.
00003ea0: 2b 80 4f 00 01 e0 00 42 04 90 51 7f 01 e0 00 42  +.O....B..Q....B
00003eb0: 03 e0 00 44 05 e0 00 44 03 e0 00 46 04 e0 00 46  ...D...D...F...F
00003ec0: 03 e0 00 48 05 e0 00 48 03 e0 00 4a 05 e0 00 4a  ...H...H...J...J
00003ed0: 01 e0 00 4a 02 e0 00 48 01 e0 00 46 04 e0 00 44  ...J...H...F...D
00003ee0: 01 e0 00 42 02 e0 00 40 00 80 51 00 05 90 53 7f  ...B...@..Q...S.
00003ef0: 10 80 53 00 10 90 51 7f 04 e0 00 42 04 e0 00 44  ..S...Q....B...D
00003f00: 00 90 53 7f 00 80 51 00 01 e0 00 46 02 e0 00 48  ..S...Q....F...H
00003f10: 01 e0 00 4a 00 80 53 00 04 e0 00 40 00 90 53 7f  ...J..S....@..S.
00003f20: 08 80 53 00 08 90 58 7f 10 80 58 00 10 90 53 7f  ..S...X...X...S.
00003f30: 10 80 53 00 0c e0 00 42 04 90 5b 7f 01 e0 00 42  ..S....B..[....B
00003f40: 03 e0 00 44 05 e0 00 44 03 e0 00 46 05 e0 00 46  ...D...D...F...F
00003f50: 02 e0 00 46 01 e0 00 44 04 e0 00 44 00 80 5b 00  ...F...D...D..[.
00003f60: 03 e0 00 42 00 90 5c 7f 01 e0 00 42 04 e0 00 40  ...B..\....B...@
00003f70: 03 e0 00 40 00 e0 00 40 0d 80 5c 00 10 90 58 7f  ...@...@..\...X.
00003f80: 5c e0 00 40 04 e0 00 42 01 e0 00 42 02 e0 00 44  \..@...B...B...D
00003f90: 01 e0 00 44 04 e0 00 44 01 e0 00 42 02 e0 00 40  ...D...D...B...@
00003fa0: 01 e0 00 40 04 e0 00 3e 01 e0 00 3c 02 e0 00 3e  ...@...>...<...>
00003fb0: 01 e0 00 40 04 e0 00 40 01 e0 00 42 02 e0 00 44  ...@...@...B...D
00003fc0: 01 e0 00 44 04 e0 00 44 03 e0 00 42 01 e0 00 42  ...D...D...B...B
00003fd0: 04 e0 00 40 03 e0 00 40 01 e0 00 3e 04 e0 00 40  ...@...@...>...@
00003fe0: 03 e0 00 40 01 e0 00 42 04 e0 00 42 03 e0 00 44  ...@...B...B...D
00003ff0: 01 e0 00 44 04 e0 00 44 01 e0 00 42 02 e0 00 42  ...D...D...B...B
00004000: 01 e0 00 40 05 e0 00 40 02 e0 00 3e 01 e0 00 3e  ...@...@...>...>
00004010: 04 e0 00 3c 01 e0 00 3e 02 e0 00 3e 05 e0 00 40  ...<...>...>...@
00004020: 01 e0 00 40 02 e0 00 42 01 e0 00 42 05 e0 00 44  ...@...B...B...D
00004030: 02 e0 00 44 01 e0 00 44 05 e0 00 42 02 e0 00 42  ...D...D...B...B
00004040: 05 e0 00 40 01 e0 00 40 03 e0 00 3e 04 e0 00 40  ...@...@...>...@
00004050: 03 e0 00 40 05 e0 00 42 03 e0 00 42 01 e0 00 42  ...@...B...B...B
00004060: 04 e0 00 40 03 e0 00 40 01 e0 00 3e 04 e0 00 40  ...@...@...>...@
00004070: 03 e0 00 40 01 e0 00 42 04 e0 00 42 03 e0 00 44  ...@...B...B...D
00004080: 01 e0 00 44 04 e0 00 44 01 e0 00 42 02 e0 00 42  ...D...D...B...B
00004090: 01 e0 00 40 04 e0 00 40 01 e0 00 3e 02 e0 00 40  ...@...@...>...@
000040a0: 01 e0 00 40 05 e0 00 40 0f 80 58 00 81 60 90 51  ...@...@..X..`.Q
000040b0: 7f 08 80 51 00 01 e0 00 40 02 90 56 7f 01 e0 00  ...Q....@..V....
000040c0: 42 08 e0 00 42 08 e0 00 44 08 e0 00 44 08 e0 00  B...B...D...D...
000040d0: 46 08 e0 00 46 04 80 56 00 01 e0 00 46 02 e0 00  F...F..V....F...
000040e0: 44 01 e0 00 44 04 90 57 7f 01 e0 00 42 02 e0 00  D...D..W....B...
000040f0: 42 01 e0 00 40 05 e0 00 40 00 e0 00 40 27 80 57  B...@...@...@'.W
00004100: 00 10 90 53 7f 13 80 53 00 01 90 56 7f 14 80 56  ...S...S...V...V
00004110: 00 01 90 53 7f 12 80 53 00 05 90 51 7f 10 80 51  ...S...S...Q...Q
00004120: 00 10 90 53 7f 10 80 53 00 0c e0 00 40 04 e0 00  ...S...S....@...
00004130: 42 00 90 51 7f 01 e0 00 42 02 e0 00 44 01 e0 00  B..Q....B...D...
00004140: 46 04 e0 00 46 01 e0 00 48 02 e0 00 48 01 e0 00  F...F...H...H...
00004150: 4a 04 e0 00 4a 00 80 51 00 01 e0 00 48 02 e0 00  J...J..Q....H...
00004160: 46 00 90 53 7f 01 e0 00 44 04 e0 00 40 81 31 e0  F..S....D...@.1.
00004170: 00 40 10 e0 00 3e 0f e0 00 3e 10 e0 00 3c 0b e0  .@...>...>...<..
00004180: 00 3c 0d e0 00 3a 0b e0 00 3a 0d e0 00 38 08 e0  .<...:...:...8..
00004190: 00 38 00 80 53 00 03 e0 00 36 05 e0 00 36 03 e0  .8..S....6...6..
000041a0: 00 34 01 e0 00 36 04 e0 00 38 00 90 4f 7f 01 e0  .4...6...8..O...
000041b0: 00 3a 02 e0 00 3c 01 e0 00 3e 04 e0 00 40 03 e0  .:...<...>...@..
000041c0: 00 40 00 e0 00 40 25 80 4f 00 10 90 4c 7f 2b 80  .@...@%.O...L.+.
000041d0: 4c 00 05 90 4f 7f 29 80 4f 00 02 e0 00 40 05 e0  L...O.).O....@..
000041e0: 00 42 00 90 51 7f 03 e0 00 42 05 e0 00 44 03 e0  .B..Q....B...D..
000041f0: 00 44 05 e0 00 46 04 e0 00 46 05 e0 00 48 03 e0  .D...F...F...H..
00004200: 00 48 05 e0 00 4a 03 e0 00 4a 04 80 51 00 01 e0  .H...J...J..Q...
00004210: 00 48 02 e0 00 46 01 e0 00 44 04 e0 00 40 00 90  .H...F...D...@..
00004220: 53 7f 2b 80 53 00 05 90 53 7f 10 80 53 00 10 90  S.+.S...S...S...
00004230: 58 7f 10 80 58 00 10 90 53 7f 10 80 53 00 0c e0  X...X...S...S...
00004240: 00 42 04 90 56 7f 01 e0 00 42 02 e0 00 44 01 e0  .B..V....B...D..
00004250: 00 44 05 e0 00 46 02 e0 00 46 05 e0 00 48 01 e0  .D...F...F...H..
00004260: 00 48 02 e0 00 4a 05 e0 00 4a 01 e0 00 48 00 80  .H...J...J...H..
00004270: 56 00 02 e0 00 46 01 e0 00 44 04 e0 00 42 00 90  V....F...D...B..
00004280: 58 7f 03 e0 00 40 00 e0 00 40 0d 80 58 00 10 90  X....@...@..X...
00004290: 58 7f 10 80 58 00 83 10 90 51 7f 08 90 53 7f 00  X...X....Q...S..
000042a0: 80 51 00 38 e0 00 40 00 90 56 7f 03 e0 00 42 05  .Q.8..@..V....B.
000042b0: e0 00 42 03 e0 00 44 05 e0 00 44 01 e0 00 44 03  ..B...D...D...D.
000042c0: e0 00 42 05 e0 00 42 03 e0 00 40 05 e0 00 40 03  ..B...B...@...@.
000042d0: e0 00 3e 04 e0 00 40 03 e0 00 40 05 e0 00 42 01  ..>...@...@...B.
000042e0: e0 00 42 03 e0 00 44 05 e0 00 44 02 e0 00 44 05  ..B...D...D...D.
000042f0: e0 00 42 03 e0 00 42 01 e0 00 40 05 e0 00 40 03  ..B...B...@...@.
00004300: e0 00 3e 05 e0 00 40 03 e0 00 40 05 e0 00 42 03  ..>...@...@...B.
00004310: e0 00 42 05 e0 00 42 03 e0 00 40 04 e0 00 40 01  ..B...B...@...@.
00004320: e0 00 3e 03 e0 00 3e 04 e0 00 3c 01 e0 00 3e 03  ..>...>...<...>.
00004330: e0 00 3e 04 e0 00 40 00 80 56 00 00 80 53 00 03  ..>...@..V...S..
00004340: e0 00 40 05 e0 00 40 00 90 53 7f 08 80 53 00 03  ..@...@..S...S..
00004350: 90 51 7f 25 80 51 00 10 90 4f 7f 30 80 4f 00 10  .Q.%.Q...O.0.O..
00004360: 90 4c 7f 30 80 4c 00 10 90 4f 7f 08 80 4f 00 03  .L.0.L...O...O..
00004370: 90 50 7f 25 80 50 00 0c e0 00 40 04 e0 00 42 00  .P.%.P....@...B.
00004380: 90 4c 7f 03 e0 00 42 01 e0 00 44 05 e0 00 44 02  .L....B...D...D.
00004390: e0 00 44 05 e0 00 42 03 e0 00 42 05 e0 00 40 03  ..D...B...B...@.
000043a0: e0 00 40 05 e0 00 3e 03 e0 00 40 05 e0 00 40 03  ..@...>...@...@.
000043b0: e0 00 42 05 e0 00 42 01 e0 00 42 02 e0 00 40 01  ..B...B...B...@.
000043c0: e0 00 40 05 e0 00 3e 02 e0 00 3e 01 e0 00 3c 04  ..@...>...>...<.
000043d0: e0 00 3e 03 e0 00 3e 01 e0 00 40 05 e0 00 40 02  ..>...>...@...@.
000043e0: e0 00 42 05 e0 00 42 01 e0 00 42 03 e0 00 40 04  ..B...B...B...@.
000043f0: e0 00 40 01 e0 00 3e 03 e0 00 3e 04 e0 00 3c 01  ..@...>...>...<.
00004400: e0 00 3e 02 e0 00 3e 01 e0 00 40 05 e0 00 40 02  ..>...>...@...@.
00004410: e0 00 42 01 e0 00 42 05 e0 00 42 07 e0 00 40 00  ..B...B...B...@.
00004420: 80 4c 00 04 e0 00 40 82 04 90 4c 7f 03 80 4c 00  .L....@...L...L.
00004430: 01 e0 00 42 04 e0 00 44 00 90 51 7f 01 e0 00 46  ...B...D..Q....F
00004440: 02 e0 00 48 01 e0 00 4a 04 e0 00 4a 00 80 51 00  ...H...J...J..Q.
00004450: 01 e0 00 48 00 90 53 7f 02 e0 00 40 1d 80 53 00  ...H..S....@..S.
00004460: 0c e0 00 42 04 e0 00 42 00 90 51 7f 01 e0 00 44  ...B...B..Q....D
00004470: 02 e0 00 44 01 e0 00 46 04 e0 00 46 00 80 51 00  ...D...F...F..Q.
00004480: 01 e0 00 46 02 e0 00 44 00 90 52 7f 01 e0 00 42  ...F...D..R....B
00004490: 04 e0 00 42 01 e0 00 40 1f 80 52 00 10 90 4f 7f  ...B...@..R...O.
000044a0: 09 e0 00 42 0b e0 00 42 0c e0 00 44 03 e0 00 44  ...B...B...D...D
000044b0: 06 e0 00 46 03 e0 00 46 04 80 4f 00 01 e0 00 44  ...F...F..O....D
000044c0: 02 e0 00 40 0d 90 51 7f 30 80 51 00 0c e0 00 42  ...@..Q.0.Q....B
000044d0: 04 e0 00 44 00 90 51 7f 01 e0 00 46 02 e0 00 48  ...D..Q....F...H
000044e0: 01 e0 00 4a 04 e0 00 4a 00 90 53 7f 00 80 51 00  ...J...J..S...Q.
000044f0: 01 e0 00 48 02 e0 00 46 01 e0 00 44 04 e0 00 42  ...H...F...D...B
00004500: 01 e0 00 40 1f 80 53 00 10 90 4f 7f 09 e0 00 42  ...@..S...O....B
00004510: 0f e0 00 42 09 e0 00 44 03 e0 00 44 05 e0 00 46  ...B...D...D...F
00004520: 03 e0 00 46 04 e0 00 44 00 80 4f 00 01 e0 00 42  ...F...D..O....B
00004530: 02 e0 00 40 05 e0 00 40 00 e0 00 40 08 90 4c 7f  ...@...@...@..L.
00004540: 30 80 4c 00 10 90 4c 7f 70 80 4c 00 10 90 49 7f  0.L...L.p.L...I.
00004550: 00 90 55 7f 08 80 55 00 28 80 49 00 10 90 5b 7f  ..U...U.(.I...[.
00004560: 00 90 4f 7f 08 80 5b 00 28 80 4f 00 50 90 53 7f  ..O...[.(.O.P.S.
00004570: 30 80 53 00 10 90 56 7f 30 80 56 00 10 90 58 7f  0.S...V.0.V...X.
00004580: 30 80 58 00 10 90 56 7f 30 80 56 00 10 90 53 7f  0.X...V.0.V...S.
00004590: 30 80 53 00 0b e0 00 40 01 e0 00 42 04 e0 00 44  0.S....@...B...D
000045a0: 00 90 51 7f 01 e0 00 46 02 e0 00 48 01 e0 00 4a  ..Q....F...H...J
000045b0: 04 e0 00 4a 00 80 51 00 01 e0 00 48 02 e0 00 46  ...J..Q....H...F
000045c0: 00 90 53 7f 01 e0 00 44 04 e0 00 40 20 80 53 00  ..S....D...@ .S.
000045d0: 10 90 51 7f 09 e0 00 42 0f e0 00 42 08 e0 00 44  ..Q....B...B...D
000045e0: 03 e0 00 44 05 e0 00 46 03 e0 00 46 01 e0 00 46  ...D...F...F...F
000045f0: 04 e0 00 44 00 80 51 00 01 e0 00 42 02 e0 00 40  ...D..Q....B...@
00004600: 0d 90 4f 7f 08 e0 00 42 0c e0 00 42 08 e0 00 44  ..O....B...B...D
00004610: 05 e0 00 44 03 e0 00 46 05 e0 00 46 02 e0 00 46  ...D...F...F...F
00004620: 01 e0 00 44 04 e0 00 42 00 80 4f 00 01 e0 00 42  ...D...B..O....B
00004630: 02 e0 00 40 05 e0 00 40 00 e0 00 40 08 90 4c 7f  ...@...@...@..L.
00004640: 40 90 4a 7f 70 80 4a 00 00 80 4c 00 81 10 90 4e  @.J.p.J...L....N
00004650: 7f 03 80 4e 00 05 90 55 7f 03 80 55 00 05 90 58  ...N...U...U...X
00004660: 7f 2c e0 00 40 04 e0 00 42 01 e0 00 42 03 e0 00  .,..@...B...B...
00004670: 44 04 e0 00 44 01 e0 00 44 03 e0 00 42 04 e0 00  D...D...D...B...
00004680: 42 03 e0 00 40 01 e0 00 40 05 e0 00 3e 02 e0 00  B...@...@...>...
00004690: 3e 05 e0 00 3c 01 e0 00 3e 03 e0 00 3e 05 e0 00  >...<...>...>...
000046a0: 40 03 e0 00 40 05 e0 00 42 03 e0 00 42 05 e0 00  @...@...B...B...
000046b0: 44 03 e0 00 44 04 e0 00 44 01 e0 00 42 02 e0 00  D...D...D...B...
000046c0: 42 01 e0 00 40 04 e0 00 3e 01 e0 00 3e 02 e0 00  B...@...>...>...
000046d0: 3c 01 e0 00 3e 04 e0 00 3e 01 e0 00 40 02 e0 00  <...>...>...@...
000046e0: 40 01 e0 00 42 04 e0 00 42 01 e0 00 44 02 e0 00  @...B...B...D...
000046f0: 44 01 e0 00 44 05 e0 00 42 02 e0 00 42 01 e0 00  D...D...B...B...
00004700: 40 05 e0 00 40 02 e0 00 3e 01 e0 00 40 04 e0 00  @...@...>...@...
00004710: 40 01 e0 00 42 03 e0 00 42 04 e0 00 44 01 e0 00  @...B...B...D...
00004720: 44 02 e0 00 44 01 e0 00 42 04 e0 00 42 01 e0 00  D...D...B...B...
00004730: 40 02 e0 00 3e 01 e0 00 3e 04 e0 00 3c 01 e0 00  @...>...>...<...
00004740: 3e 02 e0 00 3e 01 e0 00 40 04 e0 00 40 01 e0 00  >...>...@...@...
00004750: 42 02 e0 00 42 01 e0 00 44 04 e0 00 44 01 e0 00  B...B...D...D...
00004760: 44 02 e0 00 42 01 e0 00 40 04 e0 00 40 00 80 58  D...B...@...@..X
00004770: 00 01 e0 00 3e 02 e0 00 3c 01 e0 00 3e 05 e0 00  ....>...<...>...
00004780: 3e 03 e0 00 40 05 e0 00 40 03 e0 00 40 0c 90 56  >...@...@...@..V
00004790: 7f 70 80 56 00 10 90 53 7f 30 80 53 00 0c e0 00  .p.V...S.0.S....
000047a0: 42 04 e0 00 44 00 90 51 7f 01 e0 00 46 02 e0 00  B...D..Q....F...
000047b0: 48 01 e0 00 4a 04 e0 00 4a 00 80 51 00 01 e0 00  H...J...J..Q....
000047c0: 48 02 e0 00 46 00 90 53 7f 01 e0 00 44 04 e0 00  H...F..S....D...
000047d0: 40 03 e0 00 40 00 e0 00 40 5d 80 53 00 10 90 51  @...@...@].S...Q
000047e0: 7f 30 80 51 00 0c e0 00 40 04 e0 00 42 00 90 4f  .0.Q....@...B..O
000047f0: 7f 01 e0 00 44 02 e0 00 44 01 e0 00 46 04 e0 00  ....D...D...F...
00004800: 46 00 80 4f 00 01 e0 00 46 02 e0 00 44 00 90 50  F..O....F...D..P
00004810: 7f 01 e0 00 42 04 e0 00 40 20 80 50 00 10 90 4c  ....B...@ .P...L
00004820: 7f 30 80 4c 00 10 90 47 7f 30 80 47 00 10 90 45  .0.L...G.0.G...E
00004830: 7f 48 e0 00 40 08 e0 00 3e 09 e0 00 3e 08 e0 00  .H..@...>...>...
00004840: 3c 0a e0 00 3c 08 e0 00 3a 06 e0 00 3c 02 e0 00  <...<...:...<...
00004850: 3c 00 80 45 00 01 e0 00 3e 04 e0 00 3e 00 90 43  <..E....>...>..C
00004860: 7f 01 e0 00 40 02 e0 00 40 05 e0 00 40 28 80 43  ....@...@...@(.C
00004870: 00 10 90 44 7f 70 80 44 00 0c e0 00 40 04 e0 00  ...D.p.D....@...
00004880: 42 00 90 44 7f 01 e0 00 44 02 e0 00 44 01 e0 00  B..D....D...D...
00004890: 44 04 e0 00 42 01 e0 00 42 02 e0 00 40 01 e0 00  D...B...B...@...
000048a0: 3e 04 e0 00 3e 01 e0 00 3c 02 e0 00 3e 01 e0 00  >...>...<...>...
000048b0: 40 04 e0 00 42 01 e0 00 44 02 e0 00 44 01 e0 00  @...B...D...D...
000048c0: 44 04 e0 00 42 01 e0 00 40 02 e0 00 3e 01 e0 00  D...B...@...>...
000048d0: 3c 05 e0 00 40 02 e0 00 42 01 e0 00 42 04 e0 00  <...@...B...B...
000048e0: 40 00 80 44 00 03 e0 00 40 05 e0 00 40 03 e0 00  @..D....@...@...
000048f0: 40 05 90 40 7f 70 80 40 00 50 90 40 7f 08 90 44  @..@.p.@.P.@...D
00004900: 7f 04 90 4a 7f 81 34 80 4a 00 00 80 44 00 30 80  ...J..4.J...D.0.
00004910: 40 00 00 ff 7f 1c 24 24 00 08 00 00 00 00 00 00  @.....$$........
00004920: 14 ff 00 00 00 00 00 00 21 00 00 01 38 f0 00 00  ........!...8...
00004930: 0c 00 00 ff 7f 05 24 24 00 01 00 00 ff 7f 06 24  ......$$.......$
00004940: 24 00 06 04 04 00 ff 7f 05 24 24 00 02 00 01 ff  $........$$.....
00004950: 2f 00 4d 54 72 6b 00 00 49 a1 00 ff 00 02 00 03  /.MTrk..I.......
00004960: 00 ff 03 0f 47 75 69 74 61 72 20 32 20 28 52 2e  ....Guitar 2 (R.
00004970: 43 2e 29 92 00 91 34 7f 01 91 3b 7f 6f 81 34 00  C.)...4...;.o.4.
00004980: 01 81 3b 00 0b 91 34 7f 30 81 34 00 14 91 34 7f  ..;...4.0.4...4.
00004990: 00 91 3d 7f 70 81 3d 00 00 81 34 00 10 91 34 7f  ..=.p.=...4...4.
000049a0: 30 81 34 00 11 91 34 7f 00 91 3b 7f 70 81 3b 00  0.4...4...;.p.;.
000049b0: 00 81 34 00 0f 91 34 7f 30 81 34 00 13 91 34 7f  ..4...4.0.4...4.
000049c0: 00 91 3d 7f 70 81 3d 00 00 81 34 00 10 91 34 7f  ..=.p.=...4...4.
000049d0: 30 81 34 00 0e 91 34 7f 00 91 3b 7f 70 81 3b 00  0.4...4...;.p.;.
000049e0: 00 81 34 00 12 91 34 7f 30 81 34 00 09 91 34 7f  ..4...4.0.4...4.
000049f0: 00 91 3d 7f 70 81 3d 00 00 81 34 00 17 91 34 7f  ..=.p.=...4...4.
00004a00: 30 81 34 00 09 91 3b 7f 05 91 34 7f 6b 81 3b 00  0.4...;...4.k.;.
00004a10: 05 81 34 00 10 91 34 7f 30 81 34 00 0b 91 3d 7f  ..4...4.0.4...=.
00004a20: 04 91 34 7f 6c 81 3d 00 04 81 34 00 0c 91 34 7f  ..4.l.=...4...4.
00004a30: 30 81 34 00 15 91 39 7f 00 91 40 7f 70 81 40 00  0.4...9...@.p.@.
00004a40: 00 81 39 00 0b 91 39 7f 00 91 40 7f 30 81 40 00  ..9...9...@.0.@.
00004a50: 00 81 39 00 10 91 40 7f 05 91 39 7f 6b 81 40 00  ..9...@...9.k.@.
00004a60: 05 81 39 00 12 91 39 7f 00 91 40 7f 30 81 40 00  ..9...9...@.0.@.
00004a70: 00 81 39 00 0e 91 39 7f 02 91 43 7f 6e 81 39 00  ..9...9...C.n.9.
00004a80: 02 81 43 00 09 91 39 7f 05 91 43 7f 2b 81 39 00  ..C...9...C.+.9.
00004a90: 05 81 43 00 0b 91 39 7f 04 91 42 7f 6c 81 39 00  ..C...9...B.l.9.
00004aa0: 04 81 42 00 10 91 39 7f 30 81 39 00 51 91 47 7f  ..B...9.0.9.Q.G.
00004ab0: 20 81 47 00 1a e1 00 40 01 91 4f 7f 04 e1 00 42   .G....@..O....B
00004ac0: 08 e1 00 42 04 e1 00 44 07 e1 00 44 08 e1 00 46  ...B...D...D...F
00004ad0: 06 e1 00 46 07 e1 00 48 08 e1 00 48 03 e1 00 48  ...F...H...H...H
00004ae0: 01 e1 00 46 04 e1 00 44 00 81 4f 00 01 e1 00 44  ...F...D..O....D
00004af0: 02 e1 00 42 01 e1 00 40 07 91 50 7f 30 81 50 00  ...B...@..P.0.P.
00004b00: 0d 91 4c 7f 30 81 4c 00 11 91 47 7f 30 81 47 00  ..L.0.L...G.0.G.
00004b10: 10 91 4a 7f 10 81 4a 00 07 e1 00 42 00 91 4c 7f  ..J...J....B..L.
00004b20: 01 e1 00 42 02 e1 00 44 01 e1 00 44 04 e1 00 44  ...B...D...D...D
00004b30: 01 e1 00 42 02 e1 00 42 01 e1 00 40 05 e1 00 40  ...B...B...@...@
00004b40: 02 e1 00 3e 01 e1 00 3e 04 e1 00 3c 01 e1 00 3e  ...>...>...<...>
00004b50: 02 e1 00 3e 01 e1 00 40 04 e1 00 42 01 e1 00 42  ...>...@...B...B
00004b60: 02 e1 00 44 01 e1 00 44 04 e1 00 44 01 e1 00 42  ...D...D...D...B
00004b70: 02 e1 00 40 01 e1 00 3e 04 e1 00 3e 01 e1 00 3c  ...@...>...>...<
00004b80: 02 e1 00 3a 01 e1 00 38 04 e1 00 3a 01 e1 00 3c  ...:...8...:...<
00004b90: 02 e1 00 3e 01 e1 00 3e 04 e1 00 40 01 e1 00 42  ...>...>...@...B
00004ba0: 02 e1 00 44 01 e1 00 44 04 e1 00 44 01 e1 00 42  ...D...D...D...B
00004bb0: 02 e1 00 42 01 e1 00 40 04 e1 00 3e 01 e1 00 3e  ...B...@...>...>
00004bc0: 02 e1 00 3c 01 e1 00 3e 05 e1 00 3e 02 e1 00 40  ...<...>...>...@
00004bd0: 05 e1 00 40 01 e1 00 42 03 e1 00 42 04 e1 00 42  ...@...B...B...B
00004be0: 03 e1 00 40 01 e1 00 40 04 e1 00 3e 03 e1 00 3e  ...@...@...>...>
00004bf0: 01 e1 00 3c 04 e1 00 3e 01 e1 00 3e 03 e1 00 40  ...<...>...>...@
00004c00: 04 e1 00 40 01 e1 00 42 02 e1 00 42 05 e1 00 44  ...@...B...B...D
00004c10: 01 e1 00 44 02 e1 00 44 05 e1 00 42 03 e1 00 42  ...D...D...B...B
00004c20: 05 e1 00 40 03 81 4c 00 0d 91 4a 7f 30 81 4a 00  ...@..L...J.0.J.
00004c30: 11 91 47 7f 30 81 47 00 0b 91 45 7f 30 81 45 00  ..G.0.G...E.0.E.
00004c40: 0f e1 00 40 01 e1 00 42 05 e1 00 42 00 91 43 7f  ...@...B...B..C.
00004c50: 02 e1 00 44 05 e1 00 44 01 e1 00 44 02 e1 00 42  ...D...D...D...B
00004c60: 01 e1 00 40 04 e1 00 3e 01 e1 00 3c 02 e1 00 3a  ...@...>...<...:
00004c70: 00 81 43 00 01 e1 00 3c 00 91 44 7f 04 e1 00 3e  ..C....<..D....>
00004c80: 01 e1 00 40 02 e1 00 42 01 e1 00 44 04 e1 00 44  ...@...B...D...D
00004c90: 01 e1 00 44 02 e1 00 42 01 e1 00 42 04 e1 00 40  ...D...B...B...@
00004ca0: 00 81 44 00 01 e1 00 3e 02 e1 00 3e 01 e1 00 3c  ..D....>...>...<
00004cb0: 04 e1 00 3c 01 91 43 7f 02 e1 00 3e 01 e1 00 40  ...<..C....>...@
00004cc0: 04 e1 00 42 01 e1 00 44 02 e1 00 44 01 e1 00 42  ...B...D...D...B
00004cd0: 04 e1 00 40 01 e1 00 3e 02 e1 00 3c 01 e1 00 3a  ...@...>...<...:
00004ce0: 04 e1 00 3c 01 e1 00 3e 02 e1 00 40 01 e1 00 42  ...<...>...@...B
00004cf0: 04 e1 00 44 01 e1 00 44 02 e1 00 44 01 e1 00 42  ...D...D...D...B
00004d00: 04 e1 00 40 01 e1 00 3e 02 e1 00 3c 01 e1 00 3e  ...@...>...<...>
00004d10: 05 e1 00 3e 02 e1 00 40 0e 81 43 00 0b 91 4c 7f  ...>...@..C...L.
00004d20: 70 81 4c 00 15 91 4a 7f 2f 81 4a 00 11 91 4c 7f  p.L...J./.J...L.
00004d30: 30 81 4c 00 0b e1 00 40 04 e1 00 42 01 91 43 7f  0.L....@...B..C.
00004d40: 02 e1 00 42 05 e1 00 44 03 e1 00 44 01 e1 00 44  ...B...D...D...D
00004d50: 04 e1 00 42 03 e1 00 42 00 81 43 00 01 e1 00 40  ...B...B..C....@
00004d60: 04 e1 00 40 01 e1 00 3e 00 91 44 7f 03 e1 00 3e  ...@...>..D....>
00004d70: 04 e1 00 3c 01 e1 00 3e 02 e1 00 3e 01 e1 00 40  ...<...>...>...@
00004d80: 04 e1 00 40 03 e1 00 42 01 e1 00 42 00 81 44 00  ...@...B...B..D.
00004d90: 04 e1 00 44 00 91 43 7f 01 e1 00 44 02 e1 00 44  ...D..C....D...D
00004da0: 01 e1 00 42 04 e1 00 42 01 e1 00 40 02 e1 00 3e  ...B...B...@...>
00004db0: 01 e1 00 3e 04 e1 00 3c 01 e1 00 3e 02 e1 00 3e  ...>...<...>...>
00004dc0: 01 e1 00 40 04 e1 00 40 03 e1 00 42 01 e1 00 42  ...@...@...B...B
00004dd0: 04 e1 00 44 01 e1 00 44 02 e1 00 44 01 e1 00 42  ...D...D...D...B
00004de0: 04 e1 00 40 01 e1 00 3e 02 e1 00 3c 01 e1 00 3e  ...@...>...<...>
00004df0: 04 e1 00 3e 01 e1 00 40 02 e1 00 42 01 e1 00 42  ...>...@...B...B
00004e00: 04 e1 00 44 01 e1 00 44 02 e1 00 46 01 e1 00 46  ...D...D...F...F
00004e10: 04 e1 00 46 00 81 43 00 01 e1 00 44 02 e1 00 42  ...F..C....D...B
00004e20: 01 e1 00 40 0d 91 4c 7f 3f e1 00 40 04 e1 00 42  ...@..L.?..@...B
00004e30: 08 e1 00 42 08 e1 00 44 08 e1 00 44 07 e1 00 44  ...B...D...D...D
00004e40: 08 e1 00 42 06 e1 00 42 07 e1 00 40 08 e1 00 40  ...B...B...@...@
00004e50: 04 e1 00 3e 07 e1 00 3e 08 e1 00 3c 06 e1 00 3e  ...>...>...<...>
00004e60: 03 e1 00 3e 05 e1 00 40 03 e1 00 40 07 e1 00 42  ...>...@...@...B
00004e70: 05 e1 00 42 03 e1 00 44 05 e1 00 44 04 e1 00 44  ...B...D...D...D
00004e80: 07 e1 00 42 05 e1 00 42 08 81 4c 00 03 e1 00 40  ...B...B..L....@
00004e90: 30 91 39 7f 05 91 40 7f 68 81 40 00 00 81 39 00  0.9...@.h.@...9.
00004ea0: 10 91 39 7f 30 81 39 00 11 91 39 7f 03 91 42 7f  ..9.0.9...9...B.
00004eb0: 6c 81 42 00 00 81 39 00 10 91 39 7f 30 81 39 00  l.B...9...9.0.9.
00004ec0: 13 91 39 7f 01 91 43 7f 6c 81 43 00 00 81 39 00  ..9...C.l.C...9.
00004ed0: 10 91 39 7f 30 81 39 00 11 91 39 7f 03 91 42 7f  ..9.0.9...9...B.
00004ee0: 6c 81 42 00 00 81 39 00 10 91 39 7f 30 81 39 00  l.B...9...9.0.9.
00004ef0: 10 91 39 7f 01 91 40 7f 6f 81 40 00 00 81 39 00  ..9...@.o.@...9.
00004f00: 10 91 39 7f 30 81 39 00 11 91 39 7f 02 91 42 7f  ..9.0.9...9...B.
00004f10: 6d 81 42 00 00 81 39 00 10 91 39 7f 30 81 39 00  m.B...9...9.0.9.
00004f20: 0c 91 39 7f 05 91 43 7f 6f 81 43 00 00 81 39 00  ..9...C.o.C...9.
00004f30: 10 91 39 7f 30 81 39 00 10 91 39 7f 01 91 42 7f  ..9.0.9...9...B.
00004f40: 6f 81 42 00 00 81 39 00 10 91 39 7f 30 81 39 00  o.B...9...9.0.9.
00004f50: 81 10 e1 00 40 00 91 4f 7f 03 e1 00 42 08 e1 00  ....@..O....B...
00004f60: 42 06 e1 00 44 08 e1 00 44 07 e1 00 46 08 e1 00  B...D...D...F...
00004f70: 46 04 e1 00 48 08 e1 00 48 05 e1 00 46 00 81 4f  F...H...H...F..O
00004f80: 00 02 e1 00 42 05 91 50 7f 04 e1 00 40 2c 81 50  ....B..P....@,.P
00004f90: 00 0b e1 00 40 05 91 4f 7f 08 e1 00 42 09 e1 00  ....@..O....B...
00004fa0: 42 0a e1 00 44 08 e1 00 44 09 e1 00 46 0c e1 00  B...D...D...F...
00004fb0: 46 03 81 4f 00 01 e1 00 46 04 e1 00 44 00 91 50  F..O....F...D..P
00004fc0: 7f 01 e1 00 42 02 e1 00 42 01 e1 00 40 05 e1 00  ....B...B...@...
00004fd0: 40 27 81 50 00 10 91 4f 7f 70 81 4f 00 10 91 4c  @'.P...O.p.O...L
00004fe0: 7f 30 81 4c 00 10 91 4a 7f 30 81 4a 00 0c e1 00  .0.L...J.0.J....
00004ff0: 40 04 e1 00 42 00 91 43 7f 01 e1 00 42 02 e1 00  @...B..C....B...
00005000: 44 01 e1 00 44 04 e1 00 46 01 e1 00 46 02 e1 00  D...D...F...F...
00005010: 46 01 e1 00 44 04 e1 00 42 01 e1 00 42 02 e1 00  F...D...B...B...
00005020: 40 00 81 43 00 01 e1 00 40 04 e1 00 3e 00 91 44  @..C....@...>..D
00005030: 7f 01 e1 00 3c 02 e1 00 3e 01 e1 00 40 04 e1 00  ....<...>...@...
00005040: 40 01 e1 00 42 02 e1 00 44 01 e1 00 44 04 e1 00  @...B...D...D...
00005050: 44 01 e1 00 42 02 e1 00 42 00 81 44 00 01 e1 00  D...B...B..D....
00005060: 40 04 e1 00 3e 00 91 43 7f 01 e1 00 3c 02 e1 00  @...>..C....<...
00005070: 3c 01 e1 00 3e 04 e1 00 40 03 e1 00 42 01 e1 00  <...>...@...B...
00005080: 42 04 e1 00 44 03 e1 00 44 01 e1 00 44 04 e1 00  B...D...D...D...
00005090: 42 01 e1 00 40 02 e1 00 3e 01 e1 00 3c 04 e1 00  B...@...>...<...
000050a0: 3e 01 e1 00 40 02 e1 00 40 05 e1 00 42 00 e1 00  >...@...@...B...
000050b0: 42 01 e1 00 44 02 e1 00 44 01 e1 00 44 04 e1 00  B...D...D...D...
000050c0: 42 01 e1 00 42 02 e1 00 40 01 e1 00 3e 04 e1 00  B...B...@...>...
000050d0: 3e 01 e1 00 3c 02 e1 00 3e 01 e1 00 3e 04 81 43  >...<...>...>..C
000050e0: 00 01 e1 00 40 0f 91 4c 7f 81 70 81 4c 00 10 91  ....@..L..p.L...
000050f0: 4a 7f 30 81 4a 00 10 91 4c 7f 30 81 4c 00 10 e1  J.0.J...L.0.L...
00005100: 00 40 00 91 43 7f 01 e1 00 42 03 e1 00 42 04 e1  .@..C....B...B..
00005110: 00 44 03 e1 00 44 01 e1 00 44 04 e1 00 42 01 e1  .D...D...D...B..
00005120: 00 42 02 e1 00 40 00 81 43 00 05 e1 00 40 00 91  .B...@..C....@..
00005130: 44 7f 01 e1 00 3e 02 e1 00 3e 01 e1 00 3c 04 e1  D....>...>...<..
00005140: 00 3e 01 e1 00 3e 02 e1 00 40 01 e1 00 40 05 e1  .>...>...@...@..
00005150: 00 42 02 e1 00 42 00 81 44 00 01 e1 00 44 04 e1  .B...B..D....D..
00005160: 00 44 00 91 43 7f 01 e1 00 44 02 e1 00 42 01 e1  .D..C....D...B..
00005170: 00 42 04 e1 00 40 01 e1 00 40 02 e1 00 3e 01 e1  .B...@...@...>..
00005180: 00 3e 04 e1 00 3c 01 e1 00 3e 02 e1 00 3e 01 e1  .>...<...>...>..
00005190: 00 40 04 e1 00 42 01 e1 00 42 02 e1 00 44 01 e1  .@...B...B...D..
000051a0: 00 44 04 e1 00 44 01 e1 00 42 02 e1 00 42 01 e1  .D...D...B...B..
000051b0: 00 40 04 e1 00 3e 01 e1 00 3e 02 e1 00 3c 01 e1  .@...>...>...<..
000051c0: 00 3e 04 e1 00 3e 01 e1 00 40 02 e1 00 40 05 e1  .>...>...@...@..
000051d0: 00 42 01 e1 00 42 02 e1 00 44 01 e1 00 44 04 e1  .B...B...D...D..
000051e0: 00 44 00 81 43 00 01 e1 00 42 02 e1 00 40 01 e1  .D..C....B...@..
000051f0: 00 3e 04 e1 00 3c 01 e1 00 3e 03 e1 00 3e 04 e1  .>...<...>...>..
00005200: 00 40 00 91 4c 7f 70 81 4c 00 10 91 39 7f 30 81  .@..L.p.L...9.0.
00005210: 39 00 10 91 3a 7f 30 81 3a 00 10 91 3b 7f 70 81  9...:.0.:...;.p.
00005220: 3b 00 0c 91 3b 7f 04 91 47 7f 03 91 3f 7f 00 91  ;...;...G...?...
00005230: 45 7f 69 81 3b 00 04 81 47 00 03 81 3f 00 00 81  E.i.;...G...?...
00005240: 45 00 0d 91 4b 7f 00 91 47 7f 03 91 3f 7f 00 91  E...K...G...?...
00005250: 45 7f 6d 81 47 00 00 81 4b 00 03 81 3f 00 00 81  E.m.G...K...?...
00005260: 45 00 0d 91 45 7f 01 91 4b 7f 00 91 47 7f 02 91  E...E...K...G...
00005270: 3f 7f 6d 81 45 00 01 81 4b 00 00 81 47 00 02 81  ?.m.E...K...G...
00005280: 3f 00 0d 91 47 7f 01 91 3f 7f 02 91 4b 7f 00 91  ?...G...?...K...
00005290: 45 7f 6d 81 47 00 01 81 3f 00 02 81 4b 00 00 81  E.m.G...?...K...
000052a0: 45 00 09 91 3f 7f 00 91 4b 7f 00 91 47 7f 04 91  E...?...K...G...
000052b0: 45 7f 6c 81 47 00 00 81 3f 00 00 81 4b 00 04 81  E.l.G...?...K...
000052c0: 45 00 13 91 39 7f 81 10 81 39 00 30 91 3c 7f 30  E...9....9.0.<.0
000052d0: 81 3c 00 10 91 3d 7f 30 81 3d 00 09 91 40 7f 30  .<...=.0.=...@.0
000052e0: 81 40 00 14 91 43 7f 30 81 43 00 10 91 40 7f 30  .@...C.0.C...@.0
000052f0: 81 40 00 11 91 43 7f 30 81 43 00 0b 91 40 7f 30  .@...C.0.C...@.0
00005300: 81 40 00 17 91 37 7f 01 e1 00 40 05 e1 00 42 08  .@...7....@...B.
00005310: e1 00 42 08 e1 00 44 07 e1 00 44 08 e1 00 46 08  ..B...D...D...F.
00005320: e1 00 46 03 e1 00 46 01 e1 00 44 04 e1 00 42 01  ..F...F...D...B.
00005330: e1 00 42 02 e1 00 40 00 81 37 00 05 91 38 7f 30  ..B...@..7...8.0
00005340: 81 38 00 0c 91 34 7f 81 10 81 34 00 34 91 45 7f  .8...4....4.4.E.
00005350: 04 91 47 7f 04 81 45 00 38 91 4a 7f 6c 81 47 00  ..G...E.8.J.l.G.
00005360: 04 81 4a 00 11 91 45 7f 08 91 47 7f 00 81 45 00  ..J...E...G...E.
00005370: 38 91 4a 7f 70 81 4a 00 00 81 47 00 12 91 47 7f  8.J.p.J...G...G.
00005380: 08 91 45 7f 00 81 47 00 28 81 45 00 09 91 43 7f  ..E...G.(.E...C.
00005390: 30 81 43 00 15 91 40 7f 30 81 40 00 07 e1 00 40  0.C...@.0.@....@
000053a0: 01 e1 00 42 03 e1 00 42 00 91 43 7f 04 e1 00 44  ...B...B..C....D
000053b0: 03 e1 00 44 01 e1 00 44 00 81 43 00 04 e1 00 42  ...D...D..C....B
000053c0: 00 91 44 7f 01 e1 00 40 02 e1 00 3e 01 e1 00 3c  ..D....@...>...<
000053d0: 04 e1 00 3a 00 81 44 00 01 e1 00 3c 02 e1 00 3e  ...:..D....<...>
000053e0: 00 91 43 7f 01 e1 00 3e 04 e1 00 40 01 e1 00 40  ..C....>...@...@
000053f0: 02 e1 00 42 01 e1 00 44 04 e1 00 44 01 e1 00 44  ...B...D...D...D
00005400: 02 e1 00 42 01 e1 00 40 04 e1 00 40 01 e1 00 3e  ...B...@...@...>
00005410: 02 e1 00 3c 01 e1 00 3e 04 e1 00 3e 01 e1 00 40  ...<...>...>...@
00005420: 03 e1 00 40 04 e1 00 42 01 e1 00 42 02 e1 00 42  ...@...B...B...B
00005430: 01 e1 00 40 04 e1 00 40 01 e1 00 3e 02 e1 00 3e  ...@...@...>...>
00005440: 01 e1 00 3c 04 e1 00 3e 01 e1 00 40 02 e1 00 42  ...<...>...@...B
00005450: 01 e1 00 44 04 e1 00 44 01 e1 00 44 02 e1 00 42  ...D...D...D...B
00005460: 01 e1 00 40 04 e1 00 40 01 e1 00 3e 02 e1 00 3c  ...@...@...>...<
00005470: 01 e1 00 3e 04 e1 00 40 01 e1 00 40 02 e1 00 42  ...>...@...@...B
00005480: 01 e1 00 44 04 e1 00 44 01 e1 00 44 03 e1 00 42  ...D...D...D...B
00005490: 04 e1 00 42 03 e1 00 40 00 81 43 00 09 91 4c 7f  ...B...@..C...L.
000054a0: 70 81 4c 00 10 91 39 7f 30 81 39 00 15 91 3a 7f  p.L...9.0.9...:.
000054b0: 30 81 3a 00 10 91 3b 7f 70 81 3b 00 0b 91 45 7f  0.:...;.p.;...E.
000054c0: 05 91 4e 7f 02 91 47 7f 69 81 45 00 05 81 4e 00  ..N...G.i.E...N.
000054d0: 02 81 47 00 10 91 3f 7f 70 81 3f 00 0d 91 3b 7f  ..G...?.p.?...;.
000054e0: 03 91 34 7f 6d 81 3b 00 03 81 34 00 09 91 34 7f  ..4.m.;...4...4.
000054f0: 30 81 34 00 10 91 3d 7f 00 91 34 7f 70 81 34 00  0.4...=...4.p.4.
00005500: 00 81 3d 00 17 91 34 7f 30 81 34 00 09 91 34 7f  ..=...4.0.4...4.
00005510: 04 91 3e 7f 6c 81 34 00 04 81 3e 00 10 91 34 7f  ..>.l.4...>...4.
00005520: 30 81 34 00 10 91 34 7f 01 91 3d 7f 6f 81 34 00  0.4...4...=.o.4.
00005530: 01 81 3d 00 0b 91 34 7f 30 81 34 00 10 91 39 7f  ..=...4.0.4...9.
00005540: 07 91 40 7f 69 81 39 00 07 81 40 00 0d 91 39 7f  ..@.i.9...@...9.
00005550: 30 81 39 00 0c 91 42 7f 07 91 39 7f 69 81 42 00  0.9...B...9.i.B.
00005560: 07 81 39 00 10 91 39 7f 30 81 39 00 09 91 39 7f  ..9...9.0.9...9.
00005570: 07 91 43 7f 69 81 39 00 07 81 43 00 0e 91 39 7f  ..C.i.9...C...9.
00005580: 30 81 39 00 0b 91 42 7f 05 91 39 7f 81 0b 81 42  0.9...B...9....B
00005590: 00 05 81 39 00 81 2b 91 4a 7f 08 81 4a 00 05 e1  ...9..+.J...J...
000055a0: 00 40 00 91 4c 7f 03 e1 00 42 05 e1 00 42 03 e1  .@..L....B...B..
000055b0: 00 44 05 e1 00 44 03 e1 00 44 05 e1 00 42 03 e1  .D...D...D...B..
000055c0: 00 42 05 e1 00 40 03 e1 00 40 05 e1 00 3e 03 e1  .B...@...@...>..
000055d0: 00 3e 05 e1 00 3c 03 e1 00 3e 05 e1 00 3e 03 e1  .>...<...>...>..
000055e0: 00 40 05 e1 00 40 07 e1 00 42 03 e1 00 42 05 e1  .@...@...B...B..
000055f0: 00 44 03 e1 00 44 06 e1 00 44 03 e1 00 42 05 e1  .D...D...D...B..
00005600: 00 42 03 e1 00 40 05 e1 00 40 03 e1 00 3e 05 e1  .B...@...@...>..
00005610: 00 3e 03 e1 00 3c 04 e1 00 3e 03 e1 00 3e 05 e1  .>...<...>...>..
00005620: 00 40 03 e1 00 40 01 e1 00 42 05 e1 00 42 03 e1  .@...@...B...B..
00005630: 00 44 05 e1 00 44 02 e1 00 44 01 e1 00 42 04 e1  .D...D...D...B..
00005640: 00 42 01 e1 00 40 02 e1 00 40 05 e1 00 3e 01 e1  .B...@...@...>..
00005650: 00 3e 02 e1 00 3c 01 e1 00 3c 04 e1 00 3a 01 e1  .>...<...<...:..
00005660: 00 3c 03 e1 00 3c 04 e1 00 3e 01 e1 00 3e 03 e1  .<...<...>...>..
00005670: 00 40 04 e1 00 40 01 e1 00 42 03 e1 00 42 04 e1  .@...@...B...B..
00005680: 00 44 01 e1 00 44 03 e1 00 46 04 e1 00 46 01 e1  .D...D...F...F..
00005690: 00 46 02 e1 00 44 01 e1 00 44 05 e1 00 42 02 e1  .F...D...D...B..
000056a0: 00 42 01 e1 00 40 04 e1 00 40 01 e1 00 3e 02 e1  .B...@...@...>..
000056b0: 00 3e 05 e1 00 3c 01 e1 00 3c 02 e1 00 3a 01 e1  .>...<...<...:..
000056c0: 00 3c 04 e1 00 3c 01 e1 00 3e 02 e1 00 3e 01 e1  .<...<...>...>..
000056d0: 00 40 05 e1 00 40 02 e1 00 42 01 e1 00 42 04 e1  .@...@...B...B..
000056e0: 00 44 01 e1 00 44 02 e1 00 44 05 e1 00 42 03 e1  .D...D...D...B..
000056f0: 00 42 01 e1 00 40 05 e1 00 40 02 e1 00 3e 05 e1  .B...@...@...>..
00005700: 00 3e 03 e1 00 3c 01 e1 00 3e 05 e1 00 3e 02 e1  .>...<...>...>..
00005710: 00 40 05 e1 00 40 01 e1 00 42 03 e1 00 42 04 e1  .@...@...B...B..
00005720: 00 44 03 e1 00 44 01 e1 00 44 04 e1 00 42 01 e1  .D...D...D...B..
00005730: 00 42 02 e1 00 40 01 e1 00 40 04 e1 00 3e 01 e1  .B...@...@...>..
00005740: 00 3e 02 e1 00 3c 01 e1 00 3c 04 e1 00 3a 01 e1  .>...<...<...:..
00005750: 00 3c 02 e1 00 3e 01 e1 00 3e 04 e1 00 40 01 e1  .<...>...>...@..
00005760: 00 42 02 e1 00 42 01 e1 00 44 04 e1 00 46 01 e1  .B...B...D...F..
00005770: 00 46 02 e1 00 46 01 e1 00 44 04 e1 00 44 01 e1  .F...F...D...D..
00005780: 00 42 02 e1 00 40 01 e1 00 40 04 e1 00 3e 01 e1  .B...@...@...>..
00005790: 00 3e 02 e1 00 3c 05 e1 00 3e 03 e1 00 3e 06 e1  .>...<...>...>..
000057a0: 00 40 18 81 4c 00 2b 91 4f 7f 0d e1 00 40 10 e1  .@..L.+.O....@..
000057b0: 00 42 1b e1 00 42 15 e1 00 44 0f e1 00 44 09 e1  .B...B...D...D..
000057c0: 00 46 03 e1 00 46 05 e1 00 48 03 e1 00 48 00 81  .F...F...H...H..
000057d0: 4f 00 05 e1 00 46 02 e1 00 44 01 e1 00 42 04 e1  O....F...D...B..
000057e0: 00 40 0b 91 4f 7f 0d e1 00 42 03 e1 00 42 06 e1  .@..O....B...B..
000057f0: 00 44 03 e1 00 44 07 e1 00 46 05 e1 00 46 04 e1  .D...D...F...F..
00005800: 00 48 05 e1 00 48 02 81 4f 00 01 e1 00 48 04 e1  .H...H..O....H..
00005810: 00 46 01 e1 00 44 02 e1 00 42 01 e1 00 40 05 91  .F...D...B...@..
00005820: 50 7f 70 81 50 00 81 0b 91 45 7f 08 91 47 7f 00  P.p.P....E...G..
00005830: 81 45 00 28 81 47 00 15 91 4a 7f 30 81 4a 00 0b  .E.(.G...J.0.J..
00005840: 91 47 7f 08 81 47 00 07 91 45 7f 28 81 45 00 09  .G...G...E.(.E..
00005850: 91 43 7f 30 81 43 00 14 91 40 7f 30 81 40 00 13  .C.0.C...@.0.@..
00005860: 91 43 7f 39 91 44 7f 07 81 43 00 29 81 44 00 15  .C.9.D...C.).D..
00005870: 91 4a 7f 30 81 4a 00 12 91 39 7f 00 91 40 7f 70  .J.0.J...9...@.p
00005880: 81 40 00 00 81 39 00 10 91 39 7f 30 81 39 00 0d  .@...9...9.0.9..
00005890: 91 39 7f 01 91 42 7f 6f 81 39 00 01 81 42 00 12  .9...B.o.9...B..
000058a0: 91 39 7f 30 81 39 00 09 91 39 7f 05 91 43 7f 6b  .9.0.9...9...C.k
000058b0: 81 39 00 05 81 43 00 12 91 39 7f 30 81 39 00 0d  .9...C...9.0.9..
000058c0: 91 42 7f 01 91 39 7f 6f 81 42 00 01 81 39 00 0b  .B...9.o.B...9..
000058d0: 91 39 7f 30 81 39 00 14 91 39 7f 03 91 40 7f 6d  .9.0.9...9...@.m
000058e0: 81 39 00 03 81 40 00 0e 91 39 7f 30 81 39 00 0f  .9...@...9.0.9..
000058f0: 91 42 7f 03 91 39 7f 6d 81 42 00 03 81 39 00 09  .B...9.m.B...9..
00005900: 91 42 7f 04 91 39 7f 2c 81 42 00 04 81 39 00 0c  .B...9.,.B...9..
00005910: 91 39 7f 00 91 43 7f 70 81 43 00 00 81 39 00 10  .9...C.p.C...9..
00005920: 91 43 7f 04 91 39 7f 2c 81 43 00 04 81 39 00 10  .C...9.,.C...9..
00005930: 91 39 7f 03 91 42 7f 6d 81 39 00 03 81 42 00 0d  .9...B.m.9...B..
00005940: 91 39 7f 00 91 42 7f 30 81 42 00 00 81 39 00 11  .9...B.0.B...9..
00005950: 91 39 7f 02 91 40 7f 69 81 40 00 05 81 39 00 10  .9...@.i.@...9..
00005960: 91 4c 7f 30 81 4c 00 0b 91 51 7f 08 91 53 7f 00  .L.0.L...Q...S..
00005970: 81 51 00 68 81 53 00 15 91 51 7f 03 91 53 7f 05  .Q.h.S...Q...S..
00005980: 81 51 00 63 81 53 00 14 91 51 7f 30 81 51 00 13  .Q.c.S...Q.0.Q..
00005990: 91 4f 7f 30 81 4f 00 82 0d 91 51 7f 10 91 53 7f  .O.0.O....Q...S.
000059a0: 00 81 51 00 60 81 53 00 10 91 4f 7f 30 81 4f 00  ..Q.`.S...O.0.O.
000059b0: 10 91 51 7f 30 81 51 00 10 91 4c 7f 30 81 4c 00  ..Q.0.Q...L.0.L.
000059c0: 10 91 4f 7f 30 81 4f 00 10 91 4f 7f 01 e1 00 40  ..O.0.O...O....@
000059d0: 0a e1 00 42 15 e1 00 42 13 e1 00 44 15 e1 00 44  ...B...B...D...D
000059e0: 0c e1 00 46 08 e1 00 46 0c e1 00 48 08 e1 00 48  ...F...F...H...H
000059f0: 04 e1 00 48 04 e1 00 46 00 81 4f 00 01 e1 00 44  ...H...F..O....D
00005a00: 02 e1 00 42 01 e1 00 40 87 44 91 39 7f 81 10 81  ...B...@.D.9....
00005a10: 39 00 30 91 3c 7f 30 81 3c 00 10 91 3d 7f 30 81  9.0.<.0.<...=.0.
00005a20: 3d 00 10 91 40 7f 30 81 40 00 10 91 43 7f 30 81  =...@.0.@...C.0.
00005a30: 43 00 10 91 40 7f 30 81 40 00 10 91 43 7f 30 81  C...@.0.@...C.0.
00005a40: 43 00 10 91 40 7f 30 81 40 00 0c e1 00 40 04 91  C...@.0.@....@..
00005a50: 37 7f 01 e1 00 42 08 e1 00 42 07 e1 00 44 08 e1  7....B...B...D..
00005a60: 00 44 04 e1 00 46 08 e1 00 46 07 e1 00 48 08 e1  .D...F...F...H..
00005a70: 00 48 05 e1 00 48 00 81 37 00 01 e1 00 46 02 e1  .H...H..7....F..
00005a80: 00 44 01 e1 00 42 04 e1 00 40 00 91 38 7f 30 81  .D...B...@..8.0.
00005a90: 38 00 10 91 34 7f 81 10 81 34 00 30 91 45 7f 08  8...4....4.0.E..
00005aa0: 91 47 7f 00 81 45 00 38 91 4a 7f 30 81 4a 00 10  .G...E.8.J.0.J..
00005ab0: 91 4a 7f 30 81 4a 00 10 91 45 7f 00 81 47 00 08  .J.0.J...E...G..
00005ac0: 91 47 7f 00 81 45 00 38 91 4a 7f 30 81 4a 00 10  .G...E.8.J.0.J..
00005ad0: 91 4a 7f 30 81 4a 00 10 91 47 7f 00 81 47 00 08  .J.0.J...G...G..
00005ae0: 91 45 7f 00 81 47 00 28 81 45 00 10 91 44 7f 30  .E...G.(.E...D.0
00005af0: 81 44 00 10 91 40 7f 30 81 40 00 0c e1 00 40 04  .D...@.0.@....@.
00005b00: e1 00 42 00 91 43 7f 03 e1 00 42 05 e1 00 44 03  ..B..C....B...D.
00005b10: e1 00 44 00 81 43 00 01 e1 00 44 04 91 44 7f 01  ..D..C....D..D..
00005b20: e1 00 42 02 e1 00 42 05 e1 00 40 01 e1 00 40 03  ..B...B...@...@.
00005b30: e1 00 3e 00 81 44 00 04 e1 00 40 00 91 43 7f 03  ..>..D....@..C..
00005b40: e1 00 40 05 e1 00 42 01 e1 00 42 03 e1 00 44 05  ..@...B...B...D.
00005b50: e1 00 44 02 e1 00 44 01 e1 00 42 04 e1 00 40 01  ..D...D...B...@.
00005b60: e1 00 3e 02 e1 00 3e 01 e1 00 3c 04 e1 00 3a 01  ..>...>...<...:.
00005b70: e1 00 3c 02 e1 00 3c 01 e1 00 3e 04 e1 00 40 01  ..<...<...>...@.
00005b80: e1 00 40 02 e1 00 42 01 e1 00 42 04 e1 00 44 01  ..@...B...B...D.
00005b90: e1 00 44 02 e1 00 44 01 e1 00 42 04 e1 00 40 01  ..D...D...B...@.
00005ba0: e1 00 3e 02 e1 00 3c 01 e1 00 3a 04 e1 00 3c 01  ..>...<...:...<.
00005bb0: e1 00 3e 02 e1 00 3e 01 e1 00 40 04 e1 00 40 01  ..>...>...@...@.
00005bc0: e1 00 42 02 e1 00 44 01 e1 00 44 04 e1 00 44 00  ..B...D...D...D.
00005bd0: 81 43 00 01 e1 00 42 03 e1 00 42 04 e1 00 40 03  .C....B...B...@.
00005be0: e1 00 40 05 91 4c 7f 30 81 4c 00 10 91 39 7f 30  ..@..L.0.L...9.0
00005bf0: 81 39 00 10 91 3a 7f 30 81 3a 00 10 91 3b 7f 81  .9...:.0.:...;..
00005c00: 30 81 3b 00 10 91 4e 7f 00 91 45 7f 00 91 47 7f  0.;...N...E...G.
00005c10: 70 81 47 00 00 81 45 00 00 81 4e 00 10 91 45 7f  p.G...E...N...E.
00005c20: 00 91 47 7f 70 81 47 00 00 81 45 00 10 91 3b 7f  ..G.p.G...E...;.
00005c30: 00 91 34 7f 70 81 34 00 00 81 3b 00 10 91 34 7f  ..4.p.4...;...4.
00005c40: 00 91 3b 7f 30 81 3b 00 00 81 34 00 10 91 34 7f  ..;.0.;...4...4.
00005c50: 00 91 3d 7f 68 81 3d 00 00 81 34 00 08 91 34 7f  ..=.h.=...4...4.
00005c60: 00 91 3d 7f 30 81 3d 00 00 81 34 00 20 91 3e 7f  ..=.0.=...4. .>.
00005c70: 03 91 34 7f 6d 81 3e 00 03 81 34 00 0d 91 34 7f  ..4.m.>...4...4.
00005c80: 00 91 3e 7f 30 81 3e 00 00 81 34 00 10 91 3d 7f  ..>.0.>...4...=.
00005c90: 00 91 34 7f 70 81 34 00 00 81 3d 00 10 91 34 7f  ..4.p.4...=...4.
00005ca0: 00 91 3d 7f 30 81 3d 00 00 81 34 00 10 91 39 7f  ..=.0.=...4...9.
00005cb0: 00 91 40 7f 70 81 40 00 00 81 39 00 10 91 39 7f  ..@.p.@...9...9.
00005cc0: 00 91 40 7f 30 81 40 00 00 81 39 00 10 91 42 7f  ..@.0.@...9...B.
00005cd0: 00 91 39 7f 70 81 39 00 00 81 42 00 10 91 39 7f  ..9.p.9...B...9.
00005ce0: 00 91 42 7f 30 81 42 00 00 81 39 00 10 91 39 7f  ..B.0.B...9...9.
00005cf0: 00 91 43 7f 70 81 43 00 00 81 39 00 10 91 39 7f  ..C.p.C...9...9.
00005d00: 00 91 43 7f 30 81 43 00 00 81 39 00 10 91 42 7f  ..C.0.C...9...B.
00005d10: 00 91 39 7f 81 10 81 39 00 00 81 42 00 82 30 91  ..9....9...B..0.
00005d20: 47 7f 20 91 4a 7f 00 81 47 00 28 81 4a 00 03 91  G. .J...G.(.J...
00005d30: 4c 7f 11 81 4c 00 07 91 4c 7f 16 81 4c 00 03 e1  L...L...L...L...
00005d40: 00 40 04 e1 00 42 00 91 4c 7f 01 e1 00 42 02 e1  .@...B..L....B..
00005d50: 00 44 05 e1 00 44 01 e1 00 46 02 e1 00 46 01 e1  .D...D...F...F..
00005d60: 00 46 04 e1 00 44 01 e1 00 44 02 e1 00 42 01 e1  .F...D...D...B..
00005d70: 00 42 05 e1 00 40 02 e1 00 40 01 e1 00 3e 04 e1  .B...@...@...>..
00005d80: 00 3e 01 e1 00 3c 02 e1 00 3e 01 e1 00 3e 04 e1  .>...<...>...>..
00005d90: 00 40 01 e1 00 42 02 e1 00 42 01 e1 00 44 04 e1  .@...B...B...D..
00005da0: 00 44 01 e1 00 46 02 e1 00 46 01 e1 00 46 04 e1  .D...F...F...F..
00005db0: 00 44 01 e1 00 42 02 e1 00 40 01 e1 00 3e 04 e1  .D...B...@...>..
00005dc0: 00 3c 01 e1 00 3e 03 e1 00 3e 04 e1 00 40 01 e1  .<...>...>...@..
00005dd0: 00 40 03 e1 00 42 04 e1 00 42 01 e1 00 44 03 e1  .@...B...B...D..
00005de0: 00 44 04 e1 00 44 01 e1 00 42 02 e1 00 42 01 e1  .D...D...B...B..
00005df0: 00 40 04 e1 00 3e 01 e1 00 3e 02 e1 00 3c 01 e1  .@...>...>...<..
00005e00: 00 3e 04 e1 00 3e 01 e1 00 40 02 e1 00 40 01 e1  .>...>...@...@..
00005e10: 00 42 04 e1 00 42 01 e1 00 44 02 e1 00 44 01 e1  .B...B...D...D..
00005e20: 00 42 04 e1 00 40 01 e1 00 3e 02 e1 00 3c 01 e1  .B...@...>...<..
00005e30: 00 3a 04 e1 00 3c 01 e1 00 3c 02 e1 00 3e 01 e1  .:...<...<...>..
00005e40: 00 40 04 e1 00 40 01 e1 00 42 02 e1 00 42 01 e1  .@...@...B...B..
00005e50: 00 44 04 e1 00 44 01 e1 00 44 02 e1 00 42 01 e1  .D...D...D...B..
00005e60: 00 40 04 e1 00 40 01 e1 00 3e 02 e1 00 3c 05 e1  .@...@...>...<..
00005e70: 00 3e 04 e1 00 3e 07 e1 00 40 0d e1 00 40 01 81  .>...>...@...@..
00005e80: 4c 00 83 03 e1 00 42 04 e1 00 44 00 91 45 7f 01  L.....B...D..E..
00005e90: e1 00 46 02 e1 00 48 01 e1 00 4a 04 e1 00 4a 00  ..F...H...J...J.
00005ea0: 81 45 00 01 e1 00 48 00 91 47 7f 02 e1 00 40 25  .E....H..G....@%
00005eb0: 81 47 00 10 91 4a 7f 30 81 4a 00 10 91 4a 7f 30  .G...J.0.J...J.0
00005ec0: 81 4a 00 10 91 47 7f 01 e1 00 3e 02 e1 00 3c 01  .J...G....>...<.
00005ed0: e1 00 3a 04 e1 00 38 00 81 47 00 01 e1 00 3e 02  ..:...8..G....>.
00005ee0: e1 00 40 00 91 45 7f 25 81 45 00 10 91 43 7f 30  ..@..E.%.E...C.0
00005ef0: 81 43 00 10 91 40 7f 81 50 81 40 00 30 91 39 7f  .C...@..P.@.0.9.
00005f00: 00 91 40 7f 70 81 40 00 00 81 39 00 10 91 39 7f  ..@.p.@...9...9.
00005f10: 30 81 39 00 10 91 39 7f 00 91 42 7f 70 81 42 00  0.9...9...B.p.B.
00005f20: 00 81 39 00 10 91 39 7f 30 81 39 00 10 91 39 7f  ..9...9.0.9...9.
00005f30: 00 91 43 7f 70 81 43 00 00 81 39 00 10 91 39 7f  ..C.p.C...9...9.
00005f40: 30 81 39 00 10 91 39 7f 00 91 42 7f 70 81 42 00  0.9...9...B.p.B.
00005f50: 00 81 39 00 10 91 39 7f 30 81 39 00 10 91 39 7f  ..9...9.0.9...9.
00005f60: 00 91 40 7f 70 81 40 00 00 81 39 00 10 91 39 7f  ..@.p.@...9...9.
00005f70: 30 81 39 00 10 91 39 7f 00 91 42 7f 70 81 42 00  0.9...9...B.p.B.
00005f80: 00 81 39 00 10 91 39 7f 30 81 39 00 10 91 39 7f  ..9...9.0.9...9.
00005f90: 00 91 43 7f 70 81 43 00 00 81 39 00 10 91 39 7f  ..C.p.C...9...9.
00005fa0: 30 81 39 00 10 91 42 7f 00 91 39 7f 70 81 39 00  0.9...B...9.p.9.
00005fb0: 00 81 42 00 10 91 39 7f 00 91 42 7f 30 81 42 00  ..B...9...B.0.B.
00005fc0: 00 81 39 00 10 91 34 7f 00 91 40 7f 10 81 40 00  ..9...4...@...@.
00005fd0: 60 81 34 00 0b e1 00 40 01 e1 00 42 04 e1 00 42  `.4....@...B...B
00005fe0: 00 91 4f 7f 01 e1 00 44 02 e1 00 44 01 e1 00 46  ..O....D...D...F
00005ff0: 04 e1 00 46 01 e1 00 46 02 e1 00 44 00 81 4f 00  ...F...F...D..O.
00006000: 01 e1 00 42 04 e1 00 40 00 91 50 7f 29 81 50 00  ...B...@..P.).P.
00006010: 03 e1 00 42 04 e1 00 42 00 91 4f 7f 01 e1 00 44  ...B...B..O....D
00006020: 02 e1 00 44 01 e1 00 46 04 e1 00 46 01 e1 00 46  ...D...F...F...F
00006030: 02 e1 00 44 00 81 4f 00 01 e1 00 42 04 91 50 7f  ...D..O....B..P.
00006040: 01 e1 00 42 07 e1 00 40 58 81 50 00 10 e1 00 42  ...B...@X.P....B
00006050: 00 91 4f 7f 01 e1 00 44 02 e1 00 46 01 e1 00 46  ..O....D...F...F
00006060: 04 e1 00 44 01 e1 00 42 02 e1 00 40 00 81 4f 00  ...D...B...@..O.
00006070: 05 91 50 7f 29 81 50 00 07 91 4c 7f 82 50 81 4c  ..P.).P...L..P.L
00006080: 00 2c e1 00 40 04 91 4f 7f 00 91 5b 7f 01 e1 00  .,..@..O...[....
00006090: 42 03 e1 00 42 07 e1 00 44 05 e1 00 44 04 e1 00  B...B...D...D...
000060a0: 46 04 81 5b 00 01 e1 00 46 07 e1 00 48 03 e1 00  F..[....F...H...
000060b0: 48 06 e1 00 4a 03 e1 00 4a 05 e1 00 40 3f 81 4f  H...J...J...@?.O
000060c0: 00 50 91 4f 7f 14 e1 00 42 25 e1 00 42 1a e1 00  .P.O....B%..B...
000060d0: 44 10 e1 00 44 09 e1 00 44 04 e1 00 42 00 81 4f  D...D...D...B..O
000060e0: 00 01 e1 00 42 02 e1 00 40 0d 91 4c 7f 30 81 4c  ....B...@..L.0.L
000060f0: 00 10 91 47 7f 08 91 46 7f 00 81 47 00 04 81 46  ...G...F...G...F
00006100: 00 04 91 45 7f 20 81 45 00 10 91 43 7f 30 81 43  ...E. .E...C.0.C
00006110: 00 10 91 40 7f 81 30 81 40 00 10 91 3e 7f 30 81  ...@..0.@...>.0.
00006120: 3e 00 10 91 3f 7f 70 81 3f 00 10 91 3b 7f 30 81  >...?.p.?...;.0.
00006130: 3b 00 10 91 3b 7f 30 81 3b 00 10 91 45 7f 00 91  ;...;.0.;...E...
00006140: 3e 7f 00 91 47 7f 03 91 4a 7f 10 81 4a 00 5d 81  >...G...J...J.].
00006150: 45 00 00 81 3e 00 00 81 47 00 10 91 45 7f 00 91  E...>...G...E...
00006160: 47 7f 00 91 3e 7f 03 91 4a 7f 10 81 4a 00 5d 81  G...>...J...J.].
00006170: 45 00 00 81 47 00 00 81 3e 00 10 91 3e 7f 00 91  E...G...>...>...
00006180: 45 7f 00 91 47 7f 03 91 4a 7f 10 81 4a 00 5d 81  E...G...J...J.].
00006190: 3e 00 00 81 45 00 00 81 47 00 10 91 3e 7f 00 91  >...E...G...>...
000061a0: 45 7f 00 91 47 7f 01 91 4a 7f 10 81 4a 00 5f 81  E...G...J...J._.
000061b0: 3e 00 00 81 45 00 00 81 47 00 10 91 39 7f 81 10  >...E...G...9...
000061c0: 81 39 00 30 91 3c 7f 30 81 3c 00 10 91 3d 7f 30  .9.0.<.0.<...=.0
000061d0: 81 3d 00 10 91 40 7f 30 81 40 00 10 91 43 7f 30  .=...@.0.@...C.0
000061e0: 81 43 00 10 91 40 7f 30 81 40 00 10 91 43 7f 30  .C...@.0.@...C.0
000061f0: 81 43 00 10 91 43 7f 30 81 43 00 10 e1 00 40 00  .C...C.0.C....@.
00006200: 91 37 7f 01 e1 00 3e 03 e1 00 3e 04 e1 00 3c 01  .7....>...>...<.
00006210: e1 00 3e 02 e1 00 3e 01 e1 00 40 04 e1 00 42 01  ..>...>...@...B.
00006220: e1 00 42 02 e1 00 44 01 e1 00 44 04 e1 00 44 01  ..B...D...D...D.
00006230: e1 00 42 02 e1 00 40 01 e1 00 40 04 e1 00 3e 01  ..B...@...@...>.
00006240: e1 00 3c 02 e1 00 3e 01 e1 00 3e 04 e1 00 40 01  ..<...>...>...@.
00006250: e1 00 40 03 e1 00 42 04 e1 00 42 01 e1 00 44 02  ..@...B...B...D.
00006260: e1 00 44 01 e1 00 42 04 e1 00 40 01 e1 00 3e 02  ..D...B...@...>.
00006270: e1 00 3c 01 e1 00 3e 04 e1 00 40 01 e1 00 40 02  ..<...>...@...@.
00006280: e1 00 42 01 e1 00 42 04 e1 00 44 01 e1 00 46 02  ..B...B...D...F.
00006290: e1 00 46 01 e1 00 44 04 e1 00 42 01 e1 00 40 02  ..F...D...B...@.
000062a0: e1 00 3e 01 e1 00 3a 04 e1 00 3c 01 e1 00 3e 02  ..>...:...<...>.
000062b0: e1 00 3e 01 e1 00 40 04 e1 00 40 01 e1 00 42 02  ..>...@...@...B.
000062c0: e1 00 44 01 e1 00 44 04 e1 00 44 01 e1 00 42 02  ..D...D...D...B.
000062d0: e1 00 40 0d 81 37 00 08 91 34 7f 00 91 40 7f 10  ..@..7...4...@..
000062e0: 81 40 00 81 00 81 34 00 30 91 45 7f 0b 81 45 00  .@....4.0.E...E.
000062f0: 01 91 46 7f 0c 81 46 00 03 91 47 7f 25 91 47 7f  ..F...F...G.%.G.
00006300: 00 91 4a 7f 00 81 47 00 70 81 4a 00 00 81 47 00  ..J...G.p.J...G.
00006310: 10 91 45 7f 08 81 45 00 01 91 46 7f 08 81 46 00  ..E...E...F...F.
00006320: 03 91 47 7f 1c 81 47 00 10 91 4a 7f 00 91 47 7f  ..G...G...J...G.
00006330: 70 81 47 00 00 81 4a 00 10 91 47 7f 08 81 47 00  p.G...J...G...G.
00006340: 01 91 46 7f 0a 81 46 00 05 91 45 7f 18 81 45 00  ..F...F...E...E.
00006350: 10 91 43 7f 30 81 43 00 10 91 40 7f 30 81 40 00  ..C.0.C...@.0.@.
00006360: 0b e1 00 40 05 e1 00 42 00 91 43 7f 03 e1 00 42  ...@...B..C....B
00006370: 05 e1 00 44 03 e1 00 44 00 81 43 00 01 e1 00 44  ...D...D..C....D
00006380: 04 e1 00 42 00 91 44 7f 01 e1 00 42 02 e1 00 40  ...B..D....B...@
00006390: 01 e1 00 40 04 e1 00 3e 01 e1 00 3e 02 e1 00 3c  ...@...>...>...<
000063a0: 00 81 44 00 01 e1 00 3c 04 e1 00 3a 00 91 43 7f  ..D....<...:..C.
000063b0: 01 e1 00 3c 02 e1 00 3e 01 e1 00 3e 04 e1 00 40  ...<...>...>...@
000063c0: 01 e1 00 40 02 e1 00 42 01 e1 00 44 04 e1 00 44  ...@...B...D...D
000063d0: 01 e1 00 44 02 e1 00 42 01 e1 00 40 04 e1 00 3e  ...D...B...@...>
000063e0: 01 e1 00 3e 02 e1 00 3c 01 e1 00 3a 04 e1 00 3c  ...>...<...:...<
000063f0: 01 e1 00 3e 02 e1 00 3e 01 e1 00 40 04 e1 00 40  ...>...>...@...@
00006400: 01 e1 00 42 02 e1 00 44 01 e1 00 44 04 e1 00 44  ...B...D...D...D
00006410: 01 e1 00 42 02 e1 00 42 01 e1 00 40 04 e1 00 40  ...B...B...@...@
00006420: 01 e1 00 3e 02 e1 00 3e 01 e1 00 3c 04 e1 00 3e  ...>...>...<...>
00006430: 01 e1 00 3e 02 e1 00 40 05 e1 00 40 01 e1 00 42  ...>...@...@...B
00006440: 02 e1 00 42 01 e1 00 42 04 81 43 00 01 e1 00 40  ...B...B..C....@
00006450: 0f 91 4c 7f 70 81 4c 00 10 91 39 7f 30 81 39 00  ..L.p.L...9.0.9.
00006460: 10 91 3a 7f 30 81 3a 00 10 91 3b 7f 70 81 3b 00  ..:.0.:...;.p.;.
00006470: 10 91 47 7f 00 91 4e 7f 00 91 45 7f 70 81 45 00  ..G...N...E.p.E.
00006480: 00 81 4e 00 00 81 47 00 10 91 47 7f 00 91 45 7f  ..N...G...G...E.
00006490: 00 91 3f 7f 70 81 3f 00 00 81 45 00 00 81 47 00  ..?.p.?...E...G.
000064a0: 10 91 3b 7f 03 91 34 7f 6d 81 3b 00 03 81 34 00  ..;...4.m.;...4.
000064b0: 09 91 34 7f 30 81 34 00 10 91 3d 7f 00 91 34 7f  ..4.0.4...=...4.
000064c0: 70 81 34 00 00 81 3d 00 17 91 34 7f 30 81 34 00  p.4...=...4.0.4.
000064d0: 09 91 34 7f 04 91 3e 7f 6c 81 34 00 04 81 3e 00  ..4...>.l.4...>.
000064e0: 10 91 34 7f 30 81 34 00 10 91 34 7f 01 91 3d 7f  ..4.0.4...4...=.
000064f0: 6f 81 34 00 01 81 3d 00 0b 91 34 7f 30 81 34 00  o.4...=...4.0.4.
00006500: 10 91 39 7f 07 91 40 7f 69 81 39 00 07 81 40 00  ..9...@.i.9...@.
00006510: 0d 91 39 7f 30 81 39 00 0c 91 42 7f 07 91 39 7f  ..9.0.9...B...9.
00006520: 69 81 42 00 07 81 39 00 10 91 39 7f 30 81 39 00  i.B...9...9.0.9.
00006530: 09 91 39 7f 07 91 43 7f 69 81 39 00 07 81 43 00  ..9...C.i.9...C.
00006540: 0e 91 39 7f 30 81 39 00 0b 91 42 7f 05 91 39 7f  ..9.0.9...B...9.
00006550: 81 0b 81 42 00 05 81 39 00 2f 91 3b 7f 03 91 34  ...B...9./.;...4
00006560: 7f 6d 81 3b 00 03 81 34 00 09 91 34 7f 30 81 34  .m.;...4...4.0.4
00006570: 00 10 91 3d 7f 00 91 34 7f 70 81 34 00 00 81 3d  ...=...4.p.4...=
00006580: 00 17 91 34 7f 30 81 34 00 09 91 34 7f 04 91 3e  ...4.0.4...4...>
00006590: 7f 6c 81 34 00 04 81 3e 00 10 91 34 7f 30 81 34  .l.4...>...4.0.4
000065a0: 00 10 91 34 7f 01 91 3d 7f 6f 81 34 00 01 81 3d  ...4...=.o.4...=
000065b0: 00 0b 91 34 7f 30 81 34 00 10 91 39 7f 07 91 40  ...4.0.4...9...@
000065c0: 7f 69 81 39 00 07 81 40 00 0d 91 39 7f 30 81 39  .i.9...@...9.0.9
000065d0: 00 0c 91 42 7f 07 91 39 7f 69 81 42 00 07 81 39  ...B...9.i.B...9
000065e0: 00 10 91 39 7f 30 81 39 00 09 91 39 7f 07 91 43  ...9.0.9...9...C
000065f0: 7f 69 81 39 00 07 81 43 00 0e 91 39 7f 30 81 39  .i.9...C...9.0.9
00006600: 00 0b 91 42 7f 05 91 39 7f 81 0b 81 42 00 05 81  ...B...9....B...
00006610: 39 00 32 91 39 7f 00 91 40 7f 70 81 40 00 00 81  9.2.9...@.p.@...
00006620: 39 00 10 91 39 7f 30 81 39 00 0d 91 39 7f 01 91  9...9.0.9...9...
00006630: 42 7f 6f 81 39 00 01 81 42 00 12 91 39 7f 30 81  B.o.9...B...9.0.
00006640: 39 00 09 91 39 7f 05 91 43 7f 6b 81 39 00 05 81  9...9...C.k.9...
00006650: 43 00 12 91 39 7f 30 81 39 00 0d 91 42 7f 01 91  C...9.0.9...B...
00006660: 39 7f 6f 81 42 00 01 81 39 00 0b 91 39 7f 30 81  9.o.B...9...9.0.
00006670: 39 00 14 91 39 7f 03 91 40 7f 6d 81 39 00 03 81  9...9...@.m.9...
00006680: 40 00 0e 91 39 7f 30 81 39 00 0f 91 42 7f 03 91  @...9.0.9...B...
00006690: 39 7f 6d 81 42 00 03 81 39 00 09 91 42 7f 04 91  9.m.B...9...B...
000066a0: 39 7f 2c 81 42 00 04 81 39 00 0c 91 39 7f 00 91  9.,.B...9...9...
000066b0: 43 7f 70 81 43 00 00 81 39 00 10 91 43 7f 04 91  C.p.C...9...C...
000066c0: 39 7f 2c 81 43 00 04 81 39 00 10 91 39 7f 03 91  9.,.C...9...9...
000066d0: 42 7f 6d 81 39 00 03 81 42 00 0d 91 39 7f 00 91  B.m.9...B...9...
000066e0: 42 7f 30 81 42 00 00 81 39 00 10 91 3b 7f 03 91  B.0.B...9...;...
000066f0: 34 7f 6d 81 3b 00 03 81 34 00 09 91 34 7f 30 81  4.m.;...4...4.0.
00006700: 34 00 10 91 3d 7f 00 91 34 7f 70 81 34 00 00 81  4...=...4.p.4...
00006710: 3d 00 17 91 34 7f 30 81 34 00 09 91 34 7f 04 91  =...4.0.4...4...
00006720: 3e 7f 6c 81 34 00 04 81 3e 00 10 91 34 7f 30 81  >.l.4...>...4.0.
00006730: 34 00 10 91 34 7f 01 91 3d 7f 6f 81 34 00 01 81  4...4...=.o.4...
00006740: 3d 00 0b 91 34 7f 30 81 34 00 10 91 39 7f 07 91  =...4.0.4...9...
00006750: 40 7f 69 81 39 00 07 81 40 00 0d 91 39 7f 30 81  @.i.9...@...9.0.
00006760: 39 00 0c 91 42 7f 07 91 39 7f 69 81 42 00 07 81  9...B...9.i.B...
00006770: 39 00 10 91 39 7f 30 81 39 00 09 91 39 7f 07 91  9...9.0.9...9...
00006780: 43 7f 69 81 39 00 07 81 43 00 0e 91 39 7f 30 81  C.i.9...C...9.0.
00006790: 39 00 0b 91 42 7f 05 91 39 7f 81 0b 81 42 00 05  9...B...9....B..
000067a0: 81 39 00 2f 91 3b 7f 03 91 34 7f 6d 81 3b 00 03  .9./.;...4.m.;..
000067b0: 81 34 00 09 91 34 7f 30 81 34 00 10 91 3d 7f 00  .4...4.0.4...=..
000067c0: 91 34 7f 70 81 34 00 00 81 3d 00 17 91 34 7f 30  .4.p.4...=...4.0
000067d0: 81 34 00 09 91 34 7f 04 91 3e 7f 6c 81 34 00 04  .4...4...>.l.4..
000067e0: 81 3e 00 10 91 34 7f 30 81 34 00 10 91 34 7f 01  .>...4.0.4...4..
000067f0: 91 3d 7f 6f 81 34 00 01 81 3d 00 0b 91 34 7f 30  .=.o.4...=...4.0
00006800: 81 34 00 10 91 39 7f 07 91 40 7f 69 81 39 00 07  .4...9...@.i.9..
00006810: 81 40 00 0d 91 39 7f 30 81 39 00 0c 91 42 7f 07  .@...9.0.9...B..
00006820: 91 39 7f 69 81 42 00 07 81 39 00 10 91 39 7f 30  .9.i.B...9...9.0
00006830: 81 39 00 09 91 39 7f 07 91 43 7f 69 81 39 00 07  .9...9...C.i.9..
00006840: 81 43 00 0e 91 39 7f 30 81 39 00 0b 91 42 7f 05  .C...9.0.9...B..
00006850: 91 39 7f 81 0b 81 42 00 05 81 39 00 2f 91 3b 7f  .9....B...9./.;.
00006860: 03 91 34 7f 6d 81 3b 00 03 81 34 00 09 91 34 7f  ..4.m.;...4...4.
00006870: 30 81 34 00 10 91 3d 7f 00 91 34 7f 70 81 34 00  0.4...=...4.p.4.
00006880: 00 81 3d 00 17 91 34 7f 30 81 34 00 09 91 34 7f  ..=...4.0.4...4.
00006890: 04 91 3e 7f 6c 81 34 00 04 81 3e 00 10 91 34 7f  ..>.l.4...>...4.
000068a0: 30 81 34 00 10 91 34 7f 01 91 3d 7f 6f 81 34 00  0.4...4...=.o.4.
000068b0: 01 81 3d 00 0b 91 34 7f 30 81 34 00 10 91 39 7f  ..=...4.0.4...9.
000068c0: 07 91 40 7f 69 81 39 00 07 81 40 00 0d 91 39 7f  ..@.i.9...@...9.
000068d0: 30 81 39 00 0c 91 42 7f 07 91 39 7f 69 81 42 00  0.9...B...9.i.B.
000068e0: 07 81 39 00 10 91 39 7f 30 81 39 00 09 91 39 7f  ..9...9.0.9...9.
000068f0: 07 91 43 7f 69 81 39 00 07 81 43 00 0e 91 39 7f  ..C.i.9...C...9.
00006900: 30 81 39 00 0b 91 42 7f 05 91 39 7f 81 0b 81 42  0.9...B...9....B
00006910: 00 05 81 39 00 2b 91 3b 7f 04 91 34 7f 00 81 3b  ...9.+.;...4...;
00006920: 00 70 81 34 00 0c 91 3b 7f 04 91 34 7f 2c 81 3b  .p.4...;...4.,.;
00006930: 00 04 81 34 00 10 91 34 7f 03 91 3d 7f 6d 81 34  ...4...4...=.m.4
00006940: 00 03 81 3d 00 10 91 34 7f 30 81 34 00 09 91 34  ...=...4.0.4...4
00006950: 7f 04 91 3b 7f 6c 81 34 00 04 81 3b 00 13 91 34  ...;.l.4...;...4
00006960: 7f 30 81 34 00 09 91 3d 7f 04 91 34 7f 6c 81 3d  .0.4...=...4.l.=
00006970: 00 04 81 34 00 10 91 3e 7f 30 81 3e 00 0c 91 39  ...4...>.0.>...9
00006980: 7f 04 91 40 7f 5c 81 39 00 04 81 40 00 1c 91 39  ...@.\.9...@...9
00006990: 7f 30 81 39 00 14 91 42 7f 01 91 39 7f 6f 81 42  .0.9...B...9.o.B
000069a0: 00 01 81 39 00 0b 91 39 7f 30 81 39 00 15 91 43  ...9...9.0.9...C
000069b0: 7f 02 91 39 7f 5e 81 43 00 02 81 39 00 1e 91 39  ...9.^.C...9...9
000069c0: 7f 30 81 39 00 10 91 39 7f 02 91 42 7f 81 0e 81  .0.9...9...B....
000069d0: 39 00 02 81 42 00 81 30 91 4c 7f 30 81 4c 00 0d  9...B..0.L.0.L..
000069e0: 91 51 7f 08 81 51 00 01 91 52 7f 08 81 52 00 02  .Q...Q...R...R..
000069f0: 91 53 7f 5e 81 53 00 10 91 53 7f 70 81 53 00 0f  .S.^.S...S.p.S..
00006a00: 91 53 7f 70 81 53 00 13 91 53 7f 70 81 53 00 0d  .S.p.S...S.p.S..
00006a10: 91 53 7f 30 81 53 00 4b e1 00 40 01 91 53 7f 04  .S.0.S.K..@..S..
00006a20: e1 00 3e 01 e1 00 3e 02 e1 00 3c 05 e1 00 3c 03  ..>...>...<...<.
00006a30: e1 00 3e 01 e1 00 40 00 81 53 00 04 91 52 7f 5c  ..>...@..S...R.\
00006a40: 81 52 00 10 91 51 7f 70 81 51 00 17 91 50 7f 7e  .R...Q.p.Q...P.~
00006a50: e1 00 40 07 e1 00 42 08 e1 00 42 08 e1 00 44 08  ..@...B...B...D.
00006a60: e1 00 44 04 e1 00 46 05 e1 00 46 02 e1 00 48 05  ..D...F...F...H.
00006a70: e1 00 48 01 e1 00 48 02 e1 00 46 00 81 50 00 01  ..H...H...F..P..
00006a80: e1 00 44 04 e1 00 42 01 e1 00 40 0a 91 4c 7f 10  ..D...B...@..L..
00006a90: 81 4c 00 09 91 47 7f 10 81 47 00 05 91 46 7f 0b  .L...G...G...F..
00006aa0: 81 46 00 07 91 45 7f 50 81 45 00 09 91 43 7f 10  .F...E.P.E...C..
00006ab0: 81 43 00 14 91 40 7f 30 81 40 00 10 91 39 7f 03  .C...@.0.@...9..
00006ac0: 91 40 7f 6d 81 39 00 03 81 40 00 10 91 39 7f 30  .@.m.9...@...9.0
00006ad0: 81 39 00 0e 91 39 7f 02 91 42 7f 6e 81 39 00 02  .9...9...B.n.9..
00006ae0: 81 42 00 0e 91 39 7f 30 81 39 00 0f 91 39 7f 00  .B...9.0.9...9..
00006af0: 91 43 7f 70 81 43 00 00 81 39 00 0c 91 39 7f 30  .C.p.C...9...9.0
00006b00: 81 39 00 15 91 39 7f 00 91 40 7f 70 81 40 00 00  .9...9...@.p.@..
00006b10: 81 39 00 10 91 39 7f 30 81 39 00 0b 91 40 7f 07  .9...9.0.9...@..
00006b20: 91 39 7f 69 81 40 00 07 81 39 00 0e 91 39 7f 30  .9.i.@...9...9.0
00006b30: 81 39 00 12 91 42 7f 00 91 39 7f 70 81 39 00 00  .9...B...9.p.9..
00006b40: 81 42 00 09 91 42 7f 07 91 39 7f 29 81 42 00 07  .B...B...9.).B..
00006b50: 81 39 00 09 91 43 7f 07 91 39 7f 69 81 43 00 07  .9...C...9.i.C..
00006b60: 81 39 00 0d 91 39 7f 30 81 39 00 10 91 39 7f 00  .9...9.0.9...9..
00006b70: 91 42 7f 81 10 81 42 00 00 81 39 00 81 0c 91 4c  .B....B...9....L
00006b80: 7f 10 81 4c 00 10 91 4f 7f 10 81 4f 00 14 91 51  ...L...O...O...Q
00006b90: 7f 10 81 51 00 11 91 51 7f 08 91 52 7f 00 81 51  ...Q...Q...R...Q
00006ba0: 00 08 91 53 7f 00 81 52 00 3b 81 53 00 14 91 51  ...S...R.;.S...Q
00006bb0: 7f 0b 81 51 00 01 91 52 7f 08 81 52 00 05 91 53  ...Q...R...R...S
00006bc0: 7f 37 81 53 00 11 91 51 7f 0b 91 52 7f 00 81 51  .7.S...Q...R...Q
00006bd0: 00 08 91 53 7f 00 81 52 00 35 81 53 00 1a 91 51  ...S...R.5.S...Q
00006be0: 7f 0d 91 52 7f 00 81 51 00 09 91 53 7f 00 81 52  ...R...Q...S...R
00006bf0: 00 3a 81 53 00 0e 91 51 7f 0b 91 52 7f 00 81 51  .:.S...Q...R...Q
00006c00: 00 0c 81 52 00 04 91 53 7f 78 81 53 00 08 91 52  ...R...S.x.S...R
00006c10: 7f 10 81 52 00 75 91 47 7f 2a 81 47 00 06 91 4a  ...R.u.G.*.G...J
00006c20: 7f 2b 91 4c 7f 05 81 4a 00 5b 81 4c 00 05 91 4a  .+.L...J.[.L...J
00006c30: 7f 2f 91 47 7f 01 81 4a 00 2a 81 47 00 05 91 45  ./.G...J.*.G...E
00006c40: 7f 59 81 45 00 03 91 43 7f 30 81 43 00 04 91 40  .Y.E...C.0.C...@
00006c50: 7f 29 81 40 00 03 e1 00 40 04 e1 00 42 01 e1 00  .).@....@...B...
00006c60: 42 00 91 40 7f 02 e1 00 44 05 e1 00 44 01 e1 00  B..@....D...D...
00006c70: 46 02 e1 00 46 01 e1 00 46 04 e1 00 44 01 e1 00  F...F...F...D...
00006c80: 44 02 e1 00 42 01 e1 00 40 04 e1 00 40 01 e1 00  D...B...@...@...
00006c90: 3e 02 e1 00 3e 01 e1 00 3c 04 e1 00 3e 01 e1 00  >...>...<...>...
00006ca0: 3e 02 e1 00 40 01 e1 00 40 05 e1 00 42 02 e1 00  >...@...@...B...
00006cb0: 42 01 e1 00 44 04 e1 00 44 01 e1 00 44 02 e1 00  B...D...D...D...
00006cc0: 42 01 e1 00 42 04 e1 00 40 03 e1 00 40 01 e1 00  B...B...@...@...
00006cd0: 3e 04 e1 00 3e 01 e1 00 3c 02 e1 00 3e 01 e1 00  >...>...<...>...
00006ce0: 3e 04 e1 00 40 01 e1 00 42 02 e1 00 42 01 e1 00  >...@...B...B...
00006cf0: 44 04 e1 00 44 01 e1 00 44 02 e1 00 42 01 e1 00  D...D...D...B...
00006d00: 42 05 e1 00 40 02 e1 00 40 01 e1 00 3e 04 e1 00  B...@...@...>...
00006d10: 40 03 e1 00 40 01 e1 00 42 04 e1 00 42 03 e1 00  @...@...B...B...
00006d20: 44 01 e1 00 44 04 e1 00 44 01 e1 00 42 00 81 40  D...D...D...B..@
00006d30: 00 02 e1 00 42 01 e1 00 40 04 e1 00 40 01 e1 00  ....B...@...@...
00006d40: 3e 02 e1 00 3e 01 e1 00 3c 00 91 3e 7f 04 e1 00  >...>...<..>....
00006d50: 3e 01 e1 00 3e 02 e1 00 40 01 e1 00 42 04 e1 00  >...>...@...B...
00006d60: 42 01 e1 00 44 02 e1 00 44 01 e1 00 44 04 e1 00  B...D...D...D...
00006d70: 42 01 e1 00 40 02 e1 00 40 01 e1 00 3e 04 e1 00  B...@...@...>...
00006d80: 3c 01 e1 00 3e 02 e1 00 3e 01 e1 00 40 04 e1 00  <...>...>...@...
00006d90: 42 01 e1 00 42 02 e1 00 44 01 e1 00 44 04 e1 00  B...B...D...D...
00006da0: 44 01 e1 00 42 03 e1 00 42 00 81 3e 00 04 e1 00  D...B...B..>....
00006db0: 40 11 91 3b 7f 70 81 3b 00 12 91 47 7f 00 91 4e  @..;.p.;...G...N
00006dc0: 7f 00 91 45 7f 70 81 45 00 00 81 4e 00 00 81 47  ...E.p.E...N...G
00006dd0: 00 09 91 4e 7f 05 91 45 7f 00 91 47 7f 6b 81 4e  ...N...E...G.k.N
00006de0: 00 04 81 45 00 01 81 47 00 0b 91 47 7f 05 91 4e  ...E...G...G...N
00006df0: 7f 02 91 45 7f 81 69 81 47 00 05 81 4e 00 02 81  ...E..i.G...N...
00006e00: 45 00 09 91 37 7f 04 e1 00 42 04 e1 00 42 07 e1  E...7....B...B..
00006e10: 00 44 06 e1 00 44 07 e1 00 46 04 e1 00 46 07 e1  .D...D...F...F..
00006e20: 00 48 06 e1 00 48 03 e1 00 46 00 81 37 00 04 e1  .H...H...F..7...
00006e30: 00 44 01 e1 00 42 02 e1 00 40 0d 91 38 7f 30 81  .D...B...@..8.0.
00006e40: 38 00 13 91 39 7f 70 81 39 00 0d 91 51 7f 01 91  8...9.p.9...Q...
00006e50: 45 7f 03 81 51 00 2d 81 45 00 12 91 3c 7f 30 81  E...Q.-.E...<.0.
00006e60: 3c 00 09 91 3d 7f 30 81 3d 00 17 91 40 7f 30 81  <...=.0.=...@.0.
00006e70: 40 00 09 91 43 7f 30 81 43 00 14 91 40 7f 30 81  @...C.0.C...@.0.
00006e80: 40 00 10 91 43 7f 30 81 43 00 10 91 40 7f 30 81  @...C.0.C...@.0.
00006e90: 40 00 10 e1 00 40 01 91 37 7f 02 e1 00 42 08 e1  @....@..7....B..
00006ea0: 00 42 08 e1 00 44 08 e1 00 44 08 e1 00 46 08 e1  .B...D...D...F..
00006eb0: 00 46 05 e1 00 46 01 e1 00 44 00 81 37 00 02 e1  .F...F...D..7...
00006ec0: 00 42 01 e1 00 42 04 e1 00 40 09 91 38 7f 30 81  .B...B...@..8.0.
00006ed0: 38 00 12 91 34 7f 81 10 81 34 00 2d 91 45 7f 08  8...4....4.-.E..
00006ee0: 91 46 7f 00 81 45 00 08 81 46 00 03 91 47 7f 28  .F...E...F...G.(
00006ef0: 81 47 00 01 91 47 7f 05 91 4a 7f 2b 81 47 00 05  .G...G...J.+.G..
00006f00: 81 4a 00 12 91 47 7f 00 91 4a 7f 2d 81 4a 00 03  .J...G...J.-.J..
00006f10: 81 47 00 0d 91 45 7f 08 91 46 7f 00 81 45 00 09  .G...E...F...E..
00006f20: 81 46 00 07 91 47 7f 2b 91 4a 7f 6d 81 47 00 03  .F...G.+.J.m.G..
00006f30: 81 4a 00 0d 91 47 7f 0b 91 46 7f 00 81 47 00 09  .J...G...F...G..
00006f40: 81 46 00 04 91 45 7f 39 81 45 00 10 91 43 7f 10  .F...E.9.E...C..
00006f50: 81 43 00 0b 91 40 7f 30 81 40 00 10 e1 00 40 04  .C...@.0.@....@.
00006f60: e1 00 42 01 e1 00 42 00 91 43 7f 03 e1 00 44 04  ..B...B..C....D.
00006f70: e1 00 44 01 e1 00 44 00 81 43 00 02 e1 00 42 00  ..D...D..C....B.
00006f80: 91 44 7f 01 e1 00 40 04 e1 00 3e 01 e1 00 3c 02  .D....@...>...<.
00006f90: e1 00 3a 00 91 43 7f 00 81 44 00 01 e1 00 3c 04  ..:..C...D....<.
00006fa0: e1 00 3e 01 e1 00 3e 02 e1 00 40 01 e1 00 42 04  ..>...>...@...B.
00006fb0: e1 00 42 01 e1 00 42 02 e1 00 40 01 e1 00 3e 04  ..B...B...@...>.
00006fc0: e1 00 3e 01 e1 00 3c 03 e1 00 3e 04 e1 00 40 01  ..>...<...>...@.
00006fd0: e1 00 42 02 e1 00 44 01 e1 00 44 04 e1 00 44 01  ..B...D...D...D.
00006fe0: e1 00 42 02 e1 00 40 01 e1 00 40 04 e1 00 3e 01  ..B...@...@...>.
00006ff0: e1 00 3c 02 e1 00 3e 01 e1 00 40 04 e1 00 40 01  ..<...>...@...@.
00007000: e1 00 42 02 e1 00 44 01 e1 00 44 04 e1 00 44 01  ..B...D...D...D.
00007010: e1 00 42 02 e1 00 40 01 e1 00 3e 04 e1 00 3c 01  ..B...@...>...<.
00007020: e1 00 3e 02 e1 00 40 01 e1 00 42 04 e1 00 42 01  ..>...@...B...B.
00007030: e1 00 44 02 e1 00 46 01 e1 00 46 04 e1 00 46 01  ..D...F...F...F.
00007040: e1 00 44 02 e1 00 44 05 e1 00 42 01 e1 00 42 02  ..D...D...B...B.
00007050: e1 00 40 00 81 43 00 10 91 4c 7f 30 81 4c 00 0e  ..@..C...L.0.L..
00007060: 91 39 7f 30 81 39 00 12 91 3b 7f 30 81 3b 00 09  .9.0.9...;.0.;..
00007070: 91 3b 7f 40 e1 00 40 05 e1 00 42 03 e1 00 42 05  .;.@..@...B...B.
00007080: e1 00 44 03 e1 00 44 04 e1 00 44 01 e1 00 42 02  ..D...D...D...B.
00007090: e1 00 42 01 e1 00 40 05 e1 00 40 02 e1 00 3e 01  ..B...@...@...>.
000070a0: e1 00 3e 04 e1 00 3c 01 e1 00 3e 03 e1 00 3e 04  ..>...<...>...>.
000070b0: e1 00 40 01 e1 00 40 03 e1 00 42 04 e1 00 42 01  ..@...@...B...B.
000070c0: e1 00 44 03 e1 00 44 04 e1 00 44 01 e1 00 42 02  ..D...D...D...B.
000070d0: e1 00 40 01 e1 00 3e 04 e1 00 3e 01 e1 00 3c 02  ..@...>...>...<.
000070e0: e1 00 3a 01 e1 00 3c 04 e1 00 3c 01 e1 00 3e 02  ..:...<...<...>.
000070f0: e1 00 40 01 e1 00 40 04 e1 00 42 01 e1 00 42 02  ..@...@...B...B.
00007100: e1 00 44 01 e1 00 44 04 e1 00 44 01 e1 00 42 02  ..D...D...D...B.
00007110: e1 00 42 01 e1 00 40 04 e1 00 3e 01 e1 00 3e 02  ..B...@...>...>.
00007120: e1 00 3c 01 e1 00 3e 04 e1 00 3e 01 e1 00 40 02  ..<...>...>...@.
00007130: e1 00 40 01 e1 00 42 04 e1 00 42 01 e1 00 44 02  ..@...B...B...D.
00007140: e1 00 44 01 e1 00 44 04 e1 00 42 01 e1 00 40 02  ..D...D...B...@.
00007150: e1 00 40 01 e1 00 3e 04 e1 00 3c 01 e1 00 3e 02  ..@...>...<...>.
00007160: e1 00 3e 01 e1 00 40 04 e1 00 40 01 e1 00 42 02  ..>...@...@...B.
00007170: e1 00 42 01 e1 00 44 04 e1 00 44 01 e1 00 44 02  ..B...D...D...D.
00007180: e1 00 42 01 e1 00 40 04 e1 00 40 01 e1 00 3e 02  ..B...@...@...>.
00007190: e1 00 3c 01 e1 00 3e 04 e1 00 3e 01 e1 00 40 02  ..<...>...>...@.
000071a0: e1 00 42 01 e1 00 42 04 e1 00 44 01 e1 00 44 02  ..B...B...D...D.
000071b0: e1 00 44 01 e1 00 42 05 e1 00 42 02 e1 00 40 00  ..D...B...B...@.
000071c0: 81 3b 00 81 09 91 4c 7f 30 81 4c 00 14 91 45 7f  .;....L.0.L...E.
000071d0: 10 91 47 7f 00 81 45 00 60 81 47 00 10 91 4a 7f  ..G...E.`.G...J.
000071e0: 30 81 4a 00 10 e1 00 40 00 91 47 7f 00 91 4a 7f  0.J....@..G...J.
000071f0: 03 e1 00 42 05 e1 00 42 03 e1 00 44 06 e1 00 44  ...B...B...D...D
00007200: 03 e1 00 46 05 e1 00 46 03 e1 00 46 05 e1 00 44  ...F...F...F...D
00007210: 03 e1 00 44 04 e1 00 42 03 e1 00 42 05 e1 00 40  ...D...B...B...@
00007220: 01 e1 00 40 03 e1 00 3e 05 e1 00 3e 02 e1 00 3c  ...@...>...>...<
00007230: 05 e1 00 3c 03 e1 00 3a 01 e1 00 3c 05 e1 00 3c  ...<...:...<...<
00007240: 03 e1 00 3e 04 e1 00 3e 03 e1 00 40 01 e1 00 40  ...>...>...@...@
00007250: 05 e1 00 42 03 e1 00 42 04 e1 00 44 03 e1 00 44  ...B...B...D...D
00007260: 01 e1 00 44 05 e1 00 42 02 e1 00 42 01 e1 00 40  ...D...B...B...@
00007270: 05 e1 00 40 02 e1 00 3e 05 e1 00 3e 01 e1 00 3c  ...@...>...>...<
00007280: 02 e1 00 3c 05 e1 00 3a 01 e1 00 3c 02 e1 00 3c  ...<...:...<...<
00007290: 01 e1 00 3e 04 e1 00 3e 01 e1 00 40 02 e1 00 40  ...>...>...@...@
000072a0: 05 e1 00 42 01 e1 00 42 02 e1 00 44 01 e1 00 44  ...B...B...D...D
000072b0: 04 e1 00 46 01 e1 00 46 02 e1 00 46 01 e1 00 44  ...F...F...F...D
000072c0: 04 e1 00 44 03 e1 00 42 01 e1 00 42 04 e1 00 40  ...D...B...B...@
000072d0: 01 e1 00 40 02 e1 00 3e 01 e1 00 3e 05 e1 00 3c  ...@...>...>...<
000072e0: 02 e1 00 3c 01 e1 00 3a 04 e1 00 3c 01 e1 00 3c  ...<...:...<...<
000072f0: 03 e1 00 3e 04 e1 00 3e 01 e1 00 40 03 e1 00 40  ...>...>...@...@
00007300: 04 e1 00 42 01 e1 00 42 03 e1 00 44 04 e1 00 44  ...B...B...D...D
00007310: 01 e1 00 44 03 e1 00 42 04 e1 00 42 01 e1 00 40  ...D...B...B...@
00007320: 03 e1 00 40 04 e1 00 3e 03 e1 00 3e 01 e1 00 3c  ...@...>...>...<
00007330: 04 e1 00 3c 03 e1 00 3a 01 e1 00 3c 05 e1 00 3c  ...<...:...<...<
00007340: 02 e1 00 3e 05 e1 00 3e 01 e1 00 40 03 e1 00 40  ...>...>...@...@
00007350: 04 e1 00 42 03 e1 00 42 01 e1 00 44 05 e1 00 44  ...B...B...D...D
00007360: 02 e1 00 44 05 e1 00 42 01 e1 00 42 03 e1 00 40  ...D...B...B...@
00007370: 04 e1 00 40 03 e1 00 3e 01 e1 00 3e 05 e1 00 3c  ...@...>...>...<
00007380: 02 e1 00 3c 05 e1 00 3a 01 e1 00 3c 03 e1 00 3c  ...<...:...<...<
00007390: 04 e1 00 3e 01 e1 00 3e 03 e1 00 40 04 e1 00 40  ...>...>...@...@
000073a0: 01 e1 00 42 03 e1 00 42 04 e1 00 44 01 e1 00 44  ...B...B...D...D
000073b0: 03 e1 00 46 04 e1 00 46 01 e1 00 46 02 e1 00 44  ...F...F...F...D
000073c0: 01 e1 00 42 04 e1 00 42 01 e1 00 40 02 e1 00 3e  ...B...B...@...>
000073d0: 01 e1 00 3c 04 e1 00 3c 01 e1 00 3a 02 e1 00 38  ...<...<...:...8
000073e0: 01 e1 00 3a 04 e1 00 3c 01 e1 00 3e 02 e1 00 40  ...:...<...>...@
000073f0: 01 e1 00 40 05 e1 00 40 07 81 4a 00 00 81 47 00  ...@...@..J...G.
00007400: 82 4c e1 00 40 04 91 47 7f 00 91 4a 7f 01 e1 00  .L..@..G...J....
00007410: 42 07 e1 00 42 04 e1 00 44 07 e1 00 44 06 e1 00  B...B...D...D...
00007420: 46 08 e1 00 46 07 e1 00 48 04 e1 00 48 07 e1 00  F...F...H...H...
00007430: 4a 06 e1 00 4a 00 81 4a 00 03 e1 00 48 00 81 47  J...J..J....H..G
00007440: 00 04 e1 00 40 00 91 49 7f 00 91 4c 7f 03 e1 00  ....@..I...L....
00007450: 40 6d 81 4c 00 00 81 49 00 0c e1 00 42 04 e1 00  @m.L...I....B...
00007460: 44 00 91 47 7f 00 91 4a 7f 01 e1 00 46 02 e1 00  D..G...J....F...
00007470: 48 01 e1 00 4a 04 e1 00 4a 00 81 4a 00 00 81 47  H...J...J..J...G
00007480: 00 01 e1 00 48 00 91 4c 7f 02 e1 00 46 01 e1 00  ....H..L....F...
00007490: 44 00 91 49 7f 04 e1 00 42 01 e1 00 40 03 e1 00  D..I....B...@...
000074a0: 40 1c 81 49 00 00 81 4c 00 10 91 4c 7f 30 81 4c  @..I...L...L.0.L
000074b0: 00 10 91 4a 7f 08 81 4a 00 01 91 4b 7f 0a 81 4b  ...J...J...K...K
000074c0: 00 01 91 4c 7f 1c 81 4c 00 50 91 51 7f 30 81 51  ...L...L.P.Q.0.Q
000074d0: 00 0c e1 00 40 04 e1 00 42 00 91 51 7f 01 e1 00  ....@...B..Q....
000074e0: 42 02 e1 00 44 01 e1 00 44 04 e1 00 46 03 e1 00  B...D...D...F...
000074f0: 46 01 e1 00 48 04 e1 00 48 01 e1 00 4a 02 e1 00  F...H...H...J...
00007500: 4a 00 81 51 00 01 e1 00 48 04 e1 00 44 00 91 53  J..Q....H...D..S
00007510: 7f 01 e1 00 40 12 81 53 00 11 e1 00 42 04 e1 00  ....@..S....B...
00007520: 44 00 91 51 7f 01 e1 00 46 02 e1 00 48 01 e1 00  D..Q....F...H...
00007530: 4a 04 e1 00 4a 00 91 53 7f 00 81 51 00 01 e1 00  J...J..S...Q....
00007540: 4a 02 e1 00 48 01 e1 00 46 04 e1 00 44 01 e1 00  J...H...F...D...
00007550: 42 02 e1 00 40 1d 81 53 00 0c e1 00 42 04 e1 00  B...@..S....B...
00007560: 44 00 91 51 7f 01 e1 00 46 02 e1 00 46 01 e1 00  D..Q....F...F...
00007570: 48 04 e1 00 4a 01 e1 00 4a 02 e1 00 48 01 e1 00  H...J...J...H...
00007580: 46 04 e1 00 44 00 81 51 00 01 e1 00 42 02 e1 00  F...D..Q....B...
00007590: 40 00 91 53 7f 1d e1 00 40 0c e1 00 3e 0c e1 00  @..S....@...>...
000075a0: 3e 08 e1 00 3c 08 e1 00 3c 08 e1 00 3a 03 e1 00  >...<...<...:...
000075b0: 3a 05 e1 00 38 03 e1 00 38 05 e1 00 36 00 81 53  :...8...8...6..S
000075c0: 00 01 e1 00 38 02 e1 00 3a 01 e1 00 3a 04 e1 00  ....8...:...:...
000075d0: 3c 01 e1 00 3c 02 e1 00 3e 01 e1 00 40 04 91 51  <...<...>...@..Q
000075e0: 7f 30 81 51 00 10 e1 00 40 00 91 4f 7f 03 e1 00  .0.Q....@..O....
000075f0: 42 08 e1 00 42 08 e1 00 44 08 e1 00 44 08 e1 00  B...B...D...D...
00007600: 46 08 e1 00 46 06 e1 00 46 03 e1 00 44 05 e1 00  F...F...F...D...
00007610: 44 02 81 4f 00 05 e1 00 42 00 91 50 7f 03 e1 00  D..O....B..P....
00007620: 42 05 e1 00 40 04 e1 00 40 24 81 50 00 82 2c e1  B...@...@$.P..,.
00007630: 00 42 04 e1 00 46 00 91 51 7f 01 e1 00 48 02 e1  .B...F..Q....H..
00007640: 00 4a 01 e1 00 48 04 e1 00 46 00 91 53 7f 00 81  .J...H...F..S...
00007650: 51 00 01 e1 00 44 02 e1 00 42 01 e1 00 40 05 e1  Q....D...B...@..
00007660: 00 40 3f 81 53 00 0c e1 00 42 04 e1 00 44 00 91  .@?.S....B...D..
00007670: 51 7f 01 e1 00 46 02 e1 00 48 01 e1 00 4a 04 e1  Q....F...H...J..
00007680: 00 48 00 81 51 00 01 e1 00 44 02 e1 00 40 00 91  .H..Q....D...@..
00007690: 53 7f 05 e1 00 40 0b 81 53 00 21 e1 00 40 04 e1  S....@..S.!..@..
000076a0: 00 42 00 91 51 7f 01 e1 00 44 02 e1 00 46 01 e1  .B..Q....D...F..
000076b0: 00 48 04 e1 00 4a 01 e1 00 4a 02 e1 00 4a 01 e1  .H...J...J...J..
000076c0: 00 48 04 e1 00 46 00 81 51 00 01 e1 00 44 02 e1  .H...F..Q....D..
000076d0: 00 44 00 91 54 7f 01 e1 00 42 04 e1 00 40 01 81  .D..T....B...@..
000076e0: 54 00 02 e1 00 40 01 91 53 7f 34 81 53 00 0c e1  T....@..S.4.S...
000076f0: 00 40 04 e1 00 42 00 91 51 7f 01 e1 00 44 02 e1  .@...B..Q....D..
00007700: 00 44 01 e1 00 46 04 e1 00 48 01 e1 00 48 02 e1  .D...F...H...H..
00007710: 00 48 01 e1 00 46 04 e1 00 44 00 81 51 00 01 e1  .H...F...D..Q...
00007720: 00 44 02 e1 00 42 00 91 54 7f 01 e1 00 40 05 e1  .D...B..T....@..
00007730: 00 40 02 81 54 00 05 91 53 7f 30 81 53 00 10 91  .@..T...S.0.S...
00007740: 4f 7f 30 81 4f 00 10 e1 00 40 00 91 51 7f 04 e1  O.0.O....@..Q...
00007750: 00 42 0c e1 00 42 09 e1 00 44 0a e1 00 44 06 e1  .B...B...D...D..
00007760: 00 44 03 e1 00 42 04 e1 00 42 00 81 51 00 03 e1  .D...B...B..Q...
00007770: 00 40 0d 91 51 7f 08 81 51 00 01 91 54 7f 07 81  .@..Q...Q...T...
00007780: 54 00 03 91 53 7f 1d 81 53 00 10 91 51 7f 70 81  T...S...S...Q.p.
00007790: 51 00 10 91 4f 7f 10 81 4f 00 10 91 4c 7f 10 81  Q...O...O...L...
000077a0: 4c 00 10 e1 00 40 00 91 4c 7f 01 e1 00 42 03 e1  L....@..L....B..
000077b0: 00 42 05 e1 00 44 03 e1 00 44 04 e1 00 44 03 e1  .B...D...D...D..
000077c0: 00 42 05 e1 00 42 01 e1 00 40 03 e1 00 40 04 e1  .B...B...@...@..
000077d0: 00 3e 03 e1 00 3e 05 e1 00 3c 01 e1 00 3e 03 e1  .>...>...<...>..
000077e0: 00 3e 04 e1 00 40 01 e1 00 40 03 e1 00 42 04 e1  .>...@...@...B..
000077f0: 00 42 01 e1 00 44 03 e1 00 44 04 e1 00 44 03 e1  .B...D...D...D..
00007800: 00 42 01 e1 00 42 04 e1 00 40 03 e1 00 40 01 e1  .B...B...@...@..
00007810: 00 3e 04 e1 00 3e 03 e1 00 3c 01 e1 00 3e 04 e1  .>...>...<...>..
00007820: 00 3e 03 e1 00 40 01 e1 00 40 04 e1 00 42 01 e1  .>...@...@...B..
00007830: 00 42 03 e1 00 44 04 e1 00 44 01 e1 00 44 02 e1  .B...D...D...D..
00007840: 00 42 01 e1 00 42 04 e1 00 40 01 e1 00 40 02 e1  .B...B...@...@..
00007850: 00 3e 01 e1 00 3e 04 e1 00 3c 01 e1 00 3e 03 e1  .>...>...<...>..
00007860: 00 3e 04 e1 00 40 01 e1 00 40 03 e1 00 42 04 e1  .>...@...@...B..
00007870: 00 42 01 e1 00 42 02 e1 00 40 01 e1 00 40 04 e1  .B...B...@...@..
00007880: 00 3e 01 e1 00 3c 02 e1 00 3c 01 e1 00 3a 04 e1  .>...<...<...:..
00007890: 00 3c 01 e1 00 3e 02 e1 00 3e 01 e1 00 40 04 e1  .<...>...>...@..
000078a0: 00 40 00 81 4c 00 03 e1 00 40 1d 91 4f 7f 30 81  .@..L....@..O.0.
000078b0: 4f 00 10 91 51 7f 10 81 51 00 01 91 52 7f 0b 81  O...Q...Q...R...
000078c0: 52 00 04 91 53 7f 10 81 53 00 10 91 51 7f 08 81  R...S...S...Q...
000078d0: 51 00 01 91 52 7f 07 81 52 00 01 91 53 7f 1f 81  Q...R...R...S...
000078e0: 53 00 0c e1 00 42 04 e1 00 44 00 91 51 7f 01 e1  S....B...D..Q...
000078f0: 00 46 02 e1 00 48 01 e1 00 4a 04 e1 00 4a 00 81  .F...H...J...J..
00007900: 51 00 01 e1 00 48 02 e1 00 44 00 91 53 7f 01 e1  Q....H...D..S...
00007910: 00 40 24 81 53 00 10 91 51 7f 10 81 51 00 10 91  .@$.S...Q...Q...
00007920: 4f 7f 10 81 4f 00 10 91 4c 7f 10 81 4c 00 10 91  O...O...L...L...
00007930: 4c 7f 1c e1 00 40 05 e1 00 42 03 e1 00 42 05 e1  L....@...B...B..
00007940: 00 44 03 e1 00 44 05 e1 00 44 02 e1 00 42 01 e1  .D...D...D...B..
00007950: 00 42 04 e1 00 40 01 e1 00 3e 02 e1 00 3e 01 e1  .B...@...>...>..
00007960: 00 3c 04 e1 00 3c 01 e1 00 3a 02 e1 00 3c 01 e1  .<...<...:...<..
00007970: 00 3c 04 e1 00 3e 01 e1 00 3e 02 e1 00 40 01 e1  .<...>...>...@..
00007980: 00 40 04 e1 00 42 01 e1 00 42 02 e1 00 44 01 e1  .@...B...B...D..
00007990: 00 44 04 e1 00 44 01 e1 00 42 02 e1 00 42 01 e1  .D...D...B...B..
000079a0: 00 40 04 e1 00 3e 01 e1 00 3e 02 e1 00 3c 01 e1  .@...>...>...<..
000079b0: 00 3e 04 e1 00 3e 01 e1 00 40 02 e1 00 40 05 e1  .>...>...@...@..
000079c0: 00 42 01 e1 00 42 02 e1 00 44 01 e1 00 44 04 e1  .B...B...D...D..
000079d0: 00 42 01 e1 00 40 02 e1 00 3e 01 e1 00 3c 04 e1  .B...@...>...<..
000079e0: 00 3a 01 e1 00 3a 02 e1 00 3c 01 e1 00 3e 04 e1  .:...:...<...>..
000079f0: 00 40 08 81 4c 00 10 91 4f 7f 01 e1 00 40 08 e1  .@..L...O....@..
00007a00: 00 42 0f e1 00 42 09 e1 00 44 03 e1 00 44 05 e1  .B...B...D...D..
00007a10: 00 46 03 e1 00 46 04 e1 00 46 00 81 4f 00 01 e1  .F...F...F..O...
00007a20: 00 44 02 e1 00 42 01 e1 00 40 05 e1 00 40 00 e1  .D...B...@...@..
00007a30: 00 40 82 07 91 47 7f 10 81 47 00 0b e1 00 40 05  .@...G...G....@.
00007a40: e1 00 42 00 91 4a 7f 03 e1 00 42 05 e1 00 44 04  ..B..J....B...D.
00007a50: e1 00 44 05 e1 00 46 03 e1 00 46 05 e1 00 46 00  ..D...F...F...F.
00007a60: 81 4a 00 02 e1 00 44 01 e1 00 42 04 e1 00 40 00  .J....D...B...@.
00007a70: 91 4b 7f 03 e1 00 40 0d 81 4b 00 10 91 4c 7f 10  .K....@..K...L..
00007a80: 81 4c 00 10 91 4f 7f 70 81 4f 00 10 91 4c 7f 10  .L...O.p.O...L..
00007a90: 81 4c 00 10 91 47 7f 10 81 47 00 10 91 4a 7f 30  .L...G...G...J.0
00007aa0: 81 4a 00 10 91 47 7f 30 81 47 00 0c e1 00 42 04  .J...G.0.G....B.
00007ab0: e1 00 44 00 91 45 7f 01 e1 00 46 02 e1 00 48 01  ..D..E....F...H.
00007ac0: e1 00 4a 04 e1 00 4a 00 81 45 00 01 e1 00 48 02  ..J...J..E....H.
00007ad0: e1 00 46 01 e1 00 44 00 91 47 7f 04 e1 00 42 01  ..F...D..G....B.
00007ae0: e1 00 40 03 e1 00 40 1c 81 47 00 10 91 45 7f 30  ..@...@..G...E.0
00007af0: 81 45 00 10 91 43 7f 30 81 43 00 10 91 40 7f 30  .E...C.0.C...@.0
00007b00: 81 40 00 10 e1 00 40 00 91 40 7f 01 e1 00 42 03  .@....@..@....B.
00007b10: e1 00 42 04 e1 00 44 03 e1 00 44 01 e1 00 46 05  ..B...D...D...F.
00007b20: e1 00 46 02 e1 00 46 01 e1 00 44 05 e1 00 44 02  ..F...F...D...D.
00007b30: e1 00 42 01 e1 00 42 05 e1 00 40 02 e1 00 40 01  ..B...B...@...@.
00007b40: e1 00 3e 05 e1 00 3e 02 e1 00 3c 01 e1 00 3e 04  ..>...>...<...>.
00007b50: e1 00 3e 01 e1 00 40 02 e1 00 40 05 e1 00 42 01  ..>...@...@...B.
00007b60: e1 00 42 02 e1 00 44 01 e1 00 44 04 e1 00 44 01  ..B...D...D...D.
00007b70: e1 00 42 02 e1 00 40 01 e1 00 40 04 e1 00 3e 01  ..B...@...@...>.
00007b80: e1 00 3c 02 e1 00 3c 01 e1 00 3a 04 e1 00 38 01  ..<...<...:...8.
00007b90: e1 00 3a 02 e1 00 3c 01 e1 00 3c 04 e1 00 3e 01  ..:...<...<...>.
00007ba0: e1 00 40 02 e1 00 40 01 e1 00 42 04 e1 00 44 01  ..@...@...B...D.
00007bb0: e1 00 44 02 e1 00 44 01 e1 00 42 04 e1 00 40 01  ..D...D...B...@.
00007bc0: e1 00 3e 02 e1 00 3c 01 e1 00 3a 04 e1 00 3c 01  ..>...<...:...<.
00007bd0: e1 00 3e 02 e1 00 40 01 e1 00 42 04 e1 00 44 01  ..>...@...B...D.
00007be0: e1 00 46 02 e1 00 46 01 e1 00 46 04 e1 00 44 01  ..F...F...F...D.
00007bf0: e1 00 42 02 e1 00 40 01 e1 00 40 04 e1 00 3e 01  ..B...@...@...>.
00007c00: e1 00 3c 03 e1 00 3e 04 81 40 00 01 e1 00 3e 03  ..<...>..@....>.
00007c10: e1 00 40 05 e1 00 40 07 e1 00 40 20 91 43 7f 08  ..@...@...@ .C..
00007c20: 81 43 00 03 91 44 7f 25 81 44 00 10 91 47 7f 30  .C...D.%.D...G.0
00007c30: 81 47 00 10 91 47 7f 03 91 4c 7f 2d 81 4c 00 00  .G...G...L.-.L..
00007c40: 81 47 00 10 91 4e 7f 08 91 4f 7f 00 81 4e 00 09  .G...N...O...N..
00007c50: 81 4f 00 03 91 50 7f 20 81 50 00 0c 91 4c 7f 30  .O...P. .P...L.0
00007c60: 81 4c 00 10 91 47 7f 30 81 47 00 10 91 4e 7f 08  .L...G.0.G...N..
00007c70: 91 4f 7f 00 81 4e 00 0b 81 4f 00 06 91 50 7f 22  .O...N...O...P."
00007c80: 81 50 00 05 91 4c 7f 30 81 4c 00 10 91 47 7f 30  .P...L.0.L...G.0
00007c90: 81 47 00 10 91 4e 7f 10 81 4e 00 03 91 4f 7f 10  .G...N...N...O..
00007ca0: 81 4f 00 05 91 50 7f 31 81 50 00 07 91 4c 7f 10  .O...P.1.P...L..
00007cb0: 81 4c 00 10 91 47 7f 30 81 47 00 10 91 4a 7f 10  .L...G.0.G...J..
00007cc0: 81 4a 00 03 e1 00 40 01 91 4c 7f 04 e1 00 42 03  .J....@..L....B.
00007cd0: e1 00 42 05 e1 00 44 03 e1 00 44 01 e1 00 44 05  ..B...D...D...D.
00007ce0: e1 00 42 02 e1 00 42 01 e1 00 40 05 e1 00 40 02  ..B...B...@...@.
00007cf0: e1 00 3e 01 e1 00 3e 05 e1 00 3c 02 e1 00 3e 01  ..>...>...<...>.
00007d00: e1 00 3e 04 e1 00 40 01 e1 00 40 03 e1 00 42 04  ..>...@...@...B.
00007d10: e1 00 42 01 e1 00 44 02 e1 00 44 01 e1 00 44 05  ..B...D...D...D.
00007d20: e1 00 42 02 e1 00 42 01 e1 00 40 05 e1 00 40 02  ..B...B...@...@.
00007d30: e1 00 3e 01 e1 00 3e 05 e1 00 3c 02 e1 00 3e 05  ..>...>...<...>.
00007d40: e1 00 3e 01 e1 00 40 02 e1 00 40 05 e1 00 42 01  ..>...@...@...B.
00007d50: e1 00 42 02 e1 00 44 05 e1 00 44 01 e1 00 44 02  ..B...D...D...D.
00007d60: e1 00 42 01 e1 00 42 04 e1 00 40 01 e1 00 3e 02  ..B...B...@...>.
00007d70: e1 00 3e 01 e1 00 3c 04 e1 00 3e 01 e1 00 3e 03  ..>...<...>...>.
00007d80: e1 00 40 04 e1 00 40 01 e1 00 42 02 e1 00 42 05  ..@...@...B...B.
00007d90: e1 00 44 01 e1 00 44 02 e1 00 44 01 e1 00 42 05  ..D...D...D...B.
00007da0: e1 00 42 02 e1 00 40 05 e1 00 40 08 81 4c 00 10  ..B...@...@..L..
00007db0: 91 4c 7f 30 81 4c 00 04 91 4a 7f 2c 81 4a 00 04  .L.0.L...J.,.J..
00007dc0: 91 47 7f 28 e1 00 40 00 81 47 00 04 e1 00 42 00  .G.(..@..G....B.
00007dd0: 91 45 7f 01 e1 00 42 02 e1 00 44 01 e1 00 46 04  .E....B...D...F.
00007de0: e1 00 46 01 e1 00 48 02 e1 00 48 01 e1 00 4a 04  ..F...H...H...J.
00007df0: e1 00 4a 00 81 45 00 01 e1 00 48 02 e1 00 46 01  ..J..E....H...F.
00007e00: e1 00 44 00 91 47 7f 04 e1 00 40 03 e1 00 40 00  ..D..G....@...@.
00007e10: e1 00 40 15 91 45 7f 00 81 47 00 30 81 45 00 03  ..@..E...G.0.E..
00007e20: 91 43 7f 2d 81 43 00 01 e1 00 40 02 e1 00 42 00  .C.-.C....@...B.
00007e30: 91 40 7f 01 e1 00 42 04 e1 00 44 01 e1 00 44 02  .@....B...D...D.
00007e40: e1 00 46 01 e1 00 46 04 e1 00 46 01 e1 00 44 02  ..F...F...F...D.
00007e50: e1 00 42 01 e1 00 42 04 e1 00 40 01 e1 00 40 02  ..B...B...@...@.
00007e60: e1 00 3e 01 e1 00 3c 04 e1 00 3e 01 e1 00 3e 02  ..>...<...>...>.
00007e70: e1 00 40 01 e1 00 40 04 e1 00 42 01 e1 00 42 02  ..@...@...B...B.
00007e80: e1 00 44 01 e1 00 44 04 e1 00 44 01 e1 00 42 02  ..D...D...D...B.
00007e90: e1 00 42 01 e1 00 40 04 e1 00 40 01 e1 00 3e 02  ..B...@...@...>.
00007ea0: e1 00 3e 01 e1 00 3c 04 e1 00 3e 01 e1 00 40 02  ..>...<...>...@.
00007eb0: e1 00 40 01 e1 00 42 04 e1 00 42 01 e1 00 44 02  ..@...B...B...D.
00007ec0: e1 00 46 01 e1 00 46 04 e1 00 46 01 e1 00 44 02  ..F...F...F...D.
00007ed0: e1 00 42 01 e1 00 42 04 e1 00 40 01 e1 00 40 02  ..B...B...@...@.
00007ee0: e1 00 3e 01 e1 00 3c 04 e1 00 3e 01 e1 00 40 02  ..>...<...>...@.
00007ef0: e1 00 40 01 e1 00 42 04 e1 00 42 01 e1 00 44 02  ..@...B...B...D.
00007f00: e1 00 46 01 e1 00 46 04 e1 00 46 01 e1 00 44 02  ..F...F...F...D.
00007f10: e1 00 42 01 e1 00 40 04 e1 00 40 01 e1 00 3e 02  ..B...@...@...>.
00007f20: e1 00 3c 01 e1 00 3a 04 e1 00 3c 01 e1 00 3e 02  ..<...:...<...>.
00007f30: e1 00 40 01 e1 00 40 04 e1 00 42 01 e1 00 44 02  ..@...@...B...D.
00007f40: e1 00 46 01 e1 00 46 04 e1 00 44 01 e1 00 42 02  ..F...F...D...B.
00007f50: e1 00 40 00 81 40 00 05 e1 00 40 48 91 40 7f 30  ..@..@....@H.@.0
00007f60: 81 40 00 0c e1 00 42 04 e1 00 44 00 91 45 7f 01  .@....B...D..E..
00007f70: e1 00 46 02 e1 00 48 01 e1 00 4a 04 e1 00 4a 00  ..F...H...J...J.
00007f80: 81 45 00 01 e1 00 40 02 91 47 7f 01 e1 00 40 00  .E....@..G....@.
00007f90: e1 00 40 30 e1 00 40 04 e1 00 42 00 91 4a 7f 01  ..@0..@...B..J..
00007fa0: e1 00 42 02 e1 00 44 01 e1 00 44 04 e1 00 44 01  ..B...D...D...D.
00007fb0: e1 00 42 02 e1 00 40 01 e1 00 40 04 e1 00 3e 01  ..B...@...@...>.
00007fc0: e1 00 3e 02 e1 00 3c 01 e1 00 3a 04 e1 00 3c 01  ..>...<...:...<.
00007fd0: e1 00 3e 02 e1 00 3e 01 e1 00 40 04 e1 00 40 01  ..>...>...@...@.
00007fe0: e1 00 42 02 e1 00 44 01 e1 00 44 04 e1 00 44 01  ..B...D...D...D.
00007ff0: e1 00 42 02 e1 00 42 01 e1 00 40 04 e1 00 3e 01  ..B...B...@...>.
00008000: e1 00 3e 02 e1 00 3c 01 e1 00 3e 04 e1 00 40 01  ..>...<...>...@.
00008010: e1 00 40 02 e1 00 42 01 e1 00 44 04 e1 00 44 01  ..@...B...D...D.
00008020: e1 00 44 02 e1 00 42 01 e1 00 40 04 e1 00 40 01  ..D...B...@...@.
00008030: e1 00 3e 02 e1 00 3c 01 e1 00 3e 04 e1 00 3e 01  ..>...<...>...>.
00008040: e1 00 40 02 e1 00 42 01 e1 00 42 04 e1 00 44 01  ..@...B...B...D.
00008050: e1 00 44 02 e1 00 44 01 e1 00 42 04 e1 00 42 01  ..D...D...B...B.
00008060: e1 00 40 02 e1 00 3e 01 e1 00 3e 04 e1 00 3c 01  ..@...>...>...<.
00008070: e1 00 3e 02 e1 00 40 01 e1 00 40 04 81 4a 00 00  ..>...@...@..J..
00008080: 81 47 00 01 e1 00 40 02 e1 00 40 0d e1 00 42 00  .G....@...@...B.
00008090: 91 45 7f 01 e1 00 44 02 e1 00 46 01 e1 00 48 04  .E....D...F...H.
000080a0: e1 00 4a 00 91 47 7f 00 81 45 00 01 e1 00 40 03  ..J..G...E....@.
000080b0: e1 00 40 00 e1 00 40 34 e1 00 40 00 91 4a 7f 01  ..@...@4..@..J..
000080c0: e1 00 42 02 e1 00 42 01 e1 00 44 04 e1 00 44 01  ..B...B...D...D.
000080d0: e1 00 46 02 e1 00 46 01 e1 00 42 04 e1 00 3a 01  ..F...F...B...:.
000080e0: e1 00 3c 02 e1 00 3e 01 e1 00 40 04 e1 00 40 01  ..<...>...@...@.
000080f0: e1 00 42 02 e1 00 44 01 e1 00 46 04 e1 00 46 01  ..B...D...F...F.
00008100: e1 00 42 02 e1 00 3a 01 e1 00 3c 04 e1 00 3e 01  ..B...:...<...>.
00008110: e1 00 40 02 e1 00 42 01 e1 00 42 04 e1 00 40 00  ..@...B...B...@.
00008120: 81 4a 00 09 e1 00 40 02 e1 00 42 01 e1 00 42 04  .J....@...B...B.
00008130: e1 00 44 00 91 4a 7f 01 e1 00 44 02 e1 00 46 01  ..D..J....D...F.
00008140: e1 00 46 04 e1 00 44 01 e1 00 40 02 e1 00 3a 01  ..F...D...@...:.
00008150: e1 00 3c 04 e1 00 3e 01 e1 00 40 02 e1 00 40 01  ..<...>...@...@.
00008160: e1 00 42 04 e1 00 44 01 e1 00 44 02 e1 00 44 01  ..B...D...D...D.
00008170: e1 00 42 04 e1 00 40 01 e1 00 3e 02 e1 00 3c 01  ..B...@...>...<.
00008180: e1 00 3e 04 e1 00 3e 01 e1 00 40 02 e1 00 40 05  ..>...>...@...@.
00008190: e1 00 40 00 81 4a 00 0c e1 00 42 04 e1 00 44 00  ..@..J....B...D.
000081a0: 91 45 7f 00 81 47 00 01 e1 00 46 02 e1 00 48 01  .E...G....F...H.
000081b0: e1 00 4a 04 e1 00 4a 00 81 45 00 01 e1 00 40 00  ..J...J..E....@.
000081c0: 91 47 7f 03 e1 00 40 00 e1 00 40 05 81 47 00 02  .G....@...@..G..
000081d0: 91 45 7f 1d 81 45 00 10 91 43 7f 30 81 43 00 10  .E...E...C.0.C..
000081e0: 91 40 7f 10 81 40 00 10 91 3e 7f 10 81 3e 00 10  .@...@...>...>..
000081f0: 91 3e 7f 50 81 3e 00 0c e1 00 40 04 91 56 7f 01  .>.P.>....@..V..
00008200: e1 00 42 03 e1 00 42 05 e1 00 44 03 e1 00 44 05  ..B...B...D...D.
00008210: e1 00 46 03 e1 00 46 05 e1 00 48 03 e1 00 48 05  ..F...F...H...H.
00008220: e1 00 4a 03 e1 00 4a 04 e1 00 48 00 81 56 00 01  ..J...J...H..V..
00008230: e1 00 46 02 e1 00 44 01 e1 00 42 04 e1 00 40 00  ..F...D...B...@.
00008240: 91 58 7f 03 e1 00 40 00 e1 00 40 28 81 58 00 01  .X....@...@(.X..
00008250: e1 00 42 04 e1 00 44 00 91 51 7f 01 e1 00 46 02  ..B...D..Q....F.
00008260: e1 00 48 01 e1 00 4a 04 e1 00 4a 00 81 51 00 01  ..H...J...J..Q..
00008270: e1 00 48 02 e1 00 44 00 91 53 7f 01 e1 00 40 05  ..H...D..S....@.
00008280: e1 00 40 00 e1 00 40 1f 81 53 00 10 91 51 7f 10  ..@...@..S...Q..
00008290: 81 51 00 10 91 4f 7f 5c e1 00 40 04 e1 00 42 00  .Q...O.\..@...B.
000082a0: 81 4f 00 01 e1 00 44 02 e1 00 44 00 91 56 7f 01  .O....D...D..V..
000082b0: e1 00 46 04 e1 00 48 01 e1 00 48 02 e1 00 4a 01  ..F...H...H...J.
000082c0: e1 00 4c 04 e1 00 4c 01 e1 00 48 02 e1 00 40 00  ..L...L...H...@.
000082d0: 81 56 00 05 e1 00 40 00 e1 00 40 00 91 58 7f 40  .V....@...@..X.@
000082e0: 81 58 00 04 e1 00 40 04 e1 00 42 00 91 51 7f 01  .X....@...B..Q..
000082f0: e1 00 42 02 e1 00 44 01 e1 00 46 04 e1 00 46 01  ..B...D...F...F.
00008300: e1 00 48 02 e1 00 48 01 e1 00 4a 04 e1 00 4a 00  ..H...H...J...J.
00008310: 81 51 00 01 e1 00 48 02 e1 00 44 00 91 53 7f 01  .Q....H...D..S..
00008320: e1 00 40 05 e1 00 40 00 e1 00 40 37 81 53 00 10  ..@...@...@7.S..
00008330: 91 51 7f 50 81 51 00 10 91 4f 7f 10 81 4f 00 10  .Q.P.Q...O...O..
00008340: 91 4c 7f 30 81 4c 00 0b e1 00 40 05 e1 00 42 00  .L.0.L....@...B.
00008350: 91 4c 7f 03 e1 00 42 05 e1 00 44 03 e1 00 44 01  .L....B...D...D.
00008360: e1 00 44 04 e1 00 42 01 e1 00 42 02 e1 00 40 05  ..D...B...B...@.
00008370: e1 00 40 01 e1 00 3e 02 e1 00 3e 01 e1 00 3c 04  ..@...>...>...<.
00008380: e1 00 3e 01 e1 00 3e 02 e1 00 40 01 e1 00 40 04  ..>...>...@...@.
00008390: e1 00 42 01 e1 00 42 02 e1 00 44 01 e1 00 44 04  ..B...B...D...D.
000083a0: e1 00 44 01 e1 00 42 02 e1 00 42 01 e1 00 40 05  ..D...B...B...@.
000083b0: e1 00 40 02 e1 00 3e 01 e1 00 3e 04 e1 00 3c 01  ..@...>...>...<.
000083c0: e1 00 3e 02 e1 00 3e 01 e1 00 40 04 e1 00 40 03  ..>...>...@...@.
000083d0: e1 00 42 01 e1 00 42 04 e1 00 44 01 e1 00 44 02  ..B...B...D...D.
000083e0: e1 00 44 01 e1 00 42 04 e1 00 40 01 e1 00 40 02  ..D...B...@...@.
000083f0: e1 00 3e 01 e1 00 3e 04 e1 00 3c 01 e1 00 3a 02  ..>...>...<...:.
00008400: e1 00 3c 01 e1 00 3e 04 e1 00 40 01 e1 00 40 02  ..<...>...@...@.
00008410: e1 00 42 01 e1 00 44 04 e1 00 46 01 e1 00 46 02  ..B...D...F...F.
00008420: e1 00 46 01 e1 00 44 04 e1 00 42 01 e1 00 40 02  ..F...D...B...@.
00008430: e1 00 40 01 e1 00 3e 04 e1 00 3c 01 e1 00 3c 02  ..@...>...<...<.
00008440: e1 00 3e 01 e1 00 40 04 e1 00 42 01 e1 00 44 02  ..>...@...B...D.
00008450: e1 00 44 01 e1 00 44 04 e1 00 42 01 e1 00 42 02  ..D...D...B...B.
00008460: e1 00 40 01 e1 00 40 04 e1 00 3e 03 e1 00 40 05  ..@...@...>...@.
00008470: e1 00 40 00 81 4c 00 04 e1 00 40 0c 91 45 7f 08  ..@..L....@..E..
00008480: 81 45 00 08 91 45 7f 08 81 45 00 01 91 46 7f 0a  .E...E...E...F..
00008490: 81 46 00 06 91 47 7f 27 91 4a 7f 30 81 4a 00 10  .F...G.'.J.0.J..
000084a0: 91 4a 7f 30 81 4a 00 10 91 4a 7f 30 81 4a 00 10  .J.0.J...J.0.J..
000084b0: 91 4a 7f 30 81 4a 00 10 91 4a 7f 30 81 4a 00 09  .J.0.J...J.0.J..
000084c0: 81 47 00 08 91 47 7f 07 81 47 00 03 91 46 7f 09  .G...G...G...F..
000084d0: 81 46 00 05 91 45 7f 22 81 45 00 05 91 43 7f 30  .F...E.".E...C.0
000084e0: 81 43 00 10 91 40 7f 30 81 40 00 0c e1 00 40 04  .C...@.0.@....@.
000084f0: e1 00 42 00 91 43 7f 01 e1 00 44 02 e1 00 44 01  ..B..C....D...D.
00008500: e1 00 46 04 e1 00 46 00 81 43 00 01 e1 00 46 02  ..F...F..C....F.
00008510: e1 00 44 00 91 44 7f 01 e1 00 44 04 e1 00 42 01  ..D..D....D...B.
00008520: e1 00 40 02 e1 00 40 00 81 44 00 01 e1 00 3e 04  ..@...@..D....>.
00008530: e1 00 3e 00 91 43 7f 01 e1 00 3c 02 e1 00 3e 01  ..>..C....<...>.
00008540: e1 00 40 04 e1 00 40 01 e1 00 42 02 e1 00 44 01  ..@...@...B...D.
00008550: e1 00 44 04 e1 00 44 01 e1 00 42 02 e1 00 42 01  ..D...D...B...B.
00008560: e1 00 40 04 e1 00 3e 01 e1 00 3e 02 e1 00 3c 01  ..@...>...>...<.
00008570: e1 00 3e 04 e1 00 40 01 e1 00 42 02 e1 00 44 01  ..>...@...B...D.
00008580: e1 00 46 04 e1 00 46 01 e1 00 46 02 e1 00 44 01  ..F...F...F...D.
00008590: e1 00 42 04 e1 00 40 01 e1 00 40 02 e1 00 3e 01  ..B...@...@...>.
000085a0: e1 00 3c 04 e1 00 3e 01 e1 00 40 02 e1 00 42 01  ..<...>...@...B.
000085b0: e1 00 44 04 e1 00 44 01 e1 00 44 03 e1 00 42 04  ..D...D...D...B.
000085c0: e1 00 42 03 e1 00 40 05 e1 00 40 08 81 43 00 10  ..B...@...@..C..
000085d0: 91 4c 7f 30 81 4c 00 10 91 39 7f 30 81 39 00 10  .L.0.L...9.0.9..
000085e0: 91 3a 7f 30 81 3a 00 10 91 3b 7f 30 81 3b 00 10  .:.0.:...;.0.;..
000085f0: 91 3b 7f 70 81 3b 00 10 91 3f 7f 00 91 4e 7f 00  .;.p.;...?...N..
00008600: 91 47 7f 00 91 45 7f 70 81 45 00 00 81 3f 00 00  .G...E.p.E...?..
00008610: 81 4e 00 00 81 47 00 10 91 3f 7f 00 91 45 7f 00  .N...G...?...E..
00008620: 91 47 7f 70 81 47 00 00 81 45 00 00 81 3f 00 10  .G.p.G...E...?..
00008630: 91 3b 7f 00 91 34 7f 70 81 34 00 00 81 3b 00 10  .;...4.p.4...;..
00008640: 91 34 7f 00 91 3b 7f 30 81 3b 00 00 81 34 00 10  .4...;.0.;...4..
00008650: 91 34 7f 00 91 3d 7f 68 81 3d 00 00 81 34 00 08  .4...=.h.=...4..
00008660: 91 34 7f 00 91 3d 7f 30 81 3d 00 00 81 34 00 20  .4...=.0.=...4. 
00008670: 91 3e 7f 03 91 34 7f 6d 81 3e 00 03 81 34 00 0d  .>...4.m.>...4..
00008680: 91 34 7f 00 91 3e 7f 30 81 3e 00 00 81 34 00 10  .4...>.0.>...4..
00008690: 91 3d 7f 00 91 34 7f 70 81 34 00 00 81 3d 00 10  .=...4.p.4...=..
000086a0: 91 34 7f 00 91 3d 7f 30 81 3d 00 00 81 34 00 10  .4...=.0.=...4..
000086b0: 91 39 7f 00 91 40 7f 70 81 40 00 00 81 39 00 10  .9...@.p.@...9..
000086c0: 91 39 7f 00 91 40 7f 30 81 40 00 00 81 39 00 10  .9...@.0.@...9..
000086d0: 91 42 7f 00 91 39 7f 70 81 39 00 00 81 42 00 10  .B...9.p.9...B..
000086e0: 91 39 7f 00 91 42 7f 30 81 42 00 00 81 39 00 10  .9...B.0.B...9..
000086f0: 91 39 7f 00 91 43 7f 70 81 43 00 00 81 39 00 10  .9...C.p.C...9..
00008700: 91 39 7f 00 91 43 7f 30 81 43 00 00 81 39 00 10  .9...C.0.C...9..
00008710: 91 42 7f 00 91 39 7f 81 10 81 39 00 00 81 42 00  .B...9....9...B.
00008720: 81 30 91 45 7f 10 81 45 00 03 91 46 7f 0d 81 46  .0.E...E...F...F
00008730: 00 01 91 47 7f 50 81 47 00 0f 91 4a 7f 70 81 4a  ...G.P.G...J.p.J
00008740: 00 10 91 4a 7f 70 81 4a 00 10 91 4a 7f 14 81 4a  ...J.p.J...J...J
00008750: 00 04 91 49 7f 08 81 49 00 01 91 48 7f 08 81 48  ...I...I...H...H
00008760: 00 02 91 47 7f 09 81 47 00 05 91 46 7f 08 81 46  ...G...G...F...F
00008770: 00 02 91 45 7f 35 81 45 00 08 91 43 7f 30 81 43  ...E.5.E...C.0.C
00008780: 00 10 91 40 7f 81 30 81 40 00 10 91 4c 7f 70 81  ...@..0.@...L.p.
00008790: 4c 00 10 91 4b 7f 70 81 4b 00 10 91 4a 7f 82 50  L...K.p.K...J..P
000087a0: 81 4a 00 30 91 39 7f 00 91 40 7f 70 81 40 00 00  .J.0.9...@.p.@..
000087b0: 81 39 00 10 91 39 7f 30 81 39 00 10 91 39 7f 00  .9...9.0.9...9..
000087c0: 91 42 7f 70 81 42 00 00 81 39 00 10 91 39 7f 30  .B.p.B...9...9.0
000087d0: 81 39 00 10 91 39 7f 00 91 43 7f 70 81 43 00 00  .9...9...C.p.C..
000087e0: 81 39 00 10 91 39 7f 30 81 39 00 10 91 39 7f 00  .9...9.0.9...9..
000087f0: 91 42 7f 70 81 42 00 00 81 39 00 10 91 39 7f 30  .B.p.B...9...9.0
00008800: 81 39 00 10 91 39 7f 00 91 40 7f 70 81 40 00 00  .9...9...@.p.@..
00008810: 81 39 00 10 91 39 7f 30 81 39 00 10 91 39 7f 00  .9...9.0.9...9..
00008820: 91 42 7f 70 81 42 00 00 81 39 00 10 91 39 7f 30  .B.p.B...9...9.0
00008830: 81 39 00 10 91 39 7f 00 91 43 7f 70 81 43 00 00  .9...9...C.p.C..
00008840: 81 39 00 10 91 39 7f 30 81 39 00 10 91 42 7f 00  .9...9.0.9...B..
00008850: 91 39 7f 70 81 39 00 00 81 42 00 10 91 39 7f 00  .9.p.9...B...9..
00008860: 91 42 7f 30 81 42 00 00 81 39 00 50 91 45 7f 04  .B.0.B...9.P.E..
00008870: 81 45 00 04 91 46 7f 0b 81 46 00 05 91 47 7f 20  .E...F...F...G. 
00008880: 81 47 00 08 91 4a 7f 30 81 4a 00 10 91 4a 7f 31  .G...J.0.J...J.1
00008890: 81 4a 00 0f 91 4a 7f 30 81 4a 00 10 91 4a 7f 30  .J...J.0.J...J.0
000088a0: 81 4a 00 10 91 4a 7f 38 81 4a 00 10 91 4a 7f 28  .J...J.8.J...J.(
000088b0: 81 4a 00 10 91 4a 7f 30 81 4a 00 10 91 47 7f 0b  .J...J.0.J...G..
000088c0: 81 47 00 01 91 46 7f 0c 81 46 00 01 91 45 7f 37  .G...F...F...E.7
000088d0: 81 45 00 10 91 43 7f 10 81 43 00 10 91 40 7f 30  .E...C...C...@.0
000088e0: 81 40 00 0c e1 00 40 04 e1 00 42 00 91 43 7f 01  .@....@...B..C..
000088f0: e1 00 42 02 e1 00 44 01 e1 00 44 04 e1 00 44 01  ..B...D...D...D.
00008900: e1 00 42 02 e1 00 40 00 81 43 00 01 e1 00 40 04  ..B...@..C....@.
00008910: e1 00 3e 00 91 44 7f 01 e1 00 3e 02 e1 00 3c 05  ..>..D....>...<.
00008920: e1 00 3e 01 e1 00 40 00 81 44 00 02 e1 00 42 01  ..>...@..D....B.
00008930: e1 00 44 04 e1 00 46 00 91 43 7f 01 e1 00 46 02  ..D...F..C....F.
00008940: e1 00 44 01 e1 00 42 04 e1 00 40 01 e1 00 3e 02  ..D...B...@...>.
00008950: e1 00 3c 01 e1 00 3a 04 e1 00 3c 01 e1 00 3e 02  ..<...:...<...>.
00008960: e1 00 40 01 e1 00 42 04 e1 00 44 01 e1 00 42 02  ..@...B...D...B.
00008970: e1 00 40 01 e1 00 3e 04 e1 00 3a 01 e1 00 3c 02  ..@...>...:...<.
00008980: e1 00 3e 01 e1 00 40 04 e1 00 42 01 e1 00 44 02  ..>...@...B...D.
00008990: e1 00 44 01 e1 00 44 04 e1 00 42 01 e1 00 40 02  ..D...D...B...@.
000089a0: e1 00 3e 01 e1 00 3c 04 e1 00 3a 01 e1 00 3c 02  ..>...<...:...<.
000089b0: e1 00 3e 01 e1 00 40 04 e1 00 42 01 e1 00 44 02  ..>...@...B...D.
000089c0: e1 00 44 01 e1 00 44 04 e1 00 42 03 e1 00 42 01  ..D...D...B...B.
000089d0: e1 00 40 04 81 43 00 01 e1 00 40 0f 91 4c 7f 70  ..@..C....@..L.p
000089e0: 81 4c 00 10 91 4a 7f 30 81 4a 00 10 91 4c 7f 30  .L...J.0.J...L.0
000089f0: 81 4c 00 0c e1 00 40 04 e1 00 42 00 91 43 7f 01  .L....@...B..C..
00008a00: e1 00 42 03 e1 00 44 04 e1 00 44 01 e1 00 44 02  ..B...D...D...D.
00008a10: e1 00 42 00 81 43 00 01 e1 00 42 04 e1 00 40 00  ..B..C....B...@.
00008a20: 91 44 7f 03 e1 00 40 01 e1 00 3e 04 e1 00 3e 01  .D....@...>...>.
00008a30: e1 00 3c 02 e1 00 3e 00 81 44 00 01 e1 00 3e 04  ..<...>..D....>.
00008a40: 91 43 7f 01 e1 00 40 02 e1 00 40 01 e1 00 42 04  .C....@...@...B.
00008a50: e1 00 42 03 e1 00 44 01 e1 00 44 04 e1 00 44 01  ..B...D...D...D.
00008a60: e1 00 42 02 e1 00 42 01 e1 00 40 04 e1 00 3e 01  ..B...B...@...>.
00008a70: e1 00 3e 02 e1 00 3c 01 e1 00 3e 04 e1 00 3e 01  ..>...<...>...>.
00008a80: e1 00 40 02 e1 00 40 05 e1 00 42 01 e1 00 42 02  ..@...@...B...B.
00008a90: e1 00 44 01 e1 00 44 04 e1 00 44 01 e1 00 42 02  ..D...D...D...B.
00008aa0: e1 00 40 01 e1 00 40 04 e1 00 3e 01 e1 00 3c 02  ..@...@...>...<.
00008ab0: e1 00 3e 05 e1 00 3e 01 e1 00 40 03 e1 00 40 05  ..>...>...@...@.
00008ac0: e1 00 40 00 e1 00 40 07 81 43 00 10 91 4c 7f 81  ..@...@..C...L..
00008ad0: 50 81 4c 00 30 91 3f 7f 70 81 3f 00 10 91 3b 7f  P.L.0.?.p.?...;.
00008ae0: 30 81 3b 00 10 91 3b 7f 30 81 3b 00 10 91 45 7f  0.;...;.0.;...E.
00008af0: 00 91 3e 7f 00 91 47 7f 03 91 4a 7f 10 81 4a 00  ..>...G...J...J.
00008b00: 5d 81 45 00 00 81 3e 00 00 81 47 00 10 91 45 7f  ].E...>...G...E.
00008b10: 00 91 47 7f 00 91 3e 7f 03 91 4a 7f 10 81 4a 00  ..G...>...J...J.
00008b20: 5d 81 45 00 00 81 47 00 00 81 3e 00 10 91 3e 7f  ].E...G...>...>.
00008b30: 00 91 45 7f 00 91 47 7f 03 91 4a 7f 10 81 4a 00  ..E...G...J...J.
00008b40: 5d 81 3e 00 00 81 45 00 00 81 47 00 10 91 3e 7f  ].>...E...G...>.
00008b50: 00 91 45 7f 00 91 47 7f 01 91 4a 7f 10 81 4a 00  ..E...G...J...J.
00008b60: 5f 81 3e 00 00 81 45 00 00 81 47 00 10 91 39 7f  _.>...E...G...9.
00008b70: 81 10 81 39 00 30 91 3c 7f 30 81 3c 00 10 91 3d  ...9.0.<.0.<...=
00008b80: 7f 30 81 3d 00 10 91 40 7f 30 81 40 00 10 91 43  .0.=...@.0.@...C
00008b90: 7f 30 81 43 00 10 91 40 7f 30 81 40 00 10 91 43  .0.C...@.0.@...C
00008ba0: 7f 30 81 43 00 10 91 43 7f 30 81 43 00 0c e1 00  .0.C...C.0.C....
00008bb0: 40 04 e1 00 42 00 91 37 7f 03 e1 00 42 05 e1 00  @...B..7....B...
00008bc0: 44 03 e1 00 44 01 e1 00 44 04 e1 00 42 01 e1 00  D...D...D...B...
00008bd0: 42 02 e1 00 40 01 e1 00 3e 04 e1 00 3e 01 e1 00  B...@...>...>...
00008be0: 3c 02 e1 00 3e 01 e1 00 3e 04 e1 00 40 01 e1 00  <...>...>...@...
00008bf0: 40 03 e1 00 42 04 e1 00 42 01 e1 00 44 02 e1 00  @...B...B...D...
00008c00: 44 01 e1 00 42 04 e1 00 40 01 e1 00 3e 02 e1 00  D...B...@...>...
00008c10: 3c 01 e1 00 3e 04 e1 00 3e 03 e1 00 40 01 e1 00  <...>...>...@...
00008c20: 40 04 e1 00 42 01 e1 00 42 03 e1 00 44 04 e1 00  @...B...B...D...
00008c30: 44 01 e1 00 44 02 e1 00 42 01 e1 00 40 04 e1 00  D...D...B...@...
00008c40: 3e 01 e1 00 3c 02 e1 00 3e 01 e1 00 3e 04 e1 00  >...<...>...>...
00008c50: 40 01 e1 00 42 02 e1 00 42 01 e1 00 44 04 e1 00  @...B...B...D...
00008c60: 44 01 e1 00 44 03 e1 00 42 05 e1 00 42 03 e1 00  D...D...B...B...
00008c70: 40 04 81 37 00 01 e1 00 40 0f 91 34 7f 00 91 40  @..7....@..4...@
00008c80: 7f 10 81 40 00 81 00 81 34 00 30 91 45 7f 0b 81  ...@....4.0.E...
00008c90: 45 00 05 91 47 7f 30 91 47 7f 00 91 4a 7f 00 81  E...G.0.G...J...
00008ca0: 47 00 70 81 4a 00 00 81 47 00 10 91 45 7f 09 81  G.p.J...G...E...
00008cb0: 45 00 02 91 47 7f 25 81 47 00 10 91 4a 7f 00 91  E...G.%.G...J...
00008cc0: 47 7f 70 81 47 00 00 81 4a 00 10 91 47 7f 0b 81  G.p.G...J...G...
00008cd0: 47 00 01 91 45 7f 24 81 45 00 10 91 43 7f 30 81  G...E.$.E...C.0.
00008ce0: 43 00 10 91 40 7f 30 81 40 00 10 91 43 7f 0b 81  C...@.0.@...C...
00008cf0: 43 00 05 91 44 7f 0b 81 44 00 05 91 43 7f 50 81  C...D...D...C.P.
00008d00: 43 00 10 91 4c 7f 70 81 4c 00 10 91 39 7f 30 81  C...L.p.L...9.0.
00008d10: 39 00 10 91 3a 7f 30 81 3a 00 10 91 3b 7f 70 81  9...:.0.:...;.p.
00008d20: 3b 00 10 91 47 7f 00 91 4e 7f 00 91 45 7f 70 81  ;...G...N...E.p.
00008d30: 45 00 00 81 4e 00 00 81 47 00 10 91 47 7f 00 91  E...N...G...G...
00008d40: 45 7f 00 91 3f 7f 70 81 3f 00 00 81 45 00 00 81  E...?.p.?...E...
00008d50: 47 00 10 91 3b 7f 03 91 34 7f 6d 81 3b 00 03 81  G...;...4.m.;...
00008d60: 34 00 09 91 34 7f 30 81 34 00 10 91 3d 7f 00 91  4...4.0.4...=...
00008d70: 34 7f 70 81 34 00 00 81 3d 00 17 91 34 7f 30 81  4.p.4...=...4.0.
00008d80: 34 00 09 91 34 7f 04 91 3e 7f 6c 81 34 00 04 81  4...4...>.l.4...
00008d90: 3e 00 10 91 34 7f 30 81 34 00 10 91 34 7f 01 91  >...4.0.4...4...
00008da0: 3d 7f 6f 81 34 00 01 81 3d 00 0b 91 34 7f 30 81  =.o.4...=...4.0.
00008db0: 34 00 10 91 39 7f 07 91 40 7f 69 81 39 00 07 81  4...9...@.i.9...
00008dc0: 40 00 0d 91 39 7f 30 81 39 00 0c 91 42 7f 07 91  @...9.0.9...B...
00008dd0: 39 7f 69 81 42 00 07 81 39 00 10 91 39 7f 30 81  9.i.B...9...9.0.
00008de0: 39 00 09 91 39 7f 07 91 43 7f 69 81 39 00 07 81  9...9...C.i.9...
00008df0: 43 00 0e 91 39 7f 30 81 39 00 0b 91 42 7f 05 91  C...9.0.9...B...
00008e00: 39 7f 81 0b 81 42 00 05 81 39 00 2f 91 3b 7f 03  9....B...9./.;..
00008e10: 91 34 7f 6d 81 3b 00 03 81 34 00 09 91 34 7f 30  .4.m.;...4...4.0
00008e20: 81 34 00 10 91 3d 7f 00 91 34 7f 70 81 34 00 00  .4...=...4.p.4..
00008e30: 81 3d 00 17 91 34 7f 30 81 34 00 09 91 34 7f 04  .=...4.0.4...4..
00008e40: 91 3e 7f 6c 81 34 00 04 81 3e 00 10 91 34 7f 30  .>.l.4...>...4.0
00008e50: 81 34 00 10 91 34 7f 01 91 3d 7f 6f 81 34 00 01  .4...4...=.o.4..
00008e60: 81 3d 00 0b 91 34 7f 30 81 34 00 10 91 39 7f 07  .=...4.0.4...9..
00008e70: 91 40 7f 69 81 39 00 07 81 40 00 0d 91 39 7f 30  .@.i.9...@...9.0
00008e80: 81 39 00 0c 91 42 7f 07 91 39 7f 69 81 42 00 07  .9...B...9.i.B..
00008e90: 81 39 00 10 91 39 7f 30 81 39 00 09 91 39 7f 07  .9...9.0.9...9..
00008ea0: 91 43 7f 69 81 39 00 07 81 43 00 0e 91 39 7f 30  .C.i.9...C...9.0
00008eb0: 81 39 00 0b 91 42 7f 05 91 39 7f 81 0b 81 42 00  .9...B...9....B.
00008ec0: 05 81 39 00 32 91 39 7f 00 91 40 7f 70 81 40 00  ..9.2.9...@.p.@.
00008ed0: 00 81 39 00 10 91 39 7f 30 81 39 00 0d 91 39 7f  ..9...9.0.9...9.
00008ee0: 01 91 42 7f 6f 81 39 00 01 81 42 00 12 91 39 7f  ..B.o.9...B...9.
00008ef0: 30 81 39 00 09 91 39 7f 05 91 43 7f 6b 81 39 00  0.9...9...C.k.9.
00008f00: 05 81 43 00 12 91 39 7f 30 81 39 00 0d 91 42 7f  ..C...9.0.9...B.
00008f10: 01 91 39 7f 6f 81 42 00 01 81 39 00 0b 91 39 7f  ..9.o.B...9...9.
00008f20: 30 81 39 00 14 91 39 7f 03 91 40 7f 6d 81 39 00  0.9...9...@.m.9.
00008f30: 03 81 40 00 0e 91 39 7f 30 81 39 00 0f 91 42 7f  ..@...9.0.9...B.
00008f40: 03 91 39 7f 6d 81 42 00 03 81 39 00 09 91 42 7f  ..9.m.B...9...B.
00008f50: 04 91 39 7f 2c 81 42 00 04 81 39 00 0c 91 39 7f  ..9.,.B...9...9.
00008f60: 00 91 43 7f 70 81 43 00 00 81 39 00 10 91 43 7f  ..C.p.C...9...C.
00008f70: 04 91 39 7f 2c 81 43 00 04 81 39 00 10 91 39 7f  ..9.,.C...9...9.
00008f80: 03 91 42 7f 6d 81 39 00 03 81 42 00 0d 91 39 7f  ..B.m.9...B...9.
00008f90: 00 91 42 7f 30 81 42 00 00 81 39 00 10 91 3b 7f  ..B.0.B...9...;.
00008fa0: 03 91 34 7f 6d 81 3b 00 03 81 34 00 09 91 34 7f  ..4.m.;...4...4.
00008fb0: 30 81 34 00 10 91 3d 7f 00 91 34 7f 70 81 34 00  0.4...=...4.p.4.
00008fc0: 00 81 3d 00 17 91 34 7f 30 81 34 00 09 91 34 7f  ..=...4.0.4...4.
00008fd0: 04 91 3e 7f 6c 81 34 00 04 81 3e 00 10 91 34 7f  ..>.l.4...>...4.
00008fe0: 30 81 34 00 10 91 34 7f 01 91 3d 7f 6f 81 34 00  0.4...4...=.o.4.
00008ff0: 01 81 3d 00 0b 91 34 7f 30 81 34 00 10 91 39 7f  ..=...4.0.4...9.
00009000: 07 91 40 7f 69 81 39 00 07 81 40 00 0d 91 39 7f  ..@.i.9...@...9.
00009010: 30 81 39 00 0c 91 42 7f 07 91 39 7f 69 81 42 00  0.9...B...9.i.B.
00009020: 07 81 39 00 10 91 39 7f 30 81 39 00 09 91 39 7f  ..9...9.0.9...9.
00009030: 07 91 43 7f 69 81 39 00 07 81 43 00 0e 91 39 7f  ..C.i.9...C...9.
00009040: 30 81 39 00 0b 91 42 7f 05 91 39 7f 81 0b 81 42  0.9...B...9....B
00009050: 00 05 81 39 00 2f 91 3b 7f 03 91 34 7f 6d 81 3b  ...9./.;...4.m.;
00009060: 00 03 81 34 00 09 91 34 7f 30 81 34 00 10 91 3d  ...4...4.0.4...=
00009070: 7f 00 91 34 7f 70 81 34 00 00 81 3d 00 17 91 34  ...4.p.4...=...4
00009080: 7f 30 81 34 00 09 91 34 7f 04 91 3e 7f 6c 81 34  .0.4...4...>.l.4
00009090: 00 04 81 3e 00 10 91 34 7f 30 81 34 00 10 91 34  ...>...4.0.4...4
000090a0: 7f 01 91 3d 7f 6f 81 34 00 01 81 3d 00 0b 91 34  ...=.o.4...=...4
000090b0: 7f 30 81 34 00 10 91 39 7f 07 91 40 7f 69 81 39  .0.4...9...@.i.9
000090c0: 00 07 81 40 00 0d 91 39 7f 30 81 39 00 0c 91 42  ...@...9.0.9...B
000090d0: 7f 07 91 39 7f 69 81 42 00 07 81 39 00 10 91 39  ...9.i.B...9...9
000090e0: 7f 30 81 39 00 09 91 39 7f 07 91 43 7f 69 81 39  .0.9...9...C.i.9
000090f0: 00 07 81 43 00 0e 91 39 7f 30 81 39 00 0b 91 42  ...C...9.0.9...B
00009100: 7f 05 91 39 7f 81 0b 81 42 00 05 81 39 00 81 2f  ...9....B...9../
00009110: 91 48 7f 00 91 45 7f 10 81 45 00 00 81 48 00 04  .H...E...E...H..
00009120: 91 47 7f 04 91 4a 7f 81 48 81 4a 00 00 81 47 00  .G...J..H.J...G.
00009130: 20 91 46 7f 70 81 46 00 10 91 46 7f 00 91 49 7f   .F.p.F...F...I.
00009140: 30 81 49 00 00 81 46 00 10 91 48 7f 00 91 45 7f  0.I...F...H...E.
00009150: 70 81 45 00 00 81 48 00 10 91 45 7f 00 91 48 7f  p.E...H...E...H.
00009160: 30 81 48 00 00 81 45 00 10 91 43 7f 00 91 47 7f  0.H...E...C...G.
00009170: 10 91 44 7f 00 81 43 00 5b 81 47 00 05 81 44 00  ..D...C.[.G...D.
00009180: 10 91 3b 7f 30 81 3b 00 81 10 91 4a 7f 00 91 53  ..;.0.;....J...S
00009190: 7f 00 91 4e 7f 00 91 40 7f 00 91 44 7f 81 30 81  ...N...@...D..0.
000091a0: 44 00 00 81 4e 00 00 81 4a 00 00 81 53 00 00 81  D...N...J...S...
000091b0: 40 00 0b 91 40 7f 01 91 44 7f 04 91 4a 7f 01 91  @...@...D...J...
000091c0: 53 7f 00 91 4e 7f 02 81 40 00 01 81 44 00 04 81  S...N...@...D...
000091d0: 4a 00 01 81 53 00 00 81 4e 00 0b 91 40 7f 00 91  J...S...N...@...
000091e0: 44 7f 04 91 53 7f 00 91 4a 7f 00 91 4e 7f 04 81  D...S...J...N...
000091f0: 44 00 00 81 40 00 04 81 4a 00 00 81 53 00 00 81  D...@...J...S...
00009200: 4e 00 08 91 44 7f 01 91 4a 7f 02 91 4e 7f 01 91  N...D...J...N...
00009210: 40 7f 00 91 53 7f 04 81 44 00 01 81 4a 00 02 81  @...S...D...J...
00009220: 4e 00 01 81 40 00 00 81 53 00 0c 91 55 7f 08 81  N...@...S...U...
00009230: 55 00 08 91 55 7f 08 81 55 00 08 91 55 7f 08 81  U...U...U...U...
00009240: 55 00 08 91 55 7f 08 81 55 00 08 91 55 7f 08 81  U...U...U...U...
00009250: 55 00 08 91 55 7f 08 81 55 00 08 91 4e 7f 00 91  U...U...U...N...
00009260: 44 7f 00 91 4a 7f 10 81 4a 00 00 81 44 00 00 81  D...J...J...D...
00009270: 4e 00 10 91 4e 7f 00 91 53 7f 00 91 4a 7f 01 91  N...N...S...J...
00009280: 44 7f 2f 81 44 00 00 81 4e 00 00 81 53 00 00 81  D./.D...N...S...
00009290: 4a 00 10 91 4e 7f 00 91 53 7f 00 91 4a 7f 00 91  J...N...S...J...
000092a0: 40 7f 00 91 44 7f 82 61 81 40 00 08 81 44 00 02  @...D..a.@...D..
000092b0: 81 4a 00 05 81 53 00 00 81 4e 00 00 ff 7f 1c 24  .J...S...N.....$
000092c0: 24 00 08 00 00 00 00 00 00 14 ff 00 00 00 00 00  $...............
000092d0: 00 21 00 00 01 39 70 00 00 0c 00 00 ff 7f 05 24  .!...9p........$
000092e0: 24 00 01 00 00 ff 7f 06 24 24 00 06 04 04 00 ff  $.......$$......
000092f0: 7f 05 24 24 00 02 01 01 ff 2f 00 4d 54 72 6b 00  ..$$...../.MTrk.
00009300: 00 09 9c 00 ff 00 02 00 04 00 ff 03 05 56 6f 63  .............Voc
00009310: 61 6c 97 40 92 47 7f 30 82 47 00 10 92 4e 7f 08  al.@.G.0.G...N..
00009320: 92 4f 7f 00 82 4e 00 40 92 4f 7f 00 82 4f 00 30  .O...N.@.O...O.0
00009330: 92 4f 7f 00 82 4f 00 40 82 4f 00 08 92 4f 7f 70  .O...O.@.O...O.p
00009340: 82 4f 00 10 92 4e 7f 30 82 4e 00 10 92 4c 7f 81  .O...N.0.N...L..
00009350: 38 82 4c 00 83 08 92 47 7f 08 92 49 7f 00 82 47  8.L....G...I...G
00009360: 00 68 82 49 00 10 92 4c 7f 30 82 4c 00 10 92 4e  .h.I...L.0.L...N
00009370: 7f 6b 82 4e 00 15 92 4c 7f 30 82 4c 00 10 92 4a  .k.N...L.0.L...J
00009380: 7f 08 92 4c 7f 00 82 4a 00 81 08 82 4c 00 30 92  ...L...J....L.0.
00009390: 49 7f 18 82 49 00 08 92 47 7f 81 00 82 47 00 8a  I...I...G....G..
000093a0: 20 92 47 7f 30 82 47 00 10 92 4e 7f 10 82 4e 00   .G.0.G...N...N.
000093b0: 03 92 4f 7f 35 92 4f 7f 0b 82 4f 00 25 92 4f 7f  ..O.5.O...O.%.O.
000093c0: 00 82 4f 00 40 82 4f 00 08 92 4f 7f 70 82 4f 00  ..O.@.O...O.p.O.
000093d0: 10 92 4e 7f 30 82 4e 00 10 92 4c 7f 81 38 82 4c  ..N.0.N...L..8.L
000093e0: 00 83 08 92 47 7f 10 82 47 00 03 92 49 7f 5d 82  ....G...G...I.].
000093f0: 49 00 10 92 4c 7f 30 82 4c 00 11 92 4c 7f 0a 82  I...L.0.L...L...
00009400: 4c 00 05 92 4e 7f 28 82 4e 00 08 92 4c 7f 30 82  L...N.(.N...L.0.
00009410: 4c 00 10 92 47 7f 2c 82 47 00 14 92 4a 7f 08 92  L...G.,.G...J...
00009420: 4c 7f 00 82 4a 00 81 08 82 4c 00 30 92 49 7f 18  L...J....L.0.I..
00009430: 82 49 00 08 92 47 7f 81 00 82 47 00 88 60 92 4e  .I...G....G..`.N
00009440: 7f 10 82 4e 00 03 92 4f 7f 20 82 4f 00 0d 92 4e  ...N...O. .O...N
00009450: 7f 38 82 4e 00 08 92 4f 7f 30 82 4f 00 10 92 4f  .8.N...O.0.O...O
00009460: 7f 30 82 4f 00 10 92 4e 7f 30 82 4e 00 10 92 4e  .0.O...N.0.N...N
00009470: 7f 30 82 4e 00 10 92 4e 7f 30 82 4e 00 10 92 4e  .0.N...N.0.N...N
00009480: 7f 10 82 4e 00 10 92 4e 7f 1b 82 4e 00 0d 92 4e  ...N...N...N...N
00009490: 7f 10 82 4e 00 08 92 4e 7f 10 82 4e 00 10 92 4e  ...N...N...N...N
000094a0: 7f 30 82 4e 00 10 92 4e 7f 10 82 4e 00 08 92 50  .0.N...N...N...P
000094b0: 7f 58 82 50 00 10 92 4c 7f 7b 82 4c 00 82 05 92  .X.P...L.{.L....
000094c0: 49 7f 30 82 49 00 10 92 4c 7f 30 82 4c 00 10 92  I.0.I...L.0.L...
000094d0: 4e 7f 30 82 4e 00 10 92 4f 7f 30 82 4f 00 10 92  N.0.N...O.0.O...
000094e0: 49 7f 30 82 49 00 10 92 49 7f 70 82 49 00 10 92  I.0.I...I.p.I...
000094f0: 4c 7f 30 82 4c 00 10 92 4c 7f 30 82 4c 00 10 92  L.0.L...L.0.L...
00009500: 4c 7f 82 00 82 4c 00 8a 00 92 47 7f 30 82 47 00  L....L....G.0.G.
00009510: 10 92 4e 7f 10 82 4e 00 08 92 4f 7f 81 18 82 4f  ..N...N...O....O
00009520: 00 10 92 4f 7f 70 82 4f 00 10 92 4e 7f 30 82 4e  ...O.p.O...N.0.N
00009530: 00 10 92 4c 7f 70 82 4c 00 10 92 4c 7f 40 82 4c  ...L.p.L...L.@.L
00009540: 00 82 40 92 49 7f 30 82 49 00 10 92 49 7f 30 82  ..@.I.0.I...I.0.
00009550: 49 00 10 92 4c 7f 30 82 4c 00 10 92 4c 7f 30 82  I...L.0.L...L.0.
00009560: 4c 00 10 92 4c 7f 40 92 4e 7f 00 82 4c 00 70 82  L...L.@.N...L.p.
00009570: 4e 00 10 92 4c 7f 81 10 82 4c 00 30 92 4c 7f 38  N...L....L.0.L.8
00009580: 82 4c 00 08 92 4a 7f 81 60 82 4a 00 89 20 92 47  .L...J..`.J.. .G
00009590: 7f 30 82 47 00 10 92 4e 7f 10 82 4e 00 01 92 4f  .0.G...N...N...O
000095a0: 7f 7f 82 4f 00 30 92 4f 7f 6b 82 4f 00 05 92 4e  ...O.0.O.k.O...N
000095b0: 7f 40 82 4e 00 10 92 4c 7f 70 82 4c 00 10 92 4c  .@.N...L.p.L...L
000095c0: 7f 40 82 4c 00 82 40 92 47 7f 30 82 47 00 10 92  .@.L..@.G.0.G...
000095d0: 49 7f 30 82 49 00 10 92 4c 7f 30 82 4c 00 10 92  I.0.I...L.0.L...
000095e0: 4c 7f 30 82 4c 00 10 92 4c 7f 40 92 4e 7f 00 82  L.0.L...L.@.N...
000095f0: 4c 00 70 82 4e 00 10 92 4a 7f 10 92 4c 7f 00 82  L.p.N...J...L...
00009600: 4a 00 81 00 82 4c 00 30 92 4c 7f 40 92 4a 7f 00  J....L.0.L.@.J..
00009610: 82 4c 00 81 60 82 4a 00 89 20 92 47 7f 30 82 47  .L..`.J.. .G.0.G
00009620: 00 10 92 4e 7f 70 82 4e 00 10 92 4e 7f 30 82 4e  ...N.p.N...N.0.N
00009630: 00 10 92 4e 7f 81 10 82 4e 00 30 92 4e 7f 40 92  ...N....N.0.N.@.
00009640: 50 7f 00 82 4e 00 70 82 50 00 81 10 92 47 7f 30  P...N.p.P....G.0
00009650: 82 47 00 10 92 4a 7f 10 92 4c 7f 00 82 4a 00 81  .G...J...L...J..
00009660: 00 82 4c 00 30 92 4c 7f 81 10 82 4c 00 30 92 4c  ..L.0.L....L.0.L
00009670: 7f 10 92 4e 7f 00 82 4c 00 70 92 49 7f 00 82 4e  ...N...L.p.I...N
00009680: 00 30 82 49 00 10 92 4c 7f 70 82 4c 00 10 92 4c  .0.I...L.p.L...L
00009690: 7f 81 30 82 4c 00 8a 50 92 47 7f 30 82 47 00 10  ..0.L..P.G.0.G..
000096a0: 92 4e 7f 08 82 4e 00 03 92 4f 7f 4e 82 4f 00 07  .N...N...O.N.O..
000096b0: 92 4f 7f 20 92 51 7f 00 82 4f 00 30 82 51 00 10  .O. .Q...O.0.Q..
000096c0: 92 4f 7f 70 82 4f 00 10 92 4e 7f 30 82 4e 00 10  .O.p.O...N.0.N..
000096d0: 92 4c 7f 81 10 82 4c 00 83 30 92 47 7f 0b 82 47  .L....L..0.G...G
000096e0: 00 05 92 49 7f 60 82 49 00 10 92 4c 7f 30 82 4c  ...I.`.I...L.0.L
000096f0: 00 10 92 4c 7f 0b 82 4c 00 05 92 4e 7f 20 82 4e  ...L...L...N. .N
00009700: 00 10 92 4c 7f 30 82 4c 00 10 92 49 7f 30 82 49  ...L.0.L...I.0.I
00009710: 00 10 92 49 7f 10 92 4c 7f 00 82 49 00 81 00 82  ...I...L...I....
00009720: 4c 00 30 92 49 7f 20 92 47 7f 00 82 49 00 81 10  L.0.I. .G...I...
00009730: 82 47 00 8a 10 92 47 7f 30 82 47 00 10 92 4e 7f  .G....G.0.G...N.
00009740: 0b 82 4e 00 05 92 4f 7f 4b 82 4f 00 05 92 4f 7f  ..N...O.K.O...O.
00009750: 20 92 50 7f 00 82 4f 00 30 82 50 00 10 92 4f 7f   .P...O.0.P...O.
00009760: 70 82 4f 00 10 92 4e 7f 30 82 4e 00 10 92 4c 7f  p.O...N.0.N...L.
00009770: 81 10 82 4c 00 83 30 92 47 7f 09 82 47 00 03 92  ...L..0.G...G...
00009780: 49 7f 64 82 49 00 10 92 4c 7f 30 82 4c 00 10 92  I.d.I...L.0.L...
00009790: 4c 7f 09 82 4c 00 03 92 4e 7f 64 82 4e 00 10 92  L...L...N.d.N...
000097a0: 49 7f 30 82 49 00 10 92 4a 7f 10 82 4a 00 04 92  I.0.I...J...J...
000097b0: 4c 7f 7c 82 4c 00 30 92 49 7f 10 82 49 00 04 92  L.|.L.0.I...I...
000097c0: 47 7f 81 2c 82 47 00 88 40 92 4e 7f 0c 82 4e 00  G..,.G..@.N...N.
000097d0: 05 92 4f 7f 5f 82 4f 00 10 92 4f 7f 30 82 4f 00  ..O._.O...O.0.O.
000097e0: 10 92 4f 7f 30 82 4f 00 10 92 4e 7f 38 82 4e 00  ..O.0.O...N.8.N.
000097f0: 10 92 4e 7f 28 82 4e 00 10 92 4e 7f 30 82 4e 00  ..N.(.N...N.0.N.
00009800: 10 92 4e 7f 18 82 4e 00 08 92 4e 7f 18 82 4e 00  ..N...N...N...N.
00009810: 08 92 4e 7f 23 82 4e 00 08 92 4e 7f 16 82 4e 00  ..N.#.N...N...N.
00009820: 08 92 4e 7f 2b 82 4e 00 0c 92 4e 7f 18 82 4e 00  ..N.+.N...N...N.
00009830: 04 92 4f 7f 54 82 4f 00 10 92 4c 7f 30 82 4c 00  ..O.T.O...L.0.L.
00009840: 82 50 92 49 7f 30 82 49 00 10 92 4c 7f 30 82 4c  .P.I.0.I...L.0.L
00009850: 00 10 92 4c 7f 30 82 4c 00 10 92 4c 7f 0b 82 4c  ...L.0.L...L...L
00009860: 00 05 92 4e 7f 20 82 4e 00 10 92 49 7f 30 82 49  ...N. .N...I.0.I
00009870: 00 10 92 49 7f 70 82 49 00 10 92 4c 7f 30 82 4c  ...I.p.I...L.0.L
00009880: 00 10 92 4c 7f 30 82 4c 00 10 92 4c 7f 40 92 4a  ...L.0.L...L.@.J
00009890: 7f 00 82 4c 00 81 10 82 4a 00 d2 70 92 4e 7f 08  ...L....J..p.N..
000098a0: 92 4f 7f 00 82 4e 00 10 82 4f 00 08 92 4f 7f 81  .O...N...O...O..
000098b0: 00 82 4f 00 20 92 4f 7f 70 82 4f 00 10 92 4f 7f  ..O. .O.p.O...O.
000098c0: 60 82 4f 00 10 92 4f 7f 81 00 82 4f 00 10 92 4c  `.O...O....O...L
000098d0: 7f 81 10 82 4c 00 81 30 92 47 7f 10 82 47 00 03  ....L..0.G...G..
000098e0: 92 49 7f 5d 82 49 00 10 92 4a 7f 10 82 4a 00 03  .I.].I...J...J..
000098f0: 92 4c 7f 5d 82 4c 00 10 92 4c 7f 10 82 4c 00 03  .L.].L...L...L..
00009900: 92 4f 7f 6d 82 4f 00 08 92 50 7f 28 82 50 00 10  .O.m.O...P.(.P..
00009910: 92 4a 7f 10 82 4a 00 03 92 4c 7f 5d 82 4c 00 10  .J...J...L.].L..
00009920: 92 4c 7f 51 82 4c 00 0f 92 4c 7f 04 82 4c 00 07  .L.Q.L...L...L..
00009930: 92 4a 7f 81 0e 82 4a 00 8a 07 92 4c 7f 08 82 4c  .J....J....L...L
00009940: 00 03 92 4f 7f 25 82 4f 00 10 92 4f 7f 70 82 4f  ...O.%.O...O.p.O
00009950: 00 10 92 4f 7f 60 82 4f 00 1b 92 4f 7f 81 00 82  ...O.`.O...O....
00009960: 4f 00 08 92 4c 7f 25 82 4c 00 18 92 51 7f 81 00  O...L.%.L...Q...
00009970: 82 51 00 83 00 92 49 7f 70 82 49 00 10 92 4c 7f  .Q....I.p.I...L.
00009980: 70 82 4c 00 10 92 4c 7f 10 92 4f 7f 00 82 4c 00  p.L...L...O...L.
00009990: 60 82 4f 00 10 92 4c 7f 50 82 4c 00 10 92 4c 7f  `.O...L.P.L...L.
000099a0: 81 10 82 4c 00 10 92 4c 7f 04 82 4c 00 07 92 4a  ...L...L...L...J
000099b0: 7f 65 82 4a 00 88 50 92 4c 7f 08 92 4f 7f 00 82  .e.J..P.L...O...
000099c0: 4c 00 28 82 4f 00 10 92 4f 7f 30 82 4f 00 10 92  L.(.O...O.0.O...
000099d0: 4f 7f 30 82 4f 00 10 92 4e 7f 81 30 82 4e 00 10  O.0.O...N..0.N..
000099e0: 92 4e 7f 30 82 4e 00 10 92 4e 7f 30 82 4e 00 10  .N.0.N...N.0.N..
000099f0: 92 4e 7f 30 82 4e 00 10 92 4e 7f 08 92 50 7f 00  .N.0.N...N...P..
00009a00: 82 4e 00 28 82 50 00 10 92 47 7f 81 40 82 47 00  .N.(.P...G..@.G.
00009a10: 82 40 92 49 7f 30 82 49 00 10 92 4c 7f 70 82 4c  .@.I.0.I...L.p.L
00009a20: 00 10 92 4e 7f 30 82 4e 00 10 92 49 7f 3b 82 49  ...N.0.N...I.;.I
00009a30: 00 05 92 4c 7f 70 82 4c 00 10 92 4c 7f 70 82 4c  ...L.p.L...L.p.L
00009a40: 00 10 92 4c 7f 3b 82 4c 00 05 92 4a 7f 81 40 82  ...L.;.L...J..@.
00009a50: 4a 00 86 40 92 4a 7f 30 82 4a 00 10 92 47 7f 2b  J..@.J.0.J...G.+
00009a60: 82 47 00 cb 15 92 4e 7f 08 82 4e 00 03 92 4f 7f  .G....N...N...O.
00009a70: 4e 82 4f 00 07 92 4f 7f 20 92 51 7f 00 82 4f 00  N.O...O. .Q...O.
00009a80: 30 82 51 00 10 92 4f 7f 70 82 4f 00 10 92 4e 7f  0.Q...O.p.O...N.
00009a90: 30 82 4e 00 10 92 4c 7f 81 10 82 4c 00 83 30 92  0.N...L....L..0.
00009aa0: 47 7f 0b 82 47 00 05 92 49 7f 60 82 49 00 10 92  G...G...I.`.I...
00009ab0: 4c 7f 30 82 4c 00 10 92 4c 7f 0b 82 4c 00 05 92  L.0.L...L...L...
00009ac0: 4e 7f 20 82 4e 00 10 92 4c 7f 30 82 4c 00 10 92  N. .N...L.0.L...
00009ad0: 49 7f 30 82 49 00 10 92 49 7f 10 92 4c 7f 00 82  I.0.I...I...L...
00009ae0: 49 00 81 00 82 4c 00 30 92 49 7f 20 92 47 7f 00  I....L.0.I. .G..
00009af0: 82 49 00 81 10 82 47 00 8a 10 92 47 7f 30 82 47  .I....G....G.0.G
00009b00: 00 10 92 4e 7f 0b 82 4e 00 05 92 4f 7f 4b 82 4f  ...N...N...O.K.O
00009b10: 00 05 92 4f 7f 20 92 50 7f 00 82 4f 00 30 82 50  ...O. .P...O.0.P
00009b20: 00 10 92 4f 7f 70 82 4f 00 10 92 4e 7f 30 82 4e  ...O.p.O...N.0.N
00009b30: 00 10 92 4c 7f 81 10 82 4c 00 83 30 92 47 7f 09  ...L....L..0.G..
00009b40: 82 47 00 03 92 49 7f 64 82 49 00 10 92 4c 7f 30  .G...I.d.I...L.0
00009b50: 82 4c 00 10 92 4c 7f 09 82 4c 00 03 92 4e 7f 64  .L...L...L...N.d
00009b60: 82 4e 00 10 92 49 7f 30 82 49 00 10 92 4a 7f 10  .N...I.0.I...J..
00009b70: 82 4a 00 04 92 4c 7f 7c 82 4c 00 30 92 49 7f 10  .J...L.|.L.0.I..
00009b80: 82 49 00 04 92 47 7f 81 2c 82 47 00 88 40 92 4e  .I...G..,.G..@.N
00009b90: 7f 0c 82 4e 00 05 92 4f 7f 5f 82 4f 00 10 92 4f  ...N...O._.O...O
00009ba0: 7f 30 82 4f 00 10 92 4f 7f 30 82 4f 00 10 92 4e  .0.O...O.0.O...N
00009bb0: 7f 38 82 4e 00 10 92 4e 7f 28 82 4e 00 10 92 4e  .8.N...N.(.N...N
00009bc0: 7f 30 82 4e 00 10 92 4e 7f 18 82 4e 00 08 92 4e  .0.N...N...N...N
00009bd0: 7f 18 82 4e 00 08 92 4e 7f 23 82 4e 00 08 92 4e  ...N...N.#.N...N
00009be0: 7f 16 82 4e 00 08 92 4e 7f 2b 82 4e 00 0c 92 4e  ...N...N.+.N...N
00009bf0: 7f 18 82 4e 00 04 92 4f 7f 54 82 4f 00 10 92 4c  ...N...O.T.O...L
00009c00: 7f 30 82 4c 00 82 50 92 49 7f 30 82 49 00 10 92  .0.L..P.I.0.I...
00009c10: 4c 7f 30 82 4c 00 10 92 4c 7f 30 82 4c 00 10 92  L.0.L...L.0.L...
00009c20: 4c 7f 0b 82 4c 00 05 92 4e 7f 20 82 4e 00 10 92  L...L...N. .N...
00009c30: 49 7f 30 82 49 00 10 92 49 7f 70 82 49 00 10 92  I.0.I...I.p.I...
00009c40: 4c 7f 30 82 4c 00 10 92 4c 7f 30 82 4c 00 10 92  L.0.L...L.0.L...
00009c50: 4c 7f 40 92 4a 7f 00 82 4c 00 81 10 82 4a 00 00  L.@.J...L....J..
00009c60: ff 7f 1c 24 24 00 08 00 00 00 00 00 00 14 ff 00  ...$$...........
00009c70: 00 00 00 00 00 21 00 00 01 0e 90 00 00 0c 00 00  .....!..........
00009c80: ff 7f 05 24 24 00 01 00 00 ff 7f 06 24 24 00 06  ...$$.......$$..
00009c90: 04 04 00 ff 7f 05 24 24 00 02 02 01 ff 2f 00 4d  ......$$...../.M
00009ca0: 54 72 6b 00 00 36 a2 00 ff 00 02 00 05 00 ff 03  Trk..6..........
00009cb0: 0f 52 68 79 74 68 6d 20 28 43 68 6f 72 64 73 29  .Rhythm (Chords)
00009cc0: 8d 40 93 45 6b 01 93 42 6b 00 93 47 6b 02 93 3f  .@.Ek..Bk..Gk..?
00009cd0: 6b 28 83 3f 00 01 83 47 00 05 83 45 00 02 83 42  k(.?...G...E...B
00009ce0: 00 4d 93 3f 6b 00 93 42 6b 00 93 45 6b 00 93 47  .M.?k..Bk..Ek..G
00009cf0: 6b 81 19 83 3f 00 02 83 45 00 01 83 47 00 04 83  k...?...E...G...
00009d00: 42 00 20 93 3f 6b 00 93 42 6b 00 93 45 6b 00 93  B. .?k..Bk..Ek..
00009d10: 47 6b 20 83 47 00 01 83 3f 00 00 83 42 00 00 83  Gk .G...?...B...
00009d20: 45 00 1f 93 3f 6b 00 93 42 6b 01 93 45 6b 00 93  E...?k..Bk..Ek..
00009d30: 47 6b 30 83 45 00 00 83 3f 00 00 83 42 00 03 83  Gk0.E...?...B...
00009d40: 47 00 82 0c 93 3e 6b 00 93 40 6b 00 93 44 6b 00  G....>k..@k..Dk.
00009d50: 93 47 6b 20 83 40 00 01 83 44 00 02 83 47 00 09  .Gk .@...D...G..
00009d60: 83 3e 00 0f 93 44 6b 05 93 3e 6b 00 93 40 6b 00  .>...Dk..>k..@k.
00009d70: 93 47 6b 58 83 40 00 08 83 44 00 00 83 3e 00 00  .GkX.@...D...>..
00009d80: 83 47 00 60 93 3e 6b 00 93 44 6b 03 93 40 6b 00  .G.`.>k..Dk..@k.
00009d90: 93 47 6b 5d 83 40 00 03 83 47 00 00 83 3e 00 06  .Gk].@...G...>..
00009da0: 83 44 00 82 17 93 3e 6b 00 93 40 6b 00 93 47 6b  .D....>k..@k..Gk
00009db0: 01 93 44 6b 72 83 40 00 05 83 47 00 03 83 3e 00  ..Dkr.@...G...>.
00009dc0: 00 83 44 00 45 93 44 6b 00 93 47 6b 03 93 3e 6b  ..D.E.Dk..Gk..>k
00009dd0: 00 93 40 6b 38 83 3e 00 00 83 47 00 05 83 44 00  ..@k8.>...G...D.
00009de0: 00 83 40 00 3b 93 44 6b 05 93 3e 6b 00 93 47 6b  ..@.;.Dk..>k..Gk
00009df0: 00 93 40 6b 81 10 83 40 00 13 83 47 00 00 83 3e  ..@k...@...G...>
00009e00: 00 01 83 44 00 83 1c 93 40 6b 00 93 43 6b 00 93  ...D....@k..Ck..
00009e10: 45 6b 00 93 49 6b 20 83 43 00 01 83 40 00 02 83  Ek..Ik .C...@...
00009e20: 45 00 01 83 49 00 1c 93 49 6b 01 93 40 6b 00 93  E...I...Ik..@k..
00009e30: 43 6b 00 93 45 6b 53 83 45 00 04 83 49 00 00 83  Ck..EkS.E...I...
00009e40: 40 00 01 83 43 00 27 93 40 6b 00 93 43 6b 00 93  @...C.'.@k..Ck..
00009e50: 45 6b 00 93 49 6b 1c 83 43 00 00 83 40 00 04 83  Ek..Ik..C...@...
00009e60: 45 00 03 83 49 00 1d 93 40 6b 00 93 43 6b 01 93  E...I...@k..Ck..
00009e70: 45 6b 02 93 49 6b 70 83 43 00 01 83 45 00 0f 83  Ek..Ikp.C...E...
00009e80: 49 00 05 83 40 00 38 93 43 6b 01 93 40 6b 00 93  I...@.8.Ck..@k..
00009e90: 45 6b 02 93 49 6b 50 83 49 00 00 83 45 00 00 83  Ek..IkP.I...E...
00009ea0: 40 00 05 83 43 00 6b 93 3e 6b 00 93 40 6b 00 93  @...C.k.>k..@k..
00009eb0: 44 6b 00 93 47 6b 81 11 83 47 00 04 83 3e 00 01  Dk..Gk...G...>..
00009ec0: 83 44 00 08 83 40 00 1f 93 3e 6b 00 93 47 6b 03  .D...@...>k..Gk.
00009ed0: 93 40 6b 00 93 44 6b 2d 83 3e 00 08 83 47 00 01  .@k..Dk-.>...G..
00009ee0: 83 40 00 08 83 44 00 3f 93 44 6b 00 93 47 6b 01  .@...D.?.Dk..Gk.
00009ef0: 93 3e 6b 02 93 40 6b 81 15 83 40 00 01 83 47 00  .>k..@k...@...G.
00009f00: 02 83 44 00 01 83 3e 00 20 93 40 6b 04 93 3e 6b  ..D...>. .@k..>k
00009f10: 00 93 44 6b 00 93 47 6b 1c 83 44 00 00 83 3e 00  ..Dk..Gk..D...>.
00009f20: 04 83 40 00 03 83 47 00 1d 93 40 6b 00 93 47 6b  ..@...G...@k..Gk
00009f30: 01 93 3e 6b 00 93 44 6b 81 23 83 40 00 05 83 3e  ..>k..Dk.#.@...>
00009f40: 00 03 83 47 00 05 83 44 00 81 0f 93 3e 6b 00 93  ...G...D....>k..
00009f50: 40 6b 00 93 44 6b 00 93 47 6b 20 83 47 00 03 83  @k..Dk..Gk .G...
00009f60: 44 00 00 83 3e 00 0d 83 40 00 0b 93 3e 6b 00 93  D...>...@...>k..
00009f70: 40 6b 01 93 44 6b 00 93 47 6b 58 83 47 00 04 83  @k..Dk..GkX.G...
00009f80: 3e 00 00 83 40 00 00 83 44 00 1c 93 44 6b 05 93  >...@...D...Dk..
00009f90: 3e 6b 02 93 47 6b 01 93 40 6b 1c 83 40 00 01 83  >k..Gk..@k..@...
00009fa0: 47 00 03 83 3e 00 04 83 44 00 20 93 3e 6b 00 93  G...>...D. .>k..
00009fb0: 47 6b 01 93 40 6b 02 93 44 6b 78 83 40 00 00 83  Gk..@k..Dkx.@...
00009fc0: 47 00 08 83 44 00 01 83 3e 00 3c 93 3e 6b 00 93  G...D...>.<.>k..
00009fd0: 44 6b 00 93 47 6b 03 93 40 6b 78 83 40 00 08 83  Dk..Gk..@kx.@...
00009fe0: 44 00 01 83 3e 00 04 83 47 00 81 38 93 43 6b 00  D...>...G..8.Ck.
00009ff0: 93 4c 6b 03 93 45 6b 00 93 49 6b 81 4d 83 49 00  .Lk..Ek..Ik.M.I.
0000a000: 01 83 4c 00 03 83 45 00 05 83 43 00 27 93 4c 6b  ..L...E...C.'.Lk
0000a010: 03 93 43 6b 00 93 45 6b 05 93 49 6b 82 53 83 45  ..Ck..Ek..Ik.S.E
0000a020: 00 01 83 49 00 00 83 4c 00 05 83 43 00 1f 93 45  ...I...L...C...E
0000a030: 6b 00 93 43 6b 03 93 49 6b 00 93 4c 6b 82 10 83  k..Ck..Ik..Lk...
0000a040: 45 00 01 83 4c 00 07 83 49 00 05 83 43 00 20 93  E...L...I...C. .
0000a050: 43 6b 00 93 45 6b 00 93 4c 6b 03 93 49 6b 83 28  Ck..Ek..Lk..Ik.(
0000a060: 83 45 00 05 83 43 00 00 83 4c 00 00 83 49 00 81  .E...C...L...I..
0000a070: 00 93 44 6b 00 93 47 6b 00 93 3e 6b 00 93 40 6b  ..Dk..Gk..>k..@k
0000a080: 23 83 47 00 06 83 44 00 03 83 3e 00 04 83 40 00  #.G...D...>...@.
0000a090: 13 93 44 6b 05 93 3e 6b 00 93 40 6b 00 93 47 6b  ..Dk..>k..@k..Gk
0000a0a0: 59 83 3e 00 02 83 47 00 01 83 44 00 05 83 40 00  Y.>...G...D...@.
0000a0b0: 17 93 3e 6b 00 93 40 6b 00 93 47 6b 01 93 44 6b  ..>k..@k..Gk..Dk
0000a0c0: 1a 83 47 00 00 83 3e 00 05 83 40 00 00 83 44 00  ..G...>...@...D.
0000a0d0: 24 93 40 6b 04 93 3e 6b 00 93 44 6b 00 93 47 6b  $.@k..>k..Dk..Gk
0000a0e0: 82 50 83 47 00 01 83 3e 00 07 83 44 00 00 83 40  .P.G...>...D...@
0000a0f0: 00 33 93 47 6b 00 93 3e 6b 00 93 44 6b 01 93 40  .3.Gk..>k..Dk..@
0000a100: 6b 81 35 83 44 00 00 83 47 00 08 83 40 00 02 83  k.5.D...G...@...
0000a110: 3e 00 0d 93 44 6b 00 93 47 6b 01 93 3e 6b 00 93  >...Dk..Gk..>k..
0000a120: 40 6b 27 83 3e 00 01 83 47 00 03 83 44 00 00 83  @k'.>...G...D...
0000a130: 40 00 44 93 3e 6b 00 93 40 6b 00 93 44 6b 00 93  @.D.>k..@k..Dk..
0000a140: 47 6b 81 2b 83 44 00 01 83 47 00 00 83 40 00 07  Gk.+.D...G...@..
0000a150: 83 3e 00 0d 93 47 6b 00 93 44 6b 03 93 3e 6b 00  .>...Gk..Dk..>k.
0000a160: 93 40 6b 21 83 47 00 04 83 44 00 01 83 3e 00 00  .@k!.G...D...>..
0000a170: 83 40 00 17 93 3e 6b 00 93 40 6b 00 93 44 6b 00  .@...>k..@k..Dk.
0000a180: 93 47 6b 81 7c 83 40 00 04 83 44 00 01 83 3e 00  .Gk.|.@...D...>.
0000a190: 00 83 47 00 3f 93 42 6b 00 93 45 6b 00 93 47 6b  ..G.?.Bk..Ek..Gk
0000a1a0: 00 93 4b 6b 40 83 4b 00 00 83 42 00 00 83 45 00  ..Kk@.K...B...E.
0000a1b0: 00 83 47 00 40 93 42 6b 00 93 45 6b 00 93 47 6b  ..G.@.Bk..Ek..Gk
0000a1c0: 00 93 4b 6b 43 83 47 00 05 83 42 00 00 83 45 00  ..KkC.G...B...E.
0000a1d0: 04 83 4b 00 34 93 42 6b 00 93 45 6b 00 93 47 6b  ..K.4.Bk..Ek..Gk
0000a1e0: 00 93 4b 6b 3b 83 47 00 05 83 45 00 08 83 4b 00  ..Kk;.G...E...K.
0000a1f0: 03 83 42 00 35 93 42 6b 00 93 45 6b 00 93 47 6b  ..B.5.Bk..Ek..Gk
0000a200: 00 93 4b 6b 40 83 4b 00 03 83 45 00 05 83 47 00  ..Kk@.K...E...G.
0000a210: 00 83 42 00 38 93 42 6b 00 93 45 6b 00 93 47 6b  ..B.8.Bk..Ek..Gk
0000a220: 00 93 4b 6b 70 83 4b 00 00 83 42 00 03 83 47 00  ..Kkp.K...B...G.
0000a230: 00 83 45 00 81 0d 93 40 6b 00 93 43 6b 00 93 45  ..E....@k..Ck..E
0000a240: 6b 00 93 49 6b 50 83 45 00 01 83 43 00 02 83 40  k..IkP.E...C...@
0000a250: 00 00 83 49 00 2d 93 40 6b 00 93 43 6b 00 93 45  ...I.-.@k..Ck..E
0000a260: 6b 00 93 49 6b 38 83 49 00 00 83 45 00 00 83 43  k..Ik8.I...E...C
0000a270: 00 03 83 40 00 05 93 40 6b 00 93 43 6b 00 93 45  ...@...@k..Ck..E
0000a280: 6b 00 93 49 6b 38 83 49 00 00 83 40 00 00 83 43  k..Ik8.I...@...C
0000a290: 00 03 83 45 00 45 93 40 6b 00 93 43 6b 00 93 45  ...E.E.@k..Ck..E
0000a2a0: 6b 00 93 49 6b 28 83 49 00 00 83 45 00 00 83 43  k..Ik(.I...E...C
0000a2b0: 00 03 83 40 00 15 93 40 6b 00 93 43 6b 00 93 45  ...@...@k..Ck..E
0000a2c0: 6b 00 93 49 6b 81 6b 83 45 00 05 83 40 00 00 83  k..Ik.k.E...@...
0000a2d0: 43 00 00 83 49 00 81 0b 93 40 6b 05 93 3e 6b 00  C...I....@k..>k.
0000a2e0: 93 44 6b 00 93 47 6b 2b 83 40 00 05 83 44 00 03  .Dk..Gk+.@...D..
0000a2f0: 83 3e 00 00 83 47 00 0d 93 40 6b 00 93 47 6b 00  .>...G...@k..Gk.
0000a300: 93 3e 6b 00 93 44 6b 43 83 44 00 05 83 3e 00 03  .>k..DkC.D...>..
0000a310: 83 47 00 00 83 40 00 35 93 3e 6b 00 93 40 6b 00  .G...@.5.>k..@k.
0000a320: 93 44 6b 00 93 47 6b 20 83 40 00 03 83 3e 00 00  .Dk..Gk .@...>..
0000a330: 83 44 00 00 83 47 00 1d 93 3e 6b 00 93 47 6b 00  .D...G...>k..Gk.
0000a340: 93 44 6b 01 93 40 6b 82 0b 83 40 00 0c 83 44 00  .Dk..@k...@...D.
0000a350: 00 83 3e 00 01 83 47 00 67 93 42 6b 00 93 47 6b  ..>...G.g.Bk..Gk
0000a360: 00 93 4b 6b 03 93 45 6b 59 83 47 00 04 83 4b 00  ..Kk..EkY.G...K.
0000a370: 01 83 45 00 03 83 42 00 1c 93 47 6b 00 93 42 6b  ..E...B...Gk..Bk
0000a380: 00 93 4b 6b 00 93 45 6b 3b 83 45 00 00 83 47 00  ..Kk..Ek;.E...G.
0000a390: 05 83 4b 00 01 83 42 00 3f 93 42 6b 00 93 45 6b  ..K...B.?.Bk..Ek
0000a3a0: 00 93 47 6b 00 93 4b 6b 38 83 47 00 00 83 45 00  ..Gk..Kk8.G...E.
0000a3b0: 03 83 4b 00 08 83 42 00 3d 93 42 6b 00 93 45 6b  ..K...B.=.Bk..Ek
0000a3c0: 00 93 47 6b 00 93 4b 6b 82 2b 83 47 00 05 83 42  ..Gk..Kk.+.G...B
0000a3d0: 00 00 83 45 00 00 83 4b 00 81 60 93 40 6b 00 93  ...E...K..`.@k..
0000a3e0: 44 6b 00 93 47 6b 00 93 4a 6b 23 83 4a 00 00 83  Dk..Gk..Jk#.J...
0000a3f0: 40 00 05 83 47 00 00 83 44 00 18 93 40 6b 00 93  @...G...D...@k..
0000a400: 44 6b 00 93 47 6b 01 93 4a 6b 57 83 40 00 01 83  Dk..Gk..JkW.@...
0000a410: 44 00 03 83 47 00 05 83 4a 00 0f 93 40 6b 00 93  D...G...J...@k..
0000a420: 44 6b 00 93 47 6b 00 93 4a 6b 23 83 40 00 06 83  Dk..Gk..Jk#.@...
0000a430: 44 00 02 83 47 00 01 83 4a 00 14 93 4a 6b 00 93  D...G...J...Jk..
0000a440: 40 6b 00 93 47 6b 03 93 44 6b 61 83 40 00 07 83  @k..Gk..Dka.@...
0000a450: 44 00 08 83 4a 00 01 83 47 00 0c 93 40 6b 00 93  D...J...G...@k..
0000a460: 47 6b 00 93 4a 6b 03 93 44 6b 30 83 40 00 01 83  Gk..Jk..Dk0.@...
0000a470: 44 00 04 83 4a 00 00 83 47 00 08 93 40 6b 00 93  D...J...G...@k..
0000a480: 44 6b 00 93 47 6b 00 93 4a 6b 78 83 40 00 01 83  Dk..Gk..Jkx.@...
0000a490: 44 00 02 83 47 00 09 83 4a 00 81 3c 93 40 6b 00  D...G...J..<.@k.
0000a4a0: 93 43 6b 00 93 45 6b 00 93 49 6b 20 83 43 00 01  .Ck..Ek..Ik .C..
0000a4b0: 83 40 00 02 83 45 00 01 83 49 00 1c 93 49 6b 01  .@...E...I...Ik.
0000a4c0: 93 40 6b 00 93 43 6b 00 93 45 6b 53 83 45 00 04  .@k..Ck..EkS.E..
0000a4d0: 83 49 00 00 83 40 00 01 83 43 00 27 93 40 6b 00  .I...@...C.'.@k.
0000a4e0: 93 43 6b 00 93 45 6b 00 93 49 6b 1c 83 43 00 00  .Ck..Ek..Ik..C..
0000a4f0: 83 40 00 04 83 45 00 03 83 49 00 1d 93 40 6b 00  .@...E...I...@k.
0000a500: 93 43 6b 01 93 45 6b 02 93 49 6b 70 83 43 00 01  .Ck..Ek..Ikp.C..
0000a510: 83 45 00 0f 83 49 00 05 83 40 00 38 93 43 6b 01  .E...I...@.8.Ck.
0000a520: 93 40 6b 00 93 45 6b 02 93 49 6b 50 83 49 00 00  .@k..Ek..IkP.I..
0000a530: 83 45 00 00 83 40 00 05 83 43 00 6b 93 3e 6b 00  .E...@...C.k.>k.
0000a540: 93 40 6b 00 93 44 6b 00 93 47 6b 81 11 83 47 00  .@k..Dk..Gk...G.
0000a550: 04 83 3e 00 01 83 44 00 08 83 40 00 1f 93 3e 6b  ..>...D...@...>k
0000a560: 00 93 47 6b 03 93 40 6b 00 93 44 6b 2d 83 3e 00  ..Gk..@k..Dk-.>.
0000a570: 08 83 47 00 01 83 40 00 08 83 44 00 3f 93 44 6b  ..G...@...D.?.Dk
0000a580: 00 93 47 6b 01 93 3e 6b 02 93 40 6b 81 15 83 40  ..Gk..>k..@k...@
0000a590: 00 01 83 47 00 02 83 44 00 01 83 3e 00 20 93 40  ...G...D...>. .@
0000a5a0: 6b 04 93 3e 6b 00 93 44 6b 00 93 47 6b 1c 83 44  k..>k..Dk..Gk..D
0000a5b0: 00 00 83 3e 00 04 83 40 00 03 83 47 00 1d 93 40  ...>...@...G...@
0000a5c0: 6b 00 93 47 6b 01 93 3e 6b 00 93 44 6b 81 23 83  k..Gk..>k..Dk.#.
0000a5d0: 40 00 05 83 3e 00 03 83 47 00 05 83 44 00 81 0f  @...>...G...D...
0000a5e0: 93 3e 6b 00 93 40 6b 00 93 44 6b 00 93 47 6b 20  .>k..@k..Dk..Gk 
0000a5f0: 83 47 00 03 83 44 00 00 83 3e 00 0d 83 40 00 0b  .G...D...>...@..
0000a600: 93 3e 6b 00 93 40 6b 01 93 44 6b 00 93 47 6b 58  .>k..@k..Dk..GkX
0000a610: 83 47 00 04 83 3e 00 00 83 40 00 00 83 44 00 1c  .G...>...@...D..
0000a620: 93 44 6b 05 93 3e 6b 02 93 47 6b 01 93 40 6b 1c  .Dk..>k..Gk..@k.
0000a630: 83 40 00 01 83 47 00 03 83 3e 00 04 83 44 00 20  .@...G...>...D. 
0000a640: 93 3e 6b 00 93 47 6b 01 93 40 6b 02 93 44 6b 78  .>k..Gk..@k..Dkx
0000a650: 83 40 00 00 83 47 00 08 83 44 00 01 83 3e 00 3c  .@...G...D...>.<
0000a660: 93 3e 6b 00 93 44 6b 00 93 47 6b 03 93 40 6b 78  .>k..Dk..Gk..@kx
0000a670: 83 40 00 08 83 44 00 01 83 3e 00 04 83 47 00 81  .@...D...>...G..
0000a680: 38 93 43 6b 00 93 4c 6b 03 93 45 6b 00 93 49 6b  8.Ck..Lk..Ek..Ik
0000a690: 81 4d 83 49 00 01 83 4c 00 03 83 45 00 05 83 43  .M.I...L...E...C
0000a6a0: 00 27 93 4c 6b 03 93 43 6b 00 93 45 6b 05 93 49  .'.Lk..Ck..Ek..I
0000a6b0: 6b 82 53 83 45 00 01 83 49 00 00 83 4c 00 05 83  k.S.E...I...L...
0000a6c0: 43 00 1f 93 45 6b 00 93 43 6b 03 93 49 6b 00 93  C...Ek..Ck..Ik..
0000a6d0: 4c 6b 82 10 83 45 00 01 83 4c 00 07 83 49 00 05  Lk...E...L...I..
0000a6e0: 83 43 00 20 93 43 6b 00 93 45 6b 00 93 4c 6b 03  .C. .Ck..Ek..Lk.
0000a6f0: 93 49 6b 83 28 83 45 00 05 83 43 00 00 83 4c 00  .Ik.(.E...C...L.
0000a700: 00 83 49 00 81 00 93 44 6b 00 93 47 6b 00 93 3e  ..I....Dk..Gk..>
0000a710: 6b 00 93 40 6b 23 83 47 00 06 83 44 00 03 83 3e  k..@k#.G...D...>
0000a720: 00 04 83 40 00 13 93 44 6b 05 93 3e 6b 00 93 40  ...@...Dk..>k..@
0000a730: 6b 00 93 47 6b 59 83 3e 00 02 83 47 00 01 83 44  k..GkY.>...G...D
0000a740: 00 05 83 40 00 17 93 3e 6b 00 93 40 6b 00 93 47  ...@...>k..@k..G
0000a750: 6b 01 93 44 6b 1a 83 47 00 00 83 3e 00 05 83 40  k..Dk..G...>...@
0000a760: 00 00 83 44 00 30 93 44 6b 00 93 53 6b 08 93 4c  ...D.0.Dk..Sk..L
0000a770: 6b 03 93 4a 6b 82 3d 83 53 00 01 83 4a 00 07 83  k..Jk.=.S...J...
0000a780: 4c 00 00 83 44 00 33 93 47 6b 00 93 3e 6b 00 93  L...D.3.Gk..>k..
0000a790: 44 6b 01 93 40 6b 81 35 83 44 00 00 83 47 00 08  Dk..@k.5.D...G..
0000a7a0: 83 40 00 02 83 3e 00 0d 93 44 6b 00 93 47 6b 01  .@...>...Dk..Gk.
0000a7b0: 93 3e 6b 00 93 40 6b 27 83 3e 00 01 83 47 00 03  .>k..@k'.>...G..
0000a7c0: 83 44 00 00 83 40 00 44 93 4a 6b 00 93 4c 6b 00  .D...@.D.Jk..Lk.
0000a7d0: 93 44 6b 00 93 53 6b 81 2b 83 44 00 01 83 53 00  .Dk..Sk.+.D...S.
0000a7e0: 00 83 4c 00 07 83 4a 00 0d 93 47 6b 00 93 44 6b  ..L...J...Gk..Dk
0000a7f0: 03 93 3e 6b 00 93 40 6b 21 83 47 00 04 83 44 00  ..>k..@k!.G...D.
0000a800: 01 83 3e 00 00 83 40 00 17 93 3e 6b 00 93 40 6b  ..>...@...>k..@k
0000a810: 00 93 44 6b 00 93 47 6b 81 7c 83 40 00 04 83 44  ..Dk..Gk.|.@...D
0000a820: 00 01 83 3e 00 00 83 47 00 3f 93 42 6b 00 93 45  ...>...G.?.Bk..E
0000a830: 6b 00 93 47 6b 00 93 4b 6b 40 83 4b 00 00 83 42  k..Gk..Kk@.K...B
0000a840: 00 00 83 45 00 00 83 47 00 40 93 42 6b 00 93 45  ...E...G.@.Bk..E
0000a850: 6b 00 93 47 6b 00 93 4b 6b 43 83 47 00 05 83 42  k..Gk..KkC.G...B
0000a860: 00 00 83 45 00 04 83 4b 00 34 93 42 6b 00 93 45  ...E...K.4.Bk..E
0000a870: 6b 00 93 47 6b 00 93 4b 6b 3b 83 47 00 05 83 45  k..Gk..Kk;.G...E
0000a880: 00 08 83 4b 00 03 83 42 00 35 93 42 6b 00 93 45  ...K...B.5.Bk..E
0000a890: 6b 00 93 47 6b 00 93 4b 6b 40 83 4b 00 03 83 45  k..Gk..Kk@.K...E
0000a8a0: 00 05 83 47 00 00 83 42 00 38 93 42 6b 00 93 45  ...G...B.8.Bk..E
0000a8b0: 6b 00 93 47 6b 00 93 4b 6b 70 83 4b 00 00 83 42  k..Gk..Kkp.K...B
0000a8c0: 00 03 83 47 00 00 83 45 00 81 0d 93 40 6b 00 93  ...G...E....@k..
0000a8d0: 43 6b 00 93 45 6b 00 93 49 6b 50 83 45 00 01 83  Ck..Ek..IkP.E...
0000a8e0: 43 00 02 83 40 00 00 83 49 00 2d 93 40 6b 00 93  C...@...I.-.@k..
0000a8f0: 43 6b 00 93 45 6b 00 93 49 6b 33 83 49 00 05 83  Ck..Ek..Ik3.I...
0000a900: 45 00 00 83 43 00 03 83 40 00 45 93 4c 6b 00 93  E...C...@.E.Lk..
0000a910: 43 6b 00 93 45 6b 00 93 49 6b 68 83 49 00 00 83  Ck..Ek..Ikh.I...
0000a920: 45 00 00 83 43 00 03 83 4c 00 15 93 40 6b 00 93  E...C...L...@k..
0000a930: 43 6b 00 93 45 6b 00 93 49 6b 81 6b 83 45 00 05  Ck..Ek..Ik.k.E..
0000a940: 83 40 00 00 83 43 00 00 83 49 00 81 10 93 40 6b  .@...C...I....@k
0000a950: 00 93 3e 6b 00 93 44 6b 00 93 47 6b 2b 83 40 00  ..>k..Dk..Gk+.@.
0000a960: 05 83 44 00 03 83 3e 00 00 83 47 00 0d 93 40 6b  ..D...>...G...@k
0000a970: 00 93 47 6b 00 93 3e 6b 00 93 44 6b 43 83 44 00  ..Gk..>k..DkC.D.
0000a980: 05 83 3e 00 03 83 47 00 00 83 40 00 35 93 3e 6b  ..>...G...@.5.>k
0000a990: 00 93 40 6b 00 93 44 6b 00 93 47 6b 20 83 40 00  ..@k..Dk..Gk .@.
0000a9a0: 03 83 3e 00 00 83 44 00 00 83 47 00 1d 93 4a 6b  ..>...D...G...Jk
0000a9b0: 00 93 47 6b 00 93 44 6b 01 93 40 6b 82 0b 83 40  ..Gk..Dk..@k...@
0000a9c0: 00 0c 83 44 00 00 83 4a 00 01 83 47 00 67 93 42  ...D...J...G.g.B
0000a9d0: 6b 00 93 47 6b 00 93 4b 6b 03 93 45 6b 59 83 47  k..Gk..Kk..EkY.G
0000a9e0: 00 04 83 4b 00 01 83 45 00 03 83 42 00 1c 93 47  ...K...E...B...G
0000a9f0: 6b 00 93 42 6b 00 93 4b 6b 00 93 45 6b 3b 83 45  k..Bk..Kk..Ek;.E
0000aa00: 00 00 83 47 00 05 83 4b 00 01 83 42 00 3f 93 42  ...G...K...B.?.B
0000aa10: 6b 00 93 45 6b 00 93 47 6b 00 93 4b 6b 38 83 47  k..Ek..Gk..Kk8.G
0000aa20: 00 00 83 45 00 03 83 4b 00 08 83 42 00 3d 93 4e  ...E...K...B.=.N
0000aa30: 6b 00 93 45 6b 00 93 47 6b 00 93 4b 6b 70 83 4e  k..Ek..Gk..Kkp.N
0000aa40: 00 10 93 42 6b 81 2b 83 47 00 05 83 4b 00 00 83  ...Bk.+.G...K...
0000aa50: 45 00 00 83 42 00 50 93 3e 6b 00 93 44 6b 00 93  E...B.P.>k..Dk..
0000aa60: 47 6b 03 93 40 6b 81 08 83 47 00 00 83 44 00 05  Gk..@k...G...D..
0000aa70: 83 40 00 01 83 3e 00 08 93 3e 6b 02 93 40 6b 00  .@...>...>k..@k.
0000aa80: 93 44 6b 00 93 47 6b 21 83 3e 00 04 83 40 00 00  .Dk..Gk!.>...@..
0000aa90: 83 44 00 01 83 47 00 07 93 44 6b 00 93 47 6b 01  .D...G...Dk..Gk.
0000aaa0: 93 3e 6b 00 93 40 6b 42 83 44 00 01 83 47 00 00  .>k..@kB.D...G..
0000aab0: 83 40 00 05 83 3e 00 2f 93 3e 6b 00 93 40 6b 00  .@...>./.>k..@k.
0000aac0: 93 44 6b 00 93 47 6b 81 1b 83 47 00 01 83 44 00  .Dk..Gk...G...D.
0000aad0: 04 83 3e 00 03 83 40 00 1d 93 40 6b 00 93 44 6b  ..>...@...@k..Dk
0000aae0: 00 93 3e 6b 00 93 47 6b 20 83 3e 00 03 83 47 00  ..>k..Gk .>...G.
0000aaf0: 00 83 40 00 05 83 44 00 18 93 3e 6b 00 93 40 6b  ..@...D...>k..@k
0000ab00: 00 93 44 6b 00 93 47 6b 78 83 40 00 08 83 47 00  ..Dk..Gkx.@...G.
0000ab10: 08 83 44 00 01 83 3e 00 81 22 93 49 6b 05 93 40  ..D...>..".Ik..@
0000ab20: 6b 00 93 43 6b 00 93 45 6b 21 83 45 00 08 83 43  k..Ck..Ek!.E...C
0000ab30: 00 00 83 49 00 02 83 40 00 25 93 43 6b 00 93 40  ...I...@.%.Ck..@
0000ab40: 6b 00 93 49 6b 00 93 45 6b 49 83 45 00 07 83 43  k..Ik..EkI.E...C
0000ab50: 00 08 83 49 00 00 83 40 00 18 93 45 6b 00 93 43  ...I...@...Ek..C
0000ab60: 6b 00 93 49 6b 03 93 40 6b 15 83 43 00 04 83 45  k..Ik..@k..C...E
0000ab70: 00 07 83 40 00 05 83 49 00 23 93 49 6b 00 93 40  ...@...I.#.Ik..@
0000ab80: 6b 08 93 43 6b 00 93 45 6b 81 08 83 45 00 00 83  k..Ck..Ek...E...
0000ab90: 43 00 06 83 49 00 02 83 40 00 2d 93 45 6b 00 93  C...I...@.-.Ek..
0000aba0: 43 6b 00 93 49 6b 00 93 40 6b 73 83 40 00 08 83  Ck..Ik..@ks.@...
0000abb0: 45 00 05 83 43 00 0c 83 49 00 34 93 4a 6b 00 93  E...C...I.4.Jk..
0000abc0: 47 6b 01 93 44 6b 12 83 4a 00 05 93 4c 6b 13 83  Gk..Dk..J...Lk..
0000abd0: 4c 00 05 93 4a 6b 13 83 4a 00 05 93 4c 6b 13 83  L...Jk..J...Lk..
0000abe0: 4c 00 0d 93 4a 6b 1b 93 4c 6b 81 0d 83 4c 00 10  L...Jk..Lk...L..
0000abf0: 93 4e 6b 0b 83 4e 00 05 93 4f 6b 0b 83 4f 00 05  .Nk..N...Ok..O..
0000ac00: 93 50 6b 0b 83 50 00 05 93 51 6b 0b 83 51 00 05  .Pk..P...Qk..Q..
0000ac10: 93 53 6b 0b 83 53 00 15 93 5f 6b 3b 83 4a 00 00  .Sk..S..._k;.J..
0000ac20: 83 47 00 05 83 44 00 00 83 5f 00 40 93 44 6b 00  .G...D..._.@.Dk.
0000ac30: 93 47 6b 03 93 3e 6b 00 93 40 6b 20 83 40 00 00  .Gk..>k..@k .@..
0000ac40: 83 44 00 05 83 3e 00 00 83 47 00 18 93 3e 6b 00  .D...>...G...>k.
0000ac50: 93 40 6b 00 93 44 6b 00 93 47 6b 6b 83 3e 00 05  .@k..Dk..Gkk.>..
0000ac60: 83 40 00 00 83 44 00 00 83 47 00 10 93 3e 6b 00  .@...D...G...>k.
0000ac70: 93 40 6b 00 93 44 6b 00 93 47 6b 2b 83 44 00 00  .@k..Dk..Gk+.D..
0000ac80: 83 3e 00 00 83 40 00 05 83 47 00 10 93 3e 6b 00  .>...@...G...>k.
0000ac90: 93 40 6b 03 93 44 6b 00 93 47 6b 81 25 83 44 00  .@k..Dk..Gk.%.D.
0000aca0: 00 83 3e 00 03 83 40 00 05 83 47 00 10 93 3e 6b  ..>...@...G...>k
0000acb0: 00 93 44 6b 00 93 47 6b 00 93 4c 6b 70 83 4c 00  ..Dk..Gk..Lkp.L.
0000acc0: 00 83 3e 00 00 83 44 00 00 83 47 00 10 93 3e 6b  ..>...D...G...>k
0000acd0: 00 93 47 6b 03 93 40 6b 00 93 44 6b 82 2e 83 40  ..Gk..@k..Dk...@
0000ace0: 00 07 83 44 00 01 83 47 00 02 83 3e 00 81 05 93  ...D...G...>....
0000acf0: 3d 6b 00 93 43 6b 01 93 40 6b 02 93 45 6b 7e 83  =k..Ck..@k..Ek~.
0000ad00: 40 00 12 83 45 00 01 83 43 00 00 83 3d 00 2c 93  @...E...C...=.,.
0000ad10: 3d 6b 00 93 43 6b 00 93 45 6b 01 93 40 6b 67 83  =k..Ck..Ek..@kg.
0000ad20: 3d 00 03 83 40 00 05 83 45 00 00 83 43 00 10 93  =...@...E...C...
0000ad30: 3d 6b 00 93 40 6b 00 93 45 6b 03 93 43 6b 81 08  =k..@k..Ek..Ck..
0000ad40: 83 43 00 01 83 45 00 00 83 40 00 04 83 3d 00 30  .C...E...@...=.0
0000ad50: 93 3d 6b 00 93 43 6b 00 93 45 6b 03 93 40 6b 1d  .=k..Ck..Ek..@k.
0000ad60: 83 43 00 03 83 3d 00 00 83 45 00 00 83 40 00 1d  .C...=...E...@..
0000ad70: 93 3d 6b 00 93 40 6b 00 93 43 6b 00 93 45 6b 81  .=k..@k..Ck..Ek.
0000ad80: 18 83 3d 00 14 83 40 00 04 83 45 00 03 83 43 00  ..=...@...E...C.
0000ad90: 81 0d 93 40 6b 00 93 43 6b 00 93 49 6b 00 93 45  ...@k..Ck..Ik..E
0000ada0: 6b 33 83 40 00 01 83 45 00 00 83 49 00 04 83 43  k3.@...E...I...C
0000adb0: 00 08 93 49 6b 03 93 40 6b 00 93 43 6b 00 93 45  ...Ik..@k..Ck..E
0000adc0: 6b 5d 83 43 00 00 83 40 00 03 83 49 00 00 83 45  k].C...@...I...E
0000add0: 00 1d 93 40 6b 00 93 43 6b 00 93 45 6b 00 93 49  ...@k..Ck..Ek..I
0000ade0: 6b 20 83 40 00 03 83 43 00 05 83 45 00 01 83 49  k .@...C...E...I
0000adf0: 00 17 93 40 6b 00 93 45 6b 00 93 49 6b 03 93 43  ...@k..Ek..Ik..C
0000ae00: 6b 81 05 83 43 00 00 83 40 00 01 83 45 00 0b 83  k...C...@...E...
0000ae10: 49 00 2c 93 40 6b 00 93 45 6b 01 93 49 6b 02 93  I.,.@k..Ek..Ik..
0000ae20: 43 6b 81 19 83 45 00 04 83 40 00 00 83 43 00 09  Ck...E...@...C..
0000ae30: 83 49 00 17 93 44 6b 03 93 40 6b 00 93 47 6b 00  .I...Dk..@k..Gk.
0000ae40: 93 4a 6b 85 36 83 4a 00 08 83 40 00 07 83 47 00  .Jk.6.J...@...G.
0000ae50: 01 83 44 00 37 93 3e 6b 03 93 44 6b 00 93 47 6b  ..D.7.>k..Dk..Gk
0000ae60: 05 93 40 6b 85 20 83 40 00 03 83 3e 00 08 83 44  ..@k. .@...>...D
0000ae70: 00 01 83 47 00 4c 93 42 6b 00 93 45 6b 03 93 3f  ...G.L.Bk..Ek..?
0000ae80: 6b 00 93 47 6b 81 38 83 3f 00 00 83 42 00 00 83  k..Gk.8.?...B...
0000ae90: 45 00 05 83 47 00 40 93 3f 6b 00 93 42 6b 00 93  E...G.@.?k..Bk..
0000aea0: 45 6b 00 93 47 6b 68 83 47 00 00 83 3f 00 00 83  Ek..Gkh.G...?...
0000aeb0: 42 00 00 83 45 00 18 93 3f 6b 00 93 47 6b 03 93  B...E...?k..Gk..
0000aec0: 42 6b 00 93 45 6b 4d 83 42 00 03 83 3f 00 00 83  Bk..EkM.B...?...
0000aed0: 47 00 00 83 45 00 2d 93 3f 6b 00 93 42 6b 00 93  G...E.-.?k..Bk..
0000aee0: 45 6b 00 93 47 6b 38 83 47 00 00 83 45 00 00 83  Ek..Gk8.G...E...
0000aef0: 3f 00 03 83 42 00 41 93 3f 6b 00 93 42 6b 04 93  ?...B.A.?k..Bk..
0000af00: 47 6b 00 93 45 6b 6b 83 42 00 05 83 47 00 03 83  Gk..Ekk.B...G...
0000af10: 3f 00 00 83 45 00 0d 93 43 6b 00 93 45 6b 00 93  ?...E...Ck..Ek..
0000af20: 49 6b 03 93 40 6b 58 83 45 00 05 83 40 00 00 83  Ik..@kX.E...@...
0000af30: 49 00 08 83 43 00 18 93 40 6b 00 93 43 6b 00 93  I...C...@k..Ck..
0000af40: 45 6b 00 93 49 6b 4b 83 45 00 00 83 40 00 06 83  Ek..IkK.E...@...
0000af50: 43 00 03 83 49 00 2c 93 40 6b 00 93 45 6b 00 93  C...I.,.@k..Ek..
0000af60: 49 6b 01 93 43 6b 42 83 45 00 05 83 40 00 00 83  Ik..CkB.E...@...
0000af70: 43 00 04 83 49 00 34 93 40 6b 00 93 43 6b 00 93  C...I.4.@k..Ck..
0000af80: 49 6b 03 93 45 6b 3e 83 45 00 07 83 40 00 01 83  Ik..Ek>.E...@...
0000af90: 43 00 02 83 49 00 30 93 40 6b 05 93 43 6b 00 93  C...I.0.@k..Ck..
0000afa0: 45 6b 00 93 49 6b 63 83 45 00 06 83 49 00 00 83  Ek..Ikc.E...I...
0000afb0: 43 00 02 83 40 00 15 93 40 6b 00 93 43 6b 00 93  C...@...@k..Ck..
0000afc0: 45 6b 00 93 49 6b 59 83 45 00 02 83 43 00 01 83  Ek..IkY.E...C...
0000afd0: 40 00 05 83 49 00 81 5f 93 47 6b 00 93 4a 6b 00  @...I.._.Gk..Jk.
0000afe0: 93 4c 6b 03 93 44 6b 69 83 4c 00 00 83 47 00 04  .Lk..Dki.L...G..
0000aff0: 83 44 00 01 83 4a 00 1f 93 44 6b 00 93 47 6b 00  .D...J...Dk..Gk.
0000b000: 93 4a 6b 00 93 4c 6b 18 83 47 00 03 83 44 00 00  .Jk..Lk..G...D..
0000b010: 83 4c 00 01 83 4a 00 14 93 4a 6b 00 93 4c 6b 03  .L...J...Jk..Lk.
0000b020: 93 44 6b 00 93 47 6b 82 50 83 4a 00 05 83 47 00  .Dk..Gk.P.J...G.
0000b030: 00 83 44 00 03 83 4c 00 25 93 4a 6b 00 93 4c 6b  ..D...L.%.Jk..Lk
0000b040: 03 93 4e 6b 00 93 53 6b 82 50 83 4e 00 00 83 4a  ..Nk..Sk.P.N...J
0000b050: 00 00 83 4c 00 05 83 53 00 23 93 4b 6b 05 93 47  ...L...S.#.Kk..G
0000b060: 6b 03 93 42 6b 2d 93 45 6b 82 40 83 45 00 00 83  k..Bk-.Ek.@.E...
0000b070: 4b 00 00 83 47 00 00 83 42 00 10 93 3e 6b 00 93  K...G...B...>k..
0000b080: 40 6b 00 93 44 6b 03 93 3b 6b 55 83 40 00 08 83  @k..Dk..;kU.@...
0000b090: 3e 00 08 83 44 00 08 83 3b 00 10 93 44 6b 03 93  >...D...;...Dk..
0000b0a0: 3b 6b 00 93 3e 6b 00 93 40 6b 28 83 40 00 05 83  ;k..>k..@k(.@...
0000b0b0: 3e 00 00 83 44 00 08 83 3b 00 08 93 3b 6b 00 93  >...D...;...;k..
0000b0c0: 3e 6b 00 93 40 6b 00 93 44 6b 23 83 40 00 05 83  >k..@k..Dk#.@...
0000b0d0: 3e 00 0b 83 44 00 05 83 3b 00 44 93 3b 6b 00 93  >...D...;.D.;k..
0000b0e0: 40 6b 00 93 3e 6b 00 93 44 6b 81 18 83 40 00 07  @k..>k..Dk...@..
0000b0f0: 83 44 00 00 83 3e 00 01 83 3b 00 24 93 3e 6b 00  .D...>...;.$.>k.
0000b100: 93 3b 6b 00 93 40 6b 00 93 44 6b 18 83 3e 00 03  .;k..@k..Dk..>..
0000b110: 83 40 00 08 83 44 00 05 83 3b 00 18 93 3b 6b 00  .@...D...;...;k.
0000b120: 93 3e 6b 00 93 40 6b 00 93 44 6b 81 1c 83 40 00  .>k..@k..Dk...@.
0000b130: 04 83 44 00 00 83 3b 00 01 83 3e 00 81 1a 93 3d  ..D...;...>....=
0000b140: 6b 05 93 39 6b 00 93 40 6b 00 93 43 6b 23 83 40  k..9k..@k..Ck#.@
0000b150: 00 00 83 39 00 05 83 3d 00 00 83 43 00 18 93 39  ...9...=...C...9
0000b160: 6b 00 93 3d 6b 00 93 40 6b 00 93 43 6b 58 83 40  k..=k..@k..CkX.@
0000b170: 00 08 83 3d 00 03 83 43 00 05 83 39 00 14 93 3d  ...=...C...9...=
0000b180: 6b 00 93 39 6b 04 93 40 6b 00 93 43 6b 21 83 39  k..9k..@k..Ck!.9
0000b190: 00 00 83 3d 00 02 83 40 00 00 83 43 00 1d 93 39  ...=...@...C...9
0000b1a0: 6b 00 93 3d 6b 00 93 43 6b 01 93 40 6b 53 83 40  k..=k..Ck..@kS.@
0000b1b0: 00 07 83 43 00 00 83 3d 00 05 83 39 00 19 93 39  ...C...=...9...9
0000b1c0: 6b 02 93 3d 6b 00 93 40 6b 00 93 43 6b 1e 83 3d  k..=k..@k..Ck..=
0000b1d0: 00 02 83 40 00 01 83 39 00 00 83 43 00 25 93 39  ...@...9...C.%.9
0000b1e0: 6b 00 93 43 6b 02 93 3d 6b 01 93 40 6b 75 83 3d  k..Ck..=k..@ku.=
0000b1f0: 00 02 83 40 00 05 83 43 00 00 83 39 00 81 3b 93  ...@...C...9..;.
0000b200: 3b 6b 00 93 3e 6b 05 93 40 6b 00 93 44 6b 2b 83  ;k..>k..@k..Dk+.
0000b210: 3b 00 05 83 3e 00 00 83 40 00 03 83 44 00 0d 93  ;...>...@...D...
0000b220: 3e 6b 00 93 44 6b 03 93 3b 6b 00 93 40 6b 58 83  >k..Dk..;k..@kX.
0000b230: 40 00 05 83 3e 00 03 83 3b 00 08 83 44 00 15 93  @...>...;...D...
0000b240: 44 6b 00 93 3b 6b 00 93 3e 6b 00 93 40 6b 29 83  Dk..;k..>k..@k).
0000b250: 40 00 00 83 3e 00 03 83 3b 00 00 83 44 00 14 93  @...>...;...D...
0000b260: 3b 6b 00 93 3e 6b 00 93 40 6b 00 93 44 6b 73 83  ;k..>k..@k..Dks.
0000b270: 40 00 08 83 3e 00 0e 83 3b 00 03 83 44 00 34 93  @...>...;...D.4.
0000b280: 40 6b 00 93 44 6b 03 93 3e 6b 00 93 3b 6b 61 83  @k..Dk..>k..;ka.
0000b290: 40 00 07 83 3e 00 01 83 44 00 00 83 3b 00 81 4f  @...>...D...;..O
0000b2a0: 93 3b 6b 00 93 3e 6b 05 93 40 6b 00 93 44 6b 2b  .;k..>k..@k..Dk+
0000b2b0: 83 3b 00 05 83 3e 00 00 83 40 00 03 83 44 00 0d  .;...>...@...D..
0000b2c0: 93 3e 6b 00 93 44 6b 03 93 3b 6b 00 93 40 6b 58  .>k..Dk..;k..@kX
0000b2d0: 83 40 00 05 83 3e 00 03 83 3b 00 08 83 44 00 15  .@...>...;...D..
0000b2e0: 93 44 6b 00 93 3b 6b 00 93 3e 6b 00 93 40 6b 29  .Dk..;k..>k..@k)
0000b2f0: 83 40 00 00 83 3e 00 03 83 3b 00 00 83 44 00 14  .@...>...;...D..
0000b300: 93 3b 6b 00 93 3e 6b 00 93 40 6b 00 93 44 6b 73  .;k..>k..@k..Dks
0000b310: 83 40 00 08 83 3e 00 0e 83 3b 00 03 83 44 00 34  .@...>...;...D.4
0000b320: 93 40 6b 00 93 44 6b 03 93 3e 6b 00 93 3b 6b 61  .@k..Dk..>k..;ka
0000b330: 83 40 00 07 83 3e 00 01 83 44 00 00 83 3b 00 81  .@...>...D...;..
0000b340: 54 93 39 6b 00 93 3d 6b 00 93 40 6b 00 93 43 6b  T.9k..=k..@k..Ck
0000b350: 28 83 43 00 00 83 3d 00 03 83 40 00 0d 83 39 00  (.C...=...@...9.
0000b360: 08 93 39 6b 00 93 40 6b 00 93 43 6b 03 93 3d 6b  ..9k..@k..Ck..=k
0000b370: 5d 83 40 00 03 83 3d 00 00 83 43 00 05 83 39 00  ].@...=...C...9.
0000b380: 13 93 39 6b 01 93 3d 6b 04 93 40 6b 00 93 43 6b  ..9k..=k..@k..Ck
0000b390: 1b 83 39 00 05 83 3d 00 03 83 40 00 00 83 43 00  ..9...=...@...C.
0000b3a0: 1d 93 39 6b 00 93 40 6b 03 93 43 6b 05 93 3d 6b  ..9k..@k..Ck..=k
0000b3b0: 81 00 83 39 00 03 83 3d 00 01 83 40 00 08 83 43  ...9...=...@...C
0000b3c0: 00 2c 93 39 6b 00 93 43 6b 03 93 3d 6b 00 93 40  .,.9k..Ck..=k..@
0000b3d0: 6b 81 16 83 40 00 00 83 3d 00 08 83 39 00 02 83  k...@...=...9...
0000b3e0: 43 00 81 1d 93 39 6b 00 93 40 6b 03 93 3d 6b 01  C....9k..@k..=k.
0000b3f0: 93 43 6b 2c 83 3d 00 01 83 40 00 02 83 39 00 01  .Ck,.=...@...9..
0000b400: 83 43 00 0c 93 3d 6b 03 93 43 6b 05 93 40 6b 01  .C...=k..Ck..@k.
0000b410: 93 39 6b 4a 83 3d 00 05 83 43 00 00 83 40 00 09  .9kJ.=...C...@..
0000b420: 83 39 00 20 93 39 6b 02 93 3d 6b 01 93 43 6b 04  .9. .9k..=k..Ck.
0000b430: 93 40 6b 1c 83 40 00 00 83 3d 00 05 83 43 00 02  .@k..@...=...C..
0000b440: 83 39 00 15 93 40 6b 03 93 3d 6b 00 93 43 6b 05  .9...@k..=k..Ck.
0000b450: 93 39 6b 81 03 83 3d 00 05 83 40 00 01 83 39 00  .9k...=...@...9.
0000b460: 02 83 43 00 2d 93 3d 6b 00 93 40 6b 00 93 43 6b  ..C.-.=k..@k..Ck
0000b470: 03 93 39 6b 81 20 83 39 00 05 83 3d 00 00 83 40  ..9k. .9...=...@
0000b480: 00 01 83 43 00 81 12 93 3b 6b 00 93 3e 6b 05 93  ...C....;k..>k..
0000b490: 40 6b 00 93 44 6b 2b 83 3b 00 05 83 3e 00 00 83  @k..Dk+.;...>...
0000b4a0: 40 00 03 83 44 00 0d 93 3e 6b 00 93 44 6b 03 93  @...D...>k..Dk..
0000b4b0: 3b 6b 00 93 40 6b 58 83 40 00 05 83 3e 00 03 83  ;k..@kX.@...>...
0000b4c0: 3b 00 08 83 44 00 15 93 44 6b 00 93 3b 6b 00 93  ;...D...Dk..;k..
0000b4d0: 3e 6b 00 93 40 6b 29 83 40 00 00 83 3e 00 03 83  >k..@k).@...>...
0000b4e0: 3b 00 00 83 44 00 14 93 3b 6b 00 93 3e 6b 00 93  ;...D...;k..>k..
0000b4f0: 40 6b 00 93 44 6b 73 83 40 00 08 83 3e 00 0e 83  @k..Dks.@...>...
0000b500: 3b 00 03 83 44 00 34 93 40 6b 00 93 44 6b 03 93  ;...D.4.@k..Dk..
0000b510: 3e 6b 00 93 3b 6b 61 83 40 00 07 83 3e 00 01 83  >k..;ka.@...>...
0000b520: 44 00 00 83 3b 00 81 4f 93 3b 6b 00 93 3e 6b 05  D...;..O.;k..>k.
0000b530: 93 40 6b 00 93 44 6b 2b 83 3b 00 05 83 3e 00 00  .@k..Dk+.;...>..
0000b540: 83 40 00 03 83 44 00 0d 93 3e 6b 00 93 44 6b 03  .@...D...>k..Dk.
0000b550: 93 3b 6b 00 93 40 6b 58 83 40 00 05 83 3e 00 03  .;k..@kX.@...>..
0000b560: 83 3b 00 08 83 44 00 15 93 44 6b 00 93 3b 6b 00  .;...D...Dk..;k.
0000b570: 93 3e 6b 00 93 40 6b 29 83 40 00 00 83 3e 00 03  .>k..@k).@...>..
0000b580: 83 3b 00 00 83 44 00 14 93 3b 6b 00 93 3e 6b 00  .;...D...;k..>k.
0000b590: 93 40 6b 00 93 44 6b 73 83 40 00 08 83 3e 00 0e  .@k..Dks.@...>..
0000b5a0: 83 3b 00 03 83 44 00 34 93 40 6b 00 93 44 6b 03  .;...D.4.@k..Dk.
0000b5b0: 93 3e 6b 00 93 3b 6b 61 83 40 00 07 83 3e 00 01  .>k..;ka.@...>..
0000b5c0: 83 44 00 00 83 3b 00 81 54 93 45 6b 00 93 3f 6b  .D...;..T.Ek..?k
0000b5d0: 00 93 42 6b 01 93 3b 6b 2f 83 3f 00 00 83 45 00  ..Bk..;k/.?...E.
0000b5e0: 01 83 42 00 03 83 3b 00 0c 93 45 6b 03 93 3b 6b  ..B...;...Ek..;k
0000b5f0: 00 93 3f 6b 00 93 42 6b 58 83 45 00 06 83 3f 00  ..?k..BkX.E...?.
0000b600: 07 83 3b 00 00 83 42 00 18 93 3b 6b 00 93 3f 6b  ..;...B...;k..?k
0000b610: 00 93 42 6b 00 93 45 6b 23 83 45 00 05 83 3f 00  ..Bk..Ek#.E...?.
0000b620: 01 83 42 00 02 83 3b 00 15 93 45 6b 01 93 42 6b  ..B...;...Ek..Bk
0000b630: 02 93 3f 6b 00 93 3b 6b 71 83 3f 00 07 83 3b 00  ..?k..;kq.?...;.
0000b640: 01 83 45 00 05 83 42 00 3f 93 45 6b 03 93 3b 6b  ..E...B.?.Ek..;k
0000b650: 00 93 42 6b 00 93 3f 6b 60 83 3f 00 00 83 45 00  ..Bk..?k`.?...E.
0000b660: 05 83 42 00 00 83 3b 00 81 53 93 39 6b 05 93 3d  ..B...;..S.9k..=
0000b670: 6b 00 93 40 6b 00 93 43 6b 2b 83 40 00 01 83 3d  k..@k..Ck+.@...=
0000b680: 00 04 83 39 00 00 83 43 00 10 93 39 6b 00 93 3d  ...9...C...9k..=
0000b690: 6b 01 93 40 6b 00 93 43 6b 68 83 40 00 03 83 39  k..@k..Ckh.@...9
0000b6a0: 00 00 83 3d 00 04 83 43 00 0b 93 3d 6b 05 93 40  ...=...C...=k..@
0000b6b0: 6b 03 93 39 6b 00 93 43 6b 29 83 40 00 04 83 3d  k..9k..Ck).@...=
0000b6c0: 00 00 83 39 00 03 83 43 00 0d 93 43 6b 00 93 3d  ...9...C...Ck..=
0000b6d0: 6b 03 93 39 6b 05 93 40 6b 81 01 83 40 00 02 83  k..9k..@k...@...
0000b6e0: 39 00 00 83 3d 00 01 83 43 00 34 93 39 6b 00 93  9...=...C.4.9k..
0000b6f0: 3d 6b 00 93 40 6b 00 93 43 6b 78 83 40 00 00 83  =k..@k..Ckx.@...
0000b700: 3d 00 03 83 43 00 05 83 39 00 81 3b 93 3b 6b 00  =...C...9..;.;k.
0000b710: 93 3e 6b 05 93 40 6b 00 93 44 6b 2b 83 3b 00 05  .>k..@k..Dk+.;..
0000b720: 83 3e 00 00 83 40 00 03 83 44 00 0d 93 3e 6b 00  .>...@...D...>k.
0000b730: 93 44 6b 03 93 3b 6b 00 93 40 6b 58 83 40 00 05  .Dk..;k..@kX.@..
0000b740: 83 3e 00 00 83 44 00 03 83 3b 00 1d 93 44 6b 00  .>...D...;...Dk.
0000b750: 93 3b 6b 00 93 3e 6b 00 93 40 6b 29 83 40 00 00  .;k..>k..@k).@..
0000b760: 83 3e 00 03 83 3b 00 00 83 44 00 14 93 3b 6b 00  .>...;...D...;k.
0000b770: 93 3e 6b 00 93 40 6b 00 93 44 6b 73 83 40 00 08  .>k..@k..Dks.@..
0000b780: 83 3e 00 0e 83 3b 00 03 83 44 00 34 93 40 6b 00  .>...;...D.4.@k.
0000b790: 93 44 6b 03 93 3e 6b 00 93 3b 6b 61 83 40 00 07  .Dk..>k..;ka.@..
0000b7a0: 83 3e 00 01 83 44 00 00 83 3b 00 81 4f 93 3b 6b  .>...D...;..O.;k
0000b7b0: 00 93 3e 6b 05 93 40 6b 00 93 44 6b 2b 83 3b 00  ..>k..@k..Dk+.;.
0000b7c0: 05 83 3e 00 00 83 40 00 03 83 44 00 0d 93 3e 6b  ..>...@...D...>k
0000b7d0: 00 93 44 6b 03 93 3b 6b 00 93 40 6b 58 83 40 00  ..Dk..;k..@kX.@.
0000b7e0: 05 83 3e 00 03 83 3b 00 08 83 44 00 15 93 44 6b  ..>...;...D...Dk
0000b7f0: 00 93 3b 6b 00 93 3e 6b 00 93 40 6b 29 83 40 00  ..;k..>k..@k).@.
0000b800: 00 83 3e 00 03 83 3b 00 00 83 44 00 14 93 42 6b  ..>...;...D...Bk
0000b810: 03 93 3b 6b 00 93 39 6b 00 93 3f 6b 82 48 83 42  ..;k..9k..?k.H.B
0000b820: 00 05 83 3f 00 03 83 3b 00 05 83 39 00 81 38 93  ...?...;...9..8.
0000b830: 40 6b 00 93 44 6b 00 93 47 6b 00 93 4a 6b 23 83  @k..Dk..Gk..Jk#.
0000b840: 4a 00 00 83 40 00 05 83 47 00 00 83 44 00 18 93  J...@...G...D...
0000b850: 40 6b 00 93 44 6b 00 93 47 6b 01 93 4a 6b 57 83  @k..Dk..Gk..JkW.
0000b860: 40 00 01 83 44 00 03 83 47 00 05 83 4a 00 0f 93  @...D...G...J...
0000b870: 40 6b 00 93 44 6b 00 93 47 6b 00 93 4a 6b 23 83  @k..Dk..Gk..Jk#.
0000b880: 40 00 06 83 44 00 02 83 47 00 01 83 4a 00 14 93  @...D...G...J...
0000b890: 4a 6b 00 93 40 6b 00 93 47 6b 03 93 44 6b 61 83  Jk..@k..Gk..Dka.
0000b8a0: 40 00 07 83 44 00 08 83 4a 00 01 83 47 00 0c 93  @...D...J...G...
0000b8b0: 40 6b 00 93 47 6b 00 93 4a 6b 03 93 44 6b 30 83  @k..Gk..Jk..Dk0.
0000b8c0: 40 00 01 83 44 00 04 83 4a 00 00 83 47 00 08 93  @...D...J...G...
0000b8d0: 40 6b 00 93 44 6b 00 93 47 6b 00 93 4a 6b 78 83  @k..Dk..Gk..Jkx.
0000b8e0: 40 00 01 83 44 00 02 83 47 00 09 83 4a 00 81 3c  @...D...G...J..<
0000b8f0: 93 40 6b 00 93 43 6b 00 93 45 6b 00 93 49 6b 20  .@k..Ck..Ek..Ik 
0000b900: 83 43 00 01 83 40 00 02 83 45 00 01 83 49 00 1c  .C...@...E...I..
0000b910: 93 49 6b 01 93 40 6b 00 93 43 6b 00 93 45 6b 53  .Ik..@k..Ck..EkS
0000b920: 83 45 00 04 83 49 00 00 83 40 00 01 83 43 00 27  .E...I...@...C.'
0000b930: 93 40 6b 00 93 43 6b 00 93 45 6b 00 93 49 6b 1c  .@k..Ck..Ek..Ik.
0000b940: 83 43 00 00 83 40 00 04 83 45 00 03 83 49 00 1d  .C...@...E...I..
0000b950: 93 40 6b 00 93 43 6b 01 93 45 6b 02 93 49 6b 70  .@k..Ck..Ek..Ikp
0000b960: 83 43 00 01 83 45 00 0f 83 49 00 05 83 40 00 38  .C...E...I...@.8
0000b970: 93 43 6b 01 93 40 6b 00 93 45 6b 02 93 49 6b 50  .Ck..@k..Ek..IkP
0000b980: 83 49 00 00 83 45 00 00 83 40 00 05 83 43 00 6b  .I...E...@...C.k
0000b990: 93 3e 6b 00 93 40 6b 00 93 44 6b 00 93 47 6b 81  .>k..@k..Dk..Gk.
0000b9a0: 11 83 47 00 04 83 3e 00 01 83 44 00 08 83 40 00  ..G...>...D...@.
0000b9b0: 1f 93 3e 6b 00 93 47 6b 03 93 40 6b 00 93 44 6b  ..>k..Gk..@k..Dk
0000b9c0: 2d 83 3e 00 08 83 47 00 01 83 40 00 08 83 44 00  -.>...G...@...D.
0000b9d0: 3f 93 44 6b 00 93 47 6b 01 93 3e 6b 02 93 40 6b  ?.Dk..Gk..>k..@k
0000b9e0: 81 15 83 40 00 01 83 47 00 02 83 44 00 01 83 3e  ...@...G...D...>
0000b9f0: 00 20 93 40 6b 04 93 3e 6b 00 93 44 6b 00 93 47  . .@k..>k..Dk..G
0000ba00: 6b 1c 83 44 00 00 83 3e 00 04 83 40 00 03 83 47  k..D...>...@...G
0000ba10: 00 1d 93 40 6b 00 93 47 6b 01 93 3e 6b 00 93 44  ...@k..Gk..>k..D
0000ba20: 6b 81 23 83 40 00 05 83 3e 00 03 83 47 00 05 83  k.#.@...>...G...
0000ba30: 44 00 81 0f 93 3e 6b 00 93 40 6b 00 93 44 6b 00  D....>k..@k..Dk.
0000ba40: 93 47 6b 20 83 47 00 03 83 44 00 00 83 3e 00 0d  .Gk .G...D...>..
0000ba50: 83 40 00 0b 93 3e 6b 00 93 40 6b 01 93 44 6b 00  .@...>k..@k..Dk.
0000ba60: 93 47 6b 58 83 47 00 04 83 3e 00 00 83 40 00 00  .GkX.G...>...@..
0000ba70: 83 44 00 1c 93 44 6b 05 93 3e 6b 02 93 47 6b 01  .D...Dk..>k..Gk.
0000ba80: 93 40 6b 1c 83 40 00 01 83 47 00 03 83 3e 00 04  .@k..@...G...>..
0000ba90: 83 44 00 20 93 3e 6b 00 93 47 6b 01 93 40 6b 02  .D. .>k..Gk..@k.
0000baa0: 93 44 6b 78 83 40 00 00 83 47 00 08 83 44 00 01  .Dkx.@...G...D..
0000bab0: 83 3e 00 3c 93 3e 6b 00 93 44 6b 00 93 47 6b 03  .>.<.>k..Dk..Gk.
0000bac0: 93 40 6b 78 83 40 00 08 83 44 00 01 83 3e 00 04  .@kx.@...D...>..
0000bad0: 83 47 00 81 38 93 43 6b 00 93 4c 6b 03 93 45 6b  .G..8.Ck..Lk..Ek
0000bae0: 00 93 49 6b 81 4d 83 49 00 01 83 4c 00 03 83 45  ..Ik.M.I...L...E
0000baf0: 00 05 83 43 00 27 93 4c 6b 03 93 43 6b 00 93 45  ...C.'.Lk..Ck..E
0000bb00: 6b 05 93 49 6b 82 53 83 45 00 01 83 49 00 00 83  k..Ik.S.E...I...
0000bb10: 4c 00 05 83 43 00 1f 93 45 6b 00 93 43 6b 03 93  L...C...Ek..Ck..
0000bb20: 49 6b 00 93 4c 6b 82 10 83 45 00 01 83 4c 00 07  Ik..Lk...E...L..
0000bb30: 83 49 00 05 83 43 00 20 93 43 6b 00 93 45 6b 00  .I...C. .Ck..Ek.
0000bb40: 93 4c 6b 03 93 49 6b 83 28 83 45 00 05 83 43 00  .Lk..Ik.(.E...C.
0000bb50: 00 83 4c 00 00 83 49 00 81 00 93 44 6b 00 93 47  ..L...I....Dk..G
0000bb60: 6b 00 93 3e 6b 00 93 40 6b 23 83 47 00 06 83 44  k..>k..@k#.G...D
0000bb70: 00 03 83 3e 00 04 83 40 00 13 93 44 6b 05 93 3e  ...>...@...Dk..>
0000bb80: 6b 00 93 40 6b 00 93 47 6b 59 83 3e 00 02 83 47  k..@k..GkY.>...G
0000bb90: 00 01 83 44 00 05 83 40 00 17 93 3e 6b 00 93 40  ...D...@...>k..@
0000bba0: 6b 00 93 47 6b 01 93 44 6b 1a 83 47 00 00 83 3e  k..Gk..Dk..G...>
0000bbb0: 00 05 83 40 00 00 83 44 00 30 93 44 6b 00 93 53  ...@...D.0.Dk..S
0000bbc0: 6b 08 93 4c 6b 03 93 4a 6b 82 3d 83 53 00 01 83  k..Lk..Jk.=.S...
0000bbd0: 4a 00 07 83 4c 00 00 83 44 00 33 93 47 6b 00 93  J...L...D.3.Gk..
0000bbe0: 3e 6b 00 93 44 6b 01 93 40 6b 81 35 83 44 00 00  >k..Dk..@k.5.D..
0000bbf0: 83 47 00 08 83 40 00 02 83 3e 00 0d 93 44 6b 00  .G...@...>...Dk.
0000bc00: 93 47 6b 01 93 3e 6b 00 93 40 6b 27 83 3e 00 01  .Gk..>k..@k'.>..
0000bc10: 83 47 00 03 83 44 00 00 83 40 00 44 93 4a 6b 00  .G...D...@.D.Jk.
0000bc20: 93 4c 6b 00 93 44 6b 00 93 53 6b 81 2b 83 44 00  .Lk..Dk..Sk.+.D.
0000bc30: 01 83 53 00 00 83 4c 00 07 83 4a 00 0d 93 47 6b  ..S...L...J...Gk
0000bc40: 00 93 44 6b 03 93 3e 6b 00 93 40 6b 21 83 47 00  ..Dk..>k..@k!.G.
0000bc50: 04 83 44 00 01 83 3e 00 00 83 40 00 17 93 3e 6b  ..D...>...@...>k
0000bc60: 00 93 40 6b 00 93 44 6b 00 93 47 6b 81 7c 83 40  ..@k..Dk..Gk.|.@
0000bc70: 00 04 83 44 00 01 83 3e 00 00 83 47 00 3f 93 42  ...D...>...G.?.B
0000bc80: 6b 00 93 45 6b 00 93 47 6b 00 93 4b 6b 40 83 4b  k..Ek..Gk..Kk@.K
0000bc90: 00 00 83 42 00 00 83 45 00 00 83 47 00 40 93 42  ...B...E...G.@.B
0000bca0: 6b 00 93 45 6b 00 93 47 6b 00 93 4b 6b 43 83 47  k..Ek..Gk..KkC.G
0000bcb0: 00 05 83 42 00 00 83 45 00 04 83 4b 00 34 93 42  ...B...E...K.4.B
0000bcc0: 6b 00 93 45 6b 00 93 47 6b 00 93 4b 6b 3b 83 47  k..Ek..Gk..Kk;.G
0000bcd0: 00 05 83 45 00 08 83 4b 00 03 83 42 00 35 93 42  ...E...K...B.5.B
0000bce0: 6b 00 93 45 6b 00 93 47 6b 00 93 4b 6b 40 83 4b  k..Ek..Gk..Kk@.K
0000bcf0: 00 03 83 45 00 05 83 47 00 00 83 42 00 38 93 42  ...E...G...B.8.B
0000bd00: 6b 00 93 45 6b 00 93 47 6b 00 93 4b 6b 70 83 4b  k..Ek..Gk..Kkp.K
0000bd10: 00 00 83 42 00 03 83 47 00 00 83 45 00 81 0d 93  ...B...G...E....
0000bd20: 40 6b 00 93 43 6b 00 93 45 6b 00 93 49 6b 50 83  @k..Ck..Ek..IkP.
0000bd30: 45 00 01 83 43 00 02 83 40 00 00 83 49 00 2d 93  E...C...@...I.-.
0000bd40: 40 6b 00 93 43 6b 00 93 45 6b 00 93 49 6b 33 83  @k..Ck..Ek..Ik3.
0000bd50: 49 00 05 83 45 00 00 83 43 00 03 83 40 00 45 93  I...E...C...@.E.
0000bd60: 4c 6b 00 93 43 6b 00 93 45 6b 00 93 49 6b 68 83  Lk..Ck..Ek..Ikh.
0000bd70: 49 00 00 83 45 00 00 83 43 00 03 83 4c 00 15 93  I...E...C...L...
0000bd80: 40 6b 00 93 43 6b 00 93 45 6b 00 93 49 6b 81 6b  @k..Ck..Ek..Ik.k
0000bd90: 83 45 00 05 83 40 00 00 83 43 00 00 83 49 00 81  .E...@...C...I..
0000bda0: 10 93 40 6b 00 93 3e 6b 00 93 44 6b 00 93 47 6b  ..@k..>k..Dk..Gk
0000bdb0: 2b 83 40 00 05 83 44 00 03 83 3e 00 00 83 47 00  +.@...D...>...G.
0000bdc0: 0d 93 40 6b 00 93 47 6b 00 93 3e 6b 00 93 44 6b  ..@k..Gk..>k..Dk
0000bdd0: 43 83 44 00 05 83 3e 00 03 83 47 00 00 83 40 00  C.D...>...G...@.
0000bde0: 35 93 3e 6b 00 93 40 6b 00 93 44 6b 00 93 47 6b  5.>k..@k..Dk..Gk
0000bdf0: 20 83 40 00 03 83 3e 00 00 83 44 00 00 83 47 00   .@...>...D...G.
0000be00: 1d 93 4a 6b 00 93 47 6b 00 93 44 6b 01 93 40 6b  ..Jk..Gk..Dk..@k
0000be10: 82 0b 83 40 00 0c 83 44 00 00 83 4a 00 01 83 47  ...@...D...J...G
0000be20: 00 67 93 42 6b 00 93 47 6b 00 93 4b 6b 03 93 45  .g.Bk..Gk..Kk..E
0000be30: 6b 59 83 47 00 04 83 4b 00 01 83 45 00 03 83 42  kY.G...K...E...B
0000be40: 00 1c 93 47 6b 00 93 42 6b 00 93 4b 6b 00 93 45  ...Gk..Bk..Kk..E
0000be50: 6b 3b 83 45 00 00 83 47 00 05 83 4b 00 01 83 42  k;.E...G...K...B
0000be60: 00 3f 93 42 6b 00 93 45 6b 00 93 47 6b 00 93 4b  .?.Bk..Ek..Gk..K
0000be70: 6b 38 83 47 00 00 83 45 00 03 83 4b 00 08 83 42  k8.G...E...K...B
0000be80: 00 3d 93 4e 6b 00 93 45 6b 00 93 47 6b 00 93 4b  .=.Nk..Ek..Gk..K
0000be90: 6b 70 83 4e 00 10 93 42 6b 81 2b 83 47 00 05 83  kp.N...Bk.+.G...
0000bea0: 4b 00 00 83 45 00 00 83 42 00 50 93 3e 6b 00 93  K...E...B.P.>k..
0000beb0: 40 6b 00 93 44 6b 03 93 3b 6b 55 83 40 00 08 83  @k..Dk..;kU.@...
0000bec0: 3e 00 08 83 44 00 08 83 3b 00 10 93 44 6b 03 93  >...D...;...Dk..
0000bed0: 3b 6b 00 93 3e 6b 00 93 40 6b 28 83 40 00 05 83  ;k..>k..@k(.@...
0000bee0: 3e 00 00 83 44 00 08 83 3b 00 08 93 3b 6b 00 93  >...D...;...;k..
0000bef0: 3e 6b 00 93 40 6b 00 93 44 6b 23 83 40 00 05 83  >k..@k..Dk#.@...
0000bf00: 3e 00 0b 83 44 00 05 83 3b 00 44 93 3b 6b 00 93  >...D...;.D.;k..
0000bf10: 40 6b 00 93 3e 6b 00 93 44 6b 81 18 83 40 00 07  @k..>k..Dk...@..
0000bf20: 83 44 00 00 83 3e 00 01 83 3b 00 24 93 3e 6b 00  .D...>...;.$.>k.
0000bf30: 93 3b 6b 00 93 40 6b 00 93 44 6b 18 83 3e 00 03  .;k..@k..Dk..>..
0000bf40: 83 40 00 08 83 44 00 05 83 3b 00 18 93 3b 6b 00  .@...D...;...;k.
0000bf50: 93 3e 6b 00 93 40 6b 00 93 44 6b 81 1c 83 40 00  .>k..@k..Dk...@.
0000bf60: 04 83 44 00 00 83 3b 00 01 83 3e 00 81 1a 93 3d  ..D...;...>....=
0000bf70: 6b 05 93 39 6b 00 93 40 6b 00 93 43 6b 23 83 40  k..9k..@k..Ck#.@
0000bf80: 00 00 83 39 00 05 83 3d 00 00 83 43 00 18 93 39  ...9...=...C...9
0000bf90: 6b 00 93 3d 6b 00 93 40 6b 00 93 43 6b 58 83 40  k..=k..@k..CkX.@
0000bfa0: 00 08 83 3d 00 03 83 43 00 05 83 39 00 14 93 3d  ...=...C...9...=
0000bfb0: 6b 00 93 39 6b 04 93 40 6b 00 93 43 6b 21 83 39  k..9k..@k..Ck!.9
0000bfc0: 00 00 83 3d 00 02 83 40 00 00 83 43 00 1d 93 39  ...=...@...C...9
0000bfd0: 6b 00 93 3d 6b 00 93 43 6b 01 93 40 6b 53 83 40  k..=k..Ck..@kS.@
0000bfe0: 00 07 83 43 00 00 83 3d 00 05 83 39 00 19 93 39  ...C...=...9...9
0000bff0: 6b 02 93 3d 6b 00 93 40 6b 00 93 43 6b 1e 83 3d  k..=k..@k..Ck..=
0000c000: 00 02 83 40 00 01 83 39 00 00 83 43 00 25 93 39  ...@...9...C.%.9
0000c010: 6b 00 93 43 6b 02 93 3d 6b 01 93 40 6b 75 83 3d  k..Ck..=k..@ku.=
0000c020: 00 02 83 40 00 05 83 43 00 00 83 39 00 81 3b 93  ...@...C...9..;.
0000c030: 3b 6b 00 93 3e 6b 05 93 40 6b 00 93 44 6b 2b 83  ;k..>k..@k..Dk+.
0000c040: 3b 00 05 83 3e 00 00 83 40 00 03 83 44 00 0d 93  ;...>...@...D...
0000c050: 3e 6b 00 93 44 6b 03 93 3b 6b 00 93 40 6b 58 83  >k..Dk..;k..@kX.
0000c060: 40 00 05 83 3e 00 03 83 3b 00 08 83 44 00 15 93  @...>...;...D...
0000c070: 44 6b 00 93 3b 6b 00 93 3e 6b 00 93 40 6b 29 83  Dk..;k..>k..@k).
0000c080: 40 00 00 83 3e 00 03 83 3b 00 00 83 44 00 14 93  @...>...;...D...
0000c090: 3b 6b 00 93 3e 6b 00 93 40 6b 00 93 44 6b 73 83  ;k..>k..@k..Dks.
0000c0a0: 40 00 08 83 3e 00 0e 83 3b 00 03 83 44 00 34 93  @...>...;...D.4.
0000c0b0: 40 6b 00 93 44 6b 03 93 3e 6b 00 93 3b 6b 61 83  @k..Dk..>k..;ka.
0000c0c0: 40 00 07 83 3e 00 01 83 44 00 00 83 3b 00 81 4f  @...>...D...;..O
0000c0d0: 93 3b 6b 00 93 3e 6b 05 93 40 6b 00 93 44 6b 2b  .;k..>k..@k..Dk+
0000c0e0: 83 3b 00 05 83 3e 00 00 83 40 00 03 83 44 00 0d  .;...>...@...D..
0000c0f0: 93 3e 6b 00 93 44 6b 03 93 3b 6b 00 93 40 6b 58  .>k..Dk..;k..@kX
0000c100: 83 40 00 05 83 3e 00 03 83 3b 00 08 83 44 00 15  .@...>...;...D..
0000c110: 93 44 6b 00 93 3b 6b 00 93 3e 6b 00 93 40 6b 29  .Dk..;k..>k..@k)
0000c120: 83 40 00 00 83 3e 00 03 83 3b 00 00 83 44 00 14  .@...>...;...D..
0000c130: 93 3b 6b 00 93 3e 6b 00 93 40 6b 00 93 44 6b 73  .;k..>k..@k..Dks
0000c140: 83 40 00 08 83 3e 00 0e 83 3b 00 03 83 44 00 34  .@...>...;...D.4
0000c150: 93 40 6b 00 93 44 6b 03 93 3e 6b 00 93 3b 6b 61  .@k..Dk..>k..;ka
0000c160: 83 40 00 07 83 3e 00 01 83 44 00 00 83 3b 00 81  .@...>...D...;..
0000c170: 54 93 39 6b 00 93 3d 6b 00 93 40 6b 00 93 43 6b  T.9k..=k..@k..Ck
0000c180: 28 83 43 00 00 83 3d 00 03 83 40 00 0d 83 39 00  (.C...=...@...9.
0000c190: 08 93 39 6b 00 93 40 6b 00 93 43 6b 03 93 3d 6b  ..9k..@k..Ck..=k
0000c1a0: 5d 83 40 00 03 83 3d 00 00 83 43 00 05 83 39 00  ].@...=...C...9.
0000c1b0: 13 93 39 6b 01 93 3d 6b 04 93 40 6b 00 93 43 6b  ..9k..=k..@k..Ck
0000c1c0: 1b 83 39 00 05 83 3d 00 03 83 40 00 00 83 43 00  ..9...=...@...C.
0000c1d0: 1d 93 39 6b 00 93 40 6b 03 93 43 6b 05 93 3d 6b  ..9k..@k..Ck..=k
0000c1e0: 81 00 83 39 00 03 83 3d 00 01 83 40 00 08 83 43  ...9...=...@...C
0000c1f0: 00 2c 93 39 6b 00 93 43 6b 03 93 3d 6b 00 93 40  .,.9k..Ck..=k..@
0000c200: 6b 81 16 83 40 00 00 83 3d 00 08 83 39 00 02 83  k...@...=...9...
0000c210: 43 00 81 1d 93 39 6b 00 93 40 6b 03 93 3d 6b 01  C....9k..@k..=k.
0000c220: 93 43 6b 2c 83 3d 00 01 83 40 00 02 83 39 00 01  .Ck,.=...@...9..
0000c230: 83 43 00 0c 93 3d 6b 03 93 43 6b 05 93 40 6b 01  .C...=k..Ck..@k.
0000c240: 93 39 6b 4a 83 3d 00 05 83 43 00 00 83 40 00 09  .9kJ.=...C...@..
0000c250: 83 39 00 20 93 39 6b 02 93 3d 6b 01 93 43 6b 04  .9. .9k..=k..Ck.
0000c260: 93 40 6b 1c 83 40 00 00 83 3d 00 05 83 43 00 02  .@k..@...=...C..
0000c270: 83 39 00 15 93 40 6b 03 93 3d 6b 00 93 43 6b 05  .9...@k..=k..Ck.
0000c280: 93 39 6b 81 03 83 3d 00 05 83 40 00 01 83 39 00  .9k...=...@...9.
0000c290: 02 83 43 00 2d 93 3d 6b 00 93 40 6b 00 93 43 6b  ..C.-.=k..@k..Ck
0000c2a0: 03 93 39 6b 81 20 83 39 00 05 83 3d 00 00 83 40  ..9k. .9...=...@
0000c2b0: 00 01 83 43 00 81 12 93 3b 6b 00 93 3e 6b 05 93  ...C....;k..>k..
0000c2c0: 40 6b 00 93 44 6b 2b 83 3b 00 05 83 3e 00 00 83  @k..Dk+.;...>...
0000c2d0: 40 00 03 83 44 00 0d 93 3e 6b 00 93 44 6b 03 93  @...D...>k..Dk..
0000c2e0: 3b 6b 00 93 40 6b 58 83 40 00 05 83 3e 00 03 83  ;k..@kX.@...>...
0000c2f0: 3b 00 08 83 44 00 15 93 44 6b 00 93 3b 6b 00 93  ;...D...Dk..;k..
0000c300: 3e 6b 00 93 40 6b 29 83 40 00 00 83 3e 00 03 83  >k..@k).@...>...
0000c310: 3b 00 00 83 44 00 14 93 3b 6b 00 93 3e 6b 00 93  ;...D...;k..>k..
0000c320: 40 6b 00 93 44 6b 73 83 40 00 08 83 3e 00 0e 83  @k..Dks.@...>...
0000c330: 3b 00 03 83 44 00 34 93 40 6b 00 93 44 6b 03 93  ;...D.4.@k..Dk..
0000c340: 3e 6b 00 93 3b 6b 61 83 40 00 07 83 3e 00 01 83  >k..;ka.@...>...
0000c350: 44 00 00 83 3b 00 81 4f 93 3b 6b 00 93 3e 6b 05  D...;..O.;k..>k.
0000c360: 93 40 6b 00 93 44 6b 2b 83 3b 00 05 83 3e 00 00  .@k..Dk+.;...>..
0000c370: 83 40 00 03 83 44 00 0d 93 3e 6b 00 93 44 6b 03  .@...D...>k..Dk.
0000c380: 93 3b 6b 00 93 40 6b 58 83 40 00 05 83 3e 00 03  .;k..@kX.@...>..
0000c390: 83 3b 00 08 83 44 00 15 93 44 6b 00 93 3b 6b 00  .;...D...Dk..;k.
0000c3a0: 93 3e 6b 00 93 40 6b 29 83 40 00 00 83 3e 00 03  .>k..@k).@...>..
0000c3b0: 83 3b 00 00 83 44 00 14 93 3b 6b 00 93 3e 6b 00  .;...D...;k..>k.
0000c3c0: 93 40 6b 00 93 44 6b 73 83 40 00 08 83 3e 00 0e  .@k..Dks.@...>..
0000c3d0: 83 3b 00 03 83 44 00 34 93 40 6b 00 93 44 6b 03  .;...D.4.@k..Dk.
0000c3e0: 93 3e 6b 00 93 3b 6b 61 83 40 00 07 83 3e 00 01  .>k..;ka.@...>..
0000c3f0: 83 44 00 00 83 3b 00 81 54 93 45 6b 00 93 3f 6b  .D...;..T.Ek..?k
0000c400: 00 93 42 6b 01 93 3b 6b 2f 83 3f 00 00 83 45 00  ..Bk..;k/.?...E.
0000c410: 01 83 42 00 03 83 3b 00 0c 93 45 6b 03 93 3b 6b  ..B...;...Ek..;k
0000c420: 00 93 3f 6b 00 93 42 6b 58 83 45 00 06 83 3f 00  ..?k..BkX.E...?.
0000c430: 07 83 3b 00 00 83 42 00 18 93 3b 6b 00 93 3f 6b  ..;...B...;k..?k
0000c440: 00 93 42 6b 00 93 45 6b 23 83 45 00 05 83 3f 00  ..Bk..Ek#.E...?.
0000c450: 01 83 42 00 02 83 3b 00 15 93 45 6b 01 93 42 6b  ..B...;...Ek..Bk
0000c460: 02 93 3f 6b 00 93 3b 6b 71 83 3f 00 07 83 3b 00  ..?k..;kq.?...;.
0000c470: 01 83 45 00 05 83 42 00 3f 93 45 6b 03 93 3b 6b  ..E...B.?.Ek..;k
0000c480: 00 93 42 6b 00 93 3f 6b 60 83 3f 00 00 83 45 00  ..Bk..?k`.?...E.
0000c490: 05 83 42 00 00 83 3b 00 81 53 93 39 6b 05 93 3d  ..B...;..S.9k..=
0000c4a0: 6b 00 93 40 6b 00 93 43 6b 2b 83 40 00 01 83 3d  k..@k..Ck+.@...=
0000c4b0: 00 04 83 39 00 00 83 43 00 10 93 39 6b 00 93 3d  ...9...C...9k..=
0000c4c0: 6b 01 93 40 6b 00 93 43 6b 68 83 40 00 03 83 39  k..@k..Ckh.@...9
0000c4d0: 00 00 83 3d 00 04 83 43 00 0b 93 3d 6b 05 93 40  ...=...C...=k..@
0000c4e0: 6b 03 93 39 6b 00 93 43 6b 29 83 40 00 04 83 3d  k..9k..Ck).@...=
0000c4f0: 00 00 83 39 00 03 83 43 00 0d 93 43 6b 00 93 3d  ...9...C...Ck..=
0000c500: 6b 03 93 39 6b 05 93 40 6b 81 01 83 40 00 02 83  k..9k..@k...@...
0000c510: 39 00 00 83 3d 00 01 83 43 00 34 93 39 6b 00 93  9...=...C.4.9k..
0000c520: 3d 6b 00 93 40 6b 00 93 43 6b 78 83 40 00 00 83  =k..@k..Ckx.@...
0000c530: 3d 00 03 83 43 00 05 83 39 00 81 3b 93 3b 6b 00  =...C...9..;.;k.
0000c540: 93 3e 6b 05 93 40 6b 00 93 44 6b 2b 83 3b 00 05  .>k..@k..Dk+.;..
0000c550: 83 3e 00 00 83 40 00 03 83 44 00 0d 93 3e 6b 00  .>...@...D...>k.
0000c560: 93 44 6b 03 93 3b 6b 00 93 40 6b 58 83 40 00 05  .Dk..;k..@kX.@..
0000c570: 83 3e 00 00 83 44 00 03 83 3b 00 1d 93 44 6b 00  .>...D...;...Dk.
0000c580: 93 3b 6b 00 93 3e 6b 00 93 40 6b 29 83 40 00 00  .;k..>k..@k).@..
0000c590: 83 3e 00 03 83 3b 00 00 83 44 00 14 93 3b 6b 00  .>...;...D...;k.
0000c5a0: 93 3e 6b 00 93 40 6b 00 93 44 6b 73 83 40 00 08  .>k..@k..Dks.@..
0000c5b0: 83 3e 00 0e 83 3b 00 03 83 44 00 34 93 40 6b 00  .>...;...D.4.@k.
0000c5c0: 93 44 6b 03 93 3e 6b 00 93 3b 6b 61 83 40 00 07  .Dk..>k..;ka.@..
0000c5d0: 83 3e 00 01 83 44 00 00 83 3b 00 81 4f 93 3b 6b  .>...D...;..O.;k
0000c5e0: 00 93 3e 6b 05 93 40 6b 00 93 44 6b 2b 83 3b 00  ..>k..@k..Dk+.;.
0000c5f0: 05 83 3e 00 00 83 40 00 03 83 44 00 0d 93 3e 6b  ..>...@...D...>k
0000c600: 00 93 44 6b 03 93 3b 6b 00 93 40 6b 58 83 40 00  ..Dk..;k..@kX.@.
0000c610: 05 83 3e 00 03 83 3b 00 08 83 44 00 15 93 44 6b  ..>...;...D...Dk
0000c620: 00 93 3b 6b 00 93 3e 6b 00 93 40 6b 29 83 40 00  ..;k..>k..@k).@.
0000c630: 00 83 3e 00 03 83 3b 00 00 83 44 00 14 93 42 6b  ..>...;...D...Bk
0000c640: 03 93 3b 6b 00 93 39 6b 00 93 3f 6b 82 48 83 42  ..;k..9k..?k.H.B
0000c650: 00 05 83 3f 00 03 83 3b 00 05 83 39 00 28 93 3e  ...?...;...9.(.>
0000c660: 6b 00 93 44 6b 00 93 47 6b 03 93 40 6b 81 08 83  k..Dk..Gk..@k...
0000c670: 47 00 00 83 44 00 05 83 40 00 01 83 3e 00 08 93  G...D...@...>...
0000c680: 3e 6b 02 93 40 6b 00 93 44 6b 00 93 47 6b 21 83  >k..@k..Dk..Gk!.
0000c690: 3e 00 04 83 40 00 00 83 44 00 01 83 47 00 07 93  >...@...D...G...
0000c6a0: 44 6b 00 93 47 6b 01 93 3e 6b 00 93 40 6b 42 83  Dk..Gk..>k..@kB.
0000c6b0: 44 00 01 83 47 00 00 83 40 00 05 83 3e 00 2f 93  D...G...@...>./.
0000c6c0: 3e 6b 00 93 40 6b 00 93 44 6b 00 93 47 6b 81 1b  >k..@k..Dk..Gk..
0000c6d0: 83 47 00 01 83 44 00 04 83 3e 00 03 83 40 00 1d  .G...D...>...@..
0000c6e0: 93 40 6b 00 93 44 6b 00 93 3e 6b 00 93 47 6b 20  .@k..Dk..>k..Gk 
0000c6f0: 83 3e 00 03 83 47 00 00 83 40 00 05 83 44 00 18  .>...G...@...D..
0000c700: 93 3e 6b 00 93 40 6b 00 93 44 6b 00 93 47 6b 78  .>k..@k..Dk..Gkx
0000c710: 83 40 00 08 83 47 00 08 83 44 00 01 83 3e 00 81  .@...G...D...>..
0000c720: 22 93 49 6b 05 93 40 6b 00 93 43 6b 00 93 45 6b  ".Ik..@k..Ck..Ek
0000c730: 21 83 45 00 08 83 43 00 00 83 49 00 02 83 40 00  !.E...C...I...@.
0000c740: 25 93 43 6b 00 93 40 6b 00 93 49 6b 00 93 45 6b  %.Ck..@k..Ik..Ek
0000c750: 49 83 45 00 07 83 43 00 08 83 49 00 00 83 40 00  I.E...C...I...@.
0000c760: 18 93 45 6b 00 93 43 6b 00 93 49 6b 03 93 40 6b  ..Ek..Ck..Ik..@k
0000c770: 15 83 43 00 04 83 45 00 07 83 40 00 05 83 49 00  ..C...E...@...I.
0000c780: 23 93 49 6b 00 93 40 6b 08 93 43 6b 00 93 45 6b  #.Ik..@k..Ck..Ek
0000c790: 81 08 83 45 00 00 83 43 00 06 83 49 00 02 83 40  ...E...C...I...@
0000c7a0: 00 2d 93 45 6b 00 93 43 6b 00 93 49 6b 00 93 40  .-.Ek..Ck..Ik..@
0000c7b0: 6b 73 83 40 00 08 83 45 00 05 83 43 00 0c 83 49  ks.@...E...C...I
0000c7c0: 00 34 93 4a 6b 00 93 47 6b 01 93 44 6b 12 83 4a  .4.Jk..Gk..Dk..J
0000c7d0: 00 05 93 4c 6b 13 83 4c 00 05 93 4a 6b 13 83 4a  ...Lk..L...Jk..J
0000c7e0: 00 05 93 4c 6b 13 83 4c 00 0d 93 4a 6b 1b 93 4c  ...Lk..L...Jk..L
0000c7f0: 6b 81 0d 83 4c 00 10 93 4e 6b 0b 83 4e 00 05 93  k...L...Nk..N...
0000c800: 4f 6b 0b 83 4f 00 05 93 50 6b 0b 83 50 00 05 93  Ok..O...Pk..P...
0000c810: 51 6b 0b 83 51 00 05 93 53 6b 0b 83 53 00 15 93  Qk..Q...Sk..S...
0000c820: 5f 6b 3b 83 4a 00 00 83 47 00 05 83 44 00 00 83  _k;.J...G...D...
0000c830: 5f 00 40 93 44 6b 00 93 47 6b 03 93 3e 6b 00 93  _.@.Dk..Gk..>k..
0000c840: 40 6b 20 83 40 00 00 83 44 00 05 83 3e 00 00 83  @k .@...D...>...
0000c850: 47 00 18 93 3e 6b 00 93 40 6b 00 93 44 6b 00 93  G...>k..@k..Dk..
0000c860: 47 6b 6b 83 3e 00 05 83 40 00 00 83 44 00 00 83  Gkk.>...@...D...
0000c870: 47 00 10 93 3e 6b 00 93 40 6b 00 93 44 6b 00 93  G...>k..@k..Dk..
0000c880: 47 6b 2b 83 44 00 00 83 3e 00 00 83 40 00 05 83  Gk+.D...>...@...
0000c890: 47 00 10 93 3e 6b 00 93 40 6b 03 93 44 6b 00 93  G...>k..@k..Dk..
0000c8a0: 47 6b 81 25 83 44 00 00 83 3e 00 03 83 40 00 05  Gk.%.D...>...@..
0000c8b0: 83 47 00 10 93 3e 6b 00 93 44 6b 00 93 47 6b 00  .G...>k..Dk..Gk.
0000c8c0: 93 4c 6b 70 83 4c 00 00 83 3e 00 00 83 44 00 00  .Lkp.L...>...D..
0000c8d0: 83 47 00 10 93 3e 6b 00 93 47 6b 03 93 40 6b 00  .G...>k..Gk..@k.
0000c8e0: 93 44 6b 82 2e 83 40 00 07 83 44 00 01 83 47 00  .Dk...@...D...G.
0000c8f0: 02 83 3e 00 81 05 93 3d 6b 00 93 43 6b 01 93 40  ..>....=k..Ck..@
0000c900: 6b 02 93 45 6b 7e 83 40 00 12 83 45 00 01 83 43  k..Ek~.@...E...C
0000c910: 00 00 83 3d 00 2c 93 3d 6b 00 93 43 6b 00 93 45  ...=.,.=k..Ck..E
0000c920: 6b 01 93 40 6b 67 83 3d 00 03 83 40 00 05 83 45  k..@kg.=...@...E
0000c930: 00 00 83 43 00 10 93 3d 6b 00 93 40 6b 00 93 45  ...C...=k..@k..E
0000c940: 6b 03 93 43 6b 81 08 83 43 00 01 83 45 00 00 83  k..Ck...C...E...
0000c950: 40 00 04 83 3d 00 30 93 3d 6b 00 93 43 6b 00 93  @...=.0.=k..Ck..
0000c960: 45 6b 03 93 40 6b 1d 83 43 00 03 83 3d 00 00 83  Ek..@k..C...=...
0000c970: 45 00 00 83 40 00 1d 93 3d 6b 00 93 40 6b 00 93  E...@...=k..@k..
0000c980: 43 6b 00 93 45 6b 81 18 83 3d 00 14 83 40 00 04  Ck..Ek...=...@..
0000c990: 83 45 00 03 83 43 00 81 0d 93 40 6b 00 93 43 6b  .E...C....@k..Ck
0000c9a0: 00 93 49 6b 00 93 45 6b 33 83 40 00 01 83 45 00  ..Ik..Ek3.@...E.
0000c9b0: 00 83 49 00 04 83 43 00 08 93 49 6b 03 93 40 6b  ..I...C...Ik..@k
0000c9c0: 00 93 43 6b 00 93 45 6b 5d 83 43 00 00 83 40 00  ..Ck..Ek].C...@.
0000c9d0: 03 83 49 00 00 83 45 00 1d 93 40 6b 00 93 43 6b  ..I...E...@k..Ck
0000c9e0: 00 93 45 6b 00 93 49 6b 20 83 40 00 03 83 43 00  ..Ek..Ik .@...C.
0000c9f0: 05 83 45 00 01 83 49 00 17 93 40 6b 00 93 45 6b  ..E...I...@k..Ek
0000ca00: 00 93 49 6b 03 93 43 6b 81 05 83 43 00 00 83 40  ..Ik..Ck...C...@
0000ca10: 00 01 83 45 00 0b 83 49 00 2c 93 40 6b 00 93 45  ...E...I.,.@k..E
0000ca20: 6b 01 93 49 6b 02 93 43 6b 81 19 83 45 00 04 83  k..Ik..Ck...E...
0000ca30: 40 00 00 83 43 00 09 83 49 00 17 93 44 6b 03 93  @...C...I...Dk..
0000ca40: 40 6b 00 93 47 6b 00 93 4a 6b 85 36 83 4a 00 08  @k..Gk..Jk.6.J..
0000ca50: 83 40 00 07 83 47 00 01 83 44 00 37 93 3e 6b 03  .@...G...D.7.>k.
0000ca60: 93 44 6b 00 93 47 6b 05 93 40 6b 85 20 83 40 00  .Dk..Gk..@k. .@.
0000ca70: 03 83 3e 00 08 83 44 00 01 83 47 00 4c 93 42 6b  ..>...D...G.L.Bk
0000ca80: 00 93 45 6b 03 93 3f 6b 00 93 47 6b 81 38 83 3f  ..Ek..?k..Gk.8.?
0000ca90: 00 00 83 42 00 00 83 45 00 05 83 47 00 40 93 3f  ...B...E...G.@.?
0000caa0: 6b 00 93 42 6b 00 93 45 6b 00 93 47 6b 68 83 47  k..Bk..Ek..Gkh.G
0000cab0: 00 00 83 3f 00 00 83 42 00 00 83 45 00 18 93 3f  ...?...B...E...?
0000cac0: 6b 00 93 47 6b 03 93 42 6b 00 93 45 6b 4d 83 42  k..Gk..Bk..EkM.B
0000cad0: 00 03 83 3f 00 00 83 47 00 00 83 45 00 2d 93 3f  ...?...G...E.-.?
0000cae0: 6b 00 93 42 6b 00 93 45 6b 00 93 47 6b 38 83 47  k..Bk..Ek..Gk8.G
0000caf0: 00 00 83 45 00 00 83 3f 00 03 83 42 00 41 93 3f  ...E...?...B.A.?
0000cb00: 6b 00 93 42 6b 04 93 47 6b 00 93 45 6b 6b 83 42  k..Bk..Gk..Ekk.B
0000cb10: 00 05 83 47 00 03 83 3f 00 00 83 45 00 0d 93 43  ...G...?...E...C
0000cb20: 6b 00 93 45 6b 00 93 49 6b 03 93 40 6b 58 83 45  k..Ek..Ik..@kX.E
0000cb30: 00 05 83 40 00 00 83 49 00 08 83 43 00 18 93 40  ...@...I...C...@
0000cb40: 6b 00 93 43 6b 00 93 45 6b 00 93 49 6b 4b 83 45  k..Ck..Ek..IkK.E
0000cb50: 00 00 83 40 00 06 83 43 00 03 83 49 00 2c 93 40  ...@...C...I.,.@
0000cb60: 6b 00 93 45 6b 00 93 49 6b 01 93 43 6b 42 83 45  k..Ek..Ik..CkB.E
0000cb70: 00 05 83 40 00 00 83 43 00 04 83 49 00 34 93 40  ...@...C...I.4.@
0000cb80: 6b 00 93 43 6b 00 93 49 6b 03 93 45 6b 3e 83 45  k..Ck..Ik..Ek>.E
0000cb90: 00 07 83 40 00 01 83 43 00 02 83 49 00 30 93 40  ...@...C...I.0.@
0000cba0: 6b 05 93 43 6b 00 93 45 6b 00 93 49 6b 63 83 45  k..Ck..Ek..Ikc.E
0000cbb0: 00 06 83 49 00 00 83 43 00 02 83 40 00 15 93 40  ...I...C...@...@
0000cbc0: 6b 00 93 43 6b 00 93 45 6b 00 93 49 6b 59 83 45  k..Ck..Ek..IkY.E
0000cbd0: 00 02 83 43 00 01 83 40 00 05 83 49 00 81 5f 93  ...C...@...I.._.
0000cbe0: 47 6b 00 93 4a 6b 00 93 4c 6b 03 93 44 6b 69 83  Gk..Jk..Lk..Dki.
0000cbf0: 4c 00 00 83 47 00 04 83 44 00 01 83 4a 00 1f 93  L...G...D...J...
0000cc00: 44 6b 00 93 47 6b 00 93 4a 6b 00 93 4c 6b 18 83  Dk..Gk..Jk..Lk..
0000cc10: 47 00 03 83 44 00 00 83 4c 00 01 83 4a 00 14 93  G...D...L...J...
0000cc20: 4a 6b 00 93 4c 6b 03 93 44 6b 00 93 47 6b 82 50  Jk..Lk..Dk..Gk.P
0000cc30: 83 4a 00 05 83 47 00 00 83 44 00 03 83 4c 00 25  .J...G...D...L.%
0000cc40: 93 4a 6b 00 93 4c 6b 03 93 4e 6b 00 93 53 6b 82  .Jk..Lk..Nk..Sk.
0000cc50: 50 83 4e 00 00 83 4a 00 00 83 4c 00 05 83 53 00  P.N...J...L...S.
0000cc60: 23 93 4b 6b 05 93 47 6b 03 93 42 6b 2d 93 45 6b  #.Kk..Gk..Bk-.Ek
0000cc70: 82 40 83 45 00 00 83 4b 00 00 83 47 00 00 83 42  .@.E...K...G...B
0000cc80: 00 81 50 93 40 6b 00 93 3b 6b 01 93 3e 6b 02 93  ..P.@k..;k..>k..
0000cc90: 38 6b 69 83 38 00 07 83 3b 00 01 83 3e 00 04 83  8ki.8...;...>...
0000cca0: 40 00 44 93 3b 6b 04 93 40 6b 01 93 38 6b 00 93  @.D.;k..@k..8k..
0000ccb0: 3e 6b 82 40 83 38 00 08 83 3b 00 02 83 40 00 01  >k.@.8...;...@..
0000ccc0: 83 3e 00 81 34 93 37 6b 00 93 39 6b 00 93 3d 6b  .>..4.7k..9k..=k
0000ccd0: 03 93 40 6b 1d 83 3d 00 00 83 37 00 03 83 40 00  ..@k..=...7...@.
0000cce0: 05 83 39 00 18 93 40 6b 00 93 39 6b 00 93 3d 6b  ..9...@k..9k..=k
0000ccf0: 03 93 37 6b 5d 83 3d 00 00 83 39 00 03 83 37 00  ..7k].=...9...7.
0000cd00: 05 83 40 00 0b 93 3d 6b 06 93 39 6b 02 93 40 6b  ..@...=k..9k..@k
0000cd10: 01 93 37 6b 17 83 37 00 05 83 39 00 03 83 3d 00  ..7k..7...9...=.
0000cd20: 05 83 40 00 20 93 40 6b 00 93 39 6b 00 93 3d 6b  ..@. .@k..9k..=k
0000cd30: 03 93 37 6b 82 3d 83 37 00 03 83 40 00 00 83 39  ..7k.=.7...@...9
0000cd40: 00 09 83 3d 00 81 2f 93 3b 6b 01 93 40 6b 00 93  ...=../.;k..@k..
0000cd50: 3e 6b 04 93 38 6b 29 83 3e 00 02 83 3b 00 00 83  >k..8k).>...;...
0000cd60: 40 00 00 83 38 00 15 93 40 6b 00 93 38 6b 01 93  @...8...@k..8k..
0000cd70: 3b 6b 02 93 3e 6b 40 83 38 00 06 83 40 00 02 83  ;k..>k@.8...@...
0000cd80: 3b 00 08 83 3e 00 29 93 3b 6b 00 93 3e 6b 00 93  ;...>.).;k..>k..
0000cd90: 40 6b 00 93 38 6b 1f 83 40 00 05 83 38 00 03 83  @k..8k..@...8...
0000cda0: 3b 00 01 83 3e 00 1c 93 40 6b 00 93 3e 6b 01 93  ;...>...@k..>k..
0000cdb0: 38 6b 00 93 3b 6b 81 67 83 38 00 08 83 40 00 04  8k..;k.g.8...@..
0000cdc0: 83 3b 00 04 83 3e 00 82 03 93 44 6b 00 93 47 6b  .;...>....Dk..Gk
0000cdd0: 05 93 4a 6b 01 93 40 6b 1a 83 40 00 01 83 44 00  ..Jk..@k..@...D.
0000cde0: 04 83 47 00 01 83 4a 00 1b 93 47 6b 00 93 4a 6b  ..G...J...Gk..Jk
0000cdf0: 04 93 40 6b 03 93 44 6b 55 83 44 00 00 83 40 00  ..@k..DkU.D...@.
0000ce00: 00 83 47 00 03 83 4a 00 21 93 4a 6b 04 93 44 6b  ..G...J.!.Jk..Dk
0000ce10: 00 93 47 6b 01 93 40 6b 1b 83 40 00 04 83 44 00  ..Gk..@k..@...D.
0000ce20: 01 83 47 00 00 83 4a 00 1f 93 44 6b 00 93 47 6b  ..G...J...Dk..Gk
0000ce30: 03 93 40 6b 00 93 4a 6b 82 10 83 44 00 05 83 4a  ..@k..Jk...D...J
0000ce40: 00 00 83 40 00 01 83 47 00 81 62 93 40 6b 05 93  ...@...G..b.@k..
0000ce50: 3d 6b 00 93 43 6b 00 93 45 6b 1b 83 45 00 08 83  =k..Ck..Ek..E...
0000ce60: 40 00 05 83 43 00 00 83 3d 00 18 93 43 6b 01 93  @...C...=...Ck..
0000ce70: 3d 6b 02 93 45 6b 00 93 40 6b 48 83 40 00 00 83  =k..Ek..@kH.@...
0000ce80: 45 00 05 83 3d 00 00 83 43 00 2c 93 3d 6b 04 93  E...=...C.,.=k..
0000ce90: 43 6b 00 93 40 6b 01 93 45 6b 17 83 40 00 01 83  Ck..@k..Ek..@...
0000cea0: 3d 00 02 83 45 00 01 83 43 00 20 93 43 6b 04 93  =...E...C. .Ck..
0000ceb0: 3d 6b 00 93 40 6b 01 93 45 6b 18 83 45 00 00 83  =k..@k..Ek..E...
0000cec0: 3d 00 02 83 40 00 01 83 43 00 24 93 3d 6b 00 93  =...@...C.$.=k..
0000ced0: 40 6b 00 93 43 6b 00 93 45 6b 18 83 40 00 03 83  @k..Ck..Ek..@...
0000cee0: 3d 00 00 83 45 00 05 83 43 00 20 93 3d 6b 00 93  =...E...C. .=k..
0000cef0: 40 6b 00 93 43 6b 00 93 45 6b 13 83 45 00 00 83  @k..Ck..Ek..E...
0000cf00: 40 00 08 83 43 00 05 83 3d 00 1b 93 3d 6b 05 93  @...C...=...=k..
0000cf10: 43 6b 01 93 40 6b 00 93 45 6b 77 83 40 00 01 83  Ck..@k..Ekw.@...
0000cf20: 3d 00 02 83 43 00 01 83 45 00 81 44 93 37 6b 00  =...C...E..D.7k.
0000cf30: 93 39 6b 00 93 3d 6b 01 93 40 6b 27 83 39 00 00  .9k..=k..@k'.9..
0000cf40: 83 37 00 01 83 40 00 02 83 3d 00 15 93 37 6b 00  .7...@...=...7k.
0000cf50: 93 39 6b 00 93 40 6b 01 93 3d 6b 4f 83 37 00 03  .9k..@k..=kO.7..
0000cf60: 83 39 00 00 83 40 00 05 83 3d 00 24 93 40 6b 04  .9...@...=.$.@k.
0000cf70: 93 37 6b 00 93 3d 6b 01 93 39 6b 1a 83 37 00 05  .7k..=k..9k..7..
0000cf80: 83 40 00 00 83 3d 00 00 83 39 00 21 93 3d 6b 02  .@...=...9.!.=k.
0000cf90: 93 37 6b 01 93 39 6b 00 93 40 6b 81 38 83 37 00  .7k..9k..@k.8.7.
0000cfa0: 05 83 3d 00 00 83 40 00 02 83 39 00 82 3d 93 34  ..=...@...9..=.4
0000cfb0: 6b 00 93 38 6b 00 93 3b 6b 00 93 3e 6b 24 83 3e  k..8k..;k..>k$.>
0000cfc0: 00 00 83 34 00 00 83 38 00 05 83 3b 00 17 93 34  ...4...8...;...4
0000cfd0: 6b 01 93 3b 6b 00 93 38 6b 00 93 3e 6b 2b 83 38  k..;k..8k..>k+.8
0000cfe0: 00 08 83 3b 00 04 83 34 00 04 83 3e 00 44 93 34  ...;...4...>.D.4
0000cff0: 6b 00 93 38 6b 00 93 3b 6b 03 93 3e 6b 1d 83 34  k..8k..;k..>k..4
0000d000: 00 03 83 38 00 00 83 3b 00 00 83 3e 00 1d 93 34  ...8...;...>...4
0000d010: 6b 00 93 38 6b 01 93 3e 6b 00 93 3b 6b 81 00 83  k..8k..>k..;k...
0000d020: 38 00 07 83 3b 00 04 83 3e 00 07 83 34 00 2d 93  8...;...>...4.-.
0000d030: 34 6b 00 93 38 6b 00 93 3b 6b 00 93 3e 6b 5c 83  4k..8k..;k..>k\.
0000d040: 3b 00 00 83 38 00 07 83 3e 00 05 83 34 00 18 93  ;...8...>...4...
0000d050: 34 6b 00 93 3b 6b 00 93 3e 6b 03 93 38 6b 20 83  4k..;k..>k..8k .
0000d060: 38 00 06 83 3e 00 00 83 3b 00 07 83 34 00 10 93  8...>...;...4...
0000d070: 38 6b 03 93 34 6b 00 93 3b 6b 00 93 3e 6b 81 10  8k..4k..;k..>k..
0000d080: 83 38 00 01 83 3b 00 04 83 3e 00 04 83 34 00 24  .8...;...>...4.$
0000d090: 93 34 6b 00 93 3b 6b 00 93 3e 6b 03 93 38 6b 28  .4k..;k..>k..8k(
0000d0a0: 83 38 00 00 83 3b 00 05 83 3e 00 10 83 34 00 40  .8...;...>...4.@
0000d0b0: 93 34 6b 00 93 38 6b 00 93 3b 6b 00 93 3e 6b 81  .4k..8k..;k..>k.
0000d0c0: 08 83 38 00 03 83 3b 00 01 83 3e 00 05 83 34 00  ..8...;...>...4.
0000d0d0: 2f 93 3b 6b 00 93 3e 6b 03 93 34 6b 05 93 38 6b  /.;k..>k..4k..8k
0000d0e0: 18 83 34 00 00 83 3e 00 03 83 3b 00 05 83 38 00  ..4...>...;...8.
0000d0f0: 13 93 3b 6b 05 93 38 6b 00 93 34 6b 03 93 3e 6b  ..;k..8k..4k..>k
0000d100: 59 83 3b 00 04 83 38 00 03 83 34 00 01 83 3e 00  Y.;...8...4...>.
0000d110: 81 57 93 39 6b 00 93 42 6b 05 93 3f 6b 01 93 3b  .W.9k..Bk..?k..;
0000d120: 6b 20 83 39 00 03 83 3b 00 04 83 3f 00 00 83 42  k .9...;...?...B
0000d130: 00 18 93 39 6b 00 93 3b 6b 00 93 3f 6b 00 93 42  ...9k..;k..?k..B
0000d140: 6b 50 83 42 00 03 83 3f 00 08 83 3b 00 08 83 39  kP.B...?...;...9
0000d150: 00 19 93 3f 6b 04 93 39 6b 00 93 3b 6b 00 93 42  ...?k..9k..;k..B
0000d160: 6b 1b 83 42 00 00 83 3b 00 01 83 39 00 04 83 3f  k..B...;...9...?
0000d170: 00 20 93 42 6b 03 93 39 6b 00 93 3b 6b 00 93 3f  . .Bk..9k..;k..?
0000d180: 6b 82 09 83 3f 00 00 83 3b 00 00 83 42 00 07 83  k...?...;...B...
0000d190: 39 00 81 6d 93 37 6b 00 93 39 6b 00 93 3d 6b 00  9..m.7k..9k..=k.
0000d1a0: 93 40 6b 23 83 40 00 05 83 39 00 03 83 37 00 05  .@k#.@...9...7..
0000d1b0: 83 3d 00 10 93 37 6b 00 93 39 6b 00 93 3d 6b 00  .=...7k..9k..=k.
0000d1c0: 93 40 6b 54 83 39 00 04 83 40 00 01 83 3d 00 00  .@kT.9...@...=..
0000d1d0: 83 37 00 27 93 39 6b 00 93 3d 6b 00 93 40 6b 03  .7.'.9k..=k..@k.
0000d1e0: 93 37 6b 20 83 39 00 01 83 3d 00 00 83 40 00 04  .7k .9...=...@..
0000d1f0: 83 37 00 13 93 3d 6b 05 93 39 6b 00 93 37 6b 00  .7...=k..9k..7k.
0000d200: 93 40 6b 82 01 83 37 00 02 83 3d 00 00 83 39 00  .@k...7...=...9.
0000d210: 0e 83 40 00 81 6f 93 3e 6b 00 93 44 6b 00 93 47  ..@..o.>k..Dk..G
0000d220: 6b 00 93 4c 6b 38 83 44 00 10 83 3e 00 00 83 47  k..Lk8.D...>...G
0000d230: 00 00 83 4c 00 38 93 3e 6b 00 93 44 6b 00 93 47  ...L.8.>k..Dk..G
0000d240: 6b 00 93 4c 6b 30 83 44 00 08 83 3e 00 00 83 47  k..Lk0.D...>...G
0000d250: 00 00 83 4c 00 48 93 3e 6b 00 93 44 6b 00 93 47  ...L.H.>k..Dk..G
0000d260: 6b 00 93 4c 6b 82 28 83 44 00 08 83 3e 00 00 83  k..Lk.(.D...>...
0000d270: 47 00 10 83 4c 00 40 93 44 6b 00 93 3e 6b 00 93  G...L.@.Dk..>k..
0000d280: 47 6b 00 93 4c 6b 40 83 47 00 00 83 44 00 10 83  Gk..Lk@.G...D...
0000d290: 4c 00 08 83 3e 00 28 93 3e 6b 00 93 44 6b 00 93  L...>.(.>k..Dk..
0000d2a0: 47 6b 00 93 4c 6b 81 10 83 44 00 10 83 47 00 08  Gk..Lk...D...G..
0000d2b0: 83 3e 00 00 83 4c 00 58 93 42 6b 00 93 44 6b 00  .>...L.X.Bk..Dk.
0000d2c0: 93 47 6b 00 93 4c 6b 08 93 4a 6b 82 68 83 4a 00  .Gk..Lk..Jk.h.J.
0000d2d0: 00 83 47 00 00 83 42 00 00 83 44 00 00 83 4c 00  ..G...B...D...L.
0000d2e0: 50 93 40 6b 00 93 47 6b 01 93 3b 6b 00 93 44 6b  P.@k..Gk..;k..Dk
0000d2f0: 02 93 3e 6b 83 2e 83 3e 00 03 83 40 00 04 83 44  ..>k...>...@...D
0000d300: 00 00 83 3b 00 08 83 47 00 00 ff 7f 1c 24 24 00  ...;...G.....$$.
0000d310: 08 00 00 00 00 00 00 14 ff 00 00 00 00 00 00 21  ...............!
0000d320: 00 00 01 3a 00 00 00 0c 00 00 ff 7f 05 24 24 00  ...:.........$$.
0000d330: 01 00 00 ff 7f 06 24 24 00 06 04 04 00 ff 7f 05  ......$$........
0000d340: 24 24 00 02 03 01 ff 2f 00 4d 54 72 6b 00 00 17  $$...../.MTrk...
0000d350: a4 00 ff 00 02 00 06 00 ff 03 0b 42 61 73 73 20  ...........Bass 
0000d360: 47 75 69 74 61 72 8d 00 94 23 7f 28 84 23 00 18  Guitar...#.(.#..
0000d370: 94 23 7f 3b 84 23 00 45 94 23 7f 81 1b 84 23 00  .#.;.#.E.#....#.
0000d380: 82 25 94 28 7f 6b 84 28 00 15 94 28 7f 30 84 28  .%.(.k.(...(.0.(
0000d390: 00 10 94 2f 7f 60 84 2f 00 20 94 28 7f 81 1b 84  .../.`./. .(....
0000d3a0: 28 00 26 94 28 7f 2f 84 28 00 10 94 2f 7f 81 04  (.&.(./.(.../...
0000d3b0: 84 2f 00 3f 94 28 7f 55 84 28 00 28 94 28 7f 34  ./.?.(.U.(.(.(.4
0000d3c0: 84 28 00 0c 94 2f 7f 63 84 2f 00 1d 94 28 7f 81  .(.../.c./...(..
0000d3d0: 31 84 28 00 0f 94 28 7f 41 94 2f 7f 00 84 28 00  1.(...(.A./...(.
0000d3e0: 6f 84 2f 00 50 94 2d 7f 58 84 2d 00 28 94 2d 7f  o./.P.-.X.-.(.-.
0000d3f0: 31 84 2d 00 0f 94 34 7f 51 84 34 00 2f 94 34 7f  1.-...4.Q.4./.4.
0000d400: 29 84 34 00 1a 94 2d 7f 55 84 2d 00 28 94 2d 7f  ).4...-.U.-.(.-.
0000d410: 2c 84 2d 00 15 94 34 7f 81 1f 84 34 00 20 94 2f  ,.-...4....4. ./
0000d420: 7f 33 84 2f 00 0d 94 2b 7f 2b 84 2b 00 15 94 28  .3./...+.+.+...(
0000d430: 7f 30 84 28 00 10 94 2b 7f 70 84 2b 00 10 94 32  .0.(...+.p.+...2
0000d440: 7f 30 84 32 00 10 94 31 7f 60 84 31 00 20 94 31  .0.2...1.`.1. .1
0000d450: 7f 23 84 31 00 1d 94 2f 7f 81 28 84 2f 00 18 94  .#.1.../..(./...
0000d460: 2f 7f 70 84 2f 00 10 94 2b 7f 2b 84 2b 00 15 94  /.p./...+.+.+...
0000d470: 28 7f 70 84 28 00 10 94 28 7f 30 84 28 00 10 94  (.p.(...(.0.(...
0000d480: 28 7f 38 84 28 00 08 94 28 7f 38 84 28 00 08 94  (.8.(...(.8.(...
0000d490: 28 7f 2b 84 28 00 15 94 2b 7f 81 23 84 2b 00 1d  (.+.(...+..#.+..
0000d4a0: 94 2d 7f 28 84 2d 00 18 94 2d 7f 28 84 2d 00 18  .-.(.-...-.(.-..
0000d4b0: 94 2d 7f 23 84 2d 00 1d 94 34 7f 5b 84 34 00 25  .-.#.-...4.[.4.%
0000d4c0: 94 34 7f 28 84 34 00 18 94 2d 7f 63 84 2d 00 1d  .4.(.4...-.c.-..
0000d4d0: 94 2d 7f 33 84 2d 00 0d 94 34 7f 81 00 84 34 00  .-.3.-...4....4.
0000d4e0: 40 94 2d 7f 6b 84 2d 00 15 94 2d 7f 2b 84 2d 00  @.-.k.-...-.+.-.
0000d4f0: 15 94 34 7f 5b 84 34 00 25 94 34 7f 28 84 34 00  ..4.[.4.%.4.(.4.
0000d500: 18 94 2d 7f 2b 84 2d 00 15 94 2d 7f 23 84 2d 00  ..-.+.-...-.#.-.
0000d510: 18 94 2d 7f 2d 84 2d 00 18 94 34 7f 81 19 84 34  ..-.-.-...4....4
0000d520: 00 27 94 28 7f 4b 84 28 00 35 94 28 7f 3b 84 28  .'.(.K.(.5.(.;.(
0000d530: 00 05 94 2f 7f 58 84 2f 00 28 94 2f 7f 23 84 2f  .../.X./.(./.#./
0000d540: 00 1d 94 28 7f 69 84 28 00 17 94 28 7f 33 84 28  ...(.i.(...(.3.(
0000d550: 00 0d 94 2f 7f 78 84 2f 00 48 94 28 7f 50 84 28  .../.x./.H.(.P.(
0000d560: 00 30 94 28 7f 34 84 28 00 0c 94 34 7f 51 84 34  .0.(.4.(...4.Q.4
0000d570: 00 2f 94 2f 7f 2b 84 2f 00 15 94 28 7f 78 84 28  ././.+./...(.x.(
0000d580: 00 08 94 34 7f 33 84 34 00 0d 94 2f 7f 54 84 2f  ...4.3.4.../.T./
0000d590: 00 6c 94 33 7f 60 84 33 00 20 94 36 7f 30 84 36  .l.3.`.3. .6.0.6
0000d5a0: 00 10 94 33 7f 73 84 33 00 0d 94 36 7f 33 84 36  ...3.s.3...6.3.6
0000d5b0: 00 0d 94 33 7f 6b 84 33 00 15 94 36 7f 81 28 84  ...3.k.3...6..(.
0000d5c0: 36 00 59 94 31 7f 6f 84 31 00 10 94 34 7f 30 84  6.Y.1.o.1...4.0.
0000d5d0: 34 00 11 94 31 7f 72 84 31 00 0d 94 34 7f 2b 84  4...1.r.1...4.+.
0000d5e0: 34 00 15 94 31 7f 6b 84 31 00 15 94 34 7f 81 08  4...1.k.1...4...
0000d5f0: 84 34 00 78 94 28 7f 60 84 28 00 20 94 28 7f 2b  .4.x.(.`.(. .(.+
0000d600: 84 28 00 15 94 2f 7f 54 84 2f 00 2c 94 2f 7f 30  .(.../.T./.,./.0
0000d610: 84 2f 00 10 94 28 7f 60 84 28 00 20 94 28 7f 30  ./...(.`.(. .(.0
0000d620: 84 28 00 10 94 2f 7f 81 20 84 2f 00 20 94 28 7f  .(.../.. ./. .(.
0000d630: 60 84 28 00 20 94 28 7f 30 84 28 00 10 94 2f 7f  `.(. .(.0.(.../.
0000d640: 61 84 2f 00 1f 94 2f 7f 28 84 2f 00 20 94 2a 7f  a./.../.(./. .*.
0000d650: 5b 84 2a 00 1d 94 2a 7f 28 84 2a 00 18 94 2d 7f  [.*...*.(.*...-.
0000d660: 70 84 2d 00 10 94 2d 7f 30 84 2d 00 13 94 28 7f  p.-...-.0.-...(.
0000d670: 55 84 28 00 28 94 28 7f 34 84 28 00 0c 94 2f 7f  U.(.(.(.4.(.../.
0000d680: 63 84 2f 00 1d 94 28 7f 81 31 84 28 00 0f 94 28  c./...(..1.(...(
0000d690: 7f 41 94 2f 7f 00 84 28 00 6f 84 2f 00 50 94 2d  .A./...(.o./.P.-
0000d6a0: 7f 58 84 2d 00 28 94 2d 7f 31 84 2d 00 0f 94 34  .X.-.(.-.1.-...4
0000d6b0: 7f 51 84 34 00 2f 94 34 7f 29 84 34 00 1a 94 2d  .Q.4./.4.).4...-
0000d6c0: 7f 55 84 2d 00 28 94 2d 7f 2c 84 2d 00 15 94 34  .U.-.(.-.,.-...4
0000d6d0: 7f 81 1f 84 34 00 20 94 2f 7f 70 84 2f 00 10 94  ....4. ./.p./...
0000d6e0: 2b 7f 2b 84 2b 00 15 94 28 7f 70 84 28 00 10 94  +.+.+...(.p.(...
0000d6f0: 2b 7f 30 84 2b 00 10 94 32 7f 60 84 32 00 20 94  +.0.+...2.`.2. .
0000d700: 32 7f 23 84 32 00 1d 94 31 7f 81 28 84 31 00 18  2.#.2...1..(.1..
0000d710: 94 2f 7f 70 84 2f 00 10 94 2b 7f 2b 84 2b 00 15  ./.p./...+.+.+..
0000d720: 94 28 7f 70 84 28 00 10 94 2b 7f 30 84 2b 00 10  .(.p.(...+.0.+..
0000d730: 94 28 7f 38 84 28 00 08 94 28 7f 38 84 28 00 08  .(.8.(...(.8.(..
0000d740: 94 28 7f 2b 84 28 00 15 94 2b 7f 81 23 84 2b 00  .(.+.(...+..#.+.
0000d750: 1d 94 2d 7f 28 84 2d 00 18 94 2d 7f 28 84 2d 00  ..-.(.-...-.(.-.
0000d760: 18 94 2d 7f 23 84 2d 00 1d 94 34 7f 5b 84 34 00  ..-.#.-...4.[.4.
0000d770: 25 94 34 7f 28 84 34 00 18 94 2d 7f 63 84 2d 00  %.4.(.4...-.c.-.
0000d780: 1d 94 2d 7f 33 84 2d 00 0d 94 34 7f 81 00 84 34  ..-.3.-...4....4
0000d790: 00 40 94 2d 7f 6b 84 2d 00 15 94 2d 7f 2b 84 2d  .@.-.k.-...-.+.-
0000d7a0: 00 15 94 34 7f 5b 84 34 00 25 94 34 7f 28 84 34  ...4.[.4.%.4.(.4
0000d7b0: 00 18 94 2d 7f 2b 84 2d 00 15 94 2d 7f 23 84 2d  ...-.+.-...-.#.-
0000d7c0: 00 18 94 2d 7f 2d 84 2d 00 18 94 34 7f 81 19 84  ...-.-.-...4....
0000d7d0: 34 00 27 94 28 7f 4b 84 28 00 35 94 28 7f 3b 84  4.'.(.K.(.5.(.;.
0000d7e0: 28 00 05 94 2f 7f 58 84 2f 00 28 94 2f 7f 23 84  (.../.X./.(./.#.
0000d7f0: 2f 00 1d 94 28 7f 69 84 28 00 17 94 28 7f 33 84  /...(.i.(...(.3.
0000d800: 28 00 0d 94 2f 7f 78 84 2f 00 48 94 28 7f 50 84  (.../.x./.H.(.P.
0000d810: 28 00 30 94 28 7f 34 84 28 00 0c 94 34 7f 51 84  (.0.(.4.(...4.Q.
0000d820: 34 00 2f 94 2f 7f 2b 84 2f 00 15 94 28 7f 78 84  4././.+./...(.x.
0000d830: 28 00 08 94 34 7f 33 84 34 00 0d 94 2f 7f 70 84  (...4.3.4.../.p.
0000d840: 2f 00 10 94 34 7f 30 84 34 00 10 94 33 7f 60 84  /...4.0.4...3.`.
0000d850: 33 00 20 94 36 7f 30 84 36 00 10 94 33 7f 73 84  3. .6.0.6...3.s.
0000d860: 33 00 0d 94 36 7f 33 84 36 00 0d 94 33 7f 6b 84  3...6.3.6...3.k.
0000d870: 33 00 15 94 36 7f 81 28 84 36 00 18 94 2f 7f 30  3...6..(.6.../.0
0000d880: 84 2f 00 11 94 31 7f 6f 84 31 00 10 94 34 7f 30  ./...1.o.1...4.0
0000d890: 84 34 00 11 94 31 7f 72 84 31 00 0d 94 34 7f 2b  .4...1.r.1...4.+
0000d8a0: 84 34 00 15 94 31 7f 6b 84 31 00 15 94 34 7f 81  .4...1.k.1...4..
0000d8b0: 08 84 34 00 38 94 25 7f 33 84 25 00 0d 94 28 7f  ..4.8.%.3.%...(.
0000d8c0: 60 84 28 00 20 94 28 7f 2b 84 28 00 15 94 2f 7f  `.(. .(.+.(.../.
0000d8d0: 54 84 2f 00 2c 94 2f 7f 30 84 2f 00 10 94 28 7f  T./.,./.0./...(.
0000d8e0: 60 84 28 00 20 94 28 7f 30 84 28 00 10 94 2f 7f  `.(. .(.0.(.../.
0000d8f0: 81 20 84 2f 00 20 94 28 7f 60 84 28 00 20 94 28  . ./. .(.`.(. .(
0000d900: 7f 30 84 28 00 10 94 2f 7f 61 84 2f 00 1f 94 2f  .0.(.../.a./.../
0000d910: 7f 28 84 2f 00 18 94 2a 7f 63 84 2a 00 1d 94 2a  .(./...*.c.*...*
0000d920: 7f 28 84 2a 00 18 94 2d 7f 70 84 2d 00 10 94 2f  .(.*...-.p.-.../
0000d930: 7f 30 84 2f 00 13 94 28 7f 55 84 28 00 28 94 28  .0./...(.U.(.(.(
0000d940: 7f 34 84 28 00 0c 94 2f 7f 63 84 2f 00 1d 94 28  .4.(.../.c./...(
0000d950: 7f 81 31 84 28 00 0f 94 28 7f 41 94 2f 7f 00 84  ..1.(...(.A./...
0000d960: 28 00 6f 84 2f 00 50 94 2d 7f 58 84 2d 00 28 94  (.o./.P.-.X.-.(.
0000d970: 2d 7f 31 84 2d 00 0f 94 34 7f 51 84 34 00 2f 94  -.1.-...4.Q.4./.
0000d980: 34 7f 29 84 34 00 1a 94 2d 7f 55 84 2d 00 28 94  4.).4...-.U.-.(.
0000d990: 2d 7f 2c 84 2d 00 15 94 34 7f 81 1f 84 34 00 20  -.,.-...4....4. 
0000d9a0: 94 2f 7f 70 84 2f 00 10 94 2b 7f 2b 84 2b 00 15  ./.p./...+.+.+..
0000d9b0: 94 28 7f 70 84 28 00 10 94 2b 7f 30 84 2b 00 10  .(.p.(...+.0.+..
0000d9c0: 94 32 7f 60 84 32 00 20 94 32 7f 23 84 32 00 1d  .2.`.2. .2.#.2..
0000d9d0: 94 31 7f 81 28 84 31 00 18 94 2f 7f 70 84 2f 00  .1..(.1.../.p./.
0000d9e0: 10 94 2b 7f 2b 84 2b 00 15 94 28 7f 70 84 28 00  ..+.+.+...(.p.(.
0000d9f0: 10 94 2b 7f 30 84 2b 00 10 94 28 7f 38 84 28 00  ..+.0.+...(.8.(.
0000da00: 08 94 28 7f 38 84 28 00 08 94 28 7f 2b 84 28 00  ..(.8.(...(.+.(.
0000da10: 15 94 2b 7f 81 23 84 2b 00 1d 94 2d 7f 28 84 2d  ..+..#.+...-.(.-
0000da20: 00 18 94 2d 7f 28 84 2d 00 18 94 2d 7f 23 84 2d  ...-.(.-...-.#.-
0000da30: 00 1d 94 34 7f 5b 84 34 00 25 94 34 7f 28 84 34  ...4.[.4.%.4.(.4
0000da40: 00 18 94 2d 7f 63 84 2d 00 1d 94 2d 7f 33 84 2d  ...-.c.-...-.3.-
0000da50: 00 0d 94 34 7f 81 00 84 34 00 40 94 2d 7f 6b 84  ...4....4.@.-.k.
0000da60: 2d 00 15 94 2d 7f 2b 84 2d 00 15 94 34 7f 5b 84  -...-.+.-...4.[.
0000da70: 34 00 25 94 34 7f 28 84 34 00 18 94 2d 7f 2b 84  4.%.4.(.4...-.+.
0000da80: 2d 00 15 94 2d 7f 23 84 2d 00 18 94 2d 7f 2d 84  -...-.#.-...-.-.
0000da90: 2d 00 18 94 34 7f 81 19 84 34 00 27 94 28 7f 4b  -...4....4.'.(.K
0000daa0: 84 28 00 35 94 28 7f 3b 84 28 00 05 94 2f 7f 58  .(.5.(.;.(.../.X
0000dab0: 84 2f 00 28 94 2f 7f 23 84 2f 00 1d 94 28 7f 69  ./.(./.#./...(.i
0000dac0: 84 28 00 17 94 28 7f 33 84 28 00 0d 94 2f 7f 78  .(...(.3.(.../.x
0000dad0: 84 2f 00 48 94 28 7f 50 84 28 00 30 94 28 7f 34  ./.H.(.P.(.0.(.4
0000dae0: 84 28 00 0c 94 34 7f 51 84 34 00 2f 94 2f 7f 2b  .(...4.Q.4././.+
0000daf0: 84 2f 00 15 94 28 7f 78 84 28 00 08 94 34 7f 33  ./...(.x.(...4.3
0000db00: 84 34 00 0d 94 2f 7f 70 84 2f 00 10 94 34 7f 30  .4.../.p./...4.0
0000db10: 84 34 00 10 94 33 7f 60 84 33 00 20 94 36 7f 30  .4...3.`.3. .6.0
0000db20: 84 36 00 10 94 33 7f 73 84 33 00 0d 94 36 7f 33  .6...3.s.3...6.3
0000db30: 84 36 00 0d 94 33 7f 6b 84 33 00 15 94 36 7f 81  .6...3.k.3...6..
0000db40: 28 84 36 00 18 94 2f 7f 30 84 2f 00 11 94 31 7f  (.6.../.0./...1.
0000db50: 6f 84 31 00 10 94 34 7f 30 84 34 00 11 94 31 7f  o.1...4.0.4...1.
0000db60: 72 84 31 00 0d 94 34 7f 2b 84 34 00 15 94 31 7f  r.1...4.+.4...1.
0000db70: 6b 84 31 00 15 94 34 7f 81 08 84 34 00 38 94 25  k.1...4....4.8.%
0000db80: 7f 33 84 25 00 0d 94 28 7f 60 84 28 00 20 94 28  .3.%...(.`.(. .(
0000db90: 7f 2b 84 28 00 15 94 2f 7f 54 84 2f 00 2c 94 2f  .+.(.../.T./.,./
0000dba0: 7f 30 84 2f 00 10 94 28 7f 60 84 28 00 20 94 28  .0./...(.`.(. .(
0000dbb0: 7f 30 84 28 00 10 94 2f 7f 81 20 84 2f 00 20 94  .0.(.../.. ./. .
0000dbc0: 28 7f 60 84 28 00 20 94 28 7f 30 84 28 00 10 94  (.`.(. .(.0.(...
0000dbd0: 2f 7f 61 84 2f 00 1f 94 2f 7f 28 84 2f 00 18 94  /.a./.../.(./...
0000dbe0: 2a 7f 63 84 2a 00 1d 94 2a 7f 28 84 2a 00 18 94  *.c.*...*.(.*...
0000dbf0: 2d 7f 70 84 2d 00 10 94 2f 7f 30 84 2f 00 10 94  -.p.-.../.0./...
0000dc00: 28 7f 6c 84 28 00 14 94 28 7f 30 84 28 00 10 94  (.l.(...(.0.(...
0000dc10: 2f 7f 63 84 2f 00 1d 94 2f 7f 30 84 2f 00 10 94  /.c./.../.0./...
0000dc20: 28 7f 63 84 28 00 1d 94 28 7f 30 84 28 00 10 94  (.c.(...(.0.(...
0000dc30: 2f 7f 6b 84 2f 00 15 94 2f 7f 30 84 2f 00 10 94  /.k./.../.0./...
0000dc40: 2d 7f 63 84 2d 00 1d 94 2d 7f 30 84 2d 00 10 94  -.c.-...-.0.-...
0000dc50: 34 7f 58 84 34 00 28 94 34 7f 3b 84 34 00 05 94  4.X.4.(.4.;.4...
0000dc60: 2d 7f 5b 84 2d 00 25 94 2d 7f 23 84 2d 00 1d 94  -.[.-.%.-.#.-...
0000dc70: 34 7f 58 84 34 00 28 94 34 7f 29 84 34 00 1a 94  4.X.4.(.4.).4...
0000dc80: 28 7f 50 84 28 00 2d 94 28 7f 28 84 28 00 18 94  (.P.(.-.(.(.(...
0000dc90: 2f 7f 53 84 2f 00 2d 94 2f 7f 2c 84 2f 00 14 94  /.S./.-./.,./...
0000dca0: 28 7f 5c 84 28 00 24 94 28 7f 30 84 28 00 11 94  (.\.(.$.(.0.(...
0000dcb0: 2f 7f 57 84 2f 00 28 94 2f 7f 30 84 2f 00 10 94  /.W./.(./.0./...
0000dcc0: 28 7f 63 84 28 00 1e 94 28 7f 33 84 28 00 0f 94  (.c.(...(.3.(...
0000dcd0: 2f 7f 55 84 2f 00 28 94 2f 7f 2b 84 2f 00 15 94  /.U./.(./.+./...
0000dce0: 28 7f 54 84 28 00 2c 94 28 7f 2b 84 28 00 16 94  (.T.(.,.(.+.(...
0000dcf0: 2f 7f 5a 84 2f 00 28 94 2f 7f 2d 84 2f 00 10 94  /.Z./.(./.-./...
0000dd00: 2d 7f 58 84 2d 00 28 94 2d 7f 2b 84 2d 00 15 94  -.X.-.(.-.+.-...
0000dd10: 34 7f 58 84 34 00 28 94 34 7f 29 84 34 00 18 94  4.X.4.(.4.).4...
0000dd20: 2d 7f 62 84 2d 00 1d 94 2d 7f 30 84 2d 00 10 94  -.b.-...-.0.-...
0000dd30: 34 7f 4b 84 34 00 30 94 34 7f 2d 84 34 00 18 94  4.K.4.0.4.-.4...
0000dd40: 2d 7f 54 84 2d 00 2c 94 2d 7f 30 84 2d 00 10 94  -.T.-.,.-.0.-...
0000dd50: 34 7f 51 84 34 00 2f 94 34 7f 30 84 34 00 10 94  4.Q.4./.4.0.4...
0000dd60: 2d 7f 58 84 2d 00 28 94 2d 7f 33 84 2d 00 0d 94  -.X.-.(.-.3.-...
0000dd70: 34 7f 58 84 34 00 28 94 34 7f 38 84 34 00 08 94  4.X.4.(.4.8.4...
0000dd80: 28 7f 60 84 28 00 20 94 28 7f 31 84 28 00 0f 94  (.`.(. .(.1.(...
0000dd90: 2f 7f 4b 84 2f 00 35 94 2f 7f 30 84 2f 00 10 94  /.K./.5./.0./...
0000dda0: 28 7f 50 84 28 00 30 94 28 7f 2b 84 28 00 18 94  (.P.(.0.(.+.(...
0000ddb0: 2f 7f 4d 84 2f 00 30 94 2f 7f 28 84 2f 00 20 94  /.M./.0./.(./. .
0000ddc0: 2f 7f 60 84 2f 00 18 94 2d 7f 81 30 84 2d 00 10  /.`./...-..0.-..
0000ddd0: 94 2b 7f 30 84 2b 00 10 94 2d 7f 70 84 2d 00 10  .+.0.+...-.p.-..
0000dde0: 94 2b 7f 30 84 2b 00 10 94 28 7f 81 33 84 28 00  .+.0.+...(..3.(.
0000ddf0: 0e 94 34 7f 5b 84 34 00 24 94 34 7f 31 84 34 00  ..4.[.4.$.4.1.4.
0000de00: 0f 94 31 7f 50 84 31 00 30 94 31 7f 28 84 31 00  ..1.P.1.0.1.(.1.
0000de10: 18 94 32 7f 54 84 32 00 2c 94 32 7f 30 84 32 00  ..2.T.2.,.2.0.2.
0000de20: 10 94 2f 7f 58 84 2f 00 28 94 2f 7f 2b 84 2f 00  ../.X./.(./.+./.
0000de30: 15 94 2d 7f 5b 84 2d 00 25 94 2d 7f 30 84 2d 00  ..-.[.-.%.-.0.-.
0000de40: 10 94 34 7f 4c 84 34 00 34 94 34 7f 2b 84 34 00  ..4.L.4.4.4.+.4.
0000de50: 15 94 2d 7f 5b 84 2d 00 25 94 2d 7f 29 84 2d 00  ..-.[.-.%.-.).-.
0000de60: 18 94 34 7f 57 84 34 00 28 94 34 7f 28 84 34 00  ..4.W.4.(.4.(.4.
0000de70: 18 94 28 7f 71 84 28 00 0f 94 28 7f 30 84 28 00  ..(.q.(...(.0.(.
0000de80: 11 94 2f 7f 5a 84 2f 00 25 94 2f 7f 29 84 2f 00  ../.Z./.%./.)./.
0000de90: 17 94 28 7f 51 84 28 00 2f 94 28 7f 30 84 28 00  ..(.Q.(./.(.0.(.
0000dea0: 13 94 2f 7f 4d 84 2f 00 2b 94 2f 7f 2d 84 2f 00  ../.M./.+./.-./.
0000deb0: 1b 94 28 7f 4d 84 28 00 30 94 28 7f 21 84 28 00  ..(.M.(.0.(.!.(.
0000dec0: 22 94 2f 7f 45 84 2f 00 38 94 2f 7f 28 84 2f 00  "./.E./.8./.(./.
0000ded0: 18 94 36 7f 59 84 36 00 27 94 36 7f 2b 84 36 00  ..6.Y.6.'.6.+.6.
0000dee0: 15 94 33 7f 5c 84 33 00 24 94 33 7f 21 84 33 00  ..3.\.3.$.3.!.3.
0000def0: 22 94 28 7f 55 84 28 00 28 94 28 7f 34 84 28 00  ".(.U.(.(.(.4.(.
0000df00: 0c 94 2f 7f 63 84 2f 00 1d 94 28 7f 81 31 84 28  ../.c./...(..1.(
0000df10: 00 0f 94 28 7f 41 94 2f 7f 00 84 28 00 6f 84 2f  ...(.A./...(.o./
0000df20: 00 50 94 2d 7f 58 84 2d 00 28 94 2d 7f 31 84 2d  .P.-.X.-.(.-.1.-
0000df30: 00 0f 94 34 7f 51 84 34 00 2f 94 34 7f 29 84 34  ...4.Q.4./.4.).4
0000df40: 00 1a 94 2d 7f 55 84 2d 00 28 94 2d 7f 2c 84 2d  ...-.U.-.(.-.,.-
0000df50: 00 15 94 34 7f 81 1f 84 34 00 20 94 2f 7f 70 84  ...4....4. ./.p.
0000df60: 2f 00 10 94 2b 7f 2b 84 2b 00 15 94 28 7f 70 84  /...+.+.+...(.p.
0000df70: 28 00 10 94 2b 7f 30 84 2b 00 10 94 32 7f 60 84  (...+.0.+...2.`.
0000df80: 32 00 20 94 32 7f 23 84 32 00 1d 94 31 7f 81 28  2. .2.#.2...1..(
0000df90: 84 31 00 18 94 2f 7f 70 84 2f 00 10 94 2b 7f 2b  .1.../.p./...+.+
0000dfa0: 84 2b 00 15 94 28 7f 70 84 28 00 10 94 2b 7f 30  .+...(.p.(...+.0
0000dfb0: 84 2b 00 10 94 28 7f 38 84 28 00 08 94 28 7f 38  .+...(.8.(...(.8
0000dfc0: 84 28 00 08 94 28 7f 2b 84 28 00 15 94 2b 7f 81  .(...(.+.(...+..
0000dfd0: 23 84 2b 00 1d 94 2d 7f 28 84 2d 00 18 94 2d 7f  #.+...-.(.-...-.
0000dfe0: 28 84 2d 00 18 94 2d 7f 23 84 2d 00 1d 94 34 7f  (.-...-.#.-...4.
0000dff0: 5b 84 34 00 25 94 34 7f 28 84 34 00 18 94 2d 7f  [.4.%.4.(.4...-.
0000e000: 63 84 2d 00 1d 94 2d 7f 33 84 2d 00 0d 94 34 7f  c.-...-.3.-...4.
0000e010: 81 00 84 34 00 40 94 2d 7f 6b 84 2d 00 15 94 2d  ...4.@.-.k.-...-
0000e020: 7f 2b 84 2d 00 15 94 34 7f 5b 84 34 00 25 94 34  .+.-...4.[.4.%.4
0000e030: 7f 28 84 34 00 18 94 2d 7f 2b 84 2d 00 15 94 2d  .(.4...-.+.-...-
0000e040: 7f 23 84 2d 00 18 94 2d 7f 2d 84 2d 00 18 94 34  .#.-...-.-.-...4
0000e050: 7f 81 19 84 34 00 27 94 28 7f 4b 84 28 00 35 94  ....4.'.(.K.(.5.
0000e060: 28 7f 3b 84 28 00 05 94 2f 7f 58 84 2f 00 28 94  (.;.(.../.X./.(.
0000e070: 2f 7f 23 84 2f 00 1d 94 28 7f 69 84 28 00 17 94  /.#./...(.i.(...
0000e080: 28 7f 33 84 28 00 0d 94 2f 7f 78 84 2f 00 48 94  (.3.(.../.x./.H.
0000e090: 28 7f 50 84 28 00 30 94 28 7f 34 84 28 00 0c 94  (.P.(.0.(.4.(...
0000e0a0: 34 7f 51 84 34 00 2f 94 2f 7f 2b 84 2f 00 15 94  4.Q.4././.+./...
0000e0b0: 28 7f 78 84 28 00 08 94 34 7f 33 84 34 00 0d 94  (.x.(...4.3.4...
0000e0c0: 2f 7f 70 84 2f 00 10 94 34 7f 30 84 34 00 10 94  /.p./...4.0.4...
0000e0d0: 33 7f 60 84 33 00 20 94 36 7f 30 84 36 00 10 94  3.`.3. .6.0.6...
0000e0e0: 33 7f 73 84 33 00 0d 94 36 7f 33 84 36 00 0d 94  3.s.3...6.3.6...
0000e0f0: 33 7f 6b 84 33 00 15 94 36 7f 81 28 84 36 00 18  3.k.3...6..(.6..
0000e100: 94 2f 7f 30 84 2f 00 11 94 31 7f 6f 84 31 00 10  ./.0./...1.o.1..
0000e110: 94 34 7f 30 84 34 00 11 94 31 7f 72 84 31 00 0d  .4.0.4...1.r.1..
0000e120: 94 34 7f 2b 84 34 00 15 94 31 7f 6b 84 31 00 15  .4.+.4...1.k.1..
0000e130: 94 34 7f 81 08 84 34 00 38 94 25 7f 33 84 25 00  .4....4.8.%.3.%.
0000e140: 0d 94 28 7f 60 84 28 00 20 94 28 7f 2b 84 28 00  ..(.`.(. .(.+.(.
0000e150: 15 94 2f 7f 54 84 2f 00 2c 94 2f 7f 30 84 2f 00  ../.T./.,./.0./.
0000e160: 10 94 28 7f 60 84 28 00 20 94 28 7f 30 84 28 00  ..(.`.(. .(.0.(.
0000e170: 10 94 2f 7f 81 20 84 2f 00 20 94 28 7f 60 84 28  ../.. ./. .(.`.(
0000e180: 00 20 94 28 7f 30 84 28 00 10 94 2f 7f 61 84 2f  . .(.0.(.../.a./
0000e190: 00 1f 94 2f 7f 28 84 2f 00 18 94 2a 7f 63 84 2a  .../.(./...*.c.*
0000e1a0: 00 1d 94 2a 7f 28 84 2a 00 18 94 2d 7f 70 84 2d  ...*.(.*...-.p.-
0000e1b0: 00 10 94 2f 7f 30 84 2f 00 10 94 28 7f 6c 84 28  .../.0./...(.l.(
0000e1c0: 00 14 94 28 7f 30 84 28 00 10 94 2f 7f 63 84 2f  ...(.0.(.../.c./
0000e1d0: 00 1d 94 2f 7f 30 84 2f 00 10 94 28 7f 63 84 28  .../.0./...(.c.(
0000e1e0: 00 1d 94 28 7f 30 84 28 00 10 94 2f 7f 6b 84 2f  ...(.0.(.../.k./
0000e1f0: 00 15 94 2f 7f 30 84 2f 00 10 94 2d 7f 63 84 2d  .../.0./...-.c.-
0000e200: 00 1d 94 2d 7f 30 84 2d 00 10 94 34 7f 33 84 34  ...-.0.-...4.3.4
0000e210: 00 0d 94 34 7f 30 84 34 00 10 94 34 7f 3b 84 34  ...4.0.4...4.;.4
0000e220: 00 05 94 2d 7f 5b 84 2d 00 25 94 2d 7f 23 84 2d  ...-.[.-.%.-.#.-
0000e230: 00 1d 94 34 7f 30 84 34 00 10 94 34 7f 30 84 34  ...4.0.4...4.0.4
0000e240: 00 10 94 34 7f 30 84 34 00 13 94 28 7f 2d 84 28  ...4.0.4...(.-.(
0000e250: 00 13 94 28 7f 2d 84 28 00 10 94 28 7f 28 84 28  ...(.-.(...(.(.(
0000e260: 00 18 94 2f 7f 53 84 2f 00 2d 94 2f 7f 2c 84 2f  .../.S./.-./.,./
0000e270: 00 14 94 28 7f 5c 84 28 00 24 94 28 7f 30 84 28  ...(.\.(.$.(.0.(
0000e280: 00 11 94 32 7f 57 84 32 00 28 94 2f 7f 30 84 2f  ...2.W.2.(./.0./
0000e290: 00 10 94 28 7f 63 84 28 00 1e 94 28 7f 33 84 28  ...(.c.(...(.3.(
0000e2a0: 00 0f 94 2b 7f 55 84 2b 00 28 94 2f 7f 2b 84 2f  ...+.U.+.(./.+./
0000e2b0: 00 15 94 28 7f 54 84 28 00 2c 94 28 7f 2b 84 28  ...(.T.(.,.(.+.(
0000e2c0: 00 16 94 32 7f 5a 84 32 00 28 94 2f 7f 2d 84 2f  ...2.Z.2.(./.-./
0000e2d0: 00 10 94 2d 7f 58 84 2d 00 28 94 2d 7f 2b 84 2d  ...-.X.-.(.-.+.-
0000e2e0: 00 15 94 34 7f 58 84 34 00 28 94 34 7f 29 84 34  ...4.X.4.(.4.).4
0000e2f0: 00 18 94 2d 7f 62 84 2d 00 1d 94 2d 7f 30 84 2d  ...-.b.-...-.0.-
0000e300: 00 10 94 37 7f 4b 84 37 00 30 94 34 7f 2d 84 34  ...7.K.7.0.4.-.4
0000e310: 00 18 94 2d 7f 54 84 2d 00 2c 94 2d 7f 30 84 2d  ...-.T.-.,.-.0.-
0000e320: 00 10 94 34 7f 51 84 34 00 2f 94 34 7f 30 84 34  ...4.Q.4./.4.0.4
0000e330: 00 10 94 2d 7f 58 84 2d 00 28 94 2d 7f 33 84 2d  ...-.X.-.(.-.3.-
0000e340: 00 0d 94 37 7f 58 84 37 00 28 94 34 7f 38 84 34  ...7.X.7.(.4.8.4
0000e350: 00 08 94 28 7f 60 84 28 00 20 94 28 7f 31 84 28  ...(.`.(. .(.1.(
0000e360: 00 0f 94 2f 7f 4b 84 2f 00 35 94 2f 7f 30 84 2f  .../.K./.5./.0./
0000e370: 00 10 94 28 7f 50 84 28 00 30 94 28 7f 2b 84 28  ...(.P.(.0.(.+.(
0000e380: 00 18 94 32 7f 4d 84 32 00 30 94 2f 7f 28 84 2f  ...2.M.2.0./.(./
0000e390: 00 20 94 2f 7f 60 84 2f 00 18 94 2d 7f 30 84 2d  . ./.`./...-.0.-
0000e3a0: 00 13 94 2c 7f 0d 84 2c 00 03 94 2b 7f 20 84 2b  ...,...,...+. .+
0000e3b0: 00 0d 94 28 7f 30 84 28 00 10 94 2b 7f 30 84 2b  ...(.0.(...+.0.+
0000e3c0: 00 10 94 2d 7f 70 84 2d 00 10 94 2b 7f 30 84 2b  ...-.p.-...+.0.+
0000e3d0: 00 10 94 28 7f 30 84 28 00 10 94 2b 7f 30 84 2b  ...(.0.(...+.0.+
0000e3e0: 00 10 94 2d 7f 10 84 2d 00 03 94 2b 7f 0d 84 2b  ...-...-...+...+
0000e3f0: 00 03 94 2f 7f 15 84 2f 00 09 94 34 7f 5b 84 34  .../.../...4.[.4
0000e400: 00 24 94 2d 7f 30 84 2d 00 10 94 2d 7f 30 84 2d  .$.-.0.-...-.0.-
0000e410: 00 10 94 2f 7f 30 84 2f 00 10 94 32 7f 33 84 32  .../.0./...2.3.2
0000e420: 00 0d 94 34 7f 30 84 34 00 03 94 36 7f 15 84 36  ...4.0.4...6...6
0000e430: 00 08 94 34 7f 20 84 34 00 10 94 32 7f 30 84 32  ...4. .4...2.0.2
0000e440: 00 10 94 2f 7f 58 84 2f 00 28 94 2f 7f 2b 84 2f  .../.X./.(./.+./
0000e450: 00 15 94 28 7f 5b 84 28 00 25 94 2d 7f 30 84 2d  ...(.[.(.%.-.0.-
0000e460: 00 10 94 34 7f 4c 84 34 00 34 94 34 7f 2b 84 34  ...4.L.4.4.4.+.4
0000e470: 00 15 94 2d 7f 5b 84 2d 00 25 94 2d 7f 29 84 2d  ...-.[.-.%.-.).-
0000e480: 00 18 94 39 7f 57 84 39 00 28 94 34 7f 28 84 34  ...9.W.9.(.4.(.4
0000e490: 00 18 94 28 7f 71 84 28 00 0f 94 28 7f 30 84 28  ...(.q.(...(.0.(
0000e4a0: 00 11 94 2f 7f 5a 84 2f 00 25 94 2f 7f 29 84 2f  .../.Z./.%./.)./
0000e4b0: 00 17 94 28 7f 51 84 28 00 2f 94 28 7f 30 84 28  ...(.Q.(./.(.0.(
0000e4c0: 00 13 94 32 7f 4d 84 32 00 2b 94 2f 7f 2d 84 2f  ...2.M.2.+./.-./
0000e4d0: 00 1b 94 28 7f 4d 84 28 00 30 94 28 7f 21 84 28  ...(.M.(.0.(.!.(
0000e4e0: 00 22 94 2f 7f 45 84 2f 00 38 94 2f 7f 28 84 2f  ."./.E./.8./.(./
0000e4f0: 00 18 94 36 7f 59 84 36 00 27 94 36 7f 2b 84 36  ...6.Y.6.'.6.+.6
0000e500: 00 15 94 33 7f 5c 84 33 00 24 94 33 7f 21 84 33  ...3.\.3.$.3.!.3
0000e510: 00 22 94 28 7f 55 84 28 00 28 94 28 7f 34 84 28  .".(.U.(.(.(.4.(
0000e520: 00 0c 94 2f 7f 63 84 2f 00 1d 94 28 7f 81 31 84  .../.c./...(..1.
0000e530: 28 00 0f 94 28 7f 41 94 2f 7f 00 84 28 00 6f 84  (...(.A./...(.o.
0000e540: 2f 00 50 94 2d 7f 58 84 2d 00 28 94 2d 7f 31 84  /.P.-.X.-.(.-.1.
0000e550: 2d 00 0f 94 34 7f 51 84 34 00 2f 94 34 7f 29 84  -...4.Q.4./.4.).
0000e560: 34 00 1a 94 2d 7f 55 84 2d 00 28 94 2d 7f 2c 84  4...-.U.-.(.-.,.
0000e570: 2d 00 15 94 34 7f 81 1f 84 34 00 20 94 2f 7f 33  -...4....4. ./.3
0000e580: 84 2f 00 0d 94 2b 7f 2b 84 2b 00 15 94 28 7f 30  ./...+.+.+...(.0
0000e590: 84 28 00 10 94 2b 7f 70 84 2b 00 10 94 32 7f 30  .(...+.p.+...2.0
0000e5a0: 84 32 00 10 94 31 7f 60 84 31 00 20 94 31 7f 23  .2...1.`.1. .1.#
0000e5b0: 84 31 00 1d 94 2f 7f 81 28 84 2f 00 18 94 2f 7f  .1.../..(./.../.
0000e5c0: 70 84 2f 00 10 94 2b 7f 2b 84 2b 00 15 94 28 7f  p./...+.+.+...(.
0000e5d0: 70 84 28 00 10 94 28 7f 30 84 28 00 10 94 28 7f  p.(...(.0.(...(.
0000e5e0: 38 84 28 00 08 94 28 7f 38 84 28 00 08 94 28 7f  8.(...(.8.(...(.
0000e5f0: 2b 84 28 00 15 94 2b 7f 81 23 84 2b 00 1d 94 2d  +.(...+..#.+...-
0000e600: 7f 28 84 2d 00 18 94 2d 7f 28 84 2d 00 18 94 2d  .(.-...-.(.-...-
0000e610: 7f 23 84 2d 00 1d 94 34 7f 5b 84 34 00 25 94 34  .#.-...4.[.4.%.4
0000e620: 7f 28 84 34 00 18 94 2d 7f 63 84 2d 00 1d 94 2d  .(.4...-.c.-...-
0000e630: 7f 33 84 2d 00 0d 94 34 7f 81 00 84 34 00 40 94  .3.-...4....4.@.
0000e640: 2d 7f 6b 84 2d 00 15 94 2d 7f 2b 84 2d 00 15 94  -.k.-...-.+.-...
0000e650: 34 7f 5b 84 34 00 25 94 34 7f 28 84 34 00 18 94  4.[.4.%.4.(.4...
0000e660: 2d 7f 2b 84 2d 00 15 94 2d 7f 23 84 2d 00 18 94  -.+.-...-.#.-...
0000e670: 2d 7f 2d 84 2d 00 18 94 34 7f 81 19 84 34 00 27  -.-.-...4....4.'
0000e680: 94 28 7f 4b 84 28 00 35 94 28 7f 3b 84 28 00 05  .(.K.(.5.(.;.(..
0000e690: 94 2f 7f 58 84 2f 00 28 94 2f 7f 23 84 2f 00 1d  ./.X./.(./.#./..
0000e6a0: 94 28 7f 69 84 28 00 17 94 28 7f 33 84 28 00 0d  .(.i.(...(.3.(..
0000e6b0: 94 2f 7f 78 84 2f 00 48 94 28 7f 50 84 28 00 30  ./.x./.H.(.P.(.0
0000e6c0: 94 28 7f 34 84 28 00 0c 94 34 7f 51 84 34 00 2f  .(.4.(...4.Q.4./
0000e6d0: 94 2f 7f 2b 84 2f 00 15 94 28 7f 78 84 28 00 08  ./.+./...(.x.(..
0000e6e0: 94 34 7f 33 84 34 00 0d 94 2f 7f 54 84 2f 00 6c  .4.3.4.../.T./.l
0000e6f0: 94 33 7f 60 84 33 00 20 94 36 7f 30 84 36 00 10  .3.`.3. .6.0.6..
0000e700: 94 33 7f 73 84 33 00 0d 94 36 7f 33 84 36 00 0d  .3.s.3...6.3.6..
0000e710: 94 33 7f 6b 84 33 00 15 94 36 7f 81 28 84 36 00  .3.k.3...6..(.6.
0000e720: 59 94 31 7f 6f 84 31 00 10 94 34 7f 30 84 34 00  Y.1.o.1...4.0.4.
0000e730: 11 94 31 7f 72 84 31 00 0d 94 34 7f 2b 84 34 00  ..1.r.1...4.+.4.
0000e740: 15 94 31 7f 6b 84 31 00 15 94 34 7f 81 08 84 34  ..1.k.1...4....4
0000e750: 00 78 94 28 7f 60 84 28 00 20 94 28 7f 2b 84 28  .x.(.`.(. .(.+.(
0000e760: 00 15 94 2f 7f 54 84 2f 00 2c 94 2f 7f 30 84 2f  .../.T./.,./.0./
0000e770: 00 10 94 28 7f 60 84 28 00 20 94 28 7f 30 84 28  ...(.`.(. .(.0.(
0000e780: 00 10 94 2f 7f 81 20 84 2f 00 20 94 28 7f 60 84  .../.. ./. .(.`.
0000e790: 28 00 20 94 28 7f 30 84 28 00 10 94 2f 7f 61 84  (. .(.0.(.../.a.
0000e7a0: 2f 00 1f 94 2f 7f 28 84 2f 00 20 94 2a 7f 5b 84  /.../.(./. .*.[.
0000e7b0: 2a 00 1d 94 2a 7f 28 84 2a 00 18 94 2d 7f 70 84  *...*.(.*...-.p.
0000e7c0: 2d 00 10 94 2d 7f 30 84 2d 00 10 94 28 7f 6c 84  -...-.0.-...(.l.
0000e7d0: 28 00 14 94 28 7f 30 84 28 00 10 94 2f 7f 63 84  (...(.0.(.../.c.
0000e7e0: 2f 00 1d 94 2f 7f 30 84 2f 00 10 94 28 7f 63 84  /.../.0./...(.c.
0000e7f0: 28 00 1d 94 28 7f 30 84 28 00 10 94 2f 7f 6b 84  (...(.0.(.../.k.
0000e800: 2f 00 15 94 2f 7f 30 84 2f 00 10 94 2d 7f 63 84  /.../.0./...-.c.
0000e810: 2d 00 1d 94 2d 7f 30 84 2d 00 10 94 34 7f 58 84  -...-.0.-...4.X.
0000e820: 34 00 28 94 34 7f 3b 84 34 00 05 94 2d 7f 5b 84  4.(.4.;.4...-.[.
0000e830: 2d 00 25 94 2d 7f 23 84 2d 00 1d 94 34 7f 58 84  -.%.-.#.-...4.X.
0000e840: 34 00 28 94 34 7f 29 84 34 00 1a 94 28 7f 50 84  4.(.4.).4...(.P.
0000e850: 28 00 2d 94 28 7f 28 84 28 00 18 94 2f 7f 53 84  (.-.(.(.(.../.S.
0000e860: 2f 00 2d 94 2f 7f 2c 84 2f 00 14 94 28 7f 5c 84  /.-./.,./...(.\.
0000e870: 28 00 24 94 28 7f 30 84 28 00 11 94 2f 7f 57 84  (.$.(.0.(.../.W.
0000e880: 2f 00 28 94 2f 7f 30 84 2f 00 10 94 28 7f 63 84  /.(./.0./...(.c.
0000e890: 28 00 1e 94 28 7f 33 84 28 00 0f 94 2f 7f 55 84  (...(.3.(.../.U.
0000e8a0: 2f 00 28 94 2f 7f 2b 84 2f 00 15 94 28 7f 54 84  /.(./.+./...(.T.
0000e8b0: 28 00 2c 94 28 7f 2b 84 28 00 16 94 2f 7f 5a 84  (.,.(.+.(.../.Z.
0000e8c0: 2f 00 28 94 2f 7f 2d 84 2f 00 10 94 2d 7f 58 84  /.(./.-./...-.X.
0000e8d0: 2d 00 28 94 2d 7f 2b 84 2d 00 15 94 34 7f 58 84  -.(.-.+.-...4.X.
0000e8e0: 34 00 28 94 34 7f 29 84 34 00 18 94 2d 7f 62 84  4.(.4.).4...-.b.
0000e8f0: 2d 00 1d 94 2d 7f 30 84 2d 00 10 94 34 7f 4b 84  -...-.0.-...4.K.
0000e900: 34 00 30 94 34 7f 2d 84 34 00 18 94 2d 7f 54 84  4.0.4.-.4...-.T.
0000e910: 2d 00 2c 94 2d 7f 30 84 2d 00 10 94 34 7f 51 84  -.,.-.0.-...4.Q.
0000e920: 34 00 2f 94 34 7f 30 84 34 00 10 94 2d 7f 58 84  4./.4.0.4...-.X.
0000e930: 2d 00 28 94 2d 7f 33 84 2d 00 0d 94 34 7f 58 84  -.(.-.3.-...4.X.
0000e940: 34 00 28 94 34 7f 38 84 34 00 08 94 28 7f 60 84  4.(.4.8.4...(.`.
0000e950: 28 00 20 94 28 7f 31 84 28 00 0f 94 2f 7f 4b 84  (. .(.1.(.../.K.
0000e960: 2f 00 35 94 2f 7f 30 84 2f 00 10 94 28 7f 50 84  /.5./.0./...(.P.
0000e970: 28 00 30 94 28 7f 2b 84 28 00 18 94 2f 7f 4d 84  (.0.(.+.(.../.M.
0000e980: 2f 00 30 94 2f 7f 28 84 2f 00 20 94 2f 7f 60 84  /.0./.(./. ./.`.
0000e990: 2f 00 18 94 2d 7f 81 30 84 2d 00 10 94 2b 7f 30  /...-..0.-...+.0
0000e9a0: 84 2b 00 10 94 2d 7f 70 84 2d 00 10 94 2b 7f 30  .+...-.p.-...+.0
0000e9b0: 84 2b 00 10 94 28 7f 81 33 84 28 00 0e 94 34 7f  .+...(..3.(...4.
0000e9c0: 5b 84 34 00 24 94 34 7f 31 84 34 00 0f 94 31 7f  [.4.$.4.1.4...1.
0000e9d0: 50 84 31 00 30 94 31 7f 28 84 31 00 18 94 32 7f  P.1.0.1.(.1...2.
0000e9e0: 54 84 32 00 2c 94 32 7f 30 84 32 00 10 94 2f 7f  T.2.,.2.0.2.../.
0000e9f0: 58 84 2f 00 28 94 2f 7f 2b 84 2f 00 15 94 2d 7f  X./.(./.+./...-.
0000ea00: 5b 84 2d 00 25 94 2d 7f 30 84 2d 00 10 94 34 7f  [.-.%.-.0.-...4.
0000ea10: 4c 84 34 00 34 94 34 7f 2b 84 34 00 15 94 2d 7f  L.4.4.4.+.4...-.
0000ea20: 5b 84 2d 00 25 94 2d 7f 29 84 2d 00 18 94 34 7f  [.-.%.-.).-...4.
0000ea30: 57 84 34 00 28 94 34 7f 28 84 34 00 18 94 28 7f  W.4.(.4.(.4...(.
0000ea40: 71 84 28 00 0f 94 28 7f 30 84 28 00 11 94 2f 7f  q.(...(.0.(.../.
0000ea50: 5a 84 2f 00 25 94 2f 7f 29 84 2f 00 17 94 2b 7f  Z./.%./.)./...+.
0000ea60: 51 84 2b 00 2f 94 28 7f 30 84 28 00 13 94 26 7f  Q.+./.(.0.(...&.
0000ea70: 4d 84 26 00 2b 94 23 7f 2d 84 23 00 1b 94 28 7f  M.&.+.#.-.#...(.
0000ea80: 4d 84 28 00 30 94 28 7f 21 84 28 00 22 94 2f 7f  M.(.0.(.!.(."./.
0000ea90: 45 84 2f 00 38 94 2f 7f 28 84 2f 00 18 94 34 7f  E./.8./.(./...4.
0000eaa0: 70 84 34 00 10 94 2f 7f 30 84 2f 00 10 94 2f 7f  p.4.../.0./.../.
0000eab0: 81 30 84 2f 00 00 ff 7f 1c 24 24 00 08 00 00 00  .0./.....$$.....
0000eac0: 00 00 00 14 ff 00 00 00 00 00 00 21 00 00 01 37  ...........!...7
0000ead0: f0 00 00 0c 00 00 ff 7f 05 24 24 00 01 00 00 ff  .........$$.....
0000eae0: 7f 06 24 24 00 06 04 04 00 ff 7f 05 24 24 00 02  ..$$........$$..
0000eaf0: 04 01 ff 2f 00 4d 54 72 6b 00 00 4e 60 00 ff 00  .../.MTrk..N`...
0000eb00: 02 00 07 00 ff 03 05 44 72 75 6d 73 90 40 99 28  .......Drums.@.(
0000eb10: 50 00 99 28 50 0b 89 28 00 05 99 28 50 00 89 28  P..(P..(...(P..(
0000eb20: 00 0b 89 28 00 05 99 28 50 0b 89 28 00 05 99 28  ...(...(P..(...(
0000eb30: 50 0b 89 28 00 05 99 28 50 0b 89 28 00 05 99 28  P..(...(P..(...(
0000eb40: 50 0b 89 28 00 05 99 28 50 0b 89 28 00 05 99 28  P..(...(P..(...(
0000eb50: 50 08 89 28 00 03 99 28 50 08 89 28 00 05 99 28  P..(...(P..(...(
0000eb60: 50 08 89 28 00 08 99 28 50 08 89 28 00 08 99 28  P..(...(P..(...(
0000eb70: 50 08 89 28 00 08 99 28 50 08 99 24 40 00 99 2a  P..(...(P..$@..*
0000eb80: 40 00 99 3b 40 00 89 28 00 03 99 28 50 05 99 23  @..;@..(...(P..#
0000eb90: 40 0b 89 2a 00 05 89 28 00 03 89 23 00 0d 89 3b  @..*...(...#...;
0000eba0: 00 00 89 24 00 50 99 31 40 08 99 2a 40 10 89 31  ...$.P.1@..*@..1
0000ebb0: 00 03 89 2a 00 2d 99 24 40 00 99 2a 40 03 99 28  ...*.-.$@..*@..(
0000ebc0: 50 05 99 23 40 03 99 28 50 08 89 2a 00 05 89 28  P..#@..(P..*...(
0000ebd0: 00 03 89 23 00 05 89 28 00 08 89 24 00 58 99 2a  ...#...(...$.X.*
0000ebe0: 40 13 89 2a 00 2d 99 24 40 03 99 2a 40 05 99 23  @..*.-.$@..*@..#
0000ebf0: 40 10 89 2a 00 03 89 23 00 0d 89 24 00 58 99 2a  @..*...#...$.X.*
0000ec00: 40 13 89 2a 00 25 99 31 40 08 99 24 40 00 99 28  @..*.%.1@..$@..(
0000ec10: 50 00 99 2a 40 08 99 23 40 00 99 28 50 08 89 31  P..*@..#@..(P..1
0000ec20: 00 03 89 2a 00 08 89 23 00 0d 89 24 00 00 89 28  ...*...#...$...(
0000ec30: 00 08 89 28 00 4b 99 2a 40 15 89 2a 00 30 99 24  ...(.K.*@..*.0.$
0000ec40: 40 00 99 2a 40 08 99 23 40 0b 89 2a 00 08 89 23  @..*@..#@..*...#
0000ec50: 00 0d 89 24 00 58 99 2a 40 13 89 2a 00 28 99 31  ...$.X.*@..*.(.1
0000ec60: 40 05 99 24 40 00 99 2a 40 03 99 28 50 05 99 23  @..$@..*@..(P..#
0000ec70: 40 03 99 28 50 08 89 2a 00 00 89 31 00 05 89 28  @..(P..*...1...(
0000ec80: 00 03 89 23 00 05 89 28 00 08 89 24 00 58 99 2a  ...#...(...$.X.*
0000ec90: 40 13 89 2a 00 2d 99 24 40 03 99 2a 40 05 99 23  @..*.-.$@..*@..#
0000eca0: 40 10 89 2a 00 03 89 23 00 0d 89 24 00 58 99 2a  @..*...#...$.X.*
0000ecb0: 40 13 89 2a 00 25 99 31 40 08 99 24 40 00 99 28  @..*.%.1@..$@..(
0000ecc0: 50 00 99 2a 40 08 99 23 40 00 99 28 50 08 89 31  P..*@..#@..(P..1
0000ecd0: 00 03 89 2a 00 08 89 23 00 0d 89 24 00 00 89 28  ...*...#...$...(
0000ece0: 00 08 89 28 00 50 99 2a 40 13 89 2a 00 2d 99 24  ...(.P.*@..*.-.$
0000ecf0: 40 00 99 2a 40 08 99 23 40 0b 89 2a 00 08 89 23  @..*@..#@..*...#
0000ed00: 00 0d 89 24 00 50 99 31 40 08 99 2a 40 10 89 31  ...$.P.1@..*@..1
0000ed10: 00 04 89 2a 00 24 99 31 40 08 99 24 40 03 99 28  ...*.$.1@..$@..(
0000ed20: 50 00 99 2a 40 05 99 23 40 03 99 28 50 05 89 31  P..*@..#@..(P..1
0000ed30: 00 08 89 2a 00 00 89 28 00 03 89 23 00 05 89 28  ...*...(...#...(
0000ed40: 00 08 89 24 00 53 99 2a 40 15 89 2a 00 30 99 24  ...$.S.*@..*.0.$
0000ed50: 40 03 99 2a 40 05 99 23 40 10 89 2a 00 03 89 23  @..*@..#@..*...#
0000ed60: 00 0d 89 24 00 58 99 2a 40 13 89 2a 00 25 99 31  ...$.X.*@..*.%.1
0000ed70: 40 08 99 24 40 00 99 28 50 03 99 2a 40 05 99 23  @..$@..(P..*@..#
0000ed80: 40 00 99 28 50 10 89 2a 00 01 89 31 00 02 89 23  @..(P..*...1...#
0000ed90: 00 0d 89 24 00 00 89 28 00 08 89 28 00 50 99 2a  ...$...(...(.P.*
0000eda0: 40 13 89 2a 00 2d 99 24 40 00 99 2a 40 10 99 23  @..*.-.$@..*@..#
0000edb0: 40 03 89 2a 00 10 89 23 00 05 89 24 00 58 99 2a  @..*...#...$.X.*
0000edc0: 40 13 89 2a 00 28 99 31 40 05 99 24 40 00 99 2a  @..*.(.1@..$@..*
0000edd0: 40 03 99 28 50 08 99 28 50 05 99 23 40 03 89 2a  @..(P..(P..#@..*
0000ede0: 00 00 89 31 00 05 89 28 00 08 89 28 00 03 89 23  ...1...(...(...#
0000edf0: 00 05 89 24 00 58 99 2a 40 13 89 2a 00 2d 99 24  ...$.X.*@..*.-.$
0000ee00: 40 03 99 2a 40 0d 99 23 40 08 89 2a 00 0b 89 23  @..*@..#@..*...#
0000ee10: 00 05 89 24 00 58 99 2a 40 13 89 2a 00 25 99 31  ...$.X.*@..*.%.1
0000ee20: 40 08 99 24 40 00 99 28 50 00 99 2a 40 08 99 28  @..$@..(P..*@..(
0000ee30: 50 08 99 23 40 00 89 31 00 03 89 2a 00 10 89 23  P..#@..1...*...#
0000ee40: 00 05 89 24 00 00 89 28 00 08 89 28 00 4b 99 2a  ...$...(...(.K.*
0000ee50: 40 15 89 2a 00 30 99 24 40 00 99 2a 40 10 99 23  @..*.0.$@..*@..#
0000ee60: 40 03 89 2a 00 10 89 23 00 05 89 24 00 58 99 28  @..*...#...$.X.(
0000ee70: 50 00 99 2a 40 08 99 28 50 0b 89 2a 00 01 89 28  P..*@..(P..*...(
0000ee80: 00 07 89 28 00 1d 99 31 40 08 99 24 40 00 99 2a  ...(...1@..$@..*
0000ee90: 40 03 99 28 50 08 99 28 50 05 99 23 40 00 89 31  @..(P..(P..#@..1
0000eea0: 00 03 89 2a 00 05 89 28 00 08 89 28 00 03 89 23  ...*...(...(...#
0000eeb0: 00 05 89 24 00 18 99 2a 40 13 89 2a 00 2d 99 28  ...$...*@..*.-.(
0000eec0: 50 00 99 2a 40 08 99 28 50 0b 89 2a 00 05 89 28  P..*@..(P..*...(
0000eed0: 00 08 89 28 00 20 99 24 40 03 99 2a 40 0d 99 23  ...(. .$@..*@..#
0000eee0: 40 08 89 2a 00 0b 89 23 00 05 89 24 00 58 99 2a  @..*...#...$.X.*
0000eef0: 40 01 99 28 50 07 99 28 50 0b 89 2a 00 01 89 28  @..(P..(P..*...(
0000ef00: 00 0c 89 28 00 18 99 31 40 08 99 24 40 00 99 28  ...(...1@..$@..(
0000ef10: 50 00 99 2a 40 08 99 28 50 08 99 23 40 00 89 31  P..*@..(P..#@..1
0000ef20: 00 03 89 2a 00 10 89 23 00 05 89 24 00 00 89 28  ...*...#...$...(
0000ef30: 00 08 89 28 00 10 99 2a 40 13 89 2a 00 28 99 2a  ...(...*@..*.(.*
0000ef40: 40 15 89 2a 00 30 99 24 40 00 99 2a 40 03 99 28  @..*.0.$@..*@..(
0000ef50: 50 0d 99 23 40 00 99 28 50 03 89 2a 00 08 89 28  P..#@..(P..*...(
0000ef60: 00 08 89 23 00 05 89 28 00 00 89 24 00 50 99 31  ...#...(...$.P.1
0000ef70: 40 08 99 2a 40 10 89 31 00 03 89 2a 00 21 99 31  @..*@..1...*.!.1
0000ef80: 40 0c 99 24 40 00 99 2a 40 03 99 28 50 08 99 28  @..$@..*@..(P..(
0000ef90: 50 05 99 23 40 00 89 31 00 03 89 2a 00 05 89 28  P..#@..1...*...(
0000efa0: 00 08 89 28 00 03 89 23 00 05 89 24 00 58 99 2a  ...(...#...$.X.*
0000efb0: 40 13 89 2a 00 2d 99 24 40 03 99 2a 40 0d 99 23  @..*.-.$@..*@..#
0000efc0: 40 08 89 2a 00 0b 89 23 00 05 89 24 00 50 99 31  @..*...#...$.P.1
0000efd0: 40 08 99 2a 40 10 89 31 00 03 89 2a 00 25 99 31  @..*@..1...*.%.1
0000efe0: 40 08 99 24 40 00 99 28 50 00 99 2a 40 08 99 28  @..$@..(P..*@..(
0000eff0: 50 08 99 23 40 00 89 31 00 03 89 2a 00 10 89 23  P..#@..1...*...#
0000f000: 00 05 89 24 00 00 89 28 00 08 89 28 00 4b 99 2a  ...$...(...(.K.*
0000f010: 40 15 89 2a 00 30 99 24 40 00 99 2a 40 10 99 23  @..*.0.$@..*@..#
0000f020: 40 03 89 2a 00 10 89 23 00 05 89 24 00 58 99 2a  @..*...#...$.X.*
0000f030: 40 13 89 2a 00 28 99 31 40 05 99 24 40 00 99 2a  @..*.(.1@..$@..*
0000f040: 40 03 99 28 50 08 99 28 50 05 99 23 40 00 89 31  @..(P..(P..#@..1
0000f050: 00 03 89 2a 00 05 89 28 00 08 89 28 00 03 89 23  ...*...(...(...#
0000f060: 00 05 89 24 00 58 99 2a 40 13 89 2a 00 2d 99 24  ...$.X.*@..*.-.$
0000f070: 40 03 99 2a 40 0d 99 23 40 08 89 2a 00 0b 89 23  @..*@..#@..*...#
0000f080: 00 05 89 24 00 58 99 2a 40 13 89 2a 00 25 99 31  ...$.X.*@..*.%.1
0000f090: 40 08 99 24 40 00 99 28 50 00 99 2a 40 08 99 28  @..$@..(P..*@..(
0000f0a0: 50 08 99 23 40 00 89 31 00 03 89 2a 00 10 89 23  P..#@..1...*...#
0000f0b0: 00 05 89 24 00 00 89 28 00 08 89 28 00 4b 99 2a  ...$...(...(.K.*
0000f0c0: 40 15 89 2a 00 30 99 24 40 00 99 2a 40 10 99 23  @..*.0.$@..*@..#
0000f0d0: 40 03 89 2a 00 10 89 23 00 05 89 24 00 58 99 2a  @..*...#...$.X.*
0000f0e0: 40 13 89 2a 00 25 99 31 40 08 99 24 40 00 99 2a  @..*.%.1@..$@..*
0000f0f0: 40 03 99 28 50 08 99 28 50 05 99 23 40 00 89 31  @..(P..(P..#@..1
0000f100: 00 03 89 2a 00 05 89 28 00 08 89 28 00 03 89 23  ...*...(...(...#
0000f110: 00 05 89 24 00 58 99 2a 40 13 89 2a 00 2d 99 24  ...$.X.*@..*.-.$
0000f120: 40 03 99 2a 40 0d 99 23 40 08 89 2a 00 0b 89 23  @..*@..#@..*...#
0000f130: 00 05 89 24 00 58 99 2a 40 13 89 2a 00 26 99 31  ...$.X.*@..*.&.1
0000f140: 40 07 99 24 40 00 99 28 50 00 99 2a 40 08 99 28  @..$@..(P..*@..(
0000f150: 50 08 99 23 40 00 89 31 00 03 89 2a 00 10 89 23  P..#@..1...*...#
0000f160: 00 05 89 24 00 00 89 28 00 08 89 28 00 4b 99 2a  ...$...(...(.K.*
0000f170: 40 15 89 2a 00 30 99 24 40 00 99 2a 40 10 99 23  @..*.0.$@..*@..#
0000f180: 40 03 89 2a 00 10 89 23 00 05 89 24 00 58 99 2a  @..*...#...$.X.*
0000f190: 40 13 89 2a 00 25 99 31 40 08 99 24 40 00 99 2a  @..*.%.1@..$@..*
0000f1a0: 40 03 99 28 50 08 99 28 50 05 99 23 40 00 89 31  @..(P..(P..#@..1
0000f1b0: 00 03 89 2a 00 05 89 28 00 08 89 28 00 03 89 23  ...*...(...(...#
0000f1c0: 00 05 89 24 00 58 99 2a 40 13 89 2a 00 2d 99 24  ...$.X.*@..*.-.$
0000f1d0: 40 03 99 2a 40 0d 99 23 40 08 89 2a 00 0b 89 23  @..*@..#@..*...#
0000f1e0: 00 05 89 24 00 58 99 2a 40 13 89 2a 00 20 99 31  ...$.X.*@..*. .1
0000f1f0: 40 0d 99 24 40 00 99 28 50 00 99 2a 40 08 99 28  @..$@..(P..*@..(
0000f200: 50 08 99 23 40 00 89 31 00 03 89 2a 00 10 89 23  P..#@..1...*...#
0000f210: 00 05 89 24 00 00 89 28 00 08 89 28 00 4b 99 2a  ...$...(...(.K.*
0000f220: 40 15 89 2a 00 30 99 24 40 00 99 2a 40 10 99 23  @..*.0.$@..*@..#
0000f230: 40 03 89 2a 00 10 89 23 00 05 89 24 00 4b 99 31  @..*...#...$.K.1
0000f240: 40 0d 99 2a 40 10 89 31 00 03 89 2a 00 25 99 31  @..*@..1...*.%.1
0000f250: 40 08 99 24 40 00 99 2a 40 03 99 28 50 08 99 28  @..$@..*@..(P..(
0000f260: 50 05 99 23 40 03 89 2a 00 00 89 31 00 05 89 28  P..#@..*...1...(
0000f270: 00 08 89 28 00 03 89 23 00 05 89 24 00 58 99 2a  ...(...#...$.X.*
0000f280: 40 13 89 2a 00 2d 99 24 40 03 99 2a 40 0d 99 23  @..*.-.$@..*@..#
0000f290: 40 08 89 2a 00 0b 89 23 00 05 89 24 00 58 99 2a  @..*...#...$.X.*
0000f2a0: 40 13 89 2a 00 25 99 31 40 08 99 24 40 00 99 28  @..*.%.1@..$@..(
0000f2b0: 50 00 99 2a 40 08 99 28 50 08 99 23 40 00 89 31  P..*@..(P..#@..1
0000f2c0: 00 03 89 2a 00 10 89 23 00 05 89 24 00 00 89 28  ...*...#...$...(
0000f2d0: 00 08 89 28 00 4b 99 2a 40 15 89 2a 00 30 99 24  ...(.K.*@..*.0.$
0000f2e0: 40 00 99 2a 40 10 99 23 40 03 89 2a 00 10 89 23  @..*@..#@..*...#
0000f2f0: 00 05 89 24 00 58 99 2a 40 13 89 2a 00 28 99 31  ...$.X.*@..*.(.1
0000f300: 40 05 99 24 40 00 99 2a 40 03 99 28 50 08 99 28  @..$@..*@..(P..(
0000f310: 50 05 99 23 40 03 89 2a 00 05 89 28 00 00 89 31  P..#@..*...(...1
0000f320: 00 08 89 28 00 03 89 23 00 05 89 24 00 58 99 2a  ...(...#...$.X.*
0000f330: 40 13 89 2a 00 2d 99 24 40 03 99 2a 40 0d 99 23  @..*.-.$@..*@..#
0000f340: 40 08 89 2a 00 0b 89 23 00 05 89 24 00 58 99 2a  @..*...#...$.X.*
0000f350: 40 13 89 2a 00 25 99 31 40 08 99 24 40 00 99 28  @..*.%.1@..$@..(
0000f360: 50 00 99 2a 40 08 99 28 50 08 99 23 40 00 89 31  P..*@..(P..#@..1
0000f370: 00 03 89 2a 00 10 89 23 00 05 89 24 00 00 89 28  ...*...#...$...(
0000f380: 00 08 89 28 00 4b 99 2a 40 15 89 2a 00 30 99 24  ...(.K.*@..*.0.$
0000f390: 40 00 99 2a 40 10 99 23 40 03 89 2a 00 10 89 23  @..*@..#@..*...#
0000f3a0: 00 05 89 24 00 50 99 31 40 08 99 2a 40 10 89 31  ...$.P.1@..*@..1
0000f3b0: 00 03 89 2a 00 25 99 31 40 08 99 24 40 00 99 2a  ...*.%.1@..$@..*
0000f3c0: 40 03 99 28 50 08 99 28 50 05 99 23 40 00 89 31  @..(P..(P..#@..1
0000f3d0: 00 03 89 2a 00 05 89 28 00 08 89 28 00 03 89 23  ...*...(...(...#
0000f3e0: 00 05 89 24 00 58 99 2a 40 13 89 2a 00 2d 99 24  ...$.X.*@..*.-.$
0000f3f0: 40 03 99 2a 40 0d 99 23 40 08 89 2a 00 0b 89 23  @..*@..#@..*...#
0000f400: 00 05 89 24 00 50 99 31 40 08 99 2a 40 10 89 31  ...$.P.1@..*@..1
0000f410: 00 03 89 2a 00 26 99 31 40 07 99 24 40 00 99 28  ...*.&.1@..$@..(
0000f420: 50 00 99 2a 40 08 99 28 50 08 99 23 40 00 89 31  P..*@..(P..#@..1
0000f430: 00 03 89 2a 00 10 89 23 00 05 89 24 00 00 89 28  ...*...#...$...(
0000f440: 00 08 89 28 00 4b 99 2a 40 15 89 2a 00 30 99 24  ...(.K.*@..*.0.$
0000f450: 40 00 99 2a 40 10 99 23 40 03 89 2a 00 10 89 23  @..*@..#@..*...#
0000f460: 00 05 89 24 00 50 99 31 40 08 99 28 50 00 99 2a  ...$.P.1@..(P..*
0000f470: 40 08 99 28 50 0b 89 2a 00 05 89 28 00 03 89 31  @..(P..*...(...1
0000f480: 00 08 89 28 00 1d 99 24 40 00 99 2a 40 03 99 28  ...(...$@..*@..(
0000f490: 50 08 99 28 50 05 99 23 40 03 89 2a 00 05 89 28  P..(P..#@..*...(
0000f4a0: 00 08 89 28 00 03 89 23 00 05 89 24 00 58 99 28  ...(...#...$.X.(
0000f4b0: 50 00 99 2a 40 0b 99 28 50 08 89 28 00 00 89 2a  P..*@..(P..(...*
0000f4c0: 00 05 89 28 00 28 99 24 40 03 99 28 50 00 99 2a  ...(.(.$@..(P..*
0000f4d0: 40 0d 99 23 40 03 99 28 50 05 89 2a 00 03 89 28  @..#@..(P..*...(
0000f4e0: 00 05 89 28 00 03 89 23 00 05 89 24 00 18 99 28  ...(...#...$...(
0000f4f0: 50 18 89 28 00 28 99 28 50 00 99 2a 40 13 89 2a  P..(.(.(P..*@..*
0000f500: 00 05 89 28 00 28 99 24 40 00 99 28 50 00 99 2a  ...(.(.$@..(P..*
0000f510: 40 08 99 28 50 08 99 23 40 03 89 2a 00 10 89 23  @..(P..#@..*...#
0000f520: 00 05 89 24 00 00 89 28 00 08 89 28 00 4b 99 2a  ...$...(...(.K.*
0000f530: 40 05 99 28 50 10 89 2a 00 08 89 28 00 28 99 24  @..(P..*...(.(.$
0000f540: 40 00 99 2a 40 03 99 2a 40 05 99 23 40 00 99 28  @..*@..*@..#@..(
0000f550: 50 0b 89 2a 00 05 89 2a 00 03 89 23 00 05 89 28  P..*...*...#...(
0000f560: 00 08 89 24 00 58 99 2a 40 13 89 2a 00 28 99 31  ...$.X.*@..*.(.1
0000f570: 40 05 99 24 40 00 99 2a 40 03 99 28 50 05 99 23  @..$@..*@..(P..#
0000f580: 40 03 99 28 50 08 89 2a 00 00 89 31 00 05 89 28  @..(P..*...1...(
0000f590: 00 03 89 23 00 05 89 28 00 08 89 24 00 58 99 2a  ...#...(...$.X.*
0000f5a0: 40 13 89 2a 00 2d 99 24 40 03 99 2a 40 05 99 23  @..*.-.$@..*@..#
0000f5b0: 40 10 89 2a 00 03 89 23 00 0d 89 24 00 58 99 2a  @..*...#...$.X.*
0000f5c0: 40 13 89 2a 00 25 99 31 40 08 99 24 40 00 99 28  @..*.%.1@..$@..(
0000f5d0: 50 00 99 2a 40 08 99 23 40 00 99 28 50 08 89 31  P..*@..#@..(P..1
0000f5e0: 00 03 89 2a 00 08 89 23 00 0d 89 24 00 00 89 28  ...*...#...$...(
0000f5f0: 00 08 89 28 00 50 99 2a 40 13 89 2a 00 2d 99 24  ...(.P.*@..*.-.$
0000f600: 40 00 99 2a 40 08 99 23 40 0b 89 2a 00 08 89 23  @..*@..#@..*...#
0000f610: 00 0d 89 24 00 50 99 31 40 08 99 2a 40 10 89 31  ...$.P.1@..*@..1
0000f620: 00 04 89 2a 00 24 99 31 40 08 99 24 40 03 99 28  ...*.$.1@..$@..(
0000f630: 50 00 99 2a 40 05 99 23 40 03 99 28 50 05 89 31  P..*@..#@..(P..1
0000f640: 00 08 89 2a 00 00 89 28 00 03 89 23 00 05 89 28  ...*...(...#...(
0000f650: 00 08 89 24 00 53 99 2a 40 15 89 2a 00 30 99 24  ...$.S.*@..*.0.$
0000f660: 40 03 99 2a 40 05 99 23 40 10 89 2a 00 03 89 23  @..*@..#@..*...#
0000f670: 00 0d 89 24 00 58 99 2a 40 13 89 2a 00 25 99 31  ...$.X.*@..*.%.1
0000f680: 40 08 99 24 40 00 99 28 50 03 99 2a 40 05 99 23  @..$@..(P..*@..#
0000f690: 40 00 99 28 50 10 89 2a 00 01 89 31 00 02 89 23  @..(P..*...1...#
0000f6a0: 00 0d 89 24 00 00 89 28 00 08 89 28 00 10 99 28  ...$...(...(...(
0000f6b0: 50 13 89 28 00 2d 99 2a 40 13 89 2a 00 2d 99 24  P..(.-.*@..*.-.$
0000f6c0: 40 00 99 2a 40 10 99 23 40 03 89 2a 00 10 89 23  @..*@..#@..*...#
0000f6d0: 00 05 89 24 00 58 99 2a 40 13 89 2a 00 28 99 31  ...$.X.*@..*.(.1
0000f6e0: 40 05 99 24 40 00 99 2a 40 03 99 28 50 08 99 28  @..$@..*@..(P..(
0000f6f0: 50 05 99 23 40 03 89 2a 00 00 89 31 00 05 89 28  P..#@..*...1...(
0000f700: 00 08 89 28 00 03 89 23 00 05 89 24 00 18 99 28  ...(...#...$...(
0000f710: 50 18 89 28 00 28 99 2a 40 13 89 2a 00 2d 99 24  P..(.(.*@..*.-.$
0000f720: 40 01 99 28 50 02 99 2a 40 06 89 28 00 07 99 23  @..(P..*@..(...#
0000f730: 40 00 99 28 50 08 89 28 00 00 89 2a 00 04 99 28  @..(P..(...*...(
0000f740: 50 07 89 23 00 01 89 28 00 04 89 24 00 04 99 28  P..#...(...$...(
0000f750: 50 0c 89 28 00 48 99 2a 40 13 89 2a 00 25 99 31  P..(.H.*@..*.%.1
0000f760: 40 08 99 24 40 00 99 28 50 00 99 2a 40 08 99 28  @..$@..(P..*@..(
0000f770: 50 00 89 28 00 08 99 23 40 00 99 28 50 00 89 31  P..(...#@..(P..1
0000f780: 00 03 89 2a 00 05 89 28 00 08 99 28 50 03 89 23  ...*...(...(P..#
0000f790: 00 05 89 28 00 00 89 24 00 08 99 28 50 00 89 28  ...(...$...(P..(
0000f7a0: 00 08 89 28 00 08 99 28 50 08 89 28 00 08 99 28  ...(...(P..(...(
0000f7b0: 50 08 89 28 00 23 99 2a 40 15 89 2a 00 30 99 24  P..(.#.*@..*.0.$
0000f7c0: 40 00 99 2a 40 10 99 23 40 03 89 2a 00 10 89 23  @..*@..#@..*...#
0000f7d0: 00 05 89 24 00 58 99 28 50 00 99 2a 40 08 99 28  ...$.X.(P..*@..(
0000f7e0: 50 0b 89 2a 00 01 89 28 00 07 89 28 00 1d 99 31  P..*...(...(...1
0000f7f0: 40 08 99 24 40 00 99 2a 40 03 99 28 50 08 99 28  @..$@..*@..(P..(
0000f800: 50 05 99 23 40 00 89 31 00 03 89 2a 00 05 89 28  P..#@..1...*...(
0000f810: 00 08 89 28 00 03 89 23 00 05 89 24 00 18 99 2a  ...(...#...$...*
0000f820: 40 13 89 2a 00 2d 99 28 50 00 99 2a 40 08 99 28  @..*.-.(P..*@..(
0000f830: 50 0b 89 2a 00 05 89 28 00 08 89 28 00 20 99 24  P..*...(...(. .$
0000f840: 40 03 99 28 50 00 99 2a 40 0d 99 23 40 08 89 2a  @..(P..*@..#@..*
0000f850: 00 03 89 28 00 08 89 23 00 05 89 24 00 58 99 2a  ...(...#...$.X.*
0000f860: 40 01 99 28 50 07 99 28 50 0b 89 2a 00 01 89 28  @..(P..(P..*...(
0000f870: 00 0c 89 28 00 18 99 31 40 08 99 24 40 00 99 28  ...(...1@..$@..(
0000f880: 50 00 99 2a 40 08 99 28 50 08 99 23 40 00 89 31  P..*@..(P..#@..1
0000f890: 00 03 89 2a 00 10 89 23 00 05 89 24 00 00 89 28  ...*...#...$...(
0000f8a0: 00 08 89 28 00 10 99 2a 40 13 89 2a 00 28 99 2a  ...(...*@..*.(.*
0000f8b0: 40 15 89 2a 00 30 99 24 40 00 99 2a 40 03 99 28  @..*.0.$@..*@..(
0000f8c0: 50 0d 99 23 40 00 99 28 50 03 89 2a 00 08 89 28  P..#@..(P..*...(
0000f8d0: 00 08 89 23 00 05 89 28 00 00 89 24 00 50 99 31  ...#...(...$.P.1
0000f8e0: 40 08 99 2a 40 10 99 28 50 00 89 31 00 03 89 2a  @..*@..(P..1...*
0000f8f0: 00 15 89 28 00 0c 99 31 40 0c 99 24 40 00 99 2a  ...(...1@..$@..*
0000f900: 40 03 99 28 50 08 99 28 50 05 99 23 40 00 89 31  @..(P..(P..#@..1
0000f910: 00 03 89 2a 00 05 89 28 00 08 89 28 00 03 89 23  ...*...(...(...#
0000f920: 00 05 89 24 00 58 99 2a 40 13 89 2a 00 2d 99 24  ...$.X.*@..*.-.$
0000f930: 40 03 99 28 50 00 99 2a 40 0d 99 23 40 08 89 2a  @..(P..*@..#@..*
0000f940: 00 03 89 28 00 08 89 23 00 05 89 24 00 50 99 31  ...(...#...$.P.1
0000f950: 40 08 99 2a 40 10 89 31 00 03 89 2a 00 25 99 31  @..*@..1...*.%.1
0000f960: 40 08 99 24 40 00 99 28 50 00 99 2a 40 08 99 28  @..$@..(P..*@..(
0000f970: 50 08 99 23 40 00 89 31 00 03 89 2a 00 10 89 23  P..#@..1...*...#
0000f980: 00 05 89 24 00 00 89 28 00 08 89 28 00 4b 99 2a  ...$...(...(.K.*
0000f990: 40 15 89 2a 00 30 99 24 40 00 99 2a 40 10 99 23  @..*.0.$@..*@..#
0000f9a0: 40 03 89 2a 00 10 89 23 00 05 89 24 00 58 99 2a  @..*...#...$.X.*
0000f9b0: 40 13 89 2a 00 28 99 31 40 05 99 24 40 00 99 2a  @..*.(.1@..$@..*
0000f9c0: 40 03 99 28 50 08 99 28 50 05 99 23 40 00 89 31  @..(P..(P..#@..1
0000f9d0: 00 03 89 2a 00 05 89 28 00 08 89 28 00 03 89 23  ...*...(...(...#
0000f9e0: 00 05 89 24 00 58 99 2a 40 13 89 2a 00 2d 99 24  ...$.X.*@..*.-.$
0000f9f0: 40 03 99 2a 40 0d 99 23 40 08 89 2a 00 0b 89 23  @..*@..#@..*...#
0000fa00: 00 05 89 24 00 58 99 2a 40 13 89 2a 00 25 99 31  ...$.X.*@..*.%.1
0000fa10: 40 08 99 24 40 00 99 28 50 00 99 2a 40 08 99 28  @..$@..(P..*@..(
0000fa20: 50 08 99 23 40 00 89 31 00 03 89 2a 00 10 89 23  P..#@..1...*...#
0000fa30: 00 05 89 24 00 00 89 28 00 08 89 28 00 4b 99 2a  ...$...(...(.K.*
0000fa40: 40 15 89 2a 00 30 99 24 40 00 99 2a 40 10 99 23  @..*.0.$@..*@..#
0000fa50: 40 03 89 2a 00 10 89 23 00 05 89 24 00 58 99 2a  @..*...#...$.X.*
0000fa60: 40 13 89 2a 00 25 99 31 40 08 99 24 40 00 99 2a  @..*.%.1@..$@..*
0000fa70: 40 03 99 28 50 08 99 28 50 05 99 23 40 00 89 31  @..(P..(P..#@..1
0000fa80: 00 03 89 2a 00 05 89 28 00 08 89 28 00 03 89 23  ...*...(...(...#
0000fa90: 00 05 89 24 00 58 99 2a 40 13 89 2a 00 2d 99 24  ...$.X.*@..*.-.$
0000faa0: 40 03 99 2a 40 0d 99 23 40 08 89 2a 00 0b 89 23  @..*@..#@..*...#
0000fab0: 00 05 89 24 00 58 99 2a 40 13 89 2a 00 26 99 31  ...$.X.*@..*.&.1
0000fac0: 40 07 99 24 40 00 99 28 50 00 99 2a 40 08 99 28  @..$@..(P..*@..(
0000fad0: 50 08 99 23 40 00 89 31 00 03 89 2a 00 10 89 23  P..#@..1...*...#
0000fae0: 00 05 89 24 00 00 89 28 00 08 89 28 00 4b 99 2a  ...$...(...(.K.*
0000faf0: 40 15 89 2a 00 30 99 24 40 00 99 2a 40 10 99 23  @..*.0.$@..*@..#
0000fb00: 40 03 89 2a 00 10 89 23 00 05 89 24 00 58 99 2a  @..*...#...$.X.*
0000fb10: 40 13 89 2a 00 25 99 31 40 08 99 24 40 00 99 2a  @..*.%.1@..$@..*
0000fb20: 40 03 99 28 50 08 99 28 50 05 99 23 40 00 89 31  @..(P..(P..#@..1
0000fb30: 00 03 89 2a 00 05 89 28 00 08 89 28 00 03 89 23  ...*...(...(...#
0000fb40: 00 05 89 24 00 58 99 2a 40 13 89 2a 00 2d 99 24  ...$.X.*@..*.-.$
0000fb50: 40 03 99 2a 40 0d 99 23 40 08 89 2a 00 0b 89 23  @..*@..#@..*...#
0000fb60: 00 05 89 24 00 58 99 2a 40 13 89 2a 00 20 99 31  ...$.X.*@..*. .1
0000fb70: 40 0d 99 24 40 00 99 28 50 00 99 2a 40 08 99 28  @..$@..(P..*@..(
0000fb80: 50 08 99 23 40 00 89 31 00 03 89 2a 00 10 89 23  P..#@..1...*...#
0000fb90: 00 05 89 24 00 00 89 28 00 08 89 28 00 4b 99 2a  ...$...(...(.K.*
0000fba0: 40 05 99 28 50 08 89 28 00 08 99 28 50 00 89 2a  @..(P..(...(P..*
0000fbb0: 00 08 89 28 00 08 99 28 50 09 89 28 00 07 99 28  ...(...(P..(...(
0000fbc0: 50 09 89 28 00 07 99 24 40 00 99 2a 40 10 99 23  P..(...$@..*@..#
0000fbd0: 40 03 89 2a 00 10 89 23 00 05 89 24 00 4b 99 31  @..*...#...$.K.1
0000fbe0: 40 0d 99 2a 40 10 89 31 00 03 89 2a 00 25 99 31  @..*@..1...*.%.1
0000fbf0: 40 08 99 24 40 00 99 2a 40 03 99 28 50 08 99 28  @..$@..*@..(P..(
0000fc00: 50 05 99 23 40 03 89 2a 00 00 89 31 00 05 89 28  P..#@..*...1...(
0000fc10: 00 08 89 28 00 03 89 23 00 05 89 24 00 58 99 2a  ...(...#...$.X.*
0000fc20: 40 13 89 2a 00 2d 99 24 40 03 99 2a 40 0d 99 23  @..*.-.$@..*@..#
0000fc30: 40 08 89 2a 00 0b 89 23 00 05 89 24 00 58 99 2a  @..*...#...$.X.*
0000fc40: 40 13 89 2a 00 25 99 31 40 08 99 24 40 00 99 28  @..*.%.1@..$@..(
0000fc50: 50 00 99 2a 40 08 99 28 50 08 99 23 40 00 89 31  P..*@..(P..#@..1
0000fc60: 00 03 89 2a 00 10 89 23 00 05 89 24 00 00 89 28  ...*...#...$...(
0000fc70: 00 08 89 28 00 4b 99 2a 40 15 89 2a 00 30 99 24  ...(.K.*@..*.0.$
0000fc80: 40 00 99 2a 40 10 99 23 40 03 89 2a 00 10 89 23  @..*@..#@..*...#
0000fc90: 00 05 89 24 00 58 99 2a 40 13 89 2a 00 28 99 31  ...$.X.*@..*.(.1
0000fca0: 40 05 99 24 40 00 99 2a 40 03 99 28 50 08 99 28  @..$@..*@..(P..(
0000fcb0: 50 05 99 23 40 03 89 2a 00 05 89 28 00 00 89 31  P..#@..*...(...1
0000fcc0: 00 08 89 28 00 03 89 23 00 05 89 24 00 58 99 2a  ...(...#...$.X.*
0000fcd0: 40 13 89 2a 00 2d 99 24 40 03 99 2a 40 0d 99 23  @..*.-.$@..*@..#
0000fce0: 40 08 89 2a 00 0b 89 23 00 05 89 24 00 58 99 2a  @..*...#...$.X.*
0000fcf0: 40 13 89 2a 00 25 99 31 40 08 99 24 40 00 99 28  @..*.%.1@..$@..(
0000fd00: 50 00 99 2a 40 08 99 28 50 08 99 23 40 00 89 31  P..*@..(P..#@..1
0000fd10: 00 03 89 2a 00 10 89 23 00 05 89 24 00 00 89 28  ...*...#...$...(
0000fd20: 00 08 89 28 00 4b 99 2a 40 15 89 2a 00 30 99 24  ...(.K.*@..*.0.$
0000fd30: 40 00 99 2a 40 10 99 23 40 03 89 2a 00 10 89 23  @..*@..#@..*...#
0000fd40: 00 05 89 24 00 50 99 31 40 08 99 2a 40 10 89 31  ...$.P.1@..*@..1
0000fd50: 00 03 89 2a 00 25 99 31 40 08 99 24 40 00 99 2a  ...*.%.1@..$@..*
0000fd60: 40 03 99 28 50 08 99 28 50 05 99 23 40 00 89 31  @..(P..(P..#@..1
0000fd70: 00 03 89 2a 00 05 89 28 00 08 89 28 00 03 89 23  ...*...(...(...#
0000fd80: 00 05 89 24 00 58 99 2a 40 13 89 2a 00 2d 99 24  ...$.X.*@..*.-.$
0000fd90: 40 03 99 2a 40 0d 99 23 40 08 89 2a 00 0b 89 23  @..*@..#@..*...#
0000fda0: 00 05 89 24 00 50 99 31 40 08 99 2a 40 10 89 31  ...$.P.1@..*@..1
0000fdb0: 00 03 89 2a 00 26 99 31 40 07 99 24 40 00 99 28  ...*.&.1@..$@..(
0000fdc0: 50 00 99 2a 40 08 99 28 50 08 99 23 40 00 89 31  P..*@..(P..#@..1
0000fdd0: 00 03 89 2a 00 10 89 23 00 05 89 24 00 00 89 28  ...*...#...$...(
0000fde0: 00 08 89 28 00 4b 99 2a 40 15 89 2a 00 30 99 24  ...(.K.*@..*.0.$
0000fdf0: 40 00 99 2a 40 10 99 23 40 03 89 2a 00 10 89 23  @..*@..#@..*...#
0000fe00: 00 05 89 24 00 50 99 31 40 08 99 28 50 00 99 2a  ...$.P.1@..(P..*
0000fe10: 40 08 99 28 50 0b 89 2a 00 05 89 28 00 03 89 31  @..(P..*...(...1
0000fe20: 00 08 89 28 00 1d 99 24 40 00 99 2a 40 03 99 28  ...(...$@..*@..(
0000fe30: 50 08 99 28 50 05 99 23 40 03 89 2a 00 05 89 28  P..(P..#@..*...(
0000fe40: 00 08 89 28 00 03 89 23 00 05 89 24 00 58 99 28  ...(...#...$.X.(
0000fe50: 50 00 99 2a 40 0b 99 28 50 08 89 28 00 00 89 2a  P..*@..(P..(...*
0000fe60: 00 05 89 28 00 28 99 24 40 03 99 28 50 00 99 2a  ...(.(.$@..(P..*
0000fe70: 40 0d 99 23 40 03 99 28 50 05 89 2a 00 03 89 28  @..#@..(P..*...(
0000fe80: 00 05 89 28 00 03 89 23 00 05 89 24 00 18 99 3b  ...(...#...$...;
0000fe90: 40 30 89 3b 00 10 99 2a 40 13 89 2a 00 2d 99 24  @0.;...*@..*.-.$
0000fea0: 40 00 99 28 50 00 99 2a 40 08 99 28 50 08 99 23  @..(P..*@..(P..#
0000feb0: 40 03 89 2a 00 10 89 23 00 05 89 24 00 00 89 28  @..*...#...$...(
0000fec0: 00 08 89 28 00 4b 99 2a 40 05 99 28 50 10 89 2a  ...(.K.*@..(P..*
0000fed0: 00 08 89 28 00 28 99 24 40 00 99 2a 40 08 99 23  ...(.(.$@..*@..#
0000fee0: 40 0b 89 2a 00 08 89 23 00 0d 89 24 00 58 99 2a  @..*...#...$.X.*
0000fef0: 40 13 89 2a 00 28 99 31 40 05 99 24 40 00 99 2a  @..*.(.1@..$@..*
0000ff00: 40 03 99 28 50 05 99 23 40 03 99 28 50 08 89 2a  @..(P..#@..(P..*
0000ff10: 00 00 89 31 00 05 89 28 00 03 89 23 00 05 89 28  ...1...(...#...(
0000ff20: 00 08 89 24 00 58 99 2a 40 13 89 2a 00 2d 99 24  ...$.X.*@..*.-.$
0000ff30: 40 03 99 2a 40 05 99 23 40 10 89 2a 00 03 89 23  @..*@..#@..*...#
0000ff40: 00 0d 89 24 00 58 99 2a 40 13 89 2a 00 25 99 31  ...$.X.*@..*.%.1
0000ff50: 40 08 99 24 40 00 99 28 50 00 99 2a 40 08 99 23  @..$@..(P..*@..#
0000ff60: 40 00 99 28 50 08 89 31 00 03 89 2a 00 08 89 23  @..(P..1...*...#
0000ff70: 00 0d 89 24 00 00 89 28 00 08 89 28 00 50 99 2a  ...$...(...(.P.*
0000ff80: 40 13 89 2a 00 2d 99 24 40 00 99 2a 40 08 99 23  @..*.-.$@..*@..#
0000ff90: 40 0b 89 2a 00 08 89 23 00 0d 89 24 00 50 99 31  @..*...#...$.P.1
0000ffa0: 40 08 99 2a 40 10 89 31 00 04 89 2a 00 24 99 31  @..*@..1...*.$.1
0000ffb0: 40 08 99 24 40 03 99 28 50 00 99 2a 40 05 99 23  @..$@..(P..*@..#
0000ffc0: 40 03 99 28 50 05 89 31 00 08 89 2a 00 00 89 28  @..(P..1...*...(
0000ffd0: 00 03 89 23 00 05 89 28 00 08 89 24 00 53 99 2a  ...#...(...$.S.*
0000ffe0: 40 15 89 2a 00 30 99 24 40 03 99 2a 40 05 99 23  @..*.0.$@..*@..#
0000fff0: 40 10 89 2a 00 03 89 23 00 0d 89 24 00 58 99 2a  @..*...#...$.X.*
00010000: 40 13 89 2a 00 25 99 31 40 08 99 24 40 00 99 28  @..*.%.1@..$@..(
00010010: 50 03 99 2a 40 05 99 23 40 00 99 28 50 10 89 2a  P..*@..#@..(P..*
00010020: 00 01 89 31 00 02 89 23 00 0d 89 24 00 00 89 28  ...1...#...$...(
00010030: 00 08 89 28 00 50 99 2a 40 13 89 2a 00 2d 99 24  ...(.P.*@..*.-.$
00010040: 40 00 99 2a 40 10 99 23 40 03 89 2a 00 10 89 23  @..*@..#@..*...#
00010050: 00 05 89 24 00 58 99 2a 40 13 89 2a 00 28 99 31  ...$.X.*@..*.(.1
00010060: 40 05 99 24 40 00 99 2a 40 03 99 28 50 08 99 28  @..$@..*@..(P..(
00010070: 50 05 99 23 40 03 89 2a 00 00 89 31 00 05 89 28  P..#@..*...1...(
00010080: 00 08 89 28 00 03 89 23 00 05 89 24 00 58 99 2a  ...(...#...$.X.*
00010090: 40 13 89 2a 00 2d 99 24 40 03 99 2a 40 0d 99 23  @..*.-.$@..*@..#
000100a0: 40 08 89 2a 00 0b 89 23 00 05 89 24 00 58 99 2a  @..*...#...$.X.*
000100b0: 40 13 89 2a 00 25 99 31 40 08 99 24 40 00 99 28  @..*.%.1@..$@..(
000100c0: 50 00 99 2a 40 08 99 28 50 08 99 23 40 00 89 31  P..*@..(P..#@..1
000100d0: 00 03 89 2a 00 10 89 23 00 05 89 24 00 00 89 28  ...*...#...$...(
000100e0: 00 08 89 28 00 4b 99 2a 40 15 89 2a 00 30 99 24  ...(.K.*@..*.0.$
000100f0: 40 00 99 2a 40 10 99 23 40 03 89 2a 00 10 89 23  @..*@..#@..*...#
00010100: 00 05 89 24 00 58 99 28 50 00 99 2a 40 08 99 28  ...$.X.(P..*@..(
00010110: 50 0b 89 2a 00 01 89 28 00 07 89 28 00 1d 99 31  P..*...(...(...1
00010120: 40 08 99 24 40 00 99 2a 40 03 99 28 50 08 99 28  @..$@..*@..(P..(
00010130: 50 05 99 23 40 00 89 31 00 03 89 2a 00 05 89 28  P..#@..1...*...(
00010140: 00 08 89 28 00 03 89 23 00 05 89 24 00 18 99 2a  ...(...#...$...*
00010150: 40 13 89 2a 00 2d 99 28 50 00 99 2a 40 08 99 28  @..*.-.(P..*@..(
00010160: 50 0b 89 2a 00 05 89 28 00 08 89 28 00 20 99 24  P..*...(...(. .$
00010170: 40 03 99 28 50 00 99 2a 40 05 99 28 50 08 99 23  @..(P..*@..(P..#
00010180: 40 08 89 2a 00 03 89 28 00 08 89 23 00 05 89 28  @..*...(...#...(
00010190: 00 00 89 24 00 58 99 2a 40 01 99 28 50 07 99 28  ...$.X.*@..(P..(
000101a0: 50 0b 89 2a 00 01 89 28 00 0c 89 28 00 18 99 31  P..*...(...(...1
000101b0: 40 08 99 24 40 00 99 28 50 00 99 2a 40 08 99 28  @..$@..(P..*@..(
000101c0: 50 08 99 23 40 00 89 31 00 03 89 2a 00 08 89 28  P..#@..1...*...(
000101d0: 00 08 89 23 00 00 89 28 00 05 89 24 00 18 99 28  ...#...(...$...(
000101e0: 50 00 99 2a 40 08 99 28 50 0b 89 2a 00 05 89 28  P..*@..(P..*...(
000101f0: 00 0b 89 28 00 18 99 2a 40 05 99 28 50 0b 99 28  ...(...*@..(P..(
00010200: 50 05 89 2a 00 08 89 28 00 10 89 28 00 18 99 24  P..*...(...(...$
00010210: 40 00 99 2a 40 03 99 28 50 0d 99 23 40 00 99 28  @..*@..(P..#@..(
00010220: 50 03 89 2a 00 08 89 28 00 08 89 23 00 05 89 28  P..*...(...#...(
00010230: 00 00 89 24 00 50 99 31 40 08 99 2a 40 10 89 31  ...$.P.1@..*@..1
00010240: 00 03 89 2a 00 21 99 31 40 0c 99 24 40 00 99 2a  ...*.!.1@..$@..*
00010250: 40 03 99 28 50 08 99 28 50 05 99 23 40 00 89 31  @..(P..(P..#@..1
00010260: 00 03 89 2a 00 05 89 28 00 08 89 28 00 03 89 23  ...*...(...(...#
00010270: 00 05 89 24 00 58 99 2a 40 13 89 2a 00 2d 99 24  ...$.X.*@..*.-.$
00010280: 40 03 99 2a 40 0d 99 23 40 08 89 2a 00 0b 89 23  @..*@..#@..*...#
00010290: 00 05 89 24 00 50 99 31 40 08 99 2a 40 10 89 31  ...$.P.1@..*@..1
000102a0: 00 03 89 2a 00 25 99 31 40 08 99 24 40 00 99 28  ...*.%.1@..$@..(
000102b0: 50 00 99 2a 40 08 99 28 50 08 99 23 40 00 89 31  P..*@..(P..#@..1
000102c0: 00 03 89 2a 00 10 89 23 00 05 89 24 00 00 89 28  ...*...#...$...(
000102d0: 00 08 89 28 00 4b 99 2a 40 15 89 2a 00 30 99 24  ...(.K.*@..*.0.$
000102e0: 40 00 99 2a 40 10 99 23 40 03 89 2a 00 10 89 23  @..*@..#@..*...#
000102f0: 00 05 89 24 00 58 99 2a 40 13 89 2a 00 28 99 31  ...$.X.*@..*.(.1
00010300: 40 05 99 24 40 00 99 2a 40 03 99 28 50 08 99 28  @..$@..*@..(P..(
00010310: 50 05 99 23 40 00 89 31 00 03 89 2a 00 05 89 28  P..#@..1...*...(
00010320: 00 08 89 28 00 03 89 23 00 05 89 24 00 58 99 2a  ...(...#...$.X.*
00010330: 40 13 89 2a 00 2d 99 24 40 03 99 2a 40 0d 99 23  @..*.-.$@..*@..#
00010340: 40 08 89 2a 00 0b 89 23 00 05 89 24 00 58 99 2a  @..*...#...$.X.*
00010350: 40 13 89 2a 00 25 99 31 40 08 99 24 40 00 99 28  @..*.%.1@..$@..(
00010360: 50 00 99 2a 40 08 99 28 50 08 99 23 40 00 89 31  P..*@..(P..#@..1
00010370: 00 03 89 2a 00 10 89 23 00 05 89 24 00 00 89 28  ...*...#...$...(
00010380: 00 08 89 28 00 4b 99 2a 40 15 89 2a 00 30 99 24  ...(.K.*@..*.0.$
00010390: 40 00 99 2a 40 10 99 23 40 03 89 2a 00 10 89 23  @..*@..#@..*...#
000103a0: 00 05 89 24 00 58 99 2a 40 13 89 2a 00 25 99 31  ...$.X.*@..*.%.1
000103b0: 40 08 99 24 40 00 99 2a 40 03 99 28 50 08 99 28  @..$@..*@..(P..(
000103c0: 50 05 99 23 40 00 89 31 00 03 89 2a 00 05 89 28  P..#@..1...*...(
000103d0: 00 08 89 28 00 03 89 23 00 05 89 24 00 58 99 2a  ...(...#...$.X.*
000103e0: 40 13 89 2a 00 2d 99 24 40 03 99 2a 40 0d 99 23  @..*.-.$@..*@..#
000103f0: 40 08 89 2a 00 0b 89 23 00 05 89 24 00 58 99 2a  @..*...#...$.X.*
00010400: 40 13 89 2a 00 26 99 31 40 07 99 24 40 00 99 28  @..*.&.1@..$@..(
00010410: 50 00 99 2a 40 08 99 28 50 08 99 23 40 00 89 31  P..*@..(P..#@..1
00010420: 00 03 89 2a 00 10 89 23 00 05 89 24 00 00 89 28  ...*...#...$...(
00010430: 00 08 89 28 00 4b 99 2a 40 15 89 2a 00 30 99 24  ...(.K.*@..*.0.$
00010440: 40 00 99 2a 40 10 99 23 40 03 89 2a 00 10 89 23  @..*@..#@..*...#
00010450: 00 05 89 24 00 58 99 2a 40 13 89 2a 00 25 99 31  ...$.X.*@..*.%.1
00010460: 40 08 99 24 40 00 99 2a 40 03 99 28 50 08 99 28  @..$@..*@..(P..(
00010470: 50 05 99 23 40 00 89 31 00 03 89 2a 00 05 89 28  P..#@..1...*...(
00010480: 00 08 89 28 00 03 89 23 00 05 89 24 00 58 99 28  ...(...#...$.X.(
00010490: 50 00 99 2a 40 0b 99 28 50 08 89 2a 00 08 89 28  P..*@..(P..*...(
000104a0: 00 08 89 28 00 1d 99 24 40 00 99 28 50 03 99 2a  ...(...$@..(P..*
000104b0: 40 08 99 28 50 05 99 23 40 08 89 2a 00 00 89 28  @..(P..#@..*...(
000104c0: 00 0b 89 23 00 00 89 28 00 05 89 24 00 58 99 28  ...#...(...$.X.(
000104d0: 50 00 99 2a 40 0b 99 28 50 08 89 2a 00 00 89 28  P..*@..(P..*...(
000104e0: 00 10 89 28 00 10 99 31 40 0d 99 24 40 00 99 28  ...(...1@..$@..(
000104f0: 50 00 99 2a 40 08 99 28 50 08 99 23 40 00 89 31  P..*@..(P..#@..1
00010500: 00 03 89 2a 00 0d 89 28 00 03 89 23 00 05 89 28  ...*...(...#...(
00010510: 00 00 89 24 00 53 99 2a 40 15 89 2a 00 30 99 24  ...$.S.*@..*.0.$
00010520: 40 00 99 2a 40 10 99 23 40 03 89 2a 00 10 89 23  @..*@..#@..*...#
00010530: 00 05 89 24 00 4b 99 31 40 0d 99 2a 40 10 89 31  ...$.K.1@..*@..1
00010540: 00 03 89 2a 00 25 99 31 40 08 99 24 40 00 99 2a  ...*.%.1@..$@..*
00010550: 40 03 99 28 50 08 99 28 50 05 99 23 40 03 89 2a  @..(P..(P..#@..*
00010560: 00 00 89 31 00 05 89 28 00 08 89 28 00 03 89 23  ...1...(...(...#
00010570: 00 05 89 24 00 58 99 2a 40 13 89 2a 00 2d 99 24  ...$.X.*@..*.-.$
00010580: 40 03 99 2a 40 0d 99 23 40 08 89 2a 00 0b 89 23  @..*@..#@..*...#
00010590: 00 05 89 24 00 58 99 2a 40 13 89 2a 00 25 99 31  ...$.X.*@..*.%.1
000105a0: 40 08 99 24 40 00 99 28 50 00 99 2a 40 08 99 28  @..$@..(P..*@..(
000105b0: 50 08 99 23 40 00 89 31 00 03 89 2a 00 10 89 23  P..#@..1...*...#
000105c0: 00 05 89 24 00 00 89 28 00 08 89 28 00 4b 99 2a  ...$...(...(.K.*
000105d0: 40 15 89 2a 00 30 99 24 40 00 99 2a 40 10 99 23  @..*.0.$@..*@..#
000105e0: 40 03 89 2a 00 10 89 23 00 05 89 24 00 58 99 2a  @..*...#...$.X.*
000105f0: 40 13 89 2a 00 28 99 31 40 05 99 24 40 00 99 2a  @..*.(.1@..$@..*
00010600: 40 03 99 28 50 08 99 28 50 05 99 23 40 03 89 2a  @..(P..(P..#@..*
00010610: 00 05 89 28 00 00 89 31 00 08 89 28 00 03 89 23  ...(...1...(...#
00010620: 00 05 89 24 00 58 99 2a 40 13 89 2a 00 2d 99 24  ...$.X.*@..*.-.$
00010630: 40 03 99 2a 40 0d 99 23 40 08 89 2a 00 0b 89 23  @..*@..#@..*...#
00010640: 00 05 89 24 00 58 99 2a 40 13 89 2a 00 25 99 31  ...$.X.*@..*.%.1
00010650: 40 08 99 24 40 00 99 28 50 00 99 2a 40 08 99 28  @..$@..(P..*@..(
00010660: 50 08 99 23 40 00 89 31 00 03 89 2a 00 10 89 23  P..#@..1...*...#
00010670: 00 05 89 24 00 00 89 28 00 08 89 28 00 4b 99 2a  ...$...(...(.K.*
00010680: 40 15 89 2a 00 30 99 24 40 00 99 2a 40 10 99 23  @..*.0.$@..*@..#
00010690: 40 03 89 2a 00 10 89 23 00 05 89 24 00 50 99 31  @..*...#...$.P.1
000106a0: 40 08 99 2a 40 10 89 31 00 03 89 2a 00 25 99 31  @..*@..1...*.%.1
000106b0: 40 08 99 24 40 00 99 2a 40 03 99 28 50 08 99 28  @..$@..*@..(P..(
000106c0: 50 05 99 23 40 00 89 31 00 03 89 2a 00 05 89 28  P..#@..1...*...(
000106d0: 00 08 89 28 00 03 89 23 00 05 89 24 00 58 99 2a  ...(...#...$.X.*
000106e0: 40 13 89 2a 00 2d 99 24 40 03 99 2a 40 0d 99 23  @..*.-.$@..*@..#
000106f0: 40 08 89 2a 00 0b 89 23 00 05 89 24 00 50 99 31  @..*...#...$.P.1
00010700: 40 08 99 2a 40 10 89 31 00 03 89 2a 00 26 99 31  @..*@..1...*.&.1
00010710: 40 07 99 24 40 00 99 28 50 00 99 2a 40 08 99 28  @..$@..(P..*@..(
00010720: 50 08 99 23 40 00 89 31 00 03 89 2a 00 10 89 23  P..#@..1...*...#
00010730: 00 05 89 24 00 00 89 28 00 08 89 28 00 4b 99 2a  ...$...(...(.K.*
00010740: 40 15 89 2a 00 30 99 24 40 00 99 2a 40 03 99 28  @..*.0.$@..*@..(
00010750: 50 05 99 28 50 08 99 23 40 03 89 2a 00 08 89 28  P..(P..#@..*...(
00010760: 00 05 89 28 00 03 89 23 00 05 89 24 00 18 99 28  ...(...#...$...(
00010770: 50 08 99 28 50 0b 89 28 00 08 89 28 00 1d 99 31  P..(P..(...(...1
00010780: 40 08 99 28 50 00 99 2a 40 08 99 28 50 0b 89 2a  @..(P..*@..(P..*
00010790: 00 05 89 28 00 03 89 31 00 08 89 28 00 1d 99 24  ...(...1...(...$
000107a0: 40 00 99 2a 40 03 99 28 50 08 99 28 50 05 99 23  @..*@..(P..(P..#
000107b0: 40 03 89 2a 00 05 89 28 00 08 89 28 00 03 89 23  @..*...(...(...#
000107c0: 00 05 89 24 00 18 99 28 50 0b 99 28 50 08 89 28  ...$...(P..(P..(
000107d0: 00 0d 89 28 00 20 99 28 50 00 99 2a 40 0b 99 28  ...(. .(P..*@..(
000107e0: 50 08 89 2a 00 05 89 28 00 08 89 28 00 20 99 24  P..*...(...(. .$
000107f0: 40 03 99 28 50 00 99 2a 40 0d 99 23 40 03 99 28  @..(P..*@..#@..(
00010800: 50 05 89 2a 00 03 89 28 00 05 99 28 50 03 89 23  P..*...(...(P..#
00010810: 00 05 89 24 00 03 89 28 00 0d 89 28 00 08 99 28  ...$...(...(...(
00010820: 50 0b 99 28 50 08 89 28 00 0d 99 28 50 00 89 28  P..(P..(...(P..(
00010830: 00 13 89 28 00 0d 99 28 50 00 99 2a 40 0b 99 28  ...(...(P..*@..(
00010840: 50 08 89 2a 00 05 89 28 00 08 89 28 00 20 99 24  P..*...(...(. .$
00010850: 40 00 99 28 50 00 99 2a 40 0b 99 28 50 05 99 23  @..(P..*@..(P..#
00010860: 40 03 89 2a 00 05 89 28 00 0b 89 23 00 00 89 28  @..*...(...#...(
00010870: 00 05 89 24 00 18 99 28 50 0b 99 28 50 0d 89 28  ...$...(P..(P..(
00010880: 00 0b 89 28 00 18 99 2a 40 05 99 28 50 0b 99 28  ...(...*@..(P..(
00010890: 50 05 89 2a 00 08 89 28 00 10 89 28 00 18 99 24  P..*...(...(...$
000108a0: 40 00 99 2a 40 03 99 3b 40 05 99 23 40 0b 89 2a  @..*@..;@..#@..*
000108b0: 00 08 89 23 00 0d 89 24 00 03 89 3b 00 55 99 2a  ...#...$...;.U.*
000108c0: 40 13 89 2a 00 2d 99 24 40 00 99 2a 40 00 99 37  @..*.-.$@..*@..7
000108d0: 40 03 99 28 50 05 99 23 40 03 99 28 50 08 89 2a  @..(P..#@..(P..*
000108e0: 00 05 89 28 00 03 89 23 00 05 89 28 00 08 89 24  ...(...#...(...$
000108f0: 00 03 89 37 00 55 99 31 40 13 89 31 00 2d 99 24  ...7.U.1@..1.-.$
00010900: 40 08 99 23 40 00 99 31 40 13 89 23 00 05 89 31  @..#@..1@..#...1
00010910: 00 08 89 24 00 53 99 31 40 1d 89 31 00 20 99 31  ...$.S.1@..1. .1
00010920: 40 08 99 24 40 00 99 28 50 08 99 23 40 00 99 28  @..$@..(P..#@..(
00010930: 50 08 89 31 00 0b 89 23 00 0d 89 24 00 00 89 28  P..1...#...$...(
00010940: 00 08 89 28 00 50 99 2a 40 13 89 2a 00 2d 99 24  ...(.P.*@..*.-.$
00010950: 40 00 99 2a 40 08 99 23 40 0b 89 2a 00 08 89 23  @..*@..#@..*...#
00010960: 00 0d 89 24 00 50 99 31 40 18 89 31 00 30 99 24  ...$.P.1@..1.0.$
00010970: 40 00 99 31 40 03 99 28 50 05 99 23 40 03 99 28  @..1@..(P..#@..(
00010980: 50 0d 89 28 00 00 89 31 00 03 89 23 00 05 89 28  P..(...1...#...(
00010990: 00 08 89 24 00 53 99 2a 40 15 89 2a 00 30 99 24  ...$.S.*@..*.0.$
000109a0: 40 03 99 2a 40 05 99 23 40 10 89 2a 00 03 89 23  @..*@..#@..*...#
000109b0: 00 0d 89 24 00 58 99 2a 40 13 89 2a 00 2d 99 24  ...$.X.*@..*.-.$
000109c0: 40 00 99 28 50 08 99 23 40 00 99 28 50 00 99 31  @..(P..#@..(P..1
000109d0: 40 13 89 23 00 0d 89 24 00 00 89 31 00 00 89 28  @..#...$...1...(
000109e0: 00 08 89 28 00 50 99 2a 40 13 89 2a 00 2d 99 24  ...(.P.*@..*.-.$
000109f0: 40 00 99 2a 40 10 99 23 40 03 89 2a 00 10 89 23  @..*@..#@..*...#
00010a00: 00 05 89 24 00 58 99 2a 40 13 89 2a 00 2d 99 24  ...$.X.*@..*.-.$
00010a10: 40 03 99 28 50 00 99 31 40 08 99 28 50 05 99 23  @..(P..1@..(P..#
00010a20: 40 08 89 28 00 03 89 31 00 05 89 28 00 03 89 23  @..(...1...(...#
00010a30: 00 05 89 24 00 58 99 2a 40 13 89 2a 00 2d 99 24  ...$.X.*@..*.-.$
00010a40: 40 03 99 2a 40 0d 99 23 40 08 89 2a 00 0b 89 23  @..*@..#@..*...#
00010a50: 00 05 89 24 00 58 99 2a 40 13 89 2a 00 2d 99 24  ...$.X.*@..*.-.$
00010a60: 40 00 99 28 50 00 99 31 40 08 99 28 50 08 99 23  @..(P..1@..(P..#
00010a70: 40 0b 89 31 00 08 89 23 00 05 89 24 00 00 89 28  @..1...#...$...(
00010a80: 00 08 89 28 00 4b 99 2a 40 15 89 2a 00 30 99 24  ...(.K.*@..*.0.$
00010a90: 40 00 99 2a 40 10 99 23 40 03 89 2a 00 10 89 23  @..*@..#@..*...#
00010aa0: 00 05 89 24 00 58 99 28 50 00 99 2a 40 08 99 28  ...$.X.(P..*@..(
00010ab0: 50 0b 89 2a 00 01 89 28 00 07 89 28 00 1d 99 31  P..*...(...(...1
00010ac0: 40 08 99 24 40 00 99 2a 40 03 99 28 50 08 99 28  @..$@..*@..(P..(
00010ad0: 50 05 99 23 40 00 89 31 00 03 89 2a 00 05 89 28  P..#@..1...*...(
00010ae0: 00 08 89 28 00 03 89 23 00 05 89 24 00 18 99 2a  ...(...#...$...*
00010af0: 40 13 89 2a 00 2d 99 28 50 00 99 2a 40 08 99 28  @..*.-.(P..*@..(
00010b00: 50 0b 89 2a 00 05 89 28 00 08 89 28 00 20 99 24  P..*...(...(. .$
00010b10: 40 03 99 28 50 00 99 2a 40 0d 99 23 40 08 89 2a  @..(P..*@..#@..*
00010b20: 00 03 89 28 00 08 89 23 00 05 89 24 00 58 99 2a  ...(...#...$.X.*
00010b30: 40 01 99 28 50 07 99 28 50 0b 89 2a 00 01 89 28  @..(P..(P..*...(
00010b40: 00 0c 89 28 00 20 99 24 40 00 99 28 50 00 99 31  ...(. .$@..(P..1
00010b50: 40 08 99 28 50 08 99 23 40 08 89 31 00 0b 89 23  @..(P..#@..1...#
00010b60: 00 05 89 24 00 00 89 28 00 08 89 28 00 10 99 2a  ...$...(...(...*
00010b70: 40 13 89 2a 00 28 99 2a 40 15 89 2a 00 30 99 24  @..*.(.*@..*.0.$
00010b80: 40 00 99 2a 40 03 99 28 50 0d 99 23 40 00 99 28  @..*@..(P..#@..(
00010b90: 50 03 89 2a 00 08 89 28 00 08 89 23 00 05 89 28  P..*...(...#...(
00010ba0: 00 00 89 24 00 18 99 28 50 18 89 28 00 20 99 31  ...$...(P..(. .1
00010bb0: 40 18 89 31 00 2b 99 31 40 05 99 24 40 03 99 28  @..1.+.1@..$@..(
00010bc0: 50 08 99 28 50 05 99 23 40 08 89 28 00 00 89 31  P..(P..#@..(...1
00010bd0: 00 08 89 28 00 03 89 23 00 05 89 24 00 10 99 28  ...(...#...$...(
00010be0: 50 20 89 28 00 28 99 2a 40 13 89 2a 00 2d 99 24  P .(.(.*@..*.-.$
00010bf0: 40 03 99 2a 40 0d 99 23 40 08 89 2a 00 0b 89 23  @..*@..#@..*...#
00010c00: 00 05 89 24 00 50 99 31 40 18 89 31 00 28 99 31  ...$.P.1@..1.(.1
00010c10: 40 08 99 24 40 00 99 28 50 08 99 28 50 08 99 23  @..$@..(P..(P..#
00010c20: 40 00 89 31 00 13 89 23 00 05 89 24 00 00 89 28  @..1...#...$...(
00010c30: 00 08 89 28 00 4b 99 2a 40 15 89 2a 00 30 99 24  ...(.K.*@..*.0.$
00010c40: 40 00 99 2a 40 10 99 23 40 03 89 2a 00 10 89 23  @..*@..#@..*...#
00010c50: 00 05 89 24 00 58 99 2a 40 13 89 2a 00 28 99 31  ...$.X.*@..*.(.1
00010c60: 40 05 99 24 40 03 99 28 50 08 99 28 50 05 99 23  @..$@..(P..(P..#
00010c70: 40 00 89 31 00 08 89 28 00 08 89 28 00 03 89 23  @..1...(...(...#
00010c80: 00 05 89 24 00 58 99 2a 40 13 89 2a 00 2d 99 24  ...$.X.*@..*.-.$
00010c90: 40 03 99 2a 40 0d 99 23 40 08 89 2a 00 0b 89 23  @..*@..#@..*...#
00010ca0: 00 05 89 24 00 58 99 2a 40 13 89 2a 00 25 99 31  ...$.X.*@..*.%.1
00010cb0: 40 08 99 24 40 00 99 28 50 08 99 28 50 08 99 23  @..$@..(P..(P..#
00010cc0: 40 00 89 31 00 13 89 23 00 05 89 24 00 00 89 28  @..1...#...$...(
00010cd0: 00 08 89 28 00 4b 99 2a 40 15 89 2a 00 30 99 24  ...(.K.*@..*.0.$
00010ce0: 40 00 99 2a 40 10 99 23 40 03 89 2a 00 10 89 23  @..*@..#@..*...#
00010cf0: 00 05 89 24 00 58 99 2a 40 13 89 2a 00 25 99 31  ...$.X.*@..*.%.1
00010d00: 40 08 99 24 40 03 99 28 50 08 99 28 50 05 99 23  @..$@..(P..(P..#
00010d10: 40 00 89 31 00 08 89 28 00 08 89 28 00 03 89 23  @..1...(...(...#
00010d20: 00 05 89 24 00 58 99 2a 40 13 89 2a 00 2d 99 24  ...$.X.*@..*.-.$
00010d30: 40 03 99 2a 40 0d 99 23 40 08 89 2a 00 0b 89 23  @..*@..#@..*...#
00010d40: 00 05 89 24 00 58 99 2a 40 13 89 2a 00 26 99 31  ...$.X.*@..*.&.1
00010d50: 40 07 99 24 40 00 99 28 50 08 99 28 50 08 99 23  @..$@..(P..(P..#
00010d60: 40 00 89 31 00 13 89 23 00 05 89 24 00 00 89 28  @..1...#...$...(
00010d70: 00 08 89 28 00 10 99 28 50 28 89 28 00 13 99 2a  ...(...(P(.(...*
00010d80: 40 15 89 2a 00 30 99 24 40 00 99 2a 40 10 99 23  @..*.0.$@..*@..#
00010d90: 40 03 89 2a 00 10 89 23 00 05 89 24 00 58 99 2a  @..*...#...$.X.*
00010da0: 40 13 89 2a 00 25 99 31 40 08 99 24 40 03 99 28  @..*.%.1@..$@..(
00010db0: 50 08 99 28 50 05 99 23 40 00 89 31 00 08 89 28  P..(P..#@..1...(
00010dc0: 00 08 89 28 00 03 89 23 00 05 89 24 00 58 99 2a  ...(...#...$.X.*
00010dd0: 40 13 89 2a 00 2d 99 24 40 03 99 2a 40 0d 99 23  @..*.-.$@..*@..#
00010de0: 40 08 89 2a 00 0b 89 23 00 05 89 24 00 58 99 2a  @..*...#...$.X.*
00010df0: 40 13 89 2a 00 20 99 31 40 0d 99 24 40 00 99 28  @..*. .1@..$@..(
00010e00: 50 08 99 28 50 08 99 23 40 00 89 31 00 13 89 23  P..(P..#@..1...#
00010e10: 00 05 89 24 00 00 89 28 00 08 89 28 00 10 99 28  ...$...(...(...(
00010e20: 50 28 89 28 00 13 99 2a 40 15 89 2a 00 30 99 24  P(.(...*@..*.0.$
00010e30: 40 00 99 2a 40 10 99 23 40 03 89 2a 00 10 89 23  @..*@..#@..*...#
00010e40: 00 05 89 24 00 4b 99 31 40 1d 89 31 00 28 99 31  ...$.K.1@..1.(.1
00010e50: 40 08 99 24 40 03 99 28 50 08 99 28 50 05 99 23  @..$@..(P..(P..#
00010e60: 40 03 89 31 00 05 89 28 00 08 89 28 00 03 89 23  @..1...(...(...#
00010e70: 00 05 89 24 00 58 99 2a 40 13 89 2a 00 2d 99 24  ...$.X.*@..*.-.$
00010e80: 40 03 99 2a 40 0d 99 23 40 08 89 2a 00 0b 89 23  @..*@..#@..*...#
00010e90: 00 05 89 24 00 58 99 2a 40 13 89 2a 00 25 99 31  ...$.X.*@..*.%.1
00010ea0: 40 08 99 24 40 00 99 28 50 08 99 28 50 08 99 23  @..$@..(P..(P..#
00010eb0: 40 00 89 31 00 13 89 23 00 05 89 24 00 00 89 28  @..1...#...$...(
00010ec0: 00 08 89 28 00 4b 99 2a 40 15 89 2a 00 30 99 24  ...(.K.*@..*.0.$
00010ed0: 40 00 99 2a 40 10 99 23 40 03 89 2a 00 10 89 23  @..*@..#@..*...#
00010ee0: 00 05 89 24 00 58 99 2a 40 13 89 2a 00 28 99 31  ...$.X.*@..*.(.1
00010ef0: 40 05 99 24 40 03 99 28 50 08 99 28 50 05 99 23  @..$@..(P..(P..#
00010f00: 40 08 89 28 00 00 89 31 00 08 89 28 00 03 89 23  @..(...1...(...#
00010f10: 00 05 89 24 00 58 99 2a 40 13 89 2a 00 2d 99 24  ...$.X.*@..*.-.$
00010f20: 40 03 99 2a 40 0d 99 23 40 08 89 2a 00 0b 89 23  @..*@..#@..*...#
00010f30: 00 05 89 24 00 58 99 2a 40 13 89 2a 00 25 99 31  ...$.X.*@..*.%.1
00010f40: 40 08 99 24 40 00 99 28 50 08 99 28 50 08 99 23  @..$@..(P..(P..#
00010f50: 40 00 89 31 00 13 89 23 00 05 89 24 00 00 89 28  @..1...#...$...(
00010f60: 00 08 89 28 00 10 99 28 50 30 89 28 00 0b 99 2a  ...(...(P0.(...*
00010f70: 40 15 89 2a 00 30 99 24 40 00 99 2a 40 10 99 23  @..*.0.$@..*@..#
00010f80: 40 03 89 2a 00 10 89 23 00 05 89 24 00 18 99 31  @..*...#...$...1
00010f90: 40 13 89 31 00 28 99 31 40 15 89 31 00 2b 99 31  @..1.(.1@..1.+.1
00010fa0: 40 05 99 24 40 03 99 28 50 08 99 28 50 05 99 23  @..$@..(P..(P..#
00010fb0: 40 00 89 31 00 08 89 28 00 08 89 28 00 03 99 2a  @..1...(...(...*
00010fc0: 40 00 89 23 00 05 89 24 00 10 89 2a 00 48 99 2a  @..#...$...*.H.*
00010fd0: 40 13 89 2a 00 2d 99 24 40 03 99 2a 40 0d 99 23  @..*.-.$@..*@..#
00010fe0: 40 08 89 2a 00 0b 89 23 00 05 89 24 00 50 99 31  @..*...#...$.P.1
00010ff0: 40 18 89 31 00 29 99 31 40 07 99 24 40 00 99 28  @..1.).1@..$@..(
00011000: 50 08 99 28 50 08 99 23 40 00 89 31 00 13 89 23  P..(P..#@..1...#
00011010: 00 05 89 24 00 00 89 28 00 08 89 28 00 4b 99 2a  ...$...(...(.K.*
00011020: 40 15 89 2a 00 30 99 24 40 00 99 2a 40 08 99 26  @..*.0.$@..*@..&
00011030: 40 08 99 23 40 03 89 2a 00 08 89 26 00 08 89 23  @..#@..*...&...#
00011040: 00 05 89 24 00 50 99 31 40 08 99 28 50 00 99 2a  ...$.P.1@..(P..*
00011050: 40 08 99 26 40 00 99 28 50 0b 89 2a 00 05 89 28  @..&@..(P..*...(
00011060: 00 03 89 31 00 00 89 26 00 08 89 28 00 1d 99 24  ...1...&...(...$
00011070: 40 00 99 2a 40 03 99 28 50 06 99 26 40 02 99 28  @..*@..(P..&@..(
00011080: 50 05 99 23 40 03 89 2a 00 05 89 28 00 03 89 26  P..#@..*...(...&
00011090: 00 05 89 28 00 03 89 23 00 05 89 24 00 50 99 26  ...(...#...$.P.&
000110a0: 40 08 99 28 50 00 99 2a 40 0b 99 28 50 01 89 26  @..(P..*@..(P..&
000110b0: 00 07 89 28 00 00 89 2a 00 05 89 28 00 24 99 26  ...(...*...(.$.&
000110c0: 40 04 99 24 40 03 99 28 50 00 99 2a 40 0d 99 23  @..$@..(P..*@..#
000110d0: 40 03 99 28 50 00 89 26 00 05 89 2a 00 03 89 28  @..(P..&...*...(
000110e0: 00 05 89 28 00 03 89 23 00 05 89 24 00 58 99 28  ...(...#...$.X.(
000110f0: 50 00 99 2a 40 08 99 26 40 03 99 28 50 06 89 28  P..*@..&@..(P..(
00011100: 00 02 89 2a 00 08 89 26 00 06 89 28 00 1f 99 24  ...*...&...(...$
00011110: 40 00 99 28 50 00 99 2a 40 08 99 28 50 03 99 26  @..(P..*@..(P..&
00011120: 40 05 99 23 40 03 89 2a 00 05 89 28 00 08 89 26  @..#@..*...(...&
00011130: 00 03 89 23 00 05 89 24 00 08 89 28 00 10 99 28  ...#...$...(...(
00011140: 50 01 99 26 40 02 99 28 50 0e 89 26 00 02 89 28  P..&@..(P..&...(
00011150: 00 00 89 28 00 25 99 26 40 03 99 2a 40 05 99 28  ...(.%.&@..*@..(
00011160: 50 08 89 26 00 01 99 28 50 07 89 2a 00 08 89 28  P..&...(P..*...(
00011170: 00 00 89 28 00 20 99 28 50 08 99 24 40 00 99 2a  ...(. .(P..$@..*
00011180: 40 00 89 28 00 08 99 23 40 0b 89 2a 00 08 89 23  @..(...#@..*...#
00011190: 00 0d 89 24 00 58 99 2a 40 13 89 2a 00 28 99 31  ...$.X.*@..*.(.1
000111a0: 40 05 99 24 40 00 99 2a 40 03 99 28 50 05 99 23  @..$@..*@..(P..#
000111b0: 40 03 99 28 50 08 89 2a 00 00 89 31 00 05 89 28  @..(P..*...1...(
000111c0: 00 03 89 23 00 05 89 28 00 08 89 24 00 58 99 2a  ...#...(...$.X.*
000111d0: 40 13 89 2a 00 2d 99 24 40 03 99 2a 40 05 99 23  @..*.-.$@..*@..#
000111e0: 40 10 89 2a 00 03 89 23 00 0d 89 24 00 58 99 2a  @..*...#...$.X.*
000111f0: 40 13 89 2a 00 25 99 31 40 08 99 24 40 00 99 28  @..*.%.1@..$@..(
00011200: 50 00 99 2a 40 08 99 23 40 00 99 28 50 08 89 31  P..*@..#@..(P..1
00011210: 00 03 89 2a 00 08 89 23 00 0d 89 24 00 00 89 28  ...*...#...$...(
00011220: 00 08 89 28 00 50 99 2a 40 13 89 2a 00 2d 99 24  ...(.P.*@..*.-.$
00011230: 40 00 99 2a 40 08 99 23 40 0b 89 2a 00 08 89 23  @..*@..#@..*...#
00011240: 00 0d 89 24 00 50 99 31 40 08 99 2a 40 10 89 31  ...$.P.1@..*@..1
00011250: 00 04 89 2a 00 24 99 31 40 08 99 24 40 03 99 28  ...*.$.1@..$@..(
00011260: 50 00 99 2a 40 05 99 23 40 03 99 28 50 05 89 31  P..*@..#@..(P..1
00011270: 00 08 89 2a 00 00 89 28 00 03 89 23 00 05 89 28  ...*...(...#...(
00011280: 00 08 89 24 00 53 99 2a 40 15 89 2a 00 30 99 24  ...$.S.*@..*.0.$
00011290: 40 03 99 2a 40 05 99 23 40 10 89 2a 00 03 89 23  @..*@..#@..*...#
000112a0: 00 0d 89 24 00 58 99 2a 40 13 89 2a 00 25 99 31  ...$.X.*@..*.%.1
000112b0: 40 08 99 24 40 00 99 28 50 03 99 2a 40 05 99 23  @..$@..(P..*@..#
000112c0: 40 00 99 28 50 10 89 2a 00 01 89 31 00 02 89 23  @..(P..*...1...#
000112d0: 00 0d 89 24 00 00 89 28 00 08 89 28 00 50 99 2a  ...$...(...(.P.*
000112e0: 40 13 89 2a 00 2d 99 24 40 00 99 2a 40 10 99 23  @..*.-.$@..*@..#
000112f0: 40 03 89 2a 00 10 89 23 00 05 89 24 00 58 99 2a  @..*...#...$.X.*
00011300: 40 13 89 2a 00 28 99 31 40 05 99 24 40 00 99 2a  @..*.(.1@..$@..*
00011310: 40 03 99 28 50 08 99 28 50 05 99 23 40 03 89 2a  @..(P..(P..#@..*
00011320: 00 00 89 31 00 05 89 28 00 08 89 28 00 03 89 23  ...1...(...(...#
00011330: 00 05 89 24 00 58 99 2a 40 13 89 2a 00 2d 99 24  ...$.X.*@..*.-.$
00011340: 40 03 99 2a 40 0d 99 23 40 08 89 2a 00 0b 89 23  @..*@..#@..*...#
00011350: 00 05 89 24 00 58 99 2a 40 13 89 2a 00 25 99 31  ...$.X.*@..*.%.1
00011360: 40 08 99 24 40 00 99 28 50 00 99 2a 40 08 99 28  @..$@..(P..*@..(
00011370: 50 08 99 23 40 00 89 31 00 03 89 2a 00 10 89 23  P..#@..1...*...#
00011380: 00 05 89 24 00 00 89 28 00 08 89 28 00 4b 99 2a  ...$...(...(.K.*
00011390: 40 15 89 2a 00 30 99 24 40 00 99 2a 40 10 99 23  @..*.0.$@..*@..#
000113a0: 40 03 89 2a 00 10 89 23 00 05 89 24 00 58 99 28  @..*...#...$.X.(
000113b0: 50 00 99 2a 40 08 99 28 50 0b 89 2a 00 01 89 28  P..*@..(P..*...(
000113c0: 00 07 89 28 00 1d 99 31 40 08 99 24 40 00 99 2a  ...(...1@..$@..*
000113d0: 40 03 99 28 50 08 99 28 50 05 99 23 40 00 89 31  @..(P..(P..#@..1
000113e0: 00 03 89 2a 00 05 89 28 00 08 89 28 00 03 89 23  ...*...(...(...#
000113f0: 00 05 89 24 00 18 99 2a 40 13 89 2a 00 2d 99 28  ...$...*@..*.-.(
00011400: 50 00 99 2a 40 08 99 28 50 0b 89 2a 00 05 89 28  P..*@..(P..*...(
00011410: 00 08 89 28 00 20 99 24 40 03 99 28 50 00 99 2a  ...(. .$@..(P..*
00011420: 40 05 99 28 50 08 99 23 40 08 89 2a 00 03 89 28  @..(P..#@..*...(
00011430: 00 08 89 23 00 05 89 28 00 00 89 24 00 58 99 2a  ...#...(...$.X.*
00011440: 40 01 99 28 50 07 99 28 50 0b 89 2a 00 01 89 28  @..(P..(P..*...(
00011450: 00 0c 89 28 00 18 99 31 40 08 99 24 40 00 99 28  ...(...1@..$@..(
00011460: 50 00 99 2a 40 08 99 28 50 08 99 23 40 00 89 31  P..*@..(P..#@..1
00011470: 00 03 89 2a 00 08 89 28 00 08 89 23 00 00 89 28  ...*...(...#...(
00011480: 00 05 89 24 00 18 99 28 50 00 99 2a 40 08 99 28  ...$...(P..*@..(
00011490: 50 0b 89 2a 00 05 89 28 00 0b 89 28 00 18 99 2a  P..*...(...(...*
000114a0: 40 05 99 28 50 0b 99 28 50 05 89 2a 00 08 89 28  @..(P..(P..*...(
000114b0: 00 10 89 28 00 18 99 24 40 00 99 2a 40 03 99 28  ...(...$@..*@..(
000114c0: 50 0d 99 23 40 00 99 28 50 03 89 2a 00 08 89 28  P..#@..(P..*...(
000114d0: 00 08 89 23 00 05 89 28 00 00 89 24 00 50 99 31  ...#...(...$.P.1
000114e0: 40 08 99 2a 40 10 89 31 00 03 89 2a 00 21 99 31  @..*@..1...*.!.1
000114f0: 40 0c 99 24 40 00 99 2a 40 03 99 28 50 08 99 28  @..$@..*@..(P..(
00011500: 50 05 99 23 40 00 89 31 00 03 89 2a 00 05 89 28  P..#@..1...*...(
00011510: 00 08 89 28 00 03 89 23 00 05 89 24 00 58 99 2a  ...(...#...$.X.*
00011520: 40 13 89 2a 00 2d 99 24 40 03 99 2a 40 0d 99 23  @..*.-.$@..*@..#
00011530: 40 08 89 2a 00 0b 89 23 00 05 89 24 00 50 99 31  @..*...#...$.P.1
00011540: 40 08 99 2a 40 10 89 31 00 03 89 2a 00 25 99 31  @..*@..1...*.%.1
00011550: 40 08 99 24 40 00 99 28 50 00 99 2a 40 08 99 28  @..$@..(P..*@..(
00011560: 50 08 99 23 40 00 89 31 00 03 89 2a 00 10 89 23  P..#@..1...*...#
00011570: 00 05 89 24 00 00 89 28 00 08 89 28 00 4b 99 2a  ...$...(...(.K.*
00011580: 40 15 89 2a 00 30 99 24 40 00 99 2a 40 10 99 23  @..*.0.$@..*@..#
00011590: 40 03 89 2a 00 10 89 23 00 05 89 24 00 58 99 2a  @..*...#...$.X.*
000115a0: 40 13 89 2a 00 28 99 31 40 05 99 24 40 00 99 2a  @..*.(.1@..$@..*
000115b0: 40 03 99 28 50 08 99 28 50 05 99 23 40 00 89 31  @..(P..(P..#@..1
000115c0: 00 03 89 2a 00 05 89 28 00 08 89 28 00 03 89 23  ...*...(...(...#
000115d0: 00 05 89 24 00 58 99 2a 40 13 89 2a 00 2d 99 24  ...$.X.*@..*.-.$
000115e0: 40 03 99 2a 40 0d 99 23 40 08 89 2a 00 0b 89 23  @..*@..#@..*...#
000115f0: 00 05 89 24 00 58 99 2a 40 13 89 2a 00 25 99 31  ...$.X.*@..*.%.1
00011600: 40 08 99 24 40 00 99 28 50 00 99 2a 40 08 99 28  @..$@..(P..*@..(
00011610: 50 08 99 23 40 00 89 31 00 03 89 2a 00 10 89 23  P..#@..1...*...#
00011620: 00 05 89 24 00 00 89 28 00 08 89 28 00 4b 99 2a  ...$...(...(.K.*
00011630: 40 15 89 2a 00 30 99 24 40 00 99 2a 40 10 99 23  @..*.0.$@..*@..#
00011640: 40 03 89 2a 00 10 89 23 00 05 89 24 00 58 99 2a  @..*...#...$.X.*
00011650: 40 13 89 2a 00 25 99 31 40 08 99 24 40 00 99 2a  @..*.%.1@..$@..*
00011660: 40 03 99 28 50 08 99 28 50 05 99 23 40 00 89 31  @..(P..(P..#@..1
00011670: 00 03 89 2a 00 05 89 28 00 08 89 28 00 03 89 23  ...*...(...(...#
00011680: 00 05 89 24 00 58 99 2a 40 13 89 2a 00 2d 99 24  ...$.X.*@..*.-.$
00011690: 40 03 99 2a 40 0d 99 23 40 08 89 2a 00 0b 89 23  @..*@..#@..*...#
000116a0: 00 05 89 24 00 58 99 2a 40 13 89 2a 00 26 99 31  ...$.X.*@..*.&.1
000116b0: 40 07 99 24 40 00 99 28 50 00 99 2a 40 08 99 28  @..$@..(P..*@..(
000116c0: 50 08 99 23 40 00 89 31 00 03 89 2a 00 10 89 23  P..#@..1...*...#
000116d0: 00 05 89 24 00 00 89 28 00 08 89 28 00 4b 99 2a  ...$...(...(.K.*
000116e0: 40 15 89 2a 00 30 99 24 40 00 99 2a 40 10 99 23  @..*.0.$@..*@..#
000116f0: 40 03 89 2a 00 10 89 23 00 05 89 24 00 58 99 2a  @..*...#...$.X.*
00011700: 40 13 89 2a 00 25 99 31 40 08 99 24 40 00 99 2a  @..*.%.1@..$@..*
00011710: 40 03 99 28 50 08 99 28 50 05 99 23 40 00 89 31  @..(P..(P..#@..1
00011720: 00 03 89 2a 00 05 89 28 00 08 89 28 00 03 89 23  ...*...(...(...#
00011730: 00 05 89 24 00 58 99 28 50 00 99 2a 40 0b 99 28  ...$.X.(P..*@..(
00011740: 50 08 89 2a 00 08 89 28 00 08 89 28 00 1d 99 24  P..*...(...(...$
00011750: 40 00 99 28 50 03 99 2a 40 08 99 28 50 05 99 23  @..(P..*@..(P..#
00011760: 40 08 89 2a 00 00 89 28 00 0b 89 23 00 00 89 28  @..*...(...#...(
00011770: 00 05 89 24 00 58 99 28 50 00 99 2a 40 0b 99 28  ...$.X.(P..*@..(
00011780: 50 08 89 2a 00 00 89 28 00 10 89 28 00 10 99 31  P..*...(...(...1
00011790: 40 0d 99 24 40 00 99 28 50 00 99 2a 40 08 99 28  @..$@..(P..*@..(
000117a0: 50 08 99 23 40 00 89 31 00 03 89 2a 00 0d 89 28  P..#@..1...*...(
000117b0: 00 03 89 23 00 05 89 28 00 00 89 24 00 53 99 2a  ...#...(...$.S.*
000117c0: 40 15 89 2a 00 30 99 24 40 00 99 2a 40 10 99 23  @..*.0.$@..*@..#
000117d0: 40 03 89 2a 00 10 89 23 00 05 89 24 00 4b 99 31  @..*...#...$.K.1
000117e0: 40 0d 99 2a 40 10 89 31 00 03 89 2a 00 25 99 31  @..*@..1...*.%.1
000117f0: 40 08 99 24 40 00 99 2a 40 03 99 28 50 08 99 28  @..$@..*@..(P..(
00011800: 50 05 99 23 40 03 89 2a 00 00 89 31 00 05 89 28  P..#@..*...1...(
00011810: 00 08 89 28 00 03 89 23 00 05 89 24 00 58 99 2a  ...(...#...$.X.*
00011820: 40 13 89 2a 00 2d 99 24 40 03 99 2a 40 0d 99 23  @..*.-.$@..*@..#
00011830: 40 08 89 2a 00 0b 89 23 00 05 89 24 00 58 99 2a  @..*...#...$.X.*
00011840: 40 13 89 2a 00 25 99 31 40 08 99 24 40 00 99 28  @..*.%.1@..$@..(
00011850: 50 00 99 2a 40 08 99 28 50 08 99 23 40 00 89 31  P..*@..(P..#@..1
00011860: 00 03 89 2a 00 10 89 23 00 05 89 24 00 00 89 28  ...*...#...$...(
00011870: 00 08 89 28 00 4b 99 2a 40 15 89 2a 00 30 99 24  ...(.K.*@..*.0.$
00011880: 40 00 99 2a 40 10 99 23 40 03 89 2a 00 10 89 23  @..*@..#@..*...#
00011890: 00 05 89 24 00 58 99 2a 40 13 89 2a 00 28 99 31  ...$.X.*@..*.(.1
000118a0: 40 05 99 24 40 00 99 2a 40 03 99 28 50 08 99 28  @..$@..*@..(P..(
000118b0: 50 05 99 23 40 03 89 2a 00 05 89 28 00 00 89 31  P..#@..*...(...1
000118c0: 00 08 89 28 00 03 89 23 00 05 89 24 00 58 99 2a  ...(...#...$.X.*
000118d0: 40 13 89 2a 00 2d 99 24 40 03 99 2a 40 0d 99 23  @..*.-.$@..*@..#
000118e0: 40 08 89 2a 00 0b 89 23 00 05 89 24 00 58 99 2a  @..*...#...$.X.*
000118f0: 40 13 89 2a 00 25 99 31 40 08 99 24 40 00 99 28  @..*.%.1@..$@..(
00011900: 50 00 99 2a 40 08 99 28 50 08 99 23 40 00 89 31  P..*@..(P..#@..1
00011910: 00 03 89 2a 00 10 89 23 00 05 89 24 00 00 89 28  ...*...#...$...(
00011920: 00 08 89 28 00 4b 99 2a 40 15 89 2a 00 30 99 24  ...(.K.*@..*.0.$
00011930: 40 00 99 2a 40 10 99 23 40 03 89 2a 00 10 89 23  @..*@..#@..*...#
00011940: 00 05 89 24 00 50 99 31 40 08 99 2a 40 10 89 31  ...$.P.1@..*@..1
00011950: 00 03 89 2a 00 25 99 31 40 08 99 24 40 00 99 2a  ...*.%.1@..$@..*
00011960: 40 03 99 28 50 08 99 28 50 05 99 23 40 00 89 31  @..(P..(P..#@..1
00011970: 00 03 89 2a 00 05 89 28 00 08 89 28 00 03 89 23  ...*...(...(...#
00011980: 00 05 89 24 00 58 99 2a 40 13 89 2a 00 2d 99 24  ...$.X.*@..*.-.$
00011990: 40 03 99 2a 40 0d 99 23 40 08 89 2a 00 0b 89 23  @..*@..#@..*...#
000119a0: 00 05 89 24 00 50 99 31 40 08 99 2a 40 10 89 31  ...$.P.1@..*@..1
000119b0: 00 03 89 2a 00 26 99 31 40 07 99 24 40 00 99 28  ...*.&.1@..$@..(
000119c0: 50 00 99 2a 40 08 99 28 50 08 99 23 40 00 89 31  P..*@..(P..#@..1
000119d0: 00 03 89 2a 00 10 89 23 00 05 89 24 00 00 89 28  ...*...#...$...(
000119e0: 00 08 89 28 00 4b 99 2a 40 15 89 2a 00 30 99 24  ...(.K.*@..*.0.$
000119f0: 40 00 99 2a 40 03 99 28 50 05 99 28 50 08 99 23  @..*@..(P..(P..#
00011a00: 40 03 89 2a 00 08 89 28 00 05 89 28 00 03 89 23  @..*...(...(...#
00011a10: 00 05 89 24 00 18 99 28 50 08 99 28 50 0b 89 28  ...$...(P..(P..(
00011a20: 00 08 89 28 00 1d 99 31 40 08 99 28 50 00 99 2a  ...(...1@..(P..*
00011a30: 40 08 99 28 50 0b 89 2a 00 05 89 28 00 03 89 31  @..(P..*...(...1
00011a40: 00 08 89 28 00 1d 99 24 40 00 99 2a 40 03 99 28  ...(...$@..*@..(
00011a50: 50 08 99 28 50 05 99 23 40 03 89 2a 00 05 89 28  P..(P..#@..*...(
00011a60: 00 08 89 28 00 03 89 23 00 05 89 24 00 18 99 28  ...(...#...$...(
00011a70: 50 0b 99 28 50 08 89 28 00 0d 89 28 00 20 99 28  P..(P..(...(. .(
00011a80: 50 00 99 2a 40 0b 99 28 50 08 89 2a 00 05 89 28  P..*@..(P..*...(
00011a90: 00 08 89 28 00 20 99 24 40 03 99 28 50 00 99 2a  ...(. .$@..(P..*
00011aa0: 40 0d 99 23 40 03 99 28 50 05 89 2a 00 03 89 28  @..#@..(P..*...(
00011ab0: 00 05 99 28 50 03 89 23 00 05 89 24 00 03 89 28  ...(P..#...$...(
00011ac0: 00 0d 89 28 00 08 99 28 50 0b 99 28 50 08 89 28  ...(...(P..(P..(
00011ad0: 00 0d 99 28 50 00 89 28 00 13 89 28 00 0d 99 28  ...(P..(...(...(
00011ae0: 50 00 99 2a 40 0b 99 28 50 08 89 2a 00 05 89 28  P..*@..(P..*...(
00011af0: 00 08 89 28 00 20 99 24 40 00 99 28 50 00 99 2a  ...(. .$@..(P..*
00011b00: 40 0b 99 28 50 05 99 23 40 03 89 2a 00 05 89 28  @..(P..#@..*...(
00011b10: 00 0b 89 23 00 00 89 28 00 05 89 24 00 18 99 28  ...#...(...$...(
00011b20: 50 0b 99 28 50 0d 89 28 00 0b 89 28 00 18 99 2a  P..(P..(...(...*
00011b30: 40 05 99 28 50 0b 99 28 50 05 89 2a 00 08 89 28  @..(P..(P..*...(
00011b40: 00 10 89 28 00 18 99 24 40 00 99 2a 40 03 99 3b  ...(...$@..*@..;
00011b50: 40 05 99 23 40 0b 89 2a 00 08 89 23 00 0d 89 24  @..#@..*...#...$
00011b60: 00 03 89 3b 00 55 99 2a 40 13 89 2a 00 2d 99 24  ...;.U.*@..*.-.$
00011b70: 40 00 99 2a 40 00 99 37 40 03 99 28 50 05 99 23  @..*@..7@..(P..#
00011b80: 40 03 99 28 50 08 89 2a 00 05 89 28 00 03 89 23  @..(P..*...(...#
00011b90: 00 05 89 28 00 08 89 24 00 03 89 37 00 55 99 31  ...(...$...7.U.1
00011ba0: 40 13 89 31 00 2d 99 24 40 08 99 23 40 00 99 31  @..1.-.$@..#@..1
00011bb0: 40 13 89 23 00 05 89 31 00 08 89 24 00 53 99 31  @..#...1...$.S.1
00011bc0: 40 1d 89 31 00 20 99 31 40 08 99 24 40 00 99 28  @..1. .1@..$@..(
00011bd0: 50 08 99 23 40 00 99 28 50 08 89 31 00 0b 89 23  P..#@..(P..1...#
00011be0: 00 0d 89 24 00 00 89 28 00 08 89 28 00 50 99 2a  ...$...(...(.P.*
00011bf0: 40 13 89 2a 00 2d 99 24 40 00 99 2a 40 08 99 23  @..*.-.$@..*@..#
00011c00: 40 0b 89 2a 00 08 89 23 00 0d 89 24 00 50 99 31  @..*...#...$.P.1
00011c10: 40 18 89 31 00 30 99 24 40 00 99 31 40 03 99 28  @..1.0.$@..1@..(
00011c20: 50 05 99 23 40 03 99 28 50 0d 89 28 00 00 89 31  P..#@..(P..(...1
00011c30: 00 03 89 23 00 05 89 28 00 08 89 24 00 53 99 2a  ...#...(...$.S.*
00011c40: 40 15 89 2a 00 30 99 24 40 03 99 2a 40 05 99 23  @..*.0.$@..*@..#
00011c50: 40 10 89 2a 00 03 89 23 00 0d 89 24 00 58 99 2a  @..*...#...$.X.*
00011c60: 40 13 89 2a 00 2d 99 24 40 00 99 28 50 08 99 23  @..*.-.$@..(P..#
00011c70: 40 00 99 28 50 00 99 31 40 13 89 23 00 0d 89 24  @..(P..1@..#...$
00011c80: 00 00 89 31 00 00 89 28 00 08 89 28 00 50 99 2a  ...1...(...(.P.*
00011c90: 40 13 89 2a 00 2d 99 24 40 00 99 2a 40 10 99 23  @..*.-.$@..*@..#
00011ca0: 40 03 89 2a 00 10 89 23 00 05 89 24 00 58 99 2a  @..*...#...$.X.*
00011cb0: 40 13 89 2a 00 2d 99 24 40 03 99 28 50 00 99 31  @..*.-.$@..(P..1
00011cc0: 40 08 99 28 50 05 99 23 40 08 89 28 00 03 89 31  @..(P..#@..(...1
00011cd0: 00 05 89 28 00 03 89 23 00 05 89 24 00 58 99 2a  ...(...#...$.X.*
00011ce0: 40 13 89 2a 00 2d 99 24 40 03 99 2a 40 0d 99 23  @..*.-.$@..*@..#
00011cf0: 40 08 89 2a 00 0b 89 23 00 05 89 24 00 58 99 2a  @..*...#...$.X.*
00011d00: 40 13 89 2a 00 2d 99 24 40 00 99 28 50 00 99 31  @..*.-.$@..(P..1
00011d10: 40 08 99 28 50 08 99 23 40 0b 89 31 00 08 89 23  @..(P..#@..1...#
00011d20: 00 05 89 24 00 00 89 28 00 08 89 28 00 4b 99 2a  ...$...(...(.K.*
00011d30: 40 15 89 2a 00 30 99 24 40 00 99 2a 40 10 99 23  @..*.0.$@..*@..#
00011d40: 40 03 89 2a 00 10 89 23 00 05 89 24 00 58 99 28  @..*...#...$.X.(
00011d50: 50 00 99 2a 40 08 99 28 50 0b 89 2a 00 01 89 28  P..*@..(P..*...(
00011d60: 00 07 89 28 00 1d 99 31 40 08 99 24 40 00 99 2a  ...(...1@..$@..*
00011d70: 40 03 99 28 50 08 99 28 50 05 99 23 40 00 89 31  @..(P..(P..#@..1
00011d80: 00 03 89 2a 00 05 89 28 00 08 89 28 00 03 89 23  ...*...(...(...#
00011d90: 00 05 89 24 00 18 99 2a 40 13 89 2a 00 2d 99 28  ...$...*@..*.-.(
00011da0: 50 00 99 2a 40 08 99 28 50 0b 89 2a 00 05 89 28  P..*@..(P..*...(
00011db0: 00 08 89 28 00 20 99 24 40 03 99 28 50 00 99 2a  ...(. .$@..(P..*
00011dc0: 40 0d 99 23 40 08 89 2a 00 03 89 28 00 08 89 23  @..#@..*...(...#
00011dd0: 00 05 89 24 00 58 99 2a 40 01 99 28 50 07 99 28  ...$.X.*@..(P..(
00011de0: 50 0b 89 2a 00 01 89 28 00 0c 89 28 00 20 99 24  P..*...(...(. .$
00011df0: 40 00 99 28 50 00 99 31 40 08 99 28 50 08 99 23  @..(P..1@..(P..#
00011e00: 40 08 89 31 00 0b 89 23 00 05 89 24 00 00 89 28  @..1...#...$...(
00011e10: 00 08 89 28 00 10 99 2a 40 13 89 2a 00 28 99 2a  ...(...*@..*.(.*
00011e20: 40 15 89 2a 00 30 99 24 40 00 99 2a 40 03 99 28  @..*.0.$@..*@..(
00011e30: 50 0d 99 23 40 00 99 28 50 03 89 2a 00 08 89 28  P..#@..(P..*...(
00011e40: 00 08 89 23 00 05 89 28 00 00 89 24 00 18 99 28  ...#...(...$...(
00011e50: 50 18 89 28 00 20 99 31 40 18 89 31 00 2b 99 31  P..(. .1@..1.+.1
00011e60: 40 05 99 24 40 03 99 28 50 08 99 28 50 05 99 23  @..$@..(P..(P..#
00011e70: 40 08 89 28 00 00 89 31 00 08 89 28 00 03 89 23  @..(...1...(...#
00011e80: 00 05 89 24 00 10 99 28 50 20 89 28 00 28 99 2a  ...$...(P .(.(.*
00011e90: 40 13 89 2a 00 2d 99 24 40 03 99 2a 40 0d 99 23  @..*.-.$@..*@..#
00011ea0: 40 08 89 2a 00 0b 89 23 00 05 89 24 00 50 99 31  @..*...#...$.P.1
00011eb0: 40 18 89 31 00 28 99 31 40 08 99 24 40 00 99 28  @..1.(.1@..$@..(
00011ec0: 50 08 99 28 50 08 99 23 40 00 89 31 00 13 89 23  P..(P..#@..1...#
00011ed0: 00 05 89 24 00 00 89 28 00 08 89 28 00 4b 99 2a  ...$...(...(.K.*
00011ee0: 40 15 89 2a 00 30 99 24 40 00 99 2a 40 10 99 23  @..*.0.$@..*@..#
00011ef0: 40 03 89 2a 00 10 89 23 00 05 89 24 00 58 99 2a  @..*...#...$.X.*
00011f00: 40 13 89 2a 00 28 99 31 40 05 99 24 40 03 99 28  @..*.(.1@..$@..(
00011f10: 50 08 99 28 50 05 99 23 40 00 89 31 00 08 89 28  P..(P..#@..1...(
00011f20: 00 08 89 28 00 03 89 23 00 05 89 24 00 58 99 2a  ...(...#...$.X.*
00011f30: 40 13 89 2a 00 2d 99 24 40 03 99 2a 40 0d 99 23  @..*.-.$@..*@..#
00011f40: 40 08 89 2a 00 0b 89 23 00 05 89 24 00 58 99 2a  @..*...#...$.X.*
00011f50: 40 13 89 2a 00 25 99 31 40 08 99 24 40 00 99 28  @..*.%.1@..$@..(
00011f60: 50 08 99 28 50 08 99 23 40 00 89 31 00 13 89 23  P..(P..#@..1...#
00011f70: 00 05 89 24 00 00 89 28 00 08 89 28 00 4b 99 2a  ...$...(...(.K.*
00011f80: 40 15 89 2a 00 30 99 24 40 00 99 2a 40 10 99 23  @..*.0.$@..*@..#
00011f90: 40 03 89 2a 00 10 89 23 00 05 89 24 00 58 99 2a  @..*...#...$.X.*
00011fa0: 40 13 89 2a 00 25 99 31 40 08 99 24 40 03 99 28  @..*.%.1@..$@..(
00011fb0: 50 08 99 28 50 05 99 23 40 00 89 31 00 08 89 28  P..(P..#@..1...(
00011fc0: 00 08 89 28 00 03 89 23 00 05 89 24 00 58 99 2a  ...(...#...$.X.*
00011fd0: 40 13 89 2a 00 2d 99 24 40 03 99 2a 40 0d 99 23  @..*.-.$@..*@..#
00011fe0: 40 08 89 2a 00 0b 89 23 00 05 89 24 00 58 99 2a  @..*...#...$.X.*
00011ff0: 40 13 89 2a 00 26 99 31 40 07 99 24 40 00 99 28  @..*.&.1@..$@..(
00012000: 50 08 99 28 50 08 99 23 40 00 89 31 00 13 89 23  P..(P..#@..1...#
00012010: 00 05 89 24 00 00 89 28 00 08 89 28 00 10 99 28  ...$...(...(...(
00012020: 50 28 89 28 00 13 99 2a 40 15 89 2a 00 30 99 24  P(.(...*@..*.0.$
00012030: 40 00 99 2a 40 10 99 23 40 03 89 2a 00 10 89 23  @..*@..#@..*...#
00012040: 00 05 89 24 00 58 99 2a 40 13 89 2a 00 25 99 31  ...$.X.*@..*.%.1
00012050: 40 08 99 24 40 03 99 28 50 08 99 28 50 05 99 23  @..$@..(P..(P..#
00012060: 40 00 89 31 00 08 89 28 00 08 89 28 00 03 89 23  @..1...(...(...#
00012070: 00 05 89 24 00 58 99 2a 40 13 89 2a 00 2d 99 24  ...$.X.*@..*.-.$
00012080: 40 03 99 2a 40 0d 99 23 40 08 89 2a 00 0b 89 23  @..*@..#@..*...#
00012090: 00 05 89 24 00 58 99 2a 40 13 89 2a 00 20 99 31  ...$.X.*@..*. .1
000120a0: 40 0d 99 24 40 00 99 28 50 08 99 28 50 08 99 23  @..$@..(P..(P..#
000120b0: 40 00 89 31 00 13 89 23 00 05 89 24 00 00 89 28  @..1...#...$...(
000120c0: 00 08 89 28 00 10 99 28 50 28 89 28 00 13 99 2a  ...(...(P(.(...*
000120d0: 40 15 89 2a 00 30 99 24 40 00 99 2a 40 10 99 23  @..*.0.$@..*@..#
000120e0: 40 03 89 2a 00 10 89 23 00 05 89 24 00 4b 99 31  @..*...#...$.K.1
000120f0: 40 1d 89 31 00 28 99 31 40 08 99 24 40 03 99 28  @..1.(.1@..$@..(
00012100: 50 08 99 28 50 05 99 23 40 03 89 31 00 05 89 28  P..(P..#@..1...(
00012110: 00 08 89 28 00 03 89 23 00 05 89 24 00 58 99 2a  ...(...#...$.X.*
00012120: 40 13 89 2a 00 2d 99 24 40 03 99 2a 40 0d 99 23  @..*.-.$@..*@..#
00012130: 40 08 89 2a 00 0b 89 23 00 05 89 24 00 58 99 2a  @..*...#...$.X.*
00012140: 40 13 89 2a 00 25 99 31 40 08 99 24 40 00 99 28  @..*.%.1@..$@..(
00012150: 50 08 99 28 50 08 99 23 40 00 89 31 00 13 89 23  P..(P..#@..1...#
00012160: 00 05 89 24 00 00 89 28 00 08 89 28 00 4b 99 2a  ...$...(...(.K.*
00012170: 40 15 89 2a 00 30 99 24 40 00 99 2a 40 10 99 23  @..*.0.$@..*@..#
00012180: 40 03 89 2a 00 10 89 23 00 05 89 24 00 58 99 2a  @..*...#...$.X.*
00012190: 40 13 89 2a 00 28 99 31 40 05 99 24 40 03 99 28  @..*.(.1@..$@..(
000121a0: 50 08 99 28 50 05 99 23 40 08 89 28 00 00 89 31  P..(P..#@..(...1
000121b0: 00 08 89 28 00 03 89 23 00 05 89 24 00 58 99 2a  ...(...#...$.X.*
000121c0: 40 13 89 2a 00 2d 99 24 40 03 99 2a 40 0d 99 23  @..*.-.$@..*@..#
000121d0: 40 08 89 2a 00 0b 89 23 00 05 89 24 00 58 99 2a  @..*...#...$.X.*
000121e0: 40 13 89 2a 00 25 99 31 40 08 99 24 40 00 99 28  @..*.%.1@..$@..(
000121f0: 50 08 99 28 50 08 99 23 40 00 89 31 00 13 89 23  P..(P..#@..1...#
00012200: 00 05 89 24 00 00 89 28 00 08 89 28 00 10 99 28  ...$...(...(...(
00012210: 50 30 89 28 00 0b 99 2a 40 15 89 2a 00 30 99 24  P0.(...*@..*.0.$
00012220: 40 00 99 2a 40 10 99 23 40 03 89 2a 00 10 89 23  @..*@..#@..*...#
00012230: 00 05 89 24 00 18 99 31 40 13 89 31 00 28 99 31  ...$...1@..1.(.1
00012240: 40 15 89 31 00 2b 99 31 40 05 99 24 40 03 99 28  @..1.+.1@..$@..(
00012250: 50 08 99 28 50 05 99 23 40 00 89 31 00 08 89 28  P..(P..#@..1...(
00012260: 00 08 89 28 00 03 99 2a 40 00 89 23 00 05 89 24  ...(...*@..#...$
00012270: 00 10 89 2a 00 48 99 2a 40 13 89 2a 00 2d 99 24  ...*.H.*@..*.-.$
00012280: 40 03 99 2a 40 0d 99 23 40 08 89 2a 00 0b 89 23  @..*@..#@..*...#
00012290: 00 05 89 24 00 50 99 31 40 18 89 31 00 29 99 31  ...$.P.1@..1.).1
000122a0: 40 07 99 24 40 00 99 28 50 08 99 28 50 08 99 23  @..$@..(P..(P..#
000122b0: 40 00 89 31 00 13 89 23 00 05 89 24 00 00 89 28  @..1...#...$...(
000122c0: 00 08 89 28 00 4b 99 2a 40 15 89 2a 00 30 99 24  ...(.K.*@..*.0.$
000122d0: 40 00 99 2a 40 08 99 26 40 08 99 23 40 03 89 2a  @..*@..&@..#@..*
000122e0: 00 08 89 26 00 08 89 23 00 05 89 24 00 50 99 31  ...&...#...$.P.1
000122f0: 40 08 99 28 50 00 99 2a 40 08 99 26 40 00 99 28  @..(P..*@..&@..(
00012300: 50 0b 89 2a 00 05 89 28 00 03 89 31 00 00 89 26  P..*...(...1...&
00012310: 00 08 89 28 00 1d 99 24 40 00 99 2a 40 03 99 28  ...(...$@..*@..(
00012320: 50 06 99 26 40 02 99 28 50 05 99 23 40 03 89 2a  P..&@..(P..#@..*
00012330: 00 05 89 28 00 03 89 26 00 05 89 28 00 03 89 23  ...(...&...(...#
00012340: 00 05 89 24 00 50 99 26 40 08 99 28 50 00 99 2a  ...$.P.&@..(P..*
00012350: 40 0b 99 28 50 01 89 26 00 07 89 28 00 00 89 2a  @..(P..&...(...*
00012360: 00 05 89 28 00 24 99 26 40 04 99 24 40 03 99 28  ...(.$.&@..$@..(
00012370: 50 00 99 2a 40 0d 99 23 40 03 99 28 50 00 89 26  P..*@..#@..(P..&
00012380: 00 05 89 2a 00 03 89 28 00 05 89 28 00 03 89 23  ...*...(...(...#
00012390: 00 05 89 24 00 58 99 28 50 00 99 2a 40 08 99 26  ...$.X.(P..*@..&
000123a0: 40 03 99 28 50 06 89 28 00 02 89 2a 00 08 89 26  @..(P..(...*...&
000123b0: 00 06 89 28 00 1f 99 24 40 00 99 28 50 00 99 2a  ...(...$@..(P..*
000123c0: 40 08 99 28 50 03 99 26 40 05 99 23 40 03 89 2a  @..(P..&@..#@..*
000123d0: 00 05 89 28 00 08 89 26 00 03 89 23 00 05 89 24  ...(...&...#...$
000123e0: 00 08 89 28 00 10 99 28 50 01 99 26 40 02 99 28  ...(...(P..&@..(
000123f0: 50 0e 89 26 00 02 89 28 00 00 89 28 00 25 99 26  P..&...(...(.%.&
00012400: 40 03 99 2a 40 05 99 28 50 08 89 26 00 01 99 28  @..*@..(P..&...(
00012410: 50 07 89 2a 00 08 89 28 00 00 89 28 00 20 99 28  P..*...(...(. .(
00012420: 50 08 99 24 40 00 99 2a 40 00 89 28 00 08 99 23  P..$@..*@..(...#
00012430: 40 0b 89 2a 00 08 89 23 00 0d 89 24 00 58 99 2a  @..*...#...$.X.*
00012440: 40 13 89 2a 00 28 99 31 40 05 99 24 40 00 99 2a  @..*.(.1@..$@..*
00012450: 40 03 99 28 50 05 99 23 40 03 99 28 50 08 89 2a  @..(P..#@..(P..*
00012460: 00 00 89 31 00 05 89 28 00 03 89 23 00 05 89 28  ...1...(...#...(
00012470: 00 08 89 24 00 58 99 2a 40 13 89 2a 00 2d 99 24  ...$.X.*@..*.-.$
00012480: 40 03 99 2a 40 05 99 23 40 10 89 2a 00 03 89 23  @..*@..#@..*...#
00012490: 00 0d 89 24 00 58 99 2a 40 13 89 2a 00 25 99 31  ...$.X.*@..*.%.1
000124a0: 40 08 99 24 40 00 99 28 50 00 99 2a 40 08 99 23  @..$@..(P..*@..#
000124b0: 40 00 99 28 50 08 89 31 00 03 89 2a 00 08 89 23  @..(P..1...*...#
000124c0: 00 0d 89 24 00 00 89 28 00 08 89 28 00 50 99 2a  ...$...(...(.P.*
000124d0: 40 13 89 2a 00 2d 99 24 40 00 99 2a 40 08 99 23  @..*.-.$@..*@..#
000124e0: 40 0b 89 2a 00 08 89 23 00 0d 89 24 00 50 99 31  @..*...#...$.P.1
000124f0: 40 08 99 2a 40 10 89 31 00 04 89 2a 00 24 99 31  @..*@..1...*.$.1
00012500: 40 08 99 24 40 03 99 28 50 00 99 2a 40 05 99 23  @..$@..(P..*@..#
00012510: 40 03 99 28 50 05 89 31 00 08 89 2a 00 00 89 28  @..(P..1...*...(
00012520: 00 03 89 23 00 05 89 28 00 08 89 24 00 53 99 2a  ...#...(...$.S.*
00012530: 40 15 89 2a 00 30 99 24 40 03 99 2a 40 05 99 23  @..*.0.$@..*@..#
00012540: 40 10 89 2a 00 03 89 23 00 0d 89 24 00 58 99 2a  @..*...#...$.X.*
00012550: 40 13 89 2a 00 25 99 31 40 08 99 24 40 00 99 28  @..*.%.1@..$@..(
00012560: 50 03 99 2a 40 05 99 23 40 00 99 28 50 10 89 2a  P..*@..#@..(P..*
00012570: 00 01 89 31 00 02 89 23 00 0d 89 24 00 00 89 28  ...1...#...$...(
00012580: 00 08 89 28 00 50 99 2a 40 13 89 2a 00 2d 99 24  ...(.P.*@..*.-.$
00012590: 40 00 99 2a 40 10 99 23 40 03 89 2a 00 10 89 23  @..*@..#@..*...#
000125a0: 00 05 89 24 00 58 99 2a 40 13 89 2a 00 28 99 31  ...$.X.*@..*.(.1
000125b0: 40 05 99 24 40 00 99 2a 40 03 99 28 50 08 99 28  @..$@..*@..(P..(
000125c0: 50 05 99 23 40 03 89 2a 00 00 89 31 00 05 89 28  P..#@..*...1...(
000125d0: 00 08 89 28 00 03 89 23 00 05 89 24 00 58 99 2a  ...(...#...$.X.*
000125e0: 40 13 89 2a 00 2d 99 24 40 03 99 2a 40 0d 99 23  @..*.-.$@..*@..#
000125f0: 40 08 89 2a 00 0b 89 23 00 05 89 24 00 58 99 2a  @..*...#...$.X.*
00012600: 40 13 89 2a 00 25 99 31 40 08 99 24 40 00 99 28  @..*.%.1@..$@..(
00012610: 50 00 99 2a 40 08 99 28 50 08 99 23 40 00 89 31  P..*@..(P..#@..1
00012620: 00 03 89 2a 00 10 89 23 00 05 89 24 00 00 89 28  ...*...#...$...(
00012630: 00 08 89 28 00 4b 99 2a 40 15 89 2a 00 30 99 24  ...(.K.*@..*.0.$
00012640: 40 00 99 2a 40 10 99 23 40 03 89 2a 00 10 89 23  @..*@..#@..*...#
00012650: 00 05 89 24 00 58 99 28 50 00 99 2a 40 08 99 28  ...$.X.(P..*@..(
00012660: 50 0b 89 2a 00 01 89 28 00 07 89 28 00 1d 99 31  P..*...(...(...1
00012670: 40 08 99 24 40 00 99 2a 40 03 99 28 50 08 99 28  @..$@..*@..(P..(
00012680: 50 05 99 23 40 00 89 31 00 03 89 2a 00 05 89 28  P..#@..1...*...(
00012690: 00 08 89 28 00 03 89 23 00 05 89 24 00 18 99 2a  ...(...#...$...*
000126a0: 40 13 89 2a 00 2d 99 28 50 00 99 2a 40 08 99 28  @..*.-.(P..*@..(
000126b0: 50 0b 89 2a 00 05 89 28 00 08 89 28 00 20 99 24  P..*...(...(. .$
000126c0: 40 03 99 28 50 00 99 2a 40 05 99 28 50 08 99 23  @..(P..*@..(P..#
000126d0: 40 08 89 2a 00 03 89 28 00 08 89 23 00 05 89 28  @..*...(...#...(
000126e0: 00 00 89 24 00 58 99 2a 40 01 99 28 50 07 99 28  ...$.X.*@..(P..(
000126f0: 50 0b 89 2a 00 01 89 28 00 0c 89 28 00 18 99 31  P..*...(...(...1
00012700: 40 08 99 24 40 00 99 28 50 00 99 2a 40 08 99 28  @..$@..(P..*@..(
00012710: 50 08 99 23 40 00 89 31 00 03 89 2a 00 08 89 28  P..#@..1...*...(
00012720: 00 08 89 23 00 00 89 28 00 05 89 24 00 18 99 28  ...#...(...$...(
00012730: 50 00 99 2a 40 08 99 28 50 0b 89 2a 00 05 89 28  P..*@..(P..*...(
00012740: 00 0b 89 28 00 18 99 2a 40 05 99 28 50 0b 99 28  ...(...*@..(P..(
00012750: 50 05 89 2a 00 08 89 28 00 10 89 28 00 18 99 24  P..*...(...(...$
00012760: 40 00 99 2a 40 03 99 28 50 0d 99 23 40 00 99 28  @..*@..(P..#@..(
00012770: 50 03 89 2a 00 08 89 28 00 08 89 23 00 05 89 28  P..*...(...#...(
00012780: 00 00 89 24 00 50 99 31 40 08 99 2a 40 10 89 31  ...$.P.1@..*@..1
00012790: 00 03 89 2a 00 21 99 31 40 0c 99 24 40 00 99 2a  ...*.!.1@..$@..*
000127a0: 40 03 99 28 50 08 99 28 50 05 99 23 40 00 89 31  @..(P..(P..#@..1
000127b0: 00 03 89 2a 00 05 89 28 00 08 89 28 00 03 89 23  ...*...(...(...#
000127c0: 00 05 89 24 00 58 99 2a 40 13 89 2a 00 2d 99 24  ...$.X.*@..*.-.$
000127d0: 40 03 99 2a 40 0d 99 23 40 08 89 2a 00 0b 89 23  @..*@..#@..*...#
000127e0: 00 05 89 24 00 50 99 31 40 08 99 2a 40 10 89 31  ...$.P.1@..*@..1
000127f0: 00 03 89 2a 00 25 99 31 40 08 99 24 40 00 99 28  ...*.%.1@..$@..(
00012800: 50 00 99 2a 40 08 99 28 50 08 99 23 40 00 89 31  P..*@..(P..#@..1
00012810: 00 03 89 2a 00 10 89 23 00 05 89 24 00 00 89 28  ...*...#...$...(
00012820: 00 08 89 28 00 4b 99 2a 40 15 89 2a 00 30 99 24  ...(.K.*@..*.0.$
00012830: 40 00 99 2a 40 10 99 23 40 03 89 2a 00 10 89 23  @..*@..#@..*...#
00012840: 00 05 89 24 00 58 99 2a 40 13 89 2a 00 28 99 31  ...$.X.*@..*.(.1
00012850: 40 05 99 24 40 00 99 2a 40 03 99 28 50 08 99 28  @..$@..*@..(P..(
00012860: 50 05 99 23 40 00 89 31 00 03 89 2a 00 05 89 28  P..#@..1...*...(
00012870: 00 08 89 28 00 03 89 23 00 05 89 24 00 58 99 2a  ...(...#...$.X.*
00012880: 40 13 89 2a 00 2d 99 24 40 03 99 2a 40 0d 99 23  @..*.-.$@..*@..#
00012890: 40 08 89 2a 00 0b 89 23 00 05 89 24 00 58 99 2a  @..*...#...$.X.*
000128a0: 40 13 89 2a 00 25 99 31 40 08 99 24 40 00 99 28  @..*.%.1@..$@..(
000128b0: 50 00 99 2a 40 08 99 28 50 08 99 23 40 00 89 31  P..*@..(P..#@..1
000128c0: 00 03 89 2a 00 10 89 23 00 05 89 24 00 00 89 28  ...*...#...$...(
000128d0: 00 08 89 28 00 4b 99 2a 40 15 89 2a 00 30 99 24  ...(.K.*@..*.0.$
000128e0: 40 00 99 2a 40 10 99 23 40 03 89 2a 00 10 89 23  @..*@..#@..*...#
000128f0: 00 05 89 24 00 58 99 2a 40 13 89 2a 00 25 99 31  ...$.X.*@..*.%.1
00012900: 40 08 99 24 40 00 99 2a 40 03 99 28 50 08 99 28  @..$@..*@..(P..(
00012910: 50 05 99 23 40 00 89 31 00 03 89 2a 00 05 89 28  P..#@..1...*...(
00012920: 00 08 89 28 00 03 89 23 00 05 89 24 00 58 99 2a  ...(...#...$.X.*
00012930: 40 13 89 2a 00 2d 99 24 40 03 99 2a 40 0d 99 23  @..*.-.$@..*@..#
00012940: 40 08 89 2a 00 0b 89 23 00 05 89 24 00 58 99 2a  @..*...#...$.X.*
00012950: 40 13 89 2a 00 26 99 31 40 07 99 24 40 00 99 28  @..*.&.1@..$@..(
00012960: 50 00 99 2a 40 08 99 28 50 08 99 23 40 00 89 31  P..*@..(P..#@..1
00012970: 00 03 89 2a 00 10 89 23 00 05 89 24 00 00 89 28  ...*...#...$...(
00012980: 00 08 89 28 00 4b 99 2a 40 15 89 2a 00 30 99 24  ...(.K.*@..*.0.$
00012990: 40 00 99 2a 40 10 99 23 40 03 89 2a 00 10 89 23  @..*@..#@..*...#
000129a0: 00 05 89 24 00 58 99 2a 40 13 89 2a 00 25 99 31  ...$.X.*@..*.%.1
000129b0: 40 08 99 24 40 00 99 2a 40 03 99 28 50 08 99 28  @..$@..*@..(P..(
000129c0: 50 05 99 23 40 00 89 31 00 03 89 2a 00 05 89 28  P..#@..1...*...(
000129d0: 00 08 89 28 00 03 89 23 00 05 89 24 00 58 99 28  ...(...#...$.X.(
000129e0: 50 00 99 2a 40 0b 99 28 50 08 89 2a 00 08 89 28  P..*@..(P..*...(
000129f0: 00 08 89 28 00 1d 99 24 40 00 99 28 50 03 99 2a  ...(...$@..(P..*
00012a00: 40 08 99 28 50 05 99 23 40 08 89 2a 00 00 89 28  @..(P..#@..*...(
00012a10: 00 0b 89 23 00 00 89 28 00 05 89 24 00 58 99 28  ...#...(...$.X.(
00012a20: 50 00 99 2a 40 0b 99 28 50 08 89 2a 00 00 89 28  P..*@..(P..*...(
00012a30: 00 10 89 28 00 10 99 31 40 0d 99 24 40 00 99 28  ...(...1@..$@..(
00012a40: 50 00 99 2a 40 08 99 28 50 08 99 23 40 00 89 31  P..*@..(P..#@..1
00012a50: 00 03 89 2a 00 0d 89 28 00 03 89 23 00 05 89 28  ...*...(...#...(
00012a60: 00 00 89 24 00 53 99 2a 40 15 89 2a 00 30 99 24  ...$.S.*@..*.0.$
00012a70: 40 00 99 2a 40 10 99 23 40 03 89 2a 00 10 89 23  @..*@..#@..*...#
00012a80: 00 05 89 24 00 4b 99 31 40 0d 99 2a 40 10 89 31  ...$.K.1@..*@..1
00012a90: 00 03 89 2a 00 25 99 31 40 08 99 24 40 00 99 2a  ...*.%.1@..$@..*
00012aa0: 40 03 99 28 50 08 99 28 50 05 99 23 40 03 89 2a  @..(P..(P..#@..*
00012ab0: 00 00 89 31 00 05 89 28 00 08 89 28 00 03 89 23  ...1...(...(...#
00012ac0: 00 05 89 24 00 58 99 2a 40 13 89 2a 00 2d 99 24  ...$.X.*@..*.-.$
00012ad0: 40 03 99 2a 40 0d 99 23 40 08 89 2a 00 0b 89 23  @..*@..#@..*...#
00012ae0: 00 05 89 24 00 58 99 2a 40 13 89 2a 00 25 99 31  ...$.X.*@..*.%.1
00012af0: 40 08 99 24 40 00 99 28 50 00 99 2a 40 08 99 28  @..$@..(P..*@..(
00012b00: 50 08 99 23 40 00 89 31 00 03 89 2a 00 10 89 23  P..#@..1...*...#
00012b10: 00 05 89 24 00 00 89 28 00 08 89 28 00 4b 99 2a  ...$...(...(.K.*
00012b20: 40 15 89 2a 00 30 99 24 40 00 99 2a 40 10 99 23  @..*.0.$@..*@..#
00012b30: 40 03 89 2a 00 10 89 23 00 05 89 24 00 58 99 2a  @..*...#...$.X.*
00012b40: 40 13 89 2a 00 28 99 31 40 05 99 24 40 00 99 2a  @..*.(.1@..$@..*
00012b50: 40 03 99 28 50 08 99 28 50 05 99 23 40 03 89 2a  @..(P..(P..#@..*
00012b60: 00 05 89 28 00 00 89 31 00 08 89 28 00 03 89 23  ...(...1...(...#
00012b70: 00 05 89 24 00 58 99 2a 40 13 89 2a 00 2d 99 24  ...$.X.*@..*.-.$
00012b80: 40 03 99 2a 40 0d 99 23 40 08 89 2a 00 0b 89 23  @..*@..#@..*...#
00012b90: 00 05 89 24 00 58 99 2a 40 13 89 2a 00 25 99 31  ...$.X.*@..*.%.1
00012ba0: 40 08 99 24 40 00 99 28 50 00 99 2a 40 08 99 28  @..$@..(P..*@..(
00012bb0: 50 08 99 23 40 00 89 31 00 03 89 2a 00 10 89 23  P..#@..1...*...#
00012bc0: 00 05 89 24 00 00 89 28 00 08 89 28 00 4b 99 2a  ...$...(...(.K.*
00012bd0: 40 15 89 2a 00 30 99 24 40 00 99 2a 40 10 99 23  @..*.0.$@..*@..#
00012be0: 40 03 89 2a 00 10 89 23 00 05 89 24 00 50 99 31  @..*...#...$.P.1
00012bf0: 40 08 99 2a 40 10 89 31 00 03 89 2a 00 25 99 31  @..*@..1...*.%.1
00012c00: 40 08 99 24 40 00 99 2a 40 03 99 28 50 08 99 28  @..$@..*@..(P..(
00012c10: 50 05 99 23 40 00 89 31 00 03 89 2a 00 05 89 28  P..#@..1...*...(
00012c20: 00 08 89 28 00 03 89 23 00 05 89 24 00 58 99 2a  ...(...#...$.X.*
00012c30: 40 13 89 2a 00 2d 99 24 40 03 99 2a 40 0d 99 23  @..*.-.$@..*@..#
00012c40: 40 08 89 2a 00 0b 89 23 00 05 89 24 00 50 99 31  @..*...#...$.P.1
00012c50: 40 08 99 2a 40 10 89 31 00 03 89 2a 00 26 99 31  @..*@..1...*.&.1
00012c60: 40 07 99 24 40 00 99 28 50 00 99 2a 40 08 99 28  @..$@..(P..*@..(
00012c70: 50 08 99 23 40 00 89 31 00 03 89 2a 00 10 89 23  P..#@..1...*...#
00012c80: 00 05 89 24 00 00 89 28 00 08 89 28 00 4b 99 2a  ...$...(...(.K.*
00012c90: 40 15 89 2a 00 30 99 24 40 00 99 2a 40 03 99 28  @..*.0.$@..*@..(
00012ca0: 50 05 99 28 50 08 99 23 40 03 89 2a 00 08 89 28  P..(P..#@..*...(
00012cb0: 00 05 89 28 00 03 89 23 00 05 89 24 00 18 99 28  ...(...#...$...(
00012cc0: 50 08 99 28 50 0b 89 28 00 08 89 28 00 1d 99 31  P..(P..(...(...1
00012cd0: 40 08 99 28 50 00 99 2a 40 08 99 28 50 0b 89 2a  @..(P..*@..(P..*
00012ce0: 00 05 89 28 00 03 89 31 00 08 89 28 00 1d 99 24  ...(...1...(...$
00012cf0: 40 00 99 2a 40 03 99 28 50 08 99 28 50 05 99 23  @..*@..(P..(P..#
00012d00: 40 03 89 2a 00 05 89 28 00 08 89 28 00 03 89 23  @..*...(...(...#
00012d10: 00 05 89 24 00 18 99 28 50 0b 99 28 50 08 89 28  ...$...(P..(P..(
00012d20: 00 0d 89 28 00 20 99 28 50 00 99 2a 40 0b 99 28  ...(. .(P..*@..(
00012d30: 50 08 89 2a 00 05 89 28 00 08 89 28 00 20 99 24  P..*...(...(. .$
00012d40: 40 03 99 28 50 00 99 2a 40 0d 99 23 40 03 99 28  @..(P..*@..#@..(
00012d50: 50 05 89 2a 00 03 89 28 00 05 99 28 50 03 89 23  P..*...(...(P..#
00012d60: 00 05 89 24 00 03 89 28 00 0d 89 28 00 08 99 28  ...$...(...(...(
00012d70: 50 0b 99 28 50 08 89 28 00 0d 99 28 50 00 89 28  P..(P..(...(P..(
00012d80: 00 13 89 28 00 0d 99 28 50 00 99 2a 40 0b 99 28  ...(...(P..*@..(
00012d90: 50 08 89 2a 00 05 89 28 00 08 89 28 00 20 99 24  P..*...(...(. .$
00012da0: 40 00 99 28 50 00 99 2a 40 0b 99 28 50 05 99 23  @..(P..*@..(P..#
00012db0: 40 03 89 2a 00 05 89 28 00 0b 89 23 00 00 89 28  @..*...(...#...(
00012dc0: 00 05 89 24 00 18 99 28 50 0b 99 28 50 0d 89 28  ...$...(P..(P..(
00012dd0: 00 0b 89 28 00 18 99 2a 40 05 99 28 50 0b 99 28  ...(...*@..(P..(
00012de0: 50 05 89 2a 00 08 89 28 00 10 89 28 00 18 99 24  P..*...(...(...$
00012df0: 40 00 99 33 40 08 99 23 40 0b 89 33 00 08 89 23  @..3@..#@..3...#
00012e00: 00 0d 89 24 00 58 99 33 40 13 89 33 00 28 99 31  ...$.X.3@..3.(.1
00012e10: 40 05 99 24 40 00 99 33 40 03 99 28 50 05 99 23  @..$@..3@..(P..#
00012e20: 40 03 99 28 50 08 89 33 00 00 89 31 00 05 89 28  @..(P..3...1...(
00012e30: 00 03 89 23 00 05 89 28 00 08 89 24 00 58 99 33  ...#...(...$.X.3
00012e40: 40 13 89 33 00 2d 99 24 40 03 99 33 40 05 99 23  @..3.-.$@..3@..#
00012e50: 40 10 89 33 00 03 89 23 00 0d 89 24 00 58 99 33  @..3...#...$.X.3
00012e60: 40 13 89 33 00 25 99 31 40 08 99 24 40 00 99 28  @..3.%.1@..$@..(
00012e70: 50 00 99 33 40 08 99 23 40 00 99 28 50 08 89 31  P..3@..#@..(P..1
00012e80: 00 03 89 33 00 08 89 23 00 0d 89 24 00 00 89 28  ...3...#...$...(
00012e90: 00 08 89 28 00 50 99 33 40 13 89 33 00 2d 99 24  ...(.P.3@..3.-.$
00012ea0: 40 00 99 33 40 08 99 23 40 0b 89 33 00 08 89 23  @..3@..#@..3...#
00012eb0: 00 0d 89 24 00 50 99 31 40 08 99 33 40 10 89 31  ...$.P.1@..3@..1
00012ec0: 00 04 89 33 00 24 99 31 40 08 99 24 40 03 99 28  ...3.$.1@..$@..(
00012ed0: 50 00 99 33 40 05 99 23 40 03 99 28 50 05 89 31  P..3@..#@..(P..1
00012ee0: 00 08 89 33 00 00 89 28 00 03 89 23 00 05 89 28  ...3...(...#...(
00012ef0: 00 08 89 24 00 53 99 33 40 15 89 33 00 30 99 24  ...$.S.3@..3.0.$
00012f00: 40 03 99 33 40 05 99 23 40 10 89 33 00 03 89 23  @..3@..#@..3...#
00012f10: 00 0d 89 24 00 58 99 33 40 13 89 33 00 25 99 31  ...$.X.3@..3.%.1
00012f20: 40 08 99 24 40 00 99 28 50 03 99 33 40 05 99 23  @..$@..(P..3@..#
00012f30: 40 00 99 28 50 10 89 33 00 01 89 31 00 02 89 23  @..(P..3...1...#
00012f40: 00 0d 89 24 00 00 89 28 00 08 89 28 00 50 99 33  ...$...(...(.P.3
00012f50: 40 13 89 33 00 2d 99 24 40 00 99 33 40 10 99 23  @..3.-.$@..3@..#
00012f60: 40 03 89 33 00 10 89 23 00 05 89 24 00 58 99 33  @..3...#...$.X.3
00012f70: 40 13 89 33 00 28 99 31 40 05 99 24 40 00 99 33  @..3.(.1@..$@..3
00012f80: 40 03 99 28 50 08 99 28 50 05 99 23 40 03 89 33  @..(P..(P..#@..3
00012f90: 00 00 89 31 00 05 89 28 00 08 89 28 00 03 89 23  ...1...(...(...#
00012fa0: 00 05 89 24 00 58 99 33 40 13 89 33 00 2d 99 24  ...$.X.3@..3.-.$
00012fb0: 40 03 99 33 40 0d 99 23 40 08 89 33 00 0b 89 23  @..3@..#@..3...#
00012fc0: 00 05 89 24 00 58 99 33 40 13 89 33 00 25 99 31  ...$.X.3@..3.%.1
00012fd0: 40 08 99 24 40 00 99 28 50 00 99 33 40 08 99 28  @..$@..(P..3@..(
00012fe0: 50 08 99 23 40 00 89 31 00 03 89 33 00 10 89 23  P..#@..1...3...#
00012ff0: 00 05 89 24 00 00 89 28 00 08 89 28 00 4b 99 33  ...$...(...(.K.3
00013000: 40 15 89 33 00 30 99 24 40 00 99 33 40 10 99 23  @..3.0.$@..3@..#
00013010: 40 03 89 33 00 10 89 23 00 05 89 24 00 58 99 28  @..3...#...$.X.(
00013020: 50 00 99 33 40 08 99 28 50 0b 89 33 00 01 89 28  P..3@..(P..3...(
00013030: 00 07 89 28 00 1d 99 31 40 08 99 24 40 00 99 33  ...(...1@..$@..3
00013040: 40 03 99 28 50 08 99 28 50 05 99 23 40 00 89 31  @..(P..(P..#@..1
00013050: 00 03 89 33 00 05 89 28 00 08 89 28 00 03 89 23  ...3...(...(...#
00013060: 00 05 89 24 00 18 99 33 40 13 89 33 00 2d 99 28  ...$...3@..3.-.(
00013070: 50 00 99 33 40 08 99 28 50 0b 89 33 00 05 89 28  P..3@..(P..3...(
00013080: 00 08 89 28 00 20 99 24 40 03 99 28 50 00 99 33  ...(. .$@..(P..3
00013090: 40 05 99 28 50 08 99 23 40 08 89 33 00 03 89 28  @..(P..#@..3...(
000130a0: 00 08 89 23 00 05 89 28 00 00 89 24 00 58 99 33  ...#...(...$.X.3
000130b0: 40 01 99 28 50 07 99 28 50 0b 89 33 00 01 89 28  @..(P..(P..3...(
000130c0: 00 0c 89 28 00 18 99 31 40 08 99 24 40 00 99 28  ...(...1@..$@..(
000130d0: 50 00 99 33 40 08 99 28 50 08 99 23 40 00 89 31  P..3@..(P..#@..1
000130e0: 00 03 89 33 00 08 89 28 00 08 89 23 00 00 89 28  ...3...(...#...(
000130f0: 00 05 89 24 00 18 99 28 50 00 99 33 40 08 99 28  ...$...(P..3@..(
00013100: 50 0b 89 33 00 05 89 28 00 0b 89 28 00 18 99 33  P..3...(...(...3
00013110: 40 05 99 28 50 0b 99 28 50 05 89 33 00 08 89 28  @..(P..(P..3...(
00013120: 00 10 89 28 00 18 99 24 40 00 99 33 40 03 99 28  ...(...$@..3@..(
00013130: 50 0d 99 23 40 00 99 28 50 03 89 33 00 08 89 28  P..#@..(P..3...(
00013140: 00 08 89 23 00 05 89 28 00 00 89 24 00 50 99 31  ...#...(...$.P.1
00013150: 40 08 99 33 40 10 89 31 00 03 89 33 00 21 99 31  @..3@..1...3.!.1
00013160: 40 0c 99 24 40 00 99 33 40 03 99 28 50 08 99 28  @..$@..3@..(P..(
00013170: 50 05 99 23 40 00 89 31 00 03 89 33 00 05 89 28  P..#@..1...3...(
00013180: 00 08 89 28 00 03 89 23 00 05 89 24 00 58 99 33  ...(...#...$.X.3
00013190: 40 13 89 33 00 2d 99 24 40 03 99 33 40 0d 99 23  @..3.-.$@..3@..#
000131a0: 40 08 89 33 00 0b 89 23 00 05 89 24 00 50 99 31  @..3...#...$.P.1
000131b0: 40 08 99 33 40 10 89 31 00 03 89 33 00 25 99 31  @..3@..1...3.%.1
000131c0: 40 08 99 24 40 00 99 28 50 00 99 33 40 08 99 28  @..$@..(P..3@..(
000131d0: 50 08 99 23 40 00 89 31 00 03 89 33 00 10 89 23  P..#@..1...3...#
000131e0: 00 05 89 24 00 00 89 28 00 08 89 28 00 4b 99 33  ...$...(...(.K.3
000131f0: 40 15 89 33 00 30 99 24 40 00 99 33 40 10 99 23  @..3.0.$@..3@..#
00013200: 40 03 89 33 00 10 89 23 00 05 89 24 00 58 99 33  @..3...#...$.X.3
00013210: 40 13 89 33 00 28 99 31 40 05 99 24 40 00 99 33  @..3.(.1@..$@..3
00013220: 40 03 99 28 50 08 99 28 50 05 99 23 40 00 89 31  @..(P..(P..#@..1
00013230: 00 03 89 33 00 05 89 28 00 08 89 28 00 03 89 23  ...3...(...(...#
00013240: 00 05 89 24 00 58 99 33 40 13 89 33 00 2d 99 24  ...$.X.3@..3.-.$
00013250: 40 03 99 33 40 0d 99 23 40 08 89 33 00 0b 89 23  @..3@..#@..3...#
00013260: 00 05 89 24 00 58 99 33 40 13 89 33 00 25 99 31  ...$.X.3@..3.%.1
00013270: 40 08 99 24 40 00 99 28 50 00 99 33 40 08 99 28  @..$@..(P..3@..(
00013280: 50 08 99 23 40 00 89 31 00 03 89 33 00 10 89 23  P..#@..1...3...#
00013290: 00 05 89 24 00 00 89 28 00 08 89 28 00 4b 99 33  ...$...(...(.K.3
000132a0: 40 15 89 33 00 30 99 24 40 00 99 33 40 10 99 23  @..3.0.$@..3@..#
000132b0: 40 03 89 33 00 10 89 23 00 05 89 24 00 58 99 33  @..3...#...$.X.3
000132c0: 40 13 89 33 00 25 99 31 40 08 99 24 40 00 99 33  @..3.%.1@..$@..3
000132d0: 40 03 99 28 50 08 99 28 50 05 99 23 40 00 89 31  @..(P..(P..#@..1
000132e0: 00 03 89 33 00 05 89 28 00 08 89 28 00 03 89 23  ...3...(...(...#
000132f0: 00 05 89 24 00 58 99 33 40 13 89 33 00 2d 99 24  ...$.X.3@..3.-.$
00013300: 40 03 99 33 40 0d 99 23 40 08 89 33 00 0b 89 23  @..3@..#@..3...#
00013310: 00 05 89 24 00 58 99 33 40 13 89 33 00 26 99 31  ...$.X.3@..3.&.1
00013320: 40 07 99 24 40 00 99 28 50 00 99 33 40 08 99 28  @..$@..(P..3@..(
00013330: 50 08 99 23 40 00 89 31 00 03 89 33 00 10 89 23  P..#@..1...3...#
00013340: 00 05 89 24 00 00 89 28 00 08 89 28 00 4b 99 33  ...$...(...(.K.3
00013350: 40 15 89 33 00 30 99 24 40 00 99 33 40 10 99 23  @..3.0.$@..3@..#
00013360: 40 03 89 33 00 10 89 23 00 05 89 24 00 58 99 33  @..3...#...$.X.3
00013370: 40 13 89 33 00 25 99 31 40 08 99 24 40 00 99 33  @..3.%.1@..$@..3
00013380: 40 03 99 28 50 08 99 28 50 05 99 23 40 00 89 31  @..(P..(P..#@..1
00013390: 00 03 89 33 00 05 89 28 00 08 89 28 00 03 89 23  ...3...(...(...#
000133a0: 00 05 89 24 00 58 99 28 50 00 99 33 40 0b 99 28  ...$.X.(P..3@..(
000133b0: 50 08 89 33 00 08 89 28 00 08 89 28 00 1d 99 24  P..3...(...(...$
000133c0: 40 00 99 28 50 03 99 33 40 08 99 28 50 05 99 23  @..(P..3@..(P..#
000133d0: 40 08 89 33 00 00 89 28 00 0b 89 23 00 00 89 28  @..3...(...#...(
000133e0: 00 05 89 24 00 58 99 28 50 00 99 33 40 0b 99 28  ...$.X.(P..3@..(
000133f0: 50 08 89 33 00 00 89 28 00 10 89 28 00 10 99 31  P..3...(...(...1
00013400: 40 0d 99 24 40 00 99 28 50 00 99 33 40 08 99 28  @..$@..(P..3@..(
00013410: 50 08 99 23 40 00 89 31 00 03 89 33 00 0d 89 28  P..#@..1...3...(
00013420: 00 03 89 23 00 05 89 28 00 00 89 24 00 53 99 33  ...#...(...$.S.3
00013430: 40 15 89 33 00 30 99 24 40 00 99 33 40 10 99 23  @..3.0.$@..3@..#
00013440: 40 03 89 33 00 10 89 23 00 05 89 24 00 4b 99 31  @..3...#...$.K.1
00013450: 40 0d 99 33 40 10 89 31 00 03 89 33 00 25 99 31  @..3@..1...3.%.1
00013460: 40 08 99 24 40 00 99 33 40 03 99 28 50 08 99 28  @..$@..3@..(P..(
00013470: 50 05 99 23 40 03 89 33 00 00 89 31 00 05 89 28  P..#@..3...1...(
00013480: 00 08 89 28 00 03 89 23 00 05 89 24 00 58 99 33  ...(...#...$.X.3
00013490: 40 13 89 33 00 2d 99 24 40 03 99 33 40 0d 99 23  @..3.-.$@..3@..#
000134a0: 40 08 89 33 00 0b 89 23 00 05 89 24 00 58 99 33  @..3...#...$.X.3
000134b0: 40 13 89 33 00 25 99 31 40 08 99 24 40 00 99 28  @..3.%.1@..$@..(
000134c0: 50 00 99 33 40 08 99 28 50 08 99 23 40 00 89 31  P..3@..(P..#@..1
000134d0: 00 03 89 33 00 10 89 23 00 05 89 24 00 00 89 28  ...3...#...$...(
000134e0: 00 08 89 28 00 4b 99 33 40 15 89 33 00 30 99 24  ...(.K.3@..3.0.$
000134f0: 40 00 99 33 40 10 99 23 40 03 89 33 00 10 89 23  @..3@..#@..3...#
00013500: 00 05 89 24 00 58 99 33 40 13 89 33 00 28 99 31  ...$.X.3@..3.(.1
00013510: 40 05 99 24 40 00 99 33 40 03 99 28 50 08 99 28  @..$@..3@..(P..(
00013520: 50 05 99 23 40 03 89 33 00 05 89 28 00 00 89 31  P..#@..3...(...1
00013530: 00 08 89 28 00 03 89 23 00 05 89 24 00 58 99 33  ...(...#...$.X.3
00013540: 40 13 89 33 00 2d 99 24 40 03 99 33 40 0d 99 23  @..3.-.$@..3@..#
00013550: 40 08 89 33 00 0b 89 23 00 05 89 24 00 58 99 28  @..3...#...$.X.(
00013560: 50 00 99 33 40 09 89 28 00 07 99 28 50 03 89 33  P..3@..(...(P..3
00013570: 00 08 89 28 00 05 99 28 50 09 89 28 00 07 99 28  ...(...(P..(...(
00013580: 50 08 99 31 40 01 89 28 00 07 99 24 40 00 99 28  P..1@..(...$@..(
00013590: 50 00 99 33 40 08 99 28 50 03 89 28 00 05 99 23  P..3@..(P..(...#
000135a0: 40 00 99 28 50 00 89 31 00 03 89 33 00 08 89 28  @..(P..1...3...(
000135b0: 00 05 99 28 50 03 89 23 00 05 89 24 00 03 89 28  ...(P..#...$...(
000135c0: 00 05 99 28 50 00 89 28 00 09 89 28 00 07 99 28  ...(P..(...(...(
000135d0: 50 09 89 28 00 07 99 28 50 09 89 28 00 07 99 28  P..(...(P..(...(
000135e0: 50 0b 89 28 00 05 99 28 50 09 89 28 00 02 99 33  P..(...(P..(...3
000135f0: 40 05 99 28 50 09 89 28 00 07 99 28 50 00 89 33  @..(P..(...(P..3
00013600: 00 09 89 28 00 07 99 28 50 08 89 28 00 08 99 28  ...(...(P..(...(
00013610: 50 08 89 28 00 08 99 24 40 00 99 33 40 01 99 23  P..(...$@..3@..#
00013620: 40 00 99 28 50 0a 99 23 40 08 89 33 00 01 89 23  @..(P..#@..3...#
00013630: 00 05 89 28 00 0f 89 24 00 09 89 23 00 0a 99 3b  ...(...$...#...;
00013640: 40 20 89 3b 00 18 99 23 40 0d 99 28 50 03 99 26  @ .;...#@..(P..&
00013650: 40 0e 89 23 00 0a 89 28 00 05 89 26 00 20 99 28  @..#...(...&. .(
00013660: 50 08 99 26 40 11 99 23 40 0a 89 28 00 0d 89 26  P..&@..#@..(...&
00013670: 00 0c 89 23 00 40 99 24 40 04 99 28 50 00 99 28  ...#.@.$@..(P..(
00013680: 50 00 99 2f 40 14 89 24 00 04 89 28 00 00 89 28  P../@..$...(...(
00013690: 00 00 89 2f 00 23 99 24 40 05 99 28 50 08 99 28  .../.#.$@..(P..(
000136a0: 50 14 89 24 00 0f 89 28 00 08 89 28 00 3d 99 24  P..$...(...(.=.$
000136b0: 40 09 99 23 40 07 99 26 40 13 89 24 00 08 89 26  @..#@..&@..$...&
000136c0: 00 00 89 23 00 1e 99 24 40 02 99 2f 40 05 99 28  ...#...$@../@..(
000136d0: 50 08 99 23 40 00 99 26 40 10 89 2f 00 01 89 24  P..#@..&@../...$
000136e0: 00 13 89 23 00 04 89 28 00 03 89 26 00 48 99 2f  ...#...(...&.H./
000136f0: 40 05 99 28 50 03 99 28 50 01 99 24 40 0c 89 2f  @..(P..(P..$@../
00013700: 00 0b 89 28 00 00 89 28 00 08 89 24 00 1d 99 37  ...(...(...$...7
00013710: 40 03 99 28 50 00 99 2f 40 01 99 28 50 04 99 24  @..(P../@..(P..$
00013720: 40 13 89 2f 00 05 89 37 00 03 89 28 00 00 89 28  @../...7...(...(
00013730: 00 05 89 24 00 19 99 28 50 02 99 28 50 1d 89 28  ...$...(P..(P..(
00013740: 00 01 89 28 00 1f 99 23 40 00 99 28 50 03 99 26  ...(...#@..(P..&
00013750: 40 01 99 24 40 17 89 28 00 05 89 23 00 00 89 26  @..$@..(...#...&
00013760: 00 01 89 24 00 1b 99 24 40 04 99 2a 40 00 99 3b  ...$...$@..*@..;
00013770: 40 01 99 23 40 02 99 28 50 05 99 26 40 18 89 28  @..#@..(P..&@..(
00013780: 00 00 89 3b 00 00 89 2a 00 01 89 24 00 00 89 23  ...;...*...$...#
00013790: 00 07 89 26 00 4c 99 24 40 08 99 23 40 04 99 28  ...&.L.$@..#@..(
000137a0: 50 00 99 25 40 00 99 2f 40 03 99 28 50 0e 89 24  P..%@../@..(P..$
000137b0: 00 07 89 2f 00 03 89 23 00 06 89 25 00 02 89 28  .../...#...%...(
000137c0: 00 05 89 28 00 18 99 26 40 03 99 24 40 08 89 26  ...(...&@..$@..&
000137d0: 00 05 99 28 50 0b 89 28 00 05 99 26 40 01 89 24  ...(P..(...&@..$
000137e0: 00 0a 89 26 00 05 99 28 50 0b 89 28 00 05 99 26  ...&...(P..(...&
000137f0: 40 0b 89 26 00 05 99 28 50 0b 89 28 00 05 99 26  @..&...(P..(...&
00013800: 40 0b 89 26 00 05 99 28 50 0b 89 28 00 05 99 26  @..&...(P..(...&
00013810: 40 0b 89 26 00 05 99 28 50 00 99 2a 40 0b 89 28  @..&...(P..*@..(
00013820: 00 05 99 26 40 03 89 2a 00 08 89 26 00 05 99 28  ...&@..*...&...(
00013830: 50 0b 89 28 00 05 99 26 40 0b 89 26 00 05 99 28  P..(...&@..&...(
00013840: 50 0b 89 28 00 05 99 26 40 0b 89 26 00 05 99 28  P..(...&@..&...(
00013850: 50 0b 89 28 00 05 99 26 40 00 99 2a 40 0b 89 26  P..(...&@..*@..&
00013860: 00 05 99 28 50 08 89 2a 00 03 89 28 00 05 99 26  ...(P..*...(...&
00013870: 40 0b 89 26 00 05 99 28 50 0b 89 28 00 05 99 26  @..&...(P..(...&
00013880: 40 00 99 2a 40 08 99 23 40 03 89 26 00 05 99 28  @..*@..#@..&...(
00013890: 50 0b 89 28 00 00 89 2a 00 05 99 28 50 08 89 23  P..(...*...(P..#
000138a0: 00 03 89 28 00 05 99 28 50 0b 89 28 00 05 99 3b  ...(...(P..(...;
000138b0: 40 01 99 24 40 02 99 2a 40 05 99 23 40 13 89 2a  @..$@..*@..#@..*
000138c0: 00 05 89 3b 00 09 89 23 00 03 89 24 00 14 99 28  ...;...#...$...(
000138d0: 50 00 99 2a 40 13 89 28 00 08 89 2a 00 08 99 24  P..*@..(...*...$
000138e0: 40 1d 99 2a 40 03 89 24 00 0d 99 28 50 0b 89 2a  @..*@..$...(P..*
000138f0: 00 08 89 28 00 1d 99 2a 40 08 99 24 40 10 89 2a  ...(...*@..$@..*
00013900: 00 14 89 24 00 04 99 28 50 10 99 2a 40 03 89 28  ...$...(P..*@..(
00013910: 00 18 89 2a 00 2d 99 24 40 23 89 24 00 00 ff 7f  ...*.-.$@#.$....
00013920: 1c 24 24 00 08 00 00 00 00 00 00 14 ff 00 00 00  .$$.............
00013930: 00 00 00 21 00 00 01 39 6b 00 00 0c 00 00 ff 7f  ...!...9k.......
00013940: 05 24 24 00 01 00 00 ff 7f 06 24 24 00 06 04 04  .$$.......$$....
00013950: 00 ff 7f 05 24 24 00 02 0f 01 ff 2f 00 4d 54 72  ....$$...../.MTr
00013960: 6b 00 00 00 43 00 ff 00 02 00 08 00 ff 03 0e 43  k...C..........C
00013970: 68 72 69 73 20 41 68 6c 73 74 72 6f 6d 00 c0 3e  hris Ahlstrom..>
00013980: 00 ff 7f 04 24 24 00 08 00 ff 7f 05 24 24 00 01  ....$$......$$..
00013990: 00 00 ff 7f 06 24 24 00 06 04 04 00 ff 7f 05 24  .....$$........$
000139a0: 24 00 02 00 30 ff 2f 00 4d 54 72 6b 00 00 00 44  $...0./.MTrk...D
000139b0: 00 ff 00 02 00 09 00 ff 03 0f 28 47 45 6e 69 65  ..........(GEnie
000139c0: 3a 20 4b 49 43 4b 41 48 41 00 c0 3e 00 ff 7f 04  : KICKAHA..>....
000139d0: 24 24 00 08 00 ff 7f 05 24 24 00 01 00 00 ff 7f  $$......$$......
000139e0: 06 24 24 00 06 04 04 00 ff 7f 05 24 24 00 02 00  .$$........$$...
000139f0: 30 ff 2f 00 4d 54 72 6b 00 00 00 3d 00 ff 00 02  0./.MTrk...=....
00013a00: 00 0a 00 ff 03 0b 22 42 65 66 6f 72 65 20 59 6f  ......"Before Yo
00013a10: 75 00 ff 7f 04 24 24 00 08 00 ff 7f 05 24 24 00  u....$$......$$.
00013a20: 01 00 00 ff 7f 06 24 24 00 06 04 04 00 ff 7f 05  ......$$........
00013a30: 24 24 00 02 00 30 ff 2f 00 4d 54 72 6b 00 00 00  $$...0./.MTrk...
00013a40: 3f 00 ff 00 02 00 0b 00 ff 03 0d 41 63 63 75 73  ?..........Accus
00013a50: 65 20 4d 65 22 20 62 79 00 ff 7f 04 24 24 00 08  e Me" by....$$..
00013a60: 00 ff 7f 05 24 24 00 01 00 00 ff 7f 06 24 24 00  ....$$.......$$.
00013a70: 06 04 04 00 ff 7f 05 24 24 00 02 00 30 ff 2f 00  .......$$...0./.
00013a80: 4d 54 72 6b 00 00 00 40 00 ff 00 02 00 0c 00 ff  MTrk...@........
00013a90: 03 0e 45 72 69 63 20 43 6c 61 70 74 6f 6e 20 26  ..Eric Clapton &
00013aa0: 00 ff 7f 04 24 24 00 08 00 ff 7f 05 24 24 00 01  ....$$......$$..
00013ab0: 00 00 ff 7f 06 24 24 00 06 04 04 00 ff 7f 05 24  .....$$........$
00013ac0: 24 00 02 00 30 ff 2f 00 4d 54 72 6b 00 00 00 3d  $...0./.MTrk...=
00013ad0: 00 ff 00 02 00 0d 00 ff 03 0b 52 6f 62 65 72 74  ..........Robert
00013ae0: 20 43 72 61 79 00 ff 7f 04 24 24 00 08 00 ff 7f   Cray....$$.....
00013af0: 05 24 24 00 01 00 00 ff 7f 06 24 24 00 06 04 04  .$$.......$$....
00013b00: 00 ff 7f 05 24 24 00 02 00 30 ff 2f 00 4d 54 72  ....$$...0./.MTr
00013b10: 6b 00 00 11 0d 00 ff 00 02 77 77 00 ff 03 0d 53  k........ww....S
00013b20: 65 71 75 65 6e 63 65 72 32 34 2d 53 00 ff 7f 04  equencer24-S....
00013b30: 24 24 00 10 00 ff 7f 04 24 24 00 03 00 ff 7f 46  $$......$$.....F
00013b40: 24 24 00 05 00 20 00 00 00 00 00 00 00 00 00 00  $$... ..........
00013b50: 00 00 00 00 00 00 00 00 00 00 00 00 00 00 00 00  ................
00013b60: 00 00 00 00 00 00 00 00 00 00 00 00 00 00 00 00  ................
00013b70: 00 00 00 00 00 00 00 00 00 00 00 00 00 00 00 00  ................
00013b80: 00 00 00 00 00 00 00 ff 7f 08 24 24 00 07 00 00  ..........$$....
00013b90: 00 78 00 ff 7f a1 07 24 24 00 09 00 00 04 00 00  .x.....$$.......
00013ba0: 00 00 00 00 00 00 00 00 00 00 00 00 00 00 00 00  ................
00013bb0: 00 00 00 00 00 00 00 00 00 00 00 00 00 00 00 00  ................
00013bc0: 00 00 00 00 00 00 00 00 00 00 00 00 00 00 00 00  ................
00013bd0: 00 00 00 00 00 00 00 00 00 00 00 00 00 00 00 00  ................
00013be0: 00 00 00 00 00 00 00 00 00 00 00 00 00 00 00 00  ................
00013bf0: 00 00 00 00 00 00 00 00 00 00 00 00 00 00 00 00  ................
00013c00: 00 00 00 00 00 00 00 00 00 00 00 00 00 00 00 00  ................
00013c10: 00 00 00 00 00 00 00 00 00 00 00 00 00 00 00 00  ................
00013c20: 00 00 00 00 00 00 01 00 00 00 00 00 00 00 00 00  ................
00013c30: 00 00 00 00 00 00 00 00 00 00 00 00 00 00 00 00  ................
00013c40: 00 00 00 00 00 00 00 00 00 00 00 00 00 00 00 00  ................
00013c50: 00 00 00 00 00 00 00 00 00 00 00 00 00 00 00 00  ................
00013c60: 00 00 00 00 00 00 00 00 00 00 00 00 00 00 00 00  ................
00013c70: 00 00 00 00 00 00 00 00 00 00 00 00 00 00 00 00  ................
00013c80: 00 00 00 00 00 00 00 00 00 00 00 00 00 00 00 00  ................
00013c90: 00 00 00 00 00 00 00 00 00 00 00 00 00 00 00 00  ................
00013ca0: 00 00 00 00 00 00 00 00 00 00 02 00 00 00 00 00  ................
00013cb0: 00 00 00 00 00 00 00 00 00 00 00 00 00 00 00 00  ................
00013cc0: 00 00 00 00 00 00 00 00 00 00 00 00 00 00 00 00  ................
00013cd0: 00 00 00 00 00 00 00 00 00 00 00 00 00 00 00 00  ................
00013ce0: 00 00 00 00 00 00 00 00 00 00 00 00 00 00 00 00  ................
00013cf0: 00 00 00 00 00 00 00 00 00 00 00 00 00 00 00 00  ................
00013d00: 00 00 00 00 00 00 00 00 00 00 00 00 00 00 00 00  ................
00013d10: 00 00 00 00 00 00 00 00 00 00 00 00 00 00 00 00  ................
00013d20: 00 00 00 00 00 00 00 00 00 00 00 00 00 00 03 00  ................
00013d30: 00 00 00 00 00 00 00 00 00 00 00 00 00 00 00 00  ................
00013d40: 00 00 00 00 00 00 00 00 00 00 00 00 00 00 00 00  ................
00013d50: 00 00 00 00 00 00 00 00 00 00 00 00 00 00 00 00  ................
00013d60: 00 00 00 00 00 00 00 00 00 00 00 00 00 00 00 00  ................
00013d70: 00 00 00 00 00 00 00 00 00 00 00 00 00 00 00 00  ................
00013d80: 00 00 00 00 00 00 00 00 00 00 00 00 00 00 00 00  ................
00013d90: 00 00 00 00 00 00 00 00 00 00 00 00 00 00 00 00  ................
00013da0: 00 00 00 00 00 00 00 00 00 00 00 00 00 00 00 00  ................
00013db0: 00 00 04 00 00 00 00 00 00 00 00 00 00 00 00 00  ................
00013dc0: 00 00 00 00 00 00 00 00 00 00 00 00 00 00 00 00  ................
00013dd0: 00 00 00 00 00 00 00 00 00 00 00 00 00 00 00 00  ................
00013de0: 00 00 00 00 00 00 00 00 00 00 00 00 00 00 00 00  ................
00013df0: 00 00 00 00 00 00 00 00 00 00 00 00 00 00 00 00  ................
00013e00: 00 00 00 00 00 00 00 00 00 00 00 00 00 00 00 00  ................
00013e10: 00 00 00 00 00 00 00 00 00 00 00 00 00 00 00 00  ................
00013e20: 00 00 00 00 00 00 00 00 00 00 00 00 00 00 00 00  ................
00013e30: 00 00 00 00 00 00 05 00 00 00 00 00 00 00 00 00  ................
00013e40: 00 00 00 00 00 00 00 00 00 00 00 00 00 00 00 00  ................
00013e50: 00 00 00 00 00 00 00 00 00 00 00 00 00 00 00 00  ................
00013e60: 00 00 00 00 00 00 00 00 00 00 00 00 00 00 00 00  ................
00013e70: 00 00 00 00 00 00 00 00 00 00 00 00 00 00 00 00  ................
00013e80: 00 00 00 00 00 00 00 00 00 00 00 00 00 00 00 00  ................
00013e90: 00 00 00 00 00 00 00 00 00 00 00 00 00 00 00 00  ................
00013ea0: 00 00 00 00 00 00 00 00 00 00 00 00 00 00 00 00  ................
00013eb0: 00 00 00 00 00 00 00 00 00 00 06 00 00 00 00 00  ................
00013ec0: 00 00 00 00 00 00 00 00 00 00 00 00 00 00 00 00  ................
00013ed0: 00 00 00 00 00 00 00 00 00 00 00 00 00 00 00 00  ................
00013ee0: 00 00 00 00 00 00 00 00 00 00 00 00 00 00 00 00  ................
00013ef0: 00 00 00 00 00 00 00 00 00 00 00 00 00 00 00 00  ................
00013f00: 00 00 00 00 00 00 00 00 00 00 00 00 00 00 00 00  ................
00013f10: 00 00 00 00 00 00 00 00 00 00 00 00 00 00 00 00  ................
00013f20: 00 00 00 00 00 00 00 00 00 00 00 00 00 00 00 00  ................
00013f30: 00 00 00 00 00 00 00 00 00 00 00 00 00 00 07 00  ................
00013f40: 00 00 00 00 00 00 00 00 00 00 00 00 00 00 00 00  ................
00013f50: 00 00 00 00 00 00 00 00 00 00 00 00 00 00 00 00  ................
00013f60: 00 00 00 00 00 00 00 00 00 00 00 00 00 00 00 00  ................
00013f70: 00 00 00 00 00 00 00 00 00 00 00 00 00 00 00 00  ................
00013f80: 00 00 00 00 00 00 00 00 00 00 00 00 00 00 00 00  ................
00013f90: 00 00 00 00 00 00 00 00 00 00 00 00 00 00 00 00  ................
00013fa0: 00 00 00 00 00 00 00 00 00 00 00 00 00 00 00 00  ................
00013fb0: 00 00 00 00 00 00 00 00 00 00 00 00 00 00 00 00  ................
00013fc0: 00 00 08 00 00 00 00 00 00 00 00 00 00 00 00 00  ................
00013fd0: 00 00 00 00 00 00 00 00 00 00 00 00 00 00 00 00  ................
00013fe0: 00 00 00 00 00 00 00 00 00 00 00 00 00 00 00 00  ................
00013ff0: 00 00 00 00 00 00 00 00 00 00 00 00 00 00 00 00  ................
00014000: 00 00 00 00 00 00 00 00 00 00 00 00 00 00 00 00  ................
00014010: 00 00 00 00 00 00 00 00 00 00 00 00 00 00 00 00  ................
00014020: 00 00 00 00 00 00 00 00 00 00 00 00 00 00 00 00  ................
00014030: 00 00 00 00 00 00 00 00 00 00 00 00 00 00 00 00  ................
00014040: 00 00 00 00 00 00 09 00 00 00 00 00 00 00 00 00  ................
00014050: 00 00 00 00 00 00 00 00 00 00 00 00 00 00 00 00  ................
00014060: 00 00 00 00 00 00 00 00 00 00 00 00 00 00 00 00  ................
00014070: 00 00 00 00 00 00 00 00 00 00 00 00 00 00 00 00  ................
00014080: 00 00 00 00 00 00 00 00 00 00 00 00 00 00 00 00  ................
00014090: 00 00 00 00 00 00 00 00 00 00 00 00 00 00 00 00  ................
000140a0: 00 00 00 00 00 00 00 00 00 00 00 00 00 00 00 00  ................
000140b0: 00 00 00 00 00 00 00 00 00 00 00 00 00 00 00 00  ................
000140c0: 00 00 00 00 00 00 00 00 00 00 0a 00 00 00 00 00  ................
000140d0: 00 00 00 00 00 00 00 00 00 00 00 00 00 00 00 00  ................
000140e0: 00 00 00 00 00 00 00 00 00 00 00 00 00 00 00 00  ................
000140f0: 00 00 00 00 00 00 00 00 00 00 00 00 00 00 00 00  ................
00014100: 00 00 00 00 00 00 00 00 00 00 00 00 00 00 00 00  ................
00014110: 00 00 00 00 00 00 00 00 00 00 00 00 00 00 00 00  ................
00014120: 00 00 00 00 00 00 00 00 00 00 00 00 00 00 00 00  ................
00014130: 00 00 00 00 00 00 00 00 00 00 00 00 00 00 00 00  ................
00014140: 00 00 00 00 00 00 00 00 00 00 00 00 00 00 0b 00  ................
00014150: 00 00 00 00 00 00 00 00 00 00 00 00 00 00 00 00  ................
00014160: 00 00 00 00 00 00 00 00 00 00 00 00 00 00 00 00  ................
00014170: 00 00 00 00 00 00 00 00 00 00 00 00 00 00 00 00  ................
00014180: 00 00 00 00 00 00 00 00 00 00 00 00 00 00 00 00  ................
00014190: 00 00 00 00 00 00 00 00 00 00 00 00 00 00 00 00  ................
000141a0: 00 00 00 00 00 00 00 00 00 00 00 00 00 00 00 00  ................
000141b0: 00 00 00 00 00 00 00 00 00 00 00 00 00 00 00 00  ................
000141c0: 00 00 00 00 00 00 00 00 00 00 00 00 00 00 00 00  ................
000141d0: 00 00 0c 00 00 00 00 00 00 00 00 00 00 00 00 00  ................
000141e0: 00 00 00 00 00 00 00 00 00 00 00 00 00 00 00 00  ................
000141f0: 00 00 00 00 00 00 00 00 00 00 00 00 00 00 00 00  ................
00014200: 00 00 00 00 00 00 00 00 00 00 00 00 00 00 00 00  ................
00014210: 00 00 00 00 00 00 00 00 00 00 00 00 00 00 00 00  ................
00014220: 00 00 00 00 00 00 00 00 00 00 00 00 00 00 00 00  ................
00014230: 00 00 00 00 00 00 00 00 00 00 00 00 00 00 00 00  ................
00014240: 00 00 00 00 00 00 00 00 00 00 00 00 00 00 00 00  ................
00014250: 00 00 00 00 00 00 0d 00 00 00 00 00 00 00 00 00  ................
00014260: 00 00 00 00 00 00 00 00 00 00 00 00 00 00 00 00  ................
00014270: 00 00 00 00 00 00 00 00 00 00 00 00 00 00 00 00  ................
00014280: 00 00 00 00 00 00 00 00 00 00 00 00 00 00 00 00  ................
00014290: 00 00 00 00 00 00 00 00 00 00 00 00 00 00 00 00  ................
000142a0: 00 00 00 00 00 00 00 00 00 00 00 00 00 00 00 00  ................
000142b0: 00 00 00 00 00 00 00 00 00 00 00 00 00 00 00 00  ................
000142c0: 00 00 00 00 00 00 00 00 00 00 00 00 00 00 00 00  ................
000142d0: 00 00 00 00 00 00 00 00 00 00 0e 00 00 00 00 00  ................
000142e0: 00 00 00 00 00 00 00 00 00 00 00 00 00 00 00 00  ................
000142f0: 00 00 00 00 00 00 00 00 00 00 00 00 00 00 00 00  ................
00014300: 00 00 00 00 00 00 00 00 00 00 00 00 00 00 00 00  ................
00014310: 00 00 00 00 00 00 00 00 00 00 00 00 00 00 00 00  ................
00014320: 00 00 00 00 00 00 00 00 00 00 00 00 00 00 00 00  ................
00014330: 00 00 00 00 00 00 00 00 00 00 00 00 00 00 00 00  ................
00014340: 00 00 00 00 00 00 00 00 00 00 00 00 00 00 00 00  ................
00014350: 00 00 00 00 00 00 00 00 00 00 00 00 00 00 0f 00  ................
00014360: 00 00 00 00 00 00 00 00 00 00 00 00 00 00 00 00  ................
00014370: 00 00 00 00 00 00 00 00 00 00 00 00 00 00 00 00  ................
00014380: 00 00 00 00 00 00 00 00 00 00 00 00 00 00 00 00  ................
00014390: 00 00 00 00 00 00 00 00 00 00 00 00 00 00 00 00  ................
000143a0: 00 00 00 00 00 00 00 00 00 00 00 00 00 00 00 00  ................
000143b0: 00 00 00 00 00 00 00 00 00 00 00 00 00 00 00 00  ................
000143c0: 00 00 00 00 00 00 00 00 00 00 00 00 00 00 00 00  ................
000143d0: 00 00 00 00 00 00 00 00 00 00 00 00 00 00 00 00  ................
000143e0: 00 00 10 00 00 00 00 00 00 00 00 00 00 00 00 00  ................
000143f0: 00 00 00 00 00 00 00 00 00 00 00 00 00 00 00 00  ................
00014400: 00 00 00 00 00 00 00 00 00 00 00 00 00 00 00 00  ................
00014410: 00 00 00 00 00 00 00 00 00 00 00 00 00 00 00 00  ................
00014420: 00 00 00 00 00 00 00 00 00 00 00 00 00 00 00 00  ................
00014430: 00 00 00 00 00 00 00 00 00 00 00 00 00 00 00 00  ................
00014440: 00 00 00 00 00 00 00 00 00 00 00 00 00 00 00 00  ................
00014450: 00 00 00 00 00 00 00 00 00 00 00 00 00 00 00 00  ................
00014460: 00 00 00 00 00 00 11 00 00 00 00 00 00 00 00 00  ................
00014470: 00 00 00 00 00 00 00 00 00 00 00 00 00 00 00 00  ................
00014480: 00 00 00 00 00 00 00 00 00 00 00 00 00 00 00 00  ................
00014490: 00 00 00 00 00 00 00 00 00 00 00 00 00 00 00 00  ................
000144a0: 00 00 00 00 00 00 00 00 00 00 00 00 00 00 00 00  ................
000144b0: 00 00 00 00 00 00 00 00 00 00 00 00 00 00 00 00  ................
000144c0: 00 00 00 00 00 00 00 00 00 00 00 00 00 00 00 00  ................
000144d0: 00 00 00 00 00 00 00 00 00 00 00 00 00 00 00 00  ................
000144e0: 00 00 00 00 00 00 00 00 00 00 12 00 00 00 00 00  ................
000144f0: 00 00 00 00 00 00 00 00 00 00 00 00 00 00 00 00  ................
00014500: 00 00 00 00 00 00 00 00 00 00 00 00 00 00 00 00  ................
00014510: 00 00 00 00 00 00 00 00 00 00 00 00 00 00 00 00  ................
00014520: 00 00 00 00 00 00 00 00 00 00 00 00 00 00 00 00  ................
00014530: 00 00 00 00 00 00 00 00 00 00 00 00 00 00 00 00  ................
00014540: 00 00 00 00 00 00 00 00 00 00 00 00 00 00 00 00  ................
00014550: 00 00 00 00 00 00 00 00 00 00 00 00 00 00 00 00  ................
00014560: 00 00 00 00 00 00 00 00 00 00 00 00 00 00 13 00  ................
00014570: 00 00 00 00 00 00 00 00 00 00 00 00 00 00 00 00  ................
00014580: 00 00 00 00 00 00 00 00 00 00 00 00 00 00 00 00  ................
00014590: 00 00 00 00 00 00 00 00 00 00 00 00 00 00 00 00  ................
000145a0: 00 00 00 00 00 00 00 00 00 00 00 00 00 00 00 00  ................
000145b0: 00 00 00 00 00 00 00 00 00 00 00 00 00 00 00 00  ................
000145c0: 00 00 00 00 00 00 00 00 00 00 00 00 00 00 00 00  ................
000145d0: 00 00 00 00 00 00 00 00 00 00 00 00 00 00 00 00  ................
000145e0: 00 00 00 00 00 00 00 00 00 00 00 00 00 00 00 00  ................
000145f0: 00 00 14 00 00 00 00 00 00 00 00 00 00 00 00 00  ................
00014600: 00 00 00 00 00 00 00 00 00 00 00 00 00 00 00 00  ................
00014610: 00 00 00 00 00 00 00 00 00 00 00 00 00 00 00 00  ................
00014620: 00 00 00 00 00 00 00 00 00 00 00 00 00 00 00 00  ................
00014630: 00 00 00 00 00 00 00 00 00 00 00 00 00 00 00 00  ................
00014640: 00 00 00 00 00 00 00 00 00 00 00 00 00 00 00 00  ................
00014650: 00 00 00 00 00 00 00 00 00 00 00 00 00 00 00 00  ................
00014660: 00 00 00 00 00 00 00 00 00 00 00 00 00 00 00 00  ................
00014670: 00 00 00 00 00 00 15 00 00 00 00 00 00 00 00 00  ................
00014680: 00 00 00 00 00 00 00 00 00 00 00 00 00 00 00 00  ................
00014690: 00 00 00 00 00 00 00 00 00 00 00 00 00 00 00 00  ................
000146a0: 00 00 00 00 00 00 00 00 00 00 00 00 00 00 00 00  ................
000146b0: 00 00 00 00 00 00 00 00 00 00 00 00 00 00 00 00  ................
000146c0: 00 00 00 00 00 00 00 00 00 00 00 00 00 00 00 00  ................
000146d0: 00 00 00 00 00 00 00 00 00 00 00 00 00 00 00 00  ................
000146e0: 00 00 00 00 00 00 00 00 00 00 00 00 00 00 00 00  ................
000146f0: 00 00 00 00 00 00 00 00 00 00 16 00 00 00 00 00  ................
00014700: 00 00 00 00 00 00 00 00 00 00 00 00 00 00 00 00  ................
00014710: 00 00 00 00 00 00 00 00 00 00 00 00 00 00 00 00  ................
00014720: 00 00 00 00 00 00 00 00 00 00 00 00 00 00 00 00  ................
00014730: 00 00 00 00 00 00 00 00 00 00 00 00 00 00 00 00  ................
00014740: 00 00 00 00 00 00 00 00 00 00 00 00 00 00 00 00  ................
00014750: 00 00 00 00 00 00 00 00 00 00 00 00 00 00 00 00  ................
00014760: 00 00 00 00 00 00 00 00 00 00 00 00 00 00 00 00  ................
00014770: 00 00 00 00 00 00 00 00 00 00 00 00 00 00 17 00  ................
00014780: 00 00 00 00 00 00 00 00 00 00 00 00 00 00 00 00  ................
00014790: 00 00 00 00 00 00 00 00 00 00 00 00 00 00 00 00  ................
000147a0: 00 00 00 00 00 00 00 00 00 00 00 00 00 00 00 00  ................
000147b0: 00 00 00 00 00 00 00 00 00 00 00 00 00 00 00 00  ................
000147c0: 00 00 00 00 00 00 00 00 00 00 00 00 00 00 00 00  ................
000147d0: 00 00 00 00 00 00 00 00 00 00 00 00 00 00 00 00  ................
000147e0: 00 00 00 00 00 00 00 00 00 00 00 00 00 00 00 00  ................
000147f0: 00 00 00 00 00 00 00 00 00 00 00 00 00 00 00 00  ................
00014800: 00 00 18 00 00 00 00 00 00 00 00 00 00 00 00 00  ................
00014810: 00 00 00 00 00 00 00 00 00 00 00 00 00 00 00 00  ................
00014820: 00 00 00 00 00 00 00 00 00 00 00 00 00 00 00 00  ................
00014830: 00 00 00 00 00 00 00 00 00 00 00 00 00 00 00 00  ................
00014840: 00 00 00 00 00 00 00 00 00 00 00 00 00 00 00 00  ................
00014850: 00 00 00 00 00 00 00 00 00 00 00 00 00 00 00 00  ................
00014860: 00 00 00 00 00 00 00 00 00 00 00 00 00 00 00 00  ................
00014870: 00 00 00 00 00 00 00 00 00 00 00 00 00 00 00 00  ................
00014880: 00 00 00 00 00 00 19 00 00 00 00 00 00 00 00 00  ................
00014890: 00 00 00 00 00 00 00 00 00 00 00 00 00 00 00 00  ................
000148a0: 00 00 00 00 00 00 00 00 00 00 00 00 00 00 00 00  ................
000148b0: 00 00 00 00 00 00 00 00 00 00 00 00 00 00 00 00  ................
000148c0: 00 00 00 00 00 00 00 00 00 00 00 00 00 00 00 00  ................
000148d0: 00 00 00 00 00 00 00 00 00 00 00 00 00 00 00 00  ................
000148e0: 00 00 00 00 00 00 00 00 00 00 00 00 00 00 00 00  ................
000148f0: 00 00 00 00 00 00 00 00 00 00 00 00 00 00 00 00  ................
00014900: 00 00 00 00 00 00 00 00 00 00 1a 00 00 00 00 00  ................
00014910: 00 00 00 00 00 00 00 00 00 00 00 00 00 00 00 00  ................
00014920: 00 00 00 00 00 00 00 00 00 00 00 00 00 00 00 00  ................
00014930: 00 00 00 00 00 00 00 00 00 00 00 00 00 00 00 00  ................
00014940: 00 00 00 00 00 00 00 00 00 00 00 00 00 00 00 00  ................
00014950: 00 00 00 00 00 00 00 00 00 00 00 00 00 00 00 00  ................
00014960: 00 00 00 00 00 00 00 00 00 00 00 00 00 00 00 00  ................
00014970: 00 00 00 00 00 00 00 00 00 00 00 00 00 00 00 00  ................
00014980: 00 00 00 00 00 00 00 00 00 00 00 00 00 00 1b 00  ................
00014990: 00 00 00 00 00 00 00 00 00 00 00 00 00 00 00 00  ................
000149a0: 00 00 00 00 00 00 00 00 00 00 00 00 00 00 00 00  ................
000149b0: 00 00 00 00 00 00 00 00 00 00 00 00 00 00 00 00  ................
000149c0: 00 00 00 00 00 00 00 00 00 00 00 00 00 00 00 00  ................
000149d0: 00 00 00 00 00 00 00 00 00 00 00 00 00 00 00 00  ................
000149e0: 00 00 00 00 00 00 00 00 00 00 00 00 00 00 00 00  ................
000149f0: 00 00 00 00 00 00 00 00 00 00 00 00 00 00 00 00  ................
00014a00: 00 00 00 00 00 00 00 00 00 00 00 00 00 00 00 00  ................
00014a10: 00 00 1c 00 00 00 00 00 00 00 00 00 00 00 00 00  ................
00014a20: 00 00 00 00 00 00 00 00 00 00 00 00 00 00 00 00  ................
00014a30: 00 00 00 00 00 00 00 00 00 00 00 00 00 00 00 00  ................
00014a40: 00 00 00 00 00 00 00 00 00 00 00 00 00 00 00 00  ................
00014a50: 00 00 00 00 00 00 00 00 00 00 00 00 00 00 00 00  ................
00014a60: 00 00 00 00 00 00 00 00 00 00 00 00 00 00 00 00  ................
00014a70: 00 00 00 00 00 00 00 00 00 00 00 00 00 00 00 00  ................
00014a80: 00 00 00 00 00 00 00 00 00 00 00 00 00 00 00 00  ................
00014a90: 00 00 00 00 00 00 1d 00 00 00 00 00 00 00 00 00  ................
00014aa0: 00 00 00 00 00 00 00 00 00 00 00 00 00 00 00 00  ................
00014ab0: 00 00 00 00 00 00 00 00 00 00 00 00 00 00 00 00  ................
00014ac0: 00 00 00 00 00 00 00 00 00 00 00 00 00 00 00 00  ................
00014ad0: 00 00 00 00 00 00 00 00 00 00 00 00 00 00 00 00  ................
00014ae0: 00 00 00 00 00 00 00 00 00 00 00 00 00 00 00 00  ................
00014af0: 00 00 00 00 00 00 00 00 00 00 00 00 00 00 00 00  ................
00014b00: 00 00 00 00 00 00 00 00 00 00 00 00 00 00 00 00  ................
00014b10: 00 00 00 00 00 00 00 00 00 00 1e 00 00 00 00 00  ................
00014b20: 00 00 00 00 00 00 00 00 00 00 00 00 00 00 00 00  ................
00014b30: 00 00 00 00 00 00 00 00 00 00 00 00 00 00 00 00  ................
00014b40: 00 00 00 00 00 00 00 00 00 00 00 00 00 00 00 00  ................
00014b50: 00 00 00 00 00 00 00 00 00 00 00 00 00 00 00 00  ................
00014b60: 00 00 00 00 00 00 00 00 00 00 00 00 00 00 00 00  ................
00014b70: 00 00 00 00 00 00 00 00 00 00 00 00 00 00 00 00  ................
00014b80: 00 00 00 00 00 00 00 00 00 00 00 00 00 00 00 00  ................
00014b90: 00 00 00 00 00 00 00 00 00 00 00 00 00 00 1f 00  ................
00014ba0: 00 00 00 00 00 00 00 00 00 00 00 00 00 00 00 00  ................
00014bb0: 00 00 00 00 00 00 00 00 00 00 00 00 00 00 00 00  ................
00014bc0: 00 00 00 00 00 00 00 00 00 00 00 00 00 00 00 00  ................
00014bd0: 00 00 00 00 00 00 00 00 00 00 00 00 00 00 00 00  ................
00014be0: 00 00 00 00 00 00 00 00 00 00 00 00 00 00 00 00  ................
00014bf0: 00 00 00 00 00 00 00 00 00 00 00 00 00 00 00 00  ................
00014c00: 00 00 00 00 00 00 00 00 00 00 00 00 00 00 00 00  ................
00014c10: 00 00 00 00 00 00 00 00 00 00 00 00 00 00 00 ff  ................
00014c20: 2f 00 0a                                         /..
