Hex dump of b4uacuse-GM-format.midi
Chris Ahlstrom
2015-10-11

This file is the most recent rewriting of b4uacuse-GM-alternate.midi by
Sequencer 64, which restores the missing 02 at offset 0x19.

Created using vim and the command :%!xxd -g 1

00000000: 4d 54 68 64 00 00 00 06 00 01 00 0e 00 c0 4d 54  MThd..........MT
00000010: 72 6b 00 00 00 3a 00 ff 00 02 00 00 00 ff 03 08  rk...:..........
00000020: 55 6e 74 69 74 6c 65 64 00 ff 7f 04 24 24 00 08  Untitled....$$..
00000030: 00 ff 7f 05 24 24 00 01 00 00 ff 7f 06 24 24 00  ....$$.......$$.
00000040: 06 04 04 00 ff 7f 05 24 24 00 02 00 30 ff 2f 00  .......$$...0./.
00000050: 4d 54 72 6b 00 00 00 68 00 ff 00 02 00 01 00 ff  MTrk...h........
00000060: 03 0f 50 53 53 2d 37 39 30 20 50 61 74 63 68 69  ..PSS-790 Patchi
00000070: 6e 00 c4 21 00 c4 03 00 c4 45 00 c4 1a 00 c4 19  n..!.....E......
00000080: 00 ff 7f 1c 24 24 00 08 00 00 00 f0 00 00 01 1f  ....$$..........
00000090: 00 00 00 00 00 00 03 00 00 00 08 cf 00 00 00 00  ................
000000a0: 00 ff 7f 05 24 24 00 01 00 00 ff 7f 06 24 24 00  ....$$.......$$.
000000b0: 06 04 04 00 ff 7f 05 24 24 00 02 04 30 ff 2f 00  .......$$...0./.
000000c0: 4d 54 72 6b 00 00 48 8c 00 ff 00 02 00 02 00 ff  MTrk..H.........
000000d0: 03 0f 47 75 69 74 61 72 20 31 20 28 45 2e 43 2e  ..Guitar 1 (E.C.
000000e0: 29 84 40 90 47 7f 30 80 47 00 10 e0 00 40 00 90  ).@.G.0.G....@..
000000f0: 4a 7f 08 e0 00 41 10 e0 00 42 0b e0 00 41 08 e0  J....A...B...A..
00000100: 00 40 05 80 4a 00 10 90 4c 7f 30 80 4c 00 10 90  .@..J...L.0.L...
00000110: 4f 7f 6b e0 00 41 08 e0 00 42 08 e0 00 44 08 e0  O.k..A...B...D..
00000120: 00 44 08 e0 00 42 0d e0 00 41 10 e0 49 40 0b e0  .D...B...A..I@..
00000130: 00 40 0d 90 4c 7f 00 80 4f 00 30 80 4c 00 10 90  .@..L...O.0.L...
00000140: 4a 7f 30 80 4a 00 10 90 4c 7f 30 80 4c 00 10 90  J.0.J...L.0.L...
00000150: 4f 7f 08 e0 00 41 10 e0 00 42 0b e0 00 41 08 e0  O....A...B...A..
00000160: 00 40 05 80 4f 00 03 e0 00 40 00 e0 00 40 00 e0  .@..O....@...@..
00000170: 00 40 0d 90 4c 7f 30 80 4c 00 10 90 47 7f 30 80  .@..L.0.L...G.0.
00000180: 47 00 10 90 45 7f 30 80 45 00 10 90 44 7f 30 80  G...E.0.E...D.0.
00000190: 44 00 10 90 40 7f 30 80 40 00 10 90 47 7f 00 90  D...@.0.@...G...
000001a0: 40 7f 00 90 4c 7f 00 90 44 7f 70 80 44 00 00 80  @...L...D.p.D...
000001b0: 47 00 00 80 40 00 00 80 4c 00 10 90 39 7f 30 80  G...@...L...9.0.
000001c0: 39 00 10 90 3b 7f 00 90 3f 7f 00 90 4b 7f 20 80  9...;...?...K. .
000001d0: 4b 00 50 80 3f 00 00 80 3b 00 10 90 3b 7f 00 90  K.P.?...;...;...
000001e0: 3f 7f 00 90 4b 7f 20 80 4b 00 81 10 80 3f 00 00  ?...K. .K....?..
000001f0: 80 3b 00 10 90 3b 7f 30 80 3b 00 10 90 3e 7f 30  .;...;.0.;...>.0
00000200: 80 3e 00 10 90 3f 7f 30 80 3f 00 10 90 40 7f 30  .>...?.0.?...@.0
00000210: 80 40 00 10 90 34 7f 00 90 3b 7f 70 80 3b 00 00  .@...4...;.p.;..
00000220: 80 34 00 10 90 34 7f 30 80 34 00 10 90 34 7f 00  .4...4.0.4...4..
00000230: 90 3d 7f 70 80 3d 00 00 80 34 00 10 90 34 7f 30  .=.p.=...4...4.0
00000240: 80 34 00 10 90 34 7f 00 90 3b 7f 70 80 3b 00 00  .4...4...;.p.;..
00000250: 80 34 00 10 90 34 7f 30 80 34 00 10 90 34 7f 00  .4...4.0.4...4..
00000260: 90 3d 7f 70 80 3d 00 00 80 34 00 10 90 34 7f 10  .=.p.=...4...4..
00000270: 80 34 00 30 90 3e 7f 00 90 34 7f 81 10 80 34 00  .4.0.>...4....4.
00000280: 00 80 3e 00 30 90 3d 7f 00 90 34 7f 81 10 80 34  ..>.0.=...4....4
00000290: 00 00 80 3d 00 30 90 34 7f 00 90 3b 7f 70 80 3b  ...=.0.4...;.p.;
000002a0: 00 00 80 34 00 10 90 34 7f 30 80 34 00 10 90 3e  ...4...4.0.4...>
000002b0: 7f 30 80 3e 00 10 90 3d 7f 30 80 3d 00 10 90 39  .0.>...=.0.=...9
000002c0: 7f 30 80 39 00 10 90 39 7f 00 90 40 7f 70 80 40  .0.9...9...@.p.@
000002d0: 00 00 80 39 00 10 90 39 7f 30 80 39 00 10 90 39  ...9...9.0.9...9
000002e0: 7f 00 90 42 7f 70 80 42 00 00 80 39 00 10 90 39  ...B.p.B...9...9
000002f0: 7f 30 80 39 00 10 90 39 7f 00 90 40 7f 70 80 40  .0.9...9...@.p.@
00000300: 00 00 80 39 00 10 90 39 7f 00 90 45 7f 20 80 45  ...9...9...E. .E
00000310: 00 10 80 39 00 10 90 39 7f 00 90 42 7f 00 90 4e  ...9...9...B...N
00000320: 7f 18 80 4e 00 58 80 42 00 00 80 39 00 10 90 40  ...N.X.B...9...@
00000330: 7f 30 80 40 00 10 90 34 7f 00 90 3b 7f 70 80 3b  .0.@...4...;.p.;
00000340: 00 00 80 34 00 10 90 34 7f 30 80 34 00 10 90 34  ...4...4.0.4...4
00000350: 7f 00 90 3d 7f 70 80 3d 00 00 80 34 00 10 90 34  ...=.p.=...4...4
00000360: 7f 30 80 34 00 10 90 34 7f 00 90 3e 7f 70 80 3e  .0.4...4...>.p.>
00000370: 00 00 80 34 00 10 90 34 7f 30 80 34 00 10 90 39  ...4...4.0.4...9
00000380: 7f 00 90 40 7f 18 80 40 00 00 80 39 00 28 90 45  ...@...@...9.(.E
00000390: 7f 00 90 40 7f 30 80 40 00 00 80 45 00 10 90 39  ...@.0.@...E...9
000003a0: 7f 00 90 40 7f 30 80 40 00 00 80 39 00 0c e0 00  ...@.0.@...9....
000003b0: 40 04 90 43 7f 01 e0 00 41 08 e0 00 42 07 e0 00  @..C....A...B...
000003c0: 41 03 e0 00 40 00 80 43 00 05 e0 00 3f 00 90 44  A...@..C....?..D
000003d0: 7f 03 e0 00 3e 06 e0 00 3f 03 e0 00 40 05 e0 00  ....>...?...@...
000003e0: 41 02 80 44 00 01 e0 00 42 04 90 43 7f 01 e0 00  A..D....B..C....
000003f0: 41 03 e0 00 40 05 e0 00 3f 03 e0 00 3e 05 e0 00  A...@...?...>...
00000400: 3f 03 e0 00 40 05 e0 00 41 03 e0 00 42 05 e0 00  ?...@...A...B...
00000410: 41 03 e0 00 40 05 e0 00 3f 03 e0 00 3e 07 e0 00  A...@...?...>...
00000420: 3f 08 e0 00 40 05 80 43 00 10 90 47 7f 00 90 4c  ?...@..C...G...L
00000430: 7f 30 80 4c 00 00 80 47 00 10 90 36 7f 00 90 3d  .0.L...G...6...=
00000440: 7f 70 80 3d 00 00 80 36 00 10 90 34 7f 30 80 34  .p.=...6...4.0.4
00000450: 00 10 90 34 7f 00 90 3b 7f 70 80 3b 00 00 80 34  ...4...;.p.;...4
00000460: 00 10 90 34 7f 30 80 34 00 10 90 37 7f 30 80 37  ...4.0.4...7.0.7
00000470: 00 10 90 39 7f 00 90 40 7f 30 80 40 00 00 80 39  ...9...@.0.@...9
00000480: 00 10 90 39 7f 00 90 42 7f 30 80 42 00 00 80 39  ...9...B.0.B...9
00000490: 00 10 90 39 7f 00 90 40 7f 70 80 40 00 00 80 39  ...9...@.p.@...9
000004a0: 00 10 90 39 7f 30 80 39 00 10 90 3c 7f 00 90 40  ...9.0.9...<...@
000004b0: 7f 70 80 40 00 00 80 3c 00 10 90 3d 7f 30 80 3d  .p.@...<...=.0.=
000004c0: 00 10 90 45 7f 00 90 51 7f 00 90 40 7f 00 90 45  ...E...Q...@...E
000004d0: 7f 10 80 51 00 60 80 45 00 00 80 40 00 00 80 45  ...Q.`.E...@...E
000004e0: 00 10 90 39 7f 30 80 39 00 10 90 42 7f 30 80 42  ...9.0.9...B.0.B
000004f0: 00 10 90 43 7f 30 80 43 00 10 90 42 7f 30 80 42  ...C.0.C...B.0.B
00000500: 00 10 90 39 7f 00 90 40 7f 70 80 40 00 00 80 39  ...9...@.p.@...9
00000510: 00 10 90 39 7f 30 80 39 00 10 90 42 7f 00 90 39  ...9.0.9...B...9
00000520: 7f 70 80 39 00 00 80 42 00 10 90 39 7f 30 80 39  .p.9...B...9.0.9
00000530: 00 10 90 39 7f 00 90 40 7f 70 80 40 00 00 80 39  ...9...@.p.@...9
00000540: 00 10 90 39 7f 30 80 39 00 10 90 39 7f 00 90 42  ...9.0.9...9...B
00000550: 7f 70 80 42 00 00 80 39 00 10 90 39 7f 30 80 39  .p.B...9...9.0.9
00000560: 00 10 90 34 7f 00 90 3b 7f 70 80 3b 00 00 80 34  ...4...;.p.;...4
00000570: 00 10 90 34 7f 30 80 34 00 10 90 34 7f 00 90 3d  ...4.0.4...4...=
00000580: 7f 70 80 3d 00 00 80 34 00 10 90 34 7f 30 80 34  .p.=...4...4.0.4
00000590: 00 10 90 34 7f 00 90 3b 7f 70 80 3b 00 00 80 34  ...4...;.p.;...4
000005a0: 00 10 90 34 7f 30 80 34 00 10 90 3b 7f 30 80 3b  ...4.0.4...;.0.;
000005b0: 00 10 90 45 7f 30 80 45 00 10 90 3b 7f 30 80 3b  ...E.0.E...;.0.;
000005c0: 00 10 e0 00 40 00 90 43 7f 03 e0 00 41 06 e0 00  ....@..C....A...
000005d0: 42 07 e0 00 41 03 e0 00 40 00 80 43 00 05 e0 00  B...A...@..C....
000005e0: 40 00 90 44 7f 03 e0 00 3e 05 e0 00 40 03 e0 00  @..D....>...@...
000005f0: 40 01 e0 00 41 04 e0 00 42 03 e0 00 44 00 80 44  @...A...B...D..D
00000600: 00 01 e0 00 45 04 e0 00 44 00 90 43 7f 03 e0 00  ....E...D..C....
00000610: 42 01 e0 00 41 04 e0 00 40 03 e0 00 3f 01 e0 00  B...A...@...?...
00000620: 3e 05 e0 00 3f 03 e0 00 40 05 e0 00 41 03 e0 00  >...?...@...A...
00000630: 42 04 e0 00 41 03 e0 00 40 01 e0 00 40 05 e0 00  B...A...@...@...
00000640: 3e 02 e0 00 3e 05 e0 00 3c 03 e0 00 3e 05 e0 00  >...>...<...>...
00000650: 3e 03 e0 00 40 05 80 43 00 10 90 34 7f 30 80 34  >...@..C...4.0.4
00000660: 00 10 90 3d 7f 70 80 3d 00 10 90 34 7f 30 80 34  ...=.p.=...4.0.4
00000670: 00 10 90 34 7f 00 90 3b 7f 70 80 3b 00 00 80 34  ...4...;.p.;...4
00000680: 00 10 90 34 7f 30 80 34 00 10 90 34 7f 00 90 3d  ...4.0.4...4...=
00000690: 7f 70 80 3d 00 00 80 34 00 10 90 34 7f 30 80 34  .p.=...4...4.0.4
000006a0: 00 10 90 3b 7f 70 80 3b 00 10 90 45 7f 70 80 45  ...;.p.;...E.p.E
000006b0: 00 10 90 47 7f 70 80 47 00 10 90 47 7f 70 80 47  ...G.p.G...G.p.G
000006c0: 00 10 90 45 7f 81 30 80 45 00 10 90 37 7f 03 e0  ...E..0.E...7...
000006d0: 00 40 05 e0 00 3f 03 e0 00 3e 05 e0 00 3c 00 90  .@...?...>...<..
000006e0: 38 7f 00 80 37 00 08 e0 00 3e 08 e0 00 3f 08 e0  8...7....>...?..
000006f0: 00 40 0b 80 38 00 0d 90 39 7f 00 90 40 7f 70 80  .@..8...9...@.p.
00000700: 40 00 00 80 39 00 10 90 39 7f 00 90 40 7f 30 80  @...9...9...@.0.
00000710: 40 00 00 80 39 00 10 90 42 7f 00 90 39 7f 70 80  @...9...B...9.p.
00000720: 39 00 00 80 42 00 10 90 39 7f 30 80 39 00 10 90  9...B...9.0.9...
00000730: 39 7f 00 90 43 7f 81 10 80 43 00 00 80 39 00 30  9...C....C...9.0
00000740: 90 39 7f 00 90 42 7f 70 80 42 00 00 80 39 00 10  .9...B.p.B...9..
00000750: 90 39 7f 30 80 39 00 10 90 34 7f 00 90 3b 7f 70  .9.0.9...4...;.p
00000760: 80 3b 00 00 80 34 00 10 90 34 7f 30 80 34 00 10  .;...4...4.0.4..
00000770: 90 34 7f 00 90 3d 7f 70 80 3d 00 00 80 34 00 10  .4...=.p.=...4..
00000780: 90 34 7f 30 80 34 00 10 90 34 7f 00 90 3b 7f 70  .4.0.4...4...;.p
00000790: 80 3b 00 00 80 34 00 10 90 34 7f 30 80 34 00 10  .;...4...4.0.4..
000007a0: 90 34 7f 00 90 3b 7f 10 80 3b 00 00 80 34 00 30  .4...;...;...4.0
000007b0: 90 40 7f 30 80 40 00 10 90 40 7f 30 80 40 00 10  .@.0.@...@.0.@..
000007c0: e0 00 40 00 90 43 7f 03 e0 00 41 05 90 44 7f 00  ..@..C....A..D..
000007d0: 80 43 00 01 e0 00 42 07 e0 00 41 00 90 43 7f 00  .C....B...A..C..
000007e0: 80 44 00 03 e0 00 40 05 e0 00 3f 03 e0 00 3e 06  .D....@...?...>.
000007f0: e0 00 3f 03 e0 00 40 05 e0 00 41 03 e0 00 42 04  ..?...@...A...B.
00000800: e0 00 41 03 e0 00 40 05 e0 00 3f 03 e0 00 3e 05  ..A...@...?...>.
00000810: e0 00 3f 03 e0 00 40 05 e0 00 41 03 e0 00 42 06  ..?...@...A...B.
00000820: e0 00 41 03 e0 00 40 05 e0 00 3f 03 e0 00 3e 08  ..A...@...?...>.
00000830: e0 00 3f 08 e0 00 40 04 80 43 00 03 e0 00 40 0d  ..?...@..C....@.
00000840: 90 3b 7f 30 80 3b 00 10 90 3f 7f 00 90 3b 7f 00  .;.0.;...?...;..
00000850: 90 45 7f 70 80 45 00 00 80 3b 00 00 80 3f 00 10  .E.p.E...;...?..
00000860: 90 3f 7f 00 90 45 7f 00 90 47 7f 70 80 47 00 00  .?...E...G.p.G..
00000870: 80 45 00 00 80 3f 00 10 90 45 7f 70 80 45 00 10  .E...?...E.p.E..
00000880: 90 47 7f 00 90 45 7f 00 90 3f 7f 81 10 80 3f 00  .G...E...?....?.
00000890: 00 80 45 00 00 80 47 00 30 90 3b 7f 00 90 34 7f  ..E...G.0.;...4.
000008a0: 70 80 34 00 00 80 3b 00 10 90 34 7f 30 80 34 00  p.4...;...4.0.4.
000008b0: 10 90 3d 7f 00 90 34 7f 70 80 34 00 00 80 3d 00  ..=...4.p.4...=.
000008c0: 10 90 34 7f 30 80 34 00 10 90 3e 7f 00 90 34 7f  ..4.0.4...>...4.
000008d0: 70 80 34 00 00 80 3e 00 10 90 34 7f 30 80 34 00  p.4...>...4.0.4.
000008e0: 10 90 3d 7f 30 80 3d 00 10 90 3e 7f 30 80 3e 00  ..=.0.=...>.0.>.
000008f0: 10 90 42 7f 00 90 39 7f 30 80 39 00 00 80 42 00  ..B...9.0.9...B.
00000900: 10 90 39 7f 00 90 40 7f 70 80 40 00 00 80 39 00  ..9...@.p.@...9.
00000910: 10 90 39 7f 00 90 40 7f 30 80 40 00 00 80 39 00  ..9...@.0.@...9.
00000920: 10 90 42 7f 00 90 39 7f 70 80 39 00 00 80 42 00  ..B...9.p.9...B.
00000930: 10 90 39 7f 00 90 45 7f 10 80 45 00 20 80 39 00  ..9...E...E. .9.
00000940: 10 90 40 7f 00 90 39 7f 81 10 80 39 00 00 80 40  ..@...9....9...@
00000950: 00 30 90 42 7f 00 90 39 7f 70 80 39 00 00 80 42  .0.B...9.p.9...B
00000960: 00 10 90 39 7f 30 80 39 00 10 90 34 7f 00 90 3b  ...9.0.9...4...;
00000970: 7f 70 80 3b 00 00 80 34 00 10 90 34 7f 00 90 3b  .p.;...4...4...;
00000980: 7f 30 80 3b 00 00 80 34 00 10 90 3d 7f 00 90 34  .0.;...4...=...4
00000990: 7f 70 80 34 00 00 80 3d 00 10 90 38 7f 30 80 38  .p.4...=...8.0.8
000009a0: 00 10 90 34 7f 00 90 3b 7f 70 80 3b 00 00 80 34  ...4...;.p.;...4
000009b0: 00 10 90 34 7f 30 80 34 00 10 90 34 7f 10 80 34  ...4.0.4...4...4
000009c0: 00 28 90 45 7f 30 80 45 00 10 90 40 7f 30 80 40  .(.E.0.E...@.0.@
000009d0: 00 11 e0 00 40 03 e0 00 41 04 90 43 7f 01 e0 00  ....@...A..C....
000009e0: 42 03 e0 00 44 05 e0 00 45 03 e0 00 44 00 80 43  B...D...E...D..C
000009f0: 00 04 90 44 7f 01 e0 00 42 02 e0 00 41 01 e0 00  ...D....B...A...
00000a00: 40 05 e0 00 3f 02 e0 00 3e 00 80 44 00 01 e0 00  @...?...>..D....
00000a10: 3f 04 90 43 7f 01 e0 00 40 02 e0 00 41 05 e0 00  ?..C....@...A...
00000a20: 42 01 e0 00 44 03 e0 24 44 04 e0 00 44 03 e0 00  B...D..$D...D...
00000a30: 42 01 e0 00 41 04 e0 00 40 03 e0 00 3f 01 e0 00  B...A...@...?...
00000a40: 3e 05 e0 00 3f 03 e0 00 40 05 e0 00 41 03 e0 00  >...?...@...A...
00000a50: 42 05 e0 00 41 03 e0 00 40 05 e0 00 3f 03 e0 00  B...A...@...?...
00000a60: 3e 07 e0 00 3f 08 e0 00 40 05 80 43 00 01 e0 00  >...?...@..C....
00000a70: 40 0f 90 34 7f 30 80 34 00 10 90 34 7f 00 90 3d  @..4.0.4...4...=
00000a80: 7f 70 80 3d 00 00 80 34 00 10 90 34 7f 30 80 34  .p.=...4...4.0.4
00000a90: 00 10 90 34 7f 00 90 3b 7f 70 80 3b 00 00 80 34  ...4...;.p.;...4
00000aa0: 00 10 90 34 7f 30 80 34 00 10 90 3d 7f 00 90 34  ...4.0.4...=...4
00000ab0: 7f 70 80 34 00 00 80 3d 00 10 90 34 7f 30 80 34  .p.4...=...4.0.4
00000ac0: 00 10 90 39 7f 00 90 40 7f 70 80 40 00 00 80 39  ...9...@.p.@...9
00000ad0: 00 10 90 39 7f 30 80 39 00 10 90 42 7f 00 90 39  ...9.0.9...B...9
00000ae0: 7f 70 80 39 00 00 80 42 00 10 90 39 7f 30 80 39  .p.9...B...9.0.9
00000af0: 00 10 90 39 7f 00 90 40 7f 70 80 40 00 00 80 39  ...9...@.p.@...9
00000b00: 00 10 90 39 7f 00 90 40 7f 30 80 40 00 00 80 39  ...9...@.0.@...9
00000b10: 00 0c e0 00 40 04 e0 00 41 00 90 42 7f 01 e0 00  ....@...A..B....
00000b20: 42 02 e0 00 44 01 e0 24 44 04 e0 00 44 03 e0 00  B...D..$D...D...
00000b30: 42 01 e0 00 41 05 e0 00 40 02 e0 00 40 05 e0 00  B...A...@...@...
00000b40: 3f 01 e0 00 3e 03 e0 00 3c 04 e0 00 3e 01 e0 00  ?...>...<...>...
00000b50: 3f 03 e0 00 40 0c 80 42 00 10 90 43 7f 30 80 43  ?...@..B...C.0.C
00000b60: 00 10 90 42 7f 30 80 42 00 10 90 40 7f 00 90 39  ...B.0.B...@...9
00000b70: 7f 70 80 39 00 00 80 40 00 10 90 39 7f 30 80 39  .p.9...@...9.0.9
00000b80: 00 10 90 42 7f 00 90 39 7f 81 10 80 39 00 00 80  ...B...9....9...
00000b90: 42 00 30 90 39 7f 00 90 40 7f 81 10 80 40 00 00  B.0.9...@....@..
00000ba0: 80 39 00 30 90 42 7f 00 90 39 7f 81 10 80 39 00  .9.0.B...9....9.
00000bb0: 00 80 42 00 30 90 34 7f 00 90 3b 7f 70 80 3b 00  ..B.0.4...;.p.;.
00000bc0: 00 80 34 00 10 90 34 7f 30 80 34 00 10 90 3d 7f  ..4...4.0.4...=.
00000bd0: 00 90 34 7f 70 80 34 00 00 80 3d 00 10 90 34 7f  ..4.p.4...=...4.
00000be0: 30 80 34 00 10 90 3b 7f 00 90 34 7f 70 80 34 00  0.4...;...4.p.4.
00000bf0: 00 80 3b 00 10 90 4c 7f 00 90 34 7f 10 80 4c 00  ..;...L...4...L.
00000c00: 20 80 34 00 10 90 3b 7f 00 90 34 7f 10 80 34 00   .4...;...4...4.
00000c10: 00 80 3b 00 30 90 55 7f 00 90 45 7f 00 90 49 7f  ..;.0.U...E...I.
00000c20: 10 80 55 00 20 80 49 00 00 80 45 00 10 90 40 7f  ..U. .I...E...@.
00000c30: 30 80 40 00 10 e0 00 40 00 90 43 7f 03 e0 00 41  0.@....@..C....A
00000c40: 06 e0 00 42 02 80 43 00 01 e0 00 41 04 90 44 7f  ...B..C....A..D.
00000c50: 01 e0 00 40 03 e0 00 3f 05 e0 00 3e 03 e0 00 3f  ...@...?...>...?
00000c60: 00 80 44 00 04 90 43 7f 01 e0 00 40 07 e0 00 41  ..D...C....@...A
00000c70: 03 e0 00 42 06 e0 00 41 03 e0 00 40 05 e0 00 3f  ...B...A...@...?
00000c80: 03 e0 00 3e 05 e0 00 3f 03 e0 00 40 05 e0 00 41  ...>...?...@...A
00000c90: 03 e0 00 42 04 e0 00 41 03 e0 00 40 01 e0 00 40  ...B...A...@...@
00000ca0: 05 e0 00 3f 02 e0 00 3e 05 e0 00 3c 01 e0 00 3e  ...?...>...<...>
00000cb0: 03 e0 00 3f 04 e0 00 40 08 80 43 00 10 90 34 7f  ...?...@..C...4.
00000cc0: 30 80 34 00 10 90 34 7f 00 90 3d 7f 70 80 3d 00  0.4...4...=.p.=.
00000cd0: 00 80 34 00 10 90 34 7f 30 80 34 00 10 90 34 7f  ..4...4.0.4...4.
00000ce0: 00 90 3b 7f 70 80 3b 00 00 80 34 00 10 90 34 7f  ..;.p.;...4...4.
00000cf0: 30 80 34 00 10 90 34 7f 00 90 3d 7f 70 80 3d 00  0.4...4...=.p.=.
00000d00: 00 80 34 00 10 90 3e 7f 30 80 3e 00 10 90 3f 7f  ..4...>.0.>...?.
00000d10: 70 80 3f 00 10 90 45 7f 81 30 80 45 00 10 90 47  p.?...E..0.E...G
00000d20: 7f 81 30 80 47 00 10 90 45 7f 30 80 45 00 10 90  ..0.G...E.0.E...
00000d30: 47 7f 81 10 80 47 00 30 90 40 7f 00 90 39 7f 00  G....G.0.@...9..
00000d40: 90 45 7f 70 80 45 00 00 80 39 00 00 80 40 00 10  .E.p.E...9...@..
00000d50: 90 39 7f 00 90 40 7f 00 90 45 7f 30 80 45 00 00  .9...@...E.0.E..
00000d60: 80 40 00 00 80 39 00 10 90 39 7f 00 90 40 7f 00  .@...9...9...@..
00000d70: 90 45 7f 70 80 45 00 00 80 40 00 00 80 39 00 10  .E.p.E...@...9..
00000d80: 90 39 7f 30 80 39 00 10 90 39 7f 00 90 42 7f 00  .9.0.9...9...B..
00000d90: 90 45 7f 70 80 45 00 00 80 42 00 00 80 39 00 10  .E.p.E...B...9..
00000da0: 90 39 7f 30 80 39 00 10 90 40 7f 30 80 40 00 10  .9.0.9...@.0.@..
00000db0: 90 42 7f 30 80 42 00 10 90 43 7f 30 80 43 00 10  .B.0.B...C.0.C..
00000dc0: 90 34 7f 00 90 3b 7f 70 80 3b 00 00 80 34 00 10  .4...;.p.;...4..
00000dd0: 90 34 7f 30 80 34 00 10 90 34 7f 00 90 3d 7f 70  .4.0.4...4...=.p
00000de0: 80 3d 00 00 80 34 00 10 90 34 7f 30 80 34 00 10  .=...4...4.0.4..
00000df0: 90 34 7f 00 90 3b 7f 70 80 3b 00 00 80 34 00 10  .4...;.p.;...4..
00000e00: 90 34 7f 00 90 3b 7f 30 80 3b 00 00 80 34 00 10  .4...;.0.;...4..
00000e10: 90 34 7f 00 90 3b 7f 10 80 3b 00 00 80 34 00 30  .4...;...;...4.0
00000e20: 90 45 7f 00 90 40 7f 30 80 40 00 00 80 45 00 10  .E...@.0.@...E..
00000e30: 90 40 7f 30 80 40 00 10 e0 00 40 00 90 43 7f 03  .@.0.@....@..C..
00000e40: e0 00 41 08 e0 00 42 00 80 43 00 05 90 44 7f 01  ..A...B..C...D..
00000e50: e0 00 41 03 e0 00 40 05 e0 00 3f 03 e0 00 3e 00  ..A...@...?...>.
00000e60: 80 44 00 04 90 43 7f 01 e0 00 3f 03 e0 00 40 05  .D...C....?...@.
00000e70: e0 00 41 03 e0 00 42 05 e0 00 41 03 e0 00 40 05  ..A...B...A...@.
00000e80: e0 00 3f 03 e0 00 3e 05 e0 00 3f 03 e0 00 40 05  ..?...>...?...@.
00000e90: e0 00 41 03 e0 00 42 05 e0 00 41 03 e0 00 40 05  ..A...B...A...@.
00000ea0: e0 00 40 03 e0 00 3e 07 e0 00 40 0d 80 43 00 10  ..@...>...@..C..
00000eb0: 90 3b 7f 30 80 3b 00 10 90 45 7f 70 80 45 00 10  .;.0.;...E.p.E..
00000ec0: 90 47 7f 70 80 47 00 10 90 45 7f 70 80 45 00 10  .G.p.G...E.p.E..
00000ed0: 90 47 7f 70 80 47 00 10 90 45 7f 30 80 45 00 10  .G.p.G...E.0.E..
00000ee0: 90 3b 7f 00 90 34 7f 70 80 34 00 00 80 3b 00 10  .;...4.p.4...;..
00000ef0: 90 34 7f 30 80 34 00 10 90 3d 7f 00 90 34 7f 70  .4.0.4...=...4.p
00000f00: 80 34 00 00 80 3d 00 10 90 34 7f 30 80 34 00 10  .4...=...4.0.4..
00000f10: 90 3e 7f 00 90 34 7f 70 80 34 00 00 80 3e 00 10  .>...4.p.4...>..
00000f20: 90 34 7f 30 80 34 00 10 90 3d 7f 30 80 3d 00 10  .4.0.4...=.0.=..
00000f30: 90 3e 7f 30 80 3e 00 10 90 42 7f 00 90 39 7f 30  .>.0.>...B...9.0
00000f40: 80 39 00 00 80 42 00 10 90 39 7f 00 90 40 7f 70  .9...B...9...@.p
00000f50: 80 40 00 00 80 39 00 10 90 39 7f 00 90 40 7f 30  .@...9...9...@.0
00000f60: 80 40 00 00 80 39 00 10 90 42 7f 00 90 39 7f 70  .@...9...B...9.p
00000f70: 80 39 00 00 80 42 00 10 90 39 7f 00 90 45 7f 10  .9...B...9...E..
00000f80: 80 45 00 20 80 39 00 10 90 40 7f 00 90 39 7f 81  .E. .9...@...9..
00000f90: 10 80 39 00 00 80 40 00 30 90 42 7f 00 90 39 7f  ..9...@.0.B...9.
00000fa0: 70 80 39 00 00 80 42 00 10 90 39 7f 30 80 39 00  p.9...B...9.0.9.
00000fb0: 10 90 34 7f 00 90 3b 7f 70 80 3b 00 00 80 34 00  ..4...;.p.;...4.
00000fc0: 10 90 34 7f 00 90 3b 7f 30 80 3b 00 00 80 34 00  ..4...;.0.;...4.
00000fd0: 10 90 3d 7f 00 90 34 7f 70 80 34 00 00 80 3d 00  ..=...4.p.4...=.
00000fe0: 10 90 38 7f 30 80 38 00 10 90 34 7f 00 90 3b 7f  ..8.0.8...4...;.
00000ff0: 70 80 3b 00 00 80 34 00 10 90 34 7f 30 80 34 00  p.;...4...4.0.4.
00001000: 10 90 34 7f 10 80 34 00 28 90 45 7f 30 80 45 00  ..4...4.(.E.0.E.
00001010: 10 90 40 7f 30 80 40 00 11 e0 00 40 03 e0 00 41  ..@.0.@....@...A
00001020: 04 90 43 7f 01 e0 00 42 03 e0 00 44 05 e0 00 45  ..C....B...D...E
00001030: 03 e0 00 44 00 80 43 00 04 90 44 7f 01 e0 00 42  ...D..C...D....B
00001040: 02 e0 00 41 01 e0 00 40 05 e0 00 3f 02 e0 00 3e  ...A...@...?...>
00001050: 00 80 44 00 01 e0 00 3f 04 90 43 7f 01 e0 00 40  ..D....?..C....@
00001060: 02 e0 00 41 05 e0 00 42 01 e0 00 44 03 e0 24 44  ...A...B...D..$D
00001070: 04 e0 00 44 03 e0 00 42 01 e0 00 41 04 e0 00 40  ...D...B...A...@
00001080: 03 e0 00 3f 01 e0 00 3e 05 e0 00 3f 03 e0 00 40  ...?...>...?...@
00001090: 05 e0 00 41 03 e0 00 42 05 e0 00 41 03 e0 00 40  ...A...B...A...@
000010a0: 05 e0 00 3f 03 e0 00 3e 07 e0 00 3f 08 e0 00 40  ...?...>...?...@
000010b0: 05 80 43 00 01 e0 00 40 0f 90 34 7f 30 80 34 00  ..C....@..4.0.4.
000010c0: 10 90 34 7f 00 90 3d 7f 70 80 3d 00 00 80 34 00  ..4...=.p.=...4.
000010d0: 10 90 34 7f 30 80 34 00 10 90 34 7f 00 90 3b 7f  ..4.0.4...4...;.
000010e0: 70 80 3b 00 00 80 34 00 10 90 34 7f 30 80 34 00  p.;...4...4.0.4.
000010f0: 10 90 3d 7f 00 90 34 7f 70 80 34 00 00 80 3d 00  ..=...4.p.4...=.
00001100: 10 90 34 7f 30 80 34 00 10 90 39 7f 00 90 40 7f  ..4.0.4...9...@.
00001110: 70 80 40 00 00 80 39 00 10 90 39 7f 30 80 39 00  p.@...9...9.0.9.
00001120: 10 90 42 7f 00 90 39 7f 70 80 39 00 00 80 42 00  ..B...9.p.9...B.
00001130: 10 90 39 7f 30 80 39 00 10 90 39 7f 00 90 40 7f  ..9.0.9...9...@.
00001140: 70 80 40 00 00 80 39 00 10 90 39 7f 00 90 40 7f  p.@...9...9...@.
00001150: 30 80 40 00 00 80 39 00 0c e0 00 40 04 e0 00 41  0.@...9....@...A
00001160: 00 90 42 7f 01 e0 00 42 02 e0 00 44 01 e0 24 44  ..B....B...D..$D
00001170: 04 e0 00 44 03 e0 00 42 01 e0 00 41 05 e0 00 40  ...D...B...A...@
00001180: 02 e0 00 40 05 e0 00 3f 01 e0 00 3e 03 e0 00 3c  ...@...?...>...<
00001190: 04 e0 00 3e 01 e0 00 3f 03 e0 00 40 0c 80 42 00  ...>...?...@..B.
000011a0: 10 90 43 7f 30 80 43 00 10 90 42 7f 30 80 42 00  ..C.0.C...B.0.B.
000011b0: 10 90 40 7f 00 90 39 7f 70 80 39 00 00 80 40 00  ..@...9.p.9...@.
000011c0: 10 90 39 7f 30 80 39 00 10 90 42 7f 00 90 39 7f  ..9.0.9...B...9.
000011d0: 81 10 80 39 00 00 80 42 00 30 90 39 7f 00 90 40  ...9...B.0.9...@
000011e0: 7f 81 10 80 40 00 00 80 39 00 30 90 42 7f 00 90  ....@...9.0.B...
000011f0: 39 7f 81 10 80 39 00 00 80 42 00 30 90 34 7f 00  9....9...B.0.4..
00001200: 90 3b 7f 70 80 3b 00 00 80 34 00 10 90 34 7f 30  .;.p.;...4...4.0
00001210: 80 34 00 10 90 3d 7f 00 90 34 7f 70 80 34 00 00  .4...=...4.p.4..
00001220: 80 3d 00 10 90 34 7f 30 80 34 00 10 90 3b 7f 00  .=...4.0.4...;..
00001230: 90 34 7f 70 80 34 00 00 80 3b 00 10 90 4c 7f 00  .4.p.4...;...L..
00001240: 90 34 7f 10 80 4c 00 20 80 34 00 10 90 3b 7f 00  .4...L. .4...;..
00001250: 90 34 7f 10 80 34 00 00 80 3b 00 30 90 55 7f 00  .4...4...;.0.U..
00001260: 90 45 7f 00 90 49 7f 10 80 55 00 20 80 49 00 00  .E...I...U. .I..
00001270: 80 45 00 10 90 40 7f 30 80 40 00 10 e0 00 40 00  .E...@.0.@....@.
00001280: 90 43 7f 03 e0 00 41 06 e0 00 42 02 80 43 00 01  .C....A...B..C..
00001290: e0 00 41 04 90 44 7f 01 e0 00 40 03 e0 00 3f 05  ..A..D....@...?.
000012a0: e0 00 3e 03 e0 00 3f 00 80 44 00 04 90 43 7f 01  ..>...?..D...C..
000012b0: e0 00 40 07 e0 00 41 03 e0 00 42 06 e0 00 41 03  ..@...A...B...A.
000012c0: e0 00 40 05 e0 00 3f 03 e0 00 3e 05 e0 00 3f 03  ..@...?...>...?.
000012d0: e0 00 40 05 e0 00 41 03 e0 00 42 04 e0 00 41 03  ..@...A...B...A.
000012e0: e0 00 40 01 e0 00 40 05 e0 00 3f 02 e0 00 3e 05  ..@...@...?...>.
000012f0: e0 00 3c 01 e0 00 3e 03 e0 00 3f 04 e0 00 40 08  ..<...>...?...@.
00001300: 80 43 00 10 90 34 7f 30 80 34 00 10 90 34 7f 00  .C...4.0.4...4..
00001310: 90 3d 7f 70 80 3d 00 00 80 34 00 10 90 34 7f 30  .=.p.=...4...4.0
00001320: 80 34 00 10 90 34 7f 00 90 3b 7f 70 80 3b 00 00  .4...4...;.p.;..
00001330: 80 34 00 10 90 34 7f 30 80 34 00 10 90 34 7f 00  .4...4.0.4...4..
00001340: 90 3d 7f 70 80 3d 00 00 80 34 00 10 90 3e 7f 30  .=.p.=...4...>.0
00001350: 80 3e 00 10 90 3f 7f 70 80 3f 00 10 90 45 7f 81  .>...?.p.?...E..
00001360: 30 80 45 00 10 90 47 7f 81 30 80 47 00 10 90 45  0.E...G..0.G...E
00001370: 7f 30 80 45 00 10 90 47 7f 81 10 80 47 00 30 90  .0.E...G....G.0.
00001380: 40 7f 00 90 39 7f 00 90 45 7f 70 80 45 00 00 80  @...9...E.p.E...
00001390: 39 00 00 80 40 00 10 90 39 7f 00 90 40 7f 00 90  9...@...9...@...
000013a0: 45 7f 30 80 45 00 00 80 40 00 00 80 39 00 10 90  E.0.E...@...9...
000013b0: 39 7f 00 90 40 7f 00 90 45 7f 70 80 45 00 00 80  9...@...E.p.E...
000013c0: 40 00 00 80 39 00 10 90 39 7f 30 80 39 00 10 90  @...9...9.0.9...
000013d0: 39 7f 00 90 42 7f 00 90 45 7f 70 80 45 00 00 80  9...B...E.p.E...
000013e0: 42 00 00 80 39 00 10 90 39 7f 30 80 39 00 10 90  B...9...9.0.9...
000013f0: 40 7f 30 80 40 00 10 90 42 7f 30 80 42 00 10 90  @.0.@...B.0.B...
00001400: 43 7f 30 80 43 00 10 90 34 7f 00 90 3b 7f 70 80  C.0.C...4...;.p.
00001410: 3b 00 00 80 34 00 10 90 34 7f 30 80 34 00 10 90  ;...4...4.0.4...
00001420: 34 7f 00 90 3d 7f 70 80 3d 00 00 80 34 00 10 90  4...=.p.=...4...
00001430: 34 7f 30 80 34 00 10 90 34 7f 00 90 3b 7f 70 80  4.0.4...4...;.p.
00001440: 3b 00 00 80 34 00 10 90 34 7f 00 90 3b 7f 30 80  ;...4...4...;.0.
00001450: 3b 00 00 80 34 00 10 90 34 7f 00 90 3b 7f 10 80  ;...4...4...;...
00001460: 3b 00 00 80 34 00 30 90 45 7f 00 90 40 7f 30 80  ;...4.0.E...@.0.
00001470: 40 00 00 80 45 00 10 90 40 7f 30 80 40 00 10 e0  @...E...@.0.@...
00001480: 00 40 00 90 43 7f 03 e0 00 41 08 e0 00 42 00 80  .@..C....A...B..
00001490: 43 00 05 90 44 7f 01 e0 00 41 03 e0 00 40 05 e0  C...D....A...@..
000014a0: 00 3f 03 e0 00 3e 00 80 44 00 04 90 43 7f 01 e0  .?...>..D...C...
000014b0: 00 3f 03 e0 00 40 05 e0 00 41 03 e0 00 42 05 e0  .?...@...A...B..
000014c0: 00 41 03 e0 00 40 05 e0 00 3f 03 e0 00 3e 05 e0  .A...@...?...>..
000014d0: 00 3f 03 e0 00 40 05 e0 00 41 03 e0 00 42 05 e0  .?...@...A...B..
000014e0: 00 41 03 e0 00 40 05 e0 00 40 03 e0 00 3e 07 e0  .A...@...@...>..
000014f0: 00 40 0d 80 43 00 10 90 3b 7f 30 80 3b 00 10 90  .@..C...;.0.;...
00001500: 45 7f 70 80 45 00 10 90 47 7f 70 80 47 00 10 90  E.p.E...G.p.G...
00001510: 45 7f 70 80 45 00 10 90 47 7f 70 80 47 00 10 90  E.p.E...G.p.G...
00001520: 45 7f 30 80 45 00 10 90 4a 7f 40 e0 00 40 03 e0  E.0.E...J.@..@..
00001530: 00 41 06 e0 00 42 08 e0 00 44 07 e0 30 44 04 e0  .A...B...D..0D..
00001540: 00 46 07 e0 20 46 08 e0 00 48 06 e0 00 48 03 e0  .F.. F...H...H..
00001550: 0c 46 04 e0 00 46 01 e0 00 44 02 e0 00 42 00 80  .F...F...D...B..
00001560: 4a 00 01 e0 00 40 04 90 4b 7f 28 80 4b 00 18 90  J....@..K.(.K...
00001570: 4c 7f 70 80 4c 00 10 90 4f 7f 03 e0 00 41 06 e0  L.p.L...O....A..
00001580: 00 42 07 e0 00 44 04 e0 40 44 08 e0 00 46 07 e0  .B...D..@D...F..
00001590: 10 46 06 e0 00 48 07 e0 70 49 03 e0 00 48 05 e0  .F...H..pI...H..
000015a0: 00 46 01 e0 0c 46 02 e0 00 44 00 80 4f 00 05 e0  .F...F...D..O...
000015b0: 00 43 01 e0 00 42 02 e0 00 41 00 90 50 7f 05 e0  .C...B...A..P...
000015c0: 00 40 03 e0 00 40 39 e0 00 40 2c 80 50 00 10 90  .@...@9..@,.P...
000015d0: 4c 7f 30 80 4c 00 10 90 47 7f 30 80 47 00 0c e0  L.0.L...G.0.G...
000015e0: 00 40 04 e0 00 41 00 90 4a 7f 01 e0 00 42 02 e0  .@...A..J....B..
000015f0: 00 44 01 e0 24 44 04 e0 00 46 01 e0 14 46 02 e0  .D..$D...F...F..
00001600: 00 48 01 e0 0c 48 05 e0 00 48 03 e0 2c 46 04 80  .H...H...H..,F..
00001610: 4a 00 01 e0 00 46 03 e0 00 44 04 90 4b 7f 01 e0  J....F...D..K...
00001620: 00 43 03 e0 00 42 05 e0 00 41 03 e0 00 40 0c 80  .C...B...A...@..
00001630: 4b 00 08 90 4c 7f 30 80 4c 00 0c e0 00 42 04 e0  K...L.0.L....B..
00001640: 00 44 00 90 4f 7f 01 e0 00 46 02 e0 00 48 01 e0  .D..O....F...H..
00001650: 7f 49 04 e0 00 48 01 e0 00 46 02 e0 00 44 00 80  .I...H...F...D..
00001660: 4f 00 01 e0 00 42 04 e0 00 40 00 90 50 7f 20 80  O....B...@..P. .
00001670: 50 00 10 90 4c 7f 30 80 4c 00 10 90 47 7f 30 80  P...L.0.L...G.0.
00001680: 47 00 0c e0 00 42 04 e0 00 44 00 90 45 7f 01 e0  G....B...D..E...
00001690: 00 46 02 e0 00 48 01 e0 00 4a 04 e0 00 4a 00 90  .F...H...J...J..
000016a0: 47 7f 00 80 45 00 01 e0 00 48 02 e0 00 46 01 e0  G...E....H...F..
000016b0: 00 44 04 e0 00 40 1b e0 00 40 01 e0 00 3e 04 e0  .D...@...@...>..
000016c0: 00 3e 00 80 47 00 01 e0 00 3c 02 e0 00 3c 05 e0  .>..G....<...<..
000016d0: 00 3a 01 e0 00 3a 02 e0 00 38 01 e0 00 38 04 e0  .:...:...8...8..
000016e0: 00 36 00 90 45 7f 01 e0 00 38 02 e0 00 38 05 e0  .6..E....8...8..
000016f0: 00 3a 01 e0 00 3a 02 e0 00 3c 05 e0 00 3c 01 e0  .:...:...<...<..
00001700: 00 3e 02 e0 00 3e 05 e0 00 40 00 80 45 00 01 e0  .>...>...@..E...
00001710: 00 40 03 e0 00 40 04 90 43 7f 18 80 43 00 08 90  .@...@..C...C...
00001720: 40 7f 30 80 40 00 0c e0 00 40 04 90 40 7f 01 e0  @.0.@....@..@...
00001730: 00 42 08 e0 00 42 08 e0 00 44 08 e0 00 44 07 e0  .B...B...D...D..
00001740: 00 44 03 e0 00 42 05 e0 00 42 03 e0 00 40 05 e0  .D...B...B...@..
00001750: 00 40 03 e0 00 3e 05 e0 00 3e 03 e0 00 3c 06 e0  .@...>...>...<..
00001760: 00 3e 03 e0 00 3e 05 e0 00 40 03 e0 00 40 05 e0  .>...>...@...@..
00001770: 00 42 03 e0 00 42 05 e0 00 44 03 e0 00 44 05 e0  .B...B...D...D..
00001780: 00 44 03 e0 00 42 05 e0 00 42 03 e0 00 40 04 e0  .D...B...B...@..
00001790: 00 40 03 e0 00 3e 05 e0 00 3e 03 e0 00 3c 05 e0  .@...>...>...<..
000017a0: 00 3e 03 e0 00 3e 05 e0 00 40 03 e0 00 40 05 e0  .>...>...@...@..
000017b0: 00 42 03 e0 00 42 05 e0 00 44 03 e0 00 44 06 e0  .B...B...D...D..
000017c0: 00 44 08 e0 00 42 08 e0 00 42 08 e0 00 40 07 80  .D...B...B...@..
000017d0: 40 00 04 90 41 7f 08 80 41 00 07 90 42 7f 08 80  @...A...A...B...
000017e0: 42 00 08 90 43 7f 08 90 44 7f 00 80 43 00 05 90  B...C...D...C...
000017f0: 45 7f 03 80 44 00 05 90 46 7f 00 80 45 00 08 90  E...D...F...E...
00001800: 47 7f 00 80 46 00 30 80 47 00 10 90 4a 7f 30 80  G...F.0.G...J.0.
00001810: 4a 00 10 90 4a 7f 3b e0 00 40 05 e0 00 42 04 e0  J...J.;..@...B..
00001820: 00 42 07 e0 00 44 06 e0 00 44 07 e0 00 46 08 e0  .B...D...D...F..
00001830: 00 46 04 e0 00 48 07 e0 00 48 06 e0 00 4a 07 e0  .F...H...H...J..
00001840: 00 4a 03 e0 00 4a 00 80 4a 00 01 e0 00 48 04 e0  .J...J..J....H..
00001850: 00 46 00 90 4b 7f 01 e0 00 46 02 e0 00 44 01 e0  .F..K....F...D..
00001860: 00 44 04 e0 00 42 01 e0 00 40 27 80 4b 00 10 90  .D...B...@'.K...
00001870: 4c 7f 70 80 4c 00 10 90 4f 7f 3c e0 00 40 05 e0  L.p.L...O.<..@..
00001880: 00 42 07 e0 00 42 04 e0 00 44 07 e0 00 44 06 e0  .B...B...D...D..
00001890: 00 46 08 e0 00 46 07 e0 00 48 04 e0 00 48 04 80  .F...F...H...H..
000018a0: 4f 00 03 e0 00 4a 06 e0 00 4a 07 e0 00 4a 00 90  O....J...J...J..
000018b0: 50 7f 03 e0 00 48 06 e0 00 48 07 e0 00 46 03 e0  P....H...H...F..
000018c0: 00 46 06 e0 00 44 03 e0 00 44 07 e0 00 42 06 e0  .F...D...D...B..
000018d0: 00 42 03 e0 00 40 04 80 50 00 10 90 4c 7f 30 80  .B...@..P...L.0.
000018e0: 4c 00 10 90 4a 7f 01 e0 00 42 08 e0 00 42 03 e0  L...J....B...B..
000018f0: 00 42 05 e0 00 40 03 e0 00 40 04 e0 00 3e 03 e0  .B...@...@...>..
00001900: 00 3e 05 e0 00 3c 01 e0 00 3e 02 e0 00 3e 01 e0  .>...<...>...>..
00001910: 00 40 04 e0 00 40 01 e0 00 42 02 e0 00 42 01 e0  .@...@...B...B..
00001920: 00 44 04 e0 00 44 01 e0 00 44 02 e0 00 42 01 e0  .D...D...D...B..
00001930: 00 42 04 e0 00 40 01 e0 00 3e 02 e0 00 3e 01 e0  .B...@...>...>..
00001940: 00 3c 04 e0 00 3c 01 e0 00 3a 02 e0 00 3c 01 e0  .<...<...:...<..
00001950: 00 3c 04 e0 00 3e 03 e0 00 3e 01 e0 00 40 04 90  .<...>...>...@..
00001960: 47 7f 00 80 4a 00 03 e0 00 40 15 80 47 00 10 90  G...J....@..G...
00001970: 4c 7f 30 80 4c 00 18 e0 00 40 00 90 51 7f 01 e0  L.0.L....@..Q...
00001980: 00 42 03 e0 00 42 05 e0 00 44 03 e0 00 44 04 e0  .B...B...D...D..
00001990: 00 44 01 e0 00 42 02 e0 00 42 01 e0 00 40 05 e0  .D...B...B...@..
000019a0: 00 40 02 e0 00 3e 01 e0 00 3e 04 e0 00 3c 01 e0  .@...>...>...<..
000019b0: 00 3e 03 e0 00 3e 04 e0 00 40 01 e0 00 40 03 e0  .>...>...@...@..
000019c0: 00 42 04 e0 00 42 01 e0 00 42 02 e0 00 40 01 e0  .B...B...B...@..
000019d0: 00 40 05 e0 00 3e 02 e0 00 3e 01 e0 00 3c 04 e0  .@...>...>...<..
000019e0: 00 3e 03 e0 00 3e 01 e0 00 40 05 e0 00 40 02 e0  .>...>...@...@..
000019f0: 00 42 05 e0 00 42 00 80 51 00 01 e0 00 42 03 e0  .B...B..Q....B..
00001a00: 00 40 04 e0 00 40 01 e0 00 3e 03 e0 00 3e 04 e0  .@...@...>...>..
00001a10: 00 3c 00 90 4f 7f 03 e0 00 3e 05 e0 00 3e 03 e0  .<..O....>...>..
00001a20: 00 40 05 e0 00 40 00 80 4f 00 10 90 4c 7f 70 80  .@...@..O...L.p.
00001a30: 4c 00 10 e0 00 42 00 90 4c 7f 03 e0 00 42 05 e0  L....B..L....B..
00001a40: 00 44 03 e0 00 44 01 e0 00 44 04 e0 00 42 01 e0  .D...D...D...B..
00001a50: 00 42 02 e0 00 40 05 e0 00 40 01 e0 00 3e 02 e0  .B...@...@...>..
00001a60: 00 3e 01 e0 00 3c 04 e0 00 3e 03 e0 00 3e 01 e0  .>...<...>...>..
00001a70: 00 40 04 e0 00 40 03 e0 00 42 01 e0 00 42 04 e0  .@...@...B...B..
00001a80: 00 42 03 e0 00 40 01 e0 00 40 04 e0 00 3e 03 e0  .B...@...@...>..
00001a90: 00 3e 01 e0 00 3c 04 e0 00 3e 01 e0 00 3e 02 e0  .>...<...>...>..
00001aa0: 00 40 01 e0 00 40 05 e0 00 42 02 e0 00 42 01 e0  .@...@...B...B..
00001ab0: 00 44 04 e0 00 44 01 e0 00 44 02 e0 00 42 01 e0  .D...D...D...B..
00001ac0: 00 42 04 e0 00 40 03 e0 00 40 01 e0 00 3e 04 e0  .B...@...@...>..
00001ad0: 00 3e 01 e0 00 3c 02 e0 00 3e 05 e0 00 3e 01 e0  .>...<...>...>..
00001ae0: 00 40 07 80 4c 00 10 90 4c 7f 7b 80 4c 00 01 90  .@..L...L.{.L...
00001af0: 4d 7f 05 80 4d 00 02 90 4e 7f 05 80 4e 00 03 90  M...M...N...N...
00001b00: 4f 7f 05 80 4f 00 01 90 50 7f 03 80 50 00 05 90  O...O...P...P...
00001b10: 51 7f 03 80 51 00 04 90 52 7f 03 80 52 00 01 90  Q...Q...R...R...
00001b20: 53 7f 05 80 53 00 02 90 54 7f 05 80 54 00 01 90  S...S...T...T...
00001b30: 55 7f 03 80 55 00 04 90 56 7f 03 80 56 00 01 90  U...U...V...V...
00001b40: 57 7f 04 90 4c 7f 01 80 57 00 02 90 58 7f 0d 80  W...L...W...X...
00001b50: 4c 00 11 80 58 00 1f 90 4c 7f 30 80 4c 00 10 90  L...X...L.0.L...
00001b60: 4f 7f 30 80 4f 00 0c e0 00 40 04 e0 00 42 00 90  O.0.O....@...B..
00001b70: 51 7f 01 e0 00 44 02 e0 00 44 01 e0 00 46 04 e0  Q....D...D...F..
00001b80: 00 46 01 e0 00 48 02 e0 00 4a 01 e0 00 4a 04 e0  .F...H...J...J..
00001b90: 00 4a 01 e0 00 48 03 e0 00 48 04 e0 00 46 01 e0  .J...H...H...F..
00001ba0: 00 46 02 80 51 00 01 e0 00 44 04 e0 00 44 00 90  .F..Q....D...D..
00001bb0: 53 7f 01 e0 00 42 03 e0 00 42 04 e0 00 40 81 39  S....B...B...@.9
00001bc0: e0 00 40 03 e0 00 3e 07 e0 00 3e 05 e0 00 3c 04  ..@...>...>...<.
00001bd0: e0 00 3c 05 e0 00 3a 07 e0 00 3a 03 e0 00 38 06  ..<...:...:...8.
00001be0: e0 00 38 03 e0 00 36 04 80 53 00 01 e0 00 38 03  ..8...6..S....8.
00001bf0: e0 00 38 05 e0 00 3a 02 e0 00 3a 05 e0 00 3c 00  ..8...:...:...<.
00001c00: 90 51 7f 03 e0 00 3c 05 e0 00 3e 01 e0 00 3e 03  .Q....<...>...>.
00001c10: e0 00 40 04 80 51 00 01 e0 00 40 03 e0 00 40 0c  ..@..Q....@...@.
00001c20: 90 4f 7f 30 80 4f 00 10 e0 00 42 00 90 51 7f 01  .O.0.O....B..Q..
00001c30: e0 00 44 02 e0 00 48 01 e0 00 4a 04 e0 00 4c 00  ..D...H...J...L.
00001c40: 90 53 7f 00 80 51 00 01 e0 00 4a 02 e0 00 48 01  .S...Q....J...H.
00001c50: e0 00 44 04 e0 00 40 20 80 53 00 10 90 51 7f 30  ..D...@ .S...Q.0
00001c60: 80 51 00 10 e0 00 42 00 90 4f 7f 01 e0 00 42 02  .Q....B..O....B.
00001c70: e0 00 44 01 e0 00 46 04 e0 00 46 00 90 51 7f 00  ..D...F...F..Q..
00001c80: 80 4f 00 01 e0 00 48 02 e0 00 48 01 e0 00 4a 04  .O....H...H...J.
00001c90: e0 00 4a 01 e0 00 4a 03 e0 00 48 05 e0 00 48 02  ..J...J...H...H.
00001ca0: e0 00 46 05 e0 00 46 01 e0 00 44 03 e0 00 44 05  ..F...F...D...D.
00001cb0: e0 00 42 02 e0 00 42 05 e0 00 40 03 e0 00 40 10  ..B...B...@...@.
00001cc0: e0 00 40 6d 80 51 00 81 00 90 4c 7f 20 80 4c 00  ..@m.Q....L. .L.
00001cd0: 10 90 4f 7f 20 80 4f 00 10 90 51 7f 20 80 51 00  ..O. .O...Q. .Q.
00001ce0: 4c e0 00 40 04 e0 00 42 00 90 51 7f 01 e0 00 44  L..@...B..Q....D
00001cf0: 02 e0 00 46 01 e0 00 48 04 e0 00 4a 00 80 51 00  ...F...H...J..Q.
00001d00: 01 e0 00 4a 02 e0 00 4a 00 90 53 7f 01 e0 00 48  ...J...J..S....H
00001d10: 04 e0 00 46 01 e0 00 44 02 e0 00 44 01 e0 00 42  ...F...D...D...B
00001d20: 04 e0 00 40 00 80 53 00 08 90 51 7f 18 80 51 00  ...@..S...Q...Q.
00001d30: 08 90 4f 7f 18 80 4f 00 08 90 4c 7f 18 80 4c 00  ..O...O...L...L.
00001d40: 08 90 51 7f 18 80 51 00 08 90 4c 7f 18 80 4c 00  ..Q...Q...L...L.
00001d50: 08 90 4f 7f 18 80 4f 00 08 90 4c 7f 01 e0 00 42  ..O...O...L....B
00001d60: 03 e0 00 42 05 e0 00 44 03 e0 00 44 04 e0 00 44  ...B...D...D...D
00001d70: 01 e0 00 42 02 e0 00 42 01 e0 00 40 04 e0 00 40  ...B...B...@...@
00001d80: 01 e0 00 3e 02 e0 00 40 05 e0 00 40 03 e0 00 42  ...>...@...@...B
00001d90: 05 e0 00 42 03 e0 00 44 05 e0 00 44 01 e0 00 44  ...B...D...D...D
00001da0: 02 e0 00 42 01 e0 00 42 04 e0 00 40 01 e0 00 3e  ...B...B...@...>
00001db0: 02 e0 00 3e 01 e0 00 3c 04 e0 00 3e 03 e0 00 3e  ...>...<...>...>
00001dc0: 01 e0 00 40 04 e0 00 40 03 e0 00 42 01 e0 00 42  ...@...@...B...B
00001dd0: 05 e0 00 42 03 e0 00 40 04 80 4c 00 01 e0 00 40  ...B...@..L....@
00001de0: 00 e0 00 40 07 90 4a 7f 38 80 4a 00 08 90 47 7f  ...@..J.8.J...G.
00001df0: 18 80 47 00 08 90 45 7f 18 80 45 00 08 90 43 7f  ..G...E...E...C.
00001e00: 18 80 43 00 08 90 40 7f 18 80 40 00 08 90 45 7f  ..C...@...@...E.
00001e10: 18 80 45 00 08 90 40 7f 18 80 40 00 08 90 43 7f  ..E...@...@...C.
00001e20: 18 80 43 00 08 e0 00 40 00 90 40 7f 01 e0 00 42  ..C....@..@....B
00001e30: 03 e0 00 42 05 e0 00 44 03 e0 00 44 04 e0 00 44  ...B...D...D...D
00001e40: 01 e0 00 42 02 e0 00 42 01 e0 00 40 05 e0 00 40  ...B...B...@...@
00001e50: 02 e0 00 3e 01 e0 00 3e 04 e0 00 3c 01 e0 00 3e  ...>...>...<...>
00001e60: 02 e0 00 3e 01 e0 00 40 04 e0 00 42 01 e0 00 42  ...>...@...B...B
00001e70: 02 e0 00 44 01 e0 00 44 04 e0 00 44 01 e0 00 42  ...D...D...D...B
00001e80: 02 e0 00 42 01 e0 00 40 04 e0 00 40 01 e0 00 3e  ...B...@...@...>
00001e90: 02 e0 00 3e 01 e0 00 3c 04 e0 00 3e 01 e0 00 3e  ...>...<...>...>
00001ea0: 02 e0 00 40 01 e0 00 42 04 e0 00 42 01 e0 00 44  ...@...B...B...D
00001eb0: 02 e0 00 44 01 e0 00 44 04 e0 00 42 03 e0 00 42  ...D...D...B...B
00001ec0: 01 e0 00 40 04 80 40 00 01 e0 00 40 07 90 40 7f  ...@..@....@..@.
00001ed0: 5c e0 00 40 04 e0 00 42 00 80 40 00 03 e0 00 42  \..@...B..@....B
00001ee0: 00 90 3f 7f 05 e0 00 44 03 e0 00 44 01 e0 00 44  ..?....D...D...D
00001ef0: 04 e0 00 42 01 e0 00 42 02 e0 00 40 05 e0 00 40  ...B...B...@...@
00001f00: 01 e0 00 3e 02 e0 00 3e 01 e0 00 3c 04 e0 00 3e  ...>...>...<...>
00001f10: 01 e0 00 3e 02 e0 00 40 01 e0 00 40 04 e0 00 42  ...>...@...@...B
00001f20: 01 e0 00 42 02 e0 00 44 00 80 3f 00 01 e0 00 44  ...B...D..?....D
00001f30: 04 e0 00 44 00 90 3e 7f 01 e0 00 42 02 e0 00 42  ...D..>....B...B
00001f40: 01 e0 00 40 04 e0 00 3e 01 e0 00 3e 02 e0 00 3c  ...@...>...>...<
00001f50: 01 e0 00 3e 04 e0 00 3e 01 e0 00 40 02 e0 00 40  ...>...>...@...@
00001f60: 05 e0 00 42 01 e0 00 42 02 e0 00 44 01 e0 00 44  ...B...B...D...D
00001f70: 04 e0 00 44 01 e0 00 42 02 e0 00 42 00 80 3e 00  ...D...B...B..>.
00001f80: 01 e0 00 40 4c 90 56 7f 30 80 56 00 10 90 53 7f  ...@L.V.0.V...S.
00001f90: 30 80 53 00 0c e0 00 42 04 e0 00 44 00 90 51 7f  0.S....B...D..Q.
00001fa0: 01 e0 00 46 02 e0 00 48 01 e0 00 4a 04 e0 00 48  ...F...H...J...H
00001fb0: 00 80 51 00 01 e0 00 46 02 e0 00 44 00 90 53 7f  ..Q....F...D..S.
00001fc0: 01 e0 00 42 04 e0 00 40 13 e0 00 40 01 e0 00 3e  ...B...@...@...>
00001fd0: 04 e0 00 3c 01 e0 00 3a 02 e0 00 3a 01 e0 00 38  ...<...:...:...8
00001fe0: 04 e0 00 36 00 80 53 00 01 e0 00 38 03 e0 00 38  ...6..S....8...8
00001ff0: 05 e0 00 3a 02 e0 00 3a 05 e0 00 3c 00 90 51 7f  ...:...:...<..Q.
00002000: 01 e0 00 3c 03 e0 00 3e 05 e0 00 3e 02 e0 00 40  ...<...>...>...@
00002010: 05 e0 00 40 20 80 51 00 10 e0 00 42 00 90 4f 7f  ...@ .Q....B..O.
00002020: 01 e0 00 44 02 e0 00 46 01 e0 00 46 04 e0 00 46  ...D...F...F...F
00002030: 00 80 4f 00 01 e0 00 44 02 e0 00 42 00 90 50 7f  ..O....D...B..P.
00002040: 01 e0 00 42 04 e0 00 40 03 e0 00 40 00 e0 00 40  ...B...@...@...@
00002050: 05 80 50 00 08 90 4c 7f 18 80 4c 00 08 e0 00 40  ..P...L...L....@
00002060: 00 90 4f 7f 01 e0 00 42 02 e0 00 44 01 e0 00 46  ..O....B...D...F
00002070: 04 e0 00 46 00 90 50 7f 00 80 4f 00 01 e0 00 46  ...F..P...O....F
00002080: 02 e0 00 44 01 e0 00 42 04 e0 00 40 14 e0 00 40  ...D...B...@...@
00002090: 05 e0 00 3e 03 e0 00 3e 05 e0 00 3c 02 e0 00 3e  ...>...>...<...>
000020a0: 05 e0 00 3e 01 e0 00 40 03 e0 00 40 04 e0 00 42  ...>...@...@...B
000020b0: 03 e0 00 42 01 e0 00 44 05 e0 00 44 02 e0 00 44  ...B...D...D...D
000020c0: 01 e0 00 42 04 e0 00 42 01 e0 00 40 03 e0 00 40  ...B...B...@...@
000020d0: 04 e0 00 3e 01 e0 00 3e 02 e0 00 3c 01 e0 00 3e  ...>...>...<...>
000020e0: 04 e0 00 3e 03 e0 00 40 01 e0 00 40 04 e0 00 42  ...>...@...@...B
000020f0: 01 e0 00 42 03 e0 00 44 04 e0 00 44 01 e0 00 44  ...B...D...D...D
00002100: 03 e0 00 42 04 e0 00 42 01 e0 00 40 03 e0 00 40  ...B...B...@...@
00002110: 04 e0 00 3e 01 e0 00 40 03 e0 00 40 05 e0 00 42  ...>...@...@...B
00002120: 03 e0 00 42 05 e0 00 42 03 e0 00 40 05 e0 00 40  ...B...B...@...@
00002130: 03 e0 00 3e 08 e0 00 40 08 e0 00 40 08 e0 00 40  ...>...@...@...@
00002140: 0c 80 50 00 82 00 90 4c 7f 30 80 4c 00 0c e0 00  ..P....L.0.L....
00002150: 40 04 90 4f 7f 04 e0 00 42 10 e0 00 42 08 e0 00  @..O....B...B...
00002160: 44 05 e0 00 44 03 e0 00 46 05 e0 00 46 02 e0 00  D...D...F...F...
00002170: 46 01 e0 00 44 04 e0 00 42 00 80 4f 00 01 e0 00  F...D...B..O....
00002180: 40 0f 90 51 7f 04 e0 00 42 07 e0 00 42 06 e0 00  @..Q....B...B...
00002190: 44 07 e0 00 44 04 e0 00 46 07 e0 00 46 05 e0 00  D...D...F...F...
000021a0: 46 01 e0 00 44 02 e0 00 42 01 e0 00 40 04 80 51  F...D...B...@..Q
000021b0: 00 0c e0 00 42 04 e0 00 44 00 90 51 7f 01 e0 00  ....B...D..Q....
000021c0: 46 02 e0 00 48 01 e0 00 4a 04 e0 00 4a 00 90 53  F...H...J...J..S
000021d0: 7f 00 80 51 00 01 e0 00 48 02 e0 00 46 01 e0 00  ...Q....H...F...
000021e0: 44 04 e0 00 40 20 80 53 00 0b e0 00 42 01 e0 00  D...@ .S....B...
000021f0: 44 04 e0 00 44 00 90 51 7f 01 e0 00 46 02 e0 00  D...D..Q....F...
00002200: 46 01 e0 00 46 04 e0 00 44 00 80 51 00 01 e0 00  F...F...D..Q....
00002210: 42 02 e0 00 40 00 90 52 7f 25 80 52 00 10 90 4f  B...@..R.%.R...O
00002220: 7f 01 e0 00 42 07 e0 00 42 03 e0 00 44 06 e0 00  ....B...B...D...
00002230: 44 07 e0 00 46 03 e0 00 46 05 e0 00 46 03 e0 00  D...F...F...F...
00002240: 44 01 e0 00 44 05 e0 00 42 02 e0 00 42 05 e0 00  D...D...B...B...
00002250: 40 00 80 4f 00 08 e0 00 42 08 90 51 7f 03 e0 00  @..O....B..Q....
00002260: 42 08 e0 00 44 05 e0 00 44 03 e0 00 46 05 e0 00  B...D...D...F...
00002270: 46 03 e0 00 46 05 e0 00 44 03 e0 00 44 05 e0 00  F...F...D...D...
00002280: 42 03 e0 00 42 05 e0 00 40 00 80 51 00 10 90 51  B...B...@..Q...Q
00002290: 7f 01 e0 00 42 02 e0 00 44 01 e0 00 44 04 e0 00  ....B...D...D...
000022a0: 46 00 90 53 7f 00 80 51 00 01 e0 00 46 02 e0 00  F..S...Q....F...
000022b0: 48 01 e0 00 4a 04 e0 00 4a 01 e0 00 46 02 e0 00  H...J...J...F...
000022c0: 3e 06 e0 00 40 0b e0 00 40 0c 80 53 00 10 90 4f  >...@...@..S...O
000022d0: 7f 01 e0 00 42 03 e0 00 42 05 e0 00 44 03 e0 00  ....B...B...D...
000022e0: 44 04 e0 00 44 01 e0 00 42 02 e0 00 42 01 e0 00  D...D...B...B...
000022f0: 40 04 e0 00 40 01 e0 00 3e 02 e0 00 3e 01 e0 00  @...@...>...>...
00002300: 3c 04 e0 00 3e 01 e0 00 3e 02 e0 00 40 01 e0 00  <...>...>...@...
00002310: 40 04 e0 00 42 01 e0 00 42 02 e0 00 44 01 e0 00  @...B...B...D...
00002320: 44 04 e0 00 44 01 e0 00 42 02 e0 00 42 01 e0 00  D...D...B...B...
00002330: 40 05 e0 00 40 02 e0 00 3e 01 e0 00 3e 04 e0 00  @...@...>...>...
00002340: 3c 01 e0 00 3e 03 e0 00 3e 04 e0 00 40 01 e0 00  <...>...>...@...
00002350: 40 03 e0 00 42 04 e0 00 42 01 e0 00 42 03 e0 00  @...B...B...B...
00002360: 40 05 e0 00 40 03 e0 00 3e 05 e0 00 40 03 e0 00  @...@...>...@...
00002370: 40 07 e0 00 40 05 80 4f 00 10 90 51 7f 30 80 51  @...@..O...Q.0.Q
00002380: 00 0c e0 00 42 04 e0 00 44 00 90 51 7f 01 e0 00  ....B...D..Q....
00002390: 46 02 e0 00 46 01 e0 00 46 04 e0 00 44 00 90 52  F...F...F...D..R
000023a0: 7f 00 80 51 00 01 e0 00 42 02 e0 00 42 01 e0 00  ...Q....B...B...
000023b0: 40 0c 80 52 00 03 e0 00 3e 01 e0 00 3c 04 e0 00  @..R....>...<...
000023c0: 3a 00 90 51 7f 01 e0 00 3c 03 e0 00 3c 04 e0 00  :..Q....<...<...
000023d0: 3e 01 e0 00 3e 03 e0 00 40 04 e0 00 40 08 80 51  >...>...@...@..Q
000023e0: 00 08 90 4f 7f 30 80 4f 00 10 90 51 7f 03 e0 00  ...O.0.O...Q....
000023f0: 42 08 e0 00 42 08 e0 00 44 08 e0 00 44 06 e0 00  B...B...D...D...
00002400: 44 03 e0 00 42 05 e0 00 42 03 e0 00 40 04 80 51  D...B...B...@..Q
00002410: 00 81 04 e0 00 40 0c 90 51 7f 03 80 51 00 01 90  .....@..Q...Q...
00002420: 52 7f 05 80 52 00 02 90 53 7f 05 80 53 00 01 90  R...R...S...S...
00002430: 54 7f 03 80 54 00 04 90 55 7f 03 e0 00 40 00 80  T...T...U....@..
00002440: 55 00 01 90 56 7f 04 e0 00 42 04 e0 00 42 05 e0  U...V....B...B..
00002450: 00 44 07 e0 00 44 04 e0 00 46 04 80 56 00 01 e0  .D...D...F..V...
00002460: 00 46 03 e0 00 46 04 e0 00 44 00 90 57 7f 01 e0  .F...F...D..W...
00002470: 00 44 02 e0 00 42 01 e0 00 42 04 e0 00 40 00 90  .D...B...B...@..
00002480: 56 7f 00 80 57 00 48 80 56 00 10 90 53 7f 18 80  V...W.H.V...S...
00002490: 53 00 08 90 51 7f 30 80 51 00 0c e0 00 42 04 e0  S...Q.0.Q....B..
000024a0: 00 42 00 90 51 7f 01 e0 00 44 03 e0 00 44 04 e0  .B..Q....D...D..
000024b0: 00 46 00 90 52 7f 00 80 51 00 01 e0 00 46 02 e0  .F..R...Q....F..
000024c0: 00 46 01 e0 00 44 04 e0 00 42 01 e0 00 42 02 e0  .F...D...B...B..
000024d0: 00 40 2e e0 00 40 03 e0 00 3e 05 e0 00 3e 03 e0  .@...@...>...>..
000024e0: 00 3c 04 80 52 00 01 e0 00 3e 07 e0 00 3e 03 e0  .<..R....>...>..
000024f0: 00 40 05 90 51 7f 01 e0 00 40 07 e0 00 40 03 e0  .@..Q....@...@..
00002500: 00 40 00 e0 00 40 0d 80 51 00 08 90 4f 7f 18 80  .@...@..Q...O...
00002510: 4f 00 08 90 4c 7f 18 80 4c 00 08 e0 00 40 00 90  O...L...L....@..
00002520: 4f 7f 01 e0 00 42 03 e0 00 42 04 e0 00 44 03 e0  O....B...B...D..
00002530: 00 44 01 e0 00 44 05 e0 00 42 02 e0 00 42 05 e0  .D...D...B...B..
00002540: 00 40 01 e0 00 40 03 e0 00 3e 05 e0 00 40 03 e0  .@...@...>...@..
00002550: 00 40 05 e0 00 42 03 e0 00 42 05 e0 00 42 03 e0  .@...B...B...B..
00002560: 00 40 05 e0 00 40 03 e0 00 3e 05 e0 00 40 02 e0  .@...@...>...@..
00002570: 00 40 01 e0 00 42 05 e0 00 42 02 e0 00 44 01 e0  .@...B...B...D..
00002580: 00 44 04 e0 00 44 01 e0 00 42 02 e0 00 42 01 e0  .D...D...B...B..
00002590: 00 40 05 e0 00 40 02 e0 00 3e 01 e0 00 3e 04 e0  .@...@...>...>..
000025a0: 00 3c 01 e0 00 3e 03 e0 00 3e 04 e0 00 40 01 e0  .<...>...>...@..
000025b0: 00 40 03 e0 00 42 04 e0 00 42 01 e0 00 42 03 e0  .@...B...B...B..
000025c0: 00 40 04 e0 00 40 03 e0 00 3e 01 e0 00 3e 05 e0  .@...@...>...>..
000025d0: 00 3c 02 e0 00 3e 05 e0 00 3e 01 e0 00 40 03 e0  .<...>...>...@..
000025e0: 00 40 05 e0 00 40 02 e0 00 40 0d 80 4f 00 20 90  .@...@...@..O. .
000025f0: 47 7f 08 90 45 7f 00 80 47 00 28 80 45 00 10 90  G...E...G.(.E...
00002600: 43 7f 30 80 43 00 10 90 40 7f 30 80 40 00 10 e0  C.0.C...@.0.@...
00002610: 00 40 00 90 43 7f 03 e0 00 42 05 e0 00 42 00 90  .@..C....B...B..
00002620: 44 7f 00 80 43 00 03 e0 00 44 05 e0 00 44 00 90  D...C....D...D..
00002630: 43 7f 00 80 44 00 01 e0 00 44 02 e0 00 42 01 e0  C...D....D...B..
00002640: 00 40 04 e0 00 40 01 e0 00 3e 02 e0 00 3e 01 e0  .@...@...>...>..
00002650: 00 3c 04 e0 00 3a 01 e0 00 3c 02 e0 00 3c 01 e0  .<...:...<...<..
00002660: 00 3e 04 e0 00 40 01 e0 00 40 02 e0 00 42 01 e0  .>...@...@...B..
00002670: 00 42 04 e0 00 44 01 e0 00 44 02 e0 00 44 01 e0  .B...D...D...D..
00002680: 00 42 04 e0 00 40 01 e0 00 40 02 e0 00 3e 01 e0  .B...@...@...>..
00002690: 00 3c 04 e0 00 3e 01 e0 00 3e 02 e0 00 40 01 e0  .<...>...>...@..
000026a0: 00 40 05 e0 00 42 02 e0 00 42 01 e0 00 44 04 e0  .@...B...B...D..
000026b0: 00 44 01 e0 00 44 02 e0 00 42 01 e0 00 40 04 e0  .D...D...B...@..
000026c0: 00 40 01 e0 00 3e 02 e0 00 3c 01 e0 00 3e 05 e0  .@...>...<...>..
000026d0: 00 3e 03 e0 00 40 05 e0 00 40 07 80 43 00 10 90  .>...@...@..C...
000026e0: 40 7f 70 80 40 00 10 90 3b 7f 08 90 3d 7f 00 80  @.p.@...;...=...
000026f0: 3b 00 28 80 3d 00 10 90 40 7f 30 80 40 00 10 90  ;.(.=...@.0.@...
00002700: 42 7f 08 90 44 7f 00 80 42 00 28 80 44 00 10 90  B...D...B.(.D...
00002710: 47 7f 30 80 47 00 10 90 47 7f 30 80 47 00 10 90  G.0.G...G.0.G...
00002720: 43 7f 01 80 43 00 02 90 44 7f 09 80 44 00 04 90  C...C...D...D...
00002730: 42 7f 23 80 42 00 0d 90 40 7f 30 80 40 00 10 90  B.#.B...@.0.@...
00002740: 3d 7f 30 80 3d 00 10 90 40 7f 70 80 40 00 10 90  =.0.=...@.p.@...
00002750: 39 7f 30 80 39 00 10 90 39 7f 70 80 39 00 10 90  9.0.9...9.p.9...
00002760: 3b 7f 30 80 3b 00 10 90 45 7f 00 90 3b 7f 00 90  ;.0.;...E...;...
00002770: 3f 7f 82 70 80 3f 00 00 80 3b 00 00 80 45 00 10  ?..p.?...;...E..
00002780: 90 3b 7f 00 90 34 7f 70 80 34 00 00 80 3b 00 10  .;...4.p.4...;..
00002790: 90 34 7f 30 80 34 00 10 90 3d 7f 00 90 34 7f 70  .4.0.4...=...4.p
000027a0: 80 34 00 00 80 3d 00 10 90 34 7f 30 80 34 00 10  .4...=...4.0.4..
000027b0: 90 3e 7f 00 90 34 7f 70 80 34 00 00 80 3e 00 10  .>...4.p.4...>..
000027c0: 90 34 7f 30 80 34 00 10 90 3d 7f 30 80 3d 00 10  .4.0.4...=.0.=..
000027d0: 90 3e 7f 30 80 3e 00 10 90 42 7f 00 90 39 7f 30  .>.0.>...B...9.0
000027e0: 80 39 00 00 80 42 00 10 90 39 7f 00 90 40 7f 70  .9...B...9...@.p
000027f0: 80 40 00 00 80 39 00 10 90 39 7f 00 90 40 7f 30  .@...9...9...@.0
00002800: 80 40 00 00 80 39 00 10 90 42 7f 00 90 39 7f 70  .@...9...B...9.p
00002810: 80 39 00 00 80 42 00 10 90 39 7f 00 90 45 7f 10  .9...B...9...E..
00002820: 80 45 00 20 80 39 00 10 90 40 7f 00 90 39 7f 81  .E. .9...@...9..
00002830: 10 80 39 00 00 80 40 00 30 90 42 7f 00 90 39 7f  ..9...@.0.B...9.
00002840: 70 80 39 00 00 80 42 00 10 90 39 7f 30 80 39 00  p.9...B...9.0.9.
00002850: 10 90 34 7f 00 90 3b 7f 70 80 3b 00 00 80 34 00  ..4...;.p.;...4.
00002860: 10 90 34 7f 00 90 3b 7f 30 80 3b 00 00 80 34 00  ..4...;.0.;...4.
00002870: 10 90 3d 7f 00 90 34 7f 70 80 34 00 00 80 3d 00  ..=...4.p.4...=.
00002880: 10 90 38 7f 30 80 38 00 10 90 34 7f 00 90 3b 7f  ..8.0.8...4...;.
00002890: 70 80 3b 00 00 80 34 00 10 90 34 7f 30 80 34 00  p.;...4...4.0.4.
000028a0: 10 90 34 7f 10 80 34 00 28 90 45 7f 30 80 45 00  ..4...4.(.E.0.E.
000028b0: 10 90 40 7f 30 80 40 00 11 e0 00 40 03 e0 00 41  ..@.0.@....@...A
000028c0: 04 90 43 7f 01 e0 00 42 03 e0 00 44 05 e0 00 45  ..C....B...D...E
000028d0: 03 e0 00 44 00 80 43 00 04 90 44 7f 01 e0 00 42  ...D..C...D....B
000028e0: 02 e0 00 41 01 e0 00 40 05 e0 00 3f 02 e0 00 3e  ...A...@...?...>
000028f0: 00 80 44 00 01 e0 00 3f 04 90 43 7f 01 e0 00 40  ..D....?..C....@
00002900: 02 e0 00 41 05 e0 00 42 01 e0 00 44 03 e0 24 44  ...A...B...D..$D
00002910: 04 e0 00 44 03 e0 00 42 01 e0 00 41 04 e0 00 40  ...D...B...A...@
00002920: 03 e0 00 3f 01 e0 00 3e 05 e0 00 3f 03 e0 00 40  ...?...>...?...@
00002930: 05 e0 00 41 03 e0 00 42 05 e0 00 41 03 e0 00 40  ...A...B...A...@
00002940: 05 e0 00 3f 03 e0 00 3e 07 e0 00 3f 08 e0 00 40  ...?...>...?...@
00002950: 05 80 43 00 01 e0 00 40 0f 90 34 7f 30 80 34 00  ..C....@..4.0.4.
00002960: 10 90 34 7f 00 90 3d 7f 70 80 3d 00 00 80 34 00  ..4...=.p.=...4.
00002970: 10 90 34 7f 30 80 34 00 10 90 34 7f 00 90 3b 7f  ..4.0.4...4...;.
00002980: 70 80 3b 00 00 80 34 00 10 90 34 7f 30 80 34 00  p.;...4...4.0.4.
00002990: 10 90 3d 7f 00 90 34 7f 70 80 34 00 00 80 3d 00  ..=...4.p.4...=.
000029a0: 10 90 34 7f 30 80 34 00 10 90 39 7f 00 90 40 7f  ..4.0.4...9...@.
000029b0: 70 80 40 00 00 80 39 00 10 90 39 7f 30 80 39 00  p.@...9...9.0.9.
000029c0: 10 90 42 7f 00 90 39 7f 70 80 39 00 00 80 42 00  ..B...9.p.9...B.
000029d0: 10 90 39 7f 30 80 39 00 10 90 39 7f 00 90 40 7f  ..9.0.9...9...@.
000029e0: 70 80 40 00 00 80 39 00 10 90 39 7f 00 90 40 7f  p.@...9...9...@.
000029f0: 30 80 40 00 00 80 39 00 0c e0 00 40 04 e0 00 41  0.@...9....@...A
00002a00: 00 90 42 7f 01 e0 00 42 02 e0 00 44 01 e0 24 44  ..B....B...D..$D
00002a10: 04 e0 00 44 03 e0 00 42 01 e0 00 41 05 e0 00 40  ...D...B...A...@
00002a20: 02 e0 00 40 05 e0 00 3f 01 e0 00 3e 03 e0 00 3c  ...@...?...>...<
00002a30: 04 e0 00 3e 01 e0 00 3f 03 e0 00 40 0c 80 42 00  ...>...?...@..B.
00002a40: 10 90 43 7f 30 80 43 00 10 90 42 7f 30 80 42 00  ..C.0.C...B.0.B.
00002a50: 10 90 40 7f 00 90 39 7f 70 80 39 00 00 80 40 00  ..@...9.p.9...@.
00002a60: 10 90 39 7f 30 80 39 00 10 90 42 7f 00 90 39 7f  ..9.0.9...B...9.
00002a70: 81 10 80 39 00 00 80 42 00 30 90 39 7f 00 90 40  ...9...B.0.9...@
00002a80: 7f 81 10 80 40 00 00 80 39 00 30 90 42 7f 00 90  ....@...9.0.B...
00002a90: 39 7f 81 10 80 39 00 00 80 42 00 30 90 34 7f 00  9....9...B.0.4..
00002aa0: 90 3b 7f 70 80 3b 00 00 80 34 00 10 90 34 7f 30  .;.p.;...4...4.0
00002ab0: 80 34 00 10 90 3d 7f 00 90 34 7f 70 80 34 00 00  .4...=...4.p.4..
00002ac0: 80 3d 00 10 90 34 7f 30 80 34 00 10 90 3b 7f 00  .=...4.0.4...;..
00002ad0: 90 34 7f 70 80 34 00 00 80 3b 00 10 90 4c 7f 00  .4.p.4...;...L..
00002ae0: 90 34 7f 10 80 4c 00 20 80 34 00 10 90 3b 7f 00  .4...L. .4...;..
00002af0: 90 34 7f 10 80 34 00 00 80 3b 00 30 90 55 7f 00  .4...4...;.0.U..
00002b00: 90 45 7f 00 90 49 7f 10 80 55 00 20 80 49 00 00  .E...I...U. .I..
00002b10: 80 45 00 10 90 40 7f 30 80 40 00 10 e0 00 40 00  .E...@.0.@....@.
00002b20: 90 43 7f 03 e0 00 41 06 e0 00 42 02 80 43 00 01  .C....A...B..C..
00002b30: e0 00 41 04 90 44 7f 01 e0 00 40 03 e0 00 3f 05  ..A..D....@...?.
00002b40: e0 00 3e 03 e0 00 3f 00 80 44 00 04 90 43 7f 01  ..>...?..D...C..
00002b50: e0 00 40 07 e0 00 41 03 e0 00 42 06 e0 00 41 03  ..@...A...B...A.
00002b60: e0 00 40 05 e0 00 3f 03 e0 00 3e 05 e0 00 3f 03  ..@...?...>...?.
00002b70: e0 00 40 05 e0 00 41 03 e0 00 42 04 e0 00 41 03  ..@...A...B...A.
00002b80: e0 00 40 01 e0 00 40 05 e0 00 3f 02 e0 00 3e 05  ..@...@...?...>.
00002b90: e0 00 3c 01 e0 00 3e 03 e0 00 3f 04 e0 00 40 08  ..<...>...?...@.
00002ba0: 80 43 00 10 90 34 7f 30 80 34 00 10 90 34 7f 00  .C...4.0.4...4..
00002bb0: 90 3d 7f 70 80 3d 00 00 80 34 00 10 90 34 7f 30  .=.p.=...4...4.0
00002bc0: 80 34 00 10 90 34 7f 00 90 3b 7f 70 80 3b 00 00  .4...4...;.p.;..
00002bd0: 80 34 00 10 90 34 7f 30 80 34 00 10 90 34 7f 00  .4...4.0.4...4..
00002be0: 90 3d 7f 70 80 3d 00 00 80 34 00 10 90 3e 7f 30  .=.p.=...4...>.0
00002bf0: 80 3e 00 10 90 3f 7f 70 80 3f 00 10 90 45 7f 81  .>...?.p.?...E..
00002c00: 30 80 45 00 10 90 47 7f 81 30 80 47 00 10 90 45  0.E...G..0.G...E
00002c10: 7f 30 80 45 00 10 90 47 7f 81 10 80 47 00 30 90  .0.E...G....G.0.
00002c20: 40 7f 00 90 39 7f 00 90 45 7f 70 80 45 00 00 80  @...9...E.p.E...
00002c30: 39 00 00 80 40 00 10 90 39 7f 00 90 40 7f 00 90  9...@...9...@...
00002c40: 45 7f 30 80 45 00 00 80 40 00 00 80 39 00 10 90  E.0.E...@...9...
00002c50: 39 7f 00 90 40 7f 00 90 45 7f 70 80 45 00 00 80  9...@...E.p.E...
00002c60: 40 00 00 80 39 00 10 90 39 7f 30 80 39 00 10 90  @...9...9.0.9...
00002c70: 39 7f 00 90 42 7f 00 90 45 7f 70 80 45 00 00 80  9...B...E.p.E...
00002c80: 42 00 00 80 39 00 10 90 39 7f 30 80 39 00 10 90  B...9...9.0.9...
00002c90: 40 7f 30 80 40 00 10 90 42 7f 30 80 42 00 10 90  @.0.@...B.0.B...
00002ca0: 43 7f 30 80 43 00 10 90 34 7f 00 90 3b 7f 70 80  C.0.C...4...;.p.
00002cb0: 3b 00 00 80 34 00 10 90 34 7f 30 80 34 00 10 90  ;...4...4.0.4...
00002cc0: 34 7f 00 90 3d 7f 70 80 3d 00 00 80 34 00 10 90  4...=.p.=...4...
00002cd0: 34 7f 30 80 34 00 10 90 34 7f 00 90 3b 7f 70 80  4.0.4...4...;.p.
00002ce0: 3b 00 00 80 34 00 10 90 34 7f 00 90 3b 7f 30 80  ;...4...4...;.0.
00002cf0: 3b 00 00 80 34 00 10 90 34 7f 00 90 3b 7f 10 80  ;...4...4...;...
00002d00: 3b 00 00 80 34 00 30 90 45 7f 00 90 40 7f 30 80  ;...4.0.E...@.0.
00002d10: 40 00 00 80 45 00 10 90 40 7f 30 80 40 00 10 e0  @...E...@.0.@...
00002d20: 00 40 00 90 43 7f 03 e0 00 41 08 e0 00 42 00 80  .@..C....A...B..
00002d30: 43 00 05 90 44 7f 01 e0 00 41 03 e0 00 40 05 e0  C...D....A...@..
00002d40: 00 3f 03 e0 00 3e 00 80 44 00 04 90 43 7f 01 e0  .?...>..D...C...
00002d50: 00 3f 03 e0 00 40 05 e0 00 41 03 e0 00 42 05 e0  .?...@...A...B..
00002d60: 00 41 03 e0 00 40 05 e0 00 3f 03 e0 00 3e 05 e0  .A...@...?...>..
00002d70: 00 3f 03 e0 00 40 05 e0 00 41 03 e0 00 42 05 e0  .?...@...A...B..
00002d80: 00 41 03 e0 00 40 05 e0 00 40 03 e0 00 3e 07 e0  .A...@...@...>..
00002d90: 00 40 0d 80 43 00 10 90 3b 7f 30 80 3b 00 10 90  .@..C...;.0.;...
00002da0: 45 7f 70 80 45 00 10 90 47 7f 70 80 47 00 10 90  E.p.E...G.p.G...
00002db0: 45 7f 70 80 45 00 10 90 47 7f 70 80 47 00 10 90  E.p.E...G.p.G...
00002dc0: 45 7f 30 80 45 00 10 90 3b 7f 00 90 34 7f 70 80  E.0.E...;...4.p.
00002dd0: 34 00 00 80 3b 00 10 90 34 7f 30 80 34 00 10 90  4...;...4.0.4...
00002de0: 3d 7f 00 90 34 7f 70 80 34 00 00 80 3d 00 10 90  =...4.p.4...=...
00002df0: 34 7f 30 80 34 00 10 90 3e 7f 00 90 34 7f 70 80  4.0.4...>...4.p.
00002e00: 34 00 00 80 3e 00 10 90 34 7f 30 80 34 00 10 90  4...>...4.0.4...
00002e10: 3d 7f 30 80 3d 00 10 90 3e 7f 30 80 3e 00 10 90  =.0.=...>.0.>...
00002e20: 42 7f 00 90 39 7f 30 80 39 00 00 80 42 00 10 90  B...9.0.9...B...
00002e30: 39 7f 00 90 40 7f 70 80 40 00 00 80 39 00 10 90  9...@.p.@...9...
00002e40: 39 7f 00 90 40 7f 30 80 40 00 00 80 39 00 10 90  9...@.0.@...9...
00002e50: 42 7f 00 90 39 7f 70 80 39 00 00 80 42 00 10 90  B...9.p.9...B...
00002e60: 39 7f 00 90 45 7f 10 80 45 00 20 80 39 00 10 90  9...E...E. .9...
00002e70: 40 7f 00 90 39 7f 81 10 80 39 00 00 80 40 00 30  @...9....9...@.0
00002e80: 90 42 7f 00 90 39 7f 70 80 39 00 00 80 42 00 10  .B...9.p.9...B..
00002e90: 90 39 7f 30 80 39 00 10 90 34 7f 00 90 3b 7f 70  .9.0.9...4...;.p
00002ea0: 80 3b 00 00 80 34 00 10 90 34 7f 00 90 3b 7f 30  .;...4...4...;.0
00002eb0: 80 3b 00 00 80 34 00 10 90 3d 7f 00 90 34 7f 70  .;...4...=...4.p
00002ec0: 80 34 00 00 80 3d 00 10 90 38 7f 30 80 38 00 10  .4...=...8.0.8..
00002ed0: 90 34 7f 00 90 3b 7f 70 80 3b 00 00 80 34 00 10  .4...;.p.;...4..
00002ee0: 90 34 7f 30 80 34 00 10 90 34 7f 10 80 34 00 28  .4.0.4...4...4.(
00002ef0: 90 45 7f 30 80 45 00 10 90 40 7f 30 80 40 00 11  .E.0.E...@.0.@..
00002f00: e0 00 40 03 e0 00 41 04 90 43 7f 01 e0 00 42 03  ..@...A..C....B.
00002f10: e0 00 44 05 e0 00 45 03 e0 00 44 00 80 43 00 04  ..D...E...D..C..
00002f20: 90 44 7f 01 e0 00 42 02 e0 00 41 01 e0 00 40 05  .D....B...A...@.
00002f30: e0 00 3f 02 e0 00 3e 00 80 44 00 01 e0 00 3f 04  ..?...>..D....?.
00002f40: 90 43 7f 01 e0 00 40 02 e0 00 41 05 e0 00 42 01  .C....@...A...B.
00002f50: e0 00 44 03 e0 24 44 04 e0 00 44 03 e0 00 42 01  ..D..$D...D...B.
00002f60: e0 00 41 04 e0 00 40 03 e0 00 3f 01 e0 00 3e 05  ..A...@...?...>.
00002f70: e0 00 3f 03 e0 00 40 05 e0 00 41 03 e0 00 42 05  ..?...@...A...B.
00002f80: e0 00 41 03 e0 00 40 05 e0 00 3f 03 e0 00 3e 07  ..A...@...?...>.
00002f90: e0 00 3f 08 e0 00 40 05 80 43 00 01 e0 00 40 0f  ..?...@..C....@.
00002fa0: 90 34 7f 30 80 34 00 10 90 34 7f 00 90 3d 7f 70  .4.0.4...4...=.p
00002fb0: 80 3d 00 00 80 34 00 10 90 34 7f 30 80 34 00 10  .=...4...4.0.4..
00002fc0: 90 34 7f 00 90 3b 7f 70 80 3b 00 00 80 34 00 10  .4...;.p.;...4..
00002fd0: 90 34 7f 30 80 34 00 10 90 3d 7f 00 90 34 7f 70  .4.0.4...=...4.p
00002fe0: 80 34 00 00 80 3d 00 10 90 34 7f 30 80 34 00 10  .4...=...4.0.4..
00002ff0: 90 39 7f 00 90 40 7f 70 80 40 00 00 80 39 00 10  .9...@.p.@...9..
00003000: 90 39 7f 30 80 39 00 10 90 42 7f 00 90 39 7f 70  .9.0.9...B...9.p
00003010: 80 39 00 00 80 42 00 10 90 39 7f 30 80 39 00 10  .9...B...9.0.9..
00003020: 90 39 7f 00 90 40 7f 70 80 40 00 00 80 39 00 10  .9...@.p.@...9..
00003030: 90 39 7f 00 90 40 7f 30 80 40 00 00 80 39 00 0c  .9...@.0.@...9..
00003040: e0 00 40 04 e0 00 41 00 90 42 7f 01 e0 00 42 02  ..@...A..B....B.
00003050: e0 00 44 01 e0 24 44 04 e0 00 44 03 e0 00 42 01  ..D..$D...D...B.
00003060: e0 00 41 05 e0 00 40 02 e0 00 40 05 e0 00 3f 01  ..A...@...@...?.
00003070: e0 00 3e 03 e0 00 3c 04 e0 00 3e 01 e0 00 3f 03  ..>...<...>...?.
00003080: e0 00 40 0c 80 42 00 10 90 43 7f 30 80 43 00 10  ..@..B...C.0.C..
00003090: 90 42 7f 30 80 42 00 10 90 40 7f 00 90 39 7f 70  .B.0.B...@...9.p
000030a0: 80 39 00 00 80 40 00 10 90 39 7f 30 80 39 00 10  .9...@...9.0.9..
000030b0: 90 42 7f 00 90 39 7f 81 10 80 39 00 00 80 42 00  .B...9....9...B.
000030c0: 30 90 39 7f 00 90 40 7f 81 10 80 40 00 00 80 39  0.9...@....@...9
000030d0: 00 30 90 42 7f 00 90 39 7f 81 10 80 39 00 00 80  .0.B...9....9...
000030e0: 42 00 30 90 34 7f 00 90 3b 7f 70 80 3b 00 00 80  B.0.4...;.p.;...
000030f0: 34 00 10 90 34 7f 30 80 34 00 10 90 3d 7f 00 90  4...4.0.4...=...
00003100: 34 7f 70 80 34 00 00 80 3d 00 10 90 34 7f 30 80  4.p.4...=...4.0.
00003110: 34 00 10 90 3b 7f 00 90 34 7f 70 80 34 00 00 80  4...;...4.p.4...
00003120: 3b 00 10 90 4c 7f 00 90 34 7f 10 80 4c 00 20 80  ;...L...4...L. .
00003130: 34 00 10 90 3b 7f 00 90 34 7f 10 80 34 00 00 80  4...;...4...4...
00003140: 3b 00 30 90 55 7f 00 90 45 7f 00 90 49 7f 10 80  ;.0.U...E...I...
00003150: 55 00 20 80 49 00 00 80 45 00 10 90 40 7f 30 80  U. .I...E...@.0.
00003160: 40 00 10 e0 00 40 00 90 43 7f 03 e0 00 41 06 e0  @....@..C....A..
00003170: 00 42 02 80 43 00 01 e0 00 41 04 90 44 7f 01 e0  .B..C....A..D...
00003180: 00 40 03 e0 00 3f 05 e0 00 3e 03 e0 00 3f 00 80  .@...?...>...?..
00003190: 44 00 04 90 43 7f 01 e0 00 40 07 e0 00 41 03 e0  D...C....@...A..
000031a0: 00 42 06 e0 00 41 03 e0 00 40 05 e0 00 3f 03 e0  .B...A...@...?..
000031b0: 00 3e 05 e0 00 3f 03 e0 00 40 05 e0 00 41 03 e0  .>...?...@...A..
000031c0: 00 42 04 e0 00 41 03 e0 00 40 01 e0 00 40 05 e0  .B...A...@...@..
000031d0: 00 3f 02 e0 00 3e 05 e0 00 3c 01 e0 00 3e 03 e0  .?...>...<...>..
000031e0: 00 3f 04 e0 00 40 08 80 43 00 10 90 34 7f 30 80  .?...@..C...4.0.
000031f0: 34 00 10 90 34 7f 00 90 3d 7f 70 80 3d 00 00 80  4...4...=.p.=...
00003200: 34 00 10 90 34 7f 30 80 34 00 10 90 34 7f 00 90  4...4.0.4...4...
00003210: 3b 7f 70 80 3b 00 00 80 34 00 10 90 34 7f 30 80  ;.p.;...4...4.0.
00003220: 34 00 10 90 34 7f 00 90 3d 7f 70 80 3d 00 00 80  4...4...=.p.=...
00003230: 34 00 10 90 3e 7f 30 80 3e 00 10 90 3f 7f 70 80  4...>.0.>...?.p.
00003240: 3f 00 10 90 45 7f 81 30 80 45 00 10 90 47 7f 81  ?...E..0.E...G..
00003250: 30 80 47 00 10 90 45 7f 30 80 45 00 10 90 47 7f  0.G...E.0.E...G.
00003260: 81 10 80 47 00 30 90 40 7f 00 90 39 7f 00 90 45  ...G.0.@...9...E
00003270: 7f 70 80 45 00 00 80 39 00 00 80 40 00 10 90 39  .p.E...9...@...9
00003280: 7f 00 90 40 7f 00 90 45 7f 30 80 45 00 00 80 40  ...@...E.0.E...@
00003290: 00 00 80 39 00 10 90 39 7f 00 90 40 7f 00 90 45  ...9...9...@...E
000032a0: 7f 70 80 45 00 00 80 40 00 00 80 39 00 10 90 39  .p.E...@...9...9
000032b0: 7f 30 80 39 00 10 90 39 7f 00 90 42 7f 00 90 45  .0.9...9...B...E
000032c0: 7f 70 80 45 00 00 80 42 00 00 80 39 00 10 90 39  .p.E...B...9...9
000032d0: 7f 30 80 39 00 10 90 40 7f 30 80 40 00 10 90 42  .0.9...@.0.@...B
000032e0: 7f 30 80 42 00 10 90 43 7f 30 80 43 00 10 90 34  .0.B...C.0.C...4
000032f0: 7f 00 90 3b 7f 70 80 3b 00 00 80 34 00 10 90 34  ...;.p.;...4...4
00003300: 7f 30 80 34 00 10 90 34 7f 00 90 3d 7f 70 80 3d  .0.4...4...=.p.=
00003310: 00 00 80 34 00 10 90 34 7f 30 80 34 00 10 90 34  ...4...4.0.4...4
00003320: 7f 00 90 3b 7f 70 80 3b 00 00 80 34 00 10 90 34  ...;.p.;...4...4
00003330: 7f 00 90 3b 7f 30 80 3b 00 00 80 34 00 10 90 34  ...;.0.;...4...4
00003340: 7f 00 90 3b 7f 10 80 3b 00 00 80 34 00 30 90 45  ...;...;...4.0.E
00003350: 7f 00 90 40 7f 30 80 40 00 00 80 45 00 10 90 40  ...@.0.@...E...@
00003360: 7f 30 80 40 00 10 e0 00 40 00 90 43 7f 03 e0 00  .0.@....@..C....
00003370: 41 08 e0 00 42 00 80 43 00 05 90 44 7f 01 e0 00  A...B..C...D....
00003380: 41 03 e0 00 40 05 e0 00 3f 03 e0 00 3e 00 80 44  A...@...?...>..D
00003390: 00 04 90 43 7f 01 e0 00 3f 03 e0 00 40 05 e0 00  ...C....?...@...
000033a0: 41 03 e0 00 42 05 e0 00 41 03 e0 00 40 05 e0 00  A...B...A...@...
000033b0: 3f 03 e0 00 3e 05 e0 00 3f 03 e0 00 40 05 e0 00  ?...>...?...@...
000033c0: 41 03 e0 00 42 05 e0 00 41 03 e0 00 40 05 e0 00  A...B...A...@...
000033d0: 40 03 e0 00 3e 07 e0 00 40 0d 80 43 00 10 90 3b  @...>...@..C...;
000033e0: 7f 30 80 3b 00 10 90 45 7f 70 80 45 00 10 90 47  .0.;...E.p.E...G
000033f0: 7f 70 80 47 00 10 90 45 7f 70 80 45 00 10 90 47  .p.G...E.p.E...G
00003400: 7f 70 80 47 00 10 90 45 7f 30 80 45 00 10 90 3b  .p.G...E.0.E...;
00003410: 7f 00 90 34 7f 70 80 34 00 00 80 3b 00 10 90 34  ...4.p.4...;...4
00003420: 7f 30 80 34 00 10 90 3d 7f 00 90 34 7f 70 80 34  .0.4...=...4.p.4
00003430: 00 00 80 3d 00 10 90 34 7f 30 80 34 00 10 90 3e  ...=...4.0.4...>
00003440: 7f 00 90 34 7f 70 80 34 00 00 80 3e 00 10 90 34  ...4.p.4...>...4
00003450: 7f 30 80 34 00 10 90 3d 7f 30 80 3d 00 10 90 3e  .0.4...=.0.=...>
00003460: 7f 30 80 3e 00 10 90 42 7f 00 90 39 7f 30 80 39  .0.>...B...9.0.9
00003470: 00 00 80 42 00 10 90 39 7f 00 90 40 7f 70 80 40  ...B...9...@.p.@
00003480: 00 00 80 39 00 10 90 39 7f 00 90 40 7f 30 80 40  ...9...9...@.0.@
00003490: 00 00 80 39 00 10 90 42 7f 00 90 39 7f 70 80 39  ...9...B...9.p.9
000034a0: 00 00 80 42 00 10 90 39 7f 00 90 45 7f 10 80 45  ...B...9...E...E
000034b0: 00 20 80 39 00 10 90 40 7f 00 90 39 7f 81 10 80  . .9...@...9....
000034c0: 39 00 00 80 40 00 30 90 42 7f 00 90 39 7f 70 80  9...@.0.B...9.p.
000034d0: 39 00 00 80 42 00 10 90 39 7f 30 80 39 00 10 90  9...B...9.0.9...
000034e0: 34 7f 00 90 3b 7f 70 80 3b 00 00 80 34 00 10 90  4...;.p.;...4...
000034f0: 34 7f 00 90 3b 7f 30 80 3b 00 00 80 34 00 10 90  4...;.0.;...4...
00003500: 3d 7f 00 90 34 7f 70 80 34 00 00 80 3d 00 10 90  =...4.p.4...=...
00003510: 38 7f 30 80 38 00 10 90 34 7f 00 90 3b 7f 70 80  8.0.8...4...;.p.
00003520: 3b 00 00 80 34 00 10 90 34 7f 30 80 34 00 10 90  ;...4...4.0.4...
00003530: 34 7f 10 80 34 00 28 90 45 7f 30 80 45 00 10 90  4...4.(.E.0.E...
00003540: 40 7f 30 80 40 00 11 e0 00 40 03 e0 00 41 04 90  @.0.@....@...A..
00003550: 43 7f 01 e0 00 42 03 e0 00 44 05 e0 00 45 03 e0  C....B...D...E..
00003560: 00 44 00 80 43 00 04 90 44 7f 01 e0 00 42 02 e0  .D..C...D....B..
00003570: 00 41 01 e0 00 40 05 e0 00 3f 02 e0 00 3e 00 80  .A...@...?...>..
00003580: 44 00 01 e0 00 3f 04 90 43 7f 01 e0 00 40 02 e0  D....?..C....@..
00003590: 00 41 05 e0 00 42 01 e0 00 44 03 e0 24 44 04 e0  .A...B...D..$D..
000035a0: 00 44 03 e0 00 42 01 e0 00 41 04 e0 00 40 03 e0  .D...B...A...@..
000035b0: 00 3f 01 e0 00 3e 05 e0 00 3f 03 e0 00 40 05 e0  .?...>...?...@..
000035c0: 00 41 03 e0 00 42 05 e0 00 41 03 e0 00 40 05 e0  .A...B...A...@..
000035d0: 00 3f 03 e0 00 3e 07 e0 00 3f 08 e0 00 40 05 80  .?...>...?...@..
000035e0: 43 00 01 e0 00 40 0f 90 34 7f 30 80 34 00 10 90  C....@..4.0.4...
000035f0: 34 7f 00 90 3d 7f 70 80 3d 00 00 80 34 00 10 90  4...=.p.=...4...
00003600: 34 7f 30 80 34 00 10 90 34 7f 00 90 3b 7f 70 80  4.0.4...4...;.p.
00003610: 3b 00 00 80 34 00 10 90 34 7f 30 80 34 00 10 90  ;...4...4.0.4...
00003620: 3d 7f 00 90 34 7f 70 80 34 00 00 80 3d 00 10 90  =...4.p.4...=...
00003630: 34 7f 30 80 34 00 10 90 39 7f 00 90 40 7f 70 80  4.0.4...9...@.p.
00003640: 40 00 00 80 39 00 10 90 39 7f 30 80 39 00 10 90  @...9...9.0.9...
00003650: 42 7f 00 90 39 7f 70 80 39 00 00 80 42 00 10 90  B...9.p.9...B...
00003660: 39 7f 30 80 39 00 10 90 39 7f 00 90 40 7f 70 80  9.0.9...9...@.p.
00003670: 40 00 00 80 39 00 10 90 39 7f 00 90 40 7f 30 80  @...9...9...@.0.
00003680: 40 00 00 80 39 00 0c e0 00 40 04 e0 00 41 00 90  @...9....@...A..
00003690: 42 7f 01 e0 00 42 02 e0 00 44 01 e0 24 44 04 e0  B....B...D..$D..
000036a0: 00 44 03 e0 00 42 01 e0 00 41 05 e0 00 40 02 e0  .D...B...A...@..
000036b0: 00 40 05 e0 00 3f 01 e0 00 3e 03 e0 00 3c 04 e0  .@...?...>...<..
000036c0: 00 3e 01 e0 00 3f 03 e0 00 40 0c 80 42 00 10 90  .>...?...@..B...
000036d0: 43 7f 30 80 43 00 10 90 42 7f 30 80 42 00 10 90  C.0.C...B.0.B...
000036e0: 40 7f 00 90 39 7f 70 80 39 00 00 80 40 00 10 90  @...9.p.9...@...
000036f0: 39 7f 30 80 39 00 10 90 42 7f 00 90 39 7f 81 10  9.0.9...B...9...
00003700: 80 39 00 00 80 42 00 30 90 39 7f 00 90 40 7f 81  .9...B.0.9...@..
00003710: 10 80 40 00 00 80 39 00 30 90 42 7f 00 90 39 7f  ..@...9.0.B...9.
00003720: 81 10 80 39 00 00 80 42 00 30 90 34 7f 00 90 3b  ...9...B.0.4...;
00003730: 7f 70 80 3b 00 00 80 34 00 10 90 34 7f 30 80 34  .p.;...4...4.0.4
00003740: 00 10 90 3d 7f 00 90 34 7f 70 80 34 00 00 80 3d  ...=...4.p.4...=
00003750: 00 10 90 34 7f 30 80 34 00 10 90 3b 7f 00 90 34  ...4.0.4...;...4
00003760: 7f 70 80 34 00 00 80 3b 00 10 90 4c 7f 00 90 34  .p.4...;...L...4
00003770: 7f 10 80 4c 00 20 80 34 00 10 90 3b 7f 00 90 34  ...L. .4...;...4
00003780: 7f 10 80 34 00 00 80 3b 00 30 90 55 7f 00 90 45  ...4...;.0.U...E
00003790: 7f 00 90 49 7f 10 80 55 00 20 80 49 00 00 80 45  ...I...U. .I...E
000037a0: 00 10 90 40 7f 30 80 40 00 10 e0 00 40 00 90 43  ...@.0.@....@..C
000037b0: 7f 03 e0 00 41 06 e0 00 42 02 80 43 00 01 e0 00  ....A...B..C....
000037c0: 41 04 90 44 7f 01 e0 00 40 03 e0 00 3f 05 e0 00  A..D....@...?...
000037d0: 3e 03 e0 00 3f 00 80 44 00 04 90 43 7f 01 e0 00  >...?..D...C....
000037e0: 40 07 e0 00 41 03 e0 00 42 06 e0 00 41 03 e0 00  @...A...B...A...
000037f0: 40 05 e0 00 3f 03 e0 00 3e 05 e0 00 3f 03 e0 00  @...?...>...?...
00003800: 40 05 e0 00 41 03 e0 00 42 04 e0 00 41 03 e0 00  @...A...B...A...
00003810: 40 01 e0 00 40 05 e0 00 3f 02 e0 00 3e 05 e0 00  @...@...?...>...
00003820: 3c 01 e0 00 3e 03 e0 00 3f 04 e0 00 40 08 80 43  <...>...?...@..C
00003830: 00 10 90 34 7f 30 80 34 00 10 90 34 7f 00 90 3d  ...4.0.4...4...=
00003840: 7f 70 80 3d 00 00 80 34 00 10 90 34 7f 30 80 34  .p.=...4...4.0.4
00003850: 00 10 90 34 7f 00 90 3b 7f 70 80 3b 00 00 80 34  ...4...;.p.;...4
00003860: 00 10 90 34 7f 30 80 34 00 10 90 34 7f 00 90 3d  ...4.0.4...4...=
00003870: 7f 70 80 3d 00 00 80 34 00 10 90 3e 7f 30 80 3e  .p.=...4...>.0.>
00003880: 00 10 90 3f 7f 70 80 3f 00 10 90 45 7f 81 30 80  ...?.p.?...E..0.
00003890: 45 00 10 90 47 7f 81 30 80 47 00 10 90 45 7f 30  E...G..0.G...E.0
000038a0: 80 45 00 10 90 47 7f 81 10 80 47 00 30 90 40 7f  .E...G....G.0.@.
000038b0: 00 90 39 7f 00 90 45 7f 70 80 45 00 00 80 39 00  ..9...E.p.E...9.
000038c0: 00 80 40 00 10 90 39 7f 00 90 40 7f 00 90 45 7f  ..@...9...@...E.
000038d0: 30 80 45 00 00 80 40 00 00 80 39 00 10 90 39 7f  0.E...@...9...9.
000038e0: 00 90 40 7f 00 90 45 7f 70 80 45 00 00 80 40 00  ..@...E.p.E...@.
000038f0: 00 80 39 00 10 90 39 7f 30 80 39 00 10 90 39 7f  ..9...9.0.9...9.
00003900: 00 90 42 7f 00 90 45 7f 70 80 45 00 00 80 42 00  ..B...E.p.E...B.
00003910: 00 80 39 00 10 90 39 7f 30 80 39 00 10 90 40 7f  ..9...9.0.9...@.
00003920: 30 80 40 00 10 90 42 7f 30 80 42 00 10 90 43 7f  0.@...B.0.B...C.
00003930: 30 80 43 00 10 90 34 7f 00 90 3b 7f 70 80 3b 00  0.C...4...;.p.;.
00003940: 00 80 34 00 10 90 34 7f 30 80 34 00 10 90 34 7f  ..4...4.0.4...4.
00003950: 00 90 3d 7f 70 80 3d 00 00 80 34 00 10 90 34 7f  ..=.p.=...4...4.
00003960: 30 80 34 00 10 90 34 7f 00 90 3b 7f 70 80 3b 00  0.4...4...;.p.;.
00003970: 00 80 34 00 10 90 34 7f 00 90 3b 7f 30 80 3b 00  ..4...4...;.0.;.
00003980: 00 80 34 00 10 90 34 7f 00 90 3b 7f 10 80 3b 00  ..4...4...;...;.
00003990: 00 80 34 00 30 90 45 7f 00 90 40 7f 30 80 40 00  ..4.0.E...@.0.@.
000039a0: 00 80 45 00 10 90 40 7f 30 80 40 00 10 e0 00 40  ..E...@.0.@....@
000039b0: 00 90 43 7f 03 e0 00 42 05 80 43 00 01 e0 00 42  ..C....B..C....B
000039c0: 02 90 44 7f 05 e0 00 42 03 e0 00 40 00 80 44 00  ..D....B...@..D.
000039d0: 05 e0 00 40 00 90 43 7f 03 e0 00 3e 06 e0 00 40  ...@..C....>...@
000039e0: 03 e0 00 40 05 e0 00 42 03 e0 00 42 05 e0 00 42  ...@...B...B...B
000039f0: 03 e0 00 40 05 e0 00 40 03 e0 00 3e 07 e0 00 40  ...@...@...>...@
00003a00: 05 e0 00 40 03 e0 00 42 05 e0 00 42 01 e0 00 42  ...@...B...B...B
00003a10: 03 e0 00 40 05 e0 00 40 03 e0 00 3e 05 e0 00 40  ...@...@...>...@
00003a20: 08 e0 00 40 07 e0 00 40 00 80 43 00 10 90 3b 7f  ...@...@..C...;.
00003a30: 30 80 3b 00 10 90 3b 7f 04 90 3e 7f 05 90 45 7f  0.;...;...>...E.
00003a40: 67 80 45 00 00 80 3e 00 00 80 3b 00 10 90 47 7f  g.E...>...;...G.
00003a50: 04 90 45 7f 07 90 3e 7f 65 80 3e 00 00 80 45 00  ..E...>.e.>...E.
00003a60: 00 80 47 00 10 90 45 7f 10 80 45 00 03 90 47 7f  ..G...E...E...G.
00003a70: 5d 80 47 00 40 90 4c 7f 30 80 4c 00 04 90 4f 7f  ].G.@.L.0.L...O.
00003a80: 2c 80 4f 00 04 90 51 7f 2c 80 51 00 1c e0 00 42  ,.O...Q.,.Q....B
00003a90: 04 e0 00 44 00 90 51 7f 01 e0 00 46 02 e0 00 48  ...D..Q....F...H
00003aa0: 01 e0 00 4a 04 e0 00 4a 00 80 51 00 01 e0 00 48  ...J...J..Q....H
00003ab0: 02 e0 00 40 00 90 53 7f 45 80 53 00 0c e0 00 42  ...@..S.E.S....B
00003ac0: 04 e0 00 44 00 90 51 7f 01 e0 00 46 02 e0 00 48  ...D..Q....F...H
00003ad0: 01 e0 00 4a 04 e0 00 4a 00 80 51 00 01 e0 00 48  ...J...J..Q....H
00003ae0: 02 e0 00 46 00 90 53 7f 01 e0 00 44 04 e0 00 40  ...F..S....D...@
00003af0: 03 e0 00 40 00 e0 00 40 5d 80 53 00 10 90 51 7f  ...@...@].S...Q.
00003b00: 20 80 51 00 01 90 4f 7f 1a 80 4f 00 05 90 4c 7f   .Q...O...O...L.
00003b10: 30 80 4c 00 10 90 4f 7f 30 90 51 7f 00 80 4f 00  0.L...O.0.Q...O.
00003b20: 5b 80 51 00 01 e0 00 42 04 e0 00 44 00 90 51 7f  [.Q....B...D..Q.
00003b30: 01 e0 00 46 02 e0 00 48 01 e0 00 4a 04 e0 00 4a  ...F...H...J...J
00003b40: 00 80 51 00 01 e0 00 48 02 e0 00 46 00 90 53 7f  ..Q....H...F..S.
00003b50: 01 e0 00 44 04 e0 00 40 03 e0 00 40 00 e0 00 40  ...D...@...@...@
00003b60: 7d 80 53 00 82 20 90 4c 7f 30 90 4f 7f 00 80 4c  }.S.. .L.0.O...L
00003b70: 00 30 90 51 7f 00 80 4f 00 5b 80 51 00 01 e0 00  .0.Q...O.[.Q....
00003b80: 42 04 e0 00 44 00 90 51 7f 01 e0 00 46 02 e0 00  B...D..Q....F...
00003b90: 48 01 e0 00 4a 04 e0 00 4a 00 90 53 7f 00 80 51  H...J...J..S...Q
00003ba0: 00 01 e0 00 48 02 e0 00 46 01 e0 00 44 04 e0 00  ....H...F...D...
00003bb0: 40 08 80 53 00 08 90 51 7f 10 80 51 00 10 90 4f  @..S...Q...Q...O
00003bc0: 7f 10 80 4f 00 10 90 4c 7f 10 80 4c 00 10 90 51  ...O...L...L...Q
00003bd0: 7f 10 80 51 00 10 90 4c 7f 10 80 4c 00 10 90 4f  ...Q...L...L...O
00003be0: 7f 30 90 51 7f 00 80 4f 00 5b 80 51 00 01 e0 00  .0.Q...O.[.Q....
00003bf0: 42 04 e0 00 44 00 90 51 7f 01 e0 00 46 02 e0 00  B...D..Q....F...
00003c00: 48 01 e0 00 4a 04 e0 00 4a 00 80 51 00 01 e0 00  H...J...J..Q....
00003c10: 48 02 e0 00 46 00 90 53 7f 01 e0 00 44 04 e0 00  H...F..S....D...
00003c20: 40 1c e0 00 42 04 e0 00 42 03 e0 00 44 01 e0 00  @...B...B...D...
00003c30: 44 04 e0 00 44 01 e0 00 42 02 e0 00 40 01 e0 00  D...D...B...@...
00003c40: 3e 04 e0 00 3c 01 e0 00 3e 02 e0 00 40 01 e0 00  >...<...>...@...
00003c50: 42 04 e0 00 42 01 e0 00 42 02 e0 00 40 05 e0 00  B...B...B...@...
00003c60: 40 01 e0 00 3e 03 e0 00 40 07 e0 00 40 05 90 51  @...>...@...@..Q
00003c70: 7f 00 80 53 00 01 e0 00 40 02 e0 00 40 2d 90 4f  ...S....@...@-.O
00003c80: 7f 00 80 51 00 30 90 51 7f 00 80 4f 00 30 90 51  ...Q.0.Q...O.0.Q
00003c90: 7f 00 80 51 00 08 90 53 7f 00 80 51 00 10 80 53  ...Q...S...Q...S
00003ca0: 00 08 90 51 7f 10 80 51 00 10 90 4f 7f 10 80 4f  ...Q...Q...O...O
00003cb0: 00 10 90 50 7f 50 80 50 00 83 0c e0 00 40 04 e0  ...P.P.P.....@..
00003cc0: 00 42 00 90 56 7f 01 e0 00 42 02 e0 00 44 01 e0  .B..V....B...D..
00003cd0: 00 46 04 e0 00 46 01 e0 00 48 02 e0 00 48 01 e0  .F...F...H...H..
00003ce0: 00 4a 04 e0 00 4a 00 80 56 00 01 e0 00 48 02 e0  .J...J..V....H..
00003cf0: 00 46 00 90 58 7f 01 e0 00 44 04 e0 00 40 18 e0  .F..X....D...@..
00003d00: 00 42 03 e0 00 42 05 e0 00 44 03 e0 00 44 01 e0  .B...B...D...D..
00003d10: 00 44 04 e0 00 42 01 e0 00 42 02 e0 00 40 05 e0  .D...B...B...@..
00003d20: 00 40 01 e0 00 3e 02 e0 00 3e 01 e0 00 3c 04 e0  .@...>...>...<..
00003d30: 00 3e 01 e0 00 3e 02 e0 00 40 01 e0 00 42 04 e0  .>...>...@...B..
00003d40: 00 42 01 e0 00 44 02 e0 00 44 01 e0 00 46 04 e0  .B...D...D...F..
00003d50: 00 46 01 e0 00 46 02 e0 00 44 01 e0 00 44 04 e0  .F...F...D...D..
00003d60: 00 42 01 e0 00 40 02 e0 00 40 01 e0 00 3e 04 e0  .B...@...@...>..
00003d70: 00 40 03 e0 00 40 01 e0 00 42 04 e0 00 42 03 e0  .@...@...B...B..
00003d80: 00 44 01 e0 00 44 04 e0 00 44 01 e0 00 42 02 e0  .D...D...D...B..
00003d90: 00 42 01 e0 00 40 05 e0 00 40 02 e0 00 3e 01 e0  .B...@...@...>..
00003da0: 00 3e 04 e0 00 3c 01 e0 00 3e 02 e0 00 3e 01 e0  .>...<...>...>..
00003db0: 00 40 04 e0 00 40 03 e0 00 42 01 e0 00 42 04 e0  .@...@...B...B..
00003dc0: 00 44 01 e0 00 44 02 e0 00 44 05 e0 00 42 03 e0  .D...D...D...B..
00003dd0: 00 42 05 e0 00 40 00 80 58 00 03 e0 00 40 00 e0  .B...@..X....@..
00003de0: 00 40 0d 90 56 7f 08 80 56 00 03 90 57 7f 20 80  .@..V...V...W. .
00003df0: 57 00 05 90 53 7f 29 80 53 00 07 90 57 7f 5b 80  W...S.).S...W.[.
00003e00: 57 00 05 90 53 7f 19 80 53 00 07 90 57 7f 19 80  W...S...S...W...
00003e10: 57 00 07 90 53 7f 19 80 53 00 07 90 51 7f 28 80  W...S...S...Q.(.
00003e20: 51 00 08 90 53 7f 2b 80 53 00 01 e0 00 42 04 e0  Q...S.+.S....B..
00003e30: 00 44 00 90 51 7f 01 e0 00 46 02 e0 00 48 01 e0  .D..Q....F...H..
00003e40: 00 4a 04 e0 00 4a 00 80 51 00 01 e0 00 48 02 e0  .J...J..Q....H..
00003e50: 00 40 00 90 53 7f 18 80 53 00 0d 90 51 7f 29 80  .@..S...S...Q.).
00003e60: 51 00 07 90 4f 7f 03 e0 00 42 09 e0 00 42 0c e0  Q...O....B...B..
00003e70: 00 44 09 e0 00 44 07 e0 00 44 00 80 4f 00 01 e0  .D...D...D..O...
00003e80: 00 42 02 e0 00 40 05 90 4c 7f 2b 80 4c 00 05 90  .B...@..L.+.L...
00003e90: 51 7f 28 80 51 00 08 90 4c 7f 2b 80 4c 00 05 90  Q.(.Q...L.+.L...
00003ea0: 4f 7f 2b 80 4f 00 01 e0 00 42 04 90 51 7f 01 e0  O.+.O....B..Q...
00003eb0: 00 42 03 e0 00 44 05 e0 00 44 03 e0 00 46 04 e0  .B...D...D...F..
00003ec0: 00 46 03 e0 00 48 05 e0 00 48 03 e0 00 4a 05 e0  .F...H...H...J..
00003ed0: 00 4a 01 e0 00 4a 02 e0 00 48 01 e0 00 46 04 e0  .J...J...H...F..
00003ee0: 00 44 01 e0 00 42 02 e0 00 40 00 80 51 00 05 90  .D...B...@..Q...
00003ef0: 53 7f 10 80 53 00 10 90 51 7f 04 e0 00 42 04 e0  S...S...Q....B..
00003f00: 00 44 00 90 53 7f 00 80 51 00 01 e0 00 46 02 e0  .D..S...Q....F..
00003f10: 00 48 01 e0 00 4a 00 80 53 00 04 e0 00 40 00 90  .H...J..S....@..
00003f20: 53 7f 08 80 53 00 08 90 58 7f 10 80 58 00 10 90  S...S...X...X...
00003f30: 53 7f 10 80 53 00 0c e0 00 42 04 90 5b 7f 01 e0  S...S....B..[...
00003f40: 00 42 03 e0 00 44 05 e0 00 44 03 e0 00 46 05 e0  .B...D...D...F..
00003f50: 00 46 02 e0 00 46 01 e0 00 44 04 e0 00 44 00 80  .F...F...D...D..
00003f60: 5b 00 03 e0 00 42 00 90 5c 7f 01 e0 00 42 04 e0  [....B..\....B..
00003f70: 00 40 03 e0 00 40 00 e0 00 40 0d 80 5c 00 10 90  .@...@...@..\...
00003f80: 58 7f 5c e0 00 40 04 e0 00 42 01 e0 00 42 02 e0  X.\..@...B...B..
00003f90: 00 44 01 e0 00 44 04 e0 00 44 01 e0 00 42 02 e0  .D...D...D...B..
00003fa0: 00 40 01 e0 00 40 04 e0 00 3e 01 e0 00 3c 02 e0  .@...@...>...<..
00003fb0: 00 3e 01 e0 00 40 04 e0 00 40 01 e0 00 42 02 e0  .>...@...@...B..
00003fc0: 00 44 01 e0 00 44 04 e0 00 44 03 e0 00 42 01 e0  .D...D...D...B..
00003fd0: 00 42 04 e0 00 40 03 e0 00 40 01 e0 00 3e 04 e0  .B...@...@...>..
00003fe0: 00 40 03 e0 00 40 01 e0 00 42 04 e0 00 42 03 e0  .@...@...B...B..
00003ff0: 00 44 01 e0 00 44 04 e0 00 44 01 e0 00 42 02 e0  .D...D...D...B..
00004000: 00 42 01 e0 00 40 05 e0 00 40 02 e0 00 3e 01 e0  .B...@...@...>..
00004010: 00 3e 04 e0 00 3c 01 e0 00 3e 02 e0 00 3e 05 e0  .>...<...>...>..
00004020: 00 40 01 e0 00 40 02 e0 00 42 01 e0 00 42 05 e0  .@...@...B...B..
00004030: 00 44 02 e0 00 44 01 e0 00 44 05 e0 00 42 02 e0  .D...D...D...B..
00004040: 00 42 05 e0 00 40 01 e0 00 40 03 e0 00 3e 04 e0  .B...@...@...>..
00004050: 00 40 03 e0 00 40 05 e0 00 42 03 e0 00 42 01 e0  .@...@...B...B..
00004060: 00 42 04 e0 00 40 03 e0 00 40 01 e0 00 3e 04 e0  .B...@...@...>..
00004070: 00 40 03 e0 00 40 01 e0 00 42 04 e0 00 42 03 e0  .@...@...B...B..
00004080: 00 44 01 e0 00 44 04 e0 00 44 01 e0 00 42 02 e0  .D...D...D...B..
00004090: 00 42 01 e0 00 40 04 e0 00 40 01 e0 00 3e 02 e0  .B...@...@...>..
000040a0: 00 40 01 e0 00 40 05 e0 00 40 0f 80 58 00 81 60  .@...@...@..X..`
000040b0: 90 51 7f 08 80 51 00 01 e0 00 40 02 90 56 7f 01  .Q...Q....@..V..
000040c0: e0 00 42 08 e0 00 42 08 e0 00 44 08 e0 00 44 08  ..B...B...D...D.
000040d0: e0 00 46 08 e0 00 46 04 80 56 00 01 e0 00 46 02  ..F...F..V....F.
000040e0: e0 00 44 01 e0 00 44 04 90 57 7f 01 e0 00 42 02  ..D...D..W....B.
000040f0: e0 00 42 01 e0 00 40 05 e0 00 40 00 e0 00 40 27  ..B...@...@...@'
00004100: 80 57 00 10 90 53 7f 13 80 53 00 01 90 56 7f 14  .W...S...S...V..
00004110: 80 56 00 01 90 53 7f 12 80 53 00 05 90 51 7f 10  .V...S...S...Q..
00004120: 80 51 00 10 90 53 7f 10 80 53 00 0c e0 00 40 04  .Q...S...S....@.
00004130: e0 00 42 00 90 51 7f 01 e0 00 42 02 e0 00 44 01  ..B..Q....B...D.
00004140: e0 00 46 04 e0 00 46 01 e0 00 48 02 e0 00 48 01  ..F...F...H...H.
00004150: e0 00 4a 04 e0 00 4a 00 80 51 00 01 e0 00 48 02  ..J...J..Q....H.
00004160: e0 00 46 00 90 53 7f 01 e0 00 44 04 e0 00 40 81  ..F..S....D...@.
00004170: 31 e0 00 40 10 e0 00 3e 0f e0 00 3e 10 e0 00 3c  1..@...>...>...<
00004180: 0b e0 00 3c 0d e0 00 3a 0b e0 00 3a 0d e0 00 38  ...<...:...:...8
00004190: 08 e0 00 38 00 80 53 00 03 e0 00 36 05 e0 00 36  ...8..S....6...6
000041a0: 03 e0 00 34 01 e0 00 36 04 e0 00 38 00 90 4f 7f  ...4...6...8..O.
000041b0: 01 e0 00 3a 02 e0 00 3c 01 e0 00 3e 04 e0 00 40  ...:...<...>...@
000041c0: 03 e0 00 40 00 e0 00 40 25 80 4f 00 10 90 4c 7f  ...@...@%.O...L.
000041d0: 2b 80 4c 00 05 90 4f 7f 29 80 4f 00 02 e0 00 40  +.L...O.).O....@
000041e0: 05 e0 00 42 00 90 51 7f 03 e0 00 42 05 e0 00 44  ...B..Q....B...D
000041f0: 03 e0 00 44 05 e0 00 46 04 e0 00 46 05 e0 00 48  ...D...F...F...H
00004200: 03 e0 00 48 05 e0 00 4a 03 e0 00 4a 04 80 51 00  ...H...J...J..Q.
00004210: 01 e0 00 48 02 e0 00 46 01 e0 00 44 04 e0 00 40  ...H...F...D...@
00004220: 00 90 53 7f 2b 80 53 00 05 90 53 7f 10 80 53 00  ..S.+.S...S...S.
00004230: 10 90 58 7f 10 80 58 00 10 90 53 7f 10 80 53 00  ..X...X...S...S.
00004240: 0c e0 00 42 04 90 56 7f 01 e0 00 42 02 e0 00 44  ...B..V....B...D
00004250: 01 e0 00 44 05 e0 00 46 02 e0 00 46 05 e0 00 48  ...D...F...F...H
00004260: 01 e0 00 48 02 e0 00 4a 05 e0 00 4a 01 e0 00 48  ...H...J...J...H
00004270: 00 80 56 00 02 e0 00 46 01 e0 00 44 04 e0 00 42  ..V....F...D...B
00004280: 00 90 58 7f 03 e0 00 40 00 e0 00 40 0d 80 58 00  ..X....@...@..X.
00004290: 10 90 58 7f 10 80 58 00 83 10 90 51 7f 08 90 53  ..X...X....Q...S
000042a0: 7f 00 80 51 00 38 e0 00 40 00 90 56 7f 03 e0 00  ...Q.8..@..V....
000042b0: 42 05 e0 00 42 03 e0 00 44 05 e0 00 44 01 e0 00  B...B...D...D...
000042c0: 44 03 e0 00 42 05 e0 00 42 03 e0 00 40 05 e0 00  D...B...B...@...
000042d0: 40 03 e0 00 3e 04 e0 00 40 03 e0 00 40 05 e0 00  @...>...@...@...
000042e0: 42 01 e0 00 42 03 e0 00 44 05 e0 00 44 02 e0 00  B...B...D...D...
000042f0: 44 05 e0 00 42 03 e0 00 42 01 e0 00 40 05 e0 00  D...B...B...@...
00004300: 40 03 e0 00 3e 05 e0 00 40 03 e0 00 40 05 e0 00  @...>...@...@...
00004310: 42 03 e0 00 42 05 e0 00 42 03 e0 00 40 04 e0 00  B...B...B...@...
00004320: 40 01 e0 00 3e 03 e0 00 3e 04 e0 00 3c 01 e0 00  @...>...>...<...
00004330: 3e 03 e0 00 3e 04 e0 00 40 00 80 56 00 00 80 53  >...>...@..V...S
00004340: 00 03 e0 00 40 05 e0 00 40 00 90 53 7f 08 80 53  ....@...@..S...S
00004350: 00 03 90 51 7f 25 80 51 00 10 90 4f 7f 30 80 4f  ...Q.%.Q...O.0.O
00004360: 00 10 90 4c 7f 30 80 4c 00 10 90 4f 7f 08 80 4f  ...L.0.L...O...O
00004370: 00 03 90 50 7f 25 80 50 00 0c e0 00 40 04 e0 00  ...P.%.P....@...
00004380: 42 00 90 4c 7f 03 e0 00 42 01 e0 00 44 05 e0 00  B..L....B...D...
00004390: 44 02 e0 00 44 05 e0 00 42 03 e0 00 42 05 e0 00  D...D...B...B...
000043a0: 40 03 e0 00 40 05 e0 00 3e 03 e0 00 40 05 e0 00  @...@...>...@...
000043b0: 40 03 e0 00 42 05 e0 00 42 01 e0 00 42 02 e0 00  @...B...B...B...
000043c0: 40 01 e0 00 40 05 e0 00 3e 02 e0 00 3e 01 e0 00  @...@...>...>...
000043d0: 3c 04 e0 00 3e 03 e0 00 3e 01 e0 00 40 05 e0 00  <...>...>...@...
000043e0: 40 02 e0 00 42 05 e0 00 42 01 e0 00 42 03 e0 00  @...B...B...B...
000043f0: 40 04 e0 00 40 01 e0 00 3e 03 e0 00 3e 04 e0 00  @...@...>...>...
00004400: 3c 01 e0 00 3e 02 e0 00 3e 01 e0 00 40 05 e0 00  <...>...>...@...
00004410: 40 02 e0 00 42 01 e0 00 42 05 e0 00 42 07 e0 00  @...B...B...B...
00004420: 40 00 80 4c 00 04 e0 00 40 82 04 90 4c 7f 03 80  @..L....@...L...
00004430: 4c 00 01 e0 00 42 04 e0 00 44 00 90 51 7f 01 e0  L....B...D..Q...
00004440: 00 46 02 e0 00 48 01 e0 00 4a 04 e0 00 4a 00 80  .F...H...J...J..
00004450: 51 00 01 e0 00 48 00 90 53 7f 02 e0 00 40 1d 80  Q....H..S....@..
00004460: 53 00 0c e0 00 42 04 e0 00 42 00 90 51 7f 01 e0  S....B...B..Q...
00004470: 00 44 02 e0 00 44 01 e0 00 46 04 e0 00 46 00 80  .D...D...F...F..
00004480: 51 00 01 e0 00 46 02 e0 00 44 00 90 52 7f 01 e0  Q....F...D..R...
00004490: 00 42 04 e0 00 42 01 e0 00 40 1f 80 52 00 10 90  .B...B...@..R...
000044a0: 4f 7f 09 e0 00 42 0b e0 00 42 0c e0 00 44 03 e0  O....B...B...D..
000044b0: 00 44 06 e0 00 46 03 e0 00 46 04 80 4f 00 01 e0  .D...F...F..O...
000044c0: 00 44 02 e0 00 40 0d 90 51 7f 30 80 51 00 0c e0  .D...@..Q.0.Q...
000044d0: 00 42 04 e0 00 44 00 90 51 7f 01 e0 00 46 02 e0  .B...D..Q....F..
000044e0: 00 48 01 e0 00 4a 04 e0 00 4a 00 90 53 7f 00 80  .H...J...J..S...
000044f0: 51 00 01 e0 00 48 02 e0 00 46 01 e0 00 44 04 e0  Q....H...F...D..
00004500: 00 42 01 e0 00 40 1f 80 53 00 10 90 4f 7f 09 e0  .B...@..S...O...
00004510: 00 42 0f e0 00 42 09 e0 00 44 03 e0 00 44 05 e0  .B...B...D...D..
00004520: 00 46 03 e0 00 46 04 e0 00 44 00 80 4f 00 01 e0  .F...F...D..O...
00004530: 00 42 02 e0 00 40 05 e0 00 40 00 e0 00 40 08 90  .B...@...@...@..
00004540: 4c 7f 30 80 4c 00 10 90 4c 7f 70 80 4c 00 10 90  L.0.L...L.p.L...
00004550: 49 7f 00 90 55 7f 08 80 55 00 28 80 49 00 10 90  I...U...U.(.I...
00004560: 5b 7f 00 90 4f 7f 08 80 5b 00 28 80 4f 00 50 90  [...O...[.(.O.P.
00004570: 53 7f 30 80 53 00 10 90 56 7f 30 80 56 00 10 90  S.0.S...V.0.V...
00004580: 58 7f 30 80 58 00 10 90 56 7f 30 80 56 00 10 90  X.0.X...V.0.V...
00004590: 53 7f 30 80 53 00 0b e0 00 40 01 e0 00 42 04 e0  S.0.S....@...B..
000045a0: 00 44 00 90 51 7f 01 e0 00 46 02 e0 00 48 01 e0  .D..Q....F...H..
000045b0: 00 4a 04 e0 00 4a 00 80 51 00 01 e0 00 48 02 e0  .J...J..Q....H..
000045c0: 00 46 00 90 53 7f 01 e0 00 44 04 e0 00 40 20 80  .F..S....D...@ .
000045d0: 53 00 10 90 51 7f 09 e0 00 42 0f e0 00 42 08 e0  S...Q....B...B..
000045e0: 00 44 03 e0 00 44 05 e0 00 46 03 e0 00 46 01 e0  .D...D...F...F..
000045f0: 00 46 04 e0 00 44 00 80 51 00 01 e0 00 42 02 e0  .F...D..Q....B..
00004600: 00 40 0d 90 4f 7f 08 e0 00 42 0c e0 00 42 08 e0  .@..O....B...B..
00004610: 00 44 05 e0 00 44 03 e0 00 46 05 e0 00 46 02 e0  .D...D...F...F..
00004620: 00 46 01 e0 00 44 04 e0 00 42 00 80 4f 00 01 e0  .F...D...B..O...
00004630: 00 42 02 e0 00 40 05 e0 00 40 00 e0 00 40 08 90  .B...@...@...@..
00004640: 4c 7f 40 90 4a 7f 70 80 4a 00 00 80 4c 00 81 10  L.@.J.p.J...L...
00004650: 90 4e 7f 03 80 4e 00 05 90 55 7f 03 80 55 00 05  .N...N...U...U..
00004660: 90 58 7f 2c e0 00 40 04 e0 00 42 01 e0 00 42 03  .X.,..@...B...B.
00004670: e0 00 44 04 e0 00 44 01 e0 00 44 03 e0 00 42 04  ..D...D...D...B.
00004680: e0 00 42 03 e0 00 40 01 e0 00 40 05 e0 00 3e 02  ..B...@...@...>.
00004690: e0 00 3e 05 e0 00 3c 01 e0 00 3e 03 e0 00 3e 05  ..>...<...>...>.
000046a0: e0 00 40 03 e0 00 40 05 e0 00 42 03 e0 00 42 05  ..@...@...B...B.
000046b0: e0 00 44 03 e0 00 44 04 e0 00 44 01 e0 00 42 02  ..D...D...D...B.
000046c0: e0 00 42 01 e0 00 40 04 e0 00 3e 01 e0 00 3e 02  ..B...@...>...>.
000046d0: e0 00 3c 01 e0 00 3e 04 e0 00 3e 01 e0 00 40 02  ..<...>...>...@.
000046e0: e0 00 40 01 e0 00 42 04 e0 00 42 01 e0 00 44 02  ..@...B...B...D.
000046f0: e0 00 44 01 e0 00 44 05 e0 00 42 02 e0 00 42 01  ..D...D...B...B.
00004700: e0 00 40 05 e0 00 40 02 e0 00 3e 01 e0 00 40 04  ..@...@...>...@.
00004710: e0 00 40 01 e0 00 42 03 e0 00 42 04 e0 00 44 01  ..@...B...B...D.
00004720: e0 00 44 02 e0 00 44 01 e0 00 42 04 e0 00 42 01  ..D...D...B...B.
00004730: e0 00 40 02 e0 00 3e 01 e0 00 3e 04 e0 00 3c 01  ..@...>...>...<.
00004740: e0 00 3e 02 e0 00 3e 01 e0 00 40 04 e0 00 40 01  ..>...>...@...@.
00004750: e0 00 42 02 e0 00 42 01 e0 00 44 04 e0 00 44 01  ..B...B...D...D.
00004760: e0 00 44 02 e0 00 42 01 e0 00 40 04 e0 00 40 00  ..D...B...@...@.
00004770: 80 58 00 01 e0 00 3e 02 e0 00 3c 01 e0 00 3e 05  .X....>...<...>.
00004780: e0 00 3e 03 e0 00 40 05 e0 00 40 03 e0 00 40 0c  ..>...@...@...@.
00004790: 90 56 7f 70 80 56 00 10 90 53 7f 30 80 53 00 0c  .V.p.V...S.0.S..
000047a0: e0 00 42 04 e0 00 44 00 90 51 7f 01 e0 00 46 02  ..B...D..Q....F.
000047b0: e0 00 48 01 e0 00 4a 04 e0 00 4a 00 80 51 00 01  ..H...J...J..Q..
000047c0: e0 00 48 02 e0 00 46 00 90 53 7f 01 e0 00 44 04  ..H...F..S....D.
000047d0: e0 00 40 03 e0 00 40 00 e0 00 40 5d 80 53 00 10  ..@...@...@].S..
000047e0: 90 51 7f 30 80 51 00 0c e0 00 40 04 e0 00 42 00  .Q.0.Q....@...B.
000047f0: 90 4f 7f 01 e0 00 44 02 e0 00 44 01 e0 00 46 04  .O....D...D...F.
00004800: e0 00 46 00 80 4f 00 01 e0 00 46 02 e0 00 44 00  ..F..O....F...D.
00004810: 90 50 7f 01 e0 00 42 04 e0 00 40 20 80 50 00 10  .P....B...@ .P..
00004820: 90 4c 7f 30 80 4c 00 10 90 47 7f 30 80 47 00 10  .L.0.L...G.0.G..
00004830: 90 45 7f 48 e0 00 40 08 e0 00 3e 09 e0 00 3e 08  .E.H..@...>...>.
00004840: e0 00 3c 0a e0 00 3c 08 e0 00 3a 06 e0 00 3c 02  ..<...<...:...<.
00004850: e0 00 3c 00 80 45 00 01 e0 00 3e 04 e0 00 3e 00  ..<..E....>...>.
00004860: 90 43 7f 01 e0 00 40 02 e0 00 40 05 e0 00 40 28  .C....@...@...@(
00004870: 80 43 00 10 90 44 7f 70 80 44 00 0c e0 00 40 04  .C...D.p.D....@.
00004880: e0 00 42 00 90 44 7f 01 e0 00 44 02 e0 00 44 01  ..B..D....D...D.
00004890: e0 00 44 04 e0 00 42 01 e0 00 42 02 e0 00 40 01  ..D...B...B...@.
000048a0: e0 00 3e 04 e0 00 3e 01 e0 00 3c 02 e0 00 3e 01  ..>...>...<...>.
000048b0: e0 00 40 04 e0 00 42 01 e0 00 44 02 e0 00 44 01  ..@...B...D...D.
000048c0: e0 00 44 04 e0 00 42 01 e0 00 40 02 e0 00 3e 01  ..D...B...@...>.
000048d0: e0 00 3c 05 e0 00 40 02 e0 00 42 01 e0 00 42 04  ..<...@...B...B.
000048e0: e0 00 40 00 80 44 00 03 e0 00 40 05 e0 00 40 03  ..@..D....@...@.
000048f0: e0 00 40 05 90 40 7f 70 80 40 00 50 90 40 7f 08  ..@..@.p.@.P.@..
00004900: 90 44 7f 04 90 4a 7f 81 34 80 4a 00 00 80 44 00  .D...J..4.J...D.
00004910: 30 80 40 00 00 ff 7f 1c 24 24 00 08 00 00 00 00  0.@.....$$......
00004920: 00 00 14 ff 00 00 00 00 00 00 21 00 00 01 38 f0  ..........!...8.
00004930: 00 00 0c 00 00 ff 7f 05 24 24 00 01 00 00 ff 7f  ........$$......
00004940: 06 24 24 00 06 04 04 00 ff 7f 05 24 24 00 02 00  .$$........$$...
00004950: 01 ff 2f 00 4d 54 72 6b 00 00 49 a1 00 ff 00 02  ../.MTrk..I.....
00004960: 00 03 00 ff 03 0f 47 75 69 74 61 72 20 32 20 28  ......Guitar 2 (
00004970: 52 2e 43 2e 29 92 00 91 34 7f 01 91 3b 7f 6f 81  R.C.)...4...;.o.
00004980: 34 00 01 81 3b 00 0b 91 34 7f 30 81 34 00 14 91  4...;...4.0.4...
00004990: 34 7f 00 91 3d 7f 70 81 3d 00 00 81 34 00 10 91  4...=.p.=...4...
000049a0: 34 7f 30 81 34 00 11 91 34 7f 00 91 3b 7f 70 81  4.0.4...4...;.p.
000049b0: 3b 00 00 81 34 00 0f 91 34 7f 30 81 34 00 13 91  ;...4...4.0.4...
000049c0: 34 7f 00 91 3d 7f 70 81 3d 00 00 81 34 00 10 91  4...=.p.=...4...
000049d0: 34 7f 30 81 34 00 0e 91 34 7f 00 91 3b 7f 70 81  4.0.4...4...;.p.
000049e0: 3b 00 00 81 34 00 12 91 34 7f 30 81 34 00 09 91  ;...4...4.0.4...
000049f0: 34 7f 00 91 3d 7f 70 81 3d 00 00 81 34 00 17 91  4...=.p.=...4...
00004a00: 34 7f 30 81 34 00 09 91 3b 7f 05 91 34 7f 6b 81  4.0.4...;...4.k.
00004a10: 3b 00 05 81 34 00 10 91 34 7f 30 81 34 00 0b 91  ;...4...4.0.4...
00004a20: 3d 7f 04 91 34 7f 6c 81 3d 00 04 81 34 00 0c 91  =...4.l.=...4...
00004a30: 34 7f 30 81 34 00 15 91 39 7f 00 91 40 7f 70 81  4.0.4...9...@.p.
00004a40: 40 00 00 81 39 00 0b 91 39 7f 00 91 40 7f 30 81  @...9...9...@.0.
00004a50: 40 00 00 81 39 00 10 91 40 7f 05 91 39 7f 6b 81  @...9...@...9.k.
00004a60: 40 00 05 81 39 00 12 91 39 7f 00 91 40 7f 30 81  @...9...9...@.0.
00004a70: 40 00 00 81 39 00 0e 91 39 7f 02 91 43 7f 6e 81  @...9...9...C.n.
00004a80: 39 00 02 81 43 00 09 91 39 7f 05 91 43 7f 2b 81  9...C...9...C.+.
00004a90: 39 00 05 81 43 00 0b 91 39 7f 04 91 42 7f 6c 81  9...C...9...B.l.
00004aa0: 39 00 04 81 42 00 10 91 39 7f 30 81 39 00 51 91  9...B...9.0.9.Q.
00004ab0: 47 7f 20 81 47 00 1a e1 00 40 01 91 4f 7f 04 e1  G. .G....@..O...
00004ac0: 00 42 08 e1 00 42 04 e1 00 44 07 e1 00 44 08 e1  .B...B...D...D..
00004ad0: 00 46 06 e1 00 46 07 e1 00 48 08 e1 00 48 03 e1  .F...F...H...H..
00004ae0: 00 48 01 e1 00 46 04 e1 00 44 00 81 4f 00 01 e1  .H...F...D..O...
00004af0: 00 44 02 e1 00 42 01 e1 00 40 07 91 50 7f 30 81  .D...B...@..P.0.
00004b00: 50 00 0d 91 4c 7f 30 81 4c 00 11 91 47 7f 30 81  P...L.0.L...G.0.
00004b10: 47 00 10 91 4a 7f 10 81 4a 00 07 e1 00 42 00 91  G...J...J....B..
00004b20: 4c 7f 01 e1 00 42 02 e1 00 44 01 e1 00 44 04 e1  L....B...D...D..
00004b30: 00 44 01 e1 00 42 02 e1 00 42 01 e1 00 40 05 e1  .D...B...B...@..
00004b40: 00 40 02 e1 00 3e 01 e1 00 3e 04 e1 00 3c 01 e1  .@...>...>...<..
00004b50: 00 3e 02 e1 00 3e 01 e1 00 40 04 e1 00 42 01 e1  .>...>...@...B..
00004b60: 00 42 02 e1 00 44 01 e1 00 44 04 e1 00 44 01 e1  .B...D...D...D..
00004b70: 00 42 02 e1 00 40 01 e1 00 3e 04 e1 00 3e 01 e1  .B...@...>...>..
00004b80: 00 3c 02 e1 00 3a 01 e1 00 38 04 e1 00 3a 01 e1  .<...:...8...:..
00004b90: 00 3c 02 e1 00 3e 01 e1 00 3e 04 e1 00 40 01 e1  .<...>...>...@..
00004ba0: 00 42 02 e1 00 44 01 e1 00 44 04 e1 00 44 01 e1  .B...D...D...D..
00004bb0: 00 42 02 e1 00 42 01 e1 00 40 04 e1 00 3e 01 e1  .B...B...@...>..
00004bc0: 00 3e 02 e1 00 3c 01 e1 00 3e 05 e1 00 3e 02 e1  .>...<...>...>..
00004bd0: 00 40 05 e1 00 40 01 e1 00 42 03 e1 00 42 04 e1  .@...@...B...B..
00004be0: 00 42 03 e1 00 40 01 e1 00 40 04 e1 00 3e 03 e1  .B...@...@...>..
00004bf0: 00 3e 01 e1 00 3c 04 e1 00 3e 01 e1 00 3e 03 e1  .>...<...>...>..
00004c00: 00 40 04 e1 00 40 01 e1 00 42 02 e1 00 42 05 e1  .@...@...B...B..
00004c10: 00 44 01 e1 00 44 02 e1 00 44 05 e1 00 42 03 e1  .D...D...D...B..
00004c20: 00 42 05 e1 00 40 03 81 4c 00 0d 91 4a 7f 30 81  .B...@..L...J.0.
00004c30: 4a 00 11 91 47 7f 30 81 47 00 0b 91 45 7f 30 81  J...G.0.G...E.0.
00004c40: 45 00 0f e1 00 40 01 e1 00 42 05 e1 00 42 00 91  E....@...B...B..
00004c50: 43 7f 02 e1 00 44 05 e1 00 44 01 e1 00 44 02 e1  C....D...D...D..
00004c60: 00 42 01 e1 00 40 04 e1 00 3e 01 e1 00 3c 02 e1  .B...@...>...<..
00004c70: 00 3a 00 81 43 00 01 e1 00 3c 00 91 44 7f 04 e1  .:..C....<..D...
00004c80: 00 3e 01 e1 00 40 02 e1 00 42 01 e1 00 44 04 e1  .>...@...B...D..
00004c90: 00 44 01 e1 00 44 02 e1 00 42 01 e1 00 42 04 e1  .D...D...B...B..
00004ca0: 00 40 00 81 44 00 01 e1 00 3e 02 e1 00 3e 01 e1  .@..D....>...>..
00004cb0: 00 3c 04 e1 00 3c 01 91 43 7f 02 e1 00 3e 01 e1  .<...<..C....>..
00004cc0: 00 40 04 e1 00 42 01 e1 00 44 02 e1 00 44 01 e1  .@...B...D...D..
00004cd0: 00 42 04 e1 00 40 01 e1 00 3e 02 e1 00 3c 01 e1  .B...@...>...<..
00004ce0: 00 3a 04 e1 00 3c 01 e1 00 3e 02 e1 00 40 01 e1  .:...<...>...@..
00004cf0: 00 42 04 e1 00 44 01 e1 00 44 02 e1 00 44 01 e1  .B...D...D...D..
00004d00: 00 42 04 e1 00 40 01 e1 00 3e 02 e1 00 3c 01 e1  .B...@...>...<..
00004d10: 00 3e 05 e1 00 3e 02 e1 00 40 0e 81 43 00 0b 91  .>...>...@..C...
00004d20: 4c 7f 70 81 4c 00 15 91 4a 7f 2f 81 4a 00 11 91  L.p.L...J./.J...
00004d30: 4c 7f 30 81 4c 00 0b e1 00 40 04 e1 00 42 01 91  L.0.L....@...B..
00004d40: 43 7f 02 e1 00 42 05 e1 00 44 03 e1 00 44 01 e1  C....B...D...D..
00004d50: 00 44 04 e1 00 42 03 e1 00 42 00 81 43 00 01 e1  .D...B...B..C...
00004d60: 00 40 04 e1 00 40 01 e1 00 3e 00 91 44 7f 03 e1  .@...@...>..D...
00004d70: 00 3e 04 e1 00 3c 01 e1 00 3e 02 e1 00 3e 01 e1  .>...<...>...>..
00004d80: 00 40 04 e1 00 40 03 e1 00 42 01 e1 00 42 00 81  .@...@...B...B..
00004d90: 44 00 04 e1 00 44 00 91 43 7f 01 e1 00 44 02 e1  D....D..C....D..
00004da0: 00 44 01 e1 00 42 04 e1 00 42 01 e1 00 40 02 e1  .D...B...B...@..
00004db0: 00 3e 01 e1 00 3e 04 e1 00 3c 01 e1 00 3e 02 e1  .>...>...<...>..
00004dc0: 00 3e 01 e1 00 40 04 e1 00 40 03 e1 00 42 01 e1  .>...@...@...B..
00004dd0: 00 42 04 e1 00 44 01 e1 00 44 02 e1 00 44 01 e1  .B...D...D...D..
00004de0: 00 42 04 e1 00 40 01 e1 00 3e 02 e1 00 3c 01 e1  .B...@...>...<..
00004df0: 00 3e 04 e1 00 3e 01 e1 00 40 02 e1 00 42 01 e1  .>...>...@...B..
00004e00: 00 42 04 e1 00 44 01 e1 00 44 02 e1 00 46 01 e1  .B...D...D...F..
00004e10: 00 46 04 e1 00 46 00 81 43 00 01 e1 00 44 02 e1  .F...F..C....D..
00004e20: 00 42 01 e1 00 40 0d 91 4c 7f 3f e1 00 40 04 e1  .B...@..L.?..@..
00004e30: 00 42 08 e1 00 42 08 e1 00 44 08 e1 00 44 07 e1  .B...B...D...D..
00004e40: 00 44 08 e1 00 42 06 e1 00 42 07 e1 00 40 08 e1  .D...B...B...@..
00004e50: 00 40 04 e1 00 3e 07 e1 00 3e 08 e1 00 3c 06 e1  .@...>...>...<..
00004e60: 00 3e 03 e1 00 3e 05 e1 00 40 03 e1 00 40 07 e1  .>...>...@...@..
00004e70: 00 42 05 e1 00 42 03 e1 00 44 05 e1 00 44 04 e1  .B...B...D...D..
00004e80: 00 44 07 e1 00 42 05 e1 00 42 08 81 4c 00 03 e1  .D...B...B..L...
00004e90: 00 40 30 91 39 7f 05 91 40 7f 68 81 40 00 00 81  .@0.9...@.h.@...
00004ea0: 39 00 10 91 39 7f 30 81 39 00 11 91 39 7f 03 91  9...9.0.9...9...
00004eb0: 42 7f 6c 81 42 00 00 81 39 00 10 91 39 7f 30 81  B.l.B...9...9.0.
00004ec0: 39 00 13 91 39 7f 01 91 43 7f 6c 81 43 00 00 81  9...9...C.l.C...
00004ed0: 39 00 10 91 39 7f 30 81 39 00 11 91 39 7f 03 91  9...9.0.9...9...
00004ee0: 42 7f 6c 81 42 00 00 81 39 00 10 91 39 7f 30 81  B.l.B...9...9.0.
00004ef0: 39 00 10 91 39 7f 01 91 40 7f 6f 81 40 00 00 81  9...9...@.o.@...
00004f00: 39 00 10 91 39 7f 30 81 39 00 11 91 39 7f 02 91  9...9.0.9...9...
00004f10: 42 7f 6d 81 42 00 00 81 39 00 10 91 39 7f 30 81  B.m.B...9...9.0.
00004f20: 39 00 0c 91 39 7f 05 91 43 7f 6f 81 43 00 00 81  9...9...C.o.C...
00004f30: 39 00 10 91 39 7f 30 81 39 00 10 91 39 7f 01 91  9...9.0.9...9...
00004f40: 42 7f 6f 81 42 00 00 81 39 00 10 91 39 7f 30 81  B.o.B...9...9.0.
00004f50: 39 00 81 10 e1 00 40 00 91 4f 7f 03 e1 00 42 08  9.....@..O....B.
00004f60: e1 00 42 06 e1 00 44 08 e1 00 44 07 e1 00 46 08  ..B...D...D...F.
00004f70: e1 00 46 04 e1 00 48 08 e1 00 48 05 e1 00 46 00  ..F...H...H...F.
00004f80: 81 4f 00 02 e1 00 42 05 91 50 7f 04 e1 00 40 2c  .O....B..P....@,
00004f90: 81 50 00 0b e1 00 40 05 91 4f 7f 08 e1 00 42 09  .P....@..O....B.
00004fa0: e1 00 42 0a e1 00 44 08 e1 00 44 09 e1 00 46 0c  ..B...D...D...F.
00004fb0: e1 00 46 03 81 4f 00 01 e1 00 46 04 e1 00 44 00  ..F..O....F...D.
00004fc0: 91 50 7f 01 e1 00 42 02 e1 00 42 01 e1 00 40 05  .P....B...B...@.
00004fd0: e1 00 40 27 81 50 00 10 91 4f 7f 70 81 4f 00 10  ..@'.P...O.p.O..
00004fe0: 91 4c 7f 30 81 4c 00 10 91 4a 7f 30 81 4a 00 0c  .L.0.L...J.0.J..
00004ff0: e1 00 40 04 e1 00 42 00 91 43 7f 01 e1 00 42 02  ..@...B..C....B.
00005000: e1 00 44 01 e1 00 44 04 e1 00 46 01 e1 00 46 02  ..D...D...F...F.
00005010: e1 00 46 01 e1 00 44 04 e1 00 42 01 e1 00 42 02  ..F...D...B...B.
00005020: e1 00 40 00 81 43 00 01 e1 00 40 04 e1 00 3e 00  ..@..C....@...>.
00005030: 91 44 7f 01 e1 00 3c 02 e1 00 3e 01 e1 00 40 04  .D....<...>...@.
00005040: e1 00 40 01 e1 00 42 02 e1 00 44 01 e1 00 44 04  ..@...B...D...D.
00005050: e1 00 44 01 e1 00 42 02 e1 00 42 00 81 44 00 01  ..D...B...B..D..
00005060: e1 00 40 04 e1 00 3e 00 91 43 7f 01 e1 00 3c 02  ..@...>..C....<.
00005070: e1 00 3c 01 e1 00 3e 04 e1 00 40 03 e1 00 42 01  ..<...>...@...B.
00005080: e1 00 42 04 e1 00 44 03 e1 00 44 01 e1 00 44 04  ..B...D...D...D.
00005090: e1 00 42 01 e1 00 40 02 e1 00 3e 01 e1 00 3c 04  ..B...@...>...<.
000050a0: e1 00 3e 01 e1 00 40 02 e1 00 40 05 e1 00 42 00  ..>...@...@...B.
000050b0: e1 00 42 01 e1 00 44 02 e1 00 44 01 e1 00 44 04  ..B...D...D...D.
000050c0: e1 00 42 01 e1 00 42 02 e1 00 40 01 e1 00 3e 04  ..B...B...@...>.
000050d0: e1 00 3e 01 e1 00 3c 02 e1 00 3e 01 e1 00 3e 04  ..>...<...>...>.
000050e0: 81 43 00 01 e1 00 40 0f 91 4c 7f 81 70 81 4c 00  .C....@..L..p.L.
000050f0: 10 91 4a 7f 30 81 4a 00 10 91 4c 7f 30 81 4c 00  ..J.0.J...L.0.L.
00005100: 10 e1 00 40 00 91 43 7f 01 e1 00 42 03 e1 00 42  ...@..C....B...B
00005110: 04 e1 00 44 03 e1 00 44 01 e1 00 44 04 e1 00 42  ...D...D...D...B
00005120: 01 e1 00 42 02 e1 00 40 00 81 43 00 05 e1 00 40  ...B...@..C....@
00005130: 00 91 44 7f 01 e1 00 3e 02 e1 00 3e 01 e1 00 3c  ..D....>...>...<
00005140: 04 e1 00 3e 01 e1 00 3e 02 e1 00 40 01 e1 00 40  ...>...>...@...@
00005150: 05 e1 00 42 02 e1 00 42 00 81 44 00 01 e1 00 44  ...B...B..D....D
00005160: 04 e1 00 44 00 91 43 7f 01 e1 00 44 02 e1 00 42  ...D..C....D...B
00005170: 01 e1 00 42 04 e1 00 40 01 e1 00 40 02 e1 00 3e  ...B...@...@...>
00005180: 01 e1 00 3e 04 e1 00 3c 01 e1 00 3e 02 e1 00 3e  ...>...<...>...>
00005190: 01 e1 00 40 04 e1 00 42 01 e1 00 42 02 e1 00 44  ...@...B...B...D
000051a0: 01 e1 00 44 04 e1 00 44 01 e1 00 42 02 e1 00 42  ...D...D...B...B
000051b0: 01 e1 00 40 04 e1 00 3e 01 e1 00 3e 02 e1 00 3c  ...@...>...>...<
000051c0: 01 e1 00 3e 04 e1 00 3e 01 e1 00 40 02 e1 00 40  ...>...>...@...@
000051d0: 05 e1 00 42 01 e1 00 42 02 e1 00 44 01 e1 00 44  ...B...B...D...D
000051e0: 04 e1 00 44 00 81 43 00 01 e1 00 42 02 e1 00 40  ...D..C....B...@
000051f0: 01 e1 00 3e 04 e1 00 3c 01 e1 00 3e 03 e1 00 3e  ...>...<...>...>
00005200: 04 e1 00 40 00 91 4c 7f 70 81 4c 00 10 91 39 7f  ...@..L.p.L...9.
00005210: 30 81 39 00 10 91 3a 7f 30 81 3a 00 10 91 3b 7f  0.9...:.0.:...;.
00005220: 70 81 3b 00 0c 91 3b 7f 04 91 47 7f 03 91 3f 7f  p.;...;...G...?.
00005230: 00 91 45 7f 69 81 3b 00 04 81 47 00 03 81 3f 00  ..E.i.;...G...?.
00005240: 00 81 45 00 0d 91 4b 7f 00 91 47 7f 03 91 3f 7f  ..E...K...G...?.
00005250: 00 91 45 7f 6d 81 47 00 00 81 4b 00 03 81 3f 00  ..E.m.G...K...?.
00005260: 00 81 45 00 0d 91 45 7f 01 91 4b 7f 00 91 47 7f  ..E...E...K...G.
00005270: 02 91 3f 7f 6d 81 45 00 01 81 4b 00 00 81 47 00  ..?.m.E...K...G.
00005280: 02 81 3f 00 0d 91 47 7f 01 91 3f 7f 02 91 4b 7f  ..?...G...?...K.
00005290: 00 91 45 7f 6d 81 47 00 01 81 3f 00 02 81 4b 00  ..E.m.G...?...K.
000052a0: 00 81 45 00 09 91 3f 7f 00 91 4b 7f 00 91 47 7f  ..E...?...K...G.
000052b0: 04 91 45 7f 6c 81 47 00 00 81 3f 00 00 81 4b 00  ..E.l.G...?...K.
000052c0: 04 81 45 00 13 91 39 7f 81 10 81 39 00 30 91 3c  ..E...9....9.0.<
000052d0: 7f 30 81 3c 00 10 91 3d 7f 30 81 3d 00 09 91 40  .0.<...=.0.=...@
000052e0: 7f 30 81 40 00 14 91 43 7f 30 81 43 00 10 91 40  .0.@...C.0.C...@
000052f0: 7f 30 81 40 00 11 91 43 7f 30 81 43 00 0b 91 40  .0.@...C.0.C...@
00005300: 7f 30 81 40 00 17 91 37 7f 01 e1 00 40 05 e1 00  .0.@...7....@...
00005310: 42 08 e1 00 42 08 e1 00 44 07 e1 00 44 08 e1 00  B...B...D...D...
00005320: 46 08 e1 00 46 03 e1 00 46 01 e1 00 44 04 e1 00  F...F...F...D...
00005330: 42 01 e1 00 42 02 e1 00 40 00 81 37 00 05 91 38  B...B...@..7...8
00005340: 7f 30 81 38 00 0c 91 34 7f 81 10 81 34 00 34 91  .0.8...4....4.4.
00005350: 45 7f 04 91 47 7f 04 81 45 00 38 91 4a 7f 6c 81  E...G...E.8.J.l.
00005360: 47 00 04 81 4a 00 11 91 45 7f 08 91 47 7f 00 81  G...J...E...G...
00005370: 45 00 38 91 4a 7f 70 81 4a 00 00 81 47 00 12 91  E.8.J.p.J...G...
00005380: 47 7f 08 91 45 7f 00 81 47 00 28 81 45 00 09 91  G...E...G.(.E...
00005390: 43 7f 30 81 43 00 15 91 40 7f 30 81 40 00 07 e1  C.0.C...@.0.@...
000053a0: 00 40 01 e1 00 42 03 e1 00 42 00 91 43 7f 04 e1  .@...B...B..C...
000053b0: 00 44 03 e1 00 44 01 e1 00 44 00 81 43 00 04 e1  .D...D...D..C...
000053c0: 00 42 00 91 44 7f 01 e1 00 40 02 e1 00 3e 01 e1  .B..D....@...>..
000053d0: 00 3c 04 e1 00 3a 00 81 44 00 01 e1 00 3c 02 e1  .<...:..D....<..
000053e0: 00 3e 00 91 43 7f 01 e1 00 3e 04 e1 00 40 01 e1  .>..C....>...@..
000053f0: 00 40 02 e1 00 42 01 e1 00 44 04 e1 00 44 01 e1  .@...B...D...D..
00005400: 00 44 02 e1 00 42 01 e1 00 40 04 e1 00 40 01 e1  .D...B...@...@..
00005410: 00 3e 02 e1 00 3c 01 e1 00 3e 04 e1 00 3e 01 e1  .>...<...>...>..
00005420: 00 40 03 e1 00 40 04 e1 00 42 01 e1 00 42 02 e1  .@...@...B...B..
00005430: 00 42 01 e1 00 40 04 e1 00 40 01 e1 00 3e 02 e1  .B...@...@...>..
00005440: 00 3e 01 e1 00 3c 04 e1 00 3e 01 e1 00 40 02 e1  .>...<...>...@..
00005450: 00 42 01 e1 00 44 04 e1 00 44 01 e1 00 44 02 e1  .B...D...D...D..
00005460: 00 42 01 e1 00 40 04 e1 00 40 01 e1 00 3e 02 e1  .B...@...@...>..
00005470: 00 3c 01 e1 00 3e 04 e1 00 40 01 e1 00 40 02 e1  .<...>...@...@..
00005480: 00 42 01 e1 00 44 04 e1 00 44 01 e1 00 44 03 e1  .B...D...D...D..
00005490: 00 42 04 e1 00 42 03 e1 00 40 00 81 43 00 09 91  .B...B...@..C...
000054a0: 4c 7f 70 81 4c 00 10 91 39 7f 30 81 39 00 15 91  L.p.L...9.0.9...
000054b0: 3a 7f 30 81 3a 00 10 91 3b 7f 70 81 3b 00 0b 91  :.0.:...;.p.;...
000054c0: 45 7f 05 91 4e 7f 02 91 47 7f 69 81 45 00 05 81  E...N...G.i.E...
000054d0: 4e 00 02 81 47 00 10 91 3f 7f 70 81 3f 00 0d 91  N...G...?.p.?...
000054e0: 3b 7f 03 91 34 7f 6d 81 3b 00 03 81 34 00 09 91  ;...4.m.;...4...
000054f0: 34 7f 30 81 34 00 10 91 3d 7f 00 91 34 7f 70 81  4.0.4...=...4.p.
00005500: 34 00 00 81 3d 00 17 91 34 7f 30 81 34 00 09 91  4...=...4.0.4...
00005510: 34 7f 04 91 3e 7f 6c 81 34 00 04 81 3e 00 10 91  4...>.l.4...>...
00005520: 34 7f 30 81 34 00 10 91 34 7f 01 91 3d 7f 6f 81  4.0.4...4...=.o.
00005530: 34 00 01 81 3d 00 0b 91 34 7f 30 81 34 00 10 91  4...=...4.0.4...
00005540: 39 7f 07 91 40 7f 69 81 39 00 07 81 40 00 0d 91  9...@.i.9...@...
00005550: 39 7f 30 81 39 00 0c 91 42 7f 07 91 39 7f 69 81  9.0.9...B...9.i.
00005560: 42 00 07 81 39 00 10 91 39 7f 30 81 39 00 09 91  B...9...9.0.9...
00005570: 39 7f 07 91 43 7f 69 81 39 00 07 81 43 00 0e 91  9...C.i.9...C...
00005580: 39 7f 30 81 39 00 0b 91 42 7f 05 91 39 7f 81 0b  9.0.9...B...9...
00005590: 81 42 00 05 81 39 00 81 2b 91 4a 7f 08 81 4a 00  .B...9..+.J...J.
000055a0: 05 e1 00 40 00 91 4c 7f 03 e1 00 42 05 e1 00 42  ...@..L....B...B
000055b0: 03 e1 00 44 05 e1 00 44 03 e1 00 44 05 e1 00 42  ...D...D...D...B
000055c0: 03 e1 00 42 05 e1 00 40 03 e1 00 40 05 e1 00 3e  ...B...@...@...>
000055d0: 03 e1 00 3e 05 e1 00 3c 03 e1 00 3e 05 e1 00 3e  ...>...<...>...>
000055e0: 03 e1 00 40 05 e1 00 40 07 e1 00 42 03 e1 00 42  ...@...@...B...B
000055f0: 05 e1 00 44 03 e1 00 44 06 e1 00 44 03 e1 00 42  ...D...D...D...B
00005600: 05 e1 00 42 03 e1 00 40 05 e1 00 40 03 e1 00 3e  ...B...@...@...>
00005610: 05 e1 00 3e 03 e1 00 3c 04 e1 00 3e 03 e1 00 3e  ...>...<...>...>
00005620: 05 e1 00 40 03 e1 00 40 01 e1 00 42 05 e1 00 42  ...@...@...B...B
00005630: 03 e1 00 44 05 e1 00 44 02 e1 00 44 01 e1 00 42  ...D...D...D...B
00005640: 04 e1 00 42 01 e1 00 40 02 e1 00 40 05 e1 00 3e  ...B...@...@...>
00005650: 01 e1 00 3e 02 e1 00 3c 01 e1 00 3c 04 e1 00 3a  ...>...<...<...:
00005660: 01 e1 00 3c 03 e1 00 3c 04 e1 00 3e 01 e1 00 3e  ...<...<...>...>
00005670: 03 e1 00 40 04 e1 00 40 01 e1 00 42 03 e1 00 42  ...@...@...B...B
00005680: 04 e1 00 44 01 e1 00 44 03 e1 00 46 04 e1 00 46  ...D...D...F...F
00005690: 01 e1 00 46 02 e1 00 44 01 e1 00 44 05 e1 00 42  ...F...D...D...B
000056a0: 02 e1 00 42 01 e1 00 40 04 e1 00 40 01 e1 00 3e  ...B...@...@...>
000056b0: 02 e1 00 3e 05 e1 00 3c 01 e1 00 3c 02 e1 00 3a  ...>...<...<...:
000056c0: 01 e1 00 3c 04 e1 00 3c 01 e1 00 3e 02 e1 00 3e  ...<...<...>...>
000056d0: 01 e1 00 40 05 e1 00 40 02 e1 00 42 01 e1 00 42  ...@...@...B...B
000056e0: 04 e1 00 44 01 e1 00 44 02 e1 00 44 05 e1 00 42  ...D...D...D...B
000056f0: 03 e1 00 42 01 e1 00 40 05 e1 00 40 02 e1 00 3e  ...B...@...@...>
00005700: 05 e1 00 3e 03 e1 00 3c 01 e1 00 3e 05 e1 00 3e  ...>...<...>...>
00005710: 02 e1 00 40 05 e1 00 40 01 e1 00 42 03 e1 00 42  ...@...@...B...B
00005720: 04 e1 00 44 03 e1 00 44 01 e1 00 44 04 e1 00 42  ...D...D...D...B
00005730: 01 e1 00 42 02 e1 00 40 01 e1 00 40 04 e1 00 3e  ...B...@...@...>
00005740: 01 e1 00 3e 02 e1 00 3c 01 e1 00 3c 04 e1 00 3a  ...>...<...<...:
00005750: 01 e1 00 3c 02 e1 00 3e 01 e1 00 3e 04 e1 00 40  ...<...>...>...@
00005760: 01 e1 00 42 02 e1 00 42 01 e1 00 44 04 e1 00 46  ...B...B...D...F
00005770: 01 e1 00 46 02 e1 00 46 01 e1 00 44 04 e1 00 44  ...F...F...D...D
00005780: 01 e1 00 42 02 e1 00 40 01 e1 00 40 04 e1 00 3e  ...B...@...@...>
00005790: 01 e1 00 3e 02 e1 00 3c 05 e1 00 3e 03 e1 00 3e  ...>...<...>...>
000057a0: 06 e1 00 40 18 81 4c 00 2b 91 4f 7f 0d e1 00 40  ...@..L.+.O....@
000057b0: 10 e1 00 42 1b e1 00 42 15 e1 00 44 0f e1 00 44  ...B...B...D...D
000057c0: 09 e1 00 46 03 e1 00 46 05 e1 00 48 03 e1 00 48  ...F...F...H...H
000057d0: 00 81 4f 00 05 e1 00 46 02 e1 00 44 01 e1 00 42  ..O....F...D...B
000057e0: 04 e1 00 40 0b 91 4f 7f 0d e1 00 42 03 e1 00 42  ...@..O....B...B
000057f0: 06 e1 00 44 03 e1 00 44 07 e1 00 46 05 e1 00 46  ...D...D...F...F
00005800: 04 e1 00 48 05 e1 00 48 02 81 4f 00 01 e1 00 48  ...H...H..O....H
00005810: 04 e1 00 46 01 e1 00 44 02 e1 00 42 01 e1 00 40  ...F...D...B...@
00005820: 05 91 50 7f 70 81 50 00 81 0b 91 45 7f 08 91 47  ..P.p.P....E...G
00005830: 7f 00 81 45 00 28 81 47 00 15 91 4a 7f 30 81 4a  ...E.(.G...J.0.J
00005840: 00 0b 91 47 7f 08 81 47 00 07 91 45 7f 28 81 45  ...G...G...E.(.E
00005850: 00 09 91 43 7f 30 81 43 00 14 91 40 7f 30 81 40  ...C.0.C...@.0.@
00005860: 00 13 91 43 7f 39 91 44 7f 07 81 43 00 29 81 44  ...C.9.D...C.).D
00005870: 00 15 91 4a 7f 30 81 4a 00 12 91 39 7f 00 91 40  ...J.0.J...9...@
00005880: 7f 70 81 40 00 00 81 39 00 10 91 39 7f 30 81 39  .p.@...9...9.0.9
00005890: 00 0d 91 39 7f 01 91 42 7f 6f 81 39 00 01 81 42  ...9...B.o.9...B
000058a0: 00 12 91 39 7f 30 81 39 00 09 91 39 7f 05 91 43  ...9.0.9...9...C
000058b0: 7f 6b 81 39 00 05 81 43 00 12 91 39 7f 30 81 39  .k.9...C...9.0.9
000058c0: 00 0d 91 42 7f 01 91 39 7f 6f 81 42 00 01 81 39  ...B...9.o.B...9
000058d0: 00 0b 91 39 7f 30 81 39 00 14 91 39 7f 03 91 40  ...9.0.9...9...@
000058e0: 7f 6d 81 39 00 03 81 40 00 0e 91 39 7f 30 81 39  .m.9...@...9.0.9
000058f0: 00 0f 91 42 7f 03 91 39 7f 6d 81 42 00 03 81 39  ...B...9.m.B...9
00005900: 00 09 91 42 7f 04 91 39 7f 2c 81 42 00 04 81 39  ...B...9.,.B...9
00005910: 00 0c 91 39 7f 00 91 43 7f 70 81 43 00 00 81 39  ...9...C.p.C...9
00005920: 00 10 91 43 7f 04 91 39 7f 2c 81 43 00 04 81 39  ...C...9.,.C...9
00005930: 00 10 91 39 7f 03 91 42 7f 6d 81 39 00 03 81 42  ...9...B.m.9...B
00005940: 00 0d 91 39 7f 00 91 42 7f 30 81 42 00 00 81 39  ...9...B.0.B...9
00005950: 00 11 91 39 7f 02 91 40 7f 69 81 40 00 05 81 39  ...9...@.i.@...9
00005960: 00 10 91 4c 7f 30 81 4c 00 0b 91 51 7f 08 91 53  ...L.0.L...Q...S
00005970: 7f 00 81 51 00 68 81 53 00 15 91 51 7f 03 91 53  ...Q.h.S...Q...S
00005980: 7f 05 81 51 00 63 81 53 00 14 91 51 7f 30 81 51  ...Q.c.S...Q.0.Q
00005990: 00 13 91 4f 7f 30 81 4f 00 82 0d 91 51 7f 10 91  ...O.0.O....Q...
000059a0: 53 7f 00 81 51 00 60 81 53 00 10 91 4f 7f 30 81  S...Q.`.S...O.0.
000059b0: 4f 00 10 91 51 7f 30 81 51 00 10 91 4c 7f 30 81  O...Q.0.Q...L.0.
000059c0: 4c 00 10 91 4f 7f 30 81 4f 00 10 91 4f 7f 01 e1  L...O.0.O...O...
000059d0: 00 40 0a e1 00 42 15 e1 00 42 13 e1 00 44 15 e1  .@...B...B...D..
000059e0: 00 44 0c e1 00 46 08 e1 00 46 0c e1 00 48 08 e1  .D...F...F...H..
000059f0: 00 48 04 e1 00 48 04 e1 00 46 00 81 4f 00 01 e1  .H...H...F..O...
00005a00: 00 44 02 e1 00 42 01 e1 00 40 87 44 91 39 7f 81  .D...B...@.D.9..
00005a10: 10 81 39 00 30 91 3c 7f 30 81 3c 00 10 91 3d 7f  ..9.0.<.0.<...=.
00005a20: 30 81 3d 00 10 91 40 7f 30 81 40 00 10 91 43 7f  0.=...@.0.@...C.
00005a30: 30 81 43 00 10 91 40 7f 30 81 40 00 10 91 43 7f  0.C...@.0.@...C.
00005a40: 30 81 43 00 10 91 40 7f 30 81 40 00 0c e1 00 40  0.C...@.0.@....@
00005a50: 04 91 37 7f 01 e1 00 42 08 e1 00 42 07 e1 00 44  ..7....B...B...D
00005a60: 08 e1 00 44 04 e1 00 46 08 e1 00 46 07 e1 00 48  ...D...F...F...H
00005a70: 08 e1 00 48 05 e1 00 48 00 81 37 00 01 e1 00 46  ...H...H..7....F
00005a80: 02 e1 00 44 01 e1 00 42 04 e1 00 40 00 91 38 7f  ...D...B...@..8.
00005a90: 30 81 38 00 10 91 34 7f 81 10 81 34 00 30 91 45  0.8...4....4.0.E
00005aa0: 7f 08 91 47 7f 00 81 45 00 38 91 4a 7f 30 81 4a  ...G...E.8.J.0.J
00005ab0: 00 10 91 4a 7f 30 81 4a 00 10 91 45 7f 00 81 47  ...J.0.J...E...G
00005ac0: 00 08 91 47 7f 00 81 45 00 38 91 4a 7f 30 81 4a  ...G...E.8.J.0.J
00005ad0: 00 10 91 4a 7f 30 81 4a 00 10 91 47 7f 00 81 47  ...J.0.J...G...G
00005ae0: 00 08 91 45 7f 00 81 47 00 28 81 45 00 10 91 44  ...E...G.(.E...D
00005af0: 7f 30 81 44 00 10 91 40 7f 30 81 40 00 0c e1 00  .0.D...@.0.@....
00005b00: 40 04 e1 00 42 00 91 43 7f 03 e1 00 42 05 e1 00  @...B..C....B...
00005b10: 44 03 e1 00 44 00 81 43 00 01 e1 00 44 04 91 44  D...D..C....D..D
00005b20: 7f 01 e1 00 42 02 e1 00 42 05 e1 00 40 01 e1 00  ....B...B...@...
00005b30: 40 03 e1 00 3e 00 81 44 00 04 e1 00 40 00 91 43  @...>..D....@..C
00005b40: 7f 03 e1 00 40 05 e1 00 42 01 e1 00 42 03 e1 00  ....@...B...B...
00005b50: 44 05 e1 00 44 02 e1 00 44 01 e1 00 42 04 e1 00  D...D...D...B...
00005b60: 40 01 e1 00 3e 02 e1 00 3e 01 e1 00 3c 04 e1 00  @...>...>...<...
00005b70: 3a 01 e1 00 3c 02 e1 00 3c 01 e1 00 3e 04 e1 00  :...<...<...>...
00005b80: 40 01 e1 00 40 02 e1 00 42 01 e1 00 42 04 e1 00  @...@...B...B...
00005b90: 44 01 e1 00 44 02 e1 00 44 01 e1 00 42 04 e1 00  D...D...D...B...
00005ba0: 40 01 e1 00 3e 02 e1 00 3c 01 e1 00 3a 04 e1 00  @...>...<...:...
00005bb0: 3c 01 e1 00 3e 02 e1 00 3e 01 e1 00 40 04 e1 00  <...>...>...@...
00005bc0: 40 01 e1 00 42 02 e1 00 44 01 e1 00 44 04 e1 00  @...B...D...D...
00005bd0: 44 00 81 43 00 01 e1 00 42 03 e1 00 42 04 e1 00  D..C....B...B...
00005be0: 40 03 e1 00 40 05 91 4c 7f 30 81 4c 00 10 91 39  @...@..L.0.L...9
00005bf0: 7f 30 81 39 00 10 91 3a 7f 30 81 3a 00 10 91 3b  .0.9...:.0.:...;
00005c00: 7f 81 30 81 3b 00 10 91 4e 7f 00 91 45 7f 00 91  ..0.;...N...E...
00005c10: 47 7f 70 81 47 00 00 81 45 00 00 81 4e 00 10 91  G.p.G...E...N...
00005c20: 45 7f 00 91 47 7f 70 81 47 00 00 81 45 00 10 91  E...G.p.G...E...
00005c30: 3b 7f 00 91 34 7f 70 81 34 00 00 81 3b 00 10 91  ;...4.p.4...;...
00005c40: 34 7f 00 91 3b 7f 30 81 3b 00 00 81 34 00 10 91  4...;.0.;...4...
00005c50: 34 7f 00 91 3d 7f 68 81 3d 00 00 81 34 00 08 91  4...=.h.=...4...
00005c60: 34 7f 00 91 3d 7f 30 81 3d 00 00 81 34 00 20 91  4...=.0.=...4. .
00005c70: 3e 7f 03 91 34 7f 6d 81 3e 00 03 81 34 00 0d 91  >...4.m.>...4...
00005c80: 34 7f 00 91 3e 7f 30 81 3e 00 00 81 34 00 10 91  4...>.0.>...4...
00005c90: 3d 7f 00 91 34 7f 70 81 34 00 00 81 3d 00 10 91  =...4.p.4...=...
00005ca0: 34 7f 00 91 3d 7f 30 81 3d 00 00 81 34 00 10 91  4...=.0.=...4...
00005cb0: 39 7f 00 91 40 7f 70 81 40 00 00 81 39 00 10 91  9...@.p.@...9...
00005cc0: 39 7f 00 91 40 7f 30 81 40 00 00 81 39 00 10 91  9...@.0.@...9...
00005cd0: 42 7f 00 91 39 7f 70 81 39 00 00 81 42 00 10 91  B...9.p.9...B...
00005ce0: 39 7f 00 91 42 7f 30 81 42 00 00 81 39 00 10 91  9...B.0.B...9...
00005cf0: 39 7f 00 91 43 7f 70 81 43 00 00 81 39 00 10 91  9...C.p.C...9...
00005d00: 39 7f 00 91 43 7f 30 81 43 00 00 81 39 00 10 91  9...C.0.C...9...
00005d10: 42 7f 00 91 39 7f 81 10 81 39 00 00 81 42 00 82  B...9....9...B..
00005d20: 30 91 47 7f 20 91 4a 7f 00 81 47 00 28 81 4a 00  0.G. .J...G.(.J.
00005d30: 03 91 4c 7f 11 81 4c 00 07 91 4c 7f 16 81 4c 00  ..L...L...L...L.
00005d40: 03 e1 00 40 04 e1 00 42 00 91 4c 7f 01 e1 00 42  ...@...B..L....B
00005d50: 02 e1 00 44 05 e1 00 44 01 e1 00 46 02 e1 00 46  ...D...D...F...F
00005d60: 01 e1 00 46 04 e1 00 44 01 e1 00 44 02 e1 00 42  ...F...D...D...B
00005d70: 01 e1 00 42 05 e1 00 40 02 e1 00 40 01 e1 00 3e  ...B...@...@...>
00005d80: 04 e1 00 3e 01 e1 00 3c 02 e1 00 3e 01 e1 00 3e  ...>...<...>...>
00005d90: 04 e1 00 40 01 e1 00 42 02 e1 00 42 01 e1 00 44  ...@...B...B...D
00005da0: 04 e1 00 44 01 e1 00 46 02 e1 00 46 01 e1 00 46  ...D...F...F...F
00005db0: 04 e1 00 44 01 e1 00 42 02 e1 00 40 01 e1 00 3e  ...D...B...@...>
00005dc0: 04 e1 00 3c 01 e1 00 3e 03 e1 00 3e 04 e1 00 40  ...<...>...>...@
00005dd0: 01 e1 00 40 03 e1 00 42 04 e1 00 42 01 e1 00 44  ...@...B...B...D
00005de0: 03 e1 00 44 04 e1 00 44 01 e1 00 42 02 e1 00 42  ...D...D...B...B
00005df0: 01 e1 00 40 04 e1 00 3e 01 e1 00 3e 02 e1 00 3c  ...@...>...>...<
00005e00: 01 e1 00 3e 04 e1 00 3e 01 e1 00 40 02 e1 00 40  ...>...>...@...@
00005e10: 01 e1 00 42 04 e1 00 42 01 e1 00 44 02 e1 00 44  ...B...B...D...D
00005e20: 01 e1 00 42 04 e1 00 40 01 e1 00 3e 02 e1 00 3c  ...B...@...>...<
00005e30: 01 e1 00 3a 04 e1 00 3c 01 e1 00 3c 02 e1 00 3e  ...:...<...<...>
00005e40: 01 e1 00 40 04 e1 00 40 01 e1 00 42 02 e1 00 42  ...@...@...B...B
00005e50: 01 e1 00 44 04 e1 00 44 01 e1 00 44 02 e1 00 42  ...D...D...D...B
00005e60: 01 e1 00 40 04 e1 00 40 01 e1 00 3e 02 e1 00 3c  ...@...@...>...<
00005e70: 05 e1 00 3e 04 e1 00 3e 07 e1 00 40 0d e1 00 40  ...>...>...@...@
00005e80: 01 81 4c 00 83 03 e1 00 42 04 e1 00 44 00 91 45  ..L.....B...D..E
00005e90: 7f 01 e1 00 46 02 e1 00 48 01 e1 00 4a 04 e1 00  ....F...H...J...
00005ea0: 4a 00 81 45 00 01 e1 00 48 00 91 47 7f 02 e1 00  J..E....H..G....
00005eb0: 40 25 81 47 00 10 91 4a 7f 30 81 4a 00 10 91 4a  @%.G...J.0.J...J
00005ec0: 7f 30 81 4a 00 10 91 47 7f 01 e1 00 3e 02 e1 00  .0.J...G....>...
00005ed0: 3c 01 e1 00 3a 04 e1 00 38 00 81 47 00 01 e1 00  <...:...8..G....
00005ee0: 3e 02 e1 00 40 00 91 45 7f 25 81 45 00 10 91 43  >...@..E.%.E...C
00005ef0: 7f 30 81 43 00 10 91 40 7f 81 50 81 40 00 30 91  .0.C...@..P.@.0.
00005f00: 39 7f 00 91 40 7f 70 81 40 00 00 81 39 00 10 91  9...@.p.@...9...
00005f10: 39 7f 30 81 39 00 10 91 39 7f 00 91 42 7f 70 81  9.0.9...9...B.p.
00005f20: 42 00 00 81 39 00 10 91 39 7f 30 81 39 00 10 91  B...9...9.0.9...
00005f30: 39 7f 00 91 43 7f 70 81 43 00 00 81 39 00 10 91  9...C.p.C...9...
00005f40: 39 7f 30 81 39 00 10 91 39 7f 00 91 42 7f 70 81  9.0.9...9...B.p.
00005f50: 42 00 00 81 39 00 10 91 39 7f 30 81 39 00 10 91  B...9...9.0.9...
00005f60: 39 7f 00 91 40 7f 70 81 40 00 00 81 39 00 10 91  9...@.p.@...9...
00005f70: 39 7f 30 81 39 00 10 91 39 7f 00 91 42 7f 70 81  9.0.9...9...B.p.
00005f80: 42 00 00 81 39 00 10 91 39 7f 30 81 39 00 10 91  B...9...9.0.9...
00005f90: 39 7f 00 91 43 7f 70 81 43 00 00 81 39 00 10 91  9...C.p.C...9...
00005fa0: 39 7f 30 81 39 00 10 91 42 7f 00 91 39 7f 70 81  9.0.9...B...9.p.
00005fb0: 39 00 00 81 42 00 10 91 39 7f 00 91 42 7f 30 81  9...B...9...B.0.
00005fc0: 42 00 00 81 39 00 10 91 34 7f 00 91 40 7f 10 81  B...9...4...@...
00005fd0: 40 00 60 81 34 00 0b e1 00 40 01 e1 00 42 04 e1  @.`.4....@...B..
00005fe0: 00 42 00 91 4f 7f 01 e1 00 44 02 e1 00 44 01 e1  .B..O....D...D..
00005ff0: 00 46 04 e1 00 46 01 e1 00 46 02 e1 00 44 00 81  .F...F...F...D..
00006000: 4f 00 01 e1 00 42 04 e1 00 40 00 91 50 7f 29 81  O....B...@..P.).
00006010: 50 00 03 e1 00 42 04 e1 00 42 00 91 4f 7f 01 e1  P....B...B..O...
00006020: 00 44 02 e1 00 44 01 e1 00 46 04 e1 00 46 01 e1  .D...D...F...F..
00006030: 00 46 02 e1 00 44 00 81 4f 00 01 e1 00 42 04 91  .F...D..O....B..
00006040: 50 7f 01 e1 00 42 07 e1 00 40 58 81 50 00 10 e1  P....B...@X.P...
00006050: 00 42 00 91 4f 7f 01 e1 00 44 02 e1 00 46 01 e1  .B..O....D...F..
00006060: 00 46 04 e1 00 44 01 e1 00 42 02 e1 00 40 00 81  .F...D...B...@..
00006070: 4f 00 05 91 50 7f 29 81 50 00 07 91 4c 7f 82 50  O...P.).P...L..P
00006080: 81 4c 00 2c e1 00 40 04 91 4f 7f 00 91 5b 7f 01  .L.,..@..O...[..
00006090: e1 00 42 03 e1 00 42 07 e1 00 44 05 e1 00 44 04  ..B...B...D...D.
000060a0: e1 00 46 04 81 5b 00 01 e1 00 46 07 e1 00 48 03  ..F..[....F...H.
000060b0: e1 00 48 06 e1 00 4a 03 e1 00 4a 05 e1 00 40 3f  ..H...J...J...@?
000060c0: 81 4f 00 50 91 4f 7f 14 e1 00 42 25 e1 00 42 1a  .O.P.O....B%..B.
000060d0: e1 00 44 10 e1 00 44 09 e1 00 44 04 e1 00 42 00  ..D...D...D...B.
000060e0: 81 4f 00 01 e1 00 42 02 e1 00 40 0d 91 4c 7f 30  .O....B...@..L.0
000060f0: 81 4c 00 10 91 47 7f 08 91 46 7f 00 81 47 00 04  .L...G...F...G..
00006100: 81 46 00 04 91 45 7f 20 81 45 00 10 91 43 7f 30  .F...E. .E...C.0
00006110: 81 43 00 10 91 40 7f 81 30 81 40 00 10 91 3e 7f  .C...@..0.@...>.
00006120: 30 81 3e 00 10 91 3f 7f 70 81 3f 00 10 91 3b 7f  0.>...?.p.?...;.
00006130: 30 81 3b 00 10 91 3b 7f 30 81 3b 00 10 91 45 7f  0.;...;.0.;...E.
00006140: 00 91 3e 7f 00 91 47 7f 03 91 4a 7f 10 81 4a 00  ..>...G...J...J.
00006150: 5d 81 45 00 00 81 3e 00 00 81 47 00 10 91 45 7f  ].E...>...G...E.
00006160: 00 91 47 7f 00 91 3e 7f 03 91 4a 7f 10 81 4a 00  ..G...>...J...J.
00006170: 5d 81 45 00 00 81 47 00 00 81 3e 00 10 91 3e 7f  ].E...G...>...>.
00006180: 00 91 45 7f 00 91 47 7f 03 91 4a 7f 10 81 4a 00  ..E...G...J...J.
00006190: 5d 81 3e 00 00 81 45 00 00 81 47 00 10 91 3e 7f  ].>...E...G...>.
000061a0: 00 91 45 7f 00 91 47 7f 01 91 4a 7f 10 81 4a 00  ..E...G...J...J.
000061b0: 5f 81 3e 00 00 81 45 00 00 81 47 00 10 91 39 7f  _.>...E...G...9.
000061c0: 81 10 81 39 00 30 91 3c 7f 30 81 3c 00 10 91 3d  ...9.0.<.0.<...=
000061d0: 7f 30 81 3d 00 10 91 40 7f 30 81 40 00 10 91 43  .0.=...@.0.@...C
000061e0: 7f 30 81 43 00 10 91 40 7f 30 81 40 00 10 91 43  .0.C...@.0.@...C
000061f0: 7f 30 81 43 00 10 91 43 7f 30 81 43 00 10 e1 00  .0.C...C.0.C....
00006200: 40 00 91 37 7f 01 e1 00 3e 03 e1 00 3e 04 e1 00  @..7....>...>...
00006210: 3c 01 e1 00 3e 02 e1 00 3e 01 e1 00 40 04 e1 00  <...>...>...@...
00006220: 42 01 e1 00 42 02 e1 00 44 01 e1 00 44 04 e1 00  B...B...D...D...
00006230: 44 01 e1 00 42 02 e1 00 40 01 e1 00 40 04 e1 00  D...B...@...@...
00006240: 3e 01 e1 00 3c 02 e1 00 3e 01 e1 00 3e 04 e1 00  >...<...>...>...
00006250: 40 01 e1 00 40 03 e1 00 42 04 e1 00 42 01 e1 00  @...@...B...B...
00006260: 44 02 e1 00 44 01 e1 00 42 04 e1 00 40 01 e1 00  D...D...B...@...
00006270: 3e 02 e1 00 3c 01 e1 00 3e 04 e1 00 40 01 e1 00  >...<...>...@...
00006280: 40 02 e1 00 42 01 e1 00 42 04 e1 00 44 01 e1 00  @...B...B...D...
00006290: 46 02 e1 00 46 01 e1 00 44 04 e1 00 42 01 e1 00  F...F...D...B...
000062a0: 40 02 e1 00 3e 01 e1 00 3a 04 e1 00 3c 01 e1 00  @...>...:...<...
000062b0: 3e 02 e1 00 3e 01 e1 00 40 04 e1 00 40 01 e1 00  >...>...@...@...
000062c0: 42 02 e1 00 44 01 e1 00 44 04 e1 00 44 01 e1 00  B...D...D...D...
000062d0: 42 02 e1 00 40 0d 81 37 00 08 91 34 7f 00 91 40  B...@..7...4...@
000062e0: 7f 10 81 40 00 81 00 81 34 00 30 91 45 7f 0b 81  ...@....4.0.E...
000062f0: 45 00 01 91 46 7f 0c 81 46 00 03 91 47 7f 25 91  E...F...F...G.%.
00006300: 47 7f 00 91 4a 7f 00 81 47 00 70 81 4a 00 00 81  G...J...G.p.J...
00006310: 47 00 10 91 45 7f 08 81 45 00 01 91 46 7f 08 81  G...E...E...F...
00006320: 46 00 03 91 47 7f 1c 81 47 00 10 91 4a 7f 00 91  F...G...G...J...
00006330: 47 7f 70 81 47 00 00 81 4a 00 10 91 47 7f 08 81  G.p.G...J...G...
00006340: 47 00 01 91 46 7f 0a 81 46 00 05 91 45 7f 18 81  G...F...F...E...
00006350: 45 00 10 91 43 7f 30 81 43 00 10 91 40 7f 30 81  E...C.0.C...@.0.
00006360: 40 00 0b e1 00 40 05 e1 00 42 00 91 43 7f 03 e1  @....@...B..C...
00006370: 00 42 05 e1 00 44 03 e1 00 44 00 81 43 00 01 e1  .B...D...D..C...
00006380: 00 44 04 e1 00 42 00 91 44 7f 01 e1 00 42 02 e1  .D...B..D....B..
00006390: 00 40 01 e1 00 40 04 e1 00 3e 01 e1 00 3e 02 e1  .@...@...>...>..
000063a0: 00 3c 00 81 44 00 01 e1 00 3c 04 e1 00 3a 00 91  .<..D....<...:..
000063b0: 43 7f 01 e1 00 3c 02 e1 00 3e 01 e1 00 3e 04 e1  C....<...>...>..
000063c0: 00 40 01 e1 00 40 02 e1 00 42 01 e1 00 44 04 e1  .@...@...B...D..
000063d0: 00 44 01 e1 00 44 02 e1 00 42 01 e1 00 40 04 e1  .D...D...B...@..
000063e0: 00 3e 01 e1 00 3e 02 e1 00 3c 01 e1 00 3a 04 e1  .>...>...<...:..
000063f0: 00 3c 01 e1 00 3e 02 e1 00 3e 01 e1 00 40 04 e1  .<...>...>...@..
00006400: 00 40 01 e1 00 42 02 e1 00 44 01 e1 00 44 04 e1  .@...B...D...D..
00006410: 00 44 01 e1 00 42 02 e1 00 42 01 e1 00 40 04 e1  .D...B...B...@..
00006420: 00 40 01 e1 00 3e 02 e1 00 3e 01 e1 00 3c 04 e1  .@...>...>...<..
00006430: 00 3e 01 e1 00 3e 02 e1 00 40 05 e1 00 40 01 e1  .>...>...@...@..
00006440: 00 42 02 e1 00 42 01 e1 00 42 04 81 43 00 01 e1  .B...B...B..C...
00006450: 00 40 0f 91 4c 7f 70 81 4c 00 10 91 39 7f 30 81  .@..L.p.L...9.0.
00006460: 39 00 10 91 3a 7f 30 81 3a 00 10 91 3b 7f 70 81  9...:.0.:...;.p.
00006470: 3b 00 10 91 47 7f 00 91 4e 7f 00 91 45 7f 70 81  ;...G...N...E.p.
00006480: 45 00 00 81 4e 00 00 81 47 00 10 91 47 7f 00 91  E...N...G...G...
00006490: 45 7f 00 91 3f 7f 70 81 3f 00 00 81 45 00 00 81  E...?.p.?...E...
000064a0: 47 00 10 91 3b 7f 03 91 34 7f 6d 81 3b 00 03 81  G...;...4.m.;...
000064b0: 34 00 09 91 34 7f 30 81 34 00 10 91 3d 7f 00 91  4...4.0.4...=...
000064c0: 34 7f 70 81 34 00 00 81 3d 00 17 91 34 7f 30 81  4.p.4...=...4.0.
000064d0: 34 00 09 91 34 7f 04 91 3e 7f 6c 81 34 00 04 81  4...4...>.l.4...
000064e0: 3e 00 10 91 34 7f 30 81 34 00 10 91 34 7f 01 91  >...4.0.4...4...
000064f0: 3d 7f 6f 81 34 00 01 81 3d 00 0b 91 34 7f 30 81  =.o.4...=...4.0.
00006500: 34 00 10 91 39 7f 07 91 40 7f 69 81 39 00 07 81  4...9...@.i.9...
00006510: 40 00 0d 91 39 7f 30 81 39 00 0c 91 42 7f 07 91  @...9.0.9...B...
00006520: 39 7f 69 81 42 00 07 81 39 00 10 91 39 7f 30 81  9.i.B...9...9.0.
00006530: 39 00 09 91 39 7f 07 91 43 7f 69 81 39 00 07 81  9...9...C.i.9...
00006540: 43 00 0e 91 39 7f 30 81 39 00 0b 91 42 7f 05 91  C...9.0.9...B...
00006550: 39 7f 81 0b 81 42 00 05 81 39 00 2f 91 3b 7f 03  9....B...9./.;..
00006560: 91 34 7f 6d 81 3b 00 03 81 34 00 09 91 34 7f 30  .4.m.;...4...4.0
00006570: 81 34 00 10 91 3d 7f 00 91 34 7f 70 81 34 00 00  .4...=...4.p.4..
00006580: 81 3d 00 17 91 34 7f 30 81 34 00 09 91 34 7f 04  .=...4.0.4...4..
00006590: 91 3e 7f 6c 81 34 00 04 81 3e 00 10 91 34 7f 30  .>.l.4...>...4.0
000065a0: 81 34 00 10 91 34 7f 01 91 3d 7f 6f 81 34 00 01  .4...4...=.o.4..
000065b0: 81 3d 00 0b 91 34 7f 30 81 34 00 10 91 39 7f 07  .=...4.0.4...9..
000065c0: 91 40 7f 69 81 39 00 07 81 40 00 0d 91 39 7f 30  .@.i.9...@...9.0
000065d0: 81 39 00 0c 91 42 7f 07 91 39 7f 69 81 42 00 07  .9...B...9.i.B..
000065e0: 81 39 00 10 91 39 7f 30 81 39 00 09 91 39 7f 07  .9...9.0.9...9..
000065f0: 91 43 7f 69 81 39 00 07 81 43 00 0e 91 39 7f 30  .C.i.9...C...9.0
00006600: 81 39 00 0b 91 42 7f 05 91 39 7f 81 0b 81 42 00  .9...B...9....B.
00006610: 05 81 39 00 32 91 39 7f 00 91 40 7f 70 81 40 00  ..9.2.9...@.p.@.
00006620: 00 81 39 00 10 91 39 7f 30 81 39 00 0d 91 39 7f  ..9...9.0.9...9.
00006630: 01 91 42 7f 6f 81 39 00 01 81 42 00 12 91 39 7f  ..B.o.9...B...9.
00006640: 30 81 39 00 09 91 39 7f 05 91 43 7f 6b 81 39 00  0.9...9...C.k.9.
00006650: 05 81 43 00 12 91 39 7f 30 81 39 00 0d 91 42 7f  ..C...9.0.9...B.
00006660: 01 91 39 7f 6f 81 42 00 01 81 39 00 0b 91 39 7f  ..9.o.B...9...9.
00006670: 30 81 39 00 14 91 39 7f 03 91 40 7f 6d 81 39 00  0.9...9...@.m.9.
00006680: 03 81 40 00 0e 91 39 7f 30 81 39 00 0f 91 42 7f  ..@...9.0.9...B.
00006690: 03 91 39 7f 6d 81 42 00 03 81 39 00 09 91 42 7f  ..9.m.B...9...B.
000066a0: 04 91 39 7f 2c 81 42 00 04 81 39 00 0c 91 39 7f  ..9.,.B...9...9.
000066b0: 00 91 43 7f 70 81 43 00 00 81 39 00 10 91 43 7f  ..C.p.C...9...C.
000066c0: 04 91 39 7f 2c 81 43 00 04 81 39 00 10 91 39 7f  ..9.,.C...9...9.
000066d0: 03 91 42 7f 6d 81 39 00 03 81 42 00 0d 91 39 7f  ..B.m.9...B...9.
000066e0: 00 91 42 7f 30 81 42 00 00 81 39 00 10 91 3b 7f  ..B.0.B...9...;.
000066f0: 03 91 34 7f 6d 81 3b 00 03 81 34 00 09 91 34 7f  ..4.m.;...4...4.
00006700: 30 81 34 00 10 91 3d 7f 00 91 34 7f 70 81 34 00  0.4...=...4.p.4.
00006710: 00 81 3d 00 17 91 34 7f 30 81 34 00 09 91 34 7f  ..=...4.0.4...4.
00006720: 04 91 3e 7f 6c 81 34 00 04 81 3e 00 10 91 34 7f  ..>.l.4...>...4.
00006730: 30 81 34 00 10 91 34 7f 01 91 3d 7f 6f 81 34 00  0.4...4...=.o.4.
00006740: 01 81 3d 00 0b 91 34 7f 30 81 34 00 10 91 39 7f  ..=...4.0.4...9.
00006750: 07 91 40 7f 69 81 39 00 07 81 40 00 0d 91 39 7f  ..@.i.9...@...9.
00006760: 30 81 39 00 0c 91 42 7f 07 91 39 7f 69 81 42 00  0.9...B...9.i.B.
00006770: 07 81 39 00 10 91 39 7f 30 81 39 00 09 91 39 7f  ..9...9.0.9...9.
00006780: 07 91 43 7f 69 81 39 00 07 81 43 00 0e 91 39 7f  ..C.i.9...C...9.
00006790: 30 81 39 00 0b 91 42 7f 05 91 39 7f 81 0b 81 42  0.9...B...9....B
000067a0: 00 05 81 39 00 2f 91 3b 7f 03 91 34 7f 6d 81 3b  ...9./.;...4.m.;
000067b0: 00 03 81 34 00 09 91 34 7f 30 81 34 00 10 91 3d  ...4...4.0.4...=
000067c0: 7f 00 91 34 7f 70 81 34 00 00 81 3d 00 17 91 34  ...4.p.4...=...4
000067d0: 7f 30 81 34 00 09 91 34 7f 04 91 3e 7f 6c 81 34  .0.4...4...>.l.4
000067e0: 00 04 81 3e 00 10 91 34 7f 30 81 34 00 10 91 34  ...>...4.0.4...4
000067f0: 7f 01 91 3d 7f 6f 81 34 00 01 81 3d 00 0b 91 34  ...=.o.4...=...4
00006800: 7f 30 81 34 00 10 91 39 7f 07 91 40 7f 69 81 39  .0.4...9...@.i.9
00006810: 00 07 81 40 00 0d 91 39 7f 30 81 39 00 0c 91 42  ...@...9.0.9...B
00006820: 7f 07 91 39 7f 69 81 42 00 07 81 39 00 10 91 39  ...9.i.B...9...9
00006830: 7f 30 81 39 00 09 91 39 7f 07 91 43 7f 69 81 39  .0.9...9...C.i.9
00006840: 00 07 81 43 00 0e 91 39 7f 30 81 39 00 0b 91 42  ...C...9.0.9...B
00006850: 7f 05 91 39 7f 81 0b 81 42 00 05 81 39 00 2f 91  ...9....B...9./.
00006860: 3b 7f 03 91 34 7f 6d 81 3b 00 03 81 34 00 09 91  ;...4.m.;...4...
00006870: 34 7f 30 81 34 00 10 91 3d 7f 00 91 34 7f 70 81  4.0.4...=...4.p.
00006880: 34 00 00 81 3d 00 17 91 34 7f 30 81 34 00 09 91  4...=...4.0.4...
00006890: 34 7f 04 91 3e 7f 6c 81 34 00 04 81 3e 00 10 91  4...>.l.4...>...
000068a0: 34 7f 30 81 34 00 10 91 34 7f 01 91 3d 7f 6f 81  4.0.4...4...=.o.
000068b0: 34 00 01 81 3d 00 0b 91 34 7f 30 81 34 00 10 91  4...=...4.0.4...
000068c0: 39 7f 07 91 40 7f 69 81 39 00 07 81 40 00 0d 91  9...@.i.9...@...
000068d0: 39 7f 30 81 39 00 0c 91 42 7f 07 91 39 7f 69 81  9.0.9...B...9.i.
000068e0: 42 00 07 81 39 00 10 91 39 7f 30 81 39 00 09 91  B...9...9.0.9...
000068f0: 39 7f 07 91 43 7f 69 81 39 00 07 81 43 00 0e 91  9...C.i.9...C...
00006900: 39 7f 30 81 39 00 0b 91 42 7f 05 91 39 7f 81 0b  9.0.9...B...9...
00006910: 81 42 00 05 81 39 00 2b 91 3b 7f 04 91 34 7f 00  .B...9.+.;...4..
00006920: 81 3b 00 70 81 34 00 0c 91 3b 7f 04 91 34 7f 2c  .;.p.4...;...4.,
00006930: 81 3b 00 04 81 34 00 10 91 34 7f 03 91 3d 7f 6d  .;...4...4...=.m
00006940: 81 34 00 03 81 3d 00 10 91 34 7f 30 81 34 00 09  .4...=...4.0.4..
00006950: 91 34 7f 04 91 3b 7f 6c 81 34 00 04 81 3b 00 13  .4...;.l.4...;..
00006960: 91 34 7f 30 81 34 00 09 91 3d 7f 04 91 34 7f 6c  .4.0.4...=...4.l
00006970: 81 3d 00 04 81 34 00 10 91 3e 7f 30 81 3e 00 0c  .=...4...>.0.>..
00006980: 91 39 7f 04 91 40 7f 5c 81 39 00 04 81 40 00 1c  .9...@.\.9...@..
00006990: 91 39 7f 30 81 39 00 14 91 42 7f 01 91 39 7f 6f  .9.0.9...B...9.o
000069a0: 81 42 00 01 81 39 00 0b 91 39 7f 30 81 39 00 15  .B...9...9.0.9..
000069b0: 91 43 7f 02 91 39 7f 5e 81 43 00 02 81 39 00 1e  .C...9.^.C...9..
000069c0: 91 39 7f 30 81 39 00 10 91 39 7f 02 91 42 7f 81  .9.0.9...9...B..
000069d0: 0e 81 39 00 02 81 42 00 81 30 91 4c 7f 30 81 4c  ..9...B..0.L.0.L
000069e0: 00 0d 91 51 7f 08 81 51 00 01 91 52 7f 08 81 52  ...Q...Q...R...R
000069f0: 00 02 91 53 7f 5e 81 53 00 10 91 53 7f 70 81 53  ...S.^.S...S.p.S
00006a00: 00 0f 91 53 7f 70 81 53 00 13 91 53 7f 70 81 53  ...S.p.S...S.p.S
00006a10: 00 0d 91 53 7f 30 81 53 00 4b e1 00 40 01 91 53  ...S.0.S.K..@..S
00006a20: 7f 04 e1 00 3e 01 e1 00 3e 02 e1 00 3c 05 e1 00  ....>...>...<...
00006a30: 3c 03 e1 00 3e 01 e1 00 40 00 81 53 00 04 91 52  <...>...@..S...R
00006a40: 7f 5c 81 52 00 10 91 51 7f 70 81 51 00 17 91 50  .\.R...Q.p.Q...P
00006a50: 7f 7e e1 00 40 07 e1 00 42 08 e1 00 42 08 e1 00  .~..@...B...B...
00006a60: 44 08 e1 00 44 04 e1 00 46 05 e1 00 46 02 e1 00  D...D...F...F...
00006a70: 48 05 e1 00 48 01 e1 00 48 02 e1 00 46 00 81 50  H...H...H...F..P
00006a80: 00 01 e1 00 44 04 e1 00 42 01 e1 00 40 0a 91 4c  ....D...B...@..L
00006a90: 7f 10 81 4c 00 09 91 47 7f 10 81 47 00 05 91 46  ...L...G...G...F
00006aa0: 7f 0b 81 46 00 07 91 45 7f 50 81 45 00 09 91 43  ...F...E.P.E...C
00006ab0: 7f 10 81 43 00 14 91 40 7f 30 81 40 00 10 91 39  ...C...@.0.@...9
00006ac0: 7f 03 91 40 7f 6d 81 39 00 03 81 40 00 10 91 39  ...@.m.9...@...9
00006ad0: 7f 30 81 39 00 0e 91 39 7f 02 91 42 7f 6e 81 39  .0.9...9...B.n.9
00006ae0: 00 02 81 42 00 0e 91 39 7f 30 81 39 00 0f 91 39  ...B...9.0.9...9
00006af0: 7f 00 91 43 7f 70 81 43 00 00 81 39 00 0c 91 39  ...C.p.C...9...9
00006b00: 7f 30 81 39 00 15 91 39 7f 00 91 40 7f 70 81 40  .0.9...9...@.p.@
00006b10: 00 00 81 39 00 10 91 39 7f 30 81 39 00 0b 91 40  ...9...9.0.9...@
00006b20: 7f 07 91 39 7f 69 81 40 00 07 81 39 00 0e 91 39  ...9.i.@...9...9
00006b30: 7f 30 81 39 00 12 91 42 7f 00 91 39 7f 70 81 39  .0.9...B...9.p.9
00006b40: 00 00 81 42 00 09 91 42 7f 07 91 39 7f 29 81 42  ...B...B...9.).B
00006b50: 00 07 81 39 00 09 91 43 7f 07 91 39 7f 69 81 43  ...9...C...9.i.C
00006b60: 00 07 81 39 00 0d 91 39 7f 30 81 39 00 10 91 39  ...9...9.0.9...9
00006b70: 7f 00 91 42 7f 81 10 81 42 00 00 81 39 00 81 0c  ...B....B...9...
00006b80: 91 4c 7f 10 81 4c 00 10 91 4f 7f 10 81 4f 00 14  .L...L...O...O..
00006b90: 91 51 7f 10 81 51 00 11 91 51 7f 08 91 52 7f 00  .Q...Q...Q...R..
00006ba0: 81 51 00 08 91 53 7f 00 81 52 00 3b 81 53 00 14  .Q...S...R.;.S..
00006bb0: 91 51 7f 0b 81 51 00 01 91 52 7f 08 81 52 00 05  .Q...Q...R...R..
00006bc0: 91 53 7f 37 81 53 00 11 91 51 7f 0b 91 52 7f 00  .S.7.S...Q...R..
00006bd0: 81 51 00 08 91 53 7f 00 81 52 00 35 81 53 00 1a  .Q...S...R.5.S..
00006be0: 91 51 7f 0d 91 52 7f 00 81 51 00 09 91 53 7f 00  .Q...R...Q...S..
00006bf0: 81 52 00 3a 81 53 00 0e 91 51 7f 0b 91 52 7f 00  .R.:.S...Q...R..
00006c00: 81 51 00 0c 81 52 00 04 91 53 7f 78 81 53 00 08  .Q...R...S.x.S..
00006c10: 91 52 7f 10 81 52 00 75 91 47 7f 2a 81 47 00 06  .R...R.u.G.*.G..
00006c20: 91 4a 7f 2b 91 4c 7f 05 81 4a 00 5b 81 4c 00 05  .J.+.L...J.[.L..
00006c30: 91 4a 7f 2f 91 47 7f 01 81 4a 00 2a 81 47 00 05  .J./.G...J.*.G..
00006c40: 91 45 7f 59 81 45 00 03 91 43 7f 30 81 43 00 04  .E.Y.E...C.0.C..
00006c50: 91 40 7f 29 81 40 00 03 e1 00 40 04 e1 00 42 01  .@.).@....@...B.
00006c60: e1 00 42 00 91 40 7f 02 e1 00 44 05 e1 00 44 01  ..B..@....D...D.
00006c70: e1 00 46 02 e1 00 46 01 e1 00 46 04 e1 00 44 01  ..F...F...F...D.
00006c80: e1 00 44 02 e1 00 42 01 e1 00 40 04 e1 00 40 01  ..D...B...@...@.
00006c90: e1 00 3e 02 e1 00 3e 01 e1 00 3c 04 e1 00 3e 01  ..>...>...<...>.
00006ca0: e1 00 3e 02 e1 00 40 01 e1 00 40 05 e1 00 42 02  ..>...@...@...B.
00006cb0: e1 00 42 01 e1 00 44 04 e1 00 44 01 e1 00 44 02  ..B...D...D...D.
00006cc0: e1 00 42 01 e1 00 42 04 e1 00 40 03 e1 00 40 01  ..B...B...@...@.
00006cd0: e1 00 3e 04 e1 00 3e 01 e1 00 3c 02 e1 00 3e 01  ..>...>...<...>.
00006ce0: e1 00 3e 04 e1 00 40 01 e1 00 42 02 e1 00 42 01  ..>...@...B...B.
00006cf0: e1 00 44 04 e1 00 44 01 e1 00 44 02 e1 00 42 01  ..D...D...D...B.
00006d00: e1 00 42 05 e1 00 40 02 e1 00 40 01 e1 00 3e 04  ..B...@...@...>.
00006d10: e1 00 40 03 e1 00 40 01 e1 00 42 04 e1 00 42 03  ..@...@...B...B.
00006d20: e1 00 44 01 e1 00 44 04 e1 00 44 01 e1 00 42 00  ..D...D...D...B.
00006d30: 81 40 00 02 e1 00 42 01 e1 00 40 04 e1 00 40 01  .@....B...@...@.
00006d40: e1 00 3e 02 e1 00 3e 01 e1 00 3c 00 91 3e 7f 04  ..>...>...<..>..
00006d50: e1 00 3e 01 e1 00 3e 02 e1 00 40 01 e1 00 42 04  ..>...>...@...B.
00006d60: e1 00 42 01 e1 00 44 02 e1 00 44 01 e1 00 44 04  ..B...D...D...D.
00006d70: e1 00 42 01 e1 00 40 02 e1 00 40 01 e1 00 3e 04  ..B...@...@...>.
00006d80: e1 00 3c 01 e1 00 3e 02 e1 00 3e 01 e1 00 40 04  ..<...>...>...@.
00006d90: e1 00 42 01 e1 00 42 02 e1 00 44 01 e1 00 44 04  ..B...B...D...D.
00006da0: e1 00 44 01 e1 00 42 03 e1 00 42 00 81 3e 00 04  ..D...B...B..>..
00006db0: e1 00 40 11 91 3b 7f 70 81 3b 00 12 91 47 7f 00  ..@..;.p.;...G..
00006dc0: 91 4e 7f 00 91 45 7f 70 81 45 00 00 81 4e 00 00  .N...E.p.E...N..
00006dd0: 81 47 00 09 91 4e 7f 05 91 45 7f 00 91 47 7f 6b  .G...N...E...G.k
00006de0: 81 4e 00 04 81 45 00 01 81 47 00 0b 91 47 7f 05  .N...E...G...G..
00006df0: 91 4e 7f 02 91 45 7f 81 69 81 47 00 05 81 4e 00  .N...E..i.G...N.
00006e00: 02 81 45 00 09 91 37 7f 04 e1 00 42 04 e1 00 42  ..E...7....B...B
00006e10: 07 e1 00 44 06 e1 00 44 07 e1 00 46 04 e1 00 46  ...D...D...F...F
00006e20: 07 e1 00 48 06 e1 00 48 03 e1 00 46 00 81 37 00  ...H...H...F..7.
00006e30: 04 e1 00 44 01 e1 00 42 02 e1 00 40 0d 91 38 7f  ...D...B...@..8.
00006e40: 30 81 38 00 13 91 39 7f 70 81 39 00 0d 91 51 7f  0.8...9.p.9...Q.
00006e50: 01 91 45 7f 03 81 51 00 2d 81 45 00 12 91 3c 7f  ..E...Q.-.E...<.
00006e60: 30 81 3c 00 09 91 3d 7f 30 81 3d 00 17 91 40 7f  0.<...=.0.=...@.
00006e70: 30 81 40 00 09 91 43 7f 30 81 43 00 14 91 40 7f  0.@...C.0.C...@.
00006e80: 30 81 40 00 10 91 43 7f 30 81 43 00 10 91 40 7f  0.@...C.0.C...@.
00006e90: 30 81 40 00 10 e1 00 40 01 91 37 7f 02 e1 00 42  0.@....@..7....B
00006ea0: 08 e1 00 42 08 e1 00 44 08 e1 00 44 08 e1 00 46  ...B...D...D...F
00006eb0: 08 e1 00 46 05 e1 00 46 01 e1 00 44 00 81 37 00  ...F...F...D..7.
00006ec0: 02 e1 00 42 01 e1 00 42 04 e1 00 40 09 91 38 7f  ...B...B...@..8.
00006ed0: 30 81 38 00 12 91 34 7f 81 10 81 34 00 2d 91 45  0.8...4....4.-.E
00006ee0: 7f 08 91 46 7f 00 81 45 00 08 81 46 00 03 91 47  ...F...E...F...G
00006ef0: 7f 28 81 47 00 01 91 47 7f 05 91 4a 7f 2b 81 47  .(.G...G...J.+.G
00006f00: 00 05 81 4a 00 12 91 47 7f 00 91 4a 7f 2d 81 4a  ...J...G...J.-.J
00006f10: 00 03 81 47 00 0d 91 45 7f 08 91 46 7f 00 81 45  ...G...E...F...E
00006f20: 00 09 81 46 00 07 91 47 7f 2b 91 4a 7f 6d 81 47  ...F...G.+.J.m.G
00006f30: 00 03 81 4a 00 0d 91 47 7f 0b 91 46 7f 00 81 47  ...J...G...F...G
00006f40: 00 09 81 46 00 04 91 45 7f 39 81 45 00 10 91 43  ...F...E.9.E...C
00006f50: 7f 10 81 43 00 0b 91 40 7f 30 81 40 00 10 e1 00  ...C...@.0.@....
00006f60: 40 04 e1 00 42 01 e1 00 42 00 91 43 7f 03 e1 00  @...B...B..C....
00006f70: 44 04 e1 00 44 01 e1 00 44 00 81 43 00 02 e1 00  D...D...D..C....
00006f80: 42 00 91 44 7f 01 e1 00 40 04 e1 00 3e 01 e1 00  B..D....@...>...
00006f90: 3c 02 e1 00 3a 00 91 43 7f 00 81 44 00 01 e1 00  <...:..C...D....
00006fa0: 3c 04 e1 00 3e 01 e1 00 3e 02 e1 00 40 01 e1 00  <...>...>...@...
00006fb0: 42 04 e1 00 42 01 e1 00 42 02 e1 00 40 01 e1 00  B...B...B...@...
00006fc0: 3e 04 e1 00 3e 01 e1 00 3c 03 e1 00 3e 04 e1 00  >...>...<...>...
00006fd0: 40 01 e1 00 42 02 e1 00 44 01 e1 00 44 04 e1 00  @...B...D...D...
00006fe0: 44 01 e1 00 42 02 e1 00 40 01 e1 00 40 04 e1 00  D...B...@...@...
00006ff0: 3e 01 e1 00 3c 02 e1 00 3e 01 e1 00 40 04 e1 00  >...<...>...@...
00007000: 40 01 e1 00 42 02 e1 00 44 01 e1 00 44 04 e1 00  @...B...D...D...
00007010: 44 01 e1 00 42 02 e1 00 40 01 e1 00 3e 04 e1 00  D...B...@...>...
00007020: 3c 01 e1 00 3e 02 e1 00 40 01 e1 00 42 04 e1 00  <...>...@...B...
00007030: 42 01 e1 00 44 02 e1 00 46 01 e1 00 46 04 e1 00  B...D...F...F...
00007040: 46 01 e1 00 44 02 e1 00 44 05 e1 00 42 01 e1 00  F...D...D...B...
00007050: 42 02 e1 00 40 00 81 43 00 10 91 4c 7f 30 81 4c  B...@..C...L.0.L
00007060: 00 0e 91 39 7f 30 81 39 00 12 91 3b 7f 30 81 3b  ...9.0.9...;.0.;
00007070: 00 09 91 3b 7f 40 e1 00 40 05 e1 00 42 03 e1 00  ...;.@..@...B...
00007080: 42 05 e1 00 44 03 e1 00 44 04 e1 00 44 01 e1 00  B...D...D...D...
00007090: 42 02 e1 00 42 01 e1 00 40 05 e1 00 40 02 e1 00  B...B...@...@...
000070a0: 3e 01 e1 00 3e 04 e1 00 3c 01 e1 00 3e 03 e1 00  >...>...<...>...
000070b0: 3e 04 e1 00 40 01 e1 00 40 03 e1 00 42 04 e1 00  >...@...@...B...
000070c0: 42 01 e1 00 44 03 e1 00 44 04 e1 00 44 01 e1 00  B...D...D...D...
000070d0: 42 02 e1 00 40 01 e1 00 3e 04 e1 00 3e 01 e1 00  B...@...>...>...
000070e0: 3c 02 e1 00 3a 01 e1 00 3c 04 e1 00 3c 01 e1 00  <...:...<...<...
000070f0: 3e 02 e1 00 40 01 e1 00 40 04 e1 00 42 01 e1 00  >...@...@...B...
00007100: 42 02 e1 00 44 01 e1 00 44 04 e1 00 44 01 e1 00  B...D...D...D...
00007110: 42 02 e1 00 42 01 e1 00 40 04 e1 00 3e 01 e1 00  B...B...@...>...
00007120: 3e 02 e1 00 3c 01 e1 00 3e 04 e1 00 3e 01 e1 00  >...<...>...>...
00007130: 40 02 e1 00 40 01 e1 00 42 04 e1 00 42 01 e1 00  @...@...B...B...
00007140: 44 02 e1 00 44 01 e1 00 44 04 e1 00 42 01 e1 00  D...D...D...B...
00007150: 40 02 e1 00 40 01 e1 00 3e 04 e1 00 3c 01 e1 00  @...@...>...<...
00007160: 3e 02 e1 00 3e 01 e1 00 40 04 e1 00 40 01 e1 00  >...>...@...@...
00007170: 42 02 e1 00 42 01 e1 00 44 04 e1 00 44 01 e1 00  B...B...D...D...
00007180: 44 02 e1 00 42 01 e1 00 40 04 e1 00 40 01 e1 00  D...B...@...@...
00007190: 3e 02 e1 00 3c 01 e1 00 3e 04 e1 00 3e 01 e1 00  >...<...>...>...
000071a0: 40 02 e1 00 42 01 e1 00 42 04 e1 00 44 01 e1 00  @...B...B...D...
000071b0: 44 02 e1 00 44 01 e1 00 42 05 e1 00 42 02 e1 00  D...D...B...B...
000071c0: 40 00 81 3b 00 81 09 91 4c 7f 30 81 4c 00 14 91  @..;....L.0.L...
000071d0: 45 7f 10 91 47 7f 00 81 45 00 60 81 47 00 10 91  E...G...E.`.G...
000071e0: 4a 7f 30 81 4a 00 10 e1 00 40 00 91 47 7f 00 91  J.0.J....@..G...
000071f0: 4a 7f 03 e1 00 42 05 e1 00 42 03 e1 00 44 06 e1  J....B...B...D..
00007200: 00 44 03 e1 00 46 05 e1 00 46 03 e1 00 46 05 e1  .D...F...F...F..
00007210: 00 44 03 e1 00 44 04 e1 00 42 03 e1 00 42 05 e1  .D...D...B...B..
00007220: 00 40 01 e1 00 40 03 e1 00 3e 05 e1 00 3e 02 e1  .@...@...>...>..
00007230: 00 3c 05 e1 00 3c 03 e1 00 3a 01 e1 00 3c 05 e1  .<...<...:...<..
00007240: 00 3c 03 e1 00 3e 04 e1 00 3e 03 e1 00 40 01 e1  .<...>...>...@..
00007250: 00 40 05 e1 00 42 03 e1 00 42 04 e1 00 44 03 e1  .@...B...B...D..
00007260: 00 44 01 e1 00 44 05 e1 00 42 02 e1 00 42 01 e1  .D...D...B...B..
00007270: 00 40 05 e1 00 40 02 e1 00 3e 05 e1 00 3e 01 e1  .@...@...>...>..
00007280: 00 3c 02 e1 00 3c 05 e1 00 3a 01 e1 00 3c 02 e1  .<...<...:...<..
00007290: 00 3c 01 e1 00 3e 04 e1 00 3e 01 e1 00 40 02 e1  .<...>...>...@..
000072a0: 00 40 05 e1 00 42 01 e1 00 42 02 e1 00 44 01 e1  .@...B...B...D..
000072b0: 00 44 04 e1 00 46 01 e1 00 46 02 e1 00 46 01 e1  .D...F...F...F..
000072c0: 00 44 04 e1 00 44 03 e1 00 42 01 e1 00 42 04 e1  .D...D...B...B..
000072d0: 00 40 01 e1 00 40 02 e1 00 3e 01 e1 00 3e 05 e1  .@...@...>...>..
000072e0: 00 3c 02 e1 00 3c 01 e1 00 3a 04 e1 00 3c 01 e1  .<...<...:...<..
000072f0: 00 3c 03 e1 00 3e 04 e1 00 3e 01 e1 00 40 03 e1  .<...>...>...@..
00007300: 00 40 04 e1 00 42 01 e1 00 42 03 e1 00 44 04 e1  .@...B...B...D..
00007310: 00 44 01 e1 00 44 03 e1 00 42 04 e1 00 42 01 e1  .D...D...B...B..
00007320: 00 40 03 e1 00 40 04 e1 00 3e 03 e1 00 3e 01 e1  .@...@...>...>..
00007330: 00 3c 04 e1 00 3c 03 e1 00 3a 01 e1 00 3c 05 e1  .<...<...:...<..
00007340: 00 3c 02 e1 00 3e 05 e1 00 3e 01 e1 00 40 03 e1  .<...>...>...@..
00007350: 00 40 04 e1 00 42 03 e1 00 42 01 e1 00 44 05 e1  .@...B...B...D..
00007360: 00 44 02 e1 00 44 05 e1 00 42 01 e1 00 42 03 e1  .D...D...B...B..
00007370: 00 40 04 e1 00 40 03 e1 00 3e 01 e1 00 3e 05 e1  .@...@...>...>..
00007380: 00 3c 02 e1 00 3c 05 e1 00 3a 01 e1 00 3c 03 e1  .<...<...:...<..
00007390: 00 3c 04 e1 00 3e 01 e1 00 3e 03 e1 00 40 04 e1  .<...>...>...@..
000073a0: 00 40 01 e1 00 42 03 e1 00 42 04 e1 00 44 01 e1  .@...B...B...D..
000073b0: 00 44 03 e1 00 46 04 e1 00 46 01 e1 00 46 02 e1  .D...F...F...F..
000073c0: 00 44 01 e1 00 42 04 e1 00 42 01 e1 00 40 02 e1  .D...B...B...@..
000073d0: 00 3e 01 e1 00 3c 04 e1 00 3c 01 e1 00 3a 02 e1  .>...<...<...:..
000073e0: 00 38 01 e1 00 3a 04 e1 00 3c 01 e1 00 3e 02 e1  .8...:...<...>..
000073f0: 00 40 01 e1 00 40 05 e1 00 40 07 81 4a 00 00 81  .@...@...@..J...
00007400: 47 00 82 4c e1 00 40 04 91 47 7f 00 91 4a 7f 01  G..L..@..G...J..
00007410: e1 00 42 07 e1 00 42 04 e1 00 44 07 e1 00 44 06  ..B...B...D...D.
00007420: e1 00 46 08 e1 00 46 07 e1 00 48 04 e1 00 48 07  ..F...F...H...H.
00007430: e1 00 4a 06 e1 00 4a 00 81 4a 00 03 e1 00 48 00  ..J...J..J....H.
00007440: 81 47 00 04 e1 00 40 00 91 49 7f 00 91 4c 7f 03  .G....@..I...L..
00007450: e1 00 40 6d 81 4c 00 00 81 49 00 0c e1 00 42 04  ..@m.L...I....B.
00007460: e1 00 44 00 91 47 7f 00 91 4a 7f 01 e1 00 46 02  ..D..G...J....F.
00007470: e1 00 48 01 e1 00 4a 04 e1 00 4a 00 81 4a 00 00  ..H...J...J..J..
00007480: 81 47 00 01 e1 00 48 00 91 4c 7f 02 e1 00 46 01  .G....H..L....F.
00007490: e1 00 44 00 91 49 7f 04 e1 00 42 01 e1 00 40 03  ..D..I....B...@.
000074a0: e1 00 40 1c 81 49 00 00 81 4c 00 10 91 4c 7f 30  ..@..I...L...L.0
000074b0: 81 4c 00 10 91 4a 7f 08 81 4a 00 01 91 4b 7f 0a  .L...J...J...K..
000074c0: 81 4b 00 01 91 4c 7f 1c 81 4c 00 50 91 51 7f 30  .K...L...L.P.Q.0
000074d0: 81 51 00 0c e1 00 40 04 e1 00 42 00 91 51 7f 01  .Q....@...B..Q..
000074e0: e1 00 42 02 e1 00 44 01 e1 00 44 04 e1 00 46 03  ..B...D...D...F.
000074f0: e1 00 46 01 e1 00 48 04 e1 00 48 01 e1 00 4a 02  ..F...H...H...J.
00007500: e1 00 4a 00 81 51 00 01 e1 00 48 04 e1 00 44 00  ..J..Q....H...D.
00007510: 91 53 7f 01 e1 00 40 12 81 53 00 11 e1 00 42 04  .S....@..S....B.
00007520: e1 00 44 00 91 51 7f 01 e1 00 46 02 e1 00 48 01  ..D..Q....F...H.
00007530: e1 00 4a 04 e1 00 4a 00 91 53 7f 00 81 51 00 01  ..J...J..S...Q..
00007540: e1 00 4a 02 e1 00 48 01 e1 00 46 04 e1 00 44 01  ..J...H...F...D.
00007550: e1 00 42 02 e1 00 40 1d 81 53 00 0c e1 00 42 04  ..B...@..S....B.
00007560: e1 00 44 00 91 51 7f 01 e1 00 46 02 e1 00 46 01  ..D..Q....F...F.
00007570: e1 00 48 04 e1 00 4a 01 e1 00 4a 02 e1 00 48 01  ..H...J...J...H.
00007580: e1 00 46 04 e1 00 44 00 81 51 00 01 e1 00 42 02  ..F...D..Q....B.
00007590: e1 00 40 00 91 53 7f 1d e1 00 40 0c e1 00 3e 0c  ..@..S....@...>.
000075a0: e1 00 3e 08 e1 00 3c 08 e1 00 3c 08 e1 00 3a 03  ..>...<...<...:.
000075b0: e1 00 3a 05 e1 00 38 03 e1 00 38 05 e1 00 36 00  ..:...8...8...6.
000075c0: 81 53 00 01 e1 00 38 02 e1 00 3a 01 e1 00 3a 04  .S....8...:...:.
000075d0: e1 00 3c 01 e1 00 3c 02 e1 00 3e 01 e1 00 40 04  ..<...<...>...@.
000075e0: 91 51 7f 30 81 51 00 10 e1 00 40 00 91 4f 7f 03  .Q.0.Q....@..O..
000075f0: e1 00 42 08 e1 00 42 08 e1 00 44 08 e1 00 44 08  ..B...B...D...D.
00007600: e1 00 46 08 e1 00 46 06 e1 00 46 03 e1 00 44 05  ..F...F...F...D.
00007610: e1 00 44 02 81 4f 00 05 e1 00 42 00 91 50 7f 03  ..D..O....B..P..
00007620: e1 00 42 05 e1 00 40 04 e1 00 40 24 81 50 00 82  ..B...@...@$.P..
00007630: 2c e1 00 42 04 e1 00 46 00 91 51 7f 01 e1 00 48  ,..B...F..Q....H
00007640: 02 e1 00 4a 01 e1 00 48 04 e1 00 46 00 91 53 7f  ...J...H...F..S.
00007650: 00 81 51 00 01 e1 00 44 02 e1 00 42 01 e1 00 40  ..Q....D...B...@
00007660: 05 e1 00 40 3f 81 53 00 0c e1 00 42 04 e1 00 44  ...@?.S....B...D
00007670: 00 91 51 7f 01 e1 00 46 02 e1 00 48 01 e1 00 4a  ..Q....F...H...J
00007680: 04 e1 00 48 00 81 51 00 01 e1 00 44 02 e1 00 40  ...H..Q....D...@
00007690: 00 91 53 7f 05 e1 00 40 0b 81 53 00 21 e1 00 40  ..S....@..S.!..@
000076a0: 04 e1 00 42 00 91 51 7f 01 e1 00 44 02 e1 00 46  ...B..Q....D...F
000076b0: 01 e1 00 48 04 e1 00 4a 01 e1 00 4a 02 e1 00 4a  ...H...J...J...J
000076c0: 01 e1 00 48 04 e1 00 46 00 81 51 00 01 e1 00 44  ...H...F..Q....D
000076d0: 02 e1 00 44 00 91 54 7f 01 e1 00 42 04 e1 00 40  ...D..T....B...@
000076e0: 01 81 54 00 02 e1 00 40 01 91 53 7f 34 81 53 00  ..T....@..S.4.S.
000076f0: 0c e1 00 40 04 e1 00 42 00 91 51 7f 01 e1 00 44  ...@...B..Q....D
00007700: 02 e1 00 44 01 e1 00 46 04 e1 00 48 01 e1 00 48  ...D...F...H...H
00007710: 02 e1 00 48 01 e1 00 46 04 e1 00 44 00 81 51 00  ...H...F...D..Q.
00007720: 01 e1 00 44 02 e1 00 42 00 91 54 7f 01 e1 00 40  ...D...B..T....@
00007730: 05 e1 00 40 02 81 54 00 05 91 53 7f 30 81 53 00  ...@..T...S.0.S.
00007740: 10 91 4f 7f 30 81 4f 00 10 e1 00 40 00 91 51 7f  ..O.0.O....@..Q.
00007750: 04 e1 00 42 0c e1 00 42 09 e1 00 44 0a e1 00 44  ...B...B...D...D
00007760: 06 e1 00 44 03 e1 00 42 04 e1 00 42 00 81 51 00  ...D...B...B..Q.
00007770: 03 e1 00 40 0d 91 51 7f 08 81 51 00 01 91 54 7f  ...@..Q...Q...T.
00007780: 07 81 54 00 03 91 53 7f 1d 81 53 00 10 91 51 7f  ..T...S...S...Q.
00007790: 70 81 51 00 10 91 4f 7f 10 81 4f 00 10 91 4c 7f  p.Q...O...O...L.
000077a0: 10 81 4c 00 10 e1 00 40 00 91 4c 7f 01 e1 00 42  ..L....@..L....B
000077b0: 03 e1 00 42 05 e1 00 44 03 e1 00 44 04 e1 00 44  ...B...D...D...D
000077c0: 03 e1 00 42 05 e1 00 42 01 e1 00 40 03 e1 00 40  ...B...B...@...@
000077d0: 04 e1 00 3e 03 e1 00 3e 05 e1 00 3c 01 e1 00 3e  ...>...>...<...>
000077e0: 03 e1 00 3e 04 e1 00 40 01 e1 00 40 03 e1 00 42  ...>...@...@...B
000077f0: 04 e1 00 42 01 e1 00 44 03 e1 00 44 04 e1 00 44  ...B...D...D...D
00007800: 03 e1 00 42 01 e1 00 42 04 e1 00 40 03 e1 00 40  ...B...B...@...@
00007810: 01 e1 00 3e 04 e1 00 3e 03 e1 00 3c 01 e1 00 3e  ...>...>...<...>
00007820: 04 e1 00 3e 03 e1 00 40 01 e1 00 40 04 e1 00 42  ...>...@...@...B
00007830: 01 e1 00 42 03 e1 00 44 04 e1 00 44 01 e1 00 44  ...B...D...D...D
00007840: 02 e1 00 42 01 e1 00 42 04 e1 00 40 01 e1 00 40  ...B...B...@...@
00007850: 02 e1 00 3e 01 e1 00 3e 04 e1 00 3c 01 e1 00 3e  ...>...>...<...>
00007860: 03 e1 00 3e 04 e1 00 40 01 e1 00 40 03 e1 00 42  ...>...@...@...B
00007870: 04 e1 00 42 01 e1 00 42 02 e1 00 40 01 e1 00 40  ...B...B...@...@
00007880: 04 e1 00 3e 01 e1 00 3c 02 e1 00 3c 01 e1 00 3a  ...>...<...<...:
00007890: 04 e1 00 3c 01 e1 00 3e 02 e1 00 3e 01 e1 00 40  ...<...>...>...@
000078a0: 04 e1 00 40 00 81 4c 00 03 e1 00 40 1d 91 4f 7f  ...@..L....@..O.
000078b0: 30 81 4f 00 10 91 51 7f 10 81 51 00 01 91 52 7f  0.O...Q...Q...R.
000078c0: 0b 81 52 00 04 91 53 7f 10 81 53 00 10 91 51 7f  ..R...S...S...Q.
000078d0: 08 81 51 00 01 91 52 7f 07 81 52 00 01 91 53 7f  ..Q...R...R...S.
000078e0: 1f 81 53 00 0c e1 00 42 04 e1 00 44 00 91 51 7f  ..S....B...D..Q.
000078f0: 01 e1 00 46 02 e1 00 48 01 e1 00 4a 04 e1 00 4a  ...F...H...J...J
00007900: 00 81 51 00 01 e1 00 48 02 e1 00 44 00 91 53 7f  ..Q....H...D..S.
00007910: 01 e1 00 40 24 81 53 00 10 91 51 7f 10 81 51 00  ...@$.S...Q...Q.
00007920: 10 91 4f 7f 10 81 4f 00 10 91 4c 7f 10 81 4c 00  ..O...O...L...L.
00007930: 10 91 4c 7f 1c e1 00 40 05 e1 00 42 03 e1 00 42  ..L....@...B...B
00007940: 05 e1 00 44 03 e1 00 44 05 e1 00 44 02 e1 00 42  ...D...D...D...B
00007950: 01 e1 00 42 04 e1 00 40 01 e1 00 3e 02 e1 00 3e  ...B...@...>...>
00007960: 01 e1 00 3c 04 e1 00 3c 01 e1 00 3a 02 e1 00 3c  ...<...<...:...<
00007970: 01 e1 00 3c 04 e1 00 3e 01 e1 00 3e 02 e1 00 40  ...<...>...>...@
00007980: 01 e1 00 40 04 e1 00 42 01 e1 00 42 02 e1 00 44  ...@...B...B...D
00007990: 01 e1 00 44 04 e1 00 44 01 e1 00 42 02 e1 00 42  ...D...D...B...B
000079a0: 01 e1 00 40 04 e1 00 3e 01 e1 00 3e 02 e1 00 3c  ...@...>...>...<
000079b0: 01 e1 00 3e 04 e1 00 3e 01 e1 00 40 02 e1 00 40  ...>...>...@...@
000079c0: 05 e1 00 42 01 e1 00 42 02 e1 00 44 01 e1 00 44  ...B...B...D...D
000079d0: 04 e1 00 42 01 e1 00 40 02 e1 00 3e 01 e1 00 3c  ...B...@...>...<
000079e0: 04 e1 00 3a 01 e1 00 3a 02 e1 00 3c 01 e1 00 3e  ...:...:...<...>
000079f0: 04 e1 00 40 08 81 4c 00 10 91 4f 7f 01 e1 00 40  ...@..L...O....@
00007a00: 08 e1 00 42 0f e1 00 42 09 e1 00 44 03 e1 00 44  ...B...B...D...D
00007a10: 05 e1 00 46 03 e1 00 46 04 e1 00 46 00 81 4f 00  ...F...F...F..O.
00007a20: 01 e1 00 44 02 e1 00 42 01 e1 00 40 05 e1 00 40  ...D...B...@...@
00007a30: 00 e1 00 40 82 07 91 47 7f 10 81 47 00 0b e1 00  ...@...G...G....
00007a40: 40 05 e1 00 42 00 91 4a 7f 03 e1 00 42 05 e1 00  @...B..J....B...
00007a50: 44 04 e1 00 44 05 e1 00 46 03 e1 00 46 05 e1 00  D...D...F...F...
00007a60: 46 00 81 4a 00 02 e1 00 44 01 e1 00 42 04 e1 00  F..J....D...B...
00007a70: 40 00 91 4b 7f 03 e1 00 40 0d 81 4b 00 10 91 4c  @..K....@..K...L
00007a80: 7f 10 81 4c 00 10 91 4f 7f 70 81 4f 00 10 91 4c  ...L...O.p.O...L
00007a90: 7f 10 81 4c 00 10 91 47 7f 10 81 47 00 10 91 4a  ...L...G...G...J
00007aa0: 7f 30 81 4a 00 10 91 47 7f 30 81 47 00 0c e1 00  .0.J...G.0.G....
00007ab0: 42 04 e1 00 44 00 91 45 7f 01 e1 00 46 02 e1 00  B...D..E....F...
00007ac0: 48 01 e1 00 4a 04 e1 00 4a 00 81 45 00 01 e1 00  H...J...J..E....
00007ad0: 48 02 e1 00 46 01 e1 00 44 00 91 47 7f 04 e1 00  H...F...D..G....
00007ae0: 42 01 e1 00 40 03 e1 00 40 1c 81 47 00 10 91 45  B...@...@..G...E
00007af0: 7f 30 81 45 00 10 91 43 7f 30 81 43 00 10 91 40  .0.E...C.0.C...@
00007b00: 7f 30 81 40 00 10 e1 00 40 00 91 40 7f 01 e1 00  .0.@....@..@....
00007b10: 42 03 e1 00 42 04 e1 00 44 03 e1 00 44 01 e1 00  B...B...D...D...
00007b20: 46 05 e1 00 46 02 e1 00 46 01 e1 00 44 05 e1 00  F...F...F...D...
00007b30: 44 02 e1 00 42 01 e1 00 42 05 e1 00 40 02 e1 00  D...B...B...@...
00007b40: 40 01 e1 00 3e 05 e1 00 3e 02 e1 00 3c 01 e1 00  @...>...>...<...
00007b50: 3e 04 e1 00 3e 01 e1 00 40 02 e1 00 40 05 e1 00  >...>...@...@...
00007b60: 42 01 e1 00 42 02 e1 00 44 01 e1 00 44 04 e1 00  B...B...D...D...
00007b70: 44 01 e1 00 42 02 e1 00 40 01 e1 00 40 04 e1 00  D...B...@...@...
00007b80: 3e 01 e1 00 3c 02 e1 00 3c 01 e1 00 3a 04 e1 00  >...<...<...:...
00007b90: 38 01 e1 00 3a 02 e1 00 3c 01 e1 00 3c 04 e1 00  8...:...<...<...
00007ba0: 3e 01 e1 00 40 02 e1 00 40 01 e1 00 42 04 e1 00  >...@...@...B...
00007bb0: 44 01 e1 00 44 02 e1 00 44 01 e1 00 42 04 e1 00  D...D...D...B...
00007bc0: 40 01 e1 00 3e 02 e1 00 3c 01 e1 00 3a 04 e1 00  @...>...<...:...
00007bd0: 3c 01 e1 00 3e 02 e1 00 40 01 e1 00 42 04 e1 00  <...>...@...B...
00007be0: 44 01 e1 00 46 02 e1 00 46 01 e1 00 46 04 e1 00  D...F...F...F...
00007bf0: 44 01 e1 00 42 02 e1 00 40 01 e1 00 40 04 e1 00  D...B...@...@...
00007c00: 3e 01 e1 00 3c 03 e1 00 3e 04 81 40 00 01 e1 00  >...<...>..@....
00007c10: 3e 03 e1 00 40 05 e1 00 40 07 e1 00 40 20 91 43  >...@...@...@ .C
00007c20: 7f 08 81 43 00 03 91 44 7f 25 81 44 00 10 91 47  ...C...D.%.D...G
00007c30: 7f 30 81 47 00 10 91 47 7f 03 91 4c 7f 2d 81 4c  .0.G...G...L.-.L
00007c40: 00 00 81 47 00 10 91 4e 7f 08 91 4f 7f 00 81 4e  ...G...N...O...N
00007c50: 00 09 81 4f 00 03 91 50 7f 20 81 50 00 0c 91 4c  ...O...P. .P...L
00007c60: 7f 30 81 4c 00 10 91 47 7f 30 81 47 00 10 91 4e  .0.L...G.0.G...N
00007c70: 7f 08 91 4f 7f 00 81 4e 00 0b 81 4f 00 06 91 50  ...O...N...O...P
00007c80: 7f 22 81 50 00 05 91 4c 7f 30 81 4c 00 10 91 47  .".P...L.0.L...G
00007c90: 7f 30 81 47 00 10 91 4e 7f 10 81 4e 00 03 91 4f  .0.G...N...N...O
00007ca0: 7f 10 81 4f 00 05 91 50 7f 31 81 50 00 07 91 4c  ...O...P.1.P...L
00007cb0: 7f 10 81 4c 00 10 91 47 7f 30 81 47 00 10 91 4a  ...L...G.0.G...J
00007cc0: 7f 10 81 4a 00 03 e1 00 40 01 91 4c 7f 04 e1 00  ...J....@..L....
00007cd0: 42 03 e1 00 42 05 e1 00 44 03 e1 00 44 01 e1 00  B...B...D...D...
00007ce0: 44 05 e1 00 42 02 e1 00 42 01 e1 00 40 05 e1 00  D...B...B...@...
00007cf0: 40 02 e1 00 3e 01 e1 00 3e 05 e1 00 3c 02 e1 00  @...>...>...<...
00007d00: 3e 01 e1 00 3e 04 e1 00 40 01 e1 00 40 03 e1 00  >...>...@...@...
00007d10: 42 04 e1 00 42 01 e1 00 44 02 e1 00 44 01 e1 00  B...B...D...D...
00007d20: 44 05 e1 00 42 02 e1 00 42 01 e1 00 40 05 e1 00  D...B...B...@...
00007d30: 40 02 e1 00 3e 01 e1 00 3e 05 e1 00 3c 02 e1 00  @...>...>...<...
00007d40: 3e 05 e1 00 3e 01 e1 00 40 02 e1 00 40 05 e1 00  >...>...@...@...
00007d50: 42 01 e1 00 42 02 e1 00 44 05 e1 00 44 01 e1 00  B...B...D...D...
00007d60: 44 02 e1 00 42 01 e1 00 42 04 e1 00 40 01 e1 00  D...B...B...@...
00007d70: 3e 02 e1 00 3e 01 e1 00 3c 04 e1 00 3e 01 e1 00  >...>...<...>...
00007d80: 3e 03 e1 00 40 04 e1 00 40 01 e1 00 42 02 e1 00  >...@...@...B...
00007d90: 42 05 e1 00 44 01 e1 00 44 02 e1 00 44 01 e1 00  B...D...D...D...
00007da0: 42 05 e1 00 42 02 e1 00 40 05 e1 00 40 08 81 4c  B...B...@...@..L
00007db0: 00 10 91 4c 7f 30 81 4c 00 04 91 4a 7f 2c 81 4a  ...L.0.L...J.,.J
00007dc0: 00 04 91 47 7f 28 e1 00 40 00 81 47 00 04 e1 00  ...G.(..@..G....
00007dd0: 42 00 91 45 7f 01 e1 00 42 02 e1 00 44 01 e1 00  B..E....B...D...
00007de0: 46 04 e1 00 46 01 e1 00 48 02 e1 00 48 01 e1 00  F...F...H...H...
00007df0: 4a 04 e1 00 4a 00 81 45 00 01 e1 00 48 02 e1 00  J...J..E....H...
00007e00: 46 01 e1 00 44 00 91 47 7f 04 e1 00 40 03 e1 00  F...D..G....@...
00007e10: 40 00 e1 00 40 15 91 45 7f 00 81 47 00 30 81 45  @...@..E...G.0.E
00007e20: 00 03 91 43 7f 2d 81 43 00 01 e1 00 40 02 e1 00  ...C.-.C....@...
00007e30: 42 00 91 40 7f 01 e1 00 42 04 e1 00 44 01 e1 00  B..@....B...D...
00007e40: 44 02 e1 00 46 01 e1 00 46 04 e1 00 46 01 e1 00  D...F...F...F...
00007e50: 44 02 e1 00 42 01 e1 00 42 04 e1 00 40 01 e1 00  D...B...B...@...
00007e60: 40 02 e1 00 3e 01 e1 00 3c 04 e1 00 3e 01 e1 00  @...>...<...>...
00007e70: 3e 02 e1 00 40 01 e1 00 40 04 e1 00 42 01 e1 00  >...@...@...B...
00007e80: 42 02 e1 00 44 01 e1 00 44 04 e1 00 44 01 e1 00  B...D...D...D...
00007e90: 42 02 e1 00 42 01 e1 00 40 04 e1 00 40 01 e1 00  B...B...@...@...
00007ea0: 3e 02 e1 00 3e 01 e1 00 3c 04 e1 00 3e 01 e1 00  >...>...<...>...
00007eb0: 40 02 e1 00 40 01 e1 00 42 04 e1 00 42 01 e1 00  @...@...B...B...
00007ec0: 44 02 e1 00 46 01 e1 00 46 04 e1 00 46 01 e1 00  D...F...F...F...
00007ed0: 44 02 e1 00 42 01 e1 00 42 04 e1 00 40 01 e1 00  D...B...B...@...
00007ee0: 40 02 e1 00 3e 01 e1 00 3c 04 e1 00 3e 01 e1 00  @...>...<...>...
00007ef0: 40 02 e1 00 40 01 e1 00 42 04 e1 00 42 01 e1 00  @...@...B...B...
00007f00: 44 02 e1 00 46 01 e1 00 46 04 e1 00 46 01 e1 00  D...F...F...F...
00007f10: 44 02 e1 00 42 01 e1 00 40 04 e1 00 40 01 e1 00  D...B...@...@...
00007f20: 3e 02 e1 00 3c 01 e1 00 3a 04 e1 00 3c 01 e1 00  >...<...:...<...
00007f30: 3e 02 e1 00 40 01 e1 00 40 04 e1 00 42 01 e1 00  >...@...@...B...
00007f40: 44 02 e1 00 46 01 e1 00 46 04 e1 00 44 01 e1 00  D...F...F...D...
00007f50: 42 02 e1 00 40 00 81 40 00 05 e1 00 40 48 91 40  B...@..@....@H.@
00007f60: 7f 30 81 40 00 0c e1 00 42 04 e1 00 44 00 91 45  .0.@....B...D..E
00007f70: 7f 01 e1 00 46 02 e1 00 48 01 e1 00 4a 04 e1 00  ....F...H...J...
00007f80: 4a 00 81 45 00 01 e1 00 40 02 91 47 7f 01 e1 00  J..E....@..G....
00007f90: 40 00 e1 00 40 30 e1 00 40 04 e1 00 42 00 91 4a  @...@0..@...B..J
00007fa0: 7f 01 e1 00 42 02 e1 00 44 01 e1 00 44 04 e1 00  ....B...D...D...
00007fb0: 44 01 e1 00 42 02 e1 00 40 01 e1 00 40 04 e1 00  D...B...@...@...
00007fc0: 3e 01 e1 00 3e 02 e1 00 3c 01 e1 00 3a 04 e1 00  >...>...<...:...
00007fd0: 3c 01 e1 00 3e 02 e1 00 3e 01 e1 00 40 04 e1 00  <...>...>...@...
00007fe0: 40 01 e1 00 42 02 e1 00 44 01 e1 00 44 04 e1 00  @...B...D...D...
00007ff0: 44 01 e1 00 42 02 e1 00 42 01 e1 00 40 04 e1 00  D...B...B...@...
00008000: 3e 01 e1 00 3e 02 e1 00 3c 01 e1 00 3e 04 e1 00  >...>...<...>...
00008010: 40 01 e1 00 40 02 e1 00 42 01 e1 00 44 04 e1 00  @...@...B...D...
00008020: 44 01 e1 00 44 02 e1 00 42 01 e1 00 40 04 e1 00  D...D...B...@...
00008030: 40 01 e1 00 3e 02 e1 00 3c 01 e1 00 3e 04 e1 00  @...>...<...>...
00008040: 3e 01 e1 00 40 02 e1 00 42 01 e1 00 42 04 e1 00  >...@...B...B...
00008050: 44 01 e1 00 44 02 e1 00 44 01 e1 00 42 04 e1 00  D...D...D...B...
00008060: 42 01 e1 00 40 02 e1 00 3e 01 e1 00 3e 04 e1 00  B...@...>...>...
00008070: 3c 01 e1 00 3e 02 e1 00 40 01 e1 00 40 04 81 4a  <...>...@...@..J
00008080: 00 00 81 47 00 01 e1 00 40 02 e1 00 40 0d e1 00  ...G....@...@...
00008090: 42 00 91 45 7f 01 e1 00 44 02 e1 00 46 01 e1 00  B..E....D...F...
000080a0: 48 04 e1 00 4a 00 91 47 7f 00 81 45 00 01 e1 00  H...J..G...E....
000080b0: 40 03 e1 00 40 00 e1 00 40 34 e1 00 40 00 91 4a  @...@...@4..@..J
000080c0: 7f 01 e1 00 42 02 e1 00 42 01 e1 00 44 04 e1 00  ....B...B...D...
000080d0: 44 01 e1 00 46 02 e1 00 46 01 e1 00 42 04 e1 00  D...F...F...B...
000080e0: 3a 01 e1 00 3c 02 e1 00 3e 01 e1 00 40 04 e1 00  :...<...>...@...
000080f0: 40 01 e1 00 42 02 e1 00 44 01 e1 00 46 04 e1 00  @...B...D...F...
00008100: 46 01 e1 00 42 02 e1 00 3a 01 e1 00 3c 04 e1 00  F...B...:...<...
00008110: 3e 01 e1 00 40 02 e1 00 42 01 e1 00 42 04 e1 00  >...@...B...B...
00008120: 40 00 81 4a 00 09 e1 00 40 02 e1 00 42 01 e1 00  @..J....@...B...
00008130: 42 04 e1 00 44 00 91 4a 7f 01 e1 00 44 02 e1 00  B...D..J....D...
00008140: 46 01 e1 00 46 04 e1 00 44 01 e1 00 40 02 e1 00  F...F...D...@...
00008150: 3a 01 e1 00 3c 04 e1 00 3e 01 e1 00 40 02 e1 00  :...<...>...@...
00008160: 40 01 e1 00 42 04 e1 00 44 01 e1 00 44 02 e1 00  @...B...D...D...
00008170: 44 01 e1 00 42 04 e1 00 40 01 e1 00 3e 02 e1 00  D...B...@...>...
00008180: 3c 01 e1 00 3e 04 e1 00 3e 01 e1 00 40 02 e1 00  <...>...>...@...
00008190: 40 05 e1 00 40 00 81 4a 00 0c e1 00 42 04 e1 00  @...@..J....B...
000081a0: 44 00 91 45 7f 00 81 47 00 01 e1 00 46 02 e1 00  D..E...G....F...
000081b0: 48 01 e1 00 4a 04 e1 00 4a 00 81 45 00 01 e1 00  H...J...J..E....
000081c0: 40 00 91 47 7f 03 e1 00 40 00 e1 00 40 05 81 47  @..G....@...@..G
000081d0: 00 02 91 45 7f 1d 81 45 00 10 91 43 7f 30 81 43  ...E...E...C.0.C
000081e0: 00 10 91 40 7f 10 81 40 00 10 91 3e 7f 10 81 3e  ...@...@...>...>
000081f0: 00 10 91 3e 7f 50 81 3e 00 0c e1 00 40 04 91 56  ...>.P.>....@..V
00008200: 7f 01 e1 00 42 03 e1 00 42 05 e1 00 44 03 e1 00  ....B...B...D...
00008210: 44 05 e1 00 46 03 e1 00 46 05 e1 00 48 03 e1 00  D...F...F...H...
00008220: 48 05 e1 00 4a 03 e1 00 4a 04 e1 00 48 00 81 56  H...J...J...H..V
00008230: 00 01 e1 00 46 02 e1 00 44 01 e1 00 42 04 e1 00  ....F...D...B...
00008240: 40 00 91 58 7f 03 e1 00 40 00 e1 00 40 28 81 58  @..X....@...@(.X
00008250: 00 01 e1 00 42 04 e1 00 44 00 91 51 7f 01 e1 00  ....B...D..Q....
00008260: 46 02 e1 00 48 01 e1 00 4a 04 e1 00 4a 00 81 51  F...H...J...J..Q
00008270: 00 01 e1 00 48 02 e1 00 44 00 91 53 7f 01 e1 00  ....H...D..S....
00008280: 40 05 e1 00 40 00 e1 00 40 1f 81 53 00 10 91 51  @...@...@..S...Q
00008290: 7f 10 81 51 00 10 91 4f 7f 5c e1 00 40 04 e1 00  ...Q...O.\..@...
000082a0: 42 00 81 4f 00 01 e1 00 44 02 e1 00 44 00 91 56  B..O....D...D..V
000082b0: 7f 01 e1 00 46 04 e1 00 48 01 e1 00 48 02 e1 00  ....F...H...H...
000082c0: 4a 01 e1 00 4c 04 e1 00 4c 01 e1 00 48 02 e1 00  J...L...L...H...
000082d0: 40 00 81 56 00 05 e1 00 40 00 e1 00 40 00 91 58  @..V....@...@..X
000082e0: 7f 40 81 58 00 04 e1 00 40 04 e1 00 42 00 91 51  .@.X....@...B..Q
000082f0: 7f 01 e1 00 42 02 e1 00 44 01 e1 00 46 04 e1 00  ....B...D...F...
00008300: 46 01 e1 00 48 02 e1 00 48 01 e1 00 4a 04 e1 00  F...H...H...J...
00008310: 4a 00 81 51 00 01 e1 00 48 02 e1 00 44 00 91 53  J..Q....H...D..S
00008320: 7f 01 e1 00 40 05 e1 00 40 00 e1 00 40 37 81 53  ....@...@...@7.S
00008330: 00 10 91 51 7f 50 81 51 00 10 91 4f 7f 10 81 4f  ...Q.P.Q...O...O
00008340: 00 10 91 4c 7f 30 81 4c 00 0b e1 00 40 05 e1 00  ...L.0.L....@...
00008350: 42 00 91 4c 7f 03 e1 00 42 05 e1 00 44 03 e1 00  B..L....B...D...
00008360: 44 01 e1 00 44 04 e1 00 42 01 e1 00 42 02 e1 00  D...D...B...B...
00008370: 40 05 e1 00 40 01 e1 00 3e 02 e1 00 3e 01 e1 00  @...@...>...>...
00008380: 3c 04 e1 00 3e 01 e1 00 3e 02 e1 00 40 01 e1 00  <...>...>...@...
00008390: 40 04 e1 00 42 01 e1 00 42 02 e1 00 44 01 e1 00  @...B...B...D...
000083a0: 44 04 e1 00 44 01 e1 00 42 02 e1 00 42 01 e1 00  D...D...B...B...
000083b0: 40 05 e1 00 40 02 e1 00 3e 01 e1 00 3e 04 e1 00  @...@...>...>...
000083c0: 3c 01 e1 00 3e 02 e1 00 3e 01 e1 00 40 04 e1 00  <...>...>...@...
000083d0: 40 03 e1 00 42 01 e1 00 42 04 e1 00 44 01 e1 00  @...B...B...D...
000083e0: 44 02 e1 00 44 01 e1 00 42 04 e1 00 40 01 e1 00  D...D...B...@...
000083f0: 40 02 e1 00 3e 01 e1 00 3e 04 e1 00 3c 01 e1 00  @...>...>...<...
00008400: 3a 02 e1 00 3c 01 e1 00 3e 04 e1 00 40 01 e1 00  :...<...>...@...
00008410: 40 02 e1 00 42 01 e1 00 44 04 e1 00 46 01 e1 00  @...B...D...F...
00008420: 46 02 e1 00 46 01 e1 00 44 04 e1 00 42 01 e1 00  F...F...D...B...
00008430: 40 02 e1 00 40 01 e1 00 3e 04 e1 00 3c 01 e1 00  @...@...>...<...
00008440: 3c 02 e1 00 3e 01 e1 00 40 04 e1 00 42 01 e1 00  <...>...@...B...
00008450: 44 02 e1 00 44 01 e1 00 44 04 e1 00 42 01 e1 00  D...D...D...B...
00008460: 42 02 e1 00 40 01 e1 00 40 04 e1 00 3e 03 e1 00  B...@...@...>...
00008470: 40 05 e1 00 40 00 81 4c 00 04 e1 00 40 0c 91 45  @...@..L....@..E
00008480: 7f 08 81 45 00 08 91 45 7f 08 81 45 00 01 91 46  ...E...E...E...F
00008490: 7f 0a 81 46 00 06 91 47 7f 27 91 4a 7f 30 81 4a  ...F...G.'.J.0.J
000084a0: 00 10 91 4a 7f 30 81 4a 00 10 91 4a 7f 30 81 4a  ...J.0.J...J.0.J
000084b0: 00 10 91 4a 7f 30 81 4a 00 10 91 4a 7f 30 81 4a  ...J.0.J...J.0.J
000084c0: 00 09 81 47 00 08 91 47 7f 07 81 47 00 03 91 46  ...G...G...G...F
000084d0: 7f 09 81 46 00 05 91 45 7f 22 81 45 00 05 91 43  ...F...E.".E...C
000084e0: 7f 30 81 43 00 10 91 40 7f 30 81 40 00 0c e1 00  .0.C...@.0.@....
000084f0: 40 04 e1 00 42 00 91 43 7f 01 e1 00 44 02 e1 00  @...B..C....D...
00008500: 44 01 e1 00 46 04 e1 00 46 00 81 43 00 01 e1 00  D...F...F..C....
00008510: 46 02 e1 00 44 00 91 44 7f 01 e1 00 44 04 e1 00  F...D..D....D...
00008520: 42 01 e1 00 40 02 e1 00 40 00 81 44 00 01 e1 00  B...@...@..D....
00008530: 3e 04 e1 00 3e 00 91 43 7f 01 e1 00 3c 02 e1 00  >...>..C....<...
00008540: 3e 01 e1 00 40 04 e1 00 40 01 e1 00 42 02 e1 00  >...@...@...B...
00008550: 44 01 e1 00 44 04 e1 00 44 01 e1 00 42 02 e1 00  D...D...D...B...
00008560: 42 01 e1 00 40 04 e1 00 3e 01 e1 00 3e 02 e1 00  B...@...>...>...
00008570: 3c 01 e1 00 3e 04 e1 00 40 01 e1 00 42 02 e1 00  <...>...@...B...
00008580: 44 01 e1 00 46 04 e1 00 46 01 e1 00 46 02 e1 00  D...F...F...F...
00008590: 44 01 e1 00 42 04 e1 00 40 01 e1 00 40 02 e1 00  D...B...@...@...
000085a0: 3e 01 e1 00 3c 04 e1 00 3e 01 e1 00 40 02 e1 00  >...<...>...@...
000085b0: 42 01 e1 00 44 04 e1 00 44 01 e1 00 44 03 e1 00  B...D...D...D...
000085c0: 42 04 e1 00 42 03 e1 00 40 05 e1 00 40 08 81 43  B...B...@...@..C
000085d0: 00 10 91 4c 7f 30 81 4c 00 10 91 39 7f 30 81 39  ...L.0.L...9.0.9
000085e0: 00 10 91 3a 7f 30 81 3a 00 10 91 3b 7f 30 81 3b  ...:.0.:...;.0.;
000085f0: 00 10 91 3b 7f 70 81 3b 00 10 91 3f 7f 00 91 4e  ...;.p.;...?...N
00008600: 7f 00 91 47 7f 00 91 45 7f 70 81 45 00 00 81 3f  ...G...E.p.E...?
00008610: 00 00 81 4e 00 00 81 47 00 10 91 3f 7f 00 91 45  ...N...G...?...E
00008620: 7f 00 91 47 7f 70 81 47 00 00 81 45 00 00 81 3f  ...G.p.G...E...?
00008630: 00 10 91 3b 7f 00 91 34 7f 70 81 34 00 00 81 3b  ...;...4.p.4...;
00008640: 00 10 91 34 7f 00 91 3b 7f 30 81 3b 00 00 81 34  ...4...;.0.;...4
00008650: 00 10 91 34 7f 00 91 3d 7f 68 81 3d 00 00 81 34  ...4...=.h.=...4
00008660: 00 08 91 34 7f 00 91 3d 7f 30 81 3d 00 00 81 34  ...4...=.0.=...4
00008670: 00 20 91 3e 7f 03 91 34 7f 6d 81 3e 00 03 81 34  . .>...4.m.>...4
00008680: 00 0d 91 34 7f 00 91 3e 7f 30 81 3e 00 00 81 34  ...4...>.0.>...4
00008690: 00 10 91 3d 7f 00 91 34 7f 70 81 34 00 00 81 3d  ...=...4.p.4...=
000086a0: 00 10 91 34 7f 00 91 3d 7f 30 81 3d 00 00 81 34  ...4...=.0.=...4
000086b0: 00 10 91 39 7f 00 91 40 7f 70 81 40 00 00 81 39  ...9...@.p.@...9
000086c0: 00 10 91 39 7f 00 91 40 7f 30 81 40 00 00 81 39  ...9...@.0.@...9
000086d0: 00 10 91 42 7f 00 91 39 7f 70 81 39 00 00 81 42  ...B...9.p.9...B
000086e0: 00 10 91 39 7f 00 91 42 7f 30 81 42 00 00 81 39  ...9...B.0.B...9
000086f0: 00 10 91 39 7f 00 91 43 7f 70 81 43 00 00 81 39  ...9...C.p.C...9
00008700: 00 10 91 39 7f 00 91 43 7f 30 81 43 00 00 81 39  ...9...C.0.C...9
00008710: 00 10 91 42 7f 00 91 39 7f 81 10 81 39 00 00 81  ...B...9....9...
00008720: 42 00 81 30 91 45 7f 10 81 45 00 03 91 46 7f 0d  B..0.E...E...F..
00008730: 81 46 00 01 91 47 7f 50 81 47 00 0f 91 4a 7f 70  .F...G.P.G...J.p
00008740: 81 4a 00 10 91 4a 7f 70 81 4a 00 10 91 4a 7f 14  .J...J.p.J...J..
00008750: 81 4a 00 04 91 49 7f 08 81 49 00 01 91 48 7f 08  .J...I...I...H..
00008760: 81 48 00 02 91 47 7f 09 81 47 00 05 91 46 7f 08  .H...G...G...F..
00008770: 81 46 00 02 91 45 7f 35 81 45 00 08 91 43 7f 30  .F...E.5.E...C.0
00008780: 81 43 00 10 91 40 7f 81 30 81 40 00 10 91 4c 7f  .C...@..0.@...L.
00008790: 70 81 4c 00 10 91 4b 7f 70 81 4b 00 10 91 4a 7f  p.L...K.p.K...J.
000087a0: 82 50 81 4a 00 30 91 39 7f 00 91 40 7f 70 81 40  .P.J.0.9...@.p.@
000087b0: 00 00 81 39 00 10 91 39 7f 30 81 39 00 10 91 39  ...9...9.0.9...9
000087c0: 7f 00 91 42 7f 70 81 42 00 00 81 39 00 10 91 39  ...B.p.B...9...9
000087d0: 7f 30 81 39 00 10 91 39 7f 00 91 43 7f 70 81 43  .0.9...9...C.p.C
000087e0: 00 00 81 39 00 10 91 39 7f 30 81 39 00 10 91 39  ...9...9.0.9...9
000087f0: 7f 00 91 42 7f 70 81 42 00 00 81 39 00 10 91 39  ...B.p.B...9...9
00008800: 7f 30 81 39 00 10 91 39 7f 00 91 40 7f 70 81 40  .0.9...9...@.p.@
00008810: 00 00 81 39 00 10 91 39 7f 30 81 39 00 10 91 39  ...9...9.0.9...9
00008820: 7f 00 91 42 7f 70 81 42 00 00 81 39 00 10 91 39  ...B.p.B...9...9
00008830: 7f 30 81 39 00 10 91 39 7f 00 91 43 7f 70 81 43  .0.9...9...C.p.C
00008840: 00 00 81 39 00 10 91 39 7f 30 81 39 00 10 91 42  ...9...9.0.9...B
00008850: 7f 00 91 39 7f 70 81 39 00 00 81 42 00 10 91 39  ...9.p.9...B...9
00008860: 7f 00 91 42 7f 30 81 42 00 00 81 39 00 50 91 45  ...B.0.B...9.P.E
00008870: 7f 04 81 45 00 04 91 46 7f 0b 81 46 00 05 91 47  ...E...F...F...G
00008880: 7f 20 81 47 00 08 91 4a 7f 30 81 4a 00 10 91 4a  . .G...J.0.J...J
00008890: 7f 31 81 4a 00 0f 91 4a 7f 30 81 4a 00 10 91 4a  .1.J...J.0.J...J
000088a0: 7f 30 81 4a 00 10 91 4a 7f 38 81 4a 00 10 91 4a  .0.J...J.8.J...J
000088b0: 7f 28 81 4a 00 10 91 4a 7f 30 81 4a 00 10 91 47  .(.J...J.0.J...G
000088c0: 7f 0b 81 47 00 01 91 46 7f 0c 81 46 00 01 91 45  ...G...F...F...E
000088d0: 7f 37 81 45 00 10 91 43 7f 10 81 43 00 10 91 40  .7.E...C...C...@
000088e0: 7f 30 81 40 00 0c e1 00 40 04 e1 00 42 00 91 43  .0.@....@...B..C
000088f0: 7f 01 e1 00 42 02 e1 00 44 01 e1 00 44 04 e1 00  ....B...D...D...
00008900: 44 01 e1 00 42 02 e1 00 40 00 81 43 00 01 e1 00  D...B...@..C....
00008910: 40 04 e1 00 3e 00 91 44 7f 01 e1 00 3e 02 e1 00  @...>..D....>...
00008920: 3c 05 e1 00 3e 01 e1 00 40 00 81 44 00 02 e1 00  <...>...@..D....
00008930: 42 01 e1 00 44 04 e1 00 46 00 91 43 7f 01 e1 00  B...D...F..C....
00008940: 46 02 e1 00 44 01 e1 00 42 04 e1 00 40 01 e1 00  F...D...B...@...
00008950: 3e 02 e1 00 3c 01 e1 00 3a 04 e1 00 3c 01 e1 00  >...<...:...<...
00008960: 3e 02 e1 00 40 01 e1 00 42 04 e1 00 44 01 e1 00  >...@...B...D...
00008970: 42 02 e1 00 40 01 e1 00 3e 04 e1 00 3a 01 e1 00  B...@...>...:...
00008980: 3c 02 e1 00 3e 01 e1 00 40 04 e1 00 42 01 e1 00  <...>...@...B...
00008990: 44 02 e1 00 44 01 e1 00 44 04 e1 00 42 01 e1 00  D...D...D...B...
000089a0: 40 02 e1 00 3e 01 e1 00 3c 04 e1 00 3a 01 e1 00  @...>...<...:...
000089b0: 3c 02 e1 00 3e 01 e1 00 40 04 e1 00 42 01 e1 00  <...>...@...B...
000089c0: 44 02 e1 00 44 01 e1 00 44 04 e1 00 42 03 e1 00  D...D...D...B...
000089d0: 42 01 e1 00 40 04 81 43 00 01 e1 00 40 0f 91 4c  B...@..C....@..L
000089e0: 7f 70 81 4c 00 10 91 4a 7f 30 81 4a 00 10 91 4c  .p.L...J.0.J...L
000089f0: 7f 30 81 4c 00 0c e1 00 40 04 e1 00 42 00 91 43  .0.L....@...B..C
00008a00: 7f 01 e1 00 42 03 e1 00 44 04 e1 00 44 01 e1 00  ....B...D...D...
00008a10: 44 02 e1 00 42 00 81 43 00 01 e1 00 42 04 e1 00  D...B..C....B...
00008a20: 40 00 91 44 7f 03 e1 00 40 01 e1 00 3e 04 e1 00  @..D....@...>...
00008a30: 3e 01 e1 00 3c 02 e1 00 3e 00 81 44 00 01 e1 00  >...<...>..D....
00008a40: 3e 04 91 43 7f 01 e1 00 40 02 e1 00 40 01 e1 00  >..C....@...@...
00008a50: 42 04 e1 00 42 03 e1 00 44 01 e1 00 44 04 e1 00  B...B...D...D...
00008a60: 44 01 e1 00 42 02 e1 00 42 01 e1 00 40 04 e1 00  D...B...B...@...
00008a70: 3e 01 e1 00 3e 02 e1 00 3c 01 e1 00 3e 04 e1 00  >...>...<...>...
00008a80: 3e 01 e1 00 40 02 e1 00 40 05 e1 00 42 01 e1 00  >...@...@...B...
00008a90: 42 02 e1 00 44 01 e1 00 44 04 e1 00 44 01 e1 00  B...D...D...D...
00008aa0: 42 02 e1 00 40 01 e1 00 40 04 e1 00 3e 01 e1 00  B...@...@...>...
00008ab0: 3c 02 e1 00 3e 05 e1 00 3e 01 e1 00 40 03 e1 00  <...>...>...@...
00008ac0: 40 05 e1 00 40 00 e1 00 40 07 81 43 00 10 91 4c  @...@...@..C...L
00008ad0: 7f 81 50 81 4c 00 30 91 3f 7f 70 81 3f 00 10 91  ..P.L.0.?.p.?...
00008ae0: 3b 7f 30 81 3b 00 10 91 3b 7f 30 81 3b 00 10 91  ;.0.;...;.0.;...
00008af0: 45 7f 00 91 3e 7f 00 91 47 7f 03 91 4a 7f 10 81  E...>...G...J...
00008b00: 4a 00 5d 81 45 00 00 81 3e 00 00 81 47 00 10 91  J.].E...>...G...
00008b10: 45 7f 00 91 47 7f 00 91 3e 7f 03 91 4a 7f 10 81  E...G...>...J...
00008b20: 4a 00 5d 81 45 00 00 81 47 00 00 81 3e 00 10 91  J.].E...G...>...
00008b30: 3e 7f 00 91 45 7f 00 91 47 7f 03 91 4a 7f 10 81  >...E...G...J...
00008b40: 4a 00 5d 81 3e 00 00 81 45 00 00 81 47 00 10 91  J.].>...E...G...
00008b50: 3e 7f 00 91 45 7f 00 91 47 7f 01 91 4a 7f 10 81  >...E...G...J...
00008b60: 4a 00 5f 81 3e 00 00 81 45 00 00 81 47 00 10 91  J._.>...E...G...
00008b70: 39 7f 81 10 81 39 00 30 91 3c 7f 30 81 3c 00 10  9....9.0.<.0.<..
00008b80: 91 3d 7f 30 81 3d 00 10 91 40 7f 30 81 40 00 10  .=.0.=...@.0.@..
00008b90: 91 43 7f 30 81 43 00 10 91 40 7f 30 81 40 00 10  .C.0.C...@.0.@..
00008ba0: 91 43 7f 30 81 43 00 10 91 43 7f 30 81 43 00 0c  .C.0.C...C.0.C..
00008bb0: e1 00 40 04 e1 00 42 00 91 37 7f 03 e1 00 42 05  ..@...B..7....B.
00008bc0: e1 00 44 03 e1 00 44 01 e1 00 44 04 e1 00 42 01  ..D...D...D...B.
00008bd0: e1 00 42 02 e1 00 40 01 e1 00 3e 04 e1 00 3e 01  ..B...@...>...>.
00008be0: e1 00 3c 02 e1 00 3e 01 e1 00 3e 04 e1 00 40 01  ..<...>...>...@.
00008bf0: e1 00 40 03 e1 00 42 04 e1 00 42 01 e1 00 44 02  ..@...B...B...D.
00008c00: e1 00 44 01 e1 00 42 04 e1 00 40 01 e1 00 3e 02  ..D...B...@...>.
00008c10: e1 00 3c 01 e1 00 3e 04 e1 00 3e 03 e1 00 40 01  ..<...>...>...@.
00008c20: e1 00 40 04 e1 00 42 01 e1 00 42 03 e1 00 44 04  ..@...B...B...D.
00008c30: e1 00 44 01 e1 00 44 02 e1 00 42 01 e1 00 40 04  ..D...D...B...@.
00008c40: e1 00 3e 01 e1 00 3c 02 e1 00 3e 01 e1 00 3e 04  ..>...<...>...>.
00008c50: e1 00 40 01 e1 00 42 02 e1 00 42 01 e1 00 44 04  ..@...B...B...D.
00008c60: e1 00 44 01 e1 00 44 03 e1 00 42 05 e1 00 42 03  ..D...D...B...B.
00008c70: e1 00 40 04 81 37 00 01 e1 00 40 0f 91 34 7f 00  ..@..7....@..4..
00008c80: 91 40 7f 10 81 40 00 81 00 81 34 00 30 91 45 7f  .@...@....4.0.E.
00008c90: 0b 81 45 00 05 91 47 7f 30 91 47 7f 00 91 4a 7f  ..E...G.0.G...J.
00008ca0: 00 81 47 00 70 81 4a 00 00 81 47 00 10 91 45 7f  ..G.p.J...G...E.
00008cb0: 09 81 45 00 02 91 47 7f 25 81 47 00 10 91 4a 7f  ..E...G.%.G...J.
00008cc0: 00 91 47 7f 70 81 47 00 00 81 4a 00 10 91 47 7f  ..G.p.G...J...G.
00008cd0: 0b 81 47 00 01 91 45 7f 24 81 45 00 10 91 43 7f  ..G...E.$.E...C.
00008ce0: 30 81 43 00 10 91 40 7f 30 81 40 00 10 91 43 7f  0.C...@.0.@...C.
00008cf0: 0b 81 43 00 05 91 44 7f 0b 81 44 00 05 91 43 7f  ..C...D...D...C.
00008d00: 50 81 43 00 10 91 4c 7f 70 81 4c 00 10 91 39 7f  P.C...L.p.L...9.
00008d10: 30 81 39 00 10 91 3a 7f 30 81 3a 00 10 91 3b 7f  0.9...:.0.:...;.
00008d20: 70 81 3b 00 10 91 47 7f 00 91 4e 7f 00 91 45 7f  p.;...G...N...E.
00008d30: 70 81 45 00 00 81 4e 00 00 81 47 00 10 91 47 7f  p.E...N...G...G.
00008d40: 00 91 45 7f 00 91 3f 7f 70 81 3f 00 00 81 45 00  ..E...?.p.?...E.
00008d50: 00 81 47 00 10 91 3b 7f 03 91 34 7f 6d 81 3b 00  ..G...;...4.m.;.
00008d60: 03 81 34 00 09 91 34 7f 30 81 34 00 10 91 3d 7f  ..4...4.0.4...=.
00008d70: 00 91 34 7f 70 81 34 00 00 81 3d 00 17 91 34 7f  ..4.p.4...=...4.
00008d80: 30 81 34 00 09 91 34 7f 04 91 3e 7f 6c 81 34 00  0.4...4...>.l.4.
00008d90: 04 81 3e 00 10 91 34 7f 30 81 34 00 10 91 34 7f  ..>...4.0.4...4.
00008da0: 01 91 3d 7f 6f 81 34 00 01 81 3d 00 0b 91 34 7f  ..=.o.4...=...4.
00008db0: 30 81 34 00 10 91 39 7f 07 91 40 7f 69 81 39 00  0.4...9...@.i.9.
00008dc0: 07 81 40 00 0d 91 39 7f 30 81 39 00 0c 91 42 7f  ..@...9.0.9...B.
00008dd0: 07 91 39 7f 69 81 42 00 07 81 39 00 10 91 39 7f  ..9.i.B...9...9.
00008de0: 30 81 39 00 09 91 39 7f 07 91 43 7f 69 81 39 00  0.9...9...C.i.9.
00008df0: 07 81 43 00 0e 91 39 7f 30 81 39 00 0b 91 42 7f  ..C...9.0.9...B.
00008e00: 05 91 39 7f 81 0b 81 42 00 05 81 39 00 2f 91 3b  ..9....B...9./.;
00008e10: 7f 03 91 34 7f 6d 81 3b 00 03 81 34 00 09 91 34  ...4.m.;...4...4
00008e20: 7f 30 81 34 00 10 91 3d 7f 00 91 34 7f 70 81 34  .0.4...=...4.p.4
00008e30: 00 00 81 3d 00 17 91 34 7f 30 81 34 00 09 91 34  ...=...4.0.4...4
00008e40: 7f 04 91 3e 7f 6c 81 34 00 04 81 3e 00 10 91 34  ...>.l.4...>...4
00008e50: 7f 30 81 34 00 10 91 34 7f 01 91 3d 7f 6f 81 34  .0.4...4...=.o.4
00008e60: 00 01 81 3d 00 0b 91 34 7f 30 81 34 00 10 91 39  ...=...4.0.4...9
00008e70: 7f 07 91 40 7f 69 81 39 00 07 81 40 00 0d 91 39  ...@.i.9...@...9
00008e80: 7f 30 81 39 00 0c 91 42 7f 07 91 39 7f 69 81 42  .0.9...B...9.i.B
00008e90: 00 07 81 39 00 10 91 39 7f 30 81 39 00 09 91 39  ...9...9.0.9...9
00008ea0: 7f 07 91 43 7f 69 81 39 00 07 81 43 00 0e 91 39  ...C.i.9...C...9
00008eb0: 7f 30 81 39 00 0b 91 42 7f 05 91 39 7f 81 0b 81  .0.9...B...9....
00008ec0: 42 00 05 81 39 00 32 91 39 7f 00 91 40 7f 70 81  B...9.2.9...@.p.
00008ed0: 40 00 00 81 39 00 10 91 39 7f 30 81 39 00 0d 91  @...9...9.0.9...
00008ee0: 39 7f 01 91 42 7f 6f 81 39 00 01 81 42 00 12 91  9...B.o.9...B...
00008ef0: 39 7f 30 81 39 00 09 91 39 7f 05 91 43 7f 6b 81  9.0.9...9...C.k.
00008f00: 39 00 05 81 43 00 12 91 39 7f 30 81 39 00 0d 91  9...C...9.0.9...
00008f10: 42 7f 01 91 39 7f 6f 81 42 00 01 81 39 00 0b 91  B...9.o.B...9...
00008f20: 39 7f 30 81 39 00 14 91 39 7f 03 91 40 7f 6d 81  9.0.9...9...@.m.
00008f30: 39 00 03 81 40 00 0e 91 39 7f 30 81 39 00 0f 91  9...@...9.0.9...
00008f40: 42 7f 03 91 39 7f 6d 81 42 00 03 81 39 00 09 91  B...9.m.B...9...
00008f50: 42 7f 04 91 39 7f 2c 81 42 00 04 81 39 00 0c 91  B...9.,.B...9...
00008f60: 39 7f 00 91 43 7f 70 81 43 00 00 81 39 00 10 91  9...C.p.C...9...
00008f70: 43 7f 04 91 39 7f 2c 81 43 00 04 81 39 00 10 91  C...9.,.C...9...
00008f80: 39 7f 03 91 42 7f 6d 81 39 00 03 81 42 00 0d 91  9...B.m.9...B...
00008f90: 39 7f 00 91 42 7f 30 81 42 00 00 81 39 00 10 91  9...B.0.B...9...
00008fa0: 3b 7f 03 91 34 7f 6d 81 3b 00 03 81 34 00 09 91  ;...4.m.;...4...
00008fb0: 34 7f 30 81 34 00 10 91 3d 7f 00 91 34 7f 70 81  4.0.4...=...4.p.
00008fc0: 34 00 00 81 3d 00 17 91 34 7f 30 81 34 00 09 91  4...=...4.0.4...
00008fd0: 34 7f 04 91 3e 7f 6c 81 34 00 04 81 3e 00 10 91  4...>.l.4...>...
00008fe0: 34 7f 30 81 34 00 10 91 34 7f 01 91 3d 7f 6f 81  4.0.4...4...=.o.
00008ff0: 34 00 01 81 3d 00 0b 91 34 7f 30 81 34 00 10 91  4...=...4.0.4...
00009000: 39 7f 07 91 40 7f 69 81 39 00 07 81 40 00 0d 91  9...@.i.9...@...
00009010: 39 7f 30 81 39 00 0c 91 42 7f 07 91 39 7f 69 81  9.0.9...B...9.i.
00009020: 42 00 07 81 39 00 10 91 39 7f 30 81 39 00 09 91  B...9...9.0.9...
00009030: 39 7f 07 91 43 7f 69 81 39 00 07 81 43 00 0e 91  9...C.i.9...C...
00009040: 39 7f 30 81 39 00 0b 91 42 7f 05 91 39 7f 81 0b  9.0.9...B...9...
00009050: 81 42 00 05 81 39 00 2f 91 3b 7f 03 91 34 7f 6d  .B...9./.;...4.m
00009060: 81 3b 00 03 81 34 00 09 91 34 7f 30 81 34 00 10  .;...4...4.0.4..
00009070: 91 3d 7f 00 91 34 7f 70 81 34 00 00 81 3d 00 17  .=...4.p.4...=..
00009080: 91 34 7f 30 81 34 00 09 91 34 7f 04 91 3e 7f 6c  .4.0.4...4...>.l
00009090: 81 34 00 04 81 3e 00 10 91 34 7f 30 81 34 00 10  .4...>...4.0.4..
000090a0: 91 34 7f 01 91 3d 7f 6f 81 34 00 01 81 3d 00 0b  .4...=.o.4...=..
000090b0: 91 34 7f 30 81 34 00 10 91 39 7f 07 91 40 7f 69  .4.0.4...9...@.i
000090c0: 81 39 00 07 81 40 00 0d 91 39 7f 30 81 39 00 0c  .9...@...9.0.9..
000090d0: 91 42 7f 07 91 39 7f 69 81 42 00 07 81 39 00 10  .B...9.i.B...9..
000090e0: 91 39 7f 30 81 39 00 09 91 39 7f 07 91 43 7f 69  .9.0.9...9...C.i
000090f0: 81 39 00 07 81 43 00 0e 91 39 7f 30 81 39 00 0b  .9...C...9.0.9..
00009100: 91 42 7f 05 91 39 7f 81 0b 81 42 00 05 81 39 00  .B...9....B...9.
00009110: 81 2f 91 48 7f 00 91 45 7f 10 81 45 00 00 81 48  ./.H...E...E...H
00009120: 00 04 91 47 7f 04 91 4a 7f 81 48 81 4a 00 00 81  ...G...J..H.J...
00009130: 47 00 20 91 46 7f 70 81 46 00 10 91 46 7f 00 91  G. .F.p.F...F...
00009140: 49 7f 30 81 49 00 00 81 46 00 10 91 48 7f 00 91  I.0.I...F...H...
00009150: 45 7f 70 81 45 00 00 81 48 00 10 91 45 7f 00 91  E.p.E...H...E...
00009160: 48 7f 30 81 48 00 00 81 45 00 10 91 43 7f 00 91  H.0.H...E...C...
00009170: 47 7f 10 91 44 7f 00 81 43 00 5b 81 47 00 05 81  G...D...C.[.G...
00009180: 44 00 10 91 3b 7f 30 81 3b 00 81 10 91 4a 7f 00  D...;.0.;....J..
00009190: 91 53 7f 00 91 4e 7f 00 91 40 7f 00 91 44 7f 81  .S...N...@...D..
000091a0: 30 81 44 00 00 81 4e 00 00 81 4a 00 00 81 53 00  0.D...N...J...S.
000091b0: 00 81 40 00 0b 91 40 7f 01 91 44 7f 04 91 4a 7f  ..@...@...D...J.
000091c0: 01 91 53 7f 00 91 4e 7f 02 81 40 00 01 81 44 00  ..S...N...@...D.
000091d0: 04 81 4a 00 01 81 53 00 00 81 4e 00 0b 91 40 7f  ..J...S...N...@.
000091e0: 00 91 44 7f 04 91 53 7f 00 91 4a 7f 00 91 4e 7f  ..D...S...J...N.
000091f0: 04 81 44 00 00 81 40 00 04 81 4a 00 00 81 53 00  ..D...@...J...S.
00009200: 00 81 4e 00 08 91 44 7f 01 91 4a 7f 02 91 4e 7f  ..N...D...J...N.
00009210: 01 91 40 7f 00 91 53 7f 04 81 44 00 01 81 4a 00  ..@...S...D...J.
00009220: 02 81 4e 00 01 81 40 00 00 81 53 00 0c 91 55 7f  ..N...@...S...U.
00009230: 08 81 55 00 08 91 55 7f 08 81 55 00 08 91 55 7f  ..U...U...U...U.
00009240: 08 81 55 00 08 91 55 7f 08 81 55 00 08 91 55 7f  ..U...U...U...U.
00009250: 08 81 55 00 08 91 55 7f 08 81 55 00 08 91 4e 7f  ..U...U...U...N.
00009260: 00 91 44 7f 00 91 4a 7f 10 81 4a 00 00 81 44 00  ..D...J...J...D.
00009270: 00 81 4e 00 10 91 4e 7f 00 91 53 7f 00 91 4a 7f  ..N...N...S...J.
00009280: 01 91 44 7f 2f 81 44 00 00 81 4e 00 00 81 53 00  ..D./.D...N...S.
00009290: 00 81 4a 00 10 91 4e 7f 00 91 53 7f 00 91 4a 7f  ..J...N...S...J.
000092a0: 00 91 40 7f 00 91 44 7f 82 61 81 40 00 08 81 44  ..@...D..a.@...D
000092b0: 00 02 81 4a 00 05 81 53 00 00 81 4e 00 00 ff 7f  ...J...S...N....
000092c0: 1c 24 24 00 08 00 00 00 00 00 00 14 ff 00 00 00  .$$.............
000092d0: 00 00 00 21 00 00 01 39 70 00 00 0c 00 00 ff 7f  ...!...9p.......
000092e0: 05 24 24 00 01 00 00 ff 7f 06 24 24 00 06 04 04  .$$.......$$....
000092f0: 00 ff 7f 05 24 24 00 02 01 01 ff 2f 00 4d 54 72  ....$$...../.MTr
00009300: 6b 00 00 09 9c 00 ff 00 02 00 04 00 ff 03 05 56  k..............V
00009310: 6f 63 61 6c 97 40 92 47 7f 30 82 47 00 10 92 4e  ocal.@.G.0.G...N
00009320: 7f 08 92 4f 7f 00 82 4e 00 40 92 4f 7f 00 82 4f  ...O...N.@.O...O
00009330: 00 30 92 4f 7f 00 82 4f 00 40 82 4f 00 08 92 4f  .0.O...O.@.O...O
00009340: 7f 70 82 4f 00 10 92 4e 7f 30 82 4e 00 10 92 4c  .p.O...N.0.N...L
00009350: 7f 81 38 82 4c 00 83 08 92 47 7f 08 92 49 7f 00  ..8.L....G...I..
00009360: 82 47 00 68 82 49 00 10 92 4c 7f 30 82 4c 00 10  .G.h.I...L.0.L..
00009370: 92 4e 7f 6b 82 4e 00 15 92 4c 7f 30 82 4c 00 10  .N.k.N...L.0.L..
00009380: 92 4a 7f 08 92 4c 7f 00 82 4a 00 81 08 82 4c 00  .J...L...J....L.
00009390: 30 92 49 7f 18 82 49 00 08 92 47 7f 81 00 82 47  0.I...I...G....G
000093a0: 00 8a 20 92 47 7f 30 82 47 00 10 92 4e 7f 10 82  .. .G.0.G...N...
000093b0: 4e 00 03 92 4f 7f 35 92 4f 7f 0b 82 4f 00 25 92  N...O.5.O...O.%.
000093c0: 4f 7f 00 82 4f 00 40 82 4f 00 08 92 4f 7f 70 82  O...O.@.O...O.p.
000093d0: 4f 00 10 92 4e 7f 30 82 4e 00 10 92 4c 7f 81 38  O...N.0.N...L..8
000093e0: 82 4c 00 83 08 92 47 7f 10 82 47 00 03 92 49 7f  .L....G...G...I.
000093f0: 5d 82 49 00 10 92 4c 7f 30 82 4c 00 11 92 4c 7f  ].I...L.0.L...L.
00009400: 0a 82 4c 00 05 92 4e 7f 28 82 4e 00 08 92 4c 7f  ..L...N.(.N...L.
00009410: 30 82 4c 00 10 92 47 7f 2c 82 47 00 14 92 4a 7f  0.L...G.,.G...J.
00009420: 08 92 4c 7f 00 82 4a 00 81 08 82 4c 00 30 92 49  ..L...J....L.0.I
00009430: 7f 18 82 49 00 08 92 47 7f 81 00 82 47 00 88 60  ...I...G....G..`
00009440: 92 4e 7f 10 82 4e 00 03 92 4f 7f 20 82 4f 00 0d  .N...N...O. .O..
00009450: 92 4e 7f 38 82 4e 00 08 92 4f 7f 30 82 4f 00 10  .N.8.N...O.0.O..
00009460: 92 4f 7f 30 82 4f 00 10 92 4e 7f 30 82 4e 00 10  .O.0.O...N.0.N..
00009470: 92 4e 7f 30 82 4e 00 10 92 4e 7f 30 82 4e 00 10  .N.0.N...N.0.N..
00009480: 92 4e 7f 10 82 4e 00 10 92 4e 7f 1b 82 4e 00 0d  .N...N...N...N..
00009490: 92 4e 7f 10 82 4e 00 08 92 4e 7f 10 82 4e 00 10  .N...N...N...N..
000094a0: 92 4e 7f 30 82 4e 00 10 92 4e 7f 10 82 4e 00 08  .N.0.N...N...N..
000094b0: 92 50 7f 58 82 50 00 10 92 4c 7f 7b 82 4c 00 82  .P.X.P...L.{.L..
000094c0: 05 92 49 7f 30 82 49 00 10 92 4c 7f 30 82 4c 00  ..I.0.I...L.0.L.
000094d0: 10 92 4e 7f 30 82 4e 00 10 92 4f 7f 30 82 4f 00  ..N.0.N...O.0.O.
000094e0: 10 92 49 7f 30 82 49 00 10 92 49 7f 70 82 49 00  ..I.0.I...I.p.I.
000094f0: 10 92 4c 7f 30 82 4c 00 10 92 4c 7f 30 82 4c 00  ..L.0.L...L.0.L.
00009500: 10 92 4c 7f 82 00 82 4c 00 8a 00 92 47 7f 30 82  ..L....L....G.0.
00009510: 47 00 10 92 4e 7f 10 82 4e 00 08 92 4f 7f 81 18  G...N...N...O...
00009520: 82 4f 00 10 92 4f 7f 70 82 4f 00 10 92 4e 7f 30  .O...O.p.O...N.0
00009530: 82 4e 00 10 92 4c 7f 70 82 4c 00 10 92 4c 7f 40  .N...L.p.L...L.@
00009540: 82 4c 00 82 40 92 49 7f 30 82 49 00 10 92 49 7f  .L..@.I.0.I...I.
00009550: 30 82 49 00 10 92 4c 7f 30 82 4c 00 10 92 4c 7f  0.I...L.0.L...L.
00009560: 30 82 4c 00 10 92 4c 7f 40 92 4e 7f 00 82 4c 00  0.L...L.@.N...L.
00009570: 70 82 4e 00 10 92 4c 7f 81 10 82 4c 00 30 92 4c  p.N...L....L.0.L
00009580: 7f 38 82 4c 00 08 92 4a 7f 81 60 82 4a 00 89 20  .8.L...J..`.J.. 
00009590: 92 47 7f 30 82 47 00 10 92 4e 7f 10 82 4e 00 01  .G.0.G...N...N..
000095a0: 92 4f 7f 7f 82 4f 00 30 92 4f 7f 6b 82 4f 00 05  .O...O.0.O.k.O..
000095b0: 92 4e 7f 40 82 4e 00 10 92 4c 7f 70 82 4c 00 10  .N.@.N...L.p.L..
000095c0: 92 4c 7f 40 82 4c 00 82 40 92 47 7f 30 82 47 00  .L.@.L..@.G.0.G.
000095d0: 10 92 49 7f 30 82 49 00 10 92 4c 7f 30 82 4c 00  ..I.0.I...L.0.L.
000095e0: 10 92 4c 7f 30 82 4c 00 10 92 4c 7f 40 92 4e 7f  ..L.0.L...L.@.N.
000095f0: 00 82 4c 00 70 82 4e 00 10 92 4a 7f 10 92 4c 7f  ..L.p.N...J...L.
00009600: 00 82 4a 00 81 00 82 4c 00 30 92 4c 7f 40 92 4a  ..J....L.0.L.@.J
00009610: 7f 00 82 4c 00 81 60 82 4a 00 89 20 92 47 7f 30  ...L..`.J.. .G.0
00009620: 82 47 00 10 92 4e 7f 70 82 4e 00 10 92 4e 7f 30  .G...N.p.N...N.0
00009630: 82 4e 00 10 92 4e 7f 81 10 82 4e 00 30 92 4e 7f  .N...N....N.0.N.
00009640: 40 92 50 7f 00 82 4e 00 70 82 50 00 81 10 92 47  @.P...N.p.P....G
00009650: 7f 30 82 47 00 10 92 4a 7f 10 92 4c 7f 00 82 4a  .0.G...J...L...J
00009660: 00 81 00 82 4c 00 30 92 4c 7f 81 10 82 4c 00 30  ....L.0.L....L.0
00009670: 92 4c 7f 10 92 4e 7f 00 82 4c 00 70 92 49 7f 00  .L...N...L.p.I..
00009680: 82 4e 00 30 82 49 00 10 92 4c 7f 70 82 4c 00 10  .N.0.I...L.p.L..
00009690: 92 4c 7f 81 30 82 4c 00 8a 50 92 47 7f 30 82 47  .L..0.L..P.G.0.G
000096a0: 00 10 92 4e 7f 08 82 4e 00 03 92 4f 7f 4e 82 4f  ...N...N...O.N.O
000096b0: 00 07 92 4f 7f 20 92 51 7f 00 82 4f 00 30 82 51  ...O. .Q...O.0.Q
000096c0: 00 10 92 4f 7f 70 82 4f 00 10 92 4e 7f 30 82 4e  ...O.p.O...N.0.N
000096d0: 00 10 92 4c 7f 81 10 82 4c 00 83 30 92 47 7f 0b  ...L....L..0.G..
000096e0: 82 47 00 05 92 49 7f 60 82 49 00 10 92 4c 7f 30  .G...I.`.I...L.0
000096f0: 82 4c 00 10 92 4c 7f 0b 82 4c 00 05 92 4e 7f 20  .L...L...L...N. 
00009700: 82 4e 00 10 92 4c 7f 30 82 4c 00 10 92 49 7f 30  .N...L.0.L...I.0
00009710: 82 49 00 10 92 49 7f 10 92 4c 7f 00 82 49 00 81  .I...I...L...I..
00009720: 00 82 4c 00 30 92 49 7f 20 92 47 7f 00 82 49 00  ..L.0.I. .G...I.
00009730: 81 10 82 47 00 8a 10 92 47 7f 30 82 47 00 10 92  ...G....G.0.G...
00009740: 4e 7f 0b 82 4e 00 05 92 4f 7f 4b 82 4f 00 05 92  N...N...O.K.O...
00009750: 4f 7f 20 92 50 7f 00 82 4f 00 30 82 50 00 10 92  O. .P...O.0.P...
00009760: 4f 7f 70 82 4f 00 10 92 4e 7f 30 82 4e 00 10 92  O.p.O...N.0.N...
00009770: 4c 7f 81 10 82 4c 00 83 30 92 47 7f 09 82 47 00  L....L..0.G...G.
00009780: 03 92 49 7f 64 82 49 00 10 92 4c 7f 30 82 4c 00  ..I.d.I...L.0.L.
00009790: 10 92 4c 7f 09 82 4c 00 03 92 4e 7f 64 82 4e 00  ..L...L...N.d.N.
000097a0: 10 92 49 7f 30 82 49 00 10 92 4a 7f 10 82 4a 00  ..I.0.I...J...J.
000097b0: 04 92 4c 7f 7c 82 4c 00 30 92 49 7f 10 82 49 00  ..L.|.L.0.I...I.
000097c0: 04 92 47 7f 81 2c 82 47 00 88 40 92 4e 7f 0c 82  ..G..,.G..@.N...
000097d0: 4e 00 05 92 4f 7f 5f 82 4f 00 10 92 4f 7f 30 82  N...O._.O...O.0.
000097e0: 4f 00 10 92 4f 7f 30 82 4f 00 10 92 4e 7f 38 82  O...O.0.O...N.8.
000097f0: 4e 00 10 92 4e 7f 28 82 4e 00 10 92 4e 7f 30 82  N...N.(.N...N.0.
00009800: 4e 00 10 92 4e 7f 18 82 4e 00 08 92 4e 7f 18 82  N...N...N...N...
00009810: 4e 00 08 92 4e 7f 23 82 4e 00 08 92 4e 7f 16 82  N...N.#.N...N...
00009820: 4e 00 08 92 4e 7f 2b 82 4e 00 0c 92 4e 7f 18 82  N...N.+.N...N...
00009830: 4e 00 04 92 4f 7f 54 82 4f 00 10 92 4c 7f 30 82  N...O.T.O...L.0.
00009840: 4c 00 82 50 92 49 7f 30 82 49 00 10 92 4c 7f 30  L..P.I.0.I...L.0
00009850: 82 4c 00 10 92 4c 7f 30 82 4c 00 10 92 4c 7f 0b  .L...L.0.L...L..
00009860: 82 4c 00 05 92 4e 7f 20 82 4e 00 10 92 49 7f 30  .L...N. .N...I.0
00009870: 82 49 00 10 92 49 7f 70 82 49 00 10 92 4c 7f 30  .I...I.p.I...L.0
00009880: 82 4c 00 10 92 4c 7f 30 82 4c 00 10 92 4c 7f 40  .L...L.0.L...L.@
00009890: 92 4a 7f 00 82 4c 00 81 10 82 4a 00 d2 70 92 4e  .J...L....J..p.N
000098a0: 7f 08 92 4f 7f 00 82 4e 00 10 82 4f 00 08 92 4f  ...O...N...O...O
000098b0: 7f 81 00 82 4f 00 20 92 4f 7f 70 82 4f 00 10 92  ....O. .O.p.O...
000098c0: 4f 7f 60 82 4f 00 10 92 4f 7f 81 00 82 4f 00 10  O.`.O...O....O..
000098d0: 92 4c 7f 81 10 82 4c 00 81 30 92 47 7f 10 82 47  .L....L..0.G...G
000098e0: 00 03 92 49 7f 5d 82 49 00 10 92 4a 7f 10 82 4a  ...I.].I...J...J
000098f0: 00 03 92 4c 7f 5d 82 4c 00 10 92 4c 7f 10 82 4c  ...L.].L...L...L
00009900: 00 03 92 4f 7f 6d 82 4f 00 08 92 50 7f 28 82 50  ...O.m.O...P.(.P
00009910: 00 10 92 4a 7f 10 82 4a 00 03 92 4c 7f 5d 82 4c  ...J...J...L.].L
00009920: 00 10 92 4c 7f 51 82 4c 00 0f 92 4c 7f 04 82 4c  ...L.Q.L...L...L
00009930: 00 07 92 4a 7f 81 0e 82 4a 00 8a 07 92 4c 7f 08  ...J....J....L..
00009940: 82 4c 00 03 92 4f 7f 25 82 4f 00 10 92 4f 7f 70  .L...O.%.O...O.p
00009950: 82 4f 00 10 92 4f 7f 60 82 4f 00 1b 92 4f 7f 81  .O...O.`.O...O..
00009960: 00 82 4f 00 08 92 4c 7f 25 82 4c 00 18 92 51 7f  ..O...L.%.L...Q.
00009970: 81 00 82 51 00 83 00 92 49 7f 70 82 49 00 10 92  ...Q....I.p.I...
00009980: 4c 7f 70 82 4c 00 10 92 4c 7f 10 92 4f 7f 00 82  L.p.L...L...O...
00009990: 4c 00 60 82 4f 00 10 92 4c 7f 50 82 4c 00 10 92  L.`.O...L.P.L...
000099a0: 4c 7f 81 10 82 4c 00 10 92 4c 7f 04 82 4c 00 07  L....L...L...L..
000099b0: 92 4a 7f 65 82 4a 00 88 50 92 4c 7f 08 92 4f 7f  .J.e.J..P.L...O.
000099c0: 00 82 4c 00 28 82 4f 00 10 92 4f 7f 30 82 4f 00  ..L.(.O...O.0.O.
000099d0: 10 92 4f 7f 30 82 4f 00 10 92 4e 7f 81 30 82 4e  ..O.0.O...N..0.N
000099e0: 00 10 92 4e 7f 30 82 4e 00 10 92 4e 7f 30 82 4e  ...N.0.N...N.0.N
000099f0: 00 10 92 4e 7f 30 82 4e 00 10 92 4e 7f 08 92 50  ...N.0.N...N...P
00009a00: 7f 00 82 4e 00 28 82 50 00 10 92 47 7f 81 40 82  ...N.(.P...G..@.
00009a10: 47 00 82 40 92 49 7f 30 82 49 00 10 92 4c 7f 70  G..@.I.0.I...L.p
00009a20: 82 4c 00 10 92 4e 7f 30 82 4e 00 10 92 49 7f 3b  .L...N.0.N...I.;
00009a30: 82 49 00 05 92 4c 7f 70 82 4c 00 10 92 4c 7f 70  .I...L.p.L...L.p
00009a40: 82 4c 00 10 92 4c 7f 3b 82 4c 00 05 92 4a 7f 81  .L...L.;.L...J..
00009a50: 40 82 4a 00 86 40 92 4a 7f 30 82 4a 00 10 92 47  @.J..@.J.0.J...G
00009a60: 7f 2b 82 47 00 cb 15 92 4e 7f 08 82 4e 00 03 92  .+.G....N...N...
00009a70: 4f 7f 4e 82 4f 00 07 92 4f 7f 20 92 51 7f 00 82  O.N.O...O. .Q...
00009a80: 4f 00 30 82 51 00 10 92 4f 7f 70 82 4f 00 10 92  O.0.Q...O.p.O...
00009a90: 4e 7f 30 82 4e 00 10 92 4c 7f 81 10 82 4c 00 83  N.0.N...L....L..
00009aa0: 30 92 47 7f 0b 82 47 00 05 92 49 7f 60 82 49 00  0.G...G...I.`.I.
00009ab0: 10 92 4c 7f 30 82 4c 00 10 92 4c 7f 0b 82 4c 00  ..L.0.L...L...L.
00009ac0: 05 92 4e 7f 20 82 4e 00 10 92 4c 7f 30 82 4c 00  ..N. .N...L.0.L.
00009ad0: 10 92 49 7f 30 82 49 00 10 92 49 7f 10 92 4c 7f  ..I.0.I...I...L.
00009ae0: 00 82 49 00 81 00 82 4c 00 30 92 49 7f 20 92 47  ..I....L.0.I. .G
00009af0: 7f 00 82 49 00 81 10 82 47 00 8a 10 92 47 7f 30  ...I....G....G.0
00009b00: 82 47 00 10 92 4e 7f 0b 82 4e 00 05 92 4f 7f 4b  .G...N...N...O.K
00009b10: 82 4f 00 05 92 4f 7f 20 92 50 7f 00 82 4f 00 30  .O...O. .P...O.0
00009b20: 82 50 00 10 92 4f 7f 70 82 4f 00 10 92 4e 7f 30  .P...O.p.O...N.0
00009b30: 82 4e 00 10 92 4c 7f 81 10 82 4c 00 83 30 92 47  .N...L....L..0.G
00009b40: 7f 09 82 47 00 03 92 49 7f 64 82 49 00 10 92 4c  ...G...I.d.I...L
00009b50: 7f 30 82 4c 00 10 92 4c 7f 09 82 4c 00 03 92 4e  .0.L...L...L...N
00009b60: 7f 64 82 4e 00 10 92 49 7f 30 82 49 00 10 92 4a  .d.N...I.0.I...J
00009b70: 7f 10 82 4a 00 04 92 4c 7f 7c 82 4c 00 30 92 49  ...J...L.|.L.0.I
00009b80: 7f 10 82 49 00 04 92 47 7f 81 2c 82 47 00 88 40  ...I...G..,.G..@
00009b90: 92 4e 7f 0c 82 4e 00 05 92 4f 7f 5f 82 4f 00 10  .N...N...O._.O..
00009ba0: 92 4f 7f 30 82 4f 00 10 92 4f 7f 30 82 4f 00 10  .O.0.O...O.0.O..
00009bb0: 92 4e 7f 38 82 4e 00 10 92 4e 7f 28 82 4e 00 10  .N.8.N...N.(.N..
00009bc0: 92 4e 7f 30 82 4e 00 10 92 4e 7f 18 82 4e 00 08  .N.0.N...N...N..
00009bd0: 92 4e 7f 18 82 4e 00 08 92 4e 7f 23 82 4e 00 08  .N...N...N.#.N..
00009be0: 92 4e 7f 16 82 4e 00 08 92 4e 7f 2b 82 4e 00 0c  .N...N...N.+.N..
00009bf0: 92 4e 7f 18 82 4e 00 04 92 4f 7f 54 82 4f 00 10  .N...N...O.T.O..
00009c00: 92 4c 7f 30 82 4c 00 82 50 92 49 7f 30 82 49 00  .L.0.L..P.I.0.I.
00009c10: 10 92 4c 7f 30 82 4c 00 10 92 4c 7f 30 82 4c 00  ..L.0.L...L.0.L.
00009c20: 10 92 4c 7f 0b 82 4c 00 05 92 4e 7f 20 82 4e 00  ..L...L...N. .N.
00009c30: 10 92 49 7f 30 82 49 00 10 92 49 7f 70 82 49 00  ..I.0.I...I.p.I.
00009c40: 10 92 4c 7f 30 82 4c 00 10 92 4c 7f 30 82 4c 00  ..L.0.L...L.0.L.
00009c50: 10 92 4c 7f 40 92 4a 7f 00 82 4c 00 81 10 82 4a  ..L.@.J...L....J
00009c60: 00 00 ff 7f 1c 24 24 00 08 00 00 00 00 00 00 14  .....$$.........
00009c70: ff 00 00 00 00 00 00 21 00 00 01 0e 90 00 00 0c  .......!........
00009c80: 00 00 ff 7f 05 24 24 00 01 00 00 ff 7f 06 24 24  .....$$.......$$
00009c90: 00 06 04 04 00 ff 7f 05 24 24 00 02 02 01 ff 2f  ........$$...../
00009ca0: 00 4d 54 72 6b 00 00 36 a2 00 ff 00 02 00 05 00  .MTrk..6........
00009cb0: ff 03 0f 52 68 79 74 68 6d 20 28 43 68 6f 72 64  ...Rhythm (Chord
00009cc0: 73 29 8d 40 93 45 6b 01 93 42 6b 00 93 47 6b 02  s).@.Ek..Bk..Gk.
00009cd0: 93 3f 6b 28 83 3f 00 01 83 47 00 05 83 45 00 02  .?k(.?...G...E..
00009ce0: 83 42 00 4d 93 3f 6b 00 93 42 6b 00 93 45 6b 00  .B.M.?k..Bk..Ek.
00009cf0: 93 47 6b 81 19 83 3f 00 02 83 45 00 01 83 47 00  .Gk...?...E...G.
00009d00: 04 83 42 00 20 93 3f 6b 00 93 42 6b 00 93 45 6b  ..B. .?k..Bk..Ek
00009d10: 00 93 47 6b 20 83 47 00 01 83 3f 00 00 83 42 00  ..Gk .G...?...B.
00009d20: 00 83 45 00 1f 93 3f 6b 00 93 42 6b 01 93 45 6b  ..E...?k..Bk..Ek
00009d30: 00 93 47 6b 30 83 45 00 00 83 3f 00 00 83 42 00  ..Gk0.E...?...B.
00009d40: 03 83 47 00 82 0c 93 3e 6b 00 93 40 6b 00 93 44  ..G....>k..@k..D
00009d50: 6b 00 93 47 6b 20 83 40 00 01 83 44 00 02 83 47  k..Gk .@...D...G
00009d60: 00 09 83 3e 00 0f 93 44 6b 05 93 3e 6b 00 93 40  ...>...Dk..>k..@
00009d70: 6b 00 93 47 6b 58 83 40 00 08 83 44 00 00 83 3e  k..GkX.@...D...>
00009d80: 00 00 83 47 00 60 93 3e 6b 00 93 44 6b 03 93 40  ...G.`.>k..Dk..@
00009d90: 6b 00 93 47 6b 5d 83 40 00 03 83 47 00 00 83 3e  k..Gk].@...G...>
00009da0: 00 06 83 44 00 82 17 93 3e 6b 00 93 40 6b 00 93  ...D....>k..@k..
00009db0: 47 6b 01 93 44 6b 72 83 40 00 05 83 47 00 03 83  Gk..Dkr.@...G...
00009dc0: 3e 00 00 83 44 00 45 93 44 6b 00 93 47 6b 03 93  >...D.E.Dk..Gk..
00009dd0: 3e 6b 00 93 40 6b 38 83 3e 00 00 83 47 00 05 83  >k..@k8.>...G...
00009de0: 44 00 00 83 40 00 3b 93 44 6b 05 93 3e 6b 00 93  D...@.;.Dk..>k..
00009df0: 47 6b 00 93 40 6b 81 10 83 40 00 13 83 47 00 00  Gk..@k...@...G..
00009e00: 83 3e 00 01 83 44 00 83 1c 93 40 6b 00 93 43 6b  .>...D....@k..Ck
00009e10: 00 93 45 6b 00 93 49 6b 20 83 43 00 01 83 40 00  ..Ek..Ik .C...@.
00009e20: 02 83 45 00 01 83 49 00 1c 93 49 6b 01 93 40 6b  ..E...I...Ik..@k
00009e30: 00 93 43 6b 00 93 45 6b 53 83 45 00 04 83 49 00  ..Ck..EkS.E...I.
00009e40: 00 83 40 00 01 83 43 00 27 93 40 6b 00 93 43 6b  ..@...C.'.@k..Ck
00009e50: 00 93 45 6b 00 93 49 6b 1c 83 43 00 00 83 40 00  ..Ek..Ik..C...@.
00009e60: 04 83 45 00 03 83 49 00 1d 93 40 6b 00 93 43 6b  ..E...I...@k..Ck
00009e70: 01 93 45 6b 02 93 49 6b 70 83 43 00 01 83 45 00  ..Ek..Ikp.C...E.
00009e80: 0f 83 49 00 05 83 40 00 38 93 43 6b 01 93 40 6b  ..I...@.8.Ck..@k
00009e90: 00 93 45 6b 02 93 49 6b 50 83 49 00 00 83 45 00  ..Ek..IkP.I...E.
00009ea0: 00 83 40 00 05 83 43 00 6b 93 3e 6b 00 93 40 6b  ..@...C.k.>k..@k
00009eb0: 00 93 44 6b 00 93 47 6b 81 11 83 47 00 04 83 3e  ..Dk..Gk...G...>
00009ec0: 00 01 83 44 00 08 83 40 00 1f 93 3e 6b 00 93 47  ...D...@...>k..G
00009ed0: 6b 03 93 40 6b 00 93 44 6b 2d 83 3e 00 08 83 47  k..@k..Dk-.>...G
00009ee0: 00 01 83 40 00 08 83 44 00 3f 93 44 6b 00 93 47  ...@...D.?.Dk..G
00009ef0: 6b 01 93 3e 6b 02 93 40 6b 81 15 83 40 00 01 83  k..>k..@k...@...
00009f00: 47 00 02 83 44 00 01 83 3e 00 20 93 40 6b 04 93  G...D...>. .@k..
00009f10: 3e 6b 00 93 44 6b 00 93 47 6b 1c 83 44 00 00 83  >k..Dk..Gk..D...
00009f20: 3e 00 04 83 40 00 03 83 47 00 1d 93 40 6b 00 93  >...@...G...@k..
00009f30: 47 6b 01 93 3e 6b 00 93 44 6b 81 23 83 40 00 05  Gk..>k..Dk.#.@..
00009f40: 83 3e 00 03 83 47 00 05 83 44 00 81 0f 93 3e 6b  .>...G...D....>k
00009f50: 00 93 40 6b 00 93 44 6b 00 93 47 6b 20 83 47 00  ..@k..Dk..Gk .G.
00009f60: 03 83 44 00 00 83 3e 00 0d 83 40 00 0b 93 3e 6b  ..D...>...@...>k
00009f70: 00 93 40 6b 01 93 44 6b 00 93 47 6b 58 83 47 00  ..@k..Dk..GkX.G.
00009f80: 04 83 3e 00 00 83 40 00 00 83 44 00 1c 93 44 6b  ..>...@...D...Dk
00009f90: 05 93 3e 6b 02 93 47 6b 01 93 40 6b 1c 83 40 00  ..>k..Gk..@k..@.
00009fa0: 01 83 47 00 03 83 3e 00 04 83 44 00 20 93 3e 6b  ..G...>...D. .>k
00009fb0: 00 93 47 6b 01 93 40 6b 02 93 44 6b 78 83 40 00  ..Gk..@k..Dkx.@.
00009fc0: 00 83 47 00 08 83 44 00 01 83 3e 00 3c 93 3e 6b  ..G...D...>.<.>k
00009fd0: 00 93 44 6b 00 93 47 6b 03 93 40 6b 78 83 40 00  ..Dk..Gk..@kx.@.
00009fe0: 08 83 44 00 01 83 3e 00 04 83 47 00 81 38 93 43  ..D...>...G..8.C
00009ff0: 6b 00 93 4c 6b 03 93 45 6b 00 93 49 6b 81 4d 83  k..Lk..Ek..Ik.M.
0000a000: 49 00 01 83 4c 00 03 83 45 00 05 83 43 00 27 93  I...L...E...C.'.
0000a010: 4c 6b 03 93 43 6b 00 93 45 6b 05 93 49 6b 82 53  Lk..Ck..Ek..Ik.S
0000a020: 83 45 00 01 83 49 00 00 83 4c 00 05 83 43 00 1f  .E...I...L...C..
0000a030: 93 45 6b 00 93 43 6b 03 93 49 6b 00 93 4c 6b 82  .Ek..Ck..Ik..Lk.
0000a040: 10 83 45 00 01 83 4c 00 07 83 49 00 05 83 43 00  ..E...L...I...C.
0000a050: 20 93 43 6b 00 93 45 6b 00 93 4c 6b 03 93 49 6b   .Ck..Ek..Lk..Ik
0000a060: 83 28 83 45 00 05 83 43 00 00 83 4c 00 00 83 49  .(.E...C...L...I
0000a070: 00 81 00 93 44 6b 00 93 47 6b 00 93 3e 6b 00 93  ....Dk..Gk..>k..
0000a080: 40 6b 23 83 47 00 06 83 44 00 03 83 3e 00 04 83  @k#.G...D...>...
0000a090: 40 00 13 93 44 6b 05 93 3e 6b 00 93 40 6b 00 93  @...Dk..>k..@k..
0000a0a0: 47 6b 59 83 3e 00 02 83 47 00 01 83 44 00 05 83  GkY.>...G...D...
0000a0b0: 40 00 17 93 3e 6b 00 93 40 6b 00 93 47 6b 01 93  @...>k..@k..Gk..
0000a0c0: 44 6b 1a 83 47 00 00 83 3e 00 05 83 40 00 00 83  Dk..G...>...@...
0000a0d0: 44 00 24 93 40 6b 04 93 3e 6b 00 93 44 6b 00 93  D.$.@k..>k..Dk..
0000a0e0: 47 6b 82 50 83 47 00 01 83 3e 00 07 83 44 00 00  Gk.P.G...>...D..
0000a0f0: 83 40 00 33 93 47 6b 00 93 3e 6b 00 93 44 6b 01  .@.3.Gk..>k..Dk.
0000a100: 93 40 6b 81 35 83 44 00 00 83 47 00 08 83 40 00  .@k.5.D...G...@.
0000a110: 02 83 3e 00 0d 93 44 6b 00 93 47 6b 01 93 3e 6b  ..>...Dk..Gk..>k
0000a120: 00 93 40 6b 27 83 3e 00 01 83 47 00 03 83 44 00  ..@k'.>...G...D.
0000a130: 00 83 40 00 44 93 3e 6b 00 93 40 6b 00 93 44 6b  ..@.D.>k..@k..Dk
0000a140: 00 93 47 6b 81 2b 83 44 00 01 83 47 00 00 83 40  ..Gk.+.D...G...@
0000a150: 00 07 83 3e 00 0d 93 47 6b 00 93 44 6b 03 93 3e  ...>...Gk..Dk..>
0000a160: 6b 00 93 40 6b 21 83 47 00 04 83 44 00 01 83 3e  k..@k!.G...D...>
0000a170: 00 00 83 40 00 17 93 3e 6b 00 93 40 6b 00 93 44  ...@...>k..@k..D
0000a180: 6b 00 93 47 6b 81 7c 83 40 00 04 83 44 00 01 83  k..Gk.|.@...D...
0000a190: 3e 00 00 83 47 00 3f 93 42 6b 00 93 45 6b 00 93  >...G.?.Bk..Ek..
0000a1a0: 47 6b 00 93 4b 6b 40 83 4b 00 00 83 42 00 00 83  Gk..Kk@.K...B...
0000a1b0: 45 00 00 83 47 00 40 93 42 6b 00 93 45 6b 00 93  E...G.@.Bk..Ek..
0000a1c0: 47 6b 00 93 4b 6b 43 83 47 00 05 83 42 00 00 83  Gk..KkC.G...B...
0000a1d0: 45 00 04 83 4b 00 34 93 42 6b 00 93 45 6b 00 93  E...K.4.Bk..Ek..
0000a1e0: 47 6b 00 93 4b 6b 3b 83 47 00 05 83 45 00 08 83  Gk..Kk;.G...E...
0000a1f0: 4b 00 03 83 42 00 35 93 42 6b 00 93 45 6b 00 93  K...B.5.Bk..Ek..
0000a200: 47 6b 00 93 4b 6b 40 83 4b 00 03 83 45 00 05 83  Gk..Kk@.K...E...
0000a210: 47 00 00 83 42 00 38 93 42 6b 00 93 45 6b 00 93  G...B.8.Bk..Ek..
0000a220: 47 6b 00 93 4b 6b 70 83 4b 00 00 83 42 00 03 83  Gk..Kkp.K...B...
0000a230: 47 00 00 83 45 00 81 0d 93 40 6b 00 93 43 6b 00  G...E....@k..Ck.
0000a240: 93 45 6b 00 93 49 6b 50 83 45 00 01 83 43 00 02  .Ek..IkP.E...C..
0000a250: 83 40 00 00 83 49 00 2d 93 40 6b 00 93 43 6b 00  .@...I.-.@k..Ck.
0000a260: 93 45 6b 00 93 49 6b 38 83 49 00 00 83 45 00 00  .Ek..Ik8.I...E..
0000a270: 83 43 00 03 83 40 00 05 93 40 6b 00 93 43 6b 00  .C...@...@k..Ck.
0000a280: 93 45 6b 00 93 49 6b 38 83 49 00 00 83 40 00 00  .Ek..Ik8.I...@..
0000a290: 83 43 00 03 83 45 00 45 93 40 6b 00 93 43 6b 00  .C...E.E.@k..Ck.
0000a2a0: 93 45 6b 00 93 49 6b 28 83 49 00 00 83 45 00 00  .Ek..Ik(.I...E..
0000a2b0: 83 43 00 03 83 40 00 15 93 40 6b 00 93 43 6b 00  .C...@...@k..Ck.
0000a2c0: 93 45 6b 00 93 49 6b 81 6b 83 45 00 05 83 40 00  .Ek..Ik.k.E...@.
0000a2d0: 00 83 43 00 00 83 49 00 81 0b 93 40 6b 05 93 3e  ..C...I....@k..>
0000a2e0: 6b 00 93 44 6b 00 93 47 6b 2b 83 40 00 05 83 44  k..Dk..Gk+.@...D
0000a2f0: 00 03 83 3e 00 00 83 47 00 0d 93 40 6b 00 93 47  ...>...G...@k..G
0000a300: 6b 00 93 3e 6b 00 93 44 6b 43 83 44 00 05 83 3e  k..>k..DkC.D...>
0000a310: 00 03 83 47 00 00 83 40 00 35 93 3e 6b 00 93 40  ...G...@.5.>k..@
0000a320: 6b 00 93 44 6b 00 93 47 6b 20 83 40 00 03 83 3e  k..Dk..Gk .@...>
0000a330: 00 00 83 44 00 00 83 47 00 1d 93 3e 6b 00 93 47  ...D...G...>k..G
0000a340: 6b 00 93 44 6b 01 93 40 6b 82 0b 83 40 00 0c 83  k..Dk..@k...@...
0000a350: 44 00 00 83 3e 00 01 83 47 00 67 93 42 6b 00 93  D...>...G.g.Bk..
0000a360: 47 6b 00 93 4b 6b 03 93 45 6b 59 83 47 00 04 83  Gk..Kk..EkY.G...
0000a370: 4b 00 01 83 45 00 03 83 42 00 1c 93 47 6b 00 93  K...E...B...Gk..
0000a380: 42 6b 00 93 4b 6b 00 93 45 6b 3b 83 45 00 00 83  Bk..Kk..Ek;.E...
0000a390: 47 00 05 83 4b 00 01 83 42 00 3f 93 42 6b 00 93  G...K...B.?.Bk..
0000a3a0: 45 6b 00 93 47 6b 00 93 4b 6b 38 83 47 00 00 83  Ek..Gk..Kk8.G...
0000a3b0: 45 00 03 83 4b 00 08 83 42 00 3d 93 42 6b 00 93  E...K...B.=.Bk..
0000a3c0: 45 6b 00 93 47 6b 00 93 4b 6b 82 2b 83 47 00 05  Ek..Gk..Kk.+.G..
0000a3d0: 83 42 00 00 83 45 00 00 83 4b 00 81 60 93 40 6b  .B...E...K..`.@k
0000a3e0: 00 93 44 6b 00 93 47 6b 00 93 4a 6b 23 83 4a 00  ..Dk..Gk..Jk#.J.
0000a3f0: 00 83 40 00 05 83 47 00 00 83 44 00 18 93 40 6b  ..@...G...D...@k
0000a400: 00 93 44 6b 00 93 47 6b 01 93 4a 6b 57 83 40 00  ..Dk..Gk..JkW.@.
0000a410: 01 83 44 00 03 83 47 00 05 83 4a 00 0f 93 40 6b  ..D...G...J...@k
0000a420: 00 93 44 6b 00 93 47 6b 00 93 4a 6b 23 83 40 00  ..Dk..Gk..Jk#.@.
0000a430: 06 83 44 00 02 83 47 00 01 83 4a 00 14 93 4a 6b  ..D...G...J...Jk
0000a440: 00 93 40 6b 00 93 47 6b 03 93 44 6b 61 83 40 00  ..@k..Gk..Dka.@.
0000a450: 07 83 44 00 08 83 4a 00 01 83 47 00 0c 93 40 6b  ..D...J...G...@k
0000a460: 00 93 47 6b 00 93 4a 6b 03 93 44 6b 30 83 40 00  ..Gk..Jk..Dk0.@.
0000a470: 01 83 44 00 04 83 4a 00 00 83 47 00 08 93 40 6b  ..D...J...G...@k
0000a480: 00 93 44 6b 00 93 47 6b 00 93 4a 6b 78 83 40 00  ..Dk..Gk..Jkx.@.
0000a490: 01 83 44 00 02 83 47 00 09 83 4a 00 81 3c 93 40  ..D...G...J..<.@
0000a4a0: 6b 00 93 43 6b 00 93 45 6b 00 93 49 6b 20 83 43  k..Ck..Ek..Ik .C
0000a4b0: 00 01 83 40 00 02 83 45 00 01 83 49 00 1c 93 49  ...@...E...I...I
0000a4c0: 6b 01 93 40 6b 00 93 43 6b 00 93 45 6b 53 83 45  k..@k..Ck..EkS.E
0000a4d0: 00 04 83 49 00 00 83 40 00 01 83 43 00 27 93 40  ...I...@...C.'.@
0000a4e0: 6b 00 93 43 6b 00 93 45 6b 00 93 49 6b 1c 83 43  k..Ck..Ek..Ik..C
0000a4f0: 00 00 83 40 00 04 83 45 00 03 83 49 00 1d 93 40  ...@...E...I...@
0000a500: 6b 00 93 43 6b 01 93 45 6b 02 93 49 6b 70 83 43  k..Ck..Ek..Ikp.C
0000a510: 00 01 83 45 00 0f 83 49 00 05 83 40 00 38 93 43  ...E...I...@.8.C
0000a520: 6b 01 93 40 6b 00 93 45 6b 02 93 49 6b 50 83 49  k..@k..Ek..IkP.I
0000a530: 00 00 83 45 00 00 83 40 00 05 83 43 00 6b 93 3e  ...E...@...C.k.>
0000a540: 6b 00 93 40 6b 00 93 44 6b 00 93 47 6b 81 11 83  k..@k..Dk..Gk...
0000a550: 47 00 04 83 3e 00 01 83 44 00 08 83 40 00 1f 93  G...>...D...@...
0000a560: 3e 6b 00 93 47 6b 03 93 40 6b 00 93 44 6b 2d 83  >k..Gk..@k..Dk-.
0000a570: 3e 00 08 83 47 00 01 83 40 00 08 83 44 00 3f 93  >...G...@...D.?.
0000a580: 44 6b 00 93 47 6b 01 93 3e 6b 02 93 40 6b 81 15  Dk..Gk..>k..@k..
0000a590: 83 40 00 01 83 47 00 02 83 44 00 01 83 3e 00 20  .@...G...D...>. 
0000a5a0: 93 40 6b 04 93 3e 6b 00 93 44 6b 00 93 47 6b 1c  .@k..>k..Dk..Gk.
0000a5b0: 83 44 00 00 83 3e 00 04 83 40 00 03 83 47 00 1d  .D...>...@...G..
0000a5c0: 93 40 6b 00 93 47 6b 01 93 3e 6b 00 93 44 6b 81  .@k..Gk..>k..Dk.
0000a5d0: 23 83 40 00 05 83 3e 00 03 83 47 00 05 83 44 00  #.@...>...G...D.
0000a5e0: 81 0f 93 3e 6b 00 93 40 6b 00 93 44 6b 00 93 47  ...>k..@k..Dk..G
0000a5f0: 6b 20 83 47 00 03 83 44 00 00 83 3e 00 0d 83 40  k .G...D...>...@
0000a600: 00 0b 93 3e 6b 00 93 40 6b 01 93 44 6b 00 93 47  ...>k..@k..Dk..G
0000a610: 6b 58 83 47 00 04 83 3e 00 00 83 40 00 00 83 44  kX.G...>...@...D
0000a620: 00 1c 93 44 6b 05 93 3e 6b 02 93 47 6b 01 93 40  ...Dk..>k..Gk..@
0000a630: 6b 1c 83 40 00 01 83 47 00 03 83 3e 00 04 83 44  k..@...G...>...D
0000a640: 00 20 93 3e 6b 00 93 47 6b 01 93 40 6b 02 93 44  . .>k..Gk..@k..D
0000a650: 6b 78 83 40 00 00 83 47 00 08 83 44 00 01 83 3e  kx.@...G...D...>
0000a660: 00 3c 93 3e 6b 00 93 44 6b 00 93 47 6b 03 93 40  .<.>k..Dk..Gk..@
0000a670: 6b 78 83 40 00 08 83 44 00 01 83 3e 00 04 83 47  kx.@...D...>...G
0000a680: 00 81 38 93 43 6b 00 93 4c 6b 03 93 45 6b 00 93  ..8.Ck..Lk..Ek..
0000a690: 49 6b 81 4d 83 49 00 01 83 4c 00 03 83 45 00 05  Ik.M.I...L...E..
0000a6a0: 83 43 00 27 93 4c 6b 03 93 43 6b 00 93 45 6b 05  .C.'.Lk..Ck..Ek.
0000a6b0: 93 49 6b 82 53 83 45 00 01 83 49 00 00 83 4c 00  .Ik.S.E...I...L.
0000a6c0: 05 83 43 00 1f 93 45 6b 00 93 43 6b 03 93 49 6b  ..C...Ek..Ck..Ik
0000a6d0: 00 93 4c 6b 82 10 83 45 00 01 83 4c 00 07 83 49  ..Lk...E...L...I
0000a6e0: 00 05 83 43 00 20 93 43 6b 00 93 45 6b 00 93 4c  ...C. .Ck..Ek..L
0000a6f0: 6b 03 93 49 6b 83 28 83 45 00 05 83 43 00 00 83  k..Ik.(.E...C...
0000a700: 4c 00 00 83 49 00 81 00 93 44 6b 00 93 47 6b 00  L...I....Dk..Gk.
0000a710: 93 3e 6b 00 93 40 6b 23 83 47 00 06 83 44 00 03  .>k..@k#.G...D..
0000a720: 83 3e 00 04 83 40 00 13 93 44 6b 05 93 3e 6b 00  .>...@...Dk..>k.
0000a730: 93 40 6b 00 93 47 6b 59 83 3e 00 02 83 47 00 01  .@k..GkY.>...G..
0000a740: 83 44 00 05 83 40 00 17 93 3e 6b 00 93 40 6b 00  .D...@...>k..@k.
0000a750: 93 47 6b 01 93 44 6b 1a 83 47 00 00 83 3e 00 05  .Gk..Dk..G...>..
0000a760: 83 40 00 00 83 44 00 30 93 44 6b 00 93 53 6b 08  .@...D.0.Dk..Sk.
0000a770: 93 4c 6b 03 93 4a 6b 82 3d 83 53 00 01 83 4a 00  .Lk..Jk.=.S...J.
0000a780: 07 83 4c 00 00 83 44 00 33 93 47 6b 00 93 3e 6b  ..L...D.3.Gk..>k
0000a790: 00 93 44 6b 01 93 40 6b 81 35 83 44 00 00 83 47  ..Dk..@k.5.D...G
0000a7a0: 00 08 83 40 00 02 83 3e 00 0d 93 44 6b 00 93 47  ...@...>...Dk..G
0000a7b0: 6b 01 93 3e 6b 00 93 40 6b 27 83 3e 00 01 83 47  k..>k..@k'.>...G
0000a7c0: 00 03 83 44 00 00 83 40 00 44 93 4a 6b 00 93 4c  ...D...@.D.Jk..L
0000a7d0: 6b 00 93 44 6b 00 93 53 6b 81 2b 83 44 00 01 83  k..Dk..Sk.+.D...
0000a7e0: 53 00 00 83 4c 00 07 83 4a 00 0d 93 47 6b 00 93  S...L...J...Gk..
0000a7f0: 44 6b 03 93 3e 6b 00 93 40 6b 21 83 47 00 04 83  Dk..>k..@k!.G...
0000a800: 44 00 01 83 3e 00 00 83 40 00 17 93 3e 6b 00 93  D...>...@...>k..
0000a810: 40 6b 00 93 44 6b 00 93 47 6b 81 7c 83 40 00 04  @k..Dk..Gk.|.@..
0000a820: 83 44 00 01 83 3e 00 00 83 47 00 3f 93 42 6b 00  .D...>...G.?.Bk.
0000a830: 93 45 6b 00 93 47 6b 00 93 4b 6b 40 83 4b 00 00  .Ek..Gk..Kk@.K..
0000a840: 83 42 00 00 83 45 00 00 83 47 00 40 93 42 6b 00  .B...E...G.@.Bk.
0000a850: 93 45 6b 00 93 47 6b 00 93 4b 6b 43 83 47 00 05  .Ek..Gk..KkC.G..
0000a860: 83 42 00 00 83 45 00 04 83 4b 00 34 93 42 6b 00  .B...E...K.4.Bk.
0000a870: 93 45 6b 00 93 47 6b 00 93 4b 6b 3b 83 47 00 05  .Ek..Gk..Kk;.G..
0000a880: 83 45 00 08 83 4b 00 03 83 42 00 35 93 42 6b 00  .E...K...B.5.Bk.
0000a890: 93 45 6b 00 93 47 6b 00 93 4b 6b 40 83 4b 00 03  .Ek..Gk..Kk@.K..
0000a8a0: 83 45 00 05 83 47 00 00 83 42 00 38 93 42 6b 00  .E...G...B.8.Bk.
0000a8b0: 93 45 6b 00 93 47 6b 00 93 4b 6b 70 83 4b 00 00  .Ek..Gk..Kkp.K..
0000a8c0: 83 42 00 03 83 47 00 00 83 45 00 81 0d 93 40 6b  .B...G...E....@k
0000a8d0: 00 93 43 6b 00 93 45 6b 00 93 49 6b 50 83 45 00  ..Ck..Ek..IkP.E.
0000a8e0: 01 83 43 00 02 83 40 00 00 83 49 00 2d 93 40 6b  ..C...@...I.-.@k
0000a8f0: 00 93 43 6b 00 93 45 6b 00 93 49 6b 33 83 49 00  ..Ck..Ek..Ik3.I.
0000a900: 05 83 45 00 00 83 43 00 03 83 40 00 45 93 4c 6b  ..E...C...@.E.Lk
0000a910: 00 93 43 6b 00 93 45 6b 00 93 49 6b 68 83 49 00  ..Ck..Ek..Ikh.I.
0000a920: 00 83 45 00 00 83 43 00 03 83 4c 00 15 93 40 6b  ..E...C...L...@k
0000a930: 00 93 43 6b 00 93 45 6b 00 93 49 6b 81 6b 83 45  ..Ck..Ek..Ik.k.E
0000a940: 00 05 83 40 00 00 83 43 00 00 83 49 00 81 10 93  ...@...C...I....
0000a950: 40 6b 00 93 3e 6b 00 93 44 6b 00 93 47 6b 2b 83  @k..>k..Dk..Gk+.
0000a960: 40 00 05 83 44 00 03 83 3e 00 00 83 47 00 0d 93  @...D...>...G...
0000a970: 40 6b 00 93 47 6b 00 93 3e 6b 00 93 44 6b 43 83  @k..Gk..>k..DkC.
0000a980: 44 00 05 83 3e 00 03 83 47 00 00 83 40 00 35 93  D...>...G...@.5.
0000a990: 3e 6b 00 93 40 6b 00 93 44 6b 00 93 47 6b 20 83  >k..@k..Dk..Gk .
0000a9a0: 40 00 03 83 3e 00 00 83 44 00 00 83 47 00 1d 93  @...>...D...G...
0000a9b0: 4a 6b 00 93 47 6b 00 93 44 6b 01 93 40 6b 82 0b  Jk..Gk..Dk..@k..
0000a9c0: 83 40 00 0c 83 44 00 00 83 4a 00 01 83 47 00 67  .@...D...J...G.g
0000a9d0: 93 42 6b 00 93 47 6b 00 93 4b 6b 03 93 45 6b 59  .Bk..Gk..Kk..EkY
0000a9e0: 83 47 00 04 83 4b 00 01 83 45 00 03 83 42 00 1c  .G...K...E...B..
0000a9f0: 93 47 6b 00 93 42 6b 00 93 4b 6b 00 93 45 6b 3b  .Gk..Bk..Kk..Ek;
0000aa00: 83 45 00 00 83 47 00 05 83 4b 00 01 83 42 00 3f  .E...G...K...B.?
0000aa10: 93 42 6b 00 93 45 6b 00 93 47 6b 00 93 4b 6b 38  .Bk..Ek..Gk..Kk8
0000aa20: 83 47 00 00 83 45 00 03 83 4b 00 08 83 42 00 3d  .G...E...K...B.=
0000aa30: 93 4e 6b 00 93 45 6b 00 93 47 6b 00 93 4b 6b 70  .Nk..Ek..Gk..Kkp
0000aa40: 83 4e 00 10 93 42 6b 81 2b 83 47 00 05 83 4b 00  .N...Bk.+.G...K.
0000aa50: 00 83 45 00 00 83 42 00 50 93 3e 6b 00 93 44 6b  ..E...B.P.>k..Dk
0000aa60: 00 93 47 6b 03 93 40 6b 81 08 83 47 00 00 83 44  ..Gk..@k...G...D
0000aa70: 00 05 83 40 00 01 83 3e 00 08 93 3e 6b 02 93 40  ...@...>...>k..@
0000aa80: 6b 00 93 44 6b 00 93 47 6b 21 83 3e 00 04 83 40  k..Dk..Gk!.>...@
0000aa90: 00 00 83 44 00 01 83 47 00 07 93 44 6b 00 93 47  ...D...G...Dk..G
0000aaa0: 6b 01 93 3e 6b 00 93 40 6b 42 83 44 00 01 83 47  k..>k..@kB.D...G
0000aab0: 00 00 83 40 00 05 83 3e 00 2f 93 3e 6b 00 93 40  ...@...>./.>k..@
0000aac0: 6b 00 93 44 6b 00 93 47 6b 81 1b 83 47 00 01 83  k..Dk..Gk...G...
0000aad0: 44 00 04 83 3e 00 03 83 40 00 1d 93 40 6b 00 93  D...>...@...@k..
0000aae0: 44 6b 00 93 3e 6b 00 93 47 6b 20 83 3e 00 03 83  Dk..>k..Gk .>...
0000aaf0: 47 00 00 83 40 00 05 83 44 00 18 93 3e 6b 00 93  G...@...D...>k..
0000ab00: 40 6b 00 93 44 6b 00 93 47 6b 78 83 40 00 08 83  @k..Dk..Gkx.@...
0000ab10: 47 00 08 83 44 00 01 83 3e 00 81 22 93 49 6b 05  G...D...>..".Ik.
0000ab20: 93 40 6b 00 93 43 6b 00 93 45 6b 21 83 45 00 08  .@k..Ck..Ek!.E..
0000ab30: 83 43 00 00 83 49 00 02 83 40 00 25 93 43 6b 00  .C...I...@.%.Ck.
0000ab40: 93 40 6b 00 93 49 6b 00 93 45 6b 49 83 45 00 07  .@k..Ik..EkI.E..
0000ab50: 83 43 00 08 83 49 00 00 83 40 00 18 93 45 6b 00  .C...I...@...Ek.
0000ab60: 93 43 6b 00 93 49 6b 03 93 40 6b 15 83 43 00 04  .Ck..Ik..@k..C..
0000ab70: 83 45 00 07 83 40 00 05 83 49 00 23 93 49 6b 00  .E...@...I.#.Ik.
0000ab80: 93 40 6b 08 93 43 6b 00 93 45 6b 81 08 83 45 00  .@k..Ck..Ek...E.
0000ab90: 00 83 43 00 06 83 49 00 02 83 40 00 2d 93 45 6b  ..C...I...@.-.Ek
0000aba0: 00 93 43 6b 00 93 49 6b 00 93 40 6b 73 83 40 00  ..Ck..Ik..@ks.@.
0000abb0: 08 83 45 00 05 83 43 00 0c 83 49 00 34 93 4a 6b  ..E...C...I.4.Jk
0000abc0: 00 93 47 6b 01 93 44 6b 12 83 4a 00 05 93 4c 6b  ..Gk..Dk..J...Lk
0000abd0: 13 83 4c 00 05 93 4a 6b 13 83 4a 00 05 93 4c 6b  ..L...Jk..J...Lk
0000abe0: 13 83 4c 00 0d 93 4a 6b 1b 93 4c 6b 81 0d 83 4c  ..L...Jk..Lk...L
0000abf0: 00 10 93 4e 6b 0b 83 4e 00 05 93 4f 6b 0b 83 4f  ...Nk..N...Ok..O
0000ac00: 00 05 93 50 6b 0b 83 50 00 05 93 51 6b 0b 83 51  ...Pk..P...Qk..Q
0000ac10: 00 05 93 53 6b 0b 83 53 00 15 93 5f 6b 3b 83 4a  ...Sk..S..._k;.J
0000ac20: 00 00 83 47 00 05 83 44 00 00 83 5f 00 40 93 44  ...G...D..._.@.D
0000ac30: 6b 00 93 47 6b 03 93 3e 6b 00 93 40 6b 20 83 40  k..Gk..>k..@k .@
0000ac40: 00 00 83 44 00 05 83 3e 00 00 83 47 00 18 93 3e  ...D...>...G...>
0000ac50: 6b 00 93 40 6b 00 93 44 6b 00 93 47 6b 6b 83 3e  k..@k..Dk..Gkk.>
0000ac60: 00 05 83 40 00 00 83 44 00 00 83 47 00 10 93 3e  ...@...D...G...>
0000ac70: 6b 00 93 40 6b 00 93 44 6b 00 93 47 6b 2b 83 44  k..@k..Dk..Gk+.D
0000ac80: 00 00 83 3e 00 00 83 40 00 05 83 47 00 10 93 3e  ...>...@...G...>
0000ac90: 6b 00 93 40 6b 03 93 44 6b 00 93 47 6b 81 25 83  k..@k..Dk..Gk.%.
0000aca0: 44 00 00 83 3e 00 03 83 40 00 05 83 47 00 10 93  D...>...@...G...
0000acb0: 3e 6b 00 93 44 6b 00 93 47 6b 00 93 4c 6b 70 83  >k..Dk..Gk..Lkp.
0000acc0: 4c 00 00 83 3e 00 00 83 44 00 00 83 47 00 10 93  L...>...D...G...
0000acd0: 3e 6b 00 93 47 6b 03 93 40 6b 00 93 44 6b 82 2e  >k..Gk..@k..Dk..
0000ace0: 83 40 00 07 83 44 00 01 83 47 00 02 83 3e 00 81  .@...D...G...>..
0000acf0: 05 93 3d 6b 00 93 43 6b 01 93 40 6b 02 93 45 6b  ..=k..Ck..@k..Ek
0000ad00: 7e 83 40 00 12 83 45 00 01 83 43 00 00 83 3d 00  ~.@...E...C...=.
0000ad10: 2c 93 3d 6b 00 93 43 6b 00 93 45 6b 01 93 40 6b  ,.=k..Ck..Ek..@k
0000ad20: 67 83 3d 00 03 83 40 00 05 83 45 00 00 83 43 00  g.=...@...E...C.
0000ad30: 10 93 3d 6b 00 93 40 6b 00 93 45 6b 03 93 43 6b  ..=k..@k..Ek..Ck
0000ad40: 81 08 83 43 00 01 83 45 00 00 83 40 00 04 83 3d  ...C...E...@...=
0000ad50: 00 30 93 3d 6b 00 93 43 6b 00 93 45 6b 03 93 40  .0.=k..Ck..Ek..@
0000ad60: 6b 1d 83 43 00 03 83 3d 00 00 83 45 00 00 83 40  k..C...=...E...@
0000ad70: 00 1d 93 3d 6b 00 93 40 6b 00 93 43 6b 00 93 45  ...=k..@k..Ck..E
0000ad80: 6b 81 18 83 3d 00 14 83 40 00 04 83 45 00 03 83  k...=...@...E...
0000ad90: 43 00 81 0d 93 40 6b 00 93 43 6b 00 93 49 6b 00  C....@k..Ck..Ik.
0000ada0: 93 45 6b 33 83 40 00 01 83 45 00 00 83 49 00 04  .Ek3.@...E...I..
0000adb0: 83 43 00 08 93 49 6b 03 93 40 6b 00 93 43 6b 00  .C...Ik..@k..Ck.
0000adc0: 93 45 6b 5d 83 43 00 00 83 40 00 03 83 49 00 00  .Ek].C...@...I..
0000add0: 83 45 00 1d 93 40 6b 00 93 43 6b 00 93 45 6b 00  .E...@k..Ck..Ek.
0000ade0: 93 49 6b 20 83 40 00 03 83 43 00 05 83 45 00 01  .Ik .@...C...E..
0000adf0: 83 49 00 17 93 40 6b 00 93 45 6b 00 93 49 6b 03  .I...@k..Ek..Ik.
0000ae00: 93 43 6b 81 05 83 43 00 00 83 40 00 01 83 45 00  .Ck...C...@...E.
0000ae10: 0b 83 49 00 2c 93 40 6b 00 93 45 6b 01 93 49 6b  ..I.,.@k..Ek..Ik
0000ae20: 02 93 43 6b 81 19 83 45 00 04 83 40 00 00 83 43  ..Ck...E...@...C
0000ae30: 00 09 83 49 00 17 93 44 6b 03 93 40 6b 00 93 47  ...I...Dk..@k..G
0000ae40: 6b 00 93 4a 6b 85 36 83 4a 00 08 83 40 00 07 83  k..Jk.6.J...@...
0000ae50: 47 00 01 83 44 00 37 93 3e 6b 03 93 44 6b 00 93  G...D.7.>k..Dk..
0000ae60: 47 6b 05 93 40 6b 85 20 83 40 00 03 83 3e 00 08  Gk..@k. .@...>..
0000ae70: 83 44 00 01 83 47 00 4c 93 42 6b 00 93 45 6b 03  .D...G.L.Bk..Ek.
0000ae80: 93 3f 6b 00 93 47 6b 81 38 83 3f 00 00 83 42 00  .?k..Gk.8.?...B.
0000ae90: 00 83 45 00 05 83 47 00 40 93 3f 6b 00 93 42 6b  ..E...G.@.?k..Bk
0000aea0: 00 93 45 6b 00 93 47 6b 68 83 47 00 00 83 3f 00  ..Ek..Gkh.G...?.
0000aeb0: 00 83 42 00 00 83 45 00 18 93 3f 6b 00 93 47 6b  ..B...E...?k..Gk
0000aec0: 03 93 42 6b 00 93 45 6b 4d 83 42 00 03 83 3f 00  ..Bk..EkM.B...?.
0000aed0: 00 83 47 00 00 83 45 00 2d 93 3f 6b 00 93 42 6b  ..G...E.-.?k..Bk
0000aee0: 00 93 45 6b 00 93 47 6b 38 83 47 00 00 83 45 00  ..Ek..Gk8.G...E.
0000aef0: 00 83 3f 00 03 83 42 00 41 93 3f 6b 00 93 42 6b  ..?...B.A.?k..Bk
0000af00: 04 93 47 6b 00 93 45 6b 6b 83 42 00 05 83 47 00  ..Gk..Ekk.B...G.
0000af10: 03 83 3f 00 00 83 45 00 0d 93 43 6b 00 93 45 6b  ..?...E...Ck..Ek
0000af20: 00 93 49 6b 03 93 40 6b 58 83 45 00 05 83 40 00  ..Ik..@kX.E...@.
0000af30: 00 83 49 00 08 83 43 00 18 93 40 6b 00 93 43 6b  ..I...C...@k..Ck
0000af40: 00 93 45 6b 00 93 49 6b 4b 83 45 00 00 83 40 00  ..Ek..IkK.E...@.
0000af50: 06 83 43 00 03 83 49 00 2c 93 40 6b 00 93 45 6b  ..C...I.,.@k..Ek
0000af60: 00 93 49 6b 01 93 43 6b 42 83 45 00 05 83 40 00  ..Ik..CkB.E...@.
0000af70: 00 83 43 00 04 83 49 00 34 93 40 6b 00 93 43 6b  ..C...I.4.@k..Ck
0000af80: 00 93 49 6b 03 93 45 6b 3e 83 45 00 07 83 40 00  ..Ik..Ek>.E...@.
0000af90: 01 83 43 00 02 83 49 00 30 93 40 6b 05 93 43 6b  ..C...I.0.@k..Ck
0000afa0: 00 93 45 6b 00 93 49 6b 63 83 45 00 06 83 49 00  ..Ek..Ikc.E...I.
0000afb0: 00 83 43 00 02 83 40 00 15 93 40 6b 00 93 43 6b  ..C...@...@k..Ck
0000afc0: 00 93 45 6b 00 93 49 6b 59 83 45 00 02 83 43 00  ..Ek..IkY.E...C.
0000afd0: 01 83 40 00 05 83 49 00 81 5f 93 47 6b 00 93 4a  ..@...I.._.Gk..J
0000afe0: 6b 00 93 4c 6b 03 93 44 6b 69 83 4c 00 00 83 47  k..Lk..Dki.L...G
0000aff0: 00 04 83 44 00 01 83 4a 00 1f 93 44 6b 00 93 47  ...D...J...Dk..G
0000b000: 6b 00 93 4a 6b 00 93 4c 6b 18 83 47 00 03 83 44  k..Jk..Lk..G...D
0000b010: 00 00 83 4c 00 01 83 4a 00 14 93 4a 6b 00 93 4c  ...L...J...Jk..L
0000b020: 6b 03 93 44 6b 00 93 47 6b 82 50 83 4a 00 05 83  k..Dk..Gk.P.J...
0000b030: 47 00 00 83 44 00 03 83 4c 00 25 93 4a 6b 00 93  G...D...L.%.Jk..
0000b040: 4c 6b 03 93 4e 6b 00 93 53 6b 82 50 83 4e 00 00  Lk..Nk..Sk.P.N..
0000b050: 83 4a 00 00 83 4c 00 05 83 53 00 23 93 4b 6b 05  .J...L...S.#.Kk.
0000b060: 93 47 6b 03 93 42 6b 2d 93 45 6b 82 40 83 45 00  .Gk..Bk-.Ek.@.E.
0000b070: 00 83 4b 00 00 83 47 00 00 83 42 00 10 93 3e 6b  ..K...G...B...>k
0000b080: 00 93 40 6b 00 93 44 6b 03 93 3b 6b 55 83 40 00  ..@k..Dk..;kU.@.
0000b090: 08 83 3e 00 08 83 44 00 08 83 3b 00 10 93 44 6b  ..>...D...;...Dk
0000b0a0: 03 93 3b 6b 00 93 3e 6b 00 93 40 6b 28 83 40 00  ..;k..>k..@k(.@.
0000b0b0: 05 83 3e 00 00 83 44 00 08 83 3b 00 08 93 3b 6b  ..>...D...;...;k
0000b0c0: 00 93 3e 6b 00 93 40 6b 00 93 44 6b 23 83 40 00  ..>k..@k..Dk#.@.
0000b0d0: 05 83 3e 00 0b 83 44 00 05 83 3b 00 44 93 3b 6b  ..>...D...;.D.;k
0000b0e0: 00 93 40 6b 00 93 3e 6b 00 93 44 6b 81 18 83 40  ..@k..>k..Dk...@
0000b0f0: 00 07 83 44 00 00 83 3e 00 01 83 3b 00 24 93 3e  ...D...>...;.$.>
0000b100: 6b 00 93 3b 6b 00 93 40 6b 00 93 44 6b 18 83 3e  k..;k..@k..Dk..>
0000b110: 00 03 83 40 00 08 83 44 00 05 83 3b 00 18 93 3b  ...@...D...;...;
0000b120: 6b 00 93 3e 6b 00 93 40 6b 00 93 44 6b 81 1c 83  k..>k..@k..Dk...
0000b130: 40 00 04 83 44 00 00 83 3b 00 01 83 3e 00 81 1a  @...D...;...>...
0000b140: 93 3d 6b 05 93 39 6b 00 93 40 6b 00 93 43 6b 23  .=k..9k..@k..Ck#
0000b150: 83 40 00 00 83 39 00 05 83 3d 00 00 83 43 00 18  .@...9...=...C..
0000b160: 93 39 6b 00 93 3d 6b 00 93 40 6b 00 93 43 6b 58  .9k..=k..@k..CkX
0000b170: 83 40 00 08 83 3d 00 03 83 43 00 05 83 39 00 14  .@...=...C...9..
0000b180: 93 3d 6b 00 93 39 6b 04 93 40 6b 00 93 43 6b 21  .=k..9k..@k..Ck!
0000b190: 83 39 00 00 83 3d 00 02 83 40 00 00 83 43 00 1d  .9...=...@...C..
0000b1a0: 93 39 6b 00 93 3d 6b 00 93 43 6b 01 93 40 6b 53  .9k..=k..Ck..@kS
0000b1b0: 83 40 00 07 83 43 00 00 83 3d 00 05 83 39 00 19  .@...C...=...9..
0000b1c0: 93 39 6b 02 93 3d 6b 00 93 40 6b 00 93 43 6b 1e  .9k..=k..@k..Ck.
0000b1d0: 83 3d 00 02 83 40 00 01 83 39 00 00 83 43 00 25  .=...@...9...C.%
0000b1e0: 93 39 6b 00 93 43 6b 02 93 3d 6b 01 93 40 6b 75  .9k..Ck..=k..@ku
0000b1f0: 83 3d 00 02 83 40 00 05 83 43 00 00 83 39 00 81  .=...@...C...9..
0000b200: 3b 93 3b 6b 00 93 3e 6b 05 93 40 6b 00 93 44 6b  ;.;k..>k..@k..Dk
0000b210: 2b 83 3b 00 05 83 3e 00 00 83 40 00 03 83 44 00  +.;...>...@...D.
0000b220: 0d 93 3e 6b 00 93 44 6b 03 93 3b 6b 00 93 40 6b  ..>k..Dk..;k..@k
0000b230: 58 83 40 00 05 83 3e 00 03 83 3b 00 08 83 44 00  X.@...>...;...D.
0000b240: 15 93 44 6b 00 93 3b 6b 00 93 3e 6b 00 93 40 6b  ..Dk..;k..>k..@k
0000b250: 29 83 40 00 00 83 3e 00 03 83 3b 00 00 83 44 00  ).@...>...;...D.
0000b260: 14 93 3b 6b 00 93 3e 6b 00 93 40 6b 00 93 44 6b  ..;k..>k..@k..Dk
0000b270: 73 83 40 00 08 83 3e 00 0e 83 3b 00 03 83 44 00  s.@...>...;...D.
0000b280: 34 93 40 6b 00 93 44 6b 03 93 3e 6b 00 93 3b 6b  4.@k..Dk..>k..;k
0000b290: 61 83 40 00 07 83 3e 00 01 83 44 00 00 83 3b 00  a.@...>...D...;.
0000b2a0: 81 4f 93 3b 6b 00 93 3e 6b 05 93 40 6b 00 93 44  .O.;k..>k..@k..D
0000b2b0: 6b 2b 83 3b 00 05 83 3e 00 00 83 40 00 03 83 44  k+.;...>...@...D
0000b2c0: 00 0d 93 3e 6b 00 93 44 6b 03 93 3b 6b 00 93 40  ...>k..Dk..;k..@
0000b2d0: 6b 58 83 40 00 05 83 3e 00 03 83 3b 00 08 83 44  kX.@...>...;...D
0000b2e0: 00 15 93 44 6b 00 93 3b 6b 00 93 3e 6b 00 93 40  ...Dk..;k..>k..@
0000b2f0: 6b 29 83 40 00 00 83 3e 00 03 83 3b 00 00 83 44  k).@...>...;...D
0000b300: 00 14 93 3b 6b 00 93 3e 6b 00 93 40 6b 00 93 44  ...;k..>k..@k..D
0000b310: 6b 73 83 40 00 08 83 3e 00 0e 83 3b 00 03 83 44  ks.@...>...;...D
0000b320: 00 34 93 40 6b 00 93 44 6b 03 93 3e 6b 00 93 3b  .4.@k..Dk..>k..;
0000b330: 6b 61 83 40 00 07 83 3e 00 01 83 44 00 00 83 3b  ka.@...>...D...;
0000b340: 00 81 54 93 39 6b 00 93 3d 6b 00 93 40 6b 00 93  ..T.9k..=k..@k..
0000b350: 43 6b 28 83 43 00 00 83 3d 00 03 83 40 00 0d 83  Ck(.C...=...@...
0000b360: 39 00 08 93 39 6b 00 93 40 6b 00 93 43 6b 03 93  9...9k..@k..Ck..
0000b370: 3d 6b 5d 83 40 00 03 83 3d 00 00 83 43 00 05 83  =k].@...=...C...
0000b380: 39 00 13 93 39 6b 01 93 3d 6b 04 93 40 6b 00 93  9...9k..=k..@k..
0000b390: 43 6b 1b 83 39 00 05 83 3d 00 03 83 40 00 00 83  Ck..9...=...@...
0000b3a0: 43 00 1d 93 39 6b 00 93 40 6b 03 93 43 6b 05 93  C...9k..@k..Ck..
0000b3b0: 3d 6b 81 00 83 39 00 03 83 3d 00 01 83 40 00 08  =k...9...=...@..
0000b3c0: 83 43 00 2c 93 39 6b 00 93 43 6b 03 93 3d 6b 00  .C.,.9k..Ck..=k.
0000b3d0: 93 40 6b 81 16 83 40 00 00 83 3d 00 08 83 39 00  .@k...@...=...9.
0000b3e0: 02 83 43 00 81 1d 93 39 6b 00 93 40 6b 03 93 3d  ..C....9k..@k..=
0000b3f0: 6b 01 93 43 6b 2c 83 3d 00 01 83 40 00 02 83 39  k..Ck,.=...@...9
0000b400: 00 01 83 43 00 0c 93 3d 6b 03 93 43 6b 05 93 40  ...C...=k..Ck..@
0000b410: 6b 01 93 39 6b 4a 83 3d 00 05 83 43 00 00 83 40  k..9kJ.=...C...@
0000b420: 00 09 83 39 00 20 93 39 6b 02 93 3d 6b 01 93 43  ...9. .9k..=k..C
0000b430: 6b 04 93 40 6b 1c 83 40 00 00 83 3d 00 05 83 43  k..@k..@...=...C
0000b440: 00 02 83 39 00 15 93 40 6b 03 93 3d 6b 00 93 43  ...9...@k..=k..C
0000b450: 6b 05 93 39 6b 81 03 83 3d 00 05 83 40 00 01 83  k..9k...=...@...
0000b460: 39 00 02 83 43 00 2d 93 3d 6b 00 93 40 6b 00 93  9...C.-.=k..@k..
0000b470: 43 6b 03 93 39 6b 81 20 83 39 00 05 83 3d 00 00  Ck..9k. .9...=..
0000b480: 83 40 00 01 83 43 00 81 12 93 3b 6b 00 93 3e 6b  .@...C....;k..>k
0000b490: 05 93 40 6b 00 93 44 6b 2b 83 3b 00 05 83 3e 00  ..@k..Dk+.;...>.
0000b4a0: 00 83 40 00 03 83 44 00 0d 93 3e 6b 00 93 44 6b  ..@...D...>k..Dk
0000b4b0: 03 93 3b 6b 00 93 40 6b 58 83 40 00 05 83 3e 00  ..;k..@kX.@...>.
0000b4c0: 03 83 3b 00 08 83 44 00 15 93 44 6b 00 93 3b 6b  ..;...D...Dk..;k
0000b4d0: 00 93 3e 6b 00 93 40 6b 29 83 40 00 00 83 3e 00  ..>k..@k).@...>.
0000b4e0: 03 83 3b 00 00 83 44 00 14 93 3b 6b 00 93 3e 6b  ..;...D...;k..>k
0000b4f0: 00 93 40 6b 00 93 44 6b 73 83 40 00 08 83 3e 00  ..@k..Dks.@...>.
0000b500: 0e 83 3b 00 03 83 44 00 34 93 40 6b 00 93 44 6b  ..;...D.4.@k..Dk
0000b510: 03 93 3e 6b 00 93 3b 6b 61 83 40 00 07 83 3e 00  ..>k..;ka.@...>.
0000b520: 01 83 44 00 00 83 3b 00 81 4f 93 3b 6b 00 93 3e  ..D...;..O.;k..>
0000b530: 6b 05 93 40 6b 00 93 44 6b 2b 83 3b 00 05 83 3e  k..@k..Dk+.;...>
0000b540: 00 00 83 40 00 03 83 44 00 0d 93 3e 6b 00 93 44  ...@...D...>k..D
0000b550: 6b 03 93 3b 6b 00 93 40 6b 58 83 40 00 05 83 3e  k..;k..@kX.@...>
0000b560: 00 03 83 3b 00 08 83 44 00 15 93 44 6b 00 93 3b  ...;...D...Dk..;
0000b570: 6b 00 93 3e 6b 00 93 40 6b 29 83 40 00 00 83 3e  k..>k..@k).@...>
0000b580: 00 03 83 3b 00 00 83 44 00 14 93 3b 6b 00 93 3e  ...;...D...;k..>
0000b590: 6b 00 93 40 6b 00 93 44 6b 73 83 40 00 08 83 3e  k..@k..Dks.@...>
0000b5a0: 00 0e 83 3b 00 03 83 44 00 34 93 40 6b 00 93 44  ...;...D.4.@k..D
0000b5b0: 6b 03 93 3e 6b 00 93 3b 6b 61 83 40 00 07 83 3e  k..>k..;ka.@...>
0000b5c0: 00 01 83 44 00 00 83 3b 00 81 54 93 45 6b 00 93  ...D...;..T.Ek..
0000b5d0: 3f 6b 00 93 42 6b 01 93 3b 6b 2f 83 3f 00 00 83  ?k..Bk..;k/.?...
0000b5e0: 45 00 01 83 42 00 03 83 3b 00 0c 93 45 6b 03 93  E...B...;...Ek..
0000b5f0: 3b 6b 00 93 3f 6b 00 93 42 6b 58 83 45 00 06 83  ;k..?k..BkX.E...
0000b600: 3f 00 07 83 3b 00 00 83 42 00 18 93 3b 6b 00 93  ?...;...B...;k..
0000b610: 3f 6b 00 93 42 6b 00 93 45 6b 23 83 45 00 05 83  ?k..Bk..Ek#.E...
0000b620: 3f 00 01 83 42 00 02 83 3b 00 15 93 45 6b 01 93  ?...B...;...Ek..
0000b630: 42 6b 02 93 3f 6b 00 93 3b 6b 71 83 3f 00 07 83  Bk..?k..;kq.?...
0000b640: 3b 00 01 83 45 00 05 83 42 00 3f 93 45 6b 03 93  ;...E...B.?.Ek..
0000b650: 3b 6b 00 93 42 6b 00 93 3f 6b 60 83 3f 00 00 83  ;k..Bk..?k`.?...
0000b660: 45 00 05 83 42 00 00 83 3b 00 81 53 93 39 6b 05  E...B...;..S.9k.
0000b670: 93 3d 6b 00 93 40 6b 00 93 43 6b 2b 83 40 00 01  .=k..@k..Ck+.@..
0000b680: 83 3d 00 04 83 39 00 00 83 43 00 10 93 39 6b 00  .=...9...C...9k.
0000b690: 93 3d 6b 01 93 40 6b 00 93 43 6b 68 83 40 00 03  .=k..@k..Ckh.@..
0000b6a0: 83 39 00 00 83 3d 00 04 83 43 00 0b 93 3d 6b 05  .9...=...C...=k.
0000b6b0: 93 40 6b 03 93 39 6b 00 93 43 6b 29 83 40 00 04  .@k..9k..Ck).@..
0000b6c0: 83 3d 00 00 83 39 00 03 83 43 00 0d 93 43 6b 00  .=...9...C...Ck.
0000b6d0: 93 3d 6b 03 93 39 6b 05 93 40 6b 81 01 83 40 00  .=k..9k..@k...@.
0000b6e0: 02 83 39 00 00 83 3d 00 01 83 43 00 34 93 39 6b  ..9...=...C.4.9k
0000b6f0: 00 93 3d 6b 00 93 40 6b 00 93 43 6b 78 83 40 00  ..=k..@k..Ckx.@.
0000b700: 00 83 3d 00 03 83 43 00 05 83 39 00 81 3b 93 3b  ..=...C...9..;.;
0000b710: 6b 00 93 3e 6b 05 93 40 6b 00 93 44 6b 2b 83 3b  k..>k..@k..Dk+.;
0000b720: 00 05 83 3e 00 00 83 40 00 03 83 44 00 0d 93 3e  ...>...@...D...>
0000b730: 6b 00 93 44 6b 03 93 3b 6b 00 93 40 6b 58 83 40  k..Dk..;k..@kX.@
0000b740: 00 05 83 3e 00 00 83 44 00 03 83 3b 00 1d 93 44  ...>...D...;...D
0000b750: 6b 00 93 3b 6b 00 93 3e 6b 00 93 40 6b 29 83 40  k..;k..>k..@k).@
0000b760: 00 00 83 3e 00 03 83 3b 00 00 83 44 00 14 93 3b  ...>...;...D...;
0000b770: 6b 00 93 3e 6b 00 93 40 6b 00 93 44 6b 73 83 40  k..>k..@k..Dks.@
0000b780: 00 08 83 3e 00 0e 83 3b 00 03 83 44 00 34 93 40  ...>...;...D.4.@
0000b790: 6b 00 93 44 6b 03 93 3e 6b 00 93 3b 6b 61 83 40  k..Dk..>k..;ka.@
0000b7a0: 00 07 83 3e 00 01 83 44 00 00 83 3b 00 81 4f 93  ...>...D...;..O.
0000b7b0: 3b 6b 00 93 3e 6b 05 93 40 6b 00 93 44 6b 2b 83  ;k..>k..@k..Dk+.
0000b7c0: 3b 00 05 83 3e 00 00 83 40 00 03 83 44 00 0d 93  ;...>...@...D...
0000b7d0: 3e 6b 00 93 44 6b 03 93 3b 6b 00 93 40 6b 58 83  >k..Dk..;k..@kX.
0000b7e0: 40 00 05 83 3e 00 03 83 3b 00 08 83 44 00 15 93  @...>...;...D...
0000b7f0: 44 6b 00 93 3b 6b 00 93 3e 6b 00 93 40 6b 29 83  Dk..;k..>k..@k).
0000b800: 40 00 00 83 3e 00 03 83 3b 00 00 83 44 00 14 93  @...>...;...D...
0000b810: 42 6b 03 93 3b 6b 00 93 39 6b 00 93 3f 6b 82 48  Bk..;k..9k..?k.H
0000b820: 83 42 00 05 83 3f 00 03 83 3b 00 05 83 39 00 81  .B...?...;...9..
0000b830: 38 93 40 6b 00 93 44 6b 00 93 47 6b 00 93 4a 6b  8.@k..Dk..Gk..Jk
0000b840: 23 83 4a 00 00 83 40 00 05 83 47 00 00 83 44 00  #.J...@...G...D.
0000b850: 18 93 40 6b 00 93 44 6b 00 93 47 6b 01 93 4a 6b  ..@k..Dk..Gk..Jk
0000b860: 57 83 40 00 01 83 44 00 03 83 47 00 05 83 4a 00  W.@...D...G...J.
0000b870: 0f 93 40 6b 00 93 44 6b 00 93 47 6b 00 93 4a 6b  ..@k..Dk..Gk..Jk
0000b880: 23 83 40 00 06 83 44 00 02 83 47 00 01 83 4a 00  #.@...D...G...J.
0000b890: 14 93 4a 6b 00 93 40 6b 00 93 47 6b 03 93 44 6b  ..Jk..@k..Gk..Dk
0000b8a0: 61 83 40 00 07 83 44 00 08 83 4a 00 01 83 47 00  a.@...D...J...G.
0000b8b0: 0c 93 40 6b 00 93 47 6b 00 93 4a 6b 03 93 44 6b  ..@k..Gk..Jk..Dk
0000b8c0: 30 83 40 00 01 83 44 00 04 83 4a 00 00 83 47 00  0.@...D...J...G.
0000b8d0: 08 93 40 6b 00 93 44 6b 00 93 47 6b 00 93 4a 6b  ..@k..Dk..Gk..Jk
0000b8e0: 78 83 40 00 01 83 44 00 02 83 47 00 09 83 4a 00  x.@...D...G...J.
0000b8f0: 81 3c 93 40 6b 00 93 43 6b 00 93 45 6b 00 93 49  .<.@k..Ck..Ek..I
0000b900: 6b 20 83 43 00 01 83 40 00 02 83 45 00 01 83 49  k .C...@...E...I
0000b910: 00 1c 93 49 6b 01 93 40 6b 00 93 43 6b 00 93 45  ...Ik..@k..Ck..E
0000b920: 6b 53 83 45 00 04 83 49 00 00 83 40 00 01 83 43  kS.E...I...@...C
0000b930: 00 27 93 40 6b 00 93 43 6b 00 93 45 6b 00 93 49  .'.@k..Ck..Ek..I
0000b940: 6b 1c 83 43 00 00 83 40 00 04 83 45 00 03 83 49  k..C...@...E...I
0000b950: 00 1d 93 40 6b 00 93 43 6b 01 93 45 6b 02 93 49  ...@k..Ck..Ek..I
0000b960: 6b 70 83 43 00 01 83 45 00 0f 83 49 00 05 83 40  kp.C...E...I...@
0000b970: 00 38 93 43 6b 01 93 40 6b 00 93 45 6b 02 93 49  .8.Ck..@k..Ek..I
0000b980: 6b 50 83 49 00 00 83 45 00 00 83 40 00 05 83 43  kP.I...E...@...C
0000b990: 00 6b 93 3e 6b 00 93 40 6b 00 93 44 6b 00 93 47  .k.>k..@k..Dk..G
0000b9a0: 6b 81 11 83 47 00 04 83 3e 00 01 83 44 00 08 83  k...G...>...D...
0000b9b0: 40 00 1f 93 3e 6b 00 93 47 6b 03 93 40 6b 00 93  @...>k..Gk..@k..
0000b9c0: 44 6b 2d 83 3e 00 08 83 47 00 01 83 40 00 08 83  Dk-.>...G...@...
0000b9d0: 44 00 3f 93 44 6b 00 93 47 6b 01 93 3e 6b 02 93  D.?.Dk..Gk..>k..
0000b9e0: 40 6b 81 15 83 40 00 01 83 47 00 02 83 44 00 01  @k...@...G...D..
0000b9f0: 83 3e 00 20 93 40 6b 04 93 3e 6b 00 93 44 6b 00  .>. .@k..>k..Dk.
0000ba00: 93 47 6b 1c 83 44 00 00 83 3e 00 04 83 40 00 03  .Gk..D...>...@..
0000ba10: 83 47 00 1d 93 40 6b 00 93 47 6b 01 93 3e 6b 00  .G...@k..Gk..>k.
0000ba20: 93 44 6b 81 23 83 40 00 05 83 3e 00 03 83 47 00  .Dk.#.@...>...G.
0000ba30: 05 83 44 00 81 0f 93 3e 6b 00 93 40 6b 00 93 44  ..D....>k..@k..D
0000ba40: 6b 00 93 47 6b 20 83 47 00 03 83 44 00 00 83 3e  k..Gk .G...D...>
0000ba50: 00 0d 83 40 00 0b 93 3e 6b 00 93 40 6b 01 93 44  ...@...>k..@k..D
0000ba60: 6b 00 93 47 6b 58 83 47 00 04 83 3e 00 00 83 40  k..GkX.G...>...@
0000ba70: 00 00 83 44 00 1c 93 44 6b 05 93 3e 6b 02 93 47  ...D...Dk..>k..G
0000ba80: 6b 01 93 40 6b 1c 83 40 00 01 83 47 00 03 83 3e  k..@k..@...G...>
0000ba90: 00 04 83 44 00 20 93 3e 6b 00 93 47 6b 01 93 40  ...D. .>k..Gk..@
0000baa0: 6b 02 93 44 6b 78 83 40 00 00 83 47 00 08 83 44  k..Dkx.@...G...D
0000bab0: 00 01 83 3e 00 3c 93 3e 6b 00 93 44 6b 00 93 47  ...>.<.>k..Dk..G
0000bac0: 6b 03 93 40 6b 78 83 40 00 08 83 44 00 01 83 3e  k..@kx.@...D...>
0000bad0: 00 04 83 47 00 81 38 93 43 6b 00 93 4c 6b 03 93  ...G..8.Ck..Lk..
0000bae0: 45 6b 00 93 49 6b 81 4d 83 49 00 01 83 4c 00 03  Ek..Ik.M.I...L..
0000baf0: 83 45 00 05 83 43 00 27 93 4c 6b 03 93 43 6b 00  .E...C.'.Lk..Ck.
0000bb00: 93 45 6b 05 93 49 6b 82 53 83 45 00 01 83 49 00  .Ek..Ik.S.E...I.
0000bb10: 00 83 4c 00 05 83 43 00 1f 93 45 6b 00 93 43 6b  ..L...C...Ek..Ck
0000bb20: 03 93 49 6b 00 93 4c 6b 82 10 83 45 00 01 83 4c  ..Ik..Lk...E...L
0000bb30: 00 07 83 49 00 05 83 43 00 20 93 43 6b 00 93 45  ...I...C. .Ck..E
0000bb40: 6b 00 93 4c 6b 03 93 49 6b 83 28 83 45 00 05 83  k..Lk..Ik.(.E...
0000bb50: 43 00 00 83 4c 00 00 83 49 00 81 00 93 44 6b 00  C...L...I....Dk.
0000bb60: 93 47 6b 00 93 3e 6b 00 93 40 6b 23 83 47 00 06  .Gk..>k..@k#.G..
0000bb70: 83 44 00 03 83 3e 00 04 83 40 00 13 93 44 6b 05  .D...>...@...Dk.
0000bb80: 93 3e 6b 00 93 40 6b 00 93 47 6b 59 83 3e 00 02  .>k..@k..GkY.>..
0000bb90: 83 47 00 01 83 44 00 05 83 40 00 17 93 3e 6b 00  .G...D...@...>k.
0000bba0: 93 40 6b 00 93 47 6b 01 93 44 6b 1a 83 47 00 00  .@k..Gk..Dk..G..
0000bbb0: 83 3e 00 05 83 40 00 00 83 44 00 30 93 44 6b 00  .>...@...D.0.Dk.
0000bbc0: 93 53 6b 08 93 4c 6b 03 93 4a 6b 82 3d 83 53 00  .Sk..Lk..Jk.=.S.
0000bbd0: 01 83 4a 00 07 83 4c 00 00 83 44 00 33 93 47 6b  ..J...L...D.3.Gk
0000bbe0: 00 93 3e 6b 00 93 44 6b 01 93 40 6b 81 35 83 44  ..>k..Dk..@k.5.D
0000bbf0: 00 00 83 47 00 08 83 40 00 02 83 3e 00 0d 93 44  ...G...@...>...D
0000bc00: 6b 00 93 47 6b 01 93 3e 6b 00 93 40 6b 27 83 3e  k..Gk..>k..@k'.>
0000bc10: 00 01 83 47 00 03 83 44 00 00 83 40 00 44 93 4a  ...G...D...@.D.J
0000bc20: 6b 00 93 4c 6b 00 93 44 6b 00 93 53 6b 81 2b 83  k..Lk..Dk..Sk.+.
0000bc30: 44 00 01 83 53 00 00 83 4c 00 07 83 4a 00 0d 93  D...S...L...J...
0000bc40: 47 6b 00 93 44 6b 03 93 3e 6b 00 93 40 6b 21 83  Gk..Dk..>k..@k!.
0000bc50: 47 00 04 83 44 00 01 83 3e 00 00 83 40 00 17 93  G...D...>...@...
0000bc60: 3e 6b 00 93 40 6b 00 93 44 6b 00 93 47 6b 81 7c  >k..@k..Dk..Gk.|
0000bc70: 83 40 00 04 83 44 00 01 83 3e 00 00 83 47 00 3f  .@...D...>...G.?
0000bc80: 93 42 6b 00 93 45 6b 00 93 47 6b 00 93 4b 6b 40  .Bk..Ek..Gk..Kk@
0000bc90: 83 4b 00 00 83 42 00 00 83 45 00 00 83 47 00 40  .K...B...E...G.@
0000bca0: 93 42 6b 00 93 45 6b 00 93 47 6b 00 93 4b 6b 43  .Bk..Ek..Gk..KkC
0000bcb0: 83 47 00 05 83 42 00 00 83 45 00 04 83 4b 00 34  .G...B...E...K.4
0000bcc0: 93 42 6b 00 93 45 6b 00 93 47 6b 00 93 4b 6b 3b  .Bk..Ek..Gk..Kk;
0000bcd0: 83 47 00 05 83 45 00 08 83 4b 00 03 83 42 00 35  .G...E...K...B.5
0000bce0: 93 42 6b 00 93 45 6b 00 93 47 6b 00 93 4b 6b 40  .Bk..Ek..Gk..Kk@
0000bcf0: 83 4b 00 03 83 45 00 05 83 47 00 00 83 42 00 38  .K...E...G...B.8
0000bd00: 93 42 6b 00 93 45 6b 00 93 47 6b 00 93 4b 6b 70  .Bk..Ek..Gk..Kkp
0000bd10: 83 4b 00 00 83 42 00 03 83 47 00 00 83 45 00 81  .K...B...G...E..
0000bd20: 0d 93 40 6b 00 93 43 6b 00 93 45 6b 00 93 49 6b  ..@k..Ck..Ek..Ik
0000bd30: 50 83 45 00 01 83 43 00 02 83 40 00 00 83 49 00  P.E...C...@...I.
0000bd40: 2d 93 40 6b 00 93 43 6b 00 93 45 6b 00 93 49 6b  -.@k..Ck..Ek..Ik
0000bd50: 33 83 49 00 05 83 45 00 00 83 43 00 03 83 40 00  3.I...E...C...@.
0000bd60: 45 93 4c 6b 00 93 43 6b 00 93 45 6b 00 93 49 6b  E.Lk..Ck..Ek..Ik
0000bd70: 68 83 49 00 00 83 45 00 00 83 43 00 03 83 4c 00  h.I...E...C...L.
0000bd80: 15 93 40 6b 00 93 43 6b 00 93 45 6b 00 93 49 6b  ..@k..Ck..Ek..Ik
0000bd90: 81 6b 83 45 00 05 83 40 00 00 83 43 00 00 83 49  .k.E...@...C...I
0000bda0: 00 81 10 93 40 6b 00 93 3e 6b 00 93 44 6b 00 93  ....@k..>k..Dk..
0000bdb0: 47 6b 2b 83 40 00 05 83 44 00 03 83 3e 00 00 83  Gk+.@...D...>...
0000bdc0: 47 00 0d 93 40 6b 00 93 47 6b 00 93 3e 6b 00 93  G...@k..Gk..>k..
0000bdd0: 44 6b 43 83 44 00 05 83 3e 00 03 83 47 00 00 83  DkC.D...>...G...
0000bde0: 40 00 35 93 3e 6b 00 93 40 6b 00 93 44 6b 00 93  @.5.>k..@k..Dk..
0000bdf0: 47 6b 20 83 40 00 03 83 3e 00 00 83 44 00 00 83  Gk .@...>...D...
0000be00: 47 00 1d 93 4a 6b 00 93 47 6b 00 93 44 6b 01 93  G...Jk..Gk..Dk..
0000be10: 40 6b 82 0b 83 40 00 0c 83 44 00 00 83 4a 00 01  @k...@...D...J..
0000be20: 83 47 00 67 93 42 6b 00 93 47 6b 00 93 4b 6b 03  .G.g.Bk..Gk..Kk.
0000be30: 93 45 6b 59 83 47 00 04 83 4b 00 01 83 45 00 03  .EkY.G...K...E..
0000be40: 83 42 00 1c 93 47 6b 00 93 42 6b 00 93 4b 6b 00  .B...Gk..Bk..Kk.
0000be50: 93 45 6b 3b 83 45 00 00 83 47 00 05 83 4b 00 01  .Ek;.E...G...K..
0000be60: 83 42 00 3f 93 42 6b 00 93 45 6b 00 93 47 6b 00  .B.?.Bk..Ek..Gk.
0000be70: 93 4b 6b 38 83 47 00 00 83 45 00 03 83 4b 00 08  .Kk8.G...E...K..
0000be80: 83 42 00 3d 93 4e 6b 00 93 45 6b 00 93 47 6b 00  .B.=.Nk..Ek..Gk.
0000be90: 93 4b 6b 70 83 4e 00 10 93 42 6b 81 2b 83 47 00  .Kkp.N...Bk.+.G.
0000bea0: 05 83 4b 00 00 83 45 00 00 83 42 00 50 93 3e 6b  ..K...E...B.P.>k
0000beb0: 00 93 40 6b 00 93 44 6b 03 93 3b 6b 55 83 40 00  ..@k..Dk..;kU.@.
0000bec0: 08 83 3e 00 08 83 44 00 08 83 3b 00 10 93 44 6b  ..>...D...;...Dk
0000bed0: 03 93 3b 6b 00 93 3e 6b 00 93 40 6b 28 83 40 00  ..;k..>k..@k(.@.
0000bee0: 05 83 3e 00 00 83 44 00 08 83 3b 00 08 93 3b 6b  ..>...D...;...;k
0000bef0: 00 93 3e 6b 00 93 40 6b 00 93 44 6b 23 83 40 00  ..>k..@k..Dk#.@.
0000bf00: 05 83 3e 00 0b 83 44 00 05 83 3b 00 44 93 3b 6b  ..>...D...;.D.;k
0000bf10: 00 93 40 6b 00 93 3e 6b 00 93 44 6b 81 18 83 40  ..@k..>k..Dk...@
0000bf20: 00 07 83 44 00 00 83 3e 00 01 83 3b 00 24 93 3e  ...D...>...;.$.>
0000bf30: 6b 00 93 3b 6b 00 93 40 6b 00 93 44 6b 18 83 3e  k..;k..@k..Dk..>
0000bf40: 00 03 83 40 00 08 83 44 00 05 83 3b 00 18 93 3b  ...@...D...;...;
0000bf50: 6b 00 93 3e 6b 00 93 40 6b 00 93 44 6b 81 1c 83  k..>k..@k..Dk...
0000bf60: 40 00 04 83 44 00 00 83 3b 00 01 83 3e 00 81 1a  @...D...;...>...
0000bf70: 93 3d 6b 05 93 39 6b 00 93 40 6b 00 93 43 6b 23  .=k..9k..@k..Ck#
0000bf80: 83 40 00 00 83 39 00 05 83 3d 00 00 83 43 00 18  .@...9...=...C..
0000bf90: 93 39 6b 00 93 3d 6b 00 93 40 6b 00 93 43 6b 58  .9k..=k..@k..CkX
0000bfa0: 83 40 00 08 83 3d 00 03 83 43 00 05 83 39 00 14  .@...=...C...9..
0000bfb0: 93 3d 6b 00 93 39 6b 04 93 40 6b 00 93 43 6b 21  .=k..9k..@k..Ck!
0000bfc0: 83 39 00 00 83 3d 00 02 83 40 00 00 83 43 00 1d  .9...=...@...C..
0000bfd0: 93 39 6b 00 93 3d 6b 00 93 43 6b 01 93 40 6b 53  .9k..=k..Ck..@kS
0000bfe0: 83 40 00 07 83 43 00 00 83 3d 00 05 83 39 00 19  .@...C...=...9..
0000bff0: 93 39 6b 02 93 3d 6b 00 93 40 6b 00 93 43 6b 1e  .9k..=k..@k..Ck.
0000c000: 83 3d 00 02 83 40 00 01 83 39 00 00 83 43 00 25  .=...@...9...C.%
0000c010: 93 39 6b 00 93 43 6b 02 93 3d 6b 01 93 40 6b 75  .9k..Ck..=k..@ku
0000c020: 83 3d 00 02 83 40 00 05 83 43 00 00 83 39 00 81  .=...@...C...9..
0000c030: 3b 93 3b 6b 00 93 3e 6b 05 93 40 6b 00 93 44 6b  ;.;k..>k..@k..Dk
0000c040: 2b 83 3b 00 05 83 3e 00 00 83 40 00 03 83 44 00  +.;...>...@...D.
0000c050: 0d 93 3e 6b 00 93 44 6b 03 93 3b 6b 00 93 40 6b  ..>k..Dk..;k..@k
0000c060: 58 83 40 00 05 83 3e 00 03 83 3b 00 08 83 44 00  X.@...>...;...D.
0000c070: 15 93 44 6b 00 93 3b 6b 00 93 3e 6b 00 93 40 6b  ..Dk..;k..>k..@k
0000c080: 29 83 40 00 00 83 3e 00 03 83 3b 00 00 83 44 00  ).@...>...;...D.
0000c090: 14 93 3b 6b 00 93 3e 6b 00 93 40 6b 00 93 44 6b  ..;k..>k..@k..Dk
0000c0a0: 73 83 40 00 08 83 3e 00 0e 83 3b 00 03 83 44 00  s.@...>...;...D.
0000c0b0: 34 93 40 6b 00 93 44 6b 03 93 3e 6b 00 93 3b 6b  4.@k..Dk..>k..;k
0000c0c0: 61 83 40 00 07 83 3e 00 01 83 44 00 00 83 3b 00  a.@...>...D...;.
0000c0d0: 81 4f 93 3b 6b 00 93 3e 6b 05 93 40 6b 00 93 44  .O.;k..>k..@k..D
0000c0e0: 6b 2b 83 3b 00 05 83 3e 00 00 83 40 00 03 83 44  k+.;...>...@...D
0000c0f0: 00 0d 93 3e 6b 00 93 44 6b 03 93 3b 6b 00 93 40  ...>k..Dk..;k..@
0000c100: 6b 58 83 40 00 05 83 3e 00 03 83 3b 00 08 83 44  kX.@...>...;...D
0000c110: 00 15 93 44 6b 00 93 3b 6b 00 93 3e 6b 00 93 40  ...Dk..;k..>k..@
0000c120: 6b 29 83 40 00 00 83 3e 00 03 83 3b 00 00 83 44  k).@...>...;...D
0000c130: 00 14 93 3b 6b 00 93 3e 6b 00 93 40 6b 00 93 44  ...;k..>k..@k..D
0000c140: 6b 73 83 40 00 08 83 3e 00 0e 83 3b 00 03 83 44  ks.@...>...;...D
0000c150: 00 34 93 40 6b 00 93 44 6b 03 93 3e 6b 00 93 3b  .4.@k..Dk..>k..;
0000c160: 6b 61 83 40 00 07 83 3e 00 01 83 44 00 00 83 3b  ka.@...>...D...;
0000c170: 00 81 54 93 39 6b 00 93 3d 6b 00 93 40 6b 00 93  ..T.9k..=k..@k..
0000c180: 43 6b 28 83 43 00 00 83 3d 00 03 83 40 00 0d 83  Ck(.C...=...@...
0000c190: 39 00 08 93 39 6b 00 93 40 6b 00 93 43 6b 03 93  9...9k..@k..Ck..
0000c1a0: 3d 6b 5d 83 40 00 03 83 3d 00 00 83 43 00 05 83  =k].@...=...C...
0000c1b0: 39 00 13 93 39 6b 01 93 3d 6b 04 93 40 6b 00 93  9...9k..=k..@k..
0000c1c0: 43 6b 1b 83 39 00 05 83 3d 00 03 83 40 00 00 83  Ck..9...=...@...
0000c1d0: 43 00 1d 93 39 6b 00 93 40 6b 03 93 43 6b 05 93  C...9k..@k..Ck..
0000c1e0: 3d 6b 81 00 83 39 00 03 83 3d 00 01 83 40 00 08  =k...9...=...@..
0000c1f0: 83 43 00 2c 93 39 6b 00 93 43 6b 03 93 3d 6b 00  .C.,.9k..Ck..=k.
0000c200: 93 40 6b 81 16 83 40 00 00 83 3d 00 08 83 39 00  .@k...@...=...9.
0000c210: 02 83 43 00 81 1d 93 39 6b 00 93 40 6b 03 93 3d  ..C....9k..@k..=
0000c220: 6b 01 93 43 6b 2c 83 3d 00 01 83 40 00 02 83 39  k..Ck,.=...@...9
0000c230: 00 01 83 43 00 0c 93 3d 6b 03 93 43 6b 05 93 40  ...C...=k..Ck..@
0000c240: 6b 01 93 39 6b 4a 83 3d 00 05 83 43 00 00 83 40  k..9kJ.=...C...@
0000c250: 00 09 83 39 00 20 93 39 6b 02 93 3d 6b 01 93 43  ...9. .9k..=k..C
0000c260: 6b 04 93 40 6b 1c 83 40 00 00 83 3d 00 05 83 43  k..@k..@...=...C
0000c270: 00 02 83 39 00 15 93 40 6b 03 93 3d 6b 00 93 43  ...9...@k..=k..C
0000c280: 6b 05 93 39 6b 81 03 83 3d 00 05 83 40 00 01 83  k..9k...=...@...
0000c290: 39 00 02 83 43 00 2d 93 3d 6b 00 93 40 6b 00 93  9...C.-.=k..@k..
0000c2a0: 43 6b 03 93 39 6b 81 20 83 39 00 05 83 3d 00 00  Ck..9k. .9...=..
0000c2b0: 83 40 00 01 83 43 00 81 12 93 3b 6b 00 93 3e 6b  .@...C....;k..>k
0000c2c0: 05 93 40 6b 00 93 44 6b 2b 83 3b 00 05 83 3e 00  ..@k..Dk+.;...>.
0000c2d0: 00 83 40 00 03 83 44 00 0d 93 3e 6b 00 93 44 6b  ..@...D...>k..Dk
0000c2e0: 03 93 3b 6b 00 93 40 6b 58 83 40 00 05 83 3e 00  ..;k..@kX.@...>.
0000c2f0: 03 83 3b 00 08 83 44 00 15 93 44 6b 00 93 3b 6b  ..;...D...Dk..;k
0000c300: 00 93 3e 6b 00 93 40 6b 29 83 40 00 00 83 3e 00  ..>k..@k).@...>.
0000c310: 03 83 3b 00 00 83 44 00 14 93 3b 6b 00 93 3e 6b  ..;...D...;k..>k
0000c320: 00 93 40 6b 00 93 44 6b 73 83 40 00 08 83 3e 00  ..@k..Dks.@...>.
0000c330: 0e 83 3b 00 03 83 44 00 34 93 40 6b 00 93 44 6b  ..;...D.4.@k..Dk
0000c340: 03 93 3e 6b 00 93 3b 6b 61 83 40 00 07 83 3e 00  ..>k..;ka.@...>.
0000c350: 01 83 44 00 00 83 3b 00 81 4f 93 3b 6b 00 93 3e  ..D...;..O.;k..>
0000c360: 6b 05 93 40 6b 00 93 44 6b 2b 83 3b 00 05 83 3e  k..@k..Dk+.;...>
0000c370: 00 00 83 40 00 03 83 44 00 0d 93 3e 6b 00 93 44  ...@...D...>k..D
0000c380: 6b 03 93 3b 6b 00 93 40 6b 58 83 40 00 05 83 3e  k..;k..@kX.@...>
0000c390: 00 03 83 3b 00 08 83 44 00 15 93 44 6b 00 93 3b  ...;...D...Dk..;
0000c3a0: 6b 00 93 3e 6b 00 93 40 6b 29 83 40 00 00 83 3e  k..>k..@k).@...>
0000c3b0: 00 03 83 3b 00 00 83 44 00 14 93 3b 6b 00 93 3e  ...;...D...;k..>
0000c3c0: 6b 00 93 40 6b 00 93 44 6b 73 83 40 00 08 83 3e  k..@k..Dks.@...>
0000c3d0: 00 0e 83 3b 00 03 83 44 00 34 93 40 6b 00 93 44  ...;...D.4.@k..D
0000c3e0: 6b 03 93 3e 6b 00 93 3b 6b 61 83 40 00 07 83 3e  k..>k..;ka.@...>
0000c3f0: 00 01 83 44 00 00 83 3b 00 81 54 93 45 6b 00 93  ...D...;..T.Ek..
0000c400: 3f 6b 00 93 42 6b 01 93 3b 6b 2f 83 3f 00 00 83  ?k..Bk..;k/.?...
0000c410: 45 00 01 83 42 00 03 83 3b 00 0c 93 45 6b 03 93  E...B...;...Ek..
0000c420: 3b 6b 00 93 3f 6b 00 93 42 6b 58 83 45 00 06 83  ;k..?k..BkX.E...
0000c430: 3f 00 07 83 3b 00 00 83 42 00 18 93 3b 6b 00 93  ?...;...B...;k..
0000c440: 3f 6b 00 93 42 6b 00 93 45 6b 23 83 45 00 05 83  ?k..Bk..Ek#.E...
0000c450: 3f 00 01 83 42 00 02 83 3b 00 15 93 45 6b 01 93  ?...B...;...Ek..
0000c460: 42 6b 02 93 3f 6b 00 93 3b 6b 71 83 3f 00 07 83  Bk..?k..;kq.?...
0000c470: 3b 00 01 83 45 00 05 83 42 00 3f 93 45 6b 03 93  ;...E...B.?.Ek..
0000c480: 3b 6b 00 93 42 6b 00 93 3f 6b 60 83 3f 00 00 83  ;k..Bk..?k`.?...
0000c490: 45 00 05 83 42 00 00 83 3b 00 81 53 93 39 6b 05  E...B...;..S.9k.
0000c4a0: 93 3d 6b 00 93 40 6b 00 93 43 6b 2b 83 40 00 01  .=k..@k..Ck+.@..
0000c4b0: 83 3d 00 04 83 39 00 00 83 43 00 10 93 39 6b 00  .=...9...C...9k.
0000c4c0: 93 3d 6b 01 93 40 6b 00 93 43 6b 68 83 40 00 03  .=k..@k..Ckh.@..
0000c4d0: 83 39 00 00 83 3d 00 04 83 43 00 0b 93 3d 6b 05  .9...=...C...=k.
0000c4e0: 93 40 6b 03 93 39 6b 00 93 43 6b 29 83 40 00 04  .@k..9k..Ck).@..
0000c4f0: 83 3d 00 00 83 39 00 03 83 43 00 0d 93 43 6b 00  .=...9...C...Ck.
0000c500: 93 3d 6b 03 93 39 6b 05 93 40 6b 81 01 83 40 00  .=k..9k..@k...@.
0000c510: 02 83 39 00 00 83 3d 00 01 83 43 00 34 93 39 6b  ..9...=...C.4.9k
0000c520: 00 93 3d 6b 00 93 40 6b 00 93 43 6b 78 83 40 00  ..=k..@k..Ckx.@.
0000c530: 00 83 3d 00 03 83 43 00 05 83 39 00 81 3b 93 3b  ..=...C...9..;.;
0000c540: 6b 00 93 3e 6b 05 93 40 6b 00 93 44 6b 2b 83 3b  k..>k..@k..Dk+.;
0000c550: 00 05 83 3e 00 00 83 40 00 03 83 44 00 0d 93 3e  ...>...@...D...>
0000c560: 6b 00 93 44 6b 03 93 3b 6b 00 93 40 6b 58 83 40  k..Dk..;k..@kX.@
0000c570: 00 05 83 3e 00 00 83 44 00 03 83 3b 00 1d 93 44  ...>...D...;...D
0000c580: 6b 00 93 3b 6b 00 93 3e 6b 00 93 40 6b 29 83 40  k..;k..>k..@k).@
0000c590: 00 00 83 3e 00 03 83 3b 00 00 83 44 00 14 93 3b  ...>...;...D...;
0000c5a0: 6b 00 93 3e 6b 00 93 40 6b 00 93 44 6b 73 83 40  k..>k..@k..Dks.@
0000c5b0: 00 08 83 3e 00 0e 83 3b 00 03 83 44 00 34 93 40  ...>...;...D.4.@
0000c5c0: 6b 00 93 44 6b 03 93 3e 6b 00 93 3b 6b 61 83 40  k..Dk..>k..;ka.@
0000c5d0: 00 07 83 3e 00 01 83 44 00 00 83 3b 00 81 4f 93  ...>...D...;..O.
0000c5e0: 3b 6b 00 93 3e 6b 05 93 40 6b 00 93 44 6b 2b 83  ;k..>k..@k..Dk+.
0000c5f0: 3b 00 05 83 3e 00 00 83 40 00 03 83 44 00 0d 93  ;...>...@...D...
0000c600: 3e 6b 00 93 44 6b 03 93 3b 6b 00 93 40 6b 58 83  >k..Dk..;k..@kX.
0000c610: 40 00 05 83 3e 00 03 83 3b 00 08 83 44 00 15 93  @...>...;...D...
0000c620: 44 6b 00 93 3b 6b 00 93 3e 6b 00 93 40 6b 29 83  Dk..;k..>k..@k).
0000c630: 40 00 00 83 3e 00 03 83 3b 00 00 83 44 00 14 93  @...>...;...D...
0000c640: 42 6b 03 93 3b 6b 00 93 39 6b 00 93 3f 6b 82 48  Bk..;k..9k..?k.H
0000c650: 83 42 00 05 83 3f 00 03 83 3b 00 05 83 39 00 28  .B...?...;...9.(
0000c660: 93 3e 6b 00 93 44 6b 00 93 47 6b 03 93 40 6b 81  .>k..Dk..Gk..@k.
0000c670: 08 83 47 00 00 83 44 00 05 83 40 00 01 83 3e 00  ..G...D...@...>.
0000c680: 08 93 3e 6b 02 93 40 6b 00 93 44 6b 00 93 47 6b  ..>k..@k..Dk..Gk
0000c690: 21 83 3e 00 04 83 40 00 00 83 44 00 01 83 47 00  !.>...@...D...G.
0000c6a0: 07 93 44 6b 00 93 47 6b 01 93 3e 6b 00 93 40 6b  ..Dk..Gk..>k..@k
0000c6b0: 42 83 44 00 01 83 47 00 00 83 40 00 05 83 3e 00  B.D...G...@...>.
0000c6c0: 2f 93 3e 6b 00 93 40 6b 00 93 44 6b 00 93 47 6b  /.>k..@k..Dk..Gk
0000c6d0: 81 1b 83 47 00 01 83 44 00 04 83 3e 00 03 83 40  ...G...D...>...@
0000c6e0: 00 1d 93 40 6b 00 93 44 6b 00 93 3e 6b 00 93 47  ...@k..Dk..>k..G
0000c6f0: 6b 20 83 3e 00 03 83 47 00 00 83 40 00 05 83 44  k .>...G...@...D
0000c700: 00 18 93 3e 6b 00 93 40 6b 00 93 44 6b 00 93 47  ...>k..@k..Dk..G
0000c710: 6b 78 83 40 00 08 83 47 00 08 83 44 00 01 83 3e  kx.@...G...D...>
0000c720: 00 81 22 93 49 6b 05 93 40 6b 00 93 43 6b 00 93  ..".Ik..@k..Ck..
0000c730: 45 6b 21 83 45 00 08 83 43 00 00 83 49 00 02 83  Ek!.E...C...I...
0000c740: 40 00 25 93 43 6b 00 93 40 6b 00 93 49 6b 00 93  @.%.Ck..@k..Ik..
0000c750: 45 6b 49 83 45 00 07 83 43 00 08 83 49 00 00 83  EkI.E...C...I...
0000c760: 40 00 18 93 45 6b 00 93 43 6b 00 93 49 6b 03 93  @...Ek..Ck..Ik..
0000c770: 40 6b 15 83 43 00 04 83 45 00 07 83 40 00 05 83  @k..C...E...@...
0000c780: 49 00 23 93 49 6b 00 93 40 6b 08 93 43 6b 00 93  I.#.Ik..@k..Ck..
0000c790: 45 6b 81 08 83 45 00 00 83 43 00 06 83 49 00 02  Ek...E...C...I..
0000c7a0: 83 40 00 2d 93 45 6b 00 93 43 6b 00 93 49 6b 00  .@.-.Ek..Ck..Ik.
0000c7b0: 93 40 6b 73 83 40 00 08 83 45 00 05 83 43 00 0c  .@ks.@...E...C..
0000c7c0: 83 49 00 34 93 4a 6b 00 93 47 6b 01 93 44 6b 12  .I.4.Jk..Gk..Dk.
0000c7d0: 83 4a 00 05 93 4c 6b 13 83 4c 00 05 93 4a 6b 13  .J...Lk..L...Jk.
0000c7e0: 83 4a 00 05 93 4c 6b 13 83 4c 00 0d 93 4a 6b 1b  .J...Lk..L...Jk.
0000c7f0: 93 4c 6b 81 0d 83 4c 00 10 93 4e 6b 0b 83 4e 00  .Lk...L...Nk..N.
0000c800: 05 93 4f 6b 0b 83 4f 00 05 93 50 6b 0b 83 50 00  ..Ok..O...Pk..P.
0000c810: 05 93 51 6b 0b 83 51 00 05 93 53 6b 0b 83 53 00  ..Qk..Q...Sk..S.
0000c820: 15 93 5f 6b 3b 83 4a 00 00 83 47 00 05 83 44 00  .._k;.J...G...D.
0000c830: 00 83 5f 00 40 93 44 6b 00 93 47 6b 03 93 3e 6b  .._.@.Dk..Gk..>k
0000c840: 00 93 40 6b 20 83 40 00 00 83 44 00 05 83 3e 00  ..@k .@...D...>.
0000c850: 00 83 47 00 18 93 3e 6b 00 93 40 6b 00 93 44 6b  ..G...>k..@k..Dk
0000c860: 00 93 47 6b 6b 83 3e 00 05 83 40 00 00 83 44 00  ..Gkk.>...@...D.
0000c870: 00 83 47 00 10 93 3e 6b 00 93 40 6b 00 93 44 6b  ..G...>k..@k..Dk
0000c880: 00 93 47 6b 2b 83 44 00 00 83 3e 00 00 83 40 00  ..Gk+.D...>...@.
0000c890: 05 83 47 00 10 93 3e 6b 00 93 40 6b 03 93 44 6b  ..G...>k..@k..Dk
0000c8a0: 00 93 47 6b 81 25 83 44 00 00 83 3e 00 03 83 40  ..Gk.%.D...>...@
0000c8b0: 00 05 83 47 00 10 93 3e 6b 00 93 44 6b 00 93 47  ...G...>k..Dk..G
0000c8c0: 6b 00 93 4c 6b 70 83 4c 00 00 83 3e 00 00 83 44  k..Lkp.L...>...D
0000c8d0: 00 00 83 47 00 10 93 3e 6b 00 93 47 6b 03 93 40  ...G...>k..Gk..@
0000c8e0: 6b 00 93 44 6b 82 2e 83 40 00 07 83 44 00 01 83  k..Dk...@...D...
0000c8f0: 47 00 02 83 3e 00 81 05 93 3d 6b 00 93 43 6b 01  G...>....=k..Ck.
0000c900: 93 40 6b 02 93 45 6b 7e 83 40 00 12 83 45 00 01  .@k..Ek~.@...E..
0000c910: 83 43 00 00 83 3d 00 2c 93 3d 6b 00 93 43 6b 00  .C...=.,.=k..Ck.
0000c920: 93 45 6b 01 93 40 6b 67 83 3d 00 03 83 40 00 05  .Ek..@kg.=...@..
0000c930: 83 45 00 00 83 43 00 10 93 3d 6b 00 93 40 6b 00  .E...C...=k..@k.
0000c940: 93 45 6b 03 93 43 6b 81 08 83 43 00 01 83 45 00  .Ek..Ck...C...E.
0000c950: 00 83 40 00 04 83 3d 00 30 93 3d 6b 00 93 43 6b  ..@...=.0.=k..Ck
0000c960: 00 93 45 6b 03 93 40 6b 1d 83 43 00 03 83 3d 00  ..Ek..@k..C...=.
0000c970: 00 83 45 00 00 83 40 00 1d 93 3d 6b 00 93 40 6b  ..E...@...=k..@k
0000c980: 00 93 43 6b 00 93 45 6b 81 18 83 3d 00 14 83 40  ..Ck..Ek...=...@
0000c990: 00 04 83 45 00 03 83 43 00 81 0d 93 40 6b 00 93  ...E...C....@k..
0000c9a0: 43 6b 00 93 49 6b 00 93 45 6b 33 83 40 00 01 83  Ck..Ik..Ek3.@...
0000c9b0: 45 00 00 83 49 00 04 83 43 00 08 93 49 6b 03 93  E...I...C...Ik..
0000c9c0: 40 6b 00 93 43 6b 00 93 45 6b 5d 83 43 00 00 83  @k..Ck..Ek].C...
0000c9d0: 40 00 03 83 49 00 00 83 45 00 1d 93 40 6b 00 93  @...I...E...@k..
0000c9e0: 43 6b 00 93 45 6b 00 93 49 6b 20 83 40 00 03 83  Ck..Ek..Ik .@...
0000c9f0: 43 00 05 83 45 00 01 83 49 00 17 93 40 6b 00 93  C...E...I...@k..
0000ca00: 45 6b 00 93 49 6b 03 93 43 6b 81 05 83 43 00 00  Ek..Ik..Ck...C..
0000ca10: 83 40 00 01 83 45 00 0b 83 49 00 2c 93 40 6b 00  .@...E...I.,.@k.
0000ca20: 93 45 6b 01 93 49 6b 02 93 43 6b 81 19 83 45 00  .Ek..Ik..Ck...E.
0000ca30: 04 83 40 00 00 83 43 00 09 83 49 00 17 93 44 6b  ..@...C...I...Dk
0000ca40: 03 93 40 6b 00 93 47 6b 00 93 4a 6b 85 36 83 4a  ..@k..Gk..Jk.6.J
0000ca50: 00 08 83 40 00 07 83 47 00 01 83 44 00 37 93 3e  ...@...G...D.7.>
0000ca60: 6b 03 93 44 6b 00 93 47 6b 05 93 40 6b 85 20 83  k..Dk..Gk..@k. .
0000ca70: 40 00 03 83 3e 00 08 83 44 00 01 83 47 00 4c 93  @...>...D...G.L.
0000ca80: 42 6b 00 93 45 6b 03 93 3f 6b 00 93 47 6b 81 38  Bk..Ek..?k..Gk.8
0000ca90: 83 3f 00 00 83 42 00 00 83 45 00 05 83 47 00 40  .?...B...E...G.@
0000caa0: 93 3f 6b 00 93 42 6b 00 93 45 6b 00 93 47 6b 68  .?k..Bk..Ek..Gkh
0000cab0: 83 47 00 00 83 3f 00 00 83 42 00 00 83 45 00 18  .G...?...B...E..
0000cac0: 93 3f 6b 00 93 47 6b 03 93 42 6b 00 93 45 6b 4d  .?k..Gk..Bk..EkM
0000cad0: 83 42 00 03 83 3f 00 00 83 47 00 00 83 45 00 2d  .B...?...G...E.-
0000cae0: 93 3f 6b 00 93 42 6b 00 93 45 6b 00 93 47 6b 38  .?k..Bk..Ek..Gk8
0000caf0: 83 47 00 00 83 45 00 00 83 3f 00 03 83 42 00 41  .G...E...?...B.A
0000cb00: 93 3f 6b 00 93 42 6b 04 93 47 6b 00 93 45 6b 6b  .?k..Bk..Gk..Ekk
0000cb10: 83 42 00 05 83 47 00 03 83 3f 00 00 83 45 00 0d  .B...G...?...E..
0000cb20: 93 43 6b 00 93 45 6b 00 93 49 6b 03 93 40 6b 58  .Ck..Ek..Ik..@kX
0000cb30: 83 45 00 05 83 40 00 00 83 49 00 08 83 43 00 18  .E...@...I...C..
0000cb40: 93 40 6b 00 93 43 6b 00 93 45 6b 00 93 49 6b 4b  .@k..Ck..Ek..IkK
0000cb50: 83 45 00 00 83 40 00 06 83 43 00 03 83 49 00 2c  .E...@...C...I.,
0000cb60: 93 40 6b 00 93 45 6b 00 93 49 6b 01 93 43 6b 42  .@k..Ek..Ik..CkB
0000cb70: 83 45 00 05 83 40 00 00 83 43 00 04 83 49 00 34  .E...@...C...I.4
0000cb80: 93 40 6b 00 93 43 6b 00 93 49 6b 03 93 45 6b 3e  .@k..Ck..Ik..Ek>
0000cb90: 83 45 00 07 83 40 00 01 83 43 00 02 83 49 00 30  .E...@...C...I.0
0000cba0: 93 40 6b 05 93 43 6b 00 93 45 6b 00 93 49 6b 63  .@k..Ck..Ek..Ikc
0000cbb0: 83 45 00 06 83 49 00 00 83 43 00 02 83 40 00 15  .E...I...C...@..
0000cbc0: 93 40 6b 00 93 43 6b 00 93 45 6b 00 93 49 6b 59  .@k..Ck..Ek..IkY
0000cbd0: 83 45 00 02 83 43 00 01 83 40 00 05 83 49 00 81  .E...C...@...I..
0000cbe0: 5f 93 47 6b 00 93 4a 6b 00 93 4c 6b 03 93 44 6b  _.Gk..Jk..Lk..Dk
0000cbf0: 69 83 4c 00 00 83 47 00 04 83 44 00 01 83 4a 00  i.L...G...D...J.
0000cc00: 1f 93 44 6b 00 93 47 6b 00 93 4a 6b 00 93 4c 6b  ..Dk..Gk..Jk..Lk
0000cc10: 18 83 47 00 03 83 44 00 00 83 4c 00 01 83 4a 00  ..G...D...L...J.
0000cc20: 14 93 4a 6b 00 93 4c 6b 03 93 44 6b 00 93 47 6b  ..Jk..Lk..Dk..Gk
0000cc30: 82 50 83 4a 00 05 83 47 00 00 83 44 00 03 83 4c  .P.J...G...D...L
0000cc40: 00 25 93 4a 6b 00 93 4c 6b 03 93 4e 6b 00 93 53  .%.Jk..Lk..Nk..S
0000cc50: 6b 82 50 83 4e 00 00 83 4a 00 00 83 4c 00 05 83  k.P.N...J...L...
0000cc60: 53 00 23 93 4b 6b 05 93 47 6b 03 93 42 6b 2d 93  S.#.Kk..Gk..Bk-.
0000cc70: 45 6b 82 40 83 45 00 00 83 4b 00 00 83 47 00 00  Ek.@.E...K...G..
0000cc80: 83 42 00 81 50 93 40 6b 00 93 3b 6b 01 93 3e 6b  .B..P.@k..;k..>k
0000cc90: 02 93 38 6b 69 83 38 00 07 83 3b 00 01 83 3e 00  ..8ki.8...;...>.
0000cca0: 04 83 40 00 44 93 3b 6b 04 93 40 6b 01 93 38 6b  ..@.D.;k..@k..8k
0000ccb0: 00 93 3e 6b 82 40 83 38 00 08 83 3b 00 02 83 40  ..>k.@.8...;...@
0000ccc0: 00 01 83 3e 00 81 34 93 37 6b 00 93 39 6b 00 93  ...>..4.7k..9k..
0000ccd0: 3d 6b 03 93 40 6b 1d 83 3d 00 00 83 37 00 03 83  =k..@k..=...7...
0000cce0: 40 00 05 83 39 00 18 93 40 6b 00 93 39 6b 00 93  @...9...@k..9k..
0000ccf0: 3d 6b 03 93 37 6b 5d 83 3d 00 00 83 39 00 03 83  =k..7k].=...9...
0000cd00: 37 00 05 83 40 00 0b 93 3d 6b 06 93 39 6b 02 93  7...@...=k..9k..
0000cd10: 40 6b 01 93 37 6b 17 83 37 00 05 83 39 00 03 83  @k..7k..7...9...
0000cd20: 3d 00 05 83 40 00 20 93 40 6b 00 93 39 6b 00 93  =...@. .@k..9k..
0000cd30: 3d 6b 03 93 37 6b 82 3d 83 37 00 03 83 40 00 00  =k..7k.=.7...@..
0000cd40: 83 39 00 09 83 3d 00 81 2f 93 3b 6b 01 93 40 6b  .9...=../.;k..@k
0000cd50: 00 93 3e 6b 04 93 38 6b 29 83 3e 00 02 83 3b 00  ..>k..8k).>...;.
0000cd60: 00 83 40 00 00 83 38 00 15 93 40 6b 00 93 38 6b  ..@...8...@k..8k
0000cd70: 01 93 3b 6b 02 93 3e 6b 40 83 38 00 06 83 40 00  ..;k..>k@.8...@.
0000cd80: 02 83 3b 00 08 83 3e 00 29 93 3b 6b 00 93 3e 6b  ..;...>.).;k..>k
0000cd90: 00 93 40 6b 00 93 38 6b 1f 83 40 00 05 83 38 00  ..@k..8k..@...8.
0000cda0: 03 83 3b 00 01 83 3e 00 1c 93 40 6b 00 93 3e 6b  ..;...>...@k..>k
0000cdb0: 01 93 38 6b 00 93 3b 6b 81 67 83 38 00 08 83 40  ..8k..;k.g.8...@
0000cdc0: 00 04 83 3b 00 04 83 3e 00 82 03 93 44 6b 00 93  ...;...>....Dk..
0000cdd0: 47 6b 05 93 4a 6b 01 93 40 6b 1a 83 40 00 01 83  Gk..Jk..@k..@...
0000cde0: 44 00 04 83 47 00 01 83 4a 00 1b 93 47 6b 00 93  D...G...J...Gk..
0000cdf0: 4a 6b 04 93 40 6b 03 93 44 6b 55 83 44 00 00 83  Jk..@k..DkU.D...
0000ce00: 40 00 00 83 47 00 03 83 4a 00 21 93 4a 6b 04 93  @...G...J.!.Jk..
0000ce10: 44 6b 00 93 47 6b 01 93 40 6b 1b 83 40 00 04 83  Dk..Gk..@k..@...
0000ce20: 44 00 01 83 47 00 00 83 4a 00 1f 93 44 6b 00 93  D...G...J...Dk..
0000ce30: 47 6b 03 93 40 6b 00 93 4a 6b 82 10 83 44 00 05  Gk..@k..Jk...D..
0000ce40: 83 4a 00 00 83 40 00 01 83 47 00 81 62 93 40 6b  .J...@...G..b.@k
0000ce50: 05 93 3d 6b 00 93 43 6b 00 93 45 6b 1b 83 45 00  ..=k..Ck..Ek..E.
0000ce60: 08 83 40 00 05 83 43 00 00 83 3d 00 18 93 43 6b  ..@...C...=...Ck
0000ce70: 01 93 3d 6b 02 93 45 6b 00 93 40 6b 48 83 40 00  ..=k..Ek..@kH.@.
0000ce80: 00 83 45 00 05 83 3d 00 00 83 43 00 2c 93 3d 6b  ..E...=...C.,.=k
0000ce90: 04 93 43 6b 00 93 40 6b 01 93 45 6b 17 83 40 00  ..Ck..@k..Ek..@.
0000cea0: 01 83 3d 00 02 83 45 00 01 83 43 00 20 93 43 6b  ..=...E...C. .Ck
0000ceb0: 04 93 3d 6b 00 93 40 6b 01 93 45 6b 18 83 45 00  ..=k..@k..Ek..E.
0000cec0: 00 83 3d 00 02 83 40 00 01 83 43 00 24 93 3d 6b  ..=...@...C.$.=k
0000ced0: 00 93 40 6b 00 93 43 6b 00 93 45 6b 18 83 40 00  ..@k..Ck..Ek..@.
0000cee0: 03 83 3d 00 00 83 45 00 05 83 43 00 20 93 3d 6b  ..=...E...C. .=k
0000cef0: 00 93 40 6b 00 93 43 6b 00 93 45 6b 13 83 45 00  ..@k..Ck..Ek..E.
0000cf00: 00 83 40 00 08 83 43 00 05 83 3d 00 1b 93 3d 6b  ..@...C...=...=k
0000cf10: 05 93 43 6b 01 93 40 6b 00 93 45 6b 77 83 40 00  ..Ck..@k..Ekw.@.
0000cf20: 01 83 3d 00 02 83 43 00 01 83 45 00 81 44 93 37  ..=...C...E..D.7
0000cf30: 6b 00 93 39 6b 00 93 3d 6b 01 93 40 6b 27 83 39  k..9k..=k..@k'.9
0000cf40: 00 00 83 37 00 01 83 40 00 02 83 3d 00 15 93 37  ...7...@...=...7
0000cf50: 6b 00 93 39 6b 00 93 40 6b 01 93 3d 6b 4f 83 37  k..9k..@k..=kO.7
0000cf60: 00 03 83 39 00 00 83 40 00 05 83 3d 00 24 93 40  ...9...@...=.$.@
0000cf70: 6b 04 93 37 6b 00 93 3d 6b 01 93 39 6b 1a 83 37  k..7k..=k..9k..7
0000cf80: 00 05 83 40 00 00 83 3d 00 00 83 39 00 21 93 3d  ...@...=...9.!.=
0000cf90: 6b 02 93 37 6b 01 93 39 6b 00 93 40 6b 81 38 83  k..7k..9k..@k.8.
0000cfa0: 37 00 05 83 3d 00 00 83 40 00 02 83 39 00 82 3d  7...=...@...9..=
0000cfb0: 93 34 6b 00 93 38 6b 00 93 3b 6b 00 93 3e 6b 24  .4k..8k..;k..>k$
0000cfc0: 83 3e 00 00 83 34 00 00 83 38 00 05 83 3b 00 17  .>...4...8...;..
0000cfd0: 93 34 6b 01 93 3b 6b 00 93 38 6b 00 93 3e 6b 2b  .4k..;k..8k..>k+
0000cfe0: 83 38 00 08 83 3b 00 04 83 34 00 04 83 3e 00 44  .8...;...4...>.D
0000cff0: 93 34 6b 00 93 38 6b 00 93 3b 6b 03 93 3e 6b 1d  .4k..8k..;k..>k.
0000d000: 83 34 00 03 83 38 00 00 83 3b 00 00 83 3e 00 1d  .4...8...;...>..
0000d010: 93 34 6b 00 93 38 6b 01 93 3e 6b 00 93 3b 6b 81  .4k..8k..>k..;k.
0000d020: 00 83 38 00 07 83 3b 00 04 83 3e 00 07 83 34 00  ..8...;...>...4.
0000d030: 2d 93 34 6b 00 93 38 6b 00 93 3b 6b 00 93 3e 6b  -.4k..8k..;k..>k
0000d040: 5c 83 3b 00 00 83 38 00 07 83 3e 00 05 83 34 00  \.;...8...>...4.
0000d050: 18 93 34 6b 00 93 3b 6b 00 93 3e 6b 03 93 38 6b  ..4k..;k..>k..8k
0000d060: 20 83 38 00 06 83 3e 00 00 83 3b 00 07 83 34 00   .8...>...;...4.
0000d070: 10 93 38 6b 03 93 34 6b 00 93 3b 6b 00 93 3e 6b  ..8k..4k..;k..>k
0000d080: 81 10 83 38 00 01 83 3b 00 04 83 3e 00 04 83 34  ...8...;...>...4
0000d090: 00 24 93 34 6b 00 93 3b 6b 00 93 3e 6b 03 93 38  .$.4k..;k..>k..8
0000d0a0: 6b 28 83 38 00 00 83 3b 00 05 83 3e 00 10 83 34  k(.8...;...>...4
0000d0b0: 00 40 93 34 6b 00 93 38 6b 00 93 3b 6b 00 93 3e  .@.4k..8k..;k..>
0000d0c0: 6b 81 08 83 38 00 03 83 3b 00 01 83 3e 00 05 83  k...8...;...>...
0000d0d0: 34 00 2f 93 3b 6b 00 93 3e 6b 03 93 34 6b 05 93  4./.;k..>k..4k..
0000d0e0: 38 6b 18 83 34 00 00 83 3e 00 03 83 3b 00 05 83  8k..4...>...;...
0000d0f0: 38 00 13 93 3b 6b 05 93 38 6b 00 93 34 6b 03 93  8...;k..8k..4k..
0000d100: 3e 6b 59 83 3b 00 04 83 38 00 03 83 34 00 01 83  >kY.;...8...4...
0000d110: 3e 00 81 57 93 39 6b 00 93 42 6b 05 93 3f 6b 01  >..W.9k..Bk..?k.
0000d120: 93 3b 6b 20 83 39 00 03 83 3b 00 04 83 3f 00 00  .;k .9...;...?..
0000d130: 83 42 00 18 93 39 6b 00 93 3b 6b 00 93 3f 6b 00  .B...9k..;k..?k.
0000d140: 93 42 6b 50 83 42 00 03 83 3f 00 08 83 3b 00 08  .BkP.B...?...;..
0000d150: 83 39 00 19 93 3f 6b 04 93 39 6b 00 93 3b 6b 00  .9...?k..9k..;k.
0000d160: 93 42 6b 1b 83 42 00 00 83 3b 00 01 83 39 00 04  .Bk..B...;...9..
0000d170: 83 3f 00 20 93 42 6b 03 93 39 6b 00 93 3b 6b 00  .?. .Bk..9k..;k.
0000d180: 93 3f 6b 82 09 83 3f 00 00 83 3b 00 00 83 42 00  .?k...?...;...B.
0000d190: 07 83 39 00 81 6d 93 37 6b 00 93 39 6b 00 93 3d  ..9..m.7k..9k..=
0000d1a0: 6b 00 93 40 6b 23 83 40 00 05 83 39 00 03 83 37  k..@k#.@...9...7
0000d1b0: 00 05 83 3d 00 10 93 37 6b 00 93 39 6b 00 93 3d  ...=...7k..9k..=
0000d1c0: 6b 00 93 40 6b 54 83 39 00 04 83 40 00 01 83 3d  k..@kT.9...@...=
0000d1d0: 00 00 83 37 00 27 93 39 6b 00 93 3d 6b 00 93 40  ...7.'.9k..=k..@
0000d1e0: 6b 03 93 37 6b 20 83 39 00 01 83 3d 00 00 83 40  k..7k .9...=...@
0000d1f0: 00 04 83 37 00 13 93 3d 6b 05 93 39 6b 00 93 37  ...7...=k..9k..7
0000d200: 6b 00 93 40 6b 82 01 83 37 00 02 83 3d 00 00 83  k..@k...7...=...
0000d210: 39 00 0e 83 40 00 81 6f 93 3e 6b 00 93 44 6b 00  9...@..o.>k..Dk.
0000d220: 93 47 6b 00 93 4c 6b 38 83 44 00 10 83 3e 00 00  .Gk..Lk8.D...>..
0000d230: 83 47 00 00 83 4c 00 38 93 3e 6b 00 93 44 6b 00  .G...L.8.>k..Dk.
0000d240: 93 47 6b 00 93 4c 6b 30 83 44 00 08 83 3e 00 00  .Gk..Lk0.D...>..
0000d250: 83 47 00 00 83 4c 00 48 93 3e 6b 00 93 44 6b 00  .G...L.H.>k..Dk.
0000d260: 93 47 6b 00 93 4c 6b 82 28 83 44 00 08 83 3e 00  .Gk..Lk.(.D...>.
0000d270: 00 83 47 00 10 83 4c 00 40 93 44 6b 00 93 3e 6b  ..G...L.@.Dk..>k
0000d280: 00 93 47 6b 00 93 4c 6b 40 83 47 00 00 83 44 00  ..Gk..Lk@.G...D.
0000d290: 10 83 4c 00 08 83 3e 00 28 93 3e 6b 00 93 44 6b  ..L...>.(.>k..Dk
0000d2a0: 00 93 47 6b 00 93 4c 6b 81 10 83 44 00 10 83 47  ..Gk..Lk...D...G
0000d2b0: 00 08 83 3e 00 00 83 4c 00 58 93 42 6b 00 93 44  ...>...L.X.Bk..D
0000d2c0: 6b 00 93 47 6b 00 93 4c 6b 08 93 4a 6b 82 68 83  k..Gk..Lk..Jk.h.
0000d2d0: 4a 00 00 83 47 00 00 83 42 00 00 83 44 00 00 83  J...G...B...D...
0000d2e0: 4c 00 50 93 40 6b 00 93 47 6b 01 93 3b 6b 00 93  L.P.@k..Gk..;k..
0000d2f0: 44 6b 02 93 3e 6b 83 2e 83 3e 00 03 83 40 00 04  Dk..>k...>...@..
0000d300: 83 44 00 00 83 3b 00 08 83 47 00 00 ff 7f 1c 24  .D...;...G.....$
0000d310: 24 00 08 00 00 00 00 00 00 14 ff 00 00 00 00 00  $...............
0000d320: 00 21 00 00 01 3a 00 00 00 0c 00 00 ff 7f 05 24  .!...:.........$
0000d330: 24 00 01 00 00 ff 7f 06 24 24 00 06 04 04 00 ff  $.......$$......
0000d340: 7f 05 24 24 00 02 03 01 ff 2f 00 4d 54 72 6b 00  ..$$...../.MTrk.
0000d350: 00 17 a4 00 ff 00 02 00 06 00 ff 03 0b 42 61 73  .............Bas
0000d360: 73 20 47 75 69 74 61 72 8d 00 94 23 7f 28 84 23  s Guitar...#.(.#
0000d370: 00 18 94 23 7f 3b 84 23 00 45 94 23 7f 81 1b 84  ...#.;.#.E.#....
0000d380: 23 00 82 25 94 28 7f 6b 84 28 00 15 94 28 7f 30  #..%.(.k.(...(.0
0000d390: 84 28 00 10 94 2f 7f 60 84 2f 00 20 94 28 7f 81  .(.../.`./. .(..
0000d3a0: 1b 84 28 00 26 94 28 7f 2f 84 28 00 10 94 2f 7f  ..(.&.(./.(.../.
0000d3b0: 81 04 84 2f 00 3f 94 28 7f 55 84 28 00 28 94 28  .../.?.(.U.(.(.(
0000d3c0: 7f 34 84 28 00 0c 94 2f 7f 63 84 2f 00 1d 94 28  .4.(.../.c./...(
0000d3d0: 7f 81 31 84 28 00 0f 94 28 7f 41 94 2f 7f 00 84  ..1.(...(.A./...
0000d3e0: 28 00 6f 84 2f 00 50 94 2d 7f 58 84 2d 00 28 94  (.o./.P.-.X.-.(.
0000d3f0: 2d 7f 31 84 2d 00 0f 94 34 7f 51 84 34 00 2f 94  -.1.-...4.Q.4./.
0000d400: 34 7f 29 84 34 00 1a 94 2d 7f 55 84 2d 00 28 94  4.).4...-.U.-.(.
0000d410: 2d 7f 2c 84 2d 00 15 94 34 7f 81 1f 84 34 00 20  -.,.-...4....4. 
0000d420: 94 2f 7f 33 84 2f 00 0d 94 2b 7f 2b 84 2b 00 15  ./.3./...+.+.+..
0000d430: 94 28 7f 30 84 28 00 10 94 2b 7f 70 84 2b 00 10  .(.0.(...+.p.+..
0000d440: 94 32 7f 30 84 32 00 10 94 31 7f 60 84 31 00 20  .2.0.2...1.`.1. 
0000d450: 94 31 7f 23 84 31 00 1d 94 2f 7f 81 28 84 2f 00  .1.#.1.../..(./.
0000d460: 18 94 2f 7f 70 84 2f 00 10 94 2b 7f 2b 84 2b 00  ../.p./...+.+.+.
0000d470: 15 94 28 7f 70 84 28 00 10 94 28 7f 30 84 28 00  ..(.p.(...(.0.(.
0000d480: 10 94 28 7f 38 84 28 00 08 94 28 7f 38 84 28 00  ..(.8.(...(.8.(.
0000d490: 08 94 28 7f 2b 84 28 00 15 94 2b 7f 81 23 84 2b  ..(.+.(...+..#.+
0000d4a0: 00 1d 94 2d 7f 28 84 2d 00 18 94 2d 7f 28 84 2d  ...-.(.-...-.(.-
0000d4b0: 00 18 94 2d 7f 23 84 2d 00 1d 94 34 7f 5b 84 34  ...-.#.-...4.[.4
0000d4c0: 00 25 94 34 7f 28 84 34 00 18 94 2d 7f 63 84 2d  .%.4.(.4...-.c.-
0000d4d0: 00 1d 94 2d 7f 33 84 2d 00 0d 94 34 7f 81 00 84  ...-.3.-...4....
0000d4e0: 34 00 40 94 2d 7f 6b 84 2d 00 15 94 2d 7f 2b 84  4.@.-.k.-...-.+.
0000d4f0: 2d 00 15 94 34 7f 5b 84 34 00 25 94 34 7f 28 84  -...4.[.4.%.4.(.
0000d500: 34 00 18 94 2d 7f 2b 84 2d 00 15 94 2d 7f 23 84  4...-.+.-...-.#.
0000d510: 2d 00 18 94 2d 7f 2d 84 2d 00 18 94 34 7f 81 19  -...-.-.-...4...
0000d520: 84 34 00 27 94 28 7f 4b 84 28 00 35 94 28 7f 3b  .4.'.(.K.(.5.(.;
0000d530: 84 28 00 05 94 2f 7f 58 84 2f 00 28 94 2f 7f 23  .(.../.X./.(./.#
0000d540: 84 2f 00 1d 94 28 7f 69 84 28 00 17 94 28 7f 33  ./...(.i.(...(.3
0000d550: 84 28 00 0d 94 2f 7f 78 84 2f 00 48 94 28 7f 50  .(.../.x./.H.(.P
0000d560: 84 28 00 30 94 28 7f 34 84 28 00 0c 94 34 7f 51  .(.0.(.4.(...4.Q
0000d570: 84 34 00 2f 94 2f 7f 2b 84 2f 00 15 94 28 7f 78  .4././.+./...(.x
0000d580: 84 28 00 08 94 34 7f 33 84 34 00 0d 94 2f 7f 54  .(...4.3.4.../.T
0000d590: 84 2f 00 6c 94 33 7f 60 84 33 00 20 94 36 7f 30  ./.l.3.`.3. .6.0
0000d5a0: 84 36 00 10 94 33 7f 73 84 33 00 0d 94 36 7f 33  .6...3.s.3...6.3
0000d5b0: 84 36 00 0d 94 33 7f 6b 84 33 00 15 94 36 7f 81  .6...3.k.3...6..
0000d5c0: 28 84 36 00 59 94 31 7f 6f 84 31 00 10 94 34 7f  (.6.Y.1.o.1...4.
0000d5d0: 30 84 34 00 11 94 31 7f 72 84 31 00 0d 94 34 7f  0.4...1.r.1...4.
0000d5e0: 2b 84 34 00 15 94 31 7f 6b 84 31 00 15 94 34 7f  +.4...1.k.1...4.
0000d5f0: 81 08 84 34 00 78 94 28 7f 60 84 28 00 20 94 28  ...4.x.(.`.(. .(
0000d600: 7f 2b 84 28 00 15 94 2f 7f 54 84 2f 00 2c 94 2f  .+.(.../.T./.,./
0000d610: 7f 30 84 2f 00 10 94 28 7f 60 84 28 00 20 94 28  .0./...(.`.(. .(
0000d620: 7f 30 84 28 00 10 94 2f 7f 81 20 84 2f 00 20 94  .0.(.../.. ./. .
0000d630: 28 7f 60 84 28 00 20 94 28 7f 30 84 28 00 10 94  (.`.(. .(.0.(...
0000d640: 2f 7f 61 84 2f 00 1f 94 2f 7f 28 84 2f 00 20 94  /.a./.../.(./. .
0000d650: 2a 7f 5b 84 2a 00 1d 94 2a 7f 28 84 2a 00 18 94  *.[.*...*.(.*...
0000d660: 2d 7f 70 84 2d 00 10 94 2d 7f 30 84 2d 00 13 94  -.p.-...-.0.-...
0000d670: 28 7f 55 84 28 00 28 94 28 7f 34 84 28 00 0c 94  (.U.(.(.(.4.(...
0000d680: 2f 7f 63 84 2f 00 1d 94 28 7f 81 31 84 28 00 0f  /.c./...(..1.(..
0000d690: 94 28 7f 41 94 2f 7f 00 84 28 00 6f 84 2f 00 50  .(.A./...(.o./.P
0000d6a0: 94 2d 7f 58 84 2d 00 28 94 2d 7f 31 84 2d 00 0f  .-.X.-.(.-.1.-..
0000d6b0: 94 34 7f 51 84 34 00 2f 94 34 7f 29 84 34 00 1a  .4.Q.4./.4.).4..
0000d6c0: 94 2d 7f 55 84 2d 00 28 94 2d 7f 2c 84 2d 00 15  .-.U.-.(.-.,.-..
0000d6d0: 94 34 7f 81 1f 84 34 00 20 94 2f 7f 70 84 2f 00  .4....4. ./.p./.
0000d6e0: 10 94 2b 7f 2b 84 2b 00 15 94 28 7f 70 84 28 00  ..+.+.+...(.p.(.
0000d6f0: 10 94 2b 7f 30 84 2b 00 10 94 32 7f 60 84 32 00  ..+.0.+...2.`.2.
0000d700: 20 94 32 7f 23 84 32 00 1d 94 31 7f 81 28 84 31   .2.#.2...1..(.1
0000d710: 00 18 94 2f 7f 70 84 2f 00 10 94 2b 7f 2b 84 2b  .../.p./...+.+.+
0000d720: 00 15 94 28 7f 70 84 28 00 10 94 2b 7f 30 84 2b  ...(.p.(...+.0.+
0000d730: 00 10 94 28 7f 38 84 28 00 08 94 28 7f 38 84 28  ...(.8.(...(.8.(
0000d740: 00 08 94 28 7f 2b 84 28 00 15 94 2b 7f 81 23 84  ...(.+.(...+..#.
0000d750: 2b 00 1d 94 2d 7f 28 84 2d 00 18 94 2d 7f 28 84  +...-.(.-...-.(.
0000d760: 2d 00 18 94 2d 7f 23 84 2d 00 1d 94 34 7f 5b 84  -...-.#.-...4.[.
0000d770: 34 00 25 94 34 7f 28 84 34 00 18 94 2d 7f 63 84  4.%.4.(.4...-.c.
0000d780: 2d 00 1d 94 2d 7f 33 84 2d 00 0d 94 34 7f 81 00  -...-.3.-...4...
0000d790: 84 34 00 40 94 2d 7f 6b 84 2d 00 15 94 2d 7f 2b  .4.@.-.k.-...-.+
0000d7a0: 84 2d 00 15 94 34 7f 5b 84 34 00 25 94 34 7f 28  .-...4.[.4.%.4.(
0000d7b0: 84 34 00 18 94 2d 7f 2b 84 2d 00 15 94 2d 7f 23  .4...-.+.-...-.#
0000d7c0: 84 2d 00 18 94 2d 7f 2d 84 2d 00 18 94 34 7f 81  .-...-.-.-...4..
0000d7d0: 19 84 34 00 27 94 28 7f 4b 84 28 00 35 94 28 7f  ..4.'.(.K.(.5.(.
0000d7e0: 3b 84 28 00 05 94 2f 7f 58 84 2f 00 28 94 2f 7f  ;.(.../.X./.(./.
0000d7f0: 23 84 2f 00 1d 94 28 7f 69 84 28 00 17 94 28 7f  #./...(.i.(...(.
0000d800: 33 84 28 00 0d 94 2f 7f 78 84 2f 00 48 94 28 7f  3.(.../.x./.H.(.
0000d810: 50 84 28 00 30 94 28 7f 34 84 28 00 0c 94 34 7f  P.(.0.(.4.(...4.
0000d820: 51 84 34 00 2f 94 2f 7f 2b 84 2f 00 15 94 28 7f  Q.4././.+./...(.
0000d830: 78 84 28 00 08 94 34 7f 33 84 34 00 0d 94 2f 7f  x.(...4.3.4.../.
0000d840: 70 84 2f 00 10 94 34 7f 30 84 34 00 10 94 33 7f  p./...4.0.4...3.
0000d850: 60 84 33 00 20 94 36 7f 30 84 36 00 10 94 33 7f  `.3. .6.0.6...3.
0000d860: 73 84 33 00 0d 94 36 7f 33 84 36 00 0d 94 33 7f  s.3...6.3.6...3.
0000d870: 6b 84 33 00 15 94 36 7f 81 28 84 36 00 18 94 2f  k.3...6..(.6.../
0000d880: 7f 30 84 2f 00 11 94 31 7f 6f 84 31 00 10 94 34  .0./...1.o.1...4
0000d890: 7f 30 84 34 00 11 94 31 7f 72 84 31 00 0d 94 34  .0.4...1.r.1...4
0000d8a0: 7f 2b 84 34 00 15 94 31 7f 6b 84 31 00 15 94 34  .+.4...1.k.1...4
0000d8b0: 7f 81 08 84 34 00 38 94 25 7f 33 84 25 00 0d 94  ....4.8.%.3.%...
0000d8c0: 28 7f 60 84 28 00 20 94 28 7f 2b 84 28 00 15 94  (.`.(. .(.+.(...
0000d8d0: 2f 7f 54 84 2f 00 2c 94 2f 7f 30 84 2f 00 10 94  /.T./.,./.0./...
0000d8e0: 28 7f 60 84 28 00 20 94 28 7f 30 84 28 00 10 94  (.`.(. .(.0.(...
0000d8f0: 2f 7f 81 20 84 2f 00 20 94 28 7f 60 84 28 00 20  /.. ./. .(.`.(. 
0000d900: 94 28 7f 30 84 28 00 10 94 2f 7f 61 84 2f 00 1f  .(.0.(.../.a./..
0000d910: 94 2f 7f 28 84 2f 00 18 94 2a 7f 63 84 2a 00 1d  ./.(./...*.c.*..
0000d920: 94 2a 7f 28 84 2a 00 18 94 2d 7f 70 84 2d 00 10  .*.(.*...-.p.-..
0000d930: 94 2f 7f 30 84 2f 00 13 94 28 7f 55 84 28 00 28  ./.0./...(.U.(.(
0000d940: 94 28 7f 34 84 28 00 0c 94 2f 7f 63 84 2f 00 1d  .(.4.(.../.c./..
0000d950: 94 28 7f 81 31 84 28 00 0f 94 28 7f 41 94 2f 7f  .(..1.(...(.A./.
0000d960: 00 84 28 00 6f 84 2f 00 50 94 2d 7f 58 84 2d 00  ..(.o./.P.-.X.-.
0000d970: 28 94 2d 7f 31 84 2d 00 0f 94 34 7f 51 84 34 00  (.-.1.-...4.Q.4.
0000d980: 2f 94 34 7f 29 84 34 00 1a 94 2d 7f 55 84 2d 00  /.4.).4...-.U.-.
0000d990: 28 94 2d 7f 2c 84 2d 00 15 94 34 7f 81 1f 84 34  (.-.,.-...4....4
0000d9a0: 00 20 94 2f 7f 70 84 2f 00 10 94 2b 7f 2b 84 2b  . ./.p./...+.+.+
0000d9b0: 00 15 94 28 7f 70 84 28 00 10 94 2b 7f 30 84 2b  ...(.p.(...+.0.+
0000d9c0: 00 10 94 32 7f 60 84 32 00 20 94 32 7f 23 84 32  ...2.`.2. .2.#.2
0000d9d0: 00 1d 94 31 7f 81 28 84 31 00 18 94 2f 7f 70 84  ...1..(.1.../.p.
0000d9e0: 2f 00 10 94 2b 7f 2b 84 2b 00 15 94 28 7f 70 84  /...+.+.+...(.p.
0000d9f0: 28 00 10 94 2b 7f 30 84 2b 00 10 94 28 7f 38 84  (...+.0.+...(.8.
0000da00: 28 00 08 94 28 7f 38 84 28 00 08 94 28 7f 2b 84  (...(.8.(...(.+.
0000da10: 28 00 15 94 2b 7f 81 23 84 2b 00 1d 94 2d 7f 28  (...+..#.+...-.(
0000da20: 84 2d 00 18 94 2d 7f 28 84 2d 00 18 94 2d 7f 23  .-...-.(.-...-.#
0000da30: 84 2d 00 1d 94 34 7f 5b 84 34 00 25 94 34 7f 28  .-...4.[.4.%.4.(
0000da40: 84 34 00 18 94 2d 7f 63 84 2d 00 1d 94 2d 7f 33  .4...-.c.-...-.3
0000da50: 84 2d 00 0d 94 34 7f 81 00 84 34 00 40 94 2d 7f  .-...4....4.@.-.
0000da60: 6b 84 2d 00 15 94 2d 7f 2b 84 2d 00 15 94 34 7f  k.-...-.+.-...4.
0000da70: 5b 84 34 00 25 94 34 7f 28 84 34 00 18 94 2d 7f  [.4.%.4.(.4...-.
0000da80: 2b 84 2d 00 15 94 2d 7f 23 84 2d 00 18 94 2d 7f  +.-...-.#.-...-.
0000da90: 2d 84 2d 00 18 94 34 7f 81 19 84 34 00 27 94 28  -.-...4....4.'.(
0000daa0: 7f 4b 84 28 00 35 94 28 7f 3b 84 28 00 05 94 2f  .K.(.5.(.;.(.../
0000dab0: 7f 58 84 2f 00 28 94 2f 7f 23 84 2f 00 1d 94 28  .X./.(./.#./...(
0000dac0: 7f 69 84 28 00 17 94 28 7f 33 84 28 00 0d 94 2f  .i.(...(.3.(.../
0000dad0: 7f 78 84 2f 00 48 94 28 7f 50 84 28 00 30 94 28  .x./.H.(.P.(.0.(
0000dae0: 7f 34 84 28 00 0c 94 34 7f 51 84 34 00 2f 94 2f  .4.(...4.Q.4././
0000daf0: 7f 2b 84 2f 00 15 94 28 7f 78 84 28 00 08 94 34  .+./...(.x.(...4
0000db00: 7f 33 84 34 00 0d 94 2f 7f 70 84 2f 00 10 94 34  .3.4.../.p./...4
0000db10: 7f 30 84 34 00 10 94 33 7f 60 84 33 00 20 94 36  .0.4...3.`.3. .6
0000db20: 7f 30 84 36 00 10 94 33 7f 73 84 33 00 0d 94 36  .0.6...3.s.3...6
0000db30: 7f 33 84 36 00 0d 94 33 7f 6b 84 33 00 15 94 36  .3.6...3.k.3...6
0000db40: 7f 81 28 84 36 00 18 94 2f 7f 30 84 2f 00 11 94  ..(.6.../.0./...
0000db50: 31 7f 6f 84 31 00 10 94 34 7f 30 84 34 00 11 94  1.o.1...4.0.4...
0000db60: 31 7f 72 84 31 00 0d 94 34 7f 2b 84 34 00 15 94  1.r.1...4.+.4...
0000db70: 31 7f 6b 84 31 00 15 94 34 7f 81 08 84 34 00 38  1.k.1...4....4.8
0000db80: 94 25 7f 33 84 25 00 0d 94 28 7f 60 84 28 00 20  .%.3.%...(.`.(. 
0000db90: 94 28 7f 2b 84 28 00 15 94 2f 7f 54 84 2f 00 2c  .(.+.(.../.T./.,
0000dba0: 94 2f 7f 30 84 2f 00 10 94 28 7f 60 84 28 00 20  ./.0./...(.`.(. 
0000dbb0: 94 28 7f 30 84 28 00 10 94 2f 7f 81 20 84 2f 00  .(.0.(.../.. ./.
0000dbc0: 20 94 28 7f 60 84 28 00 20 94 28 7f 30 84 28 00   .(.`.(. .(.0.(.
0000dbd0: 10 94 2f 7f 61 84 2f 00 1f 94 2f 7f 28 84 2f 00  ../.a./.../.(./.
0000dbe0: 18 94 2a 7f 63 84 2a 00 1d 94 2a 7f 28 84 2a 00  ..*.c.*...*.(.*.
0000dbf0: 18 94 2d 7f 70 84 2d 00 10 94 2f 7f 30 84 2f 00  ..-.p.-.../.0./.
0000dc00: 10 94 28 7f 6c 84 28 00 14 94 28 7f 30 84 28 00  ..(.l.(...(.0.(.
0000dc10: 10 94 2f 7f 63 84 2f 00 1d 94 2f 7f 30 84 2f 00  ../.c./.../.0./.
0000dc20: 10 94 28 7f 63 84 28 00 1d 94 28 7f 30 84 28 00  ..(.c.(...(.0.(.
0000dc30: 10 94 2f 7f 6b 84 2f 00 15 94 2f 7f 30 84 2f 00  ../.k./.../.0./.
0000dc40: 10 94 2d 7f 63 84 2d 00 1d 94 2d 7f 30 84 2d 00  ..-.c.-...-.0.-.
0000dc50: 10 94 34 7f 58 84 34 00 28 94 34 7f 3b 84 34 00  ..4.X.4.(.4.;.4.
0000dc60: 05 94 2d 7f 5b 84 2d 00 25 94 2d 7f 23 84 2d 00  ..-.[.-.%.-.#.-.
0000dc70: 1d 94 34 7f 58 84 34 00 28 94 34 7f 29 84 34 00  ..4.X.4.(.4.).4.
0000dc80: 1a 94 28 7f 50 84 28 00 2d 94 28 7f 28 84 28 00  ..(.P.(.-.(.(.(.
0000dc90: 18 94 2f 7f 53 84 2f 00 2d 94 2f 7f 2c 84 2f 00  ../.S./.-./.,./.
0000dca0: 14 94 28 7f 5c 84 28 00 24 94 28 7f 30 84 28 00  ..(.\.(.$.(.0.(.
0000dcb0: 11 94 2f 7f 57 84 2f 00 28 94 2f 7f 30 84 2f 00  ../.W./.(./.0./.
0000dcc0: 10 94 28 7f 63 84 28 00 1e 94 28 7f 33 84 28 00  ..(.c.(...(.3.(.
0000dcd0: 0f 94 2f 7f 55 84 2f 00 28 94 2f 7f 2b 84 2f 00  ../.U./.(./.+./.
0000dce0: 15 94 28 7f 54 84 28 00 2c 94 28 7f 2b 84 28 00  ..(.T.(.,.(.+.(.
0000dcf0: 16 94 2f 7f 5a 84 2f 00 28 94 2f 7f 2d 84 2f 00  ../.Z./.(./.-./.
0000dd00: 10 94 2d 7f 58 84 2d 00 28 94 2d 7f 2b 84 2d 00  ..-.X.-.(.-.+.-.
0000dd10: 15 94 34 7f 58 84 34 00 28 94 34 7f 29 84 34 00  ..4.X.4.(.4.).4.
0000dd20: 18 94 2d 7f 62 84 2d 00 1d 94 2d 7f 30 84 2d 00  ..-.b.-...-.0.-.
0000dd30: 10 94 34 7f 4b 84 34 00 30 94 34 7f 2d 84 34 00  ..4.K.4.0.4.-.4.
0000dd40: 18 94 2d 7f 54 84 2d 00 2c 94 2d 7f 30 84 2d 00  ..-.T.-.,.-.0.-.
0000dd50: 10 94 34 7f 51 84 34 00 2f 94 34 7f 30 84 34 00  ..4.Q.4./.4.0.4.
0000dd60: 10 94 2d 7f 58 84 2d 00 28 94 2d 7f 33 84 2d 00  ..-.X.-.(.-.3.-.
0000dd70: 0d 94 34 7f 58 84 34 00 28 94 34 7f 38 84 34 00  ..4.X.4.(.4.8.4.
0000dd80: 08 94 28 7f 60 84 28 00 20 94 28 7f 31 84 28 00  ..(.`.(. .(.1.(.
0000dd90: 0f 94 2f 7f 4b 84 2f 00 35 94 2f 7f 30 84 2f 00  ../.K./.5./.0./.
0000dda0: 10 94 28 7f 50 84 28 00 30 94 28 7f 2b 84 28 00  ..(.P.(.0.(.+.(.
0000ddb0: 18 94 2f 7f 4d 84 2f 00 30 94 2f 7f 28 84 2f 00  ../.M./.0./.(./.
0000ddc0: 20 94 2f 7f 60 84 2f 00 18 94 2d 7f 81 30 84 2d   ./.`./...-..0.-
0000ddd0: 00 10 94 2b 7f 30 84 2b 00 10 94 2d 7f 70 84 2d  ...+.0.+...-.p.-
0000dde0: 00 10 94 2b 7f 30 84 2b 00 10 94 28 7f 81 33 84  ...+.0.+...(..3.
0000ddf0: 28 00 0e 94 34 7f 5b 84 34 00 24 94 34 7f 31 84  (...4.[.4.$.4.1.
0000de00: 34 00 0f 94 31 7f 50 84 31 00 30 94 31 7f 28 84  4...1.P.1.0.1.(.
0000de10: 31 00 18 94 32 7f 54 84 32 00 2c 94 32 7f 30 84  1...2.T.2.,.2.0.
0000de20: 32 00 10 94 2f 7f 58 84 2f 00 28 94 2f 7f 2b 84  2.../.X./.(./.+.
0000de30: 2f 00 15 94 2d 7f 5b 84 2d 00 25 94 2d 7f 30 84  /...-.[.-.%.-.0.
0000de40: 2d 00 10 94 34 7f 4c 84 34 00 34 94 34 7f 2b 84  -...4.L.4.4.4.+.
0000de50: 34 00 15 94 2d 7f 5b 84 2d 00 25 94 2d 7f 29 84  4...-.[.-.%.-.).
0000de60: 2d 00 18 94 34 7f 57 84 34 00 28 94 34 7f 28 84  -...4.W.4.(.4.(.
0000de70: 34 00 18 94 28 7f 71 84 28 00 0f 94 28 7f 30 84  4...(.q.(...(.0.
0000de80: 28 00 11 94 2f 7f 5a 84 2f 00 25 94 2f 7f 29 84  (.../.Z./.%./.).
0000de90: 2f 00 17 94 28 7f 51 84 28 00 2f 94 28 7f 30 84  /...(.Q.(./.(.0.
0000dea0: 28 00 13 94 2f 7f 4d 84 2f 00 2b 94 2f 7f 2d 84  (.../.M./.+./.-.
0000deb0: 2f 00 1b 94 28 7f 4d 84 28 00 30 94 28 7f 21 84  /...(.M.(.0.(.!.
0000dec0: 28 00 22 94 2f 7f 45 84 2f 00 38 94 2f 7f 28 84  (."./.E./.8./.(.
0000ded0: 2f 00 18 94 36 7f 59 84 36 00 27 94 36 7f 2b 84  /...6.Y.6.'.6.+.
0000dee0: 36 00 15 94 33 7f 5c 84 33 00 24 94 33 7f 21 84  6...3.\.3.$.3.!.
0000def0: 33 00 22 94 28 7f 55 84 28 00 28 94 28 7f 34 84  3.".(.U.(.(.(.4.
0000df00: 28 00 0c 94 2f 7f 63 84 2f 00 1d 94 28 7f 81 31  (.../.c./...(..1
0000df10: 84 28 00 0f 94 28 7f 41 94 2f 7f 00 84 28 00 6f  .(...(.A./...(.o
0000df20: 84 2f 00 50 94 2d 7f 58 84 2d 00 28 94 2d 7f 31  ./.P.-.X.-.(.-.1
0000df30: 84 2d 00 0f 94 34 7f 51 84 34 00 2f 94 34 7f 29  .-...4.Q.4./.4.)
0000df40: 84 34 00 1a 94 2d 7f 55 84 2d 00 28 94 2d 7f 2c  .4...-.U.-.(.-.,
0000df50: 84 2d 00 15 94 34 7f 81 1f 84 34 00 20 94 2f 7f  .-...4....4. ./.
0000df60: 70 84 2f 00 10 94 2b 7f 2b 84 2b 00 15 94 28 7f  p./...+.+.+...(.
0000df70: 70 84 28 00 10 94 2b 7f 30 84 2b 00 10 94 32 7f  p.(...+.0.+...2.
0000df80: 60 84 32 00 20 94 32 7f 23 84 32 00 1d 94 31 7f  `.2. .2.#.2...1.
0000df90: 81 28 84 31 00 18 94 2f 7f 70 84 2f 00 10 94 2b  .(.1.../.p./...+
0000dfa0: 7f 2b 84 2b 00 15 94 28 7f 70 84 28 00 10 94 2b  .+.+...(.p.(...+
0000dfb0: 7f 30 84 2b 00 10 94 28 7f 38 84 28 00 08 94 28  .0.+...(.8.(...(
0000dfc0: 7f 38 84 28 00 08 94 28 7f 2b 84 28 00 15 94 2b  .8.(...(.+.(...+
0000dfd0: 7f 81 23 84 2b 00 1d 94 2d 7f 28 84 2d 00 18 94  ..#.+...-.(.-...
0000dfe0: 2d 7f 28 84 2d 00 18 94 2d 7f 23 84 2d 00 1d 94  -.(.-...-.#.-...
0000dff0: 34 7f 5b 84 34 00 25 94 34 7f 28 84 34 00 18 94  4.[.4.%.4.(.4...
0000e000: 2d 7f 63 84 2d 00 1d 94 2d 7f 33 84 2d 00 0d 94  -.c.-...-.3.-...
0000e010: 34 7f 81 00 84 34 00 40 94 2d 7f 6b 84 2d 00 15  4....4.@.-.k.-..
0000e020: 94 2d 7f 2b 84 2d 00 15 94 34 7f 5b 84 34 00 25  .-.+.-...4.[.4.%
0000e030: 94 34 7f 28 84 34 00 18 94 2d 7f 2b 84 2d 00 15  .4.(.4...-.+.-..
0000e040: 94 2d 7f 23 84 2d 00 18 94 2d 7f 2d 84 2d 00 18  .-.#.-...-.-.-..
0000e050: 94 34 7f 81 19 84 34 00 27 94 28 7f 4b 84 28 00  .4....4.'.(.K.(.
0000e060: 35 94 28 7f 3b 84 28 00 05 94 2f 7f 58 84 2f 00  5.(.;.(.../.X./.
0000e070: 28 94 2f 7f 23 84 2f 00 1d 94 28 7f 69 84 28 00  (./.#./...(.i.(.
0000e080: 17 94 28 7f 33 84 28 00 0d 94 2f 7f 78 84 2f 00  ..(.3.(.../.x./.
0000e090: 48 94 28 7f 50 84 28 00 30 94 28 7f 34 84 28 00  H.(.P.(.0.(.4.(.
0000e0a0: 0c 94 34 7f 51 84 34 00 2f 94 2f 7f 2b 84 2f 00  ..4.Q.4././.+./.
0000e0b0: 15 94 28 7f 78 84 28 00 08 94 34 7f 33 84 34 00  ..(.x.(...4.3.4.
0000e0c0: 0d 94 2f 7f 70 84 2f 00 10 94 34 7f 30 84 34 00  ../.p./...4.0.4.
0000e0d0: 10 94 33 7f 60 84 33 00 20 94 36 7f 30 84 36 00  ..3.`.3. .6.0.6.
0000e0e0: 10 94 33 7f 73 84 33 00 0d 94 36 7f 33 84 36 00  ..3.s.3...6.3.6.
0000e0f0: 0d 94 33 7f 6b 84 33 00 15 94 36 7f 81 28 84 36  ..3.k.3...6..(.6
0000e100: 00 18 94 2f 7f 30 84 2f 00 11 94 31 7f 6f 84 31  .../.0./...1.o.1
0000e110: 00 10 94 34 7f 30 84 34 00 11 94 31 7f 72 84 31  ...4.0.4...1.r.1
0000e120: 00 0d 94 34 7f 2b 84 34 00 15 94 31 7f 6b 84 31  ...4.+.4...1.k.1
0000e130: 00 15 94 34 7f 81 08 84 34 00 38 94 25 7f 33 84  ...4....4.8.%.3.
0000e140: 25 00 0d 94 28 7f 60 84 28 00 20 94 28 7f 2b 84  %...(.`.(. .(.+.
0000e150: 28 00 15 94 2f 7f 54 84 2f 00 2c 94 2f 7f 30 84  (.../.T./.,./.0.
0000e160: 2f 00 10 94 28 7f 60 84 28 00 20 94 28 7f 30 84  /...(.`.(. .(.0.
0000e170: 28 00 10 94 2f 7f 81 20 84 2f 00 20 94 28 7f 60  (.../.. ./. .(.`
0000e180: 84 28 00 20 94 28 7f 30 84 28 00 10 94 2f 7f 61  .(. .(.0.(.../.a
0000e190: 84 2f 00 1f 94 2f 7f 28 84 2f 00 18 94 2a 7f 63  ./.../.(./...*.c
0000e1a0: 84 2a 00 1d 94 2a 7f 28 84 2a 00 18 94 2d 7f 70  .*...*.(.*...-.p
0000e1b0: 84 2d 00 10 94 2f 7f 30 84 2f 00 10 94 28 7f 6c  .-.../.0./...(.l
0000e1c0: 84 28 00 14 94 28 7f 30 84 28 00 10 94 2f 7f 63  .(...(.0.(.../.c
0000e1d0: 84 2f 00 1d 94 2f 7f 30 84 2f 00 10 94 28 7f 63  ./.../.0./...(.c
0000e1e0: 84 28 00 1d 94 28 7f 30 84 28 00 10 94 2f 7f 6b  .(...(.0.(.../.k
0000e1f0: 84 2f 00 15 94 2f 7f 30 84 2f 00 10 94 2d 7f 63  ./.../.0./...-.c
0000e200: 84 2d 00 1d 94 2d 7f 30 84 2d 00 10 94 34 7f 33  .-...-.0.-...4.3
0000e210: 84 34 00 0d 94 34 7f 30 84 34 00 10 94 34 7f 3b  .4...4.0.4...4.;
0000e220: 84 34 00 05 94 2d 7f 5b 84 2d 00 25 94 2d 7f 23  .4...-.[.-.%.-.#
0000e230: 84 2d 00 1d 94 34 7f 30 84 34 00 10 94 34 7f 30  .-...4.0.4...4.0
0000e240: 84 34 00 10 94 34 7f 30 84 34 00 13 94 28 7f 2d  .4...4.0.4...(.-
0000e250: 84 28 00 13 94 28 7f 2d 84 28 00 10 94 28 7f 28  .(...(.-.(...(.(
0000e260: 84 28 00 18 94 2f 7f 53 84 2f 00 2d 94 2f 7f 2c  .(.../.S./.-./.,
0000e270: 84 2f 00 14 94 28 7f 5c 84 28 00 24 94 28 7f 30  ./...(.\.(.$.(.0
0000e280: 84 28 00 11 94 32 7f 57 84 32 00 28 94 2f 7f 30  .(...2.W.2.(./.0
0000e290: 84 2f 00 10 94 28 7f 63 84 28 00 1e 94 28 7f 33  ./...(.c.(...(.3
0000e2a0: 84 28 00 0f 94 2b 7f 55 84 2b 00 28 94 2f 7f 2b  .(...+.U.+.(./.+
0000e2b0: 84 2f 00 15 94 28 7f 54 84 28 00 2c 94 28 7f 2b  ./...(.T.(.,.(.+
0000e2c0: 84 28 00 16 94 32 7f 5a 84 32 00 28 94 2f 7f 2d  .(...2.Z.2.(./.-
0000e2d0: 84 2f 00 10 94 2d 7f 58 84 2d 00 28 94 2d 7f 2b  ./...-.X.-.(.-.+
0000e2e0: 84 2d 00 15 94 34 7f 58 84 34 00 28 94 34 7f 29  .-...4.X.4.(.4.)
0000e2f0: 84 34 00 18 94 2d 7f 62 84 2d 00 1d 94 2d 7f 30  .4...-.b.-...-.0
0000e300: 84 2d 00 10 94 37 7f 4b 84 37 00 30 94 34 7f 2d  .-...7.K.7.0.4.-
0000e310: 84 34 00 18 94 2d 7f 54 84 2d 00 2c 94 2d 7f 30  .4...-.T.-.,.-.0
0000e320: 84 2d 00 10 94 34 7f 51 84 34 00 2f 94 34 7f 30  .-...4.Q.4./.4.0
0000e330: 84 34 00 10 94 2d 7f 58 84 2d 00 28 94 2d 7f 33  .4...-.X.-.(.-.3
0000e340: 84 2d 00 0d 94 37 7f 58 84 37 00 28 94 34 7f 38  .-...7.X.7.(.4.8
0000e350: 84 34 00 08 94 28 7f 60 84 28 00 20 94 28 7f 31  .4...(.`.(. .(.1
0000e360: 84 28 00 0f 94 2f 7f 4b 84 2f 00 35 94 2f 7f 30  .(.../.K./.5./.0
0000e370: 84 2f 00 10 94 28 7f 50 84 28 00 30 94 28 7f 2b  ./...(.P.(.0.(.+
0000e380: 84 28 00 18 94 32 7f 4d 84 32 00 30 94 2f 7f 28  .(...2.M.2.0./.(
0000e390: 84 2f 00 20 94 2f 7f 60 84 2f 00 18 94 2d 7f 30  ./. ./.`./...-.0
0000e3a0: 84 2d 00 13 94 2c 7f 0d 84 2c 00 03 94 2b 7f 20  .-...,...,...+. 
0000e3b0: 84 2b 00 0d 94 28 7f 30 84 28 00 10 94 2b 7f 30  .+...(.0.(...+.0
0000e3c0: 84 2b 00 10 94 2d 7f 70 84 2d 00 10 94 2b 7f 30  .+...-.p.-...+.0
0000e3d0: 84 2b 00 10 94 28 7f 30 84 28 00 10 94 2b 7f 30  .+...(.0.(...+.0
0000e3e0: 84 2b 00 10 94 2d 7f 10 84 2d 00 03 94 2b 7f 0d  .+...-...-...+..
0000e3f0: 84 2b 00 03 94 2f 7f 15 84 2f 00 09 94 34 7f 5b  .+.../.../...4.[
0000e400: 84 34 00 24 94 2d 7f 30 84 2d 00 10 94 2d 7f 30  .4.$.-.0.-...-.0
0000e410: 84 2d 00 10 94 2f 7f 30 84 2f 00 10 94 32 7f 33  .-.../.0./...2.3
0000e420: 84 32 00 0d 94 34 7f 30 84 34 00 03 94 36 7f 15  .2...4.0.4...6..
0000e430: 84 36 00 08 94 34 7f 20 84 34 00 10 94 32 7f 30  .6...4. .4...2.0
0000e440: 84 32 00 10 94 2f 7f 58 84 2f 00 28 94 2f 7f 2b  .2.../.X./.(./.+
0000e450: 84 2f 00 15 94 28 7f 5b 84 28 00 25 94 2d 7f 30  ./...(.[.(.%.-.0
0000e460: 84 2d 00 10 94 34 7f 4c 84 34 00 34 94 34 7f 2b  .-...4.L.4.4.4.+
0000e470: 84 34 00 15 94 2d 7f 5b 84 2d 00 25 94 2d 7f 29  .4...-.[.-.%.-.)
0000e480: 84 2d 00 18 94 39 7f 57 84 39 00 28 94 34 7f 28  .-...9.W.9.(.4.(
0000e490: 84 34 00 18 94 28 7f 71 84 28 00 0f 94 28 7f 30  .4...(.q.(...(.0
0000e4a0: 84 28 00 11 94 2f 7f 5a 84 2f 00 25 94 2f 7f 29  .(.../.Z./.%./.)
0000e4b0: 84 2f 00 17 94 28 7f 51 84 28 00 2f 94 28 7f 30  ./...(.Q.(./.(.0
0000e4c0: 84 28 00 13 94 32 7f 4d 84 32 00 2b 94 2f 7f 2d  .(...2.M.2.+./.-
0000e4d0: 84 2f 00 1b 94 28 7f 4d 84 28 00 30 94 28 7f 21  ./...(.M.(.0.(.!
0000e4e0: 84 28 00 22 94 2f 7f 45 84 2f 00 38 94 2f 7f 28  .(."./.E./.8./.(
0000e4f0: 84 2f 00 18 94 36 7f 59 84 36 00 27 94 36 7f 2b  ./...6.Y.6.'.6.+
0000e500: 84 36 00 15 94 33 7f 5c 84 33 00 24 94 33 7f 21  .6...3.\.3.$.3.!
0000e510: 84 33 00 22 94 28 7f 55 84 28 00 28 94 28 7f 34  .3.".(.U.(.(.(.4
0000e520: 84 28 00 0c 94 2f 7f 63 84 2f 00 1d 94 28 7f 81  .(.../.c./...(..
0000e530: 31 84 28 00 0f 94 28 7f 41 94 2f 7f 00 84 28 00  1.(...(.A./...(.
0000e540: 6f 84 2f 00 50 94 2d 7f 58 84 2d 00 28 94 2d 7f  o./.P.-.X.-.(.-.
0000e550: 31 84 2d 00 0f 94 34 7f 51 84 34 00 2f 94 34 7f  1.-...4.Q.4./.4.
0000e560: 29 84 34 00 1a 94 2d 7f 55 84 2d 00 28 94 2d 7f  ).4...-.U.-.(.-.
0000e570: 2c 84 2d 00 15 94 34 7f 81 1f 84 34 00 20 94 2f  ,.-...4....4. ./
0000e580: 7f 33 84 2f 00 0d 94 2b 7f 2b 84 2b 00 15 94 28  .3./...+.+.+...(
0000e590: 7f 30 84 28 00 10 94 2b 7f 70 84 2b 00 10 94 32  .0.(...+.p.+...2
0000e5a0: 7f 30 84 32 00 10 94 31 7f 60 84 31 00 20 94 31  .0.2...1.`.1. .1
0000e5b0: 7f 23 84 31 00 1d 94 2f 7f 81 28 84 2f 00 18 94  .#.1.../..(./...
0000e5c0: 2f 7f 70 84 2f 00 10 94 2b 7f 2b 84 2b 00 15 94  /.p./...+.+.+...
0000e5d0: 28 7f 70 84 28 00 10 94 28 7f 30 84 28 00 10 94  (.p.(...(.0.(...
0000e5e0: 28 7f 38 84 28 00 08 94 28 7f 38 84 28 00 08 94  (.8.(...(.8.(...
0000e5f0: 28 7f 2b 84 28 00 15 94 2b 7f 81 23 84 2b 00 1d  (.+.(...+..#.+..
0000e600: 94 2d 7f 28 84 2d 00 18 94 2d 7f 28 84 2d 00 18  .-.(.-...-.(.-..
0000e610: 94 2d 7f 23 84 2d 00 1d 94 34 7f 5b 84 34 00 25  .-.#.-...4.[.4.%
0000e620: 94 34 7f 28 84 34 00 18 94 2d 7f 63 84 2d 00 1d  .4.(.4...-.c.-..
0000e630: 94 2d 7f 33 84 2d 00 0d 94 34 7f 81 00 84 34 00  .-.3.-...4....4.
0000e640: 40 94 2d 7f 6b 84 2d 00 15 94 2d 7f 2b 84 2d 00  @.-.k.-...-.+.-.
0000e650: 15 94 34 7f 5b 84 34 00 25 94 34 7f 28 84 34 00  ..4.[.4.%.4.(.4.
0000e660: 18 94 2d 7f 2b 84 2d 00 15 94 2d 7f 23 84 2d 00  ..-.+.-...-.#.-.
0000e670: 18 94 2d 7f 2d 84 2d 00 18 94 34 7f 81 19 84 34  ..-.-.-...4....4
0000e680: 00 27 94 28 7f 4b 84 28 00 35 94 28 7f 3b 84 28  .'.(.K.(.5.(.;.(
0000e690: 00 05 94 2f 7f 58 84 2f 00 28 94 2f 7f 23 84 2f  .../.X./.(./.#./
0000e6a0: 00 1d 94 28 7f 69 84 28 00 17 94 28 7f 33 84 28  ...(.i.(...(.3.(
0000e6b0: 00 0d 94 2f 7f 78 84 2f 00 48 94 28 7f 50 84 28  .../.x./.H.(.P.(
0000e6c0: 00 30 94 28 7f 34 84 28 00 0c 94 34 7f 51 84 34  .0.(.4.(...4.Q.4
0000e6d0: 00 2f 94 2f 7f 2b 84 2f 00 15 94 28 7f 78 84 28  ././.+./...(.x.(
0000e6e0: 00 08 94 34 7f 33 84 34 00 0d 94 2f 7f 54 84 2f  ...4.3.4.../.T./
0000e6f0: 00 6c 94 33 7f 60 84 33 00 20 94 36 7f 30 84 36  .l.3.`.3. .6.0.6
0000e700: 00 10 94 33 7f 73 84 33 00 0d 94 36 7f 33 84 36  ...3.s.3...6.3.6
0000e710: 00 0d 94 33 7f 6b 84 33 00 15 94 36 7f 81 28 84  ...3.k.3...6..(.
0000e720: 36 00 59 94 31 7f 6f 84 31 00 10 94 34 7f 30 84  6.Y.1.o.1...4.0.
0000e730: 34 00 11 94 31 7f 72 84 31 00 0d 94 34 7f 2b 84  4...1.r.1...4.+.
0000e740: 34 00 15 94 31 7f 6b 84 31 00 15 94 34 7f 81 08  4...1.k.1...4...
0000e750: 84 34 00 78 94 28 7f 60 84 28 00 20 94 28 7f 2b  .4.x.(.`.(. .(.+
0000e760: 84 28 00 15 94 2f 7f 54 84 2f 00 2c 94 2f 7f 30  .(.../.T./.,./.0
0000e770: 84 2f 00 10 94 28 7f 60 84 28 00 20 94 28 7f 30  ./...(.`.(. .(.0
0000e780: 84 28 00 10 94 2f 7f 81 20 84 2f 00 20 94 28 7f  .(.../.. ./. .(.
0000e790: 60 84 28 00 20 94 28 7f 30 84 28 00 10 94 2f 7f  `.(. .(.0.(.../.
0000e7a0: 61 84 2f 00 1f 94 2f 7f 28 84 2f 00 20 94 2a 7f  a./.../.(./. .*.
0000e7b0: 5b 84 2a 00 1d 94 2a 7f 28 84 2a 00 18 94 2d 7f  [.*...*.(.*...-.
0000e7c0: 70 84 2d 00 10 94 2d 7f 30 84 2d 00 10 94 28 7f  p.-...-.0.-...(.
0000e7d0: 6c 84 28 00 14 94 28 7f 30 84 28 00 10 94 2f 7f  l.(...(.0.(.../.
0000e7e0: 63 84 2f 00 1d 94 2f 7f 30 84 2f 00 10 94 28 7f  c./.../.0./...(.
0000e7f0: 63 84 28 00 1d 94 28 7f 30 84 28 00 10 94 2f 7f  c.(...(.0.(.../.
0000e800: 6b 84 2f 00 15 94 2f 7f 30 84 2f 00 10 94 2d 7f  k./.../.0./...-.
0000e810: 63 84 2d 00 1d 94 2d 7f 30 84 2d 00 10 94 34 7f  c.-...-.0.-...4.
0000e820: 58 84 34 00 28 94 34 7f 3b 84 34 00 05 94 2d 7f  X.4.(.4.;.4...-.
0000e830: 5b 84 2d 00 25 94 2d 7f 23 84 2d 00 1d 94 34 7f  [.-.%.-.#.-...4.
0000e840: 58 84 34 00 28 94 34 7f 29 84 34 00 1a 94 28 7f  X.4.(.4.).4...(.
0000e850: 50 84 28 00 2d 94 28 7f 28 84 28 00 18 94 2f 7f  P.(.-.(.(.(.../.
0000e860: 53 84 2f 00 2d 94 2f 7f 2c 84 2f 00 14 94 28 7f  S./.-./.,./...(.
0000e870: 5c 84 28 00 24 94 28 7f 30 84 28 00 11 94 2f 7f  \.(.$.(.0.(.../.
0000e880: 57 84 2f 00 28 94 2f 7f 30 84 2f 00 10 94 28 7f  W./.(./.0./...(.
0000e890: 63 84 28 00 1e 94 28 7f 33 84 28 00 0f 94 2f 7f  c.(...(.3.(.../.
0000e8a0: 55 84 2f 00 28 94 2f 7f 2b 84 2f 00 15 94 28 7f  U./.(./.+./...(.
0000e8b0: 54 84 28 00 2c 94 28 7f 2b 84 28 00 16 94 2f 7f  T.(.,.(.+.(.../.
0000e8c0: 5a 84 2f 00 28 94 2f 7f 2d 84 2f 00 10 94 2d 7f  Z./.(./.-./...-.
0000e8d0: 58 84 2d 00 28 94 2d 7f 2b 84 2d 00 15 94 34 7f  X.-.(.-.+.-...4.
0000e8e0: 58 84 34 00 28 94 34 7f 29 84 34 00 18 94 2d 7f  X.4.(.4.).4...-.
0000e8f0: 62 84 2d 00 1d 94 2d 7f 30 84 2d 00 10 94 34 7f  b.-...-.0.-...4.
0000e900: 4b 84 34 00 30 94 34 7f 2d 84 34 00 18 94 2d 7f  K.4.0.4.-.4...-.
0000e910: 54 84 2d 00 2c 94 2d 7f 30 84 2d 00 10 94 34 7f  T.-.,.-.0.-...4.
0000e920: 51 84 34 00 2f 94 34 7f 30 84 34 00 10 94 2d 7f  Q.4./.4.0.4...-.
0000e930: 58 84 2d 00 28 94 2d 7f 33 84 2d 00 0d 94 34 7f  X.-.(.-.3.-...4.
0000e940: 58 84 34 00 28 94 34 7f 38 84 34 00 08 94 28 7f  X.4.(.4.8.4...(.
0000e950: 60 84 28 00 20 94 28 7f 31 84 28 00 0f 94 2f 7f  `.(. .(.1.(.../.
0000e960: 4b 84 2f 00 35 94 2f 7f 30 84 2f 00 10 94 28 7f  K./.5./.0./...(.
0000e970: 50 84 28 00 30 94 28 7f 2b 84 28 00 18 94 2f 7f  P.(.0.(.+.(.../.
0000e980: 4d 84 2f 00 30 94 2f 7f 28 84 2f 00 20 94 2f 7f  M./.0./.(./. ./.
0000e990: 60 84 2f 00 18 94 2d 7f 81 30 84 2d 00 10 94 2b  `./...-..0.-...+
0000e9a0: 7f 30 84 2b 00 10 94 2d 7f 70 84 2d 00 10 94 2b  .0.+...-.p.-...+
0000e9b0: 7f 30 84 2b 00 10 94 28 7f 81 33 84 28 00 0e 94  .0.+...(..3.(...
0000e9c0: 34 7f 5b 84 34 00 24 94 34 7f 31 84 34 00 0f 94  4.[.4.$.4.1.4...
0000e9d0: 31 7f 50 84 31 00 30 94 31 7f 28 84 31 00 18 94  1.P.1.0.1.(.1...
0000e9e0: 32 7f 54 84 32 00 2c 94 32 7f 30 84 32 00 10 94  2.T.2.,.2.0.2...
0000e9f0: 2f 7f 58 84 2f 00 28 94 2f 7f 2b 84 2f 00 15 94  /.X./.(./.+./...
0000ea00: 2d 7f 5b 84 2d 00 25 94 2d 7f 30 84 2d 00 10 94  -.[.-.%.-.0.-...
0000ea10: 34 7f 4c 84 34 00 34 94 34 7f 2b 84 34 00 15 94  4.L.4.4.4.+.4...
0000ea20: 2d 7f 5b 84 2d 00 25 94 2d 7f 29 84 2d 00 18 94  -.[.-.%.-.).-...
0000ea30: 34 7f 57 84 34 00 28 94 34 7f 28 84 34 00 18 94  4.W.4.(.4.(.4...
0000ea40: 28 7f 71 84 28 00 0f 94 28 7f 30 84 28 00 11 94  (.q.(...(.0.(...
0000ea50: 2f 7f 5a 84 2f 00 25 94 2f 7f 29 84 2f 00 17 94  /.Z./.%./.)./...
0000ea60: 2b 7f 51 84 2b 00 2f 94 28 7f 30 84 28 00 13 94  +.Q.+./.(.0.(...
0000ea70: 26 7f 4d 84 26 00 2b 94 23 7f 2d 84 23 00 1b 94  &.M.&.+.#.-.#...
0000ea80: 28 7f 4d 84 28 00 30 94 28 7f 21 84 28 00 22 94  (.M.(.0.(.!.(.".
0000ea90: 2f 7f 45 84 2f 00 38 94 2f 7f 28 84 2f 00 18 94  /.E./.8./.(./...
0000eaa0: 34 7f 70 84 34 00 10 94 2f 7f 30 84 2f 00 10 94  4.p.4.../.0./...
0000eab0: 2f 7f 81 30 84 2f 00 00 ff 7f 1c 24 24 00 08 00  /..0./.....$$...
0000eac0: 00 00 00 00 00 14 ff 00 00 00 00 00 00 21 00 00  .............!..
0000ead0: 01 37 f0 00 00 0c 00 00 ff 7f 05 24 24 00 01 00  .7.........$$...
0000eae0: 00 ff 7f 06 24 24 00 06 04 04 00 ff 7f 05 24 24  ....$$........$$
0000eaf0: 00 02 04 01 ff 2f 00 4d 54 72 6b 00 00 4e 60 00  ...../.MTrk..N`.
0000eb00: ff 00 02 00 07 00 ff 03 05 44 72 75 6d 73 90 40  .........Drums.@
0000eb10: 9f 28 50 00 9f 28 50 0b 8f 28 00 05 9f 28 50 00  .(P..(P..(...(P.
0000eb20: 8f 28 00 0b 8f 28 00 05 9f 28 50 0b 8f 28 00 05  .(...(...(P..(..
0000eb30: 9f 28 50 0b 8f 28 00 05 9f 28 50 0b 8f 28 00 05  .(P..(...(P..(..
0000eb40: 9f 28 50 0b 8f 28 00 05 9f 28 50 0b 8f 28 00 05  .(P..(...(P..(..
0000eb50: 9f 28 50 08 8f 28 00 03 9f 28 50 08 8f 28 00 05  .(P..(...(P..(..
0000eb60: 9f 28 50 08 8f 28 00 08 9f 28 50 08 8f 28 00 08  .(P..(...(P..(..
0000eb70: 9f 28 50 08 8f 28 00 08 9f 28 50 08 9f 24 40 00  .(P..(...(P..$@.
0000eb80: 9f 2a 40 00 9f 3b 40 00 8f 28 00 03 9f 28 50 05  .*@..;@..(...(P.
0000eb90: 9f 23 40 0b 8f 2a 00 05 8f 28 00 03 8f 23 00 0d  .#@..*...(...#..
0000eba0: 8f 3b 00 00 8f 24 00 50 9f 31 40 08 9f 2a 40 10  .;...$.P.1@..*@.
0000ebb0: 8f 31 00 03 8f 2a 00 2d 9f 24 40 00 9f 2a 40 03  .1...*.-.$@..*@.
0000ebc0: 9f 28 50 05 9f 23 40 03 9f 28 50 08 8f 2a 00 05  .(P..#@..(P..*..
0000ebd0: 8f 28 00 03 8f 23 00 05 8f 28 00 08 8f 24 00 58  .(...#...(...$.X
0000ebe0: 9f 2a 40 13 8f 2a 00 2d 9f 24 40 03 9f 2a 40 05  .*@..*.-.$@..*@.
0000ebf0: 9f 23 40 10 8f 2a 00 03 8f 23 00 0d 8f 24 00 58  .#@..*...#...$.X
0000ec00: 9f 2a 40 13 8f 2a 00 25 9f 31 40 08 9f 24 40 00  .*@..*.%.1@..$@.
0000ec10: 9f 28 50 00 9f 2a 40 08 9f 23 40 00 9f 28 50 08  .(P..*@..#@..(P.
0000ec20: 8f 31 00 03 8f 2a 00 08 8f 23 00 0d 8f 24 00 00  .1...*...#...$..
0000ec30: 8f 28 00 08 8f 28 00 4b 9f 2a 40 15 8f 2a 00 30  .(...(.K.*@..*.0
0000ec40: 9f 24 40 00 9f 2a 40 08 9f 23 40 0b 8f 2a 00 08  .$@..*@..#@..*..
0000ec50: 8f 23 00 0d 8f 24 00 58 9f 2a 40 13 8f 2a 00 28  .#...$.X.*@..*.(
0000ec60: 9f 31 40 05 9f 24 40 00 9f 2a 40 03 9f 28 50 05  .1@..$@..*@..(P.
0000ec70: 9f 23 40 03 9f 28 50 08 8f 2a 00 00 8f 31 00 05  .#@..(P..*...1..
0000ec80: 8f 28 00 03 8f 23 00 05 8f 28 00 08 8f 24 00 58  .(...#...(...$.X
0000ec90: 9f 2a 40 13 8f 2a 00 2d 9f 24 40 03 9f 2a 40 05  .*@..*.-.$@..*@.
0000eca0: 9f 23 40 10 8f 2a 00 03 8f 23 00 0d 8f 24 00 58  .#@..*...#...$.X
0000ecb0: 9f 2a 40 13 8f 2a 00 25 9f 31 40 08 9f 24 40 00  .*@..*.%.1@..$@.
0000ecc0: 9f 28 50 00 9f 2a 40 08 9f 23 40 00 9f 28 50 08  .(P..*@..#@..(P.
0000ecd0: 8f 31 00 03 8f 2a 00 08 8f 23 00 0d 8f 24 00 00  .1...*...#...$..
0000ece0: 8f 28 00 08 8f 28 00 50 9f 2a 40 13 8f 2a 00 2d  .(...(.P.*@..*.-
0000ecf0: 9f 24 40 00 9f 2a 40 08 9f 23 40 0b 8f 2a 00 08  .$@..*@..#@..*..
0000ed00: 8f 23 00 0d 8f 24 00 50 9f 31 40 08 9f 2a 40 10  .#...$.P.1@..*@.
0000ed10: 8f 31 00 04 8f 2a 00 24 9f 31 40 08 9f 24 40 03  .1...*.$.1@..$@.
0000ed20: 9f 28 50 00 9f 2a 40 05 9f 23 40 03 9f 28 50 05  .(P..*@..#@..(P.
0000ed30: 8f 31 00 08 8f 2a 00 00 8f 28 00 03 8f 23 00 05  .1...*...(...#..
0000ed40: 8f 28 00 08 8f 24 00 53 9f 2a 40 15 8f 2a 00 30  .(...$.S.*@..*.0
0000ed50: 9f 24 40 03 9f 2a 40 05 9f 23 40 10 8f 2a 00 03  .$@..*@..#@..*..
0000ed60: 8f 23 00 0d 8f 24 00 58 9f 2a 40 13 8f 2a 00 25  .#...$.X.*@..*.%
0000ed70: 9f 31 40 08 9f 24 40 00 9f 28 50 03 9f 2a 40 05  .1@..$@..(P..*@.
0000ed80: 9f 23 40 00 9f 28 50 10 8f 2a 00 01 8f 31 00 02  .#@..(P..*...1..
0000ed90: 8f 23 00 0d 8f 24 00 00 8f 28 00 08 8f 28 00 50  .#...$...(...(.P
0000eda0: 9f 2a 40 13 8f 2a 00 2d 9f 24 40 00 9f 2a 40 10  .*@..*.-.$@..*@.
0000edb0: 9f 23 40 03 8f 2a 00 10 8f 23 00 05 8f 24 00 58  .#@..*...#...$.X
0000edc0: 9f 2a 40 13 8f 2a 00 28 9f 31 40 05 9f 24 40 00  .*@..*.(.1@..$@.
0000edd0: 9f 2a 40 03 9f 28 50 08 9f 28 50 05 9f 23 40 03  .*@..(P..(P..#@.
0000ede0: 8f 2a 00 00 8f 31 00 05 8f 28 00 08 8f 28 00 03  .*...1...(...(..
0000edf0: 8f 23 00 05 8f 24 00 58 9f 2a 40 13 8f 2a 00 2d  .#...$.X.*@..*.-
0000ee00: 9f 24 40 03 9f 2a 40 0d 9f 23 40 08 8f 2a 00 0b  .$@..*@..#@..*..
0000ee10: 8f 23 00 05 8f 24 00 58 9f 2a 40 13 8f 2a 00 25  .#...$.X.*@..*.%
0000ee20: 9f 31 40 08 9f 24 40 00 9f 28 50 00 9f 2a 40 08  .1@..$@..(P..*@.
0000ee30: 9f 28 50 08 9f 23 40 00 8f 31 00 03 8f 2a 00 10  .(P..#@..1...*..
0000ee40: 8f 23 00 05 8f 24 00 00 8f 28 00 08 8f 28 00 4b  .#...$...(...(.K
0000ee50: 9f 2a 40 15 8f 2a 00 30 9f 24 40 00 9f 2a 40 10  .*@..*.0.$@..*@.
0000ee60: 9f 23 40 03 8f 2a 00 10 8f 23 00 05 8f 24 00 58  .#@..*...#...$.X
0000ee70: 9f 28 50 00 9f 2a 40 08 9f 28 50 0b 8f 2a 00 01  .(P..*@..(P..*..
0000ee80: 8f 28 00 07 8f 28 00 1d 9f 31 40 08 9f 24 40 00  .(...(...1@..$@.
0000ee90: 9f 2a 40 03 9f 28 50 08 9f 28 50 05 9f 23 40 00  .*@..(P..(P..#@.
0000eea0: 8f 31 00 03 8f 2a 00 05 8f 28 00 08 8f 28 00 03  .1...*...(...(..
0000eeb0: 8f 23 00 05 8f 24 00 18 9f 2a 40 13 8f 2a 00 2d  .#...$...*@..*.-
0000eec0: 9f 28 50 00 9f 2a 40 08 9f 28 50 0b 8f 2a 00 05  .(P..*@..(P..*..
0000eed0: 8f 28 00 08 8f 28 00 20 9f 24 40 03 9f 2a 40 0d  .(...(. .$@..*@.
0000eee0: 9f 23 40 08 8f 2a 00 0b 8f 23 00 05 8f 24 00 58  .#@..*...#...$.X
0000eef0: 9f 2a 40 01 9f 28 50 07 9f 28 50 0b 8f 2a 00 01  .*@..(P..(P..*..
0000ef00: 8f 28 00 0c 8f 28 00 18 9f 31 40 08 9f 24 40 00  .(...(...1@..$@.
0000ef10: 9f 28 50 00 9f 2a 40 08 9f 28 50 08 9f 23 40 00  .(P..*@..(P..#@.
0000ef20: 8f 31 00 03 8f 2a 00 10 8f 23 00 05 8f 24 00 00  .1...*...#...$..
0000ef30: 8f 28 00 08 8f 28 00 10 9f 2a 40 13 8f 2a 00 28  .(...(...*@..*.(
0000ef40: 9f 2a 40 15 8f 2a 00 30 9f 24 40 00 9f 2a 40 03  .*@..*.0.$@..*@.
0000ef50: 9f 28 50 0d 9f 23 40 00 9f 28 50 03 8f 2a 00 08  .(P..#@..(P..*..
0000ef60: 8f 28 00 08 8f 23 00 05 8f 28 00 00 8f 24 00 50  .(...#...(...$.P
0000ef70: 9f 31 40 08 9f 2a 40 10 8f 31 00 03 8f 2a 00 21  .1@..*@..1...*.!
0000ef80: 9f 31 40 0c 9f 24 40 00 9f 2a 40 03 9f 28 50 08  .1@..$@..*@..(P.
0000ef90: 9f 28 50 05 9f 23 40 00 8f 31 00 03 8f 2a 00 05  .(P..#@..1...*..
0000efa0: 8f 28 00 08 8f 28 00 03 8f 23 00 05 8f 24 00 58  .(...(...#...$.X
0000efb0: 9f 2a 40 13 8f 2a 00 2d 9f 24 40 03 9f 2a 40 0d  .*@..*.-.$@..*@.
0000efc0: 9f 23 40 08 8f 2a 00 0b 8f 23 00 05 8f 24 00 50  .#@..*...#...$.P
0000efd0: 9f 31 40 08 9f 2a 40 10 8f 31 00 03 8f 2a 00 25  .1@..*@..1...*.%
0000efe0: 9f 31 40 08 9f 24 40 00 9f 28 50 00 9f 2a 40 08  .1@..$@..(P..*@.
0000eff0: 9f 28 50 08 9f 23 40 00 8f 31 00 03 8f 2a 00 10  .(P..#@..1...*..
0000f000: 8f 23 00 05 8f 24 00 00 8f 28 00 08 8f 28 00 4b  .#...$...(...(.K
0000f010: 9f 2a 40 15 8f 2a 00 30 9f 24 40 00 9f 2a 40 10  .*@..*.0.$@..*@.
0000f020: 9f 23 40 03 8f 2a 00 10 8f 23 00 05 8f 24 00 58  .#@..*...#...$.X
0000f030: 9f 2a 40 13 8f 2a 00 28 9f 31 40 05 9f 24 40 00  .*@..*.(.1@..$@.
0000f040: 9f 2a 40 03 9f 28 50 08 9f 28 50 05 9f 23 40 00  .*@..(P..(P..#@.
0000f050: 8f 31 00 03 8f 2a 00 05 8f 28 00 08 8f 28 00 03  .1...*...(...(..
0000f060: 8f 23 00 05 8f 24 00 58 9f 2a 40 13 8f 2a 00 2d  .#...$.X.*@..*.-
0000f070: 9f 24 40 03 9f 2a 40 0d 9f 23 40 08 8f 2a 00 0b  .$@..*@..#@..*..
0000f080: 8f 23 00 05 8f 24 00 58 9f 2a 40 13 8f 2a 00 25  .#...$.X.*@..*.%
0000f090: 9f 31 40 08 9f 24 40 00 9f 28 50 00 9f 2a 40 08  .1@..$@..(P..*@.
0000f0a0: 9f 28 50 08 9f 23 40 00 8f 31 00 03 8f 2a 00 10  .(P..#@..1...*..
0000f0b0: 8f 23 00 05 8f 24 00 00 8f 28 00 08 8f 28 00 4b  .#...$...(...(.K
0000f0c0: 9f 2a 40 15 8f 2a 00 30 9f 24 40 00 9f 2a 40 10  .*@..*.0.$@..*@.
0000f0d0: 9f 23 40 03 8f 2a 00 10 8f 23 00 05 8f 24 00 58  .#@..*...#...$.X
0000f0e0: 9f 2a 40 13 8f 2a 00 25 9f 31 40 08 9f 24 40 00  .*@..*.%.1@..$@.
0000f0f0: 9f 2a 40 03 9f 28 50 08 9f 28 50 05 9f 23 40 00  .*@..(P..(P..#@.
0000f100: 8f 31 00 03 8f 2a 00 05 8f 28 00 08 8f 28 00 03  .1...*...(...(..
0000f110: 8f 23 00 05 8f 24 00 58 9f 2a 40 13 8f 2a 00 2d  .#...$.X.*@..*.-
0000f120: 9f 24 40 03 9f 2a 40 0d 9f 23 40 08 8f 2a 00 0b  .$@..*@..#@..*..
0000f130: 8f 23 00 05 8f 24 00 58 9f 2a 40 13 8f 2a 00 26  .#...$.X.*@..*.&
0000f140: 9f 31 40 07 9f 24 40 00 9f 28 50 00 9f 2a 40 08  .1@..$@..(P..*@.
0000f150: 9f 28 50 08 9f 23 40 00 8f 31 00 03 8f 2a 00 10  .(P..#@..1...*..
0000f160: 8f 23 00 05 8f 24 00 00 8f 28 00 08 8f 28 00 4b  .#...$...(...(.K
0000f170: 9f 2a 40 15 8f 2a 00 30 9f 24 40 00 9f 2a 40 10  .*@..*.0.$@..*@.
0000f180: 9f 23 40 03 8f 2a 00 10 8f 23 00 05 8f 24 00 58  .#@..*...#...$.X
0000f190: 9f 2a 40 13 8f 2a 00 25 9f 31 40 08 9f 24 40 00  .*@..*.%.1@..$@.
0000f1a0: 9f 2a 40 03 9f 28 50 08 9f 28 50 05 9f 23 40 00  .*@..(P..(P..#@.
0000f1b0: 8f 31 00 03 8f 2a 00 05 8f 28 00 08 8f 28 00 03  .1...*...(...(..
0000f1c0: 8f 23 00 05 8f 24 00 58 9f 2a 40 13 8f 2a 00 2d  .#...$.X.*@..*.-
0000f1d0: 9f 24 40 03 9f 2a 40 0d 9f 23 40 08 8f 2a 00 0b  .$@..*@..#@..*..
0000f1e0: 8f 23 00 05 8f 24 00 58 9f 2a 40 13 8f 2a 00 20  .#...$.X.*@..*. 
0000f1f0: 9f 31 40 0d 9f 24 40 00 9f 28 50 00 9f 2a 40 08  .1@..$@..(P..*@.
0000f200: 9f 28 50 08 9f 23 40 00 8f 31 00 03 8f 2a 00 10  .(P..#@..1...*..
0000f210: 8f 23 00 05 8f 24 00 00 8f 28 00 08 8f 28 00 4b  .#...$...(...(.K
0000f220: 9f 2a 40 15 8f 2a 00 30 9f 24 40 00 9f 2a 40 10  .*@..*.0.$@..*@.
0000f230: 9f 23 40 03 8f 2a 00 10 8f 23 00 05 8f 24 00 4b  .#@..*...#...$.K
0000f240: 9f 31 40 0d 9f 2a 40 10 8f 31 00 03 8f 2a 00 25  .1@..*@..1...*.%
0000f250: 9f 31 40 08 9f 24 40 00 9f 2a 40 03 9f 28 50 08  .1@..$@..*@..(P.
0000f260: 9f 28 50 05 9f 23 40 03 8f 2a 00 00 8f 31 00 05  .(P..#@..*...1..
0000f270: 8f 28 00 08 8f 28 00 03 8f 23 00 05 8f 24 00 58  .(...(...#...$.X
0000f280: 9f 2a 40 13 8f 2a 00 2d 9f 24 40 03 9f 2a 40 0d  .*@..*.-.$@..*@.
0000f290: 9f 23 40 08 8f 2a 00 0b 8f 23 00 05 8f 24 00 58  .#@..*...#...$.X
0000f2a0: 9f 2a 40 13 8f 2a 00 25 9f 31 40 08 9f 24 40 00  .*@..*.%.1@..$@.
0000f2b0: 9f 28 50 00 9f 2a 40 08 9f 28 50 08 9f 23 40 00  .(P..*@..(P..#@.
0000f2c0: 8f 31 00 03 8f 2a 00 10 8f 23 00 05 8f 24 00 00  .1...*...#...$..
0000f2d0: 8f 28 00 08 8f 28 00 4b 9f 2a 40 15 8f 2a 00 30  .(...(.K.*@..*.0
0000f2e0: 9f 24 40 00 9f 2a 40 10 9f 23 40 03 8f 2a 00 10  .$@..*@..#@..*..
0000f2f0: 8f 23 00 05 8f 24 00 58 9f 2a 40 13 8f 2a 00 28  .#...$.X.*@..*.(
0000f300: 9f 31 40 05 9f 24 40 00 9f 2a 40 03 9f 28 50 08  .1@..$@..*@..(P.
0000f310: 9f 28 50 05 9f 23 40 03 8f 2a 00 05 8f 28 00 00  .(P..#@..*...(..
0000f320: 8f 31 00 08 8f 28 00 03 8f 23 00 05 8f 24 00 58  .1...(...#...$.X
0000f330: 9f 2a 40 13 8f 2a 00 2d 9f 24 40 03 9f 2a 40 0d  .*@..*.-.$@..*@.
0000f340: 9f 23 40 08 8f 2a 00 0b 8f 23 00 05 8f 24 00 58  .#@..*...#...$.X
0000f350: 9f 2a 40 13 8f 2a 00 25 9f 31 40 08 9f 24 40 00  .*@..*.%.1@..$@.
0000f360: 9f 28 50 00 9f 2a 40 08 9f 28 50 08 9f 23 40 00  .(P..*@..(P..#@.
0000f370: 8f 31 00 03 8f 2a 00 10 8f 23 00 05 8f 24 00 00  .1...*...#...$..
0000f380: 8f 28 00 08 8f 28 00 4b 9f 2a 40 15 8f 2a 00 30  .(...(.K.*@..*.0
0000f390: 9f 24 40 00 9f 2a 40 10 9f 23 40 03 8f 2a 00 10  .$@..*@..#@..*..
0000f3a0: 8f 23 00 05 8f 24 00 50 9f 31 40 08 9f 2a 40 10  .#...$.P.1@..*@.
0000f3b0: 8f 31 00 03 8f 2a 00 25 9f 31 40 08 9f 24 40 00  .1...*.%.1@..$@.
0000f3c0: 9f 2a 40 03 9f 28 50 08 9f 28 50 05 9f 23 40 00  .*@..(P..(P..#@.
0000f3d0: 8f 31 00 03 8f 2a 00 05 8f 28 00 08 8f 28 00 03  .1...*...(...(..
0000f3e0: 8f 23 00 05 8f 24 00 58 9f 2a 40 13 8f 2a 00 2d  .#...$.X.*@..*.-
0000f3f0: 9f 24 40 03 9f 2a 40 0d 9f 23 40 08 8f 2a 00 0b  .$@..*@..#@..*..
0000f400: 8f 23 00 05 8f 24 00 50 9f 31 40 08 9f 2a 40 10  .#...$.P.1@..*@.
0000f410: 8f 31 00 03 8f 2a 00 26 9f 31 40 07 9f 24 40 00  .1...*.&.1@..$@.
0000f420: 9f 28 50 00 9f 2a 40 08 9f 28 50 08 9f 23 40 00  .(P..*@..(P..#@.
0000f430: 8f 31 00 03 8f 2a 00 10 8f 23 00 05 8f 24 00 00  .1...*...#...$..
0000f440: 8f 28 00 08 8f 28 00 4b 9f 2a 40 15 8f 2a 00 30  .(...(.K.*@..*.0
0000f450: 9f 24 40 00 9f 2a 40 10 9f 23 40 03 8f 2a 00 10  .$@..*@..#@..*..
0000f460: 8f 23 00 05 8f 24 00 50 9f 31 40 08 9f 28 50 00  .#...$.P.1@..(P.
0000f470: 9f 2a 40 08 9f 28 50 0b 8f 2a 00 05 8f 28 00 03  .*@..(P..*...(..
0000f480: 8f 31 00 08 8f 28 00 1d 9f 24 40 00 9f 2a 40 03  .1...(...$@..*@.
0000f490: 9f 28 50 08 9f 28 50 05 9f 23 40 03 8f 2a 00 05  .(P..(P..#@..*..
0000f4a0: 8f 28 00 08 8f 28 00 03 8f 23 00 05 8f 24 00 58  .(...(...#...$.X
0000f4b0: 9f 28 50 00 9f 2a 40 0b 9f 28 50 08 8f 28 00 00  .(P..*@..(P..(..
0000f4c0: 8f 2a 00 05 8f 28 00 28 9f 24 40 03 9f 28 50 00  .*...(.(.$@..(P.
0000f4d0: 9f 2a 40 0d 9f 23 40 03 9f 28 50 05 8f 2a 00 03  .*@..#@..(P..*..
0000f4e0: 8f 28 00 05 8f 28 00 03 8f 23 00 05 8f 24 00 18  .(...(...#...$..
0000f4f0: 9f 28 50 18 8f 28 00 28 9f 28 50 00 9f 2a 40 13  .(P..(.(.(P..*@.
0000f500: 8f 2a 00 05 8f 28 00 28 9f 24 40 00 9f 28 50 00  .*...(.(.$@..(P.
0000f510: 9f 2a 40 08 9f 28 50 08 9f 23 40 03 8f 2a 00 10  .*@..(P..#@..*..
0000f520: 8f 23 00 05 8f 24 00 00 8f 28 00 08 8f 28 00 4b  .#...$...(...(.K
0000f530: 9f 2a 40 05 9f 28 50 10 8f 2a 00 08 8f 28 00 28  .*@..(P..*...(.(
0000f540: 9f 24 40 00 9f 2a 40 03 9f 2a 40 05 9f 23 40 00  .$@..*@..*@..#@.
0000f550: 9f 28 50 0b 8f 2a 00 05 8f 2a 00 03 8f 23 00 05  .(P..*...*...#..
0000f560: 8f 28 00 08 8f 24 00 58 9f 2a 40 13 8f 2a 00 28  .(...$.X.*@..*.(
0000f570: 9f 31 40 05 9f 24 40 00 9f 2a 40 03 9f 28 50 05  .1@..$@..*@..(P.
0000f580: 9f 23 40 03 9f 28 50 08 8f 2a 00 00 8f 31 00 05  .#@..(P..*...1..
0000f590: 8f 28 00 03 8f 23 00 05 8f 28 00 08 8f 24 00 58  .(...#...(...$.X
0000f5a0: 9f 2a 40 13 8f 2a 00 2d 9f 24 40 03 9f 2a 40 05  .*@..*.-.$@..*@.
0000f5b0: 9f 23 40 10 8f 2a 00 03 8f 23 00 0d 8f 24 00 58  .#@..*...#...$.X
0000f5c0: 9f 2a 40 13 8f 2a 00 25 9f 31 40 08 9f 24 40 00  .*@..*.%.1@..$@.
0000f5d0: 9f 28 50 00 9f 2a 40 08 9f 23 40 00 9f 28 50 08  .(P..*@..#@..(P.
0000f5e0: 8f 31 00 03 8f 2a 00 08 8f 23 00 0d 8f 24 00 00  .1...*...#...$..
0000f5f0: 8f 28 00 08 8f 28 00 50 9f 2a 40 13 8f 2a 00 2d  .(...(.P.*@..*.-
0000f600: 9f 24 40 00 9f 2a 40 08 9f 23 40 0b 8f 2a 00 08  .$@..*@..#@..*..
0000f610: 8f 23 00 0d 8f 24 00 50 9f 31 40 08 9f 2a 40 10  .#...$.P.1@..*@.
0000f620: 8f 31 00 04 8f 2a 00 24 9f 31 40 08 9f 24 40 03  .1...*.$.1@..$@.
0000f630: 9f 28 50 00 9f 2a 40 05 9f 23 40 03 9f 28 50 05  .(P..*@..#@..(P.
0000f640: 8f 31 00 08 8f 2a 00 00 8f 28 00 03 8f 23 00 05  .1...*...(...#..
0000f650: 8f 28 00 08 8f 24 00 53 9f 2a 40 15 8f 2a 00 30  .(...$.S.*@..*.0
0000f660: 9f 24 40 03 9f 2a 40 05 9f 23 40 10 8f 2a 00 03  .$@..*@..#@..*..
0000f670: 8f 23 00 0d 8f 24 00 58 9f 2a 40 13 8f 2a 00 25  .#...$.X.*@..*.%
0000f680: 9f 31 40 08 9f 24 40 00 9f 28 50 03 9f 2a 40 05  .1@..$@..(P..*@.
0000f690: 9f 23 40 00 9f 28 50 10 8f 2a 00 01 8f 31 00 02  .#@..(P..*...1..
0000f6a0: 8f 23 00 0d 8f 24 00 00 8f 28 00 08 8f 28 00 10  .#...$...(...(..
0000f6b0: 9f 28 50 13 8f 28 00 2d 9f 2a 40 13 8f 2a 00 2d  .(P..(.-.*@..*.-
0000f6c0: 9f 24 40 00 9f 2a 40 10 9f 23 40 03 8f 2a 00 10  .$@..*@..#@..*..
0000f6d0: 8f 23 00 05 8f 24 00 58 9f 2a 40 13 8f 2a 00 28  .#...$.X.*@..*.(
0000f6e0: 9f 31 40 05 9f 24 40 00 9f 2a 40 03 9f 28 50 08  .1@..$@..*@..(P.
0000f6f0: 9f 28 50 05 9f 23 40 03 8f 2a 00 00 8f 31 00 05  .(P..#@..*...1..
0000f700: 8f 28 00 08 8f 28 00 03 8f 23 00 05 8f 24 00 18  .(...(...#...$..
0000f710: 9f 28 50 18 8f 28 00 28 9f 2a 40 13 8f 2a 00 2d  .(P..(.(.*@..*.-
0000f720: 9f 24 40 01 9f 28 50 02 9f 2a 40 06 8f 28 00 07  .$@..(P..*@..(..
0000f730: 9f 23 40 00 9f 28 50 08 8f 28 00 00 8f 2a 00 04  .#@..(P..(...*..
0000f740: 9f 28 50 07 8f 23 00 01 8f 28 00 04 8f 24 00 04  .(P..#...(...$..
0000f750: 9f 28 50 0c 8f 28 00 48 9f 2a 40 13 8f 2a 00 25  .(P..(.H.*@..*.%
0000f760: 9f 31 40 08 9f 24 40 00 9f 28 50 00 9f 2a 40 08  .1@..$@..(P..*@.
0000f770: 9f 28 50 00 8f 28 00 08 9f 23 40 00 9f 28 50 00  .(P..(...#@..(P.
0000f780: 8f 31 00 03 8f 2a 00 05 8f 28 00 08 9f 28 50 03  .1...*...(...(P.
0000f790: 8f 23 00 05 8f 28 00 00 8f 24 00 08 9f 28 50 00  .#...(...$...(P.
0000f7a0: 8f 28 00 08 8f 28 00 08 9f 28 50 08 8f 28 00 08  .(...(...(P..(..
0000f7b0: 9f 28 50 08 8f 28 00 23 9f 2a 40 15 8f 2a 00 30  .(P..(.#.*@..*.0
0000f7c0: 9f 24 40 00 9f 2a 40 10 9f 23 40 03 8f 2a 00 10  .$@..*@..#@..*..
0000f7d0: 8f 23 00 05 8f 24 00 58 9f 28 50 00 9f 2a 40 08  .#...$.X.(P..*@.
0000f7e0: 9f 28 50 0b 8f 2a 00 01 8f 28 00 07 8f 28 00 1d  .(P..*...(...(..
0000f7f0: 9f 31 40 08 9f 24 40 00 9f 2a 40 03 9f 28 50 08  .1@..$@..*@..(P.
0000f800: 9f 28 50 05 9f 23 40 00 8f 31 00 03 8f 2a 00 05  .(P..#@..1...*..
0000f810: 8f 28 00 08 8f 28 00 03 8f 23 00 05 8f 24 00 18  .(...(...#...$..
0000f820: 9f 2a 40 13 8f 2a 00 2d 9f 28 50 00 9f 2a 40 08  .*@..*.-.(P..*@.
0000f830: 9f 28 50 0b 8f 2a 00 05 8f 28 00 08 8f 28 00 20  .(P..*...(...(. 
0000f840: 9f 24 40 03 9f 28 50 00 9f 2a 40 0d 9f 23 40 08  .$@..(P..*@..#@.
0000f850: 8f 2a 00 03 8f 28 00 08 8f 23 00 05 8f 24 00 58  .*...(...#...$.X
0000f860: 9f 2a 40 01 9f 28 50 07 9f 28 50 0b 8f 2a 00 01  .*@..(P..(P..*..
0000f870: 8f 28 00 0c 8f 28 00 18 9f 31 40 08 9f 24 40 00  .(...(...1@..$@.
0000f880: 9f 28 50 00 9f 2a 40 08 9f 28 50 08 9f 23 40 00  .(P..*@..(P..#@.
0000f890: 8f 31 00 03 8f 2a 00 10 8f 23 00 05 8f 24 00 00  .1...*...#...$..
0000f8a0: 8f 28 00 08 8f 28 00 10 9f 2a 40 13 8f 2a 00 28  .(...(...*@..*.(
0000f8b0: 9f 2a 40 15 8f 2a 00 30 9f 24 40 00 9f 2a 40 03  .*@..*.0.$@..*@.
0000f8c0: 9f 28 50 0d 9f 23 40 00 9f 28 50 03 8f 2a 00 08  .(P..#@..(P..*..
0000f8d0: 8f 28 00 08 8f 23 00 05 8f 28 00 00 8f 24 00 50  .(...#...(...$.P
0000f8e0: 9f 31 40 08 9f 2a 40 10 9f 28 50 00 8f 31 00 03  .1@..*@..(P..1..
0000f8f0: 8f 2a 00 15 8f 28 00 0c 9f 31 40 0c 9f 24 40 00  .*...(...1@..$@.
0000f900: 9f 2a 40 03 9f 28 50 08 9f 28 50 05 9f 23 40 00  .*@..(P..(P..#@.
0000f910: 8f 31 00 03 8f 2a 00 05 8f 28 00 08 8f 28 00 03  .1...*...(...(..
0000f920: 8f 23 00 05 8f 24 00 58 9f 2a 40 13 8f 2a 00 2d  .#...$.X.*@..*.-
0000f930: 9f 24 40 03 9f 28 50 00 9f 2a 40 0d 9f 23 40 08  .$@..(P..*@..#@.
0000f940: 8f 2a 00 03 8f 28 00 08 8f 23 00 05 8f 24 00 50  .*...(...#...$.P
0000f950: 9f 31 40 08 9f 2a 40 10 8f 31 00 03 8f 2a 00 25  .1@..*@..1...*.%
0000f960: 9f 31 40 08 9f 24 40 00 9f 28 50 00 9f 2a 40 08  .1@..$@..(P..*@.
0000f970: 9f 28 50 08 9f 23 40 00 8f 31 00 03 8f 2a 00 10  .(P..#@..1...*..
0000f980: 8f 23 00 05 8f 24 00 00 8f 28 00 08 8f 28 00 4b  .#...$...(...(.K
0000f990: 9f 2a 40 15 8f 2a 00 30 9f 24 40 00 9f 2a 40 10  .*@..*.0.$@..*@.
0000f9a0: 9f 23 40 03 8f 2a 00 10 8f 23 00 05 8f 24 00 58  .#@..*...#...$.X
0000f9b0: 9f 2a 40 13 8f 2a 00 28 9f 31 40 05 9f 24 40 00  .*@..*.(.1@..$@.
0000f9c0: 9f 2a 40 03 9f 28 50 08 9f 28 50 05 9f 23 40 00  .*@..(P..(P..#@.
0000f9d0: 8f 31 00 03 8f 2a 00 05 8f 28 00 08 8f 28 00 03  .1...*...(...(..
0000f9e0: 8f 23 00 05 8f 24 00 58 9f 2a 40 13 8f 2a 00 2d  .#...$.X.*@..*.-
0000f9f0: 9f 24 40 03 9f 2a 40 0d 9f 23 40 08 8f 2a 00 0b  .$@..*@..#@..*..
0000fa00: 8f 23 00 05 8f 24 00 58 9f 2a 40 13 8f 2a 00 25  .#...$.X.*@..*.%
0000fa10: 9f 31 40 08 9f 24 40 00 9f 28 50 00 9f 2a 40 08  .1@..$@..(P..*@.
0000fa20: 9f 28 50 08 9f 23 40 00 8f 31 00 03 8f 2a 00 10  .(P..#@..1...*..
0000fa30: 8f 23 00 05 8f 24 00 00 8f 28 00 08 8f 28 00 4b  .#...$...(...(.K
0000fa40: 9f 2a 40 15 8f 2a 00 30 9f 24 40 00 9f 2a 40 10  .*@..*.0.$@..*@.
0000fa50: 9f 23 40 03 8f 2a 00 10 8f 23 00 05 8f 24 00 58  .#@..*...#...$.X
0000fa60: 9f 2a 40 13 8f 2a 00 25 9f 31 40 08 9f 24 40 00  .*@..*.%.1@..$@.
0000fa70: 9f 2a 40 03 9f 28 50 08 9f 28 50 05 9f 23 40 00  .*@..(P..(P..#@.
0000fa80: 8f 31 00 03 8f 2a 00 05 8f 28 00 08 8f 28 00 03  .1...*...(...(..
0000fa90: 8f 23 00 05 8f 24 00 58 9f 2a 40 13 8f 2a 00 2d  .#...$.X.*@..*.-
0000faa0: 9f 24 40 03 9f 2a 40 0d 9f 23 40 08 8f 2a 00 0b  .$@..*@..#@..*..
0000fab0: 8f 23 00 05 8f 24 00 58 9f 2a 40 13 8f 2a 00 26  .#...$.X.*@..*.&
0000fac0: 9f 31 40 07 9f 24 40 00 9f 28 50 00 9f 2a 40 08  .1@..$@..(P..*@.
0000fad0: 9f 28 50 08 9f 23 40 00 8f 31 00 03 8f 2a 00 10  .(P..#@..1...*..
0000fae0: 8f 23 00 05 8f 24 00 00 8f 28 00 08 8f 28 00 4b  .#...$...(...(.K
0000faf0: 9f 2a 40 15 8f 2a 00 30 9f 24 40 00 9f 2a 40 10  .*@..*.0.$@..*@.
0000fb00: 9f 23 40 03 8f 2a 00 10 8f 23 00 05 8f 24 00 58  .#@..*...#...$.X
0000fb10: 9f 2a 40 13 8f 2a 00 25 9f 31 40 08 9f 24 40 00  .*@..*.%.1@..$@.
0000fb20: 9f 2a 40 03 9f 28 50 08 9f 28 50 05 9f 23 40 00  .*@..(P..(P..#@.
0000fb30: 8f 31 00 03 8f 2a 00 05 8f 28 00 08 8f 28 00 03  .1...*...(...(..
0000fb40: 8f 23 00 05 8f 24 00 58 9f 2a 40 13 8f 2a 00 2d  .#...$.X.*@..*.-
0000fb50: 9f 24 40 03 9f 2a 40 0d 9f 23 40 08 8f 2a 00 0b  .$@..*@..#@..*..
0000fb60: 8f 23 00 05 8f 24 00 58 9f 2a 40 13 8f 2a 00 20  .#...$.X.*@..*. 
0000fb70: 9f 31 40 0d 9f 24 40 00 9f 28 50 00 9f 2a 40 08  .1@..$@..(P..*@.
0000fb80: 9f 28 50 08 9f 23 40 00 8f 31 00 03 8f 2a 00 10  .(P..#@..1...*..
0000fb90: 8f 23 00 05 8f 24 00 00 8f 28 00 08 8f 28 00 4b  .#...$...(...(.K
0000fba0: 9f 2a 40 05 9f 28 50 08 8f 28 00 08 9f 28 50 00  .*@..(P..(...(P.
0000fbb0: 8f 2a 00 08 8f 28 00 08 9f 28 50 09 8f 28 00 07  .*...(...(P..(..
0000fbc0: 9f 28 50 09 8f 28 00 07 9f 24 40 00 9f 2a 40 10  .(P..(...$@..*@.
0000fbd0: 9f 23 40 03 8f 2a 00 10 8f 23 00 05 8f 24 00 4b  .#@..*...#...$.K
0000fbe0: 9f 31 40 0d 9f 2a 40 10 8f 31 00 03 8f 2a 00 25  .1@..*@..1...*.%
0000fbf0: 9f 31 40 08 9f 24 40 00 9f 2a 40 03 9f 28 50 08  .1@..$@..*@..(P.
0000fc00: 9f 28 50 05 9f 23 40 03 8f 2a 00 00 8f 31 00 05  .(P..#@..*...1..
0000fc10: 8f 28 00 08 8f 28 00 03 8f 23 00 05 8f 24 00 58  .(...(...#...$.X
0000fc20: 9f 2a 40 13 8f 2a 00 2d 9f 24 40 03 9f 2a 40 0d  .*@..*.-.$@..*@.
0000fc30: 9f 23 40 08 8f 2a 00 0b 8f 23 00 05 8f 24 00 58  .#@..*...#...$.X
0000fc40: 9f 2a 40 13 8f 2a 00 25 9f 31 40 08 9f 24 40 00  .*@..*.%.1@..$@.
0000fc50: 9f 28 50 00 9f 2a 40 08 9f 28 50 08 9f 23 40 00  .(P..*@..(P..#@.
0000fc60: 8f 31 00 03 8f 2a 00 10 8f 23 00 05 8f 24 00 00  .1...*...#...$..
0000fc70: 8f 28 00 08 8f 28 00 4b 9f 2a 40 15 8f 2a 00 30  .(...(.K.*@..*.0
0000fc80: 9f 24 40 00 9f 2a 40 10 9f 23 40 03 8f 2a 00 10  .$@..*@..#@..*..
0000fc90: 8f 23 00 05 8f 24 00 58 9f 2a 40 13 8f 2a 00 28  .#...$.X.*@..*.(
0000fca0: 9f 31 40 05 9f 24 40 00 9f 2a 40 03 9f 28 50 08  .1@..$@..*@..(P.
0000fcb0: 9f 28 50 05 9f 23 40 03 8f 2a 00 05 8f 28 00 00  .(P..#@..*...(..
0000fcc0: 8f 31 00 08 8f 28 00 03 8f 23 00 05 8f 24 00 58  .1...(...#...$.X
0000fcd0: 9f 2a 40 13 8f 2a 00 2d 9f 24 40 03 9f 2a 40 0d  .*@..*.-.$@..*@.
0000fce0: 9f 23 40 08 8f 2a 00 0b 8f 23 00 05 8f 24 00 58  .#@..*...#...$.X
0000fcf0: 9f 2a 40 13 8f 2a 00 25 9f 31 40 08 9f 24 40 00  .*@..*.%.1@..$@.
0000fd00: 9f 28 50 00 9f 2a 40 08 9f 28 50 08 9f 23 40 00  .(P..*@..(P..#@.
0000fd10: 8f 31 00 03 8f 2a 00 10 8f 23 00 05 8f 24 00 00  .1...*...#...$..
0000fd20: 8f 28 00 08 8f 28 00 4b 9f 2a 40 15 8f 2a 00 30  .(...(.K.*@..*.0
0000fd30: 9f 24 40 00 9f 2a 40 10 9f 23 40 03 8f 2a 00 10  .$@..*@..#@..*..
0000fd40: 8f 23 00 05 8f 24 00 50 9f 31 40 08 9f 2a 40 10  .#...$.P.1@..*@.
0000fd50: 8f 31 00 03 8f 2a 00 25 9f 31 40 08 9f 24 40 00  .1...*.%.1@..$@.
0000fd60: 9f 2a 40 03 9f 28 50 08 9f 28 50 05 9f 23 40 00  .*@..(P..(P..#@.
0000fd70: 8f 31 00 03 8f 2a 00 05 8f 28 00 08 8f 28 00 03  .1...*...(...(..
0000fd80: 8f 23 00 05 8f 24 00 58 9f 2a 40 13 8f 2a 00 2d  .#...$.X.*@..*.-
0000fd90: 9f 24 40 03 9f 2a 40 0d 9f 23 40 08 8f 2a 00 0b  .$@..*@..#@..*..
0000fda0: 8f 23 00 05 8f 24 00 50 9f 31 40 08 9f 2a 40 10  .#...$.P.1@..*@.
0000fdb0: 8f 31 00 03 8f 2a 00 26 9f 31 40 07 9f 24 40 00  .1...*.&.1@..$@.
0000fdc0: 9f 28 50 00 9f 2a 40 08 9f 28 50 08 9f 23 40 00  .(P..*@..(P..#@.
0000fdd0: 8f 31 00 03 8f 2a 00 10 8f 23 00 05 8f 24 00 00  .1...*...#...$..
0000fde0: 8f 28 00 08 8f 28 00 4b 9f 2a 40 15 8f 2a 00 30  .(...(.K.*@..*.0
0000fdf0: 9f 24 40 00 9f 2a 40 10 9f 23 40 03 8f 2a 00 10  .$@..*@..#@..*..
0000fe00: 8f 23 00 05 8f 24 00 50 9f 31 40 08 9f 28 50 00  .#...$.P.1@..(P.
0000fe10: 9f 2a 40 08 9f 28 50 0b 8f 2a 00 05 8f 28 00 03  .*@..(P..*...(..
0000fe20: 8f 31 00 08 8f 28 00 1d 9f 24 40 00 9f 2a 40 03  .1...(...$@..*@.
0000fe30: 9f 28 50 08 9f 28 50 05 9f 23 40 03 8f 2a 00 05  .(P..(P..#@..*..
0000fe40: 8f 28 00 08 8f 28 00 03 8f 23 00 05 8f 24 00 58  .(...(...#...$.X
0000fe50: 9f 28 50 00 9f 2a 40 0b 9f 28 50 08 8f 28 00 00  .(P..*@..(P..(..
0000fe60: 8f 2a 00 05 8f 28 00 28 9f 24 40 03 9f 28 50 00  .*...(.(.$@..(P.
0000fe70: 9f 2a 40 0d 9f 23 40 03 9f 28 50 05 8f 2a 00 03  .*@..#@..(P..*..
0000fe80: 8f 28 00 05 8f 28 00 03 8f 23 00 05 8f 24 00 18  .(...(...#...$..
0000fe90: 9f 3b 40 30 8f 3b 00 10 9f 2a 40 13 8f 2a 00 2d  .;@0.;...*@..*.-
0000fea0: 9f 24 40 00 9f 28 50 00 9f 2a 40 08 9f 28 50 08  .$@..(P..*@..(P.
0000feb0: 9f 23 40 03 8f 2a 00 10 8f 23 00 05 8f 24 00 00  .#@..*...#...$..
0000fec0: 8f 28 00 08 8f 28 00 4b 9f 2a 40 05 9f 28 50 10  .(...(.K.*@..(P.
0000fed0: 8f 2a 00 08 8f 28 00 28 9f 24 40 00 9f 2a 40 08  .*...(.(.$@..*@.
0000fee0: 9f 23 40 0b 8f 2a 00 08 8f 23 00 0d 8f 24 00 58  .#@..*...#...$.X
0000fef0: 9f 2a 40 13 8f 2a 00 28 9f 31 40 05 9f 24 40 00  .*@..*.(.1@..$@.
0000ff00: 9f 2a 40 03 9f 28 50 05 9f 23 40 03 9f 28 50 08  .*@..(P..#@..(P.
0000ff10: 8f 2a 00 00 8f 31 00 05 8f 28 00 03 8f 23 00 05  .*...1...(...#..
0000ff20: 8f 28 00 08 8f 24 00 58 9f 2a 40 13 8f 2a 00 2d  .(...$.X.*@..*.-
0000ff30: 9f 24 40 03 9f 2a 40 05 9f 23 40 10 8f 2a 00 03  .$@..*@..#@..*..
0000ff40: 8f 23 00 0d 8f 24 00 58 9f 2a 40 13 8f 2a 00 25  .#...$.X.*@..*.%
0000ff50: 9f 31 40 08 9f 24 40 00 9f 28 50 00 9f 2a 40 08  .1@..$@..(P..*@.
0000ff60: 9f 23 40 00 9f 28 50 08 8f 31 00 03 8f 2a 00 08  .#@..(P..1...*..
0000ff70: 8f 23 00 0d 8f 24 00 00 8f 28 00 08 8f 28 00 50  .#...$...(...(.P
0000ff80: 9f 2a 40 13 8f 2a 00 2d 9f 24 40 00 9f 2a 40 08  .*@..*.-.$@..*@.
0000ff90: 9f 23 40 0b 8f 2a 00 08 8f 23 00 0d 8f 24 00 50  .#@..*...#...$.P
0000ffa0: 9f 31 40 08 9f 2a 40 10 8f 31 00 04 8f 2a 00 24  .1@..*@..1...*.$
0000ffb0: 9f 31 40 08 9f 24 40 03 9f 28 50 00 9f 2a 40 05  .1@..$@..(P..*@.
0000ffc0: 9f 23 40 03 9f 28 50 05 8f 31 00 08 8f 2a 00 00  .#@..(P..1...*..
0000ffd0: 8f 28 00 03 8f 23 00 05 8f 28 00 08 8f 24 00 53  .(...#...(...$.S
0000ffe0: 9f 2a 40 15 8f 2a 00 30 9f 24 40 03 9f 2a 40 05  .*@..*.0.$@..*@.
0000fff0: 9f 23 40 10 8f 2a 00 03 8f 23 00 0d 8f 24 00 58  .#@..*...#...$.X
00010000: 9f 2a 40 13 8f 2a 00 25 9f 31 40 08 9f 24 40 00  .*@..*.%.1@..$@.
00010010: 9f 28 50 03 9f 2a 40 05 9f 23 40 00 9f 28 50 10  .(P..*@..#@..(P.
00010020: 8f 2a 00 01 8f 31 00 02 8f 23 00 0d 8f 24 00 00  .*...1...#...$..
00010030: 8f 28 00 08 8f 28 00 50 9f 2a 40 13 8f 2a 00 2d  .(...(.P.*@..*.-
00010040: 9f 24 40 00 9f 2a 40 10 9f 23 40 03 8f 2a 00 10  .$@..*@..#@..*..
00010050: 8f 23 00 05 8f 24 00 58 9f 2a 40 13 8f 2a 00 28  .#...$.X.*@..*.(
00010060: 9f 31 40 05 9f 24 40 00 9f 2a 40 03 9f 28 50 08  .1@..$@..*@..(P.
00010070: 9f 28 50 05 9f 23 40 03 8f 2a 00 00 8f 31 00 05  .(P..#@..*...1..
00010080: 8f 28 00 08 8f 28 00 03 8f 23 00 05 8f 24 00 58  .(...(...#...$.X
00010090: 9f 2a 40 13 8f 2a 00 2d 9f 24 40 03 9f 2a 40 0d  .*@..*.-.$@..*@.
000100a0: 9f 23 40 08 8f 2a 00 0b 8f 23 00 05 8f 24 00 58  .#@..*...#...$.X
000100b0: 9f 2a 40 13 8f 2a 00 25 9f 31 40 08 9f 24 40 00  .*@..*.%.1@..$@.
000100c0: 9f 28 50 00 9f 2a 40 08 9f 28 50 08 9f 23 40 00  .(P..*@..(P..#@.
000100d0: 8f 31 00 03 8f 2a 00 10 8f 23 00 05 8f 24 00 00  .1...*...#...$..
000100e0: 8f 28 00 08 8f 28 00 4b 9f 2a 40 15 8f 2a 00 30  .(...(.K.*@..*.0
000100f0: 9f 24 40 00 9f 2a 40 10 9f 23 40 03 8f 2a 00 10  .$@..*@..#@..*..
00010100: 8f 23 00 05 8f 24 00 58 9f 28 50 00 9f 2a 40 08  .#...$.X.(P..*@.
00010110: 9f 28 50 0b 8f 2a 00 01 8f 28 00 07 8f 28 00 1d  .(P..*...(...(..
00010120: 9f 31 40 08 9f 24 40 00 9f 2a 40 03 9f 28 50 08  .1@..$@..*@..(P.
00010130: 9f 28 50 05 9f 23 40 00 8f 31 00 03 8f 2a 00 05  .(P..#@..1...*..
00010140: 8f 28 00 08 8f 28 00 03 8f 23 00 05 8f 24 00 18  .(...(...#...$..
00010150: 9f 2a 40 13 8f 2a 00 2d 9f 28 50 00 9f 2a 40 08  .*@..*.-.(P..*@.
00010160: 9f 28 50 0b 8f 2a 00 05 8f 28 00 08 8f 28 00 20  .(P..*...(...(. 
00010170: 9f 24 40 03 9f 28 50 00 9f 2a 40 05 9f 28 50 08  .$@..(P..*@..(P.
00010180: 9f 23 40 08 8f 2a 00 03 8f 28 00 08 8f 23 00 05  .#@..*...(...#..
00010190: 8f 28 00 00 8f 24 00 58 9f 2a 40 01 9f 28 50 07  .(...$.X.*@..(P.
000101a0: 9f 28 50 0b 8f 2a 00 01 8f 28 00 0c 8f 28 00 18  .(P..*...(...(..
000101b0: 9f 31 40 08 9f 24 40 00 9f 28 50 00 9f 2a 40 08  .1@..$@..(P..*@.
000101c0: 9f 28 50 08 9f 23 40 00 8f 31 00 03 8f 2a 00 08  .(P..#@..1...*..
000101d0: 8f 28 00 08 8f 23 00 00 8f 28 00 05 8f 24 00 18  .(...#...(...$..
000101e0: 9f 28 50 00 9f 2a 40 08 9f 28 50 0b 8f 2a 00 05  .(P..*@..(P..*..
000101f0: 8f 28 00 0b 8f 28 00 18 9f 2a 40 05 9f 28 50 0b  .(...(...*@..(P.
00010200: 9f 28 50 05 8f 2a 00 08 8f 28 00 10 8f 28 00 18  .(P..*...(...(..
00010210: 9f 24 40 00 9f 2a 40 03 9f 28 50 0d 9f 23 40 00  .$@..*@..(P..#@.
00010220: 9f 28 50 03 8f 2a 00 08 8f 28 00 08 8f 23 00 05  .(P..*...(...#..
00010230: 8f 28 00 00 8f 24 00 50 9f 31 40 08 9f 2a 40 10  .(...$.P.1@..*@.
00010240: 8f 31 00 03 8f 2a 00 21 9f 31 40 0c 9f 24 40 00  .1...*.!.1@..$@.
00010250: 9f 2a 40 03 9f 28 50 08 9f 28 50 05 9f 23 40 00  .*@..(P..(P..#@.
00010260: 8f 31 00 03 8f 2a 00 05 8f 28 00 08 8f 28 00 03  .1...*...(...(..
00010270: 8f 23 00 05 8f 24 00 58 9f 2a 40 13 8f 2a 00 2d  .#...$.X.*@..*.-
00010280: 9f 24 40 03 9f 2a 40 0d 9f 23 40 08 8f 2a 00 0b  .$@..*@..#@..*..
00010290: 8f 23 00 05 8f 24 00 50 9f 31 40 08 9f 2a 40 10  .#...$.P.1@..*@.
000102a0: 8f 31 00 03 8f 2a 00 25 9f 31 40 08 9f 24 40 00  .1...*.%.1@..$@.
000102b0: 9f 28 50 00 9f 2a 40 08 9f 28 50 08 9f 23 40 00  .(P..*@..(P..#@.
000102c0: 8f 31 00 03 8f 2a 00 10 8f 23 00 05 8f 24 00 00  .1...*...#...$..
000102d0: 8f 28 00 08 8f 28 00 4b 9f 2a 40 15 8f 2a 00 30  .(...(.K.*@..*.0
000102e0: 9f 24 40 00 9f 2a 40 10 9f 23 40 03 8f 2a 00 10  .$@..*@..#@..*..
000102f0: 8f 23 00 05 8f 24 00 58 9f 2a 40 13 8f 2a 00 28  .#...$.X.*@..*.(
00010300: 9f 31 40 05 9f 24 40 00 9f 2a 40 03 9f 28 50 08  .1@..$@..*@..(P.
00010310: 9f 28 50 05 9f 23 40 00 8f 31 00 03 8f 2a 00 05  .(P..#@..1...*..
00010320: 8f 28 00 08 8f 28 00 03 8f 23 00 05 8f 24 00 58  .(...(...#...$.X
00010330: 9f 2a 40 13 8f 2a 00 2d 9f 24 40 03 9f 2a 40 0d  .*@..*.-.$@..*@.
00010340: 9f 23 40 08 8f 2a 00 0b 8f 23 00 05 8f 24 00 58  .#@..*...#...$.X
00010350: 9f 2a 40 13 8f 2a 00 25 9f 31 40 08 9f 24 40 00  .*@..*.%.1@..$@.
00010360: 9f 28 50 00 9f 2a 40 08 9f 28 50 08 9f 23 40 00  .(P..*@..(P..#@.
00010370: 8f 31 00 03 8f 2a 00 10 8f 23 00 05 8f 24 00 00  .1...*...#...$..
00010380: 8f 28 00 08 8f 28 00 4b 9f 2a 40 15 8f 2a 00 30  .(...(.K.*@..*.0
00010390: 9f 24 40 00 9f 2a 40 10 9f 23 40 03 8f 2a 00 10  .$@..*@..#@..*..
000103a0: 8f 23 00 05 8f 24 00 58 9f 2a 40 13 8f 2a 00 25  .#...$.X.*@..*.%
000103b0: 9f 31 40 08 9f 24 40 00 9f 2a 40 03 9f 28 50 08  .1@..$@..*@..(P.
000103c0: 9f 28 50 05 9f 23 40 00 8f 31 00 03 8f 2a 00 05  .(P..#@..1...*..
000103d0: 8f 28 00 08 8f 28 00 03 8f 23 00 05 8f 24 00 58  .(...(...#...$.X
000103e0: 9f 2a 40 13 8f 2a 00 2d 9f 24 40 03 9f 2a 40 0d  .*@..*.-.$@..*@.
000103f0: 9f 23 40 08 8f 2a 00 0b 8f 23 00 05 8f 24 00 58  .#@..*...#...$.X
00010400: 9f 2a 40 13 8f 2a 00 26 9f 31 40 07 9f 24 40 00  .*@..*.&.1@..$@.
00010410: 9f 28 50 00 9f 2a 40 08 9f 28 50 08 9f 23 40 00  .(P..*@..(P..#@.
00010420: 8f 31 00 03 8f 2a 00 10 8f 23 00 05 8f 24 00 00  .1...*...#...$..
00010430: 8f 28 00 08 8f 28 00 4b 9f 2a 40 15 8f 2a 00 30  .(...(.K.*@..*.0
00010440: 9f 24 40 00 9f 2a 40 10 9f 23 40 03 8f 2a 00 10  .$@..*@..#@..*..
00010450: 8f 23 00 05 8f 24 00 58 9f 2a 40 13 8f 2a 00 25  .#...$.X.*@..*.%
00010460: 9f 31 40 08 9f 24 40 00 9f 2a 40 03 9f 28 50 08  .1@..$@..*@..(P.
00010470: 9f 28 50 05 9f 23 40 00 8f 31 00 03 8f 2a 00 05  .(P..#@..1...*..
00010480: 8f 28 00 08 8f 28 00 03 8f 23 00 05 8f 24 00 58  .(...(...#...$.X
00010490: 9f 28 50 00 9f 2a 40 0b 9f 28 50 08 8f 2a 00 08  .(P..*@..(P..*..
000104a0: 8f 28 00 08 8f 28 00 1d 9f 24 40 00 9f 28 50 03  .(...(...$@..(P.
000104b0: 9f 2a 40 08 9f 28 50 05 9f 23 40 08 8f 2a 00 00  .*@..(P..#@..*..
000104c0: 8f 28 00 0b 8f 23 00 00 8f 28 00 05 8f 24 00 58  .(...#...(...$.X
000104d0: 9f 28 50 00 9f 2a 40 0b 9f 28 50 08 8f 2a 00 00  .(P..*@..(P..*..
000104e0: 8f 28 00 10 8f 28 00 10 9f 31 40 0d 9f 24 40 00  .(...(...1@..$@.
000104f0: 9f 28 50 00 9f 2a 40 08 9f 28 50 08 9f 23 40 00  .(P..*@..(P..#@.
00010500: 8f 31 00 03 8f 2a 00 0d 8f 28 00 03 8f 23 00 05  .1...*...(...#..
00010510: 8f 28 00 00 8f 24 00 53 9f 2a 40 15 8f 2a 00 30  .(...$.S.*@..*.0
00010520: 9f 24 40 00 9f 2a 40 10 9f 23 40 03 8f 2a 00 10  .$@..*@..#@..*..
00010530: 8f 23 00 05 8f 24 00 4b 9f 31 40 0d 9f 2a 40 10  .#...$.K.1@..*@.
00010540: 8f 31 00 03 8f 2a 00 25 9f 31 40 08 9f 24 40 00  .1...*.%.1@..$@.
00010550: 9f 2a 40 03 9f 28 50 08 9f 28 50 05 9f 23 40 03  .*@..(P..(P..#@.
00010560: 8f 2a 00 00 8f 31 00 05 8f 28 00 08 8f 28 00 03  .*...1...(...(..
00010570: 8f 23 00 05 8f 24 00 58 9f 2a 40 13 8f 2a 00 2d  .#...$.X.*@..*.-
00010580: 9f 24 40 03 9f 2a 40 0d 9f 23 40 08 8f 2a 00 0b  .$@..*@..#@..*..
00010590: 8f 23 00 05 8f 24 00 58 9f 2a 40 13 8f 2a 00 25  .#...$.X.*@..*.%
000105a0: 9f 31 40 08 9f 24 40 00 9f 28 50 00 9f 2a 40 08  .1@..$@..(P..*@.
000105b0: 9f 28 50 08 9f 23 40 00 8f 31 00 03 8f 2a 00 10  .(P..#@..1...*..
000105c0: 8f 23 00 05 8f 24 00 00 8f 28 00 08 8f 28 00 4b  .#...$...(...(.K
000105d0: 9f 2a 40 15 8f 2a 00 30 9f 24 40 00 9f 2a 40 10  .*@..*.0.$@..*@.
000105e0: 9f 23 40 03 8f 2a 00 10 8f 23 00 05 8f 24 00 58  .#@..*...#...$.X
000105f0: 9f 2a 40 13 8f 2a 00 28 9f 31 40 05 9f 24 40 00  .*@..*.(.1@..$@.
00010600: 9f 2a 40 03 9f 28 50 08 9f 28 50 05 9f 23 40 03  .*@..(P..(P..#@.
00010610: 8f 2a 00 05 8f 28 00 00 8f 31 00 08 8f 28 00 03  .*...(...1...(..
00010620: 8f 23 00 05 8f 24 00 58 9f 2a 40 13 8f 2a 00 2d  .#...$.X.*@..*.-
00010630: 9f 24 40 03 9f 2a 40 0d 9f 23 40 08 8f 2a 00 0b  .$@..*@..#@..*..
00010640: 8f 23 00 05 8f 24 00 58 9f 2a 40 13 8f 2a 00 25  .#...$.X.*@..*.%
00010650: 9f 31 40 08 9f 24 40 00 9f 28 50 00 9f 2a 40 08  .1@..$@..(P..*@.
00010660: 9f 28 50 08 9f 23 40 00 8f 31 00 03 8f 2a 00 10  .(P..#@..1...*..
00010670: 8f 23 00 05 8f 24 00 00 8f 28 00 08 8f 28 00 4b  .#...$...(...(.K
00010680: 9f 2a 40 15 8f 2a 00 30 9f 24 40 00 9f 2a 40 10  .*@..*.0.$@..*@.
00010690: 9f 23 40 03 8f 2a 00 10 8f 23 00 05 8f 24 00 50  .#@..*...#...$.P
000106a0: 9f 31 40 08 9f 2a 40 10 8f 31 00 03 8f 2a 00 25  .1@..*@..1...*.%
000106b0: 9f 31 40 08 9f 24 40 00 9f 2a 40 03 9f 28 50 08  .1@..$@..*@..(P.
000106c0: 9f 28 50 05 9f 23 40 00 8f 31 00 03 8f 2a 00 05  .(P..#@..1...*..
000106d0: 8f 28 00 08 8f 28 00 03 8f 23 00 05 8f 24 00 58  .(...(...#...$.X
000106e0: 9f 2a 40 13 8f 2a 00 2d 9f 24 40 03 9f 2a 40 0d  .*@..*.-.$@..*@.
000106f0: 9f 23 40 08 8f 2a 00 0b 8f 23 00 05 8f 24 00 50  .#@..*...#...$.P
00010700: 9f 31 40 08 9f 2a 40 10 8f 31 00 03 8f 2a 00 26  .1@..*@..1...*.&
00010710: 9f 31 40 07 9f 24 40 00 9f 28 50 00 9f 2a 40 08  .1@..$@..(P..*@.
00010720: 9f 28 50 08 9f 23 40 00 8f 31 00 03 8f 2a 00 10  .(P..#@..1...*..
00010730: 8f 23 00 05 8f 24 00 00 8f 28 00 08 8f 28 00 4b  .#...$...(...(.K
00010740: 9f 2a 40 15 8f 2a 00 30 9f 24 40 00 9f 2a 40 03  .*@..*.0.$@..*@.
00010750: 9f 28 50 05 9f 28 50 08 9f 23 40 03 8f 2a 00 08  .(P..(P..#@..*..
00010760: 8f 28 00 05 8f 28 00 03 8f 23 00 05 8f 24 00 18  .(...(...#...$..
00010770: 9f 28 50 08 9f 28 50 0b 8f 28 00 08 8f 28 00 1d  .(P..(P..(...(..
00010780: 9f 31 40 08 9f 28 50 00 9f 2a 40 08 9f 28 50 0b  .1@..(P..*@..(P.
00010790: 8f 2a 00 05 8f 28 00 03 8f 31 00 08 8f 28 00 1d  .*...(...1...(..
000107a0: 9f 24 40 00 9f 2a 40 03 9f 28 50 08 9f 28 50 05  .$@..*@..(P..(P.
000107b0: 9f 23 40 03 8f 2a 00 05 8f 28 00 08 8f 28 00 03  .#@..*...(...(..
000107c0: 8f 23 00 05 8f 24 00 18 9f 28 50 0b 9f 28 50 08  .#...$...(P..(P.
000107d0: 8f 28 00 0d 8f 28 00 20 9f 28 50 00 9f 2a 40 0b  .(...(. .(P..*@.
000107e0: 9f 28 50 08 8f 2a 00 05 8f 28 00 08 8f 28 00 20  .(P..*...(...(. 
000107f0: 9f 24 40 03 9f 28 50 00 9f 2a 40 0d 9f 23 40 03  .$@..(P..*@..#@.
00010800: 9f 28 50 05 8f 2a 00 03 8f 28 00 05 9f 28 50 03  .(P..*...(...(P.
00010810: 8f 23 00 05 8f 24 00 03 8f 28 00 0d 8f 28 00 08  .#...$...(...(..
00010820: 9f 28 50 0b 9f 28 50 08 8f 28 00 0d 9f 28 50 00  .(P..(P..(...(P.
00010830: 8f 28 00 13 8f 28 00 0d 9f 28 50 00 9f 2a 40 0b  .(...(...(P..*@.
00010840: 9f 28 50 08 8f 2a 00 05 8f 28 00 08 8f 28 00 20  .(P..*...(...(. 
00010850: 9f 24 40 00 9f 28 50 00 9f 2a 40 0b 9f 28 50 05  .$@..(P..*@..(P.
00010860: 9f 23 40 03 8f 2a 00 05 8f 28 00 0b 8f 23 00 00  .#@..*...(...#..
00010870: 8f 28 00 05 8f 24 00 18 9f 28 50 0b 9f 28 50 0d  .(...$...(P..(P.
00010880: 8f 28 00 0b 8f 28 00 18 9f 2a 40 05 9f 28 50 0b  .(...(...*@..(P.
00010890: 9f 28 50 05 8f 2a 00 08 8f 28 00 10 8f 28 00 18  .(P..*...(...(..
000108a0: 9f 24 40 00 9f 2a 40 03 9f 3b 40 05 9f 23 40 0b  .$@..*@..;@..#@.
000108b0: 8f 2a 00 08 8f 23 00 0d 8f 24 00 03 8f 3b 00 55  .*...#...$...;.U
000108c0: 9f 2a 40 13 8f 2a 00 2d 9f 24 40 00 9f 2a 40 00  .*@..*.-.$@..*@.
000108d0: 9f 37 40 03 9f 28 50 05 9f 23 40 03 9f 28 50 08  .7@..(P..#@..(P.
000108e0: 8f 2a 00 05 8f 28 00 03 8f 23 00 05 8f 28 00 08  .*...(...#...(..
000108f0: 8f 24 00 03 8f 37 00 55 9f 31 40 13 8f 31 00 2d  .$...7.U.1@..1.-
00010900: 9f 24 40 08 9f 23 40 00 9f 31 40 13 8f 23 00 05  .$@..#@..1@..#..
00010910: 8f 31 00 08 8f 24 00 53 9f 31 40 1d 8f 31 00 20  .1...$.S.1@..1. 
00010920: 9f 31 40 08 9f 24 40 00 9f 28 50 08 9f 23 40 00  .1@..$@..(P..#@.
00010930: 9f 28 50 08 8f 31 00 0b 8f 23 00 0d 8f 24 00 00  .(P..1...#...$..
00010940: 8f 28 00 08 8f 28 00 50 9f 2a 40 13 8f 2a 00 2d  .(...(.P.*@..*.-
00010950: 9f 24 40 00 9f 2a 40 08 9f 23 40 0b 8f 2a 00 08  .$@..*@..#@..*..
00010960: 8f 23 00 0d 8f 24 00 50 9f 31 40 18 8f 31 00 30  .#...$.P.1@..1.0
00010970: 9f 24 40 00 9f 31 40 03 9f 28 50 05 9f 23 40 03  .$@..1@..(P..#@.
00010980: 9f 28 50 0d 8f 28 00 00 8f 31 00 03 8f 23 00 05  .(P..(...1...#..
00010990: 8f 28 00 08 8f 24 00 53 9f 2a 40 15 8f 2a 00 30  .(...$.S.*@..*.0
000109a0: 9f 24 40 03 9f 2a 40 05 9f 23 40 10 8f 2a 00 03  .$@..*@..#@..*..
000109b0: 8f 23 00 0d 8f 24 00 58 9f 2a 40 13 8f 2a 00 2d  .#...$.X.*@..*.-
000109c0: 9f 24 40 00 9f 28 50 08 9f 23 40 00 9f 28 50 00  .$@..(P..#@..(P.
000109d0: 9f 31 40 13 8f 23 00 0d 8f 24 00 00 8f 31 00 00  .1@..#...$...1..
000109e0: 8f 28 00 08 8f 28 00 50 9f 2a 40 13 8f 2a 00 2d  .(...(.P.*@..*.-
000109f0: 9f 24 40 00 9f 2a 40 10 9f 23 40 03 8f 2a 00 10  .$@..*@..#@..*..
00010a00: 8f 23 00 05 8f 24 00 58 9f 2a 40 13 8f 2a 00 2d  .#...$.X.*@..*.-
00010a10: 9f 24 40 03 9f 28 50 00 9f 31 40 08 9f 28 50 05  .$@..(P..1@..(P.
00010a20: 9f 23 40 08 8f 28 00 03 8f 31 00 05 8f 28 00 03  .#@..(...1...(..
00010a30: 8f 23 00 05 8f 24 00 58 9f 2a 40 13 8f 2a 00 2d  .#...$.X.*@..*.-
00010a40: 9f 24 40 03 9f 2a 40 0d 9f 23 40 08 8f 2a 00 0b  .$@..*@..#@..*..
00010a50: 8f 23 00 05 8f 24 00 58 9f 2a 40 13 8f 2a 00 2d  .#...$.X.*@..*.-
00010a60: 9f 24 40 00 9f 28 50 00 9f 31 40 08 9f 28 50 08  .$@..(P..1@..(P.
00010a70: 9f 23 40 0b 8f 31 00 08 8f 23 00 05 8f 24 00 00  .#@..1...#...$..
00010a80: 8f 28 00 08 8f 28 00 4b 9f 2a 40 15 8f 2a 00 30  .(...(.K.*@..*.0
00010a90: 9f 24 40 00 9f 2a 40 10 9f 23 40 03 8f 2a 00 10  .$@..*@..#@..*..
00010aa0: 8f 23 00 05 8f 24 00 58 9f 28 50 00 9f 2a 40 08  .#...$.X.(P..*@.
00010ab0: 9f 28 50 0b 8f 2a 00 01 8f 28 00 07 8f 28 00 1d  .(P..*...(...(..
00010ac0: 9f 31 40 08 9f 24 40 00 9f 2a 40 03 9f 28 50 08  .1@..$@..*@..(P.
00010ad0: 9f 28 50 05 9f 23 40 00 8f 31 00 03 8f 2a 00 05  .(P..#@..1...*..
00010ae0: 8f 28 00 08 8f 28 00 03 8f 23 00 05 8f 24 00 18  .(...(...#...$..
00010af0: 9f 2a 40 13 8f 2a 00 2d 9f 28 50 00 9f 2a 40 08  .*@..*.-.(P..*@.
00010b00: 9f 28 50 0b 8f 2a 00 05 8f 28 00 08 8f 28 00 20  .(P..*...(...(. 
00010b10: 9f 24 40 03 9f 28 50 00 9f 2a 40 0d 9f 23 40 08  .$@..(P..*@..#@.
00010b20: 8f 2a 00 03 8f 28 00 08 8f 23 00 05 8f 24 00 58  .*...(...#...$.X
00010b30: 9f 2a 40 01 9f 28 50 07 9f 28 50 0b 8f 2a 00 01  .*@..(P..(P..*..
00010b40: 8f 28 00 0c 8f 28 00 20 9f 24 40 00 9f 28 50 00  .(...(. .$@..(P.
00010b50: 9f 31 40 08 9f 28 50 08 9f 23 40 08 8f 31 00 0b  .1@..(P..#@..1..
00010b60: 8f 23 00 05 8f 24 00 00 8f 28 00 08 8f 28 00 10  .#...$...(...(..
00010b70: 9f 2a 40 13 8f 2a 00 28 9f 2a 40 15 8f 2a 00 30  .*@..*.(.*@..*.0
00010b80: 9f 24 40 00 9f 2a 40 03 9f 28 50 0d 9f 23 40 00  .$@..*@..(P..#@.
00010b90: 9f 28 50 03 8f 2a 00 08 8f 28 00 08 8f 23 00 05  .(P..*...(...#..
00010ba0: 8f 28 00 00 8f 24 00 18 9f 28 50 18 8f 28 00 20  .(...$...(P..(. 
00010bb0: 9f 31 40 18 8f 31 00 2b 9f 31 40 05 9f 24 40 03  .1@..1.+.1@..$@.
00010bc0: 9f 28 50 08 9f 28 50 05 9f 23 40 08 8f 28 00 00  .(P..(P..#@..(..
00010bd0: 8f 31 00 08 8f 28 00 03 8f 23 00 05 8f 24 00 10  .1...(...#...$..
00010be0: 9f 28 50 20 8f 28 00 28 9f 2a 40 13 8f 2a 00 2d  .(P .(.(.*@..*.-
00010bf0: 9f 24 40 03 9f 2a 40 0d 9f 23 40 08 8f 2a 00 0b  .$@..*@..#@..*..
00010c00: 8f 23 00 05 8f 24 00 50 9f 31 40 18 8f 31 00 28  .#...$.P.1@..1.(
00010c10: 9f 31 40 08 9f 24 40 00 9f 28 50 08 9f 28 50 08  .1@..$@..(P..(P.
00010c20: 9f 23 40 00 8f 31 00 13 8f 23 00 05 8f 24 00 00  .#@..1...#...$..
00010c30: 8f 28 00 08 8f 28 00 4b 9f 2a 40 15 8f 2a 00 30  .(...(.K.*@..*.0
00010c40: 9f 24 40 00 9f 2a 40 10 9f 23 40 03 8f 2a 00 10  .$@..*@..#@..*..
00010c50: 8f 23 00 05 8f 24 00 58 9f 2a 40 13 8f 2a 00 28  .#...$.X.*@..*.(
00010c60: 9f 31 40 05 9f 24 40 03 9f 28 50 08 9f 28 50 05  .1@..$@..(P..(P.
00010c70: 9f 23 40 00 8f 31 00 08 8f 28 00 08 8f 28 00 03  .#@..1...(...(..
00010c80: 8f 23 00 05 8f 24 00 58 9f 2a 40 13 8f 2a 00 2d  .#...$.X.*@..*.-
00010c90: 9f 24 40 03 9f 2a 40 0d 9f 23 40 08 8f 2a 00 0b  .$@..*@..#@..*..
00010ca0: 8f 23 00 05 8f 24 00 58 9f 2a 40 13 8f 2a 00 25  .#...$.X.*@..*.%
00010cb0: 9f 31 40 08 9f 24 40 00 9f 28 50 08 9f 28 50 08  .1@..$@..(P..(P.
00010cc0: 9f 23 40 00 8f 31 00 13 8f 23 00 05 8f 24 00 00  .#@..1...#...$..
00010cd0: 8f 28 00 08 8f 28 00 4b 9f 2a 40 15 8f 2a 00 30  .(...(.K.*@..*.0
00010ce0: 9f 24 40 00 9f 2a 40 10 9f 23 40 03 8f 2a 00 10  .$@..*@..#@..*..
00010cf0: 8f 23 00 05 8f 24 00 58 9f 2a 40 13 8f 2a 00 25  .#...$.X.*@..*.%
00010d00: 9f 31 40 08 9f 24 40 03 9f 28 50 08 9f 28 50 05  .1@..$@..(P..(P.
00010d10: 9f 23 40 00 8f 31 00 08 8f 28 00 08 8f 28 00 03  .#@..1...(...(..
00010d20: 8f 23 00 05 8f 24 00 58 9f 2a 40 13 8f 2a 00 2d  .#...$.X.*@..*.-
00010d30: 9f 24 40 03 9f 2a 40 0d 9f 23 40 08 8f 2a 00 0b  .$@..*@..#@..*..
00010d40: 8f 23 00 05 8f 24 00 58 9f 2a 40 13 8f 2a 00 26  .#...$.X.*@..*.&
00010d50: 9f 31 40 07 9f 24 40 00 9f 28 50 08 9f 28 50 08  .1@..$@..(P..(P.
00010d60: 9f 23 40 00 8f 31 00 13 8f 23 00 05 8f 24 00 00  .#@..1...#...$..
00010d70: 8f 28 00 08 8f 28 00 10 9f 28 50 28 8f 28 00 13  .(...(...(P(.(..
00010d80: 9f 2a 40 15 8f 2a 00 30 9f 24 40 00 9f 2a 40 10  .*@..*.0.$@..*@.
00010d90: 9f 23 40 03 8f 2a 00 10 8f 23 00 05 8f 24 00 58  .#@..*...#...$.X
00010da0: 9f 2a 40 13 8f 2a 00 25 9f 31 40 08 9f 24 40 03  .*@..*.%.1@..$@.
00010db0: 9f 28 50 08 9f 28 50 05 9f 23 40 00 8f 31 00 08  .(P..(P..#@..1..
00010dc0: 8f 28 00 08 8f 28 00 03 8f 23 00 05 8f 24 00 58  .(...(...#...$.X
00010dd0: 9f 2a 40 13 8f 2a 00 2d 9f 24 40 03 9f 2a 40 0d  .*@..*.-.$@..*@.
00010de0: 9f 23 40 08 8f 2a 00 0b 8f 23 00 05 8f 24 00 58  .#@..*...#...$.X
00010df0: 9f 2a 40 13 8f 2a 00 20 9f 31 40 0d 9f 24 40 00  .*@..*. .1@..$@.
00010e00: 9f 28 50 08 9f 28 50 08 9f 23 40 00 8f 31 00 13  .(P..(P..#@..1..
00010e10: 8f 23 00 05 8f 24 00 00 8f 28 00 08 8f 28 00 10  .#...$...(...(..
00010e20: 9f 28 50 28 8f 28 00 13 9f 2a 40 15 8f 2a 00 30  .(P(.(...*@..*.0
00010e30: 9f 24 40 00 9f 2a 40 10 9f 23 40 03 8f 2a 00 10  .$@..*@..#@..*..
00010e40: 8f 23 00 05 8f 24 00 4b 9f 31 40 1d 8f 31 00 28  .#...$.K.1@..1.(
00010e50: 9f 31 40 08 9f 24 40 03 9f 28 50 08 9f 28 50 05  .1@..$@..(P..(P.
00010e60: 9f 23 40 03 8f 31 00 05 8f 28 00 08 8f 28 00 03  .#@..1...(...(..
00010e70: 8f 23 00 05 8f 24 00 58 9f 2a 40 13 8f 2a 00 2d  .#...$.X.*@..*.-
00010e80: 9f 24 40 03 9f 2a 40 0d 9f 23 40 08 8f 2a 00 0b  .$@..*@..#@..*..
00010e90: 8f 23 00 05 8f 24 00 58 9f 2a 40 13 8f 2a 00 25  .#...$.X.*@..*.%
00010ea0: 9f 31 40 08 9f 24 40 00 9f 28 50 08 9f 28 50 08  .1@..$@..(P..(P.
00010eb0: 9f 23 40 00 8f 31 00 13 8f 23 00 05 8f 24 00 00  .#@..1...#...$..
00010ec0: 8f 28 00 08 8f 28 00 4b 9f 2a 40 15 8f 2a 00 30  .(...(.K.*@..*.0
00010ed0: 9f 24 40 00 9f 2a 40 10 9f 23 40 03 8f 2a 00 10  .$@..*@..#@..*..
00010ee0: 8f 23 00 05 8f 24 00 58 9f 2a 40 13 8f 2a 00 28  .#...$.X.*@..*.(
00010ef0: 9f 31 40 05 9f 24 40 03 9f 28 50 08 9f 28 50 05  .1@..$@..(P..(P.
00010f00: 9f 23 40 08 8f 28 00 00 8f 31 00 08 8f 28 00 03  .#@..(...1...(..
00010f10: 8f 23 00 05 8f 24 00 58 9f 2a 40 13 8f 2a 00 2d  .#...$.X.*@..*.-
00010f20: 9f 24 40 03 9f 2a 40 0d 9f 23 40 08 8f 2a 00 0b  .$@..*@..#@..*..
00010f30: 8f 23 00 05 8f 24 00 58 9f 2a 40 13 8f 2a 00 25  .#...$.X.*@..*.%
00010f40: 9f 31 40 08 9f 24 40 00 9f 28 50 08 9f 28 50 08  .1@..$@..(P..(P.
00010f50: 9f 23 40 00 8f 31 00 13 8f 23 00 05 8f 24 00 00  .#@..1...#...$..
00010f60: 8f 28 00 08 8f 28 00 10 9f 28 50 30 8f 28 00 0b  .(...(...(P0.(..
00010f70: 9f 2a 40 15 8f 2a 00 30 9f 24 40 00 9f 2a 40 10  .*@..*.0.$@..*@.
00010f80: 9f 23 40 03 8f 2a 00 10 8f 23 00 05 8f 24 00 18  .#@..*...#...$..
00010f90: 9f 31 40 13 8f 31 00 28 9f 31 40 15 8f 31 00 2b  .1@..1.(.1@..1.+
00010fa0: 9f 31 40 05 9f 24 40 03 9f 28 50 08 9f 28 50 05  .1@..$@..(P..(P.
00010fb0: 9f 23 40 00 8f 31 00 08 8f 28 00 08 8f 28 00 03  .#@..1...(...(..
00010fc0: 9f 2a 40 00 8f 23 00 05 8f 24 00 10 8f 2a 00 48  .*@..#...$...*.H
00010fd0: 9f 2a 40 13 8f 2a 00 2d 9f 24 40 03 9f 2a 40 0d  .*@..*.-.$@..*@.
00010fe0: 9f 23 40 08 8f 2a 00 0b 8f 23 00 05 8f 24 00 50  .#@..*...#...$.P
00010ff0: 9f 31 40 18 8f 31 00 29 9f 31 40 07 9f 24 40 00  .1@..1.).1@..$@.
00011000: 9f 28 50 08 9f 28 50 08 9f 23 40 00 8f 31 00 13  .(P..(P..#@..1..
00011010: 8f 23 00 05 8f 24 00 00 8f 28 00 08 8f 28 00 4b  .#...$...(...(.K
00011020: 9f 2a 40 15 8f 2a 00 30 9f 24 40 00 9f 2a 40 08  .*@..*.0.$@..*@.
00011030: 9f 26 40 08 9f 23 40 03 8f 2a 00 08 8f 26 00 08  .&@..#@..*...&..
00011040: 8f 23 00 05 8f 24 00 50 9f 31 40 08 9f 28 50 00  .#...$.P.1@..(P.
00011050: 9f 2a 40 08 9f 26 40 00 9f 28 50 0b 8f 2a 00 05  .*@..&@..(P..*..
00011060: 8f 28 00 03 8f 31 00 00 8f 26 00 08 8f 28 00 1d  .(...1...&...(..
00011070: 9f 24 40 00 9f 2a 40 03 9f 28 50 06 9f 26 40 02  .$@..*@..(P..&@.
00011080: 9f 28 50 05 9f 23 40 03 8f 2a 00 05 8f 28 00 03  .(P..#@..*...(..
00011090: 8f 26 00 05 8f 28 00 03 8f 23 00 05 8f 24 00 50  .&...(...#...$.P
000110a0: 9f 26 40 08 9f 28 50 00 9f 2a 40 0b 9f 28 50 01  .&@..(P..*@..(P.
000110b0: 8f 26 00 07 8f 28 00 00 8f 2a 00 05 8f 28 00 24  .&...(...*...(.$
000110c0: 9f 26 40 04 9f 24 40 03 9f 28 50 00 9f 2a 40 0d  .&@..$@..(P..*@.
000110d0: 9f 23 40 03 9f 28 50 00 8f 26 00 05 8f 2a 00 03  .#@..(P..&...*..
000110e0: 8f 28 00 05 8f 28 00 03 8f 23 00 05 8f 24 00 58  .(...(...#...$.X
000110f0: 9f 28 50 00 9f 2a 40 08 9f 26 40 03 9f 28 50 06  .(P..*@..&@..(P.
00011100: 8f 28 00 02 8f 2a 00 08 8f 26 00 06 8f 28 00 1f  .(...*...&...(..
00011110: 9f 24 40 00 9f 28 50 00 9f 2a 40 08 9f 28 50 03  .$@..(P..*@..(P.
00011120: 9f 26 40 05 9f 23 40 03 8f 2a 00 05 8f 28 00 08  .&@..#@..*...(..
00011130: 8f 26 00 03 8f 23 00 05 8f 24 00 08 8f 28 00 10  .&...#...$...(..
00011140: 9f 28 50 01 9f 26 40 02 9f 28 50 0e 8f 26 00 02  .(P..&@..(P..&..
00011150: 8f 28 00 00 8f 28 00 25 9f 26 40 03 9f 2a 40 05  .(...(.%.&@..*@.
00011160: 9f 28 50 08 8f 26 00 01 9f 28 50 07 8f 2a 00 08  .(P..&...(P..*..
00011170: 8f 28 00 00 8f 28 00 20 9f 28 50 08 9f 24 40 00  .(...(. .(P..$@.
00011180: 9f 2a 40 00 8f 28 00 08 9f 23 40 0b 8f 2a 00 08  .*@..(...#@..*..
00011190: 8f 23 00 0d 8f 24 00 58 9f 2a 40 13 8f 2a 00 28  .#...$.X.*@..*.(
000111a0: 9f 31 40 05 9f 24 40 00 9f 2a 40 03 9f 28 50 05  .1@..$@..*@..(P.
000111b0: 9f 23 40 03 9f 28 50 08 8f 2a 00 00 8f 31 00 05  .#@..(P..*...1..
000111c0: 8f 28 00 03 8f 23 00 05 8f 28 00 08 8f 24 00 58  .(...#...(...$.X
000111d0: 9f 2a 40 13 8f 2a 00 2d 9f 24 40 03 9f 2a 40 05  .*@..*.-.$@..*@.
000111e0: 9f 23 40 10 8f 2a 00 03 8f 23 00 0d 8f 24 00 58  .#@..*...#...$.X
000111f0: 9f 2a 40 13 8f 2a 00 25 9f 31 40 08 9f 24 40 00  .*@..*.%.1@..$@.
00011200: 9f 28 50 00 9f 2a 40 08 9f 23 40 00 9f 28 50 08  .(P..*@..#@..(P.
00011210: 8f 31 00 03 8f 2a 00 08 8f 23 00 0d 8f 24 00 00  .1...*...#...$..
00011220: 8f 28 00 08 8f 28 00 50 9f 2a 40 13 8f 2a 00 2d  .(...(.P.*@..*.-
00011230: 9f 24 40 00 9f 2a 40 08 9f 23 40 0b 8f 2a 00 08  .$@..*@..#@..*..
00011240: 8f 23 00 0d 8f 24 00 50 9f 31 40 08 9f 2a 40 10  .#...$.P.1@..*@.
00011250: 8f 31 00 04 8f 2a 00 24 9f 31 40 08 9f 24 40 03  .1...*.$.1@..$@.
00011260: 9f 28 50 00 9f 2a 40 05 9f 23 40 03 9f 28 50 05  .(P..*@..#@..(P.
00011270: 8f 31 00 08 8f 2a 00 00 8f 28 00 03 8f 23 00 05  .1...*...(...#..
00011280: 8f 28 00 08 8f 24 00 53 9f 2a 40 15 8f 2a 00 30  .(...$.S.*@..*.0
00011290: 9f 24 40 03 9f 2a 40 05 9f 23 40 10 8f 2a 00 03  .$@..*@..#@..*..
000112a0: 8f 23 00 0d 8f 24 00 58 9f 2a 40 13 8f 2a 00 25  .#...$.X.*@..*.%
000112b0: 9f 31 40 08 9f 24 40 00 9f 28 50 03 9f 2a 40 05  .1@..$@..(P..*@.
000112c0: 9f 23 40 00 9f 28 50 10 8f 2a 00 01 8f 31 00 02  .#@..(P..*...1..
000112d0: 8f 23 00 0d 8f 24 00 00 8f 28 00 08 8f 28 00 50  .#...$...(...(.P
000112e0: 9f 2a 40 13 8f 2a 00 2d 9f 24 40 00 9f 2a 40 10  .*@..*.-.$@..*@.
000112f0: 9f 23 40 03 8f 2a 00 10 8f 23 00 05 8f 24 00 58  .#@..*...#...$.X
00011300: 9f 2a 40 13 8f 2a 00 28 9f 31 40 05 9f 24 40 00  .*@..*.(.1@..$@.
00011310: 9f 2a 40 03 9f 28 50 08 9f 28 50 05 9f 23 40 03  .*@..(P..(P..#@.
00011320: 8f 2a 00 00 8f 31 00 05 8f 28 00 08 8f 28 00 03  .*...1...(...(..
00011330: 8f 23 00 05 8f 24 00 58 9f 2a 40 13 8f 2a 00 2d  .#...$.X.*@..*.-
00011340: 9f 24 40 03 9f 2a 40 0d 9f 23 40 08 8f 2a 00 0b  .$@..*@..#@..*..
00011350: 8f 23 00 05 8f 24 00 58 9f 2a 40 13 8f 2a 00 25  .#...$.X.*@..*.%
00011360: 9f 31 40 08 9f 24 40 00 9f 28 50 00 9f 2a 40 08  .1@..$@..(P..*@.
00011370: 9f 28 50 08 9f 23 40 00 8f 31 00 03 8f 2a 00 10  .(P..#@..1...*..
00011380: 8f 23 00 05 8f 24 00 00 8f 28 00 08 8f 28 00 4b  .#...$...(...(.K
00011390: 9f 2a 40 15 8f 2a 00 30 9f 24 40 00 9f 2a 40 10  .*@..*.0.$@..*@.
000113a0: 9f 23 40 03 8f 2a 00 10 8f 23 00 05 8f 24 00 58  .#@..*...#...$.X
000113b0: 9f 28 50 00 9f 2a 40 08 9f 28 50 0b 8f 2a 00 01  .(P..*@..(P..*..
000113c0: 8f 28 00 07 8f 28 00 1d 9f 31 40 08 9f 24 40 00  .(...(...1@..$@.
000113d0: 9f 2a 40 03 9f 28 50 08 9f 28 50 05 9f 23 40 00  .*@..(P..(P..#@.
000113e0: 8f 31 00 03 8f 2a 00 05 8f 28 00 08 8f 28 00 03  .1...*...(...(..
000113f0: 8f 23 00 05 8f 24 00 18 9f 2a 40 13 8f 2a 00 2d  .#...$...*@..*.-
00011400: 9f 28 50 00 9f 2a 40 08 9f 28 50 0b 8f 2a 00 05  .(P..*@..(P..*..
00011410: 8f 28 00 08 8f 28 00 20 9f 24 40 03 9f 28 50 00  .(...(. .$@..(P.
00011420: 9f 2a 40 05 9f 28 50 08 9f 23 40 08 8f 2a 00 03  .*@..(P..#@..*..
00011430: 8f 28 00 08 8f 23 00 05 8f 28 00 00 8f 24 00 58  .(...#...(...$.X
00011440: 9f 2a 40 01 9f 28 50 07 9f 28 50 0b 8f 2a 00 01  .*@..(P..(P..*..
00011450: 8f 28 00 0c 8f 28 00 18 9f 31 40 08 9f 24 40 00  .(...(...1@..$@.
00011460: 9f 28 50 00 9f 2a 40 08 9f 28 50 08 9f 23 40 00  .(P..*@..(P..#@.
00011470: 8f 31 00 03 8f 2a 00 08 8f 28 00 08 8f 23 00 00  .1...*...(...#..
00011480: 8f 28 00 05 8f 24 00 18 9f 28 50 00 9f 2a 40 08  .(...$...(P..*@.
00011490: 9f 28 50 0b 8f 2a 00 05 8f 28 00 0b 8f 28 00 18  .(P..*...(...(..
000114a0: 9f 2a 40 05 9f 28 50 0b 9f 28 50 05 8f 2a 00 08  .*@..(P..(P..*..
000114b0: 8f 28 00 10 8f 28 00 18 9f 24 40 00 9f 2a 40 03  .(...(...$@..*@.
000114c0: 9f 28 50 0d 9f 23 40 00 9f 28 50 03 8f 2a 00 08  .(P..#@..(P..*..
000114d0: 8f 28 00 08 8f 23 00 05 8f 28 00 00 8f 24 00 50  .(...#...(...$.P
000114e0: 9f 31 40 08 9f 2a 40 10 8f 31 00 03 8f 2a 00 21  .1@..*@..1...*.!
000114f0: 9f 31 40 0c 9f 24 40 00 9f 2a 40 03 9f 28 50 08  .1@..$@..*@..(P.
00011500: 9f 28 50 05 9f 23 40 00 8f 31 00 03 8f 2a 00 05  .(P..#@..1...*..
00011510: 8f 28 00 08 8f 28 00 03 8f 23 00 05 8f 24 00 58  .(...(...#...$.X
00011520: 9f 2a 40 13 8f 2a 00 2d 9f 24 40 03 9f 2a 40 0d  .*@..*.-.$@..*@.
00011530: 9f 23 40 08 8f 2a 00 0b 8f 23 00 05 8f 24 00 50  .#@..*...#...$.P
00011540: 9f 31 40 08 9f 2a 40 10 8f 31 00 03 8f 2a 00 25  .1@..*@..1...*.%
00011550: 9f 31 40 08 9f 24 40 00 9f 28 50 00 9f 2a 40 08  .1@..$@..(P..*@.
00011560: 9f 28 50 08 9f 23 40 00 8f 31 00 03 8f 2a 00 10  .(P..#@..1...*..
00011570: 8f 23 00 05 8f 24 00 00 8f 28 00 08 8f 28 00 4b  .#...$...(...(.K
00011580: 9f 2a 40 15 8f 2a 00 30 9f 24 40 00 9f 2a 40 10  .*@..*.0.$@..*@.
00011590: 9f 23 40 03 8f 2a 00 10 8f 23 00 05 8f 24 00 58  .#@..*...#...$.X
000115a0: 9f 2a 40 13 8f 2a 00 28 9f 31 40 05 9f 24 40 00  .*@..*.(.1@..$@.
000115b0: 9f 2a 40 03 9f 28 50 08 9f 28 50 05 9f 23 40 00  .*@..(P..(P..#@.
000115c0: 8f 31 00 03 8f 2a 00 05 8f 28 00 08 8f 28 00 03  .1...*...(...(..
000115d0: 8f 23 00 05 8f 24 00 58 9f 2a 40 13 8f 2a 00 2d  .#...$.X.*@..*.-
000115e0: 9f 24 40 03 9f 2a 40 0d 9f 23 40 08 8f 2a 00 0b  .$@..*@..#@..*..
000115f0: 8f 23 00 05 8f 24 00 58 9f 2a 40 13 8f 2a 00 25  .#...$.X.*@..*.%
00011600: 9f 31 40 08 9f 24 40 00 9f 28 50 00 9f 2a 40 08  .1@..$@..(P..*@.
00011610: 9f 28 50 08 9f 23 40 00 8f 31 00 03 8f 2a 00 10  .(P..#@..1...*..
00011620: 8f 23 00 05 8f 24 00 00 8f 28 00 08 8f 28 00 4b  .#...$...(...(.K
00011630: 9f 2a 40 15 8f 2a 00 30 9f 24 40 00 9f 2a 40 10  .*@..*.0.$@..*@.
00011640: 9f 23 40 03 8f 2a 00 10 8f 23 00 05 8f 24 00 58  .#@..*...#...$.X
00011650: 9f 2a 40 13 8f 2a 00 25 9f 31 40 08 9f 24 40 00  .*@..*.%.1@..$@.
00011660: 9f 2a 40 03 9f 28 50 08 9f 28 50 05 9f 23 40 00  .*@..(P..(P..#@.
00011670: 8f 31 00 03 8f 2a 00 05 8f 28 00 08 8f 28 00 03  .1...*...(...(..
00011680: 8f 23 00 05 8f 24 00 58 9f 2a 40 13 8f 2a 00 2d  .#...$.X.*@..*.-
00011690: 9f 24 40 03 9f 2a 40 0d 9f 23 40 08 8f 2a 00 0b  .$@..*@..#@..*..
000116a0: 8f 23 00 05 8f 24 00 58 9f 2a 40 13 8f 2a 00 26  .#...$.X.*@..*.&
000116b0: 9f 31 40 07 9f 24 40 00 9f 28 50 00 9f 2a 40 08  .1@..$@..(P..*@.
000116c0: 9f 28 50 08 9f 23 40 00 8f 31 00 03 8f 2a 00 10  .(P..#@..1...*..
000116d0: 8f 23 00 05 8f 24 00 00 8f 28 00 08 8f 28 00 4b  .#...$...(...(.K
000116e0: 9f 2a 40 15 8f 2a 00 30 9f 24 40 00 9f 2a 40 10  .*@..*.0.$@..*@.
000116f0: 9f 23 40 03 8f 2a 00 10 8f 23 00 05 8f 24 00 58  .#@..*...#...$.X
00011700: 9f 2a 40 13 8f 2a 00 25 9f 31 40 08 9f 24 40 00  .*@..*.%.1@..$@.
00011710: 9f 2a 40 03 9f 28 50 08 9f 28 50 05 9f 23 40 00  .*@..(P..(P..#@.
00011720: 8f 31 00 03 8f 2a 00 05 8f 28 00 08 8f 28 00 03  .1...*...(...(..
00011730: 8f 23 00 05 8f 24 00 58 9f 28 50 00 9f 2a 40 0b  .#...$.X.(P..*@.
00011740: 9f 28 50 08 8f 2a 00 08 8f 28 00 08 8f 28 00 1d  .(P..*...(...(..
00011750: 9f 24 40 00 9f 28 50 03 9f 2a 40 08 9f 28 50 05  .$@..(P..*@..(P.
00011760: 9f 23 40 08 8f 2a 00 00 8f 28 00 0b 8f 23 00 00  .#@..*...(...#..
00011770: 8f 28 00 05 8f 24 00 58 9f 28 50 00 9f 2a 40 0b  .(...$.X.(P..*@.
00011780: 9f 28 50 08 8f 2a 00 00 8f 28 00 10 8f 28 00 10  .(P..*...(...(..
00011790: 9f 31 40 0d 9f 24 40 00 9f 28 50 00 9f 2a 40 08  .1@..$@..(P..*@.
000117a0: 9f 28 50 08 9f 23 40 00 8f 31 00 03 8f 2a 00 0d  .(P..#@..1...*..
000117b0: 8f 28 00 03 8f 23 00 05 8f 28 00 00 8f 24 00 53  .(...#...(...$.S
000117c0: 9f 2a 40 15 8f 2a 00 30 9f 24 40 00 9f 2a 40 10  .*@..*.0.$@..*@.
000117d0: 9f 23 40 03 8f 2a 00 10 8f 23 00 05 8f 24 00 4b  .#@..*...#...$.K
000117e0: 9f 31 40 0d 9f 2a 40 10 8f 31 00 03 8f 2a 00 25  .1@..*@..1...*.%
000117f0: 9f 31 40 08 9f 24 40 00 9f 2a 40 03 9f 28 50 08  .1@..$@..*@..(P.
00011800: 9f 28 50 05 9f 23 40 03 8f 2a 00 00 8f 31 00 05  .(P..#@..*...1..
00011810: 8f 28 00 08 8f 28 00 03 8f 23 00 05 8f 24 00 58  .(...(...#...$.X
00011820: 9f 2a 40 13 8f 2a 00 2d 9f 24 40 03 9f 2a 40 0d  .*@..*.-.$@..*@.
00011830: 9f 23 40 08 8f 2a 00 0b 8f 23 00 05 8f 24 00 58  .#@..*...#...$.X
00011840: 9f 2a 40 13 8f 2a 00 25 9f 31 40 08 9f 24 40 00  .*@..*.%.1@..$@.
00011850: 9f 28 50 00 9f 2a 40 08 9f 28 50 08 9f 23 40 00  .(P..*@..(P..#@.
00011860: 8f 31 00 03 8f 2a 00 10 8f 23 00 05 8f 24 00 00  .1...*...#...$..
00011870: 8f 28 00 08 8f 28 00 4b 9f 2a 40 15 8f 2a 00 30  .(...(.K.*@..*.0
00011880: 9f 24 40 00 9f 2a 40 10 9f 23 40 03 8f 2a 00 10  .$@..*@..#@..*..
00011890: 8f 23 00 05 8f 24 00 58 9f 2a 40 13 8f 2a 00 28  .#...$.X.*@..*.(
000118a0: 9f 31 40 05 9f 24 40 00 9f 2a 40 03 9f 28 50 08  .1@..$@..*@..(P.
000118b0: 9f 28 50 05 9f 23 40 03 8f 2a 00 05 8f 28 00 00  .(P..#@..*...(..
000118c0: 8f 31 00 08 8f 28 00 03 8f 23 00 05 8f 24 00 58  .1...(...#...$.X
000118d0: 9f 2a 40 13 8f 2a 00 2d 9f 24 40 03 9f 2a 40 0d  .*@..*.-.$@..*@.
000118e0: 9f 23 40 08 8f 2a 00 0b 8f 23 00 05 8f 24 00 58  .#@..*...#...$.X
000118f0: 9f 2a 40 13 8f 2a 00 25 9f 31 40 08 9f 24 40 00  .*@..*.%.1@..$@.
00011900: 9f 28 50 00 9f 2a 40 08 9f 28 50 08 9f 23 40 00  .(P..*@..(P..#@.
00011910: 8f 31 00 03 8f 2a 00 10 8f 23 00 05 8f 24 00 00  .1...*...#...$..
00011920: 8f 28 00 08 8f 28 00 4b 9f 2a 40 15 8f 2a 00 30  .(...(.K.*@..*.0
00011930: 9f 24 40 00 9f 2a 40 10 9f 23 40 03 8f 2a 00 10  .$@..*@..#@..*..
00011940: 8f 23 00 05 8f 24 00 50 9f 31 40 08 9f 2a 40 10  .#...$.P.1@..*@.
00011950: 8f 31 00 03 8f 2a 00 25 9f 31 40 08 9f 24 40 00  .1...*.%.1@..$@.
00011960: 9f 2a 40 03 9f 28 50 08 9f 28 50 05 9f 23 40 00  .*@..(P..(P..#@.
00011970: 8f 31 00 03 8f 2a 00 05 8f 28 00 08 8f 28 00 03  .1...*...(...(..
00011980: 8f 23 00 05 8f 24 00 58 9f 2a 40 13 8f 2a 00 2d  .#...$.X.*@..*.-
00011990: 9f 24 40 03 9f 2a 40 0d 9f 23 40 08 8f 2a 00 0b  .$@..*@..#@..*..
000119a0: 8f 23 00 05 8f 24 00 50 9f 31 40 08 9f 2a 40 10  .#...$.P.1@..*@.
000119b0: 8f 31 00 03 8f 2a 00 26 9f 31 40 07 9f 24 40 00  .1...*.&.1@..$@.
000119c0: 9f 28 50 00 9f 2a 40 08 9f 28 50 08 9f 23 40 00  .(P..*@..(P..#@.
000119d0: 8f 31 00 03 8f 2a 00 10 8f 23 00 05 8f 24 00 00  .1...*...#...$..
000119e0: 8f 28 00 08 8f 28 00 4b 9f 2a 40 15 8f 2a 00 30  .(...(.K.*@..*.0
000119f0: 9f 24 40 00 9f 2a 40 03 9f 28 50 05 9f 28 50 08  .$@..*@..(P..(P.
00011a00: 9f 23 40 03 8f 2a 00 08 8f 28 00 05 8f 28 00 03  .#@..*...(...(..
00011a10: 8f 23 00 05 8f 24 00 18 9f 28 50 08 9f 28 50 0b  .#...$...(P..(P.
00011a20: 8f 28 00 08 8f 28 00 1d 9f 31 40 08 9f 28 50 00  .(...(...1@..(P.
00011a30: 9f 2a 40 08 9f 28 50 0b 8f 2a 00 05 8f 28 00 03  .*@..(P..*...(..
00011a40: 8f 31 00 08 8f 28 00 1d 9f 24 40 00 9f 2a 40 03  .1...(...$@..*@.
00011a50: 9f 28 50 08 9f 28 50 05 9f 23 40 03 8f 2a 00 05  .(P..(P..#@..*..
00011a60: 8f 28 00 08 8f 28 00 03 8f 23 00 05 8f 24 00 18  .(...(...#...$..
00011a70: 9f 28 50 0b 9f 28 50 08 8f 28 00 0d 8f 28 00 20  .(P..(P..(...(. 
00011a80: 9f 28 50 00 9f 2a 40 0b 9f 28 50 08 8f 2a 00 05  .(P..*@..(P..*..
00011a90: 8f 28 00 08 8f 28 00 20 9f 24 40 03 9f 28 50 00  .(...(. .$@..(P.
00011aa0: 9f 2a 40 0d 9f 23 40 03 9f 28 50 05 8f 2a 00 03  .*@..#@..(P..*..
00011ab0: 8f 28 00 05 9f 28 50 03 8f 23 00 05 8f 24 00 03  .(...(P..#...$..
00011ac0: 8f 28 00 0d 8f 28 00 08 9f 28 50 0b 9f 28 50 08  .(...(...(P..(P.
00011ad0: 8f 28 00 0d 9f 28 50 00 8f 28 00 13 8f 28 00 0d  .(...(P..(...(..
00011ae0: 9f 28 50 00 9f 2a 40 0b 9f 28 50 08 8f 2a 00 05  .(P..*@..(P..*..
00011af0: 8f 28 00 08 8f 28 00 20 9f 24 40 00 9f 28 50 00  .(...(. .$@..(P.
00011b00: 9f 2a 40 0b 9f 28 50 05 9f 23 40 03 8f 2a 00 05  .*@..(P..#@..*..
00011b10: 8f 28 00 0b 8f 23 00 00 8f 28 00 05 8f 24 00 18  .(...#...(...$..
00011b20: 9f 28 50 0b 9f 28 50 0d 8f 28 00 0b 8f 28 00 18  .(P..(P..(...(..
00011b30: 9f 2a 40 05 9f 28 50 0b 9f 28 50 05 8f 2a 00 08  .*@..(P..(P..*..
00011b40: 8f 28 00 10 8f 28 00 18 9f 24 40 00 9f 2a 40 03  .(...(...$@..*@.
00011b50: 9f 3b 40 05 9f 23 40 0b 8f 2a 00 08 8f 23 00 0d  .;@..#@..*...#..
00011b60: 8f 24 00 03 8f 3b 00 55 9f 2a 40 13 8f 2a 00 2d  .$...;.U.*@..*.-
00011b70: 9f 24 40 00 9f 2a 40 00 9f 37 40 03 9f 28 50 05  .$@..*@..7@..(P.
00011b80: 9f 23 40 03 9f 28 50 08 8f 2a 00 05 8f 28 00 03  .#@..(P..*...(..
00011b90: 8f 23 00 05 8f 28 00 08 8f 24 00 03 8f 37 00 55  .#...(...$...7.U
00011ba0: 9f 31 40 13 8f 31 00 2d 9f 24 40 08 9f 23 40 00  .1@..1.-.$@..#@.
00011bb0: 9f 31 40 13 8f 23 00 05 8f 31 00 08 8f 24 00 53  .1@..#...1...$.S
00011bc0: 9f 31 40 1d 8f 31 00 20 9f 31 40 08 9f 24 40 00  .1@..1. .1@..$@.
00011bd0: 9f 28 50 08 9f 23 40 00 9f 28 50 08 8f 31 00 0b  .(P..#@..(P..1..
00011be0: 8f 23 00 0d 8f 24 00 00 8f 28 00 08 8f 28 00 50  .#...$...(...(.P
00011bf0: 9f 2a 40 13 8f 2a 00 2d 9f 24 40 00 9f 2a 40 08  .*@..*.-.$@..*@.
00011c00: 9f 23 40 0b 8f 2a 00 08 8f 23 00 0d 8f 24 00 50  .#@..*...#...$.P
00011c10: 9f 31 40 18 8f 31 00 30 9f 24 40 00 9f 31 40 03  .1@..1.0.$@..1@.
00011c20: 9f 28 50 05 9f 23 40 03 9f 28 50 0d 8f 28 00 00  .(P..#@..(P..(..
00011c30: 8f 31 00 03 8f 23 00 05 8f 28 00 08 8f 24 00 53  .1...#...(...$.S
00011c40: 9f 2a 40 15 8f 2a 00 30 9f 24 40 03 9f 2a 40 05  .*@..*.0.$@..*@.
00011c50: 9f 23 40 10 8f 2a 00 03 8f 23 00 0d 8f 24 00 58  .#@..*...#...$.X
00011c60: 9f 2a 40 13 8f 2a 00 2d 9f 24 40 00 9f 28 50 08  .*@..*.-.$@..(P.
00011c70: 9f 23 40 00 9f 28 50 00 9f 31 40 13 8f 23 00 0d  .#@..(P..1@..#..
00011c80: 8f 24 00 00 8f 31 00 00 8f 28 00 08 8f 28 00 50  .$...1...(...(.P
00011c90: 9f 2a 40 13 8f 2a 00 2d 9f 24 40 00 9f 2a 40 10  .*@..*.-.$@..*@.
00011ca0: 9f 23 40 03 8f 2a 00 10 8f 23 00 05 8f 24 00 58  .#@..*...#...$.X
00011cb0: 9f 2a 40 13 8f 2a 00 2d 9f 24 40 03 9f 28 50 00  .*@..*.-.$@..(P.
00011cc0: 9f 31 40 08 9f 28 50 05 9f 23 40 08 8f 28 00 03  .1@..(P..#@..(..
00011cd0: 8f 31 00 05 8f 28 00 03 8f 23 00 05 8f 24 00 58  .1...(...#...$.X
00011ce0: 9f 2a 40 13 8f 2a 00 2d 9f 24 40 03 9f 2a 40 0d  .*@..*.-.$@..*@.
00011cf0: 9f 23 40 08 8f 2a 00 0b 8f 23 00 05 8f 24 00 58  .#@..*...#...$.X
00011d00: 9f 2a 40 13 8f 2a 00 2d 9f 24 40 00 9f 28 50 00  .*@..*.-.$@..(P.
00011d10: 9f 31 40 08 9f 28 50 08 9f 23 40 0b 8f 31 00 08  .1@..(P..#@..1..
00011d20: 8f 23 00 05 8f 24 00 00 8f 28 00 08 8f 28 00 4b  .#...$...(...(.K
00011d30: 9f 2a 40 15 8f 2a 00 30 9f 24 40 00 9f 2a 40 10  .*@..*.0.$@..*@.
00011d40: 9f 23 40 03 8f 2a 00 10 8f 23 00 05 8f 24 00 58  .#@..*...#...$.X
00011d50: 9f 28 50 00 9f 2a 40 08 9f 28 50 0b 8f 2a 00 01  .(P..*@..(P..*..
00011d60: 8f 28 00 07 8f 28 00 1d 9f 31 40 08 9f 24 40 00  .(...(...1@..$@.
00011d70: 9f 2a 40 03 9f 28 50 08 9f 28 50 05 9f 23 40 00  .*@..(P..(P..#@.
00011d80: 8f 31 00 03 8f 2a 00 05 8f 28 00 08 8f 28 00 03  .1...*...(...(..
00011d90: 8f 23 00 05 8f 24 00 18 9f 2a 40 13 8f 2a 00 2d  .#...$...*@..*.-
00011da0: 9f 28 50 00 9f 2a 40 08 9f 28 50 0b 8f 2a 00 05  .(P..*@..(P..*..
00011db0: 8f 28 00 08 8f 28 00 20 9f 24 40 03 9f 28 50 00  .(...(. .$@..(P.
00011dc0: 9f 2a 40 0d 9f 23 40 08 8f 2a 00 03 8f 28 00 08  .*@..#@..*...(..
00011dd0: 8f 23 00 05 8f 24 00 58 9f 2a 40 01 9f 28 50 07  .#...$.X.*@..(P.
00011de0: 9f 28 50 0b 8f 2a 00 01 8f 28 00 0c 8f 28 00 20  .(P..*...(...(. 
00011df0: 9f 24 40 00 9f 28 50 00 9f 31 40 08 9f 28 50 08  .$@..(P..1@..(P.
00011e00: 9f 23 40 08 8f 31 00 0b 8f 23 00 05 8f 24 00 00  .#@..1...#...$..
00011e10: 8f 28 00 08 8f 28 00 10 9f 2a 40 13 8f 2a 00 28  .(...(...*@..*.(
00011e20: 9f 2a 40 15 8f 2a 00 30 9f 24 40 00 9f 2a 40 03  .*@..*.0.$@..*@.
00011e30: 9f 28 50 0d 9f 23 40 00 9f 28 50 03 8f 2a 00 08  .(P..#@..(P..*..
00011e40: 8f 28 00 08 8f 23 00 05 8f 28 00 00 8f 24 00 18  .(...#...(...$..
00011e50: 9f 28 50 18 8f 28 00 20 9f 31 40 18 8f 31 00 2b  .(P..(. .1@..1.+
00011e60: 9f 31 40 05 9f 24 40 03 9f 28 50 08 9f 28 50 05  .1@..$@..(P..(P.
00011e70: 9f 23 40 08 8f 28 00 00 8f 31 00 08 8f 28 00 03  .#@..(...1...(..
00011e80: 8f 23 00 05 8f 24 00 10 9f 28 50 20 8f 28 00 28  .#...$...(P .(.(
00011e90: 9f 2a 40 13 8f 2a 00 2d 9f 24 40 03 9f 2a 40 0d  .*@..*.-.$@..*@.
00011ea0: 9f 23 40 08 8f 2a 00 0b 8f 23 00 05 8f 24 00 50  .#@..*...#...$.P
00011eb0: 9f 31 40 18 8f 31 00 28 9f 31 40 08 9f 24 40 00  .1@..1.(.1@..$@.
00011ec0: 9f 28 50 08 9f 28 50 08 9f 23 40 00 8f 31 00 13  .(P..(P..#@..1..
00011ed0: 8f 23 00 05 8f 24 00 00 8f 28 00 08 8f 28 00 4b  .#...$...(...(.K
00011ee0: 9f 2a 40 15 8f 2a 00 30 9f 24 40 00 9f 2a 40 10  .*@..*.0.$@..*@.
00011ef0: 9f 23 40 03 8f 2a 00 10 8f 23 00 05 8f 24 00 58  .#@..*...#...$.X
00011f00: 9f 2a 40 13 8f 2a 00 28 9f 31 40 05 9f 24 40 03  .*@..*.(.1@..$@.
00011f10: 9f 28 50 08 9f 28 50 05 9f 23 40 00 8f 31 00 08  .(P..(P..#@..1..
00011f20: 8f 28 00 08 8f 28 00 03 8f 23 00 05 8f 24 00 58  .(...(...#...$.X
00011f30: 9f 2a 40 13 8f 2a 00 2d 9f 24 40 03 9f 2a 40 0d  .*@..*.-.$@..*@.
00011f40: 9f 23 40 08 8f 2a 00 0b 8f 23 00 05 8f 24 00 58  .#@..*...#...$.X
00011f50: 9f 2a 40 13 8f 2a 00 25 9f 31 40 08 9f 24 40 00  .*@..*.%.1@..$@.
00011f60: 9f 28 50 08 9f 28 50 08 9f 23 40 00 8f 31 00 13  .(P..(P..#@..1..
00011f70: 8f 23 00 05 8f 24 00 00 8f 28 00 08 8f 28 00 4b  .#...$...(...(.K
00011f80: 9f 2a 40 15 8f 2a 00 30 9f 24 40 00 9f 2a 40 10  .*@..*.0.$@..*@.
00011f90: 9f 23 40 03 8f 2a 00 10 8f 23 00 05 8f 24 00 58  .#@..*...#...$.X
00011fa0: 9f 2a 40 13 8f 2a 00 25 9f 31 40 08 9f 24 40 03  .*@..*.%.1@..$@.
00011fb0: 9f 28 50 08 9f 28 50 05 9f 23 40 00 8f 31 00 08  .(P..(P..#@..1..
00011fc0: 8f 28 00 08 8f 28 00 03 8f 23 00 05 8f 24 00 58  .(...(...#...$.X
00011fd0: 9f 2a 40 13 8f 2a 00 2d 9f 24 40 03 9f 2a 40 0d  .*@..*.-.$@..*@.
00011fe0: 9f 23 40 08 8f 2a 00 0b 8f 23 00 05 8f 24 00 58  .#@..*...#...$.X
00011ff0: 9f 2a 40 13 8f 2a 00 26 9f 31 40 07 9f 24 40 00  .*@..*.&.1@..$@.
00012000: 9f 28 50 08 9f 28 50 08 9f 23 40 00 8f 31 00 13  .(P..(P..#@..1..
00012010: 8f 23 00 05 8f 24 00 00 8f 28 00 08 8f 28 00 10  .#...$...(...(..
00012020: 9f 28 50 28 8f 28 00 13 9f 2a 40 15 8f 2a 00 30  .(P(.(...*@..*.0
00012030: 9f 24 40 00 9f 2a 40 10 9f 23 40 03 8f 2a 00 10  .$@..*@..#@..*..
00012040: 8f 23 00 05 8f 24 00 58 9f 2a 40 13 8f 2a 00 25  .#...$.X.*@..*.%
00012050: 9f 31 40 08 9f 24 40 03 9f 28 50 08 9f 28 50 05  .1@..$@..(P..(P.
00012060: 9f 23 40 00 8f 31 00 08 8f 28 00 08 8f 28 00 03  .#@..1...(...(..
00012070: 8f 23 00 05 8f 24 00 58 9f 2a 40 13 8f 2a 00 2d  .#...$.X.*@..*.-
00012080: 9f 24 40 03 9f 2a 40 0d 9f 23 40 08 8f 2a 00 0b  .$@..*@..#@..*..
00012090: 8f 23 00 05 8f 24 00 58 9f 2a 40 13 8f 2a 00 20  .#...$.X.*@..*. 
000120a0: 9f 31 40 0d 9f 24 40 00 9f 28 50 08 9f 28 50 08  .1@..$@..(P..(P.
000120b0: 9f 23 40 00 8f 31 00 13 8f 23 00 05 8f 24 00 00  .#@..1...#...$..
000120c0: 8f 28 00 08 8f 28 00 10 9f 28 50 28 8f 28 00 13  .(...(...(P(.(..
000120d0: 9f 2a 40 15 8f 2a 00 30 9f 24 40 00 9f 2a 40 10  .*@..*.0.$@..*@.
000120e0: 9f 23 40 03 8f 2a 00 10 8f 23 00 05 8f 24 00 4b  .#@..*...#...$.K
000120f0: 9f 31 40 1d 8f 31 00 28 9f 31 40 08 9f 24 40 03  .1@..1.(.1@..$@.
00012100: 9f 28 50 08 9f 28 50 05 9f 23 40 03 8f 31 00 05  .(P..(P..#@..1..
00012110: 8f 28 00 08 8f 28 00 03 8f 23 00 05 8f 24 00 58  .(...(...#...$.X
00012120: 9f 2a 40 13 8f 2a 00 2d 9f 24 40 03 9f 2a 40 0d  .*@..*.-.$@..*@.
00012130: 9f 23 40 08 8f 2a 00 0b 8f 23 00 05 8f 24 00 58  .#@..*...#...$.X
00012140: 9f 2a 40 13 8f 2a 00 25 9f 31 40 08 9f 24 40 00  .*@..*.%.1@..$@.
00012150: 9f 28 50 08 9f 28 50 08 9f 23 40 00 8f 31 00 13  .(P..(P..#@..1..
00012160: 8f 23 00 05 8f 24 00 00 8f 28 00 08 8f 28 00 4b  .#...$...(...(.K
00012170: 9f 2a 40 15 8f 2a 00 30 9f 24 40 00 9f 2a 40 10  .*@..*.0.$@..*@.
00012180: 9f 23 40 03 8f 2a 00 10 8f 23 00 05 8f 24 00 58  .#@..*...#...$.X
00012190: 9f 2a 40 13 8f 2a 00 28 9f 31 40 05 9f 24 40 03  .*@..*.(.1@..$@.
000121a0: 9f 28 50 08 9f 28 50 05 9f 23 40 08 8f 28 00 00  .(P..(P..#@..(..
000121b0: 8f 31 00 08 8f 28 00 03 8f 23 00 05 8f 24 00 58  .1...(...#...$.X
000121c0: 9f 2a 40 13 8f 2a 00 2d 9f 24 40 03 9f 2a 40 0d  .*@..*.-.$@..*@.
000121d0: 9f 23 40 08 8f 2a 00 0b 8f 23 00 05 8f 24 00 58  .#@..*...#...$.X
000121e0: 9f 2a 40 13 8f 2a 00 25 9f 31 40 08 9f 24 40 00  .*@..*.%.1@..$@.
000121f0: 9f 28 50 08 9f 28 50 08 9f 23 40 00 8f 31 00 13  .(P..(P..#@..1..
00012200: 8f 23 00 05 8f 24 00 00 8f 28 00 08 8f 28 00 10  .#...$...(...(..
00012210: 9f 28 50 30 8f 28 00 0b 9f 2a 40 15 8f 2a 00 30  .(P0.(...*@..*.0
00012220: 9f 24 40 00 9f 2a 40 10 9f 23 40 03 8f 2a 00 10  .$@..*@..#@..*..
00012230: 8f 23 00 05 8f 24 00 18 9f 31 40 13 8f 31 00 28  .#...$...1@..1.(
00012240: 9f 31 40 15 8f 31 00 2b 9f 31 40 05 9f 24 40 03  .1@..1.+.1@..$@.
00012250: 9f 28 50 08 9f 28 50 05 9f 23 40 00 8f 31 00 08  .(P..(P..#@..1..
00012260: 8f 28 00 08 8f 28 00 03 9f 2a 40 00 8f 23 00 05  .(...(...*@..#..
00012270: 8f 24 00 10 8f 2a 00 48 9f 2a 40 13 8f 2a 00 2d  .$...*.H.*@..*.-
00012280: 9f 24 40 03 9f 2a 40 0d 9f 23 40 08 8f 2a 00 0b  .$@..*@..#@..*..
00012290: 8f 23 00 05 8f 24 00 50 9f 31 40 18 8f 31 00 29  .#...$.P.1@..1.)
000122a0: 9f 31 40 07 9f 24 40 00 9f 28 50 08 9f 28 50 08  .1@..$@..(P..(P.
000122b0: 9f 23 40 00 8f 31 00 13 8f 23 00 05 8f 24 00 00  .#@..1...#...$..
000122c0: 8f 28 00 08 8f 28 00 4b 9f 2a 40 15 8f 2a 00 30  .(...(.K.*@..*.0
000122d0: 9f 24 40 00 9f 2a 40 08 9f 26 40 08 9f 23 40 03  .$@..*@..&@..#@.
000122e0: 8f 2a 00 08 8f 26 00 08 8f 23 00 05 8f 24 00 50  .*...&...#...$.P
000122f0: 9f 31 40 08 9f 28 50 00 9f 2a 40 08 9f 26 40 00  .1@..(P..*@..&@.
00012300: 9f 28 50 0b 8f 2a 00 05 8f 28 00 03 8f 31 00 00  .(P..*...(...1..
00012310: 8f 26 00 08 8f 28 00 1d 9f 24 40 00 9f 2a 40 03  .&...(...$@..*@.
00012320: 9f 28 50 06 9f 26 40 02 9f 28 50 05 9f 23 40 03  .(P..&@..(P..#@.
00012330: 8f 2a 00 05 8f 28 00 03 8f 26 00 05 8f 28 00 03  .*...(...&...(..
00012340: 8f 23 00 05 8f 24 00 50 9f 26 40 08 9f 28 50 00  .#...$.P.&@..(P.
00012350: 9f 2a 40 0b 9f 28 50 01 8f 26 00 07 8f 28 00 00  .*@..(P..&...(..
00012360: 8f 2a 00 05 8f 28 00 24 9f 26 40 04 9f 24 40 03  .*...(.$.&@..$@.
00012370: 9f 28 50 00 9f 2a 40 0d 9f 23 40 03 9f 28 50 00  .(P..*@..#@..(P.
00012380: 8f 26 00 05 8f 2a 00 03 8f 28 00 05 8f 28 00 03  .&...*...(...(..
00012390: 8f 23 00 05 8f 24 00 58 9f 28 50 00 9f 2a 40 08  .#...$.X.(P..*@.
000123a0: 9f 26 40 03 9f 28 50 06 8f 28 00 02 8f 2a 00 08  .&@..(P..(...*..
000123b0: 8f 26 00 06 8f 28 00 1f 9f 24 40 00 9f 28 50 00  .&...(...$@..(P.
000123c0: 9f 2a 40 08 9f 28 50 03 9f 26 40 05 9f 23 40 03  .*@..(P..&@..#@.
000123d0: 8f 2a 00 05 8f 28 00 08 8f 26 00 03 8f 23 00 05  .*...(...&...#..
000123e0: 8f 24 00 08 8f 28 00 10 9f 28 50 01 9f 26 40 02  .$...(...(P..&@.
000123f0: 9f 28 50 0e 8f 26 00 02 8f 28 00 00 8f 28 00 25  .(P..&...(...(.%
00012400: 9f 26 40 03 9f 2a 40 05 9f 28 50 08 8f 26 00 01  .&@..*@..(P..&..
00012410: 9f 28 50 07 8f 2a 00 08 8f 28 00 00 8f 28 00 20  .(P..*...(...(. 
00012420: 9f 28 50 08 9f 24 40 00 9f 2a 40 00 8f 28 00 08  .(P..$@..*@..(..
00012430: 9f 23 40 0b 8f 2a 00 08 8f 23 00 0d 8f 24 00 58  .#@..*...#...$.X
00012440: 9f 2a 40 13 8f 2a 00 28 9f 31 40 05 9f 24 40 00  .*@..*.(.1@..$@.
00012450: 9f 2a 40 03 9f 28 50 05 9f 23 40 03 9f 28 50 08  .*@..(P..#@..(P.
00012460: 8f 2a 00 00 8f 31 00 05 8f 28 00 03 8f 23 00 05  .*...1...(...#..
00012470: 8f 28 00 08 8f 24 00 58 9f 2a 40 13 8f 2a 00 2d  .(...$.X.*@..*.-
00012480: 9f 24 40 03 9f 2a 40 05 9f 23 40 10 8f 2a 00 03  .$@..*@..#@..*..
00012490: 8f 23 00 0d 8f 24 00 58 9f 2a 40 13 8f 2a 00 25  .#...$.X.*@..*.%
000124a0: 9f 31 40 08 9f 24 40 00 9f 28 50 00 9f 2a 40 08  .1@..$@..(P..*@.
000124b0: 9f 23 40 00 9f 28 50 08 8f 31 00 03 8f 2a 00 08  .#@..(P..1...*..
000124c0: 8f 23 00 0d 8f 24 00 00 8f 28 00 08 8f 28 00 50  .#...$...(...(.P
000124d0: 9f 2a 40 13 8f 2a 00 2d 9f 24 40 00 9f 2a 40 08  .*@..*.-.$@..*@.
000124e0: 9f 23 40 0b 8f 2a 00 08 8f 23 00 0d 8f 24 00 50  .#@..*...#...$.P
000124f0: 9f 31 40 08 9f 2a 40 10 8f 31 00 04 8f 2a 00 24  .1@..*@..1...*.$
00012500: 9f 31 40 08 9f 24 40 03 9f 28 50 00 9f 2a 40 05  .1@..$@..(P..*@.
00012510: 9f 23 40 03 9f 28 50 05 8f 31 00 08 8f 2a 00 00  .#@..(P..1...*..
00012520: 8f 28 00 03 8f 23 00 05 8f 28 00 08 8f 24 00 53  .(...#...(...$.S
00012530: 9f 2a 40 15 8f 2a 00 30 9f 24 40 03 9f 2a 40 05  .*@..*.0.$@..*@.
00012540: 9f 23 40 10 8f 2a 00 03 8f 23 00 0d 8f 24 00 58  .#@..*...#...$.X
00012550: 9f 2a 40 13 8f 2a 00 25 9f 31 40 08 9f 24 40 00  .*@..*.%.1@..$@.
00012560: 9f 28 50 03 9f 2a 40 05 9f 23 40 00 9f 28 50 10  .(P..*@..#@..(P.
00012570: 8f 2a 00 01 8f 31 00 02 8f 23 00 0d 8f 24 00 00  .*...1...#...$..
00012580: 8f 28 00 08 8f 28 00 50 9f 2a 40 13 8f 2a 00 2d  .(...(.P.*@..*.-
00012590: 9f 24 40 00 9f 2a 40 10 9f 23 40 03 8f 2a 00 10  .$@..*@..#@..*..
000125a0: 8f 23 00 05 8f 24 00 58 9f 2a 40 13 8f 2a 00 28  .#...$.X.*@..*.(
000125b0: 9f 31 40 05 9f 24 40 00 9f 2a 40 03 9f 28 50 08  .1@..$@..*@..(P.
000125c0: 9f 28 50 05 9f 23 40 03 8f 2a 00 00 8f 31 00 05  .(P..#@..*...1..
000125d0: 8f 28 00 08 8f 28 00 03 8f 23 00 05 8f 24 00 58  .(...(...#...$.X
000125e0: 9f 2a 40 13 8f 2a 00 2d 9f 24 40 03 9f 2a 40 0d  .*@..*.-.$@..*@.
000125f0: 9f 23 40 08 8f 2a 00 0b 8f 23 00 05 8f 24 00 58  .#@..*...#...$.X
00012600: 9f 2a 40 13 8f 2a 00 25 9f 31 40 08 9f 24 40 00  .*@..*.%.1@..$@.
00012610: 9f 28 50 00 9f 2a 40 08 9f 28 50 08 9f 23 40 00  .(P..*@..(P..#@.
00012620: 8f 31 00 03 8f 2a 00 10 8f 23 00 05 8f 24 00 00  .1...*...#...$..
00012630: 8f 28 00 08 8f 28 00 4b 9f 2a 40 15 8f 2a 00 30  .(...(.K.*@..*.0
00012640: 9f 24 40 00 9f 2a 40 10 9f 23 40 03 8f 2a 00 10  .$@..*@..#@..*..
00012650: 8f 23 00 05 8f 24 00 58 9f 28 50 00 9f 2a 40 08  .#...$.X.(P..*@.
00012660: 9f 28 50 0b 8f 2a 00 01 8f 28 00 07 8f 28 00 1d  .(P..*...(...(..
00012670: 9f 31 40 08 9f 24 40 00 9f 2a 40 03 9f 28 50 08  .1@..$@..*@..(P.
00012680: 9f 28 50 05 9f 23 40 00 8f 31 00 03 8f 2a 00 05  .(P..#@..1...*..
00012690: 8f 28 00 08 8f 28 00 03 8f 23 00 05 8f 24 00 18  .(...(...#...$..
000126a0: 9f 2a 40 13 8f 2a 00 2d 9f 28 50 00 9f 2a 40 08  .*@..*.-.(P..*@.
000126b0: 9f 28 50 0b 8f 2a 00 05 8f 28 00 08 8f 28 00 20  .(P..*...(...(. 
000126c0: 9f 24 40 03 9f 28 50 00 9f 2a 40 05 9f 28 50 08  .$@..(P..*@..(P.
000126d0: 9f 23 40 08 8f 2a 00 03 8f 28 00 08 8f 23 00 05  .#@..*...(...#..
000126e0: 8f 28 00 00 8f 24 00 58 9f 2a 40 01 9f 28 50 07  .(...$.X.*@..(P.
000126f0: 9f 28 50 0b 8f 2a 00 01 8f 28 00 0c 8f 28 00 18  .(P..*...(...(..
00012700: 9f 31 40 08 9f 24 40 00 9f 28 50 00 9f 2a 40 08  .1@..$@..(P..*@.
00012710: 9f 28 50 08 9f 23 40 00 8f 31 00 03 8f 2a 00 08  .(P..#@..1...*..
00012720: 8f 28 00 08 8f 23 00 00 8f 28 00 05 8f 24 00 18  .(...#...(...$..
00012730: 9f 28 50 00 9f 2a 40 08 9f 28 50 0b 8f 2a 00 05  .(P..*@..(P..*..
00012740: 8f 28 00 0b 8f 28 00 18 9f 2a 40 05 9f 28 50 0b  .(...(...*@..(P.
00012750: 9f 28 50 05 8f 2a 00 08 8f 28 00 10 8f 28 00 18  .(P..*...(...(..
00012760: 9f 24 40 00 9f 2a 40 03 9f 28 50 0d 9f 23 40 00  .$@..*@..(P..#@.
00012770: 9f 28 50 03 8f 2a 00 08 8f 28 00 08 8f 23 00 05  .(P..*...(...#..
00012780: 8f 28 00 00 8f 24 00 50 9f 31 40 08 9f 2a 40 10  .(...$.P.1@..*@.
00012790: 8f 31 00 03 8f 2a 00 21 9f 31 40 0c 9f 24 40 00  .1...*.!.1@..$@.
000127a0: 9f 2a 40 03 9f 28 50 08 9f 28 50 05 9f 23 40 00  .*@..(P..(P..#@.
000127b0: 8f 31 00 03 8f 2a 00 05 8f 28 00 08 8f 28 00 03  .1...*...(...(..
000127c0: 8f 23 00 05 8f 24 00 58 9f 2a 40 13 8f 2a 00 2d  .#...$.X.*@..*.-
000127d0: 9f 24 40 03 9f 2a 40 0d 9f 23 40 08 8f 2a 00 0b  .$@..*@..#@..*..
000127e0: 8f 23 00 05 8f 24 00 50 9f 31 40 08 9f 2a 40 10  .#...$.P.1@..*@.
000127f0: 8f 31 00 03 8f 2a 00 25 9f 31 40 08 9f 24 40 00  .1...*.%.1@..$@.
00012800: 9f 28 50 00 9f 2a 40 08 9f 28 50 08 9f 23 40 00  .(P..*@..(P..#@.
00012810: 8f 31 00 03 8f 2a 00 10 8f 23 00 05 8f 24 00 00  .1...*...#...$..
00012820: 8f 28 00 08 8f 28 00 4b 9f 2a 40 15 8f 2a 00 30  .(...(.K.*@..*.0
00012830: 9f 24 40 00 9f 2a 40 10 9f 23 40 03 8f 2a 00 10  .$@..*@..#@..*..
00012840: 8f 23 00 05 8f 24 00 58 9f 2a 40 13 8f 2a 00 28  .#...$.X.*@..*.(
00012850: 9f 31 40 05 9f 24 40 00 9f 2a 40 03 9f 28 50 08  .1@..$@..*@..(P.
00012860: 9f 28 50 05 9f 23 40 00 8f 31 00 03 8f 2a 00 05  .(P..#@..1...*..
00012870: 8f 28 00 08 8f 28 00 03 8f 23 00 05 8f 24 00 58  .(...(...#...$.X
00012880: 9f 2a 40 13 8f 2a 00 2d 9f 24 40 03 9f 2a 40 0d  .*@..*.-.$@..*@.
00012890: 9f 23 40 08 8f 2a 00 0b 8f 23 00 05 8f 24 00 58  .#@..*...#...$.X
000128a0: 9f 2a 40 13 8f 2a 00 25 9f 31 40 08 9f 24 40 00  .*@..*.%.1@..$@.
000128b0: 9f 28 50 00 9f 2a 40 08 9f 28 50 08 9f 23 40 00  .(P..*@..(P..#@.
000128c0: 8f 31 00 03 8f 2a 00 10 8f 23 00 05 8f 24 00 00  .1...*...#...$..
000128d0: 8f 28 00 08 8f 28 00 4b 9f 2a 40 15 8f 2a 00 30  .(...(.K.*@..*.0
000128e0: 9f 24 40 00 9f 2a 40 10 9f 23 40 03 8f 2a 00 10  .$@..*@..#@..*..
000128f0: 8f 23 00 05 8f 24 00 58 9f 2a 40 13 8f 2a 00 25  .#...$.X.*@..*.%
00012900: 9f 31 40 08 9f 24 40 00 9f 2a 40 03 9f 28 50 08  .1@..$@..*@..(P.
00012910: 9f 28 50 05 9f 23 40 00 8f 31 00 03 8f 2a 00 05  .(P..#@..1...*..
00012920: 8f 28 00 08 8f 28 00 03 8f 23 00 05 8f 24 00 58  .(...(...#...$.X
00012930: 9f 2a 40 13 8f 2a 00 2d 9f 24 40 03 9f 2a 40 0d  .*@..*.-.$@..*@.
00012940: 9f 23 40 08 8f 2a 00 0b 8f 23 00 05 8f 24 00 58  .#@..*...#...$.X
00012950: 9f 2a 40 13 8f 2a 00 26 9f 31 40 07 9f 24 40 00  .*@..*.&.1@..$@.
00012960: 9f 28 50 00 9f 2a 40 08 9f 28 50 08 9f 23 40 00  .(P..*@..(P..#@.
00012970: 8f 31 00 03 8f 2a 00 10 8f 23 00 05 8f 24 00 00  .1...*...#...$..
00012980: 8f 28 00 08 8f 28 00 4b 9f 2a 40 15 8f 2a 00 30  .(...(.K.*@..*.0
00012990: 9f 24 40 00 9f 2a 40 10 9f 23 40 03 8f 2a 00 10  .$@..*@..#@..*..
000129a0: 8f 23 00 05 8f 24 00 58 9f 2a 40 13 8f 2a 00 25  .#...$.X.*@..*.%
000129b0: 9f 31 40 08 9f 24 40 00 9f 2a 40 03 9f 28 50 08  .1@..$@..*@..(P.
000129c0: 9f 28 50 05 9f 23 40 00 8f 31 00 03 8f 2a 00 05  .(P..#@..1...*..
000129d0: 8f 28 00 08 8f 28 00 03 8f 23 00 05 8f 24 00 58  .(...(...#...$.X
000129e0: 9f 28 50 00 9f 2a 40 0b 9f 28 50 08 8f 2a 00 08  .(P..*@..(P..*..
000129f0: 8f 28 00 08 8f 28 00 1d 9f 24 40 00 9f 28 50 03  .(...(...$@..(P.
00012a00: 9f 2a 40 08 9f 28 50 05 9f 23 40 08 8f 2a 00 00  .*@..(P..#@..*..
00012a10: 8f 28 00 0b 8f 23 00 00 8f 28 00 05 8f 24 00 58  .(...#...(...$.X
00012a20: 9f 28 50 00 9f 2a 40 0b 9f 28 50 08 8f 2a 00 00  .(P..*@..(P..*..
00012a30: 8f 28 00 10 8f 28 00 10 9f 31 40 0d 9f 24 40 00  .(...(...1@..$@.
00012a40: 9f 28 50 00 9f 2a 40 08 9f 28 50 08 9f 23 40 00  .(P..*@..(P..#@.
00012a50: 8f 31 00 03 8f 2a 00 0d 8f 28 00 03 8f 23 00 05  .1...*...(...#..
00012a60: 8f 28 00 00 8f 24 00 53 9f 2a 40 15 8f 2a 00 30  .(...$.S.*@..*.0
00012a70: 9f 24 40 00 9f 2a 40 10 9f 23 40 03 8f 2a 00 10  .$@..*@..#@..*..
00012a80: 8f 23 00 05 8f 24 00 4b 9f 31 40 0d 9f 2a 40 10  .#...$.K.1@..*@.
00012a90: 8f 31 00 03 8f 2a 00 25 9f 31 40 08 9f 24 40 00  .1...*.%.1@..$@.
00012aa0: 9f 2a 40 03 9f 28 50 08 9f 28 50 05 9f 23 40 03  .*@..(P..(P..#@.
00012ab0: 8f 2a 00 00 8f 31 00 05 8f 28 00 08 8f 28 00 03  .*...1...(...(..
00012ac0: 8f 23 00 05 8f 24 00 58 9f 2a 40 13 8f 2a 00 2d  .#...$.X.*@..*.-
00012ad0: 9f 24 40 03 9f 2a 40 0d 9f 23 40 08 8f 2a 00 0b  .$@..*@..#@..*..
00012ae0: 8f 23 00 05 8f 24 00 58 9f 2a 40 13 8f 2a 00 25  .#...$.X.*@..*.%
00012af0: 9f 31 40 08 9f 24 40 00 9f 28 50 00 9f 2a 40 08  .1@..$@..(P..*@.
00012b00: 9f 28 50 08 9f 23 40 00 8f 31 00 03 8f 2a 00 10  .(P..#@..1...*..
00012b10: 8f 23 00 05 8f 24 00 00 8f 28 00 08 8f 28 00 4b  .#...$...(...(.K
00012b20: 9f 2a 40 15 8f 2a 00 30 9f 24 40 00 9f 2a 40 10  .*@..*.0.$@..*@.
00012b30: 9f 23 40 03 8f 2a 00 10 8f 23 00 05 8f 24 00 58  .#@..*...#...$.X
00012b40: 9f 2a 40 13 8f 2a 00 28 9f 31 40 05 9f 24 40 00  .*@..*.(.1@..$@.
00012b50: 9f 2a 40 03 9f 28 50 08 9f 28 50 05 9f 23 40 03  .*@..(P..(P..#@.
00012b60: 8f 2a 00 05 8f 28 00 00 8f 31 00 08 8f 28 00 03  .*...(...1...(..
00012b70: 8f 23 00 05 8f 24 00 58 9f 2a 40 13 8f 2a 00 2d  .#...$.X.*@..*.-
00012b80: 9f 24 40 03 9f 2a 40 0d 9f 23 40 08 8f 2a 00 0b  .$@..*@..#@..*..
00012b90: 8f 23 00 05 8f 24 00 58 9f 2a 40 13 8f 2a 00 25  .#...$.X.*@..*.%
00012ba0: 9f 31 40 08 9f 24 40 00 9f 28 50 00 9f 2a 40 08  .1@..$@..(P..*@.
00012bb0: 9f 28 50 08 9f 23 40 00 8f 31 00 03 8f 2a 00 10  .(P..#@..1...*..
00012bc0: 8f 23 00 05 8f 24 00 00 8f 28 00 08 8f 28 00 4b  .#...$...(...(.K
00012bd0: 9f 2a 40 15 8f 2a 00 30 9f 24 40 00 9f 2a 40 10  .*@..*.0.$@..*@.
00012be0: 9f 23 40 03 8f 2a 00 10 8f 23 00 05 8f 24 00 50  .#@..*...#...$.P
00012bf0: 9f 31 40 08 9f 2a 40 10 8f 31 00 03 8f 2a 00 25  .1@..*@..1...*.%
00012c00: 9f 31 40 08 9f 24 40 00 9f 2a 40 03 9f 28 50 08  .1@..$@..*@..(P.
00012c10: 9f 28 50 05 9f 23 40 00 8f 31 00 03 8f 2a 00 05  .(P..#@..1...*..
00012c20: 8f 28 00 08 8f 28 00 03 8f 23 00 05 8f 24 00 58  .(...(...#...$.X
00012c30: 9f 2a 40 13 8f 2a 00 2d 9f 24 40 03 9f 2a 40 0d  .*@..*.-.$@..*@.
00012c40: 9f 23 40 08 8f 2a 00 0b 8f 23 00 05 8f 24 00 50  .#@..*...#...$.P
00012c50: 9f 31 40 08 9f 2a 40 10 8f 31 00 03 8f 2a 00 26  .1@..*@..1...*.&
00012c60: 9f 31 40 07 9f 24 40 00 9f 28 50 00 9f 2a 40 08  .1@..$@..(P..*@.
00012c70: 9f 28 50 08 9f 23 40 00 8f 31 00 03 8f 2a 00 10  .(P..#@..1...*..
00012c80: 8f 23 00 05 8f 24 00 00 8f 28 00 08 8f 28 00 4b  .#...$...(...(.K
00012c90: 9f 2a 40 15 8f 2a 00 30 9f 24 40 00 9f 2a 40 03  .*@..*.0.$@..*@.
00012ca0: 9f 28 50 05 9f 28 50 08 9f 23 40 03 8f 2a 00 08  .(P..(P..#@..*..
00012cb0: 8f 28 00 05 8f 28 00 03 8f 23 00 05 8f 24 00 18  .(...(...#...$..
00012cc0: 9f 28 50 08 9f 28 50 0b 8f 28 00 08 8f 28 00 1d  .(P..(P..(...(..
00012cd0: 9f 31 40 08 9f 28 50 00 9f 2a 40 08 9f 28 50 0b  .1@..(P..*@..(P.
00012ce0: 8f 2a 00 05 8f 28 00 03 8f 31 00 08 8f 28 00 1d  .*...(...1...(..
00012cf0: 9f 24 40 00 9f 2a 40 03 9f 28 50 08 9f 28 50 05  .$@..*@..(P..(P.
00012d00: 9f 23 40 03 8f 2a 00 05 8f 28 00 08 8f 28 00 03  .#@..*...(...(..
00012d10: 8f 23 00 05 8f 24 00 18 9f 28 50 0b 9f 28 50 08  .#...$...(P..(P.
00012d20: 8f 28 00 0d 8f 28 00 20 9f 28 50 00 9f 2a 40 0b  .(...(. .(P..*@.
00012d30: 9f 28 50 08 8f 2a 00 05 8f 28 00 08 8f 28 00 20  .(P..*...(...(. 
00012d40: 9f 24 40 03 9f 28 50 00 9f 2a 40 0d 9f 23 40 03  .$@..(P..*@..#@.
00012d50: 9f 28 50 05 8f 2a 00 03 8f 28 00 05 9f 28 50 03  .(P..*...(...(P.
00012d60: 8f 23 00 05 8f 24 00 03 8f 28 00 0d 8f 28 00 08  .#...$...(...(..
00012d70: 9f 28 50 0b 9f 28 50 08 8f 28 00 0d 9f 28 50 00  .(P..(P..(...(P.
00012d80: 8f 28 00 13 8f 28 00 0d 9f 28 50 00 9f 2a 40 0b  .(...(...(P..*@.
00012d90: 9f 28 50 08 8f 2a 00 05 8f 28 00 08 8f 28 00 20  .(P..*...(...(. 
00012da0: 9f 24 40 00 9f 28 50 00 9f 2a 40 0b 9f 28 50 05  .$@..(P..*@..(P.
00012db0: 9f 23 40 03 8f 2a 00 05 8f 28 00 0b 8f 23 00 00  .#@..*...(...#..
00012dc0: 8f 28 00 05 8f 24 00 18 9f 28 50 0b 9f 28 50 0d  .(...$...(P..(P.
00012dd0: 8f 28 00 0b 8f 28 00 18 9f 2a 40 05 9f 28 50 0b  .(...(...*@..(P.
00012de0: 9f 28 50 05 8f 2a 00 08 8f 28 00 10 8f 28 00 18  .(P..*...(...(..
00012df0: 9f 24 40 00 9f 33 40 08 9f 23 40 0b 8f 33 00 08  .$@..3@..#@..3..
00012e00: 8f 23 00 0d 8f 24 00 58 9f 33 40 13 8f 33 00 28  .#...$.X.3@..3.(
00012e10: 9f 31 40 05 9f 24 40 00 9f 33 40 03 9f 28 50 05  .1@..$@..3@..(P.
00012e20: 9f 23 40 03 9f 28 50 08 8f 33 00 00 8f 31 00 05  .#@..(P..3...1..
00012e30: 8f 28 00 03 8f 23 00 05 8f 28 00 08 8f 24 00 58  .(...#...(...$.X
00012e40: 9f 33 40 13 8f 33 00 2d 9f 24 40 03 9f 33 40 05  .3@..3.-.$@..3@.
00012e50: 9f 23 40 10 8f 33 00 03 8f 23 00 0d 8f 24 00 58  .#@..3...#...$.X
00012e60: 9f 33 40 13 8f 33 00 25 9f 31 40 08 9f 24 40 00  .3@..3.%.1@..$@.
00012e70: 9f 28 50 00 9f 33 40 08 9f 23 40 00 9f 28 50 08  .(P..3@..#@..(P.
00012e80: 8f 31 00 03 8f 33 00 08 8f 23 00 0d 8f 24 00 00  .1...3...#...$..
00012e90: 8f 28 00 08 8f 28 00 50 9f 33 40 13 8f 33 00 2d  .(...(.P.3@..3.-
00012ea0: 9f 24 40 00 9f 33 40 08 9f 23 40 0b 8f 33 00 08  .$@..3@..#@..3..
00012eb0: 8f 23 00 0d 8f 24 00 50 9f 31 40 08 9f 33 40 10  .#...$.P.1@..3@.
00012ec0: 8f 31 00 04 8f 33 00 24 9f 31 40 08 9f 24 40 03  .1...3.$.1@..$@.
00012ed0: 9f 28 50 00 9f 33 40 05 9f 23 40 03 9f 28 50 05  .(P..3@..#@..(P.
00012ee0: 8f 31 00 08 8f 33 00 00 8f 28 00 03 8f 23 00 05  .1...3...(...#..
00012ef0: 8f 28 00 08 8f 24 00 53 9f 33 40 15 8f 33 00 30  .(...$.S.3@..3.0
00012f00: 9f 24 40 03 9f 33 40 05 9f 23 40 10 8f 33 00 03  .$@..3@..#@..3..
00012f10: 8f 23 00 0d 8f 24 00 58 9f 33 40 13 8f 33 00 25  .#...$.X.3@..3.%
00012f20: 9f 31 40 08 9f 24 40 00 9f 28 50 03 9f 33 40 05  .1@..$@..(P..3@.
00012f30: 9f 23 40 00 9f 28 50 10 8f 33 00 01 8f 31 00 02  .#@..(P..3...1..
00012f40: 8f 23 00 0d 8f 24 00 00 8f 28 00 08 8f 28 00 50  .#...$...(...(.P
00012f50: 9f 33 40 13 8f 33 00 2d 9f 24 40 00 9f 33 40 10  .3@..3.-.$@..3@.
00012f60: 9f 23 40 03 8f 33 00 10 8f 23 00 05 8f 24 00 58  .#@..3...#...$.X
00012f70: 9f 33 40 13 8f 33 00 28 9f 31 40 05 9f 24 40 00  .3@..3.(.1@..$@.
00012f80: 9f 33 40 03 9f 28 50 08 9f 28 50 05 9f 23 40 03  .3@..(P..(P..#@.
00012f90: 8f 33 00 00 8f 31 00 05 8f 28 00 08 8f 28 00 03  .3...1...(...(..
00012fa0: 8f 23 00 05 8f 24 00 58 9f 33 40 13 8f 33 00 2d  .#...$.X.3@..3.-
00012fb0: 9f 24 40 03 9f 33 40 0d 9f 23 40 08 8f 33 00 0b  .$@..3@..#@..3..
00012fc0: 8f 23 00 05 8f 24 00 58 9f 33 40 13 8f 33 00 25  .#...$.X.3@..3.%
00012fd0: 9f 31 40 08 9f 24 40 00 9f 28 50 00 9f 33 40 08  .1@..$@..(P..3@.
00012fe0: 9f 28 50 08 9f 23 40 00 8f 31 00 03 8f 33 00 10  .(P..#@..1...3..
00012ff0: 8f 23 00 05 8f 24 00 00 8f 28 00 08 8f 28 00 4b  .#...$...(...(.K
00013000: 9f 33 40 15 8f 33 00 30 9f 24 40 00 9f 33 40 10  .3@..3.0.$@..3@.
00013010: 9f 23 40 03 8f 33 00 10 8f 23 00 05 8f 24 00 58  .#@..3...#...$.X
00013020: 9f 28 50 00 9f 33 40 08 9f 28 50 0b 8f 33 00 01  .(P..3@..(P..3..
00013030: 8f 28 00 07 8f 28 00 1d 9f 31 40 08 9f 24 40 00  .(...(...1@..$@.
00013040: 9f 33 40 03 9f 28 50 08 9f 28 50 05 9f 23 40 00  .3@..(P..(P..#@.
00013050: 8f 31 00 03 8f 33 00 05 8f 28 00 08 8f 28 00 03  .1...3...(...(..
00013060: 8f 23 00 05 8f 24 00 18 9f 33 40 13 8f 33 00 2d  .#...$...3@..3.-
00013070: 9f 28 50 00 9f 33 40 08 9f 28 50 0b 8f 33 00 05  .(P..3@..(P..3..
00013080: 8f 28 00 08 8f 28 00 20 9f 24 40 03 9f 28 50 00  .(...(. .$@..(P.
00013090: 9f 33 40 05 9f 28 50 08 9f 23 40 08 8f 33 00 03  .3@..(P..#@..3..
000130a0: 8f 28 00 08 8f 23 00 05 8f 28 00 00 8f 24 00 58  .(...#...(...$.X
000130b0: 9f 33 40 01 9f 28 50 07 9f 28 50 0b 8f 33 00 01  .3@..(P..(P..3..
000130c0: 8f 28 00 0c 8f 28 00 18 9f 31 40 08 9f 24 40 00  .(...(...1@..$@.
000130d0: 9f 28 50 00 9f 33 40 08 9f 28 50 08 9f 23 40 00  .(P..3@..(P..#@.
000130e0: 8f 31 00 03 8f 33 00 08 8f 28 00 08 8f 23 00 00  .1...3...(...#..
000130f0: 8f 28 00 05 8f 24 00 18 9f 28 50 00 9f 33 40 08  .(...$...(P..3@.
00013100: 9f 28 50 0b 8f 33 00 05 8f 28 00 0b 8f 28 00 18  .(P..3...(...(..
00013110: 9f 33 40 05 9f 28 50 0b 9f 28 50 05 8f 33 00 08  .3@..(P..(P..3..
00013120: 8f 28 00 10 8f 28 00 18 9f 24 40 00 9f 33 40 03  .(...(...$@..3@.
00013130: 9f 28 50 0d 9f 23 40 00 9f 28 50 03 8f 33 00 08  .(P..#@..(P..3..
00013140: 8f 28 00 08 8f 23 00 05 8f 28 00 00 8f 24 00 50  .(...#...(...$.P
00013150: 9f 31 40 08 9f 33 40 10 8f 31 00 03 8f 33 00 21  .1@..3@..1...3.!
00013160: 9f 31 40 0c 9f 24 40 00 9f 33 40 03 9f 28 50 08  .1@..$@..3@..(P.
00013170: 9f 28 50 05 9f 23 40 00 8f 31 00 03 8f 33 00 05  .(P..#@..1...3..
00013180: 8f 28 00 08 8f 28 00 03 8f 23 00 05 8f 24 00 58  .(...(...#...$.X
00013190: 9f 33 40 13 8f 33 00 2d 9f 24 40 03 9f 33 40 0d  .3@..3.-.$@..3@.
000131a0: 9f 23 40 08 8f 33 00 0b 8f 23 00 05 8f 24 00 50  .#@..3...#...$.P
000131b0: 9f 31 40 08 9f 33 40 10 8f 31 00 03 8f 33 00 25  .1@..3@..1...3.%
000131c0: 9f 31 40 08 9f 24 40 00 9f 28 50 00 9f 33 40 08  .1@..$@..(P..3@.
000131d0: 9f 28 50 08 9f 23 40 00 8f 31 00 03 8f 33 00 10  .(P..#@..1...3..
000131e0: 8f 23 00 05 8f 24 00 00 8f 28 00 08 8f 28 00 4b  .#...$...(...(.K
000131f0: 9f 33 40 15 8f 33 00 30 9f 24 40 00 9f 33 40 10  .3@..3.0.$@..3@.
00013200: 9f 23 40 03 8f 33 00 10 8f 23 00 05 8f 24 00 58  .#@..3...#...$.X
00013210: 9f 33 40 13 8f 33 00 28 9f 31 40 05 9f 24 40 00  .3@..3.(.1@..$@.
00013220: 9f 33 40 03 9f 28 50 08 9f 28 50 05 9f 23 40 00  .3@..(P..(P..#@.
00013230: 8f 31 00 03 8f 33 00 05 8f 28 00 08 8f 28 00 03  .1...3...(...(..
00013240: 8f 23 00 05 8f 24 00 58 9f 33 40 13 8f 33 00 2d  .#...$.X.3@..3.-
00013250: 9f 24 40 03 9f 33 40 0d 9f 23 40 08 8f 33 00 0b  .$@..3@..#@..3..
00013260: 8f 23 00 05 8f 24 00 58 9f 33 40 13 8f 33 00 25  .#...$.X.3@..3.%
00013270: 9f 31 40 08 9f 24 40 00 9f 28 50 00 9f 33 40 08  .1@..$@..(P..3@.
00013280: 9f 28 50 08 9f 23 40 00 8f 31 00 03 8f 33 00 10  .(P..#@..1...3..
00013290: 8f 23 00 05 8f 24 00 00 8f 28 00 08 8f 28 00 4b  .#...$...(...(.K
000132a0: 9f 33 40 15 8f 33 00 30 9f 24 40 00 9f 33 40 10  .3@..3.0.$@..3@.
000132b0: 9f 23 40 03 8f 33 00 10 8f 23 00 05 8f 24 00 58  .#@..3...#...$.X
000132c0: 9f 33 40 13 8f 33 00 25 9f 31 40 08 9f 24 40 00  .3@..3.%.1@..$@.
000132d0: 9f 33 40 03 9f 28 50 08 9f 28 50 05 9f 23 40 00  .3@..(P..(P..#@.
000132e0: 8f 31 00 03 8f 33 00 05 8f 28 00 08 8f 28 00 03  .1...3...(...(..
000132f0: 8f 23 00 05 8f 24 00 58 9f 33 40 13 8f 33 00 2d  .#...$.X.3@..3.-
00013300: 9f 24 40 03 9f 33 40 0d 9f 23 40 08 8f 33 00 0b  .$@..3@..#@..3..
00013310: 8f 23 00 05 8f 24 00 58 9f 33 40 13 8f 33 00 26  .#...$.X.3@..3.&
00013320: 9f 31 40 07 9f 24 40 00 9f 28 50 00 9f 33 40 08  .1@..$@..(P..3@.
00013330: 9f 28 50 08 9f 23 40 00 8f 31 00 03 8f 33 00 10  .(P..#@..1...3..
00013340: 8f 23 00 05 8f 24 00 00 8f 28 00 08 8f 28 00 4b  .#...$...(...(.K
00013350: 9f 33 40 15 8f 33 00 30 9f 24 40 00 9f 33 40 10  .3@..3.0.$@..3@.
00013360: 9f 23 40 03 8f 33 00 10 8f 23 00 05 8f 24 00 58  .#@..3...#...$.X
00013370: 9f 33 40 13 8f 33 00 25 9f 31 40 08 9f 24 40 00  .3@..3.%.1@..$@.
00013380: 9f 33 40 03 9f 28 50 08 9f 28 50 05 9f 23 40 00  .3@..(P..(P..#@.
00013390: 8f 31 00 03 8f 33 00 05 8f 28 00 08 8f 28 00 03  .1...3...(...(..
000133a0: 8f 23 00 05 8f 24 00 58 9f 28 50 00 9f 33 40 0b  .#...$.X.(P..3@.
000133b0: 9f 28 50 08 8f 33 00 08 8f 28 00 08 8f 28 00 1d  .(P..3...(...(..
000133c0: 9f 24 40 00 9f 28 50 03 9f 33 40 08 9f 28 50 05  .$@..(P..3@..(P.
000133d0: 9f 23 40 08 8f 33 00 00 8f 28 00 0b 8f 23 00 00  .#@..3...(...#..
000133e0: 8f 28 00 05 8f 24 00 58 9f 28 50 00 9f 33 40 0b  .(...$.X.(P..3@.
000133f0: 9f 28 50 08 8f 33 00 00 8f 28 00 10 8f 28 00 10  .(P..3...(...(..
00013400: 9f 31 40 0d 9f 24 40 00 9f 28 50 00 9f 33 40 08  .1@..$@..(P..3@.
00013410: 9f 28 50 08 9f 23 40 00 8f 31 00 03 8f 33 00 0d  .(P..#@..1...3..
00013420: 8f 28 00 03 8f 23 00 05 8f 28 00 00 8f 24 00 53  .(...#...(...$.S
00013430: 9f 33 40 15 8f 33 00 30 9f 24 40 00 9f 33 40 10  .3@..3.0.$@..3@.
00013440: 9f 23 40 03 8f 33 00 10 8f 23 00 05 8f 24 00 4b  .#@..3...#...$.K
00013450: 9f 31 40 0d 9f 33 40 10 8f 31 00 03 8f 33 00 25  .1@..3@..1...3.%
00013460: 9f 31 40 08 9f 24 40 00 9f 33 40 03 9f 28 50 08  .1@..$@..3@..(P.
00013470: 9f 28 50 05 9f 23 40 03 8f 33 00 00 8f 31 00 05  .(P..#@..3...1..
00013480: 8f 28 00 08 8f 28 00 03 8f 23 00 05 8f 24 00 58  .(...(...#...$.X
00013490: 9f 33 40 13 8f 33 00 2d 9f 24 40 03 9f 33 40 0d  .3@..3.-.$@..3@.
000134a0: 9f 23 40 08 8f 33 00 0b 8f 23 00 05 8f 24 00 58  .#@..3...#...$.X
000134b0: 9f 33 40 13 8f 33 00 25 9f 31 40 08 9f 24 40 00  .3@..3.%.1@..$@.
000134c0: 9f 28 50 00 9f 33 40 08 9f 28 50 08 9f 23 40 00  .(P..3@..(P..#@.
000134d0: 8f 31 00 03 8f 33 00 10 8f 23 00 05 8f 24 00 00  .1...3...#...$..
000134e0: 8f 28 00 08 8f 28 00 4b 9f 33 40 15 8f 33 00 30  .(...(.K.3@..3.0
000134f0: 9f 24 40 00 9f 33 40 10 9f 23 40 03 8f 33 00 10  .$@..3@..#@..3..
00013500: 8f 23 00 05 8f 24 00 58 9f 33 40 13 8f 33 00 28  .#...$.X.3@..3.(
00013510: 9f 31 40 05 9f 24 40 00 9f 33 40 03 9f 28 50 08  .1@..$@..3@..(P.
00013520: 9f 28 50 05 9f 23 40 03 8f 33 00 05 8f 28 00 00  .(P..#@..3...(..
00013530: 8f 31 00 08 8f 28 00 03 8f 23 00 05 8f 24 00 58  .1...(...#...$.X
00013540: 9f 33 40 13 8f 33 00 2d 9f 24 40 03 9f 33 40 0d  .3@..3.-.$@..3@.
00013550: 9f 23 40 08 8f 33 00 0b 8f 23 00 05 8f 24 00 58  .#@..3...#...$.X
00013560: 9f 28 50 00 9f 33 40 09 8f 28 00 07 9f 28 50 03  .(P..3@..(...(P.
00013570: 8f 33 00 08 8f 28 00 05 9f 28 50 09 8f 28 00 07  .3...(...(P..(..
00013580: 9f 28 50 08 9f 31 40 01 8f 28 00 07 9f 24 40 00  .(P..1@..(...$@.
00013590: 9f 28 50 00 9f 33 40 08 9f 28 50 03 8f 28 00 05  .(P..3@..(P..(..
000135a0: 9f 23 40 00 9f 28 50 00 8f 31 00 03 8f 33 00 08  .#@..(P..1...3..
000135b0: 8f 28 00 05 9f 28 50 03 8f 23 00 05 8f 24 00 03  .(...(P..#...$..
000135c0: 8f 28 00 05 9f 28 50 00 8f 28 00 09 8f 28 00 07  .(...(P..(...(..
000135d0: 9f 28 50 09 8f 28 00 07 9f 28 50 09 8f 28 00 07  .(P..(...(P..(..
000135e0: 9f 28 50 0b 8f 28 00 05 9f 28 50 09 8f 28 00 02  .(P..(...(P..(..
000135f0: 9f 33 40 05 9f 28 50 09 8f 28 00 07 9f 28 50 00  .3@..(P..(...(P.
00013600: 8f 33 00 09 8f 28 00 07 9f 28 50 08 8f 28 00 08  .3...(...(P..(..
00013610: 9f 28 50 08 8f 28 00 08 9f 24 40 00 9f 33 40 01  .(P..(...$@..3@.
00013620: 9f 23 40 00 9f 28 50 0a 9f 23 40 08 8f 33 00 01  .#@..(P..#@..3..
00013630: 8f 23 00 05 8f 28 00 0f 8f 24 00 09 8f 23 00 0a  .#...(...$...#..
00013640: 9f 3b 40 20 8f 3b 00 18 9f 23 40 0d 9f 28 50 03  .;@ .;...#@..(P.
00013650: 9f 26 40 0e 8f 23 00 0a 8f 28 00 05 8f 26 00 20  .&@..#...(...&. 
00013660: 9f 28 50 08 9f 26 40 11 9f 23 40 0a 8f 28 00 0d  .(P..&@..#@..(..
00013670: 8f 26 00 0c 8f 23 00 40 9f 24 40 04 9f 28 50 00  .&...#.@.$@..(P.
00013680: 9f 28 50 00 9f 2f 40 14 8f 24 00 04 8f 28 00 00  .(P../@..$...(..
00013690: 8f 28 00 00 8f 2f 00 23 9f 24 40 05 9f 28 50 08  .(.../.#.$@..(P.
000136a0: 9f 28 50 14 8f 24 00 0f 8f 28 00 08 8f 28 00 3d  .(P..$...(...(.=
000136b0: 9f 24 40 09 9f 23 40 07 9f 26 40 13 8f 24 00 08  .$@..#@..&@..$..
000136c0: 8f 26 00 00 8f 23 00 1e 9f 24 40 02 9f 2f 40 05  .&...#...$@../@.
000136d0: 9f 28 50 08 9f 23 40 00 9f 26 40 10 8f 2f 00 01  .(P..#@..&@../..
000136e0: 8f 24 00 13 8f 23 00 04 8f 28 00 03 8f 26 00 48  .$...#...(...&.H
000136f0: 9f 2f 40 05 9f 28 50 03 9f 28 50 01 9f 24 40 0c  ./@..(P..(P..$@.
00013700: 8f 2f 00 0b 8f 28 00 00 8f 28 00 08 8f 24 00 1d  ./...(...(...$..
00013710: 9f 37 40 03 9f 28 50 00 9f 2f 40 01 9f 28 50 04  .7@..(P../@..(P.
00013720: 9f 24 40 13 8f 2f 00 05 8f 37 00 03 8f 28 00 00  .$@../...7...(..
00013730: 8f 28 00 05 8f 24 00 19 9f 28 50 02 9f 28 50 1d  .(...$...(P..(P.
00013740: 8f 28 00 01 8f 28 00 1f 9f 23 40 00 9f 28 50 03  .(...(...#@..(P.
00013750: 9f 26 40 01 9f 24 40 17 8f 28 00 05 8f 23 00 00  .&@..$@..(...#..
00013760: 8f 26 00 01 8f 24 00 1b 9f 24 40 04 9f 2a 40 00  .&...$...$@..*@.
00013770: 9f 3b 40 01 9f 23 40 02 9f 28 50 05 9f 26 40 18  .;@..#@..(P..&@.
00013780: 8f 28 00 00 8f 3b 00 00 8f 2a 00 01 8f 24 00 00  .(...;...*...$..
00013790: 8f 23 00 07 8f 26 00 4c 9f 24 40 08 9f 23 40 04  .#...&.L.$@..#@.
000137a0: 9f 28 50 00 9f 25 40 00 9f 2f 40 03 9f 28 50 0e  .(P..%@../@..(P.
000137b0: 8f 24 00 07 8f 2f 00 03 8f 23 00 06 8f 25 00 02  .$.../...#...%..
000137c0: 8f 28 00 05 8f 28 00 18 9f 26 40 03 9f 24 40 08  .(...(...&@..$@.
000137d0: 8f 26 00 05 9f 28 50 0b 8f 28 00 05 9f 26 40 01  .&...(P..(...&@.
000137e0: 8f 24 00 0a 8f 26 00 05 9f 28 50 0b 8f 28 00 05  .$...&...(P..(..
000137f0: 9f 26 40 0b 8f 26 00 05 9f 28 50 0b 8f 28 00 05  .&@..&...(P..(..
00013800: 9f 26 40 0b 8f 26 00 05 9f 28 50 0b 8f 28 00 05  .&@..&...(P..(..
00013810: 9f 26 40 0b 8f 26 00 05 9f 28 50 00 9f 2a 40 0b  .&@..&...(P..*@.
00013820: 8f 28 00 05 9f 26 40 03 8f 2a 00 08 8f 26 00 05  .(...&@..*...&..
00013830: 9f 28 50 0b 8f 28 00 05 9f 26 40 0b 8f 26 00 05  .(P..(...&@..&..
00013840: 9f 28 50 0b 8f 28 00 05 9f 26 40 0b 8f 26 00 05  .(P..(...&@..&..
00013850: 9f 28 50 0b 8f 28 00 05 9f 26 40 00 9f 2a 40 0b  .(P..(...&@..*@.
00013860: 8f 26 00 05 9f 28 50 08 8f 2a 00 03 8f 28 00 05  .&...(P..*...(..
00013870: 9f 26 40 0b 8f 26 00 05 9f 28 50 0b 8f 28 00 05  .&@..&...(P..(..
00013880: 9f 26 40 00 9f 2a 40 08 9f 23 40 03 8f 26 00 05  .&@..*@..#@..&..
00013890: 9f 28 50 0b 8f 28 00 00 8f 2a 00 05 9f 28 50 08  .(P..(...*...(P.
000138a0: 8f 23 00 03 8f 28 00 05 9f 28 50 0b 8f 28 00 05  .#...(...(P..(..
000138b0: 9f 3b 40 01 9f 24 40 02 9f 2a 40 05 9f 23 40 13  .;@..$@..*@..#@.
000138c0: 8f 2a 00 05 8f 3b 00 09 8f 23 00 03 8f 24 00 14  .*...;...#...$..
000138d0: 9f 28 50 00 9f 2a 40 13 8f 28 00 08 8f 2a 00 08  .(P..*@..(...*..
000138e0: 9f 24 40 1d 9f 2a 40 03 8f 24 00 0d 9f 28 50 0b  .$@..*@..$...(P.
000138f0: 8f 2a 00 08 8f 28 00 1d 9f 2a 40 08 9f 24 40 10  .*...(...*@..$@.
00013900: 8f 2a 00 14 8f 24 00 04 9f 28 50 10 9f 2a 40 03  .*...$...(P..*@.
00013910: 8f 28 00 18 8f 2a 00 2d 9f 24 40 23 8f 24 00 00  .(...*.-.$@#.$..
00013920: ff 7f 1c 24 24 00 08 00 00 00 00 00 00 14 ff 00  ...$$...........
00013930: 00 00 00 00 00 21 00 00 01 39 6b 00 00 0c 00 00  .....!...9k.....
00013940: ff 7f 05 24 24 00 01 00 00 ff 7f 06 24 24 00 06  ...$$.......$$..
00013950: 04 04 00 ff 7f 05 24 24 00 02 0f 01 ff 2f 00 4d  ......$$...../.M
00013960: 54 72 6b 00 00 00 43 00 ff 00 02 00 08 00 ff 03  Trk...C.........
00013970: 0e 43 68 72 69 73 20 41 68 6c 73 74 72 6f 6d 00  .Chris Ahlstrom.
00013980: c0 3e 00 ff 7f 04 24 24 00 08 00 ff 7f 05 24 24  .>....$$......$$
00013990: 00 01 00 00 ff 7f 06 24 24 00 06 04 04 00 ff 7f  .......$$.......
000139a0: 05 24 24 00 02 00 30 ff 2f 00 4d 54 72 6b 00 00  .$$...0./.MTrk..
000139b0: 00 44 00 ff 00 02 00 09 00 ff 03 0f 28 47 45 6e  .D..........(GEn
000139c0: 69 65 3a 20 4b 49 43 4b 41 48 41 00 c0 3e 00 ff  ie: KICKAHA..>..
000139d0: 7f 04 24 24 00 08 00 ff 7f 05 24 24 00 01 00 00  ..$$......$$....
000139e0: ff 7f 06 24 24 00 06 04 04 00 ff 7f 05 24 24 00  ...$$........$$.
000139f0: 02 00 30 ff 2f 00 4d 54 72 6b 00 00 00 3d 00 ff  ..0./.MTrk...=..
00013a00: 00 02 00 0a 00 ff 03 0b 22 42 65 66 6f 72 65 20  ........"Before 
00013a10: 59 6f 75 00 ff 7f 04 24 24 00 08 00 ff 7f 05 24  You....$$......$
00013a20: 24 00 01 00 00 ff 7f 06 24 24 00 06 04 04 00 ff  $.......$$......
00013a30: 7f 05 24 24 00 02 00 30 ff 2f 00 4d 54 72 6b 00  ..$$...0./.MTrk.
00013a40: 00 00 3f 00 ff 00 02 00 0b 00 ff 03 0d 41 63 63  ..?..........Acc
00013a50: 75 73 65 20 4d 65 22 20 62 79 00 ff 7f 04 24 24  use Me" by....$$
00013a60: 00 08 00 ff 7f 05 24 24 00 01 00 00 ff 7f 06 24  ......$$.......$
00013a70: 24 00 06 04 04 00 ff 7f 05 24 24 00 02 00 30 ff  $........$$...0.
00013a80: 2f 00 4d 54 72 6b 00 00 00 40 00 ff 00 02 00 0c  /.MTrk...@......
00013a90: 00 ff 03 0e 45 72 69 63 20 43 6c 61 70 74 6f 6e  ....Eric Clapton
00013aa0: 20 26 00 ff 7f 04 24 24 00 08 00 ff 7f 05 24 24   &....$$......$$
00013ab0: 00 01 00 00 ff 7f 06 24 24 00 06 04 04 00 ff 7f  .......$$.......
00013ac0: 05 24 24 00 02 00 30 ff 2f 00 4d 54 72 6b 00 00  .$$...0./.MTrk..
00013ad0: 00 3d 00 ff 00 02 00 0d 00 ff 03 0b 52 6f 62 65  .=..........Robe
00013ae0: 72 74 20 43 72 61 79 00 ff 7f 04 24 24 00 08 00  rt Cray....$$...
00013af0: ff 7f 05 24 24 00 01 00 00 ff 7f 06 24 24 00 06  ...$$.......$$..
00013b00: 04 04 00 ff 7f 05 24 24 00 02 00 30 ff 2f 00 4d  ......$$...0./.M
00013b10: 54 72 6b 00 00 11 0d 00 ff 00 02 77 77 00 ff 03  Trk........ww...
00013b20: 0d 53 65 71 75 65 6e 63 65 72 32 34 2d 53 00 ff  .Sequencer24-S..
00013b30: 7f 04 24 24 00 10 00 ff 7f 04 24 24 00 03 00 ff  ..$$......$$....
00013b40: 7f 46 24 24 00 05 00 20 00 00 00 00 00 00 00 00  .F$$... ........
00013b50: 00 00 00 00 00 00 00 00 00 00 00 00 00 00 00 00  ................
00013b60: 00 00 00 00 00 00 00 00 00 00 00 00 00 00 00 00  ................
00013b70: 00 00 00 00 00 00 00 00 00 00 00 00 00 00 00 00  ................
00013b80: 00 00 00 00 00 00 00 00 00 ff 7f 08 24 24 00 07  ............$$..
00013b90: 00 00 00 78 00 ff 7f a1 08 24 24 00 09 00 00 04  ...x.....$$.....
00013ba0: 00 00 00 00 00 00 00 00 00 00 00 00 00 00 00 00  ................
00013bb0: 00 00 00 00 00 00 00 00 00 00 00 00 00 00 00 00  ................
00013bc0: 00 00 00 00 00 00 00 00 00 00 00 00 00 00 00 00  ................
00013bd0: 00 00 00 00 00 00 00 00 00 00 00 00 00 00 00 00  ................
00013be0: 00 00 00 00 00 00 00 00 00 00 00 00 00 00 00 00  ................
00013bf0: 00 00 00 00 00 00 00 00 00 00 00 00 00 00 00 00  ................
00013c00: 00 00 00 00 00 00 00 00 00 00 00 00 00 00 00 00  ................
00013c10: 00 00 00 00 00 00 00 00 00 00 00 00 00 00 00 00  ................
00013c20: 00 00 00 00 00 00 00 00 01 00 00 00 00 00 00 00  ................
00013c30: 00 00 00 00 00 00 00 00 00 00 00 00 00 00 00 00  ................
00013c40: 00 00 00 00 00 00 00 00 00 00 00 00 00 00 00 00  ................
00013c50: 00 00 00 00 00 00 00 00 00 00 00 00 00 00 00 00  ................
00013c60: 00 00 00 00 00 00 00 00 00 00 00 00 00 00 00 00  ................
00013c70: 00 00 00 00 00 00 00 00 00 00 00 00 00 00 00 00  ................
00013c80: 00 00 00 00 00 00 00 00 00 00 00 00 00 00 00 00  ................
00013c90: 00 00 00 00 00 00 00 00 00 00 00 00 00 00 00 00  ................
00013ca0: 00 00 00 00 00 00 00 00 00 00 00 00 02 00 00 00  ................
00013cb0: 00 00 00 00 00 00 00 00 00 00 00 00 00 00 00 00  ................
00013cc0: 00 00 00 00 00 00 00 00 00 00 00 00 00 00 00 00  ................
00013cd0: 00 00 00 00 00 00 00 00 00 00 00 00 00 00 00 00  ................
00013ce0: 00 00 00 00 00 00 00 00 00 00 00 00 00 00 00 00  ................
00013cf0: 00 00 00 00 00 00 00 00 00 00 00 00 00 00 00 00  ................
00013d00: 00 00 00 00 00 00 00 00 00 00 00 00 00 00 00 00  ................
00013d10: 00 00 00 00 00 00 00 00 00 00 00 00 00 00 00 00  ................
00013d20: 00 00 00 00 00 00 00 00 00 00 00 00 00 00 00 00  ................
00013d30: 03 00 00 00 00 00 00 00 00 00 00 00 00 00 00 00  ................
00013d40: 00 00 00 00 00 00 00 00 00 00 00 00 00 00 00 00  ................
00013d50: 00 00 00 00 00 00 00 00 00 00 00 00 00 00 00 00  ................
00013d60: 00 00 00 00 00 00 00 00 00 00 00 00 00 00 00 00  ................
00013d70: 00 00 00 00 00 00 00 00 00 00 00 00 00 00 00 00  ................
00013d80: 00 00 00 00 00 00 00 00 00 00 00 00 00 00 00 00  ................
00013d90: 00 00 00 00 00 00 00 00 00 00 00 00 00 00 00 00  ................
00013da0: 00 00 00 00 00 00 00 00 00 00 00 00 00 00 00 00  ................
00013db0: 00 00 00 00 04 00 00 00 00 00 00 00 00 00 00 00  ................
00013dc0: 00 00 00 00 00 00 00 00 00 00 00 00 00 00 00 00  ................
00013dd0: 00 00 00 00 00 00 00 00 00 00 00 00 00 00 00 00  ................
00013de0: 00 00 00 00 00 00 00 00 00 00 00 00 00 00 00 00  ................
00013df0: 00 00 00 00 00 00 00 00 00 00 00 00 00 00 00 00  ................
00013e00: 00 00 00 00 00 00 00 00 00 00 00 00 00 00 00 00  ................
00013e10: 00 00 00 00 00 00 00 00 00 00 00 00 00 00 00 00  ................
00013e20: 00 00 00 00 00 00 00 00 00 00 00 00 00 00 00 00  ................
00013e30: 00 00 00 00 00 00 00 00 05 00 00 00 00 00 00 00  ................
00013e40: 00 00 00 00 00 00 00 00 00 00 00 00 00 00 00 00  ................
00013e50: 00 00 00 00 00 00 00 00 00 00 00 00 00 00 00 00  ................
00013e60: 00 00 00 00 00 00 00 00 00 00 00 00 00 00 00 00  ................
00013e70: 00 00 00 00 00 00 00 00 00 00 00 00 00 00 00 00  ................
00013e80: 00 00 00 00 00 00 00 00 00 00 00 00 00 00 00 00  ................
00013e90: 00 00 00 00 00 00 00 00 00 00 00 00 00 00 00 00  ................
00013ea0: 00 00 00 00 00 00 00 00 00 00 00 00 00 00 00 00  ................
00013eb0: 00 00 00 00 00 00 00 00 00 00 00 00 06 00 00 00  ................
00013ec0: 00 00 00 00 00 00 00 00 00 00 00 00 00 00 00 00  ................
00013ed0: 00 00 00 00 00 00 00 00 00 00 00 00 00 00 00 00  ................
00013ee0: 00 00 00 00 00 00 00 00 00 00 00 00 00 00 00 00  ................
00013ef0: 00 00 00 00 00 00 00 00 00 00 00 00 00 00 00 00  ................
00013f00: 00 00 00 00 00 00 00 00 00 00 00 00 00 00 00 00  ................
00013f10: 00 00 00 00 00 00 00 00 00 00 00 00 00 00 00 00  ................
00013f20: 00 00 00 00 00 00 00 00 00 00 00 00 00 00 00 00  ................
00013f30: 00 00 00 00 00 00 00 00 00 00 00 00 00 00 00 00  ................
00013f40: 07 00 00 00 00 00 00 00 00 00 00 00 00 00 00 00  ................
00013f50: 00 00 00 00 00 00 00 00 00 00 00 00 00 00 00 00  ................
00013f60: 00 00 00 00 00 00 00 00 00 00 00 00 00 00 00 00  ................
00013f70: 00 00 00 00 00 00 00 00 00 00 00 00 00 00 00 00  ................
00013f80: 00 00 00 00 00 00 00 00 00 00 00 00 00 00 00 00  ................
00013f90: 00 00 00 00 00 00 00 00 00 00 00 00 00 00 00 00  ................
00013fa0: 00 00 00 00 00 00 00 00 00 00 00 00 00 00 00 00  ................
00013fb0: 00 00 00 00 00 00 00 00 00 00 00 00 00 00 00 00  ................
00013fc0: 00 00 00 00 08 00 00 00 00 00 00 00 00 00 00 00  ................
00013fd0: 00 00 00 00 00 00 00 00 00 00 00 00 00 00 00 00  ................
00013fe0: 00 00 00 00 00 00 00 00 00 00 00 00 00 00 00 00  ................
00013ff0: 00 00 00 00 00 00 00 00 00 00 00 00 00 00 00 00  ................
00014000: 00 00 00 00 00 00 00 00 00 00 00 00 00 00 00 00  ................
00014010: 00 00 00 00 00 00 00 00 00 00 00 00 00 00 00 00  ................
00014020: 00 00 00 00 00 00 00 00 00 00 00 00 00 00 00 00  ................
00014030: 00 00 00 00 00 00 00 00 00 00 00 00 00 00 00 00  ................
00014040: 00 00 00 00 00 00 00 00 09 00 00 00 00 00 00 00  ................
00014050: 00 00 00 00 00 00 00 00 00 00 00 00 00 00 00 00  ................
00014060: 00 00 00 00 00 00 00 00 00 00 00 00 00 00 00 00  ................
00014070: 00 00 00 00 00 00 00 00 00 00 00 00 00 00 00 00  ................
00014080: 00 00 00 00 00 00 00 00 00 00 00 00 00 00 00 00  ................
00014090: 00 00 00 00 00 00 00 00 00 00 00 00 00 00 00 00  ................
000140a0: 00 00 00 00 00 00 00 00 00 00 00 00 00 00 00 00  ................
000140b0: 00 00 00 00 00 00 00 00 00 00 00 00 00 00 00 00  ................
000140c0: 00 00 00 00 00 00 00 00 00 00 00 00 0a 00 00 00  ................
000140d0: 00 00 00 00 00 00 00 00 00 00 00 00 00 00 00 00  ................
000140e0: 00 00 00 00 00 00 00 00 00 00 00 00 00 00 00 00  ................
000140f0: 00 00 00 00 00 00 00 00 00 00 00 00 00 00 00 00  ................
00014100: 00 00 00 00 00 00 00 00 00 00 00 00 00 00 00 00  ................
00014110: 00 00 00 00 00 00 00 00 00 00 00 00 00 00 00 00  ................
00014120: 00 00 00 00 00 00 00 00 00 00 00 00 00 00 00 00  ................
00014130: 00 00 00 00 00 00 00 00 00 00 00 00 00 00 00 00  ................
00014140: 00 00 00 00 00 00 00 00 00 00 00 00 00 00 00 00  ................
00014150: 0b 00 00 00 00 00 00 00 00 00 00 00 00 00 00 00  ................
00014160: 00 00 00 00 00 00 00 00 00 00 00 00 00 00 00 00  ................
00014170: 00 00 00 00 00 00 00 00 00 00 00 00 00 00 00 00  ................
00014180: 00 00 00 00 00 00 00 00 00 00 00 00 00 00 00 00  ................
00014190: 00 00 00 00 00 00 00 00 00 00 00 00 00 00 00 00  ................
000141a0: 00 00 00 00 00 00 00 00 00 00 00 00 00 00 00 00  ................
000141b0: 00 00 00 00 00 00 00 00 00 00 00 00 00 00 00 00  ................
000141c0: 00 00 00 00 00 00 00 00 00 00 00 00 00 00 00 00  ................
000141d0: 00 00 00 00 0c 00 00 00 00 00 00 00 00 00 00 00  ................
000141e0: 00 00 00 00 00 00 00 00 00 00 00 00 00 00 00 00  ................
000141f0: 00 00 00 00 00 00 00 00 00 00 00 00 00 00 00 00  ................
00014200: 00 00 00 00 00 00 00 00 00 00 00 00 00 00 00 00  ................
00014210: 00 00 00 00 00 00 00 00 00 00 00 00 00 00 00 00  ................
00014220: 00 00 00 00 00 00 00 00 00 00 00 00 00 00 00 00  ................
00014230: 00 00 00 00 00 00 00 00 00 00 00 00 00 00 00 00  ................
00014240: 00 00 00 00 00 00 00 00 00 00 00 00 00 00 00 00  ................
00014250: 00 00 00 00 00 00 00 00 0d 00 00 00 00 00 00 00  ................
00014260: 00 00 00 00 00 00 00 00 00 00 00 00 00 00 00 00  ................
00014270: 00 00 00 00 00 00 00 00 00 00 00 00 00 00 00 00  ................
00014280: 00 00 00 00 00 00 00 00 00 00 00 00 00 00 00 00  ................
00014290: 00 00 00 00 00 00 00 00 00 00 00 00 00 00 00 00  ................
000142a0: 00 00 00 00 00 00 00 00 00 00 00 00 00 00 00 00  ................
000142b0: 00 00 00 00 00 00 00 00 00 00 00 00 00 00 00 00  ................
000142c0: 00 00 00 00 00 00 00 00 00 00 00 00 00 00 00 00  ................
000142d0: 00 00 00 00 00 00 00 00 00 00 00 00 0e 00 00 00  ................
000142e0: 00 00 00 00 00 00 00 00 00 00 00 00 00 00 00 00  ................
000142f0: 00 00 00 00 00 00 00 00 00 00 00 00 00 00 00 00  ................
00014300: 00 00 00 00 00 00 00 00 00 00 00 00 00 00 00 00  ................
00014310: 00 00 00 00 00 00 00 00 00 00 00 00 00 00 00 00  ................
00014320: 00 00 00 00 00 00 00 00 00 00 00 00 00 00 00 00  ................
00014330: 00 00 00 00 00 00 00 00 00 00 00 00 00 00 00 00  ................
00014340: 00 00 00 00 00 00 00 00 00 00 00 00 00 00 00 00  ................
00014350: 00 00 00 00 00 00 00 00 00 00 00 00 00 00 00 00  ................
00014360: 0f 00 00 00 00 00 00 00 00 00 00 00 00 00 00 00  ................
00014370: 00 00 00 00 00 00 00 00 00 00 00 00 00 00 00 00  ................
00014380: 00 00 00 00 00 00 00 00 00 00 00 00 00 00 00 00  ................
00014390: 00 00 00 00 00 00 00 00 00 00 00 00 00 00 00 00  ................
000143a0: 00 00 00 00 00 00 00 00 00 00 00 00 00 00 00 00  ................
000143b0: 00 00 00 00 00 00 00 00 00 00 00 00 00 00 00 00  ................
000143c0: 00 00 00 00 00 00 00 00 00 00 00 00 00 00 00 00  ................
000143d0: 00 00 00 00 00 00 00 00 00 00 00 00 00 00 00 00  ................
000143e0: 00 00 00 00 10 00 00 00 00 00 00 00 00 00 00 00  ................
000143f0: 00 00 00 00 00 00 00 00 00 00 00 00 00 00 00 00  ................
00014400: 00 00 00 00 00 00 00 00 00 00 00 00 00 00 00 00  ................
00014410: 00 00 00 00 00 00 00 00 00 00 00 00 00 00 00 00  ................
00014420: 00 00 00 00 00 00 00 00 00 00 00 00 00 00 00 00  ................
00014430: 00 00 00 00 00 00 00 00 00 00 00 00 00 00 00 00  ................
00014440: 00 00 00 00 00 00 00 00 00 00 00 00 00 00 00 00  ................
00014450: 00 00 00 00 00 00 00 00 00 00 00 00 00 00 00 00  ................
00014460: 00 00 00 00 00 00 00 00 11 00 00 00 00 00 00 00  ................
00014470: 00 00 00 00 00 00 00 00 00 00 00 00 00 00 00 00  ................
00014480: 00 00 00 00 00 00 00 00 00 00 00 00 00 00 00 00  ................
00014490: 00 00 00 00 00 00 00 00 00 00 00 00 00 00 00 00  ................
000144a0: 00 00 00 00 00 00 00 00 00 00 00 00 00 00 00 00  ................
000144b0: 00 00 00 00 00 00 00 00 00 00 00 00 00 00 00 00  ................
000144c0: 00 00 00 00 00 00 00 00 00 00 00 00 00 00 00 00  ................
000144d0: 00 00 00 00 00 00 00 00 00 00 00 00 00 00 00 00  ................
000144e0: 00 00 00 00 00 00 00 00 00 00 00 00 12 00 00 00  ................
000144f0: 00 00 00 00 00 00 00 00 00 00 00 00 00 00 00 00  ................
00014500: 00 00 00 00 00 00 00 00 00 00 00 00 00 00 00 00  ................
00014510: 00 00 00 00 00 00 00 00 00 00 00 00 00 00 00 00  ................
00014520: 00 00 00 00 00 00 00 00 00 00 00 00 00 00 00 00  ................
00014530: 00 00 00 00 00 00 00 00 00 00 00 00 00 00 00 00  ................
00014540: 00 00 00 00 00 00 00 00 00 00 00 00 00 00 00 00  ................
00014550: 00 00 00 00 00 00 00 00 00 00 00 00 00 00 00 00  ................
00014560: 00 00 00 00 00 00 00 00 00 00 00 00 00 00 00 00  ................
00014570: 13 00 00 00 00 00 00 00 00 00 00 00 00 00 00 00  ................
00014580: 00 00 00 00 00 00 00 00 00 00 00 00 00 00 00 00  ................
00014590: 00 00 00 00 00 00 00 00 00 00 00 00 00 00 00 00  ................
000145a0: 00 00 00 00 00 00 00 00 00 00 00 00 00 00 00 00  ................
000145b0: 00 00 00 00 00 00 00 00 00 00 00 00 00 00 00 00  ................
000145c0: 00 00 00 00 00 00 00 00 00 00 00 00 00 00 00 00  ................
000145d0: 00 00 00 00 00 00 00 00 00 00 00 00 00 00 00 00  ................
000145e0: 00 00 00 00 00 00 00 00 00 00 00 00 00 00 00 00  ................
000145f0: 00 00 00 00 14 00 00 00 00 00 00 00 00 00 00 00  ................
00014600: 00 00 00 00 00 00 00 00 00 00 00 00 00 00 00 00  ................
00014610: 00 00 00 00 00 00 00 00 00 00 00 00 00 00 00 00  ................
00014620: 00 00 00 00 00 00 00 00 00 00 00 00 00 00 00 00  ................
00014630: 00 00 00 00 00 00 00 00 00 00 00 00 00 00 00 00  ................
00014640: 00 00 00 00 00 00 00 00 00 00 00 00 00 00 00 00  ................
00014650: 00 00 00 00 00 00 00 00 00 00 00 00 00 00 00 00  ................
00014660: 00 00 00 00 00 00 00 00 00 00 00 00 00 00 00 00  ................
00014670: 00 00 00 00 00 00 00 00 15 00 00 00 00 00 00 00  ................
00014680: 00 00 00 00 00 00 00 00 00 00 00 00 00 00 00 00  ................
00014690: 00 00 00 00 00 00 00 00 00 00 00 00 00 00 00 00  ................
000146a0: 00 00 00 00 00 00 00 00 00 00 00 00 00 00 00 00  ................
000146b0: 00 00 00 00 00 00 00 00 00 00 00 00 00 00 00 00  ................
000146c0: 00 00 00 00 00 00 00 00 00 00 00 00 00 00 00 00  ................
000146d0: 00 00 00 00 00 00 00 00 00 00 00 00 00 00 00 00  ................
000146e0: 00 00 00 00 00 00 00 00 00 00 00 00 00 00 00 00  ................
000146f0: 00 00 00 00 00 00 00 00 00 00 00 00 16 00 00 00  ................
00014700: 00 00 00 00 00 00 00 00 00 00 00 00 00 00 00 00  ................
00014710: 00 00 00 00 00 00 00 00 00 00 00 00 00 00 00 00  ................
00014720: 00 00 00 00 00 00 00 00 00 00 00 00 00 00 00 00  ................
00014730: 00 00 00 00 00 00 00 00 00 00 00 00 00 00 00 00  ................
00014740: 00 00 00 00 00 00 00 00 00 00 00 00 00 00 00 00  ................
00014750: 00 00 00 00 00 00 00 00 00 00 00 00 00 00 00 00  ................
00014760: 00 00 00 00 00 00 00 00 00 00 00 00 00 00 00 00  ................
00014770: 00 00 00 00 00 00 00 00 00 00 00 00 00 00 00 00  ................
00014780: 17 00 00 00 00 00 00 00 00 00 00 00 00 00 00 00  ................
00014790: 00 00 00 00 00 00 00 00 00 00 00 00 00 00 00 00  ................
000147a0: 00 00 00 00 00 00 00 00 00 00 00 00 00 00 00 00  ................
000147b0: 00 00 00 00 00 00 00 00 00 00 00 00 00 00 00 00  ................
000147c0: 00 00 00 00 00 00 00 00 00 00 00 00 00 00 00 00  ................
000147d0: 00 00 00 00 00 00 00 00 00 00 00 00 00 00 00 00  ................
000147e0: 00 00 00 00 00 00 00 00 00 00 00 00 00 00 00 00  ................
000147f0: 00 00 00 00 00 00 00 00 00 00 00 00 00 00 00 00  ................
00014800: 00 00 00 00 18 00 00 00 00 00 00 00 00 00 00 00  ................
00014810: 00 00 00 00 00 00 00 00 00 00 00 00 00 00 00 00  ................
00014820: 00 00 00 00 00 00 00 00 00 00 00 00 00 00 00 00  ................
00014830: 00 00 00 00 00 00 00 00 00 00 00 00 00 00 00 00  ................
00014840: 00 00 00 00 00 00 00 00 00 00 00 00 00 00 00 00  ................
00014850: 00 00 00 00 00 00 00 00 00 00 00 00 00 00 00 00  ................
00014860: 00 00 00 00 00 00 00 00 00 00 00 00 00 00 00 00  ................
00014870: 00 00 00 00 00 00 00 00 00 00 00 00 00 00 00 00  ................
00014880: 00 00 00 00 00 00 00 00 19 00 00 00 00 00 00 00  ................
00014890: 00 00 00 00 00 00 00 00 00 00 00 00 00 00 00 00  ................
000148a0: 00 00 00 00 00 00 00 00 00 00 00 00 00 00 00 00  ................
000148b0: 00 00 00 00 00 00 00 00 00 00 00 00 00 00 00 00  ................
000148c0: 00 00 00 00 00 00 00 00 00 00 00 00 00 00 00 00  ................
000148d0: 00 00 00 00 00 00 00 00 00 00 00 00 00 00 00 00  ................
000148e0: 00 00 00 00 00 00 00 00 00 00 00 00 00 00 00 00  ................
000148f0: 00 00 00 00 00 00 00 00 00 00 00 00 00 00 00 00  ................
00014900: 00 00 00 00 00 00 00 00 00 00 00 00 1a 00 00 00  ................
00014910: 00 00 00 00 00 00 00 00 00 00 00 00 00 00 00 00  ................
00014920: 00 00 00 00 00 00 00 00 00 00 00 00 00 00 00 00  ................
00014930: 00 00 00 00 00 00 00 00 00 00 00 00 00 00 00 00  ................
00014940: 00 00 00 00 00 00 00 00 00 00 00 00 00 00 00 00  ................
00014950: 00 00 00 00 00 00 00 00 00 00 00 00 00 00 00 00  ................
00014960: 00 00 00 00 00 00 00 00 00 00 00 00 00 00 00 00  ................
00014970: 00 00 00 00 00 00 00 00 00 00 00 00 00 00 00 00  ................
00014980: 00 00 00 00 00 00 00 00 00 00 00 00 00 00 00 00  ................
00014990: 1b 00 00 00 00 00 00 00 00 00 00 00 00 00 00 00  ................
000149a0: 00 00 00 00 00 00 00 00 00 00 00 00 00 00 00 00  ................
000149b0: 00 00 00 00 00 00 00 00 00 00 00 00 00 00 00 00  ................
000149c0: 00 00 00 00 00 00 00 00 00 00 00 00 00 00 00 00  ................
000149d0: 00 00 00 00 00 00 00 00 00 00 00 00 00 00 00 00  ................
000149e0: 00 00 00 00 00 00 00 00 00 00 00 00 00 00 00 00  ................
000149f0: 00 00 00 00 00 00 00 00 00 00 00 00 00 00 00 00  ................
00014a00: 00 00 00 00 00 00 00 00 00 00 00 00 00 00 00 00  ................
00014a10: 00 00 00 00 1c 00 00 00 00 00 00 00 00 00 00 00  ................
00014a20: 00 00 00 00 00 00 00 00 00 00 00 00 00 00 00 00  ................
00014a30: 00 00 00 00 00 00 00 00 00 00 00 00 00 00 00 00  ................
00014a40: 00 00 00 00 00 00 00 00 00 00 00 00 00 00 00 00  ................
00014a50: 00 00 00 00 00 00 00 00 00 00 00 00 00 00 00 00  ................
00014a60: 00 00 00 00 00 00 00 00 00 00 00 00 00 00 00 00  ................
00014a70: 00 00 00 00 00 00 00 00 00 00 00 00 00 00 00 00  ................
00014a80: 00 00 00 00 00 00 00 00 00 00 00 00 00 00 00 00  ................
00014a90: 00 00 00 00 00 00 00 00 1d 00 00 00 00 00 00 00  ................
00014aa0: 00 00 00 00 00 00 00 00 00 00 00 00 00 00 00 00  ................
00014ab0: 00 00 00 00 00 00 00 00 00 00 00 00 00 00 00 00  ................
00014ac0: 00 00 00 00 00 00 00 00 00 00 00 00 00 00 00 00  ................
00014ad0: 00 00 00 00 00 00 00 00 00 00 00 00 00 00 00 00  ................
00014ae0: 00 00 00 00 00 00 00 00 00 00 00 00 00 00 00 00  ................
00014af0: 00 00 00 00 00 00 00 00 00 00 00 00 00 00 00 00  ................
00014b00: 00 00 00 00 00 00 00 00 00 00 00 00 00 00 00 00  ................
00014b10: 00 00 00 00 00 00 00 00 00 00 00 00 1e 00 00 00  ................
00014b20: 00 00 00 00 00 00 00 00 00 00 00 00 00 00 00 00  ................
00014b30: 00 00 00 00 00 00 00 00 00 00 00 00 00 00 00 00  ................
00014b40: 00 00 00 00 00 00 00 00 00 00 00 00 00 00 00 00  ................
00014b50: 00 00 00 00 00 00 00 00 00 00 00 00 00 00 00 00  ................
00014b60: 00 00 00 00 00 00 00 00 00 00 00 00 00 00 00 00  ................
00014b70: 00 00 00 00 00 00 00 00 00 00 00 00 00 00 00 00  ................
00014b80: 00 00 00 00 00 00 00 00 00 00 00 00 00 00 00 00  ................
00014b90: 00 00 00 00 00 00 00 00 00 00 00 00 00 00 00 00  ................
00014ba0: 1f 00 00 00 00 00 00 00 00 00 00 00 00 00 00 00  ................
00014bb0: 00 00 00 00 00 00 00 00 00 00 00 00 00 00 00 00  ................
00014bc0: 00 00 00 00 00 00 00 00 00 00 00 00 00 00 00 00  ................
00014bd0: 00 00 00 00 00 00 00 00 00 00 00 00 00 00 00 00  ................
00014be0: 00 00 00 00 00 00 00 00 00 00 00 00 00 00 00 00  ................
00014bf0: 00 00 00 00 00 00 00 00 00 00 00 00 00 00 00 00  ................
00014c00: 00 00 00 00 00 00 00 00 00 00 00 00 00 00 00 00  ................
00014c10: 00 00 00 00 00 00 00 00 00 00 00 00 00 00 00 00  ................
00014c20: 00 ff 2f 00 0a                                   ../..
